<svg width="188" height="76" viewBox="0 0 188 76" fill="none" xmlns="http://www.w3.org/2000/svg">
<path d="M45.8691 20.9452C50.7693 25.3412 53.9996 31.8317 53.9996 38.7651C53.9996 51.4593 44.0518 61.75 31.7832 61.75C27.6281 61.75 22.6033 60.3605 19.7891 58.2173L26.1048 48.6136L27.3133 48.6163L31.7851 42.2605L36.1122 48.5962C36.1246 48.6069 41.4239 48.6096 41.4239 48.6096L34.4741 38.3635L41.1364 28.8392L40.1401 28.8459L45.5855 20.6978C45.8581 20.9226 45.8691 20.9459 45.8691 20.9459V20.9452Z" fill="#929497"/>
<path d="M17.1298 56.3048C12.2296 51.9089 9 45.4184 9 38.4849C9 25.7907 18.9471 15.5 31.2164 15.5C35.3708 15.5 40.7533 17.133 43.5675 19.2769L36.8948 28.6364L35.6863 28.6344L31.2144 34.9895L26.8873 28.6538C26.875 28.6438 21.5756 28.6404 21.5756 28.6404L28.5255 38.8872L21.8632 48.4115L22.8594 48.4048L17.4141 56.5529C17.1415 56.3281 17.1304 56.3048 17.1304 56.3048H17.1298Z" fill="#00CC00"/>
<path d="M20.9595 46.8689H16.0308V32.5777C16.0308 31.5385 15.4908 31.0208 14.4108 31.0208H13.3555V29.0356H17.2899C19.7355 29.0356 20.9595 30.3384 20.9595 32.9446V46.8689V46.8689ZM51.6523 46.8882H41.2768V42.2728C41.2768 41.3076 41.8266 40.301 42.9234 39.2557L45.9875 36.8009C47.1623 35.7956 47.7509 35.0259 47.7509 34.4935V32.393C47.7509 31.6445 47.3064 31.269 46.4204 31.269C45.6494 31.269 45.2651 31.6232 45.2651 32.3349L45.2437 33.9272L41.2989 36.8963L41.2768 33.3982C41.2768 30.5399 42.9909 29.1104 46.4204 29.1104C49.907 29.1104 51.6516 30.2143 51.6516 32.4223V35.0559C51.6516 35.9631 51.0922 36.8996 49.9752 37.8655L46.9117 40.2903C45.8142 41.2782 45.2651 42.2248 45.2651 43.132L45.2762 44.3887L51.6335 44.4041L51.651 46.8882H51.6523Z" fill="white"/>
<path d="M76.9 45V33.76L74.12 35.02V33.06L77.58 31.24H79.16V45H76.9ZM81.6163 45L86.5363 38.1L81.6963 31.24H84.3363L87.8763 36.22H88.0363L91.5563 31.24H94.1363L89.2963 38.04L94.1963 45H91.5563L87.9363 39.88H87.7763L84.1763 45H81.6163ZM95.9323 45V43.3C95.9323 42.5267 95.9523 41.88 95.9923 41.36C96.0457 40.8267 96.1457 40.38 96.2923 40.02C96.439 39.66 96.6723 39.3533 96.9923 39.1C97.3123 38.8467 97.7523 38.6067 98.3123 38.38L101.672 36.98C102.139 36.7933 102.486 36.62 102.712 36.46C102.939 36.2867 103.092 36.08 103.172 35.84C103.252 35.6 103.292 35.2867 103.292 34.9C103.292 34.3267 103.199 33.9067 103.012 33.64C102.839 33.3733 102.519 33.2 102.052 33.12C101.599 33.04 100.959 33 100.132 33C99.8257 33 99.4457 33.0133 98.9923 33.04C98.5523 33.0667 98.0857 33.1 97.5923 33.14C97.1123 33.18 96.6523 33.22 96.2123 33.26V31.48C96.6123 31.4 97.079 31.3333 97.6123 31.28C98.1457 31.2267 98.6923 31.18 99.2523 31.14C99.8257 31.1 100.359 31.08 100.852 31.08C101.506 31.08 102.112 31.12 102.672 31.2C103.232 31.2667 103.726 31.42 104.152 31.66C104.592 31.9 104.932 32.2667 105.172 32.76C105.426 33.24 105.552 33.8933 105.552 34.72C105.552 35.5333 105.459 36.1867 105.272 36.68C105.099 37.16 104.832 37.5533 104.472 37.86C104.112 38.1533 103.646 38.4133 103.072 38.64L99.2323 40.22C98.899 40.3533 98.6523 40.5 98.4923 40.66C98.3323 40.82 98.2323 41.0333 98.1923 41.3C98.1523 41.5667 98.1323 41.9133 98.1323 42.34V43.06H105.552V45H95.9323ZM114.199 45.16C113.212 45.16 112.372 45.1 111.679 44.98C110.999 44.8467 110.432 44.6267 109.979 44.32C109.526 44.0133 109.172 43.5933 108.919 43.06C108.679 42.5267 108.506 41.86 108.399 41.06C108.306 40.2467 108.259 39.2667 108.259 38.12C108.259 36.9733 108.306 36 108.399 35.2C108.506 34.3867 108.686 33.7133 108.939 33.18C109.192 32.6467 109.546 32.2267 109.999 31.92C110.452 31.6133 111.019 31.4 111.699 31.28C112.392 31.1467 113.226 31.08 114.199 31.08C114.639 31.08 115.119 31.1 115.639 31.14C116.172 31.18 116.699 31.2333 117.219 31.3C117.739 31.3533 118.212 31.42 118.639 31.5V33.3C118.186 33.2333 117.739 33.18 117.299 33.14C116.859 33.1 116.452 33.0667 116.079 33.04C115.719 33.0133 115.419 33 115.179 33C114.379 33 113.706 33.02 113.159 33.06C112.612 33.0867 112.166 33.18 111.819 33.34C111.472 33.5 111.206 33.7667 111.019 34.14C110.832 34.5 110.699 35 110.619 35.64C110.552 36.28 110.519 37.1067 110.519 38.12C110.519 39.0133 110.539 39.7667 110.579 40.38C110.632 40.98 110.732 41.48 110.879 41.88C111.039 42.2667 111.252 42.56 111.519 42.76C111.799 42.96 112.159 43.1 112.599 43.18C113.052 43.26 113.606 43.3 114.259 43.3C114.512 43.3 114.779 43.2933 115.059 43.28C115.352 43.2667 115.626 43.2533 115.879 43.24C116.132 43.2133 116.346 43.1867 116.519 43.16V39.26H113.819V37.38H118.699V44.74C118.246 44.82 117.746 44.8933 117.199 44.96C116.666 45.0133 116.139 45.06 115.619 45.1C115.099 45.14 114.626 45.16 114.199 45.16ZM120.756 45L125.676 31.24H128.636L133.556 45H131.216L130.016 41.6H124.216L123.036 45H120.756ZM124.856 39.68H129.356L127.156 33.42H127.056L124.856 39.68ZM135.828 45V31.24H138.908L142.948 41.24H143.048L147.088 31.24H150.168V45H147.988V34.74H147.908L143.748 45H142.148L138.028 34.74H137.948V45H135.828ZM153.856 45V31.24H156.116V45H153.856ZM159.774 45V31.24H162.114L168.414 40.76H168.494V31.24H170.654V45H168.494L162.014 35.18H161.934V45H159.774ZM179.804 45.16C178.818 45.16 177.978 45.1 177.284 44.98C176.604 44.8467 176.038 44.6267 175.584 44.32C175.131 44.0133 174.778 43.5933 174.524 43.06C174.284 42.5267 174.111 41.86 174.004 41.06C173.911 40.2467 173.864 39.2667 173.864 38.12C173.864 36.9733 173.911 36 174.004 35.2C174.111 34.3867 174.291 33.7133 174.544 33.18C174.798 32.6467 175.151 32.2267 175.604 31.92C176.058 31.6133 176.624 31.4 177.304 31.28C177.998 31.1467 178.831 31.08 179.804 31.08C180.244 31.08 180.724 31.1 181.244 31.14C181.778 31.18 182.304 31.2333 182.824 31.3C183.344 31.3533 183.818 31.42 184.244 31.5V33.3C183.791 33.2333 183.344 33.18 182.904 33.14C182.464 33.1 182.058 33.0667 181.684 33.04C181.324 33.0133 181.024 33 180.784 33C179.984 33 179.311 33.02 178.764 33.06C178.218 33.0867 177.771 33.18 177.424 33.34C177.078 33.5 176.811 33.7667 176.624 34.14C176.438 34.5 176.304 35 176.224 35.64C176.158 36.28 176.124 37.1067 176.124 38.12C176.124 39.0133 176.144 39.7667 176.184 40.38C176.238 40.98 176.338 41.48 176.484 41.88C176.644 42.2667 176.858 42.56 177.124 42.76C177.404 42.96 177.764 43.1 178.204 43.18C178.658 43.26 179.211 43.3 179.864 43.3C180.118 43.3 180.384 43.2933 180.664 43.28C180.958 43.2667 181.231 43.2533 181.484 43.24C181.738 43.2133 181.951 43.1867 182.124 43.16V39.26H179.424V37.38H184.304V44.74C183.851 44.82 183.351 44.8933 182.804 44.96C182.271 45.0133 181.744 45.06 181.224 45.1C180.704 45.14 180.231 45.16 179.804 45.16Z" fill="#3A3A3A"/>
</svg>
