<svg width="188" height="76" viewBox="0 0 188 76" fill="none" xmlns="http://www.w3.org/2000/svg">
<path d="M87.0242 13.4454L89.6988 17.4754C88.1102 15.4504 84.5931 19.5304 83.6441 20.6904C83.5652 20.7871 83.4514 20.85 83.3265 20.8658C83.2016 20.8817 83.0753 20.8493 82.9742 20.7754C81.9253 20.0087 81.1877 19.157 80.7614 18.2204C81.1606 18.087 81.526 18.072 81.8576 18.1754C83.6035 18.0287 85.0228 17.2954 86.1157 15.9754C86.251 15.8087 86.2172 15.687 86.0142 15.6104C85.2868 15.327 84.4595 15.2654 83.5324 15.4254L80.8883 15.3704C79.9071 15.4137 78.936 15.687 77.9751 16.1904C76.9025 16.0904 76.302 16.4337 76.1734 17.2204C76.0178 18.1604 76.1514 18.622 76.5744 18.6054L79.7007 20.7054C78.6586 20.8987 77.7755 21.4854 77.0514 22.4654C75.7014 24.2954 74.842 25.582 74.4732 26.3254L72.6259 28.7704C70.5383 26.3004 68.1377 24.262 65.4242 22.6554L65.4191 22.4004C65.4157 22.227 65.4732 22.2037 65.5916 22.3304C65.7371 22.4904 65.8843 22.5454 66.0332 22.4954C66.1651 22.6254 66.3242 22.7254 66.5103 22.7954C68.8178 23.5387 71.0103 23.162 73.0877 21.6654C73.1839 21.5954 73.2594 21.5013 73.3062 21.3928C73.3531 21.2844 73.3696 21.1655 73.354 21.0487C73.3385 20.9318 73.2915 20.8212 73.2179 20.7283C73.1443 20.6354 73.0467 20.5636 72.9354 20.5204C71.0306 19.7904 69.0834 20.0054 67.0939 21.1654C66.6202 21.262 66.1685 21.5187 65.7388 21.9354C65.8437 21.1154 66.2142 20.4387 66.8503 19.9054C67.1446 19.6587 67.214 19.347 67.0584 18.9704C66.9941 18.8204 67.0415 18.727 67.2005 18.6904L69.5198 18.1754L75.4172 15.1054C79.298 14.1687 82.1401 13.592 83.9435 13.3754C84.7014 13.2854 85.7283 13.3087 87.0242 13.4454Z" fill="#DD1616"/>
<path d="M80.8878 15.3701C80.0859 15.7868 79.663 16.5001 79.619 17.5101L77.9746 16.1901C78.9355 15.6868 79.9066 15.4135 80.8878 15.3701Z" fill="#FE3D3D"/>
<path d="M80.8879 15.3701L83.5321 15.4251L84.2579 15.5151C84.4913 15.5451 84.5235 15.6401 84.3543 15.8001L81.8573 18.1751C81.5257 18.0718 81.1603 18.0868 80.7611 18.2201L79.6191 17.5101C79.6631 16.5001 80.0861 15.7868 80.8879 15.3701Z" fill="#E6ADAD"/>
<path d="M83.5313 15.425C84.4583 15.265 85.2856 15.3267 86.013 15.61C86.216 15.6867 86.2499 15.8083 86.1145 15.975C85.0217 17.295 83.6023 18.0283 81.8564 18.175L84.3534 15.8C84.5226 15.64 84.4905 15.545 84.257 15.515L83.5313 15.425Z" fill="#FE3D3D"/>
<path d="M49.6691 15.5L48.4815 15.67C48.2853 15.7 48.2582 15.7833 48.4003 15.92L48.5221 16.04C48.6812 16.1966 48.6558 16.315 48.446 16.395C47.7084 16.6816 47.4479 17.175 47.6644 17.875C49.73 24.63 52.0088 30.21 47.7862 36.39C46.1283 38.8133 44.33 41.1066 42.3913 43.27C42.2492 42.8466 41.9887 42.8483 41.6097 43.275C41.5476 43.3438 41.4658 43.3924 41.3751 43.4144C41.2844 43.4364 41.189 43.4308 41.1016 43.3983C41.0141 43.3658 40.9388 43.308 40.8854 43.2324C40.8321 43.1568 40.8033 43.067 40.8028 42.975C40.7977 41.455 40.752 40.21 41.0109 38.705C41.4778 35.98 42.777 31.805 41.2951 29.325C41.2751 29.2919 41.262 29.2552 41.2565 29.2171C41.2511 29.179 41.2534 29.1402 41.2633 29.103C41.2732 29.0657 41.2905 29.0308 41.3143 29.0003C41.3381 28.9697 41.3678 28.9441 41.4017 28.925C43.6144 27.6783 44.6295 26.1516 44.4468 24.345C44.8528 21.4816 44.2251 20.5566 42.5639 21.57C41.7891 21.9333 41.0836 22.0066 40.4475 21.79C40.3189 21.7466 40.2986 21.675 40.3866 21.575C40.7689 21.1383 40.9906 20.6016 41.0515 19.965C43.4368 17.15 45.5938 15.345 49.6691 15.5Z" fill="#DD1616"/>
<path d="M49.6703 15.5C52.2146 16.2133 54.6761 17.1767 57.0547 18.39L65.4237 22.655C68.1372 24.2617 70.5378 26.3 72.6254 28.77L74.29 31.385L76.0562 34.52L77.3148 37.57C77.0306 39.305 78.3502 40.275 77.9391 41.8C77.9274 41.8428 77.9071 41.883 77.8795 41.918C77.8519 41.9531 77.8175 41.9824 77.7783 42.0043C77.7391 42.0261 77.6959 42.0401 77.6512 42.0454C77.6065 42.0507 77.5612 42.0471 77.5178 42.035C76.0207 41.595 74.5083 41.58 73.1278 41.025C71.7372 40.4683 70.3534 39.9033 68.9763 39.33L65.916 38.065C66.2272 37.6217 66.2949 36.9767 66.119 36.13C66.0818 35.9567 65.9819 35.835 65.8195 35.765C65.1428 35.4717 64.615 35.005 64.2361 34.365C64.1481 34.215 64.0229 34.1067 63.8605 34.04C63.5357 33.9067 63.2396 33.7283 62.9724 33.505C62.8303 33.3883 62.7389 33.26 62.6983 33.12C62.6239 32.8567 62.6932 32.6767 62.9064 32.58C62.9741 32.5486 63.0496 32.5376 63.1236 32.5482C63.1977 32.5589 63.2668 32.5908 63.3225 32.64L66.3626 35.35C66.4384 35.4187 66.5382 35.4559 66.6412 35.4541C66.7442 35.4522 66.8425 35.4114 66.9158 35.34L67.2812 34.975C67.3093 34.9482 67.3305 34.9151 67.3429 34.8785C67.3553 34.8419 67.3587 34.8028 67.3528 34.7643C67.3469 34.7258 67.3318 34.6891 67.3087 34.657C67.2857 34.625 67.2554 34.5986 67.2203 34.58C66.3913 34.1433 65.7553 33.515 65.312 32.695C65.2071 32.5017 65.1868 32.34 65.2511 32.21C65.3357 32.03 65.5235 31.9267 65.8145 31.9C65.8915 31.8924 65.9693 31.9085 66.0373 31.946C66.1053 31.9835 66.1604 32.0407 66.1951 32.11C66.6959 33.11 67.3996 33.33 68.3064 32.77C68.4417 32.6867 68.4603 32.5833 68.3622 32.46C66.8193 30.5533 64.9162 29.1417 62.6526 28.225C60.724 27.445 59.6583 25.635 58.6838 23.925C58.6427 23.8516 58.6232 23.7689 58.6277 23.6865C58.6322 23.6041 58.6605 23.5255 58.7092 23.46C59.7648 22.025 57.6485 20.865 56.6233 20.375C56.471 20.305 56.3188 20.3017 56.1665 20.365C54.6186 21.005 52.2739 21.32 51.0507 19.955C50.9256 19.8183 50.7699 19.75 50.5838 19.75H50.1829C50.0938 19.7499 50.0059 19.7696 49.9257 19.8078C49.8456 19.846 49.7752 19.9016 49.72 19.9704C49.6648 20.0392 49.6262 20.1195 49.607 20.2052C49.5878 20.2908 49.5887 20.3797 49.6094 20.465C50.7209 25.095 51.4517 29.835 55.5626 32.83C56.3272 33.3833 57.4607 34.12 58.963 35.04C58.7464 35.55 59.3334 36.2183 60.724 37.045C60.9338 37.1717 60.9152 37.2433 60.6682 37.26L60.4601 37.275C56.9481 36.375 52.4007 36.285 49.5789 38.27C46.5203 40.4167 43.5581 43.1917 40.6923 46.595C40.5874 46.7217 40.4791 46.805 40.3675 46.845C40.2118 46.9017 40.0731 46.9133 39.9513 46.88C39.89 46.8618 39.8342 46.8288 39.789 46.7841C39.7438 46.7393 39.7107 46.6842 39.6925 46.6237C39.6744 46.5631 39.6719 46.4991 39.6851 46.4373C39.6984 46.3756 39.7271 46.3181 39.7686 46.27L42.3925 43.27C44.3312 41.1067 46.1295 38.8133 47.7874 36.39C52.0099 30.21 49.7312 24.63 47.6656 17.875C47.449 17.175 47.7096 16.6817 48.4472 16.395C48.6569 16.315 48.6823 16.1967 48.5233 16.04L48.4015 15.92C48.2594 15.7833 48.2865 15.7 48.4827 15.67L49.6703 15.5ZM71.798 30.9519C72.0042 30.7262 71.925 30.2641 71.5779 29.6672C71.2307 29.0703 70.644 28.3876 69.9468 27.7691C69.2496 27.1506 68.499 26.6472 67.8602 26.3694C67.2214 26.0917 66.7466 26.0624 66.5404 26.2881C66.3341 26.5138 66.4133 26.9759 66.7604 27.5728C67.1076 28.1697 67.6943 28.8524 68.3915 29.4709C69.0887 30.0894 69.8393 30.5928 70.4781 30.8706C71.1169 31.1483 71.5917 31.1776 71.798 30.9519Z" fill="#FF0000"/>
<path d="M77.9742 16.1898L79.6186 17.5098L80.7605 18.2198C81.1868 19.1564 81.9244 20.0081 82.9733 20.7748C83.0745 20.8486 83.2008 20.881 83.3257 20.8652C83.4505 20.8494 83.5644 20.7865 83.6432 20.6898C84.5923 19.5298 88.1094 15.4498 89.6979 17.4748L90.2917 18.9998L89.4696 17.7598C89.3105 17.5198 89.1295 17.4998 88.9265 17.6998L84.9374 21.6148C84.8437 21.7052 84.79 21.8285 84.7881 21.9577C84.7862 22.0869 84.8362 22.2117 84.9273 22.3048C86.9235 24.3581 88.8487 26.4781 90.7028 28.6648C91.7737 29.9348 91.8041 31.4048 91.9564 32.9598C91.9733 33.1464 92.0782 33.2364 92.2711 33.2298L94.2808 33.1648L92.3066 42.1098L91.0073 42.1598C90.8348 42.1664 90.6825 42.1164 90.5506 42.0098C88.8199 40.6548 87.3786 38.5898 85.1506 37.7798C84.978 37.7164 84.8376 37.6114 84.7293 37.4648L83.897 36.2948C83.8753 36.2629 83.8449 36.2376 83.8094 36.2219C83.7738 36.2062 83.7345 36.2006 83.6959 36.2058C83.6573 36.211 83.6209 36.2268 83.591 36.2514C83.561 36.2759 83.5387 36.3083 83.5265 36.3448C82.9276 38.0698 83.8919 39.6648 83.2778 41.5948L82.1867 44.9248L79.04 50.2198C77.6647 52.1948 76.4872 54.1448 74.4267 55.5998C73.4861 55.2531 73.0226 54.5831 73.0361 53.5898C73.0395 53.4198 72.9989 53.2614 72.9143 53.1148L72.3814 52.1598C72.29 52.0031 72.312 51.8614 72.4474 51.7348C74.787 49.5198 77.7205 47.4248 78.431 44.0748L78.9741 43.3798C79.4461 44.8998 81.1259 45.0948 81.6842 43.4048C82.0902 42.1748 82.2983 41.0648 82.3085 40.0748C82.3085 39.5848 81.9786 39.1648 81.4761 39.2448C81.2934 38.9614 80.9449 38.9348 80.4306 39.1648C79.6998 39.6081 79.2447 40.5364 79.0654 41.9498L78.1417 39.6398L78.3701 38.8398C78.4125 38.686 78.3907 38.5206 78.3092 38.3798C77.5615 37.1031 77.4024 35.7764 77.8321 34.3998C77.8795 34.2498 77.8897 34.0948 77.8626 33.9348C77.685 32.8698 79.7201 32.5198 80.4814 32.2548C80.6336 32.2014 80.7149 32.0964 80.725 31.9398C80.9534 29.1898 80.0855 28.1798 79.5983 25.9498C79.3649 24.8598 79.0959 24.2448 78.2229 23.7448C78.148 23.7032 78.0623 23.6843 77.9765 23.6905C77.8907 23.6967 77.8087 23.7278 77.7408 23.7798L74.4724 26.3248C74.8412 25.5814 75.7006 24.2948 77.0506 22.4648C77.7746 21.4848 78.6577 20.8981 79.6998 20.7048C81.0836 22.7748 81.7857 25.2098 81.806 28.0098C81.8094 28.5731 82.0023 29.4531 82.3846 30.6498C82.9429 32.3848 81.9177 34.2348 84.034 35.5498C84.1399 35.6191 84.2684 35.6468 84.394 35.6273C84.5196 35.6078 84.6332 35.5426 84.7123 35.4445C84.7914 35.3464 84.8303 35.2227 84.8212 35.0977C84.8121 34.9728 84.7558 34.8558 84.6633 34.7698L84.5111 34.6198C84.3081 34.4198 84.3453 34.2848 84.6227 34.2148L85.1556 34.0798C85.335 34.0331 85.4585 33.9248 85.5261 33.7548C85.807 33.0481 86.2925 32.5264 86.9827 32.1898C87.1586 32.1064 87.1942 31.9848 87.0893 31.8248C85.5008 29.3948 82.8921 27.7298 82.7399 24.7098C82.7297 24.5364 82.8109 24.4214 82.9835 24.3648C83.5451 24.1814 83.8226 23.7598 83.8158 23.0998C83.8124 22.9331 83.7464 22.7981 83.6179 22.6948C82.6908 21.9448 81.7654 21.1981 80.8417 20.4548C79.7861 19.6048 78.4665 17.2348 76.5735 18.6048C76.1506 18.6214 76.0169 18.1598 76.1726 17.2198C76.3011 16.4331 76.9017 16.0898 77.9742 16.1898ZM88.084 27.7098C87.9814 27.6168 87.8504 27.5597 87.7116 27.5474C87.5727 27.5351 87.4335 27.5682 87.3156 27.6417C87.1978 27.7151 87.1077 27.8247 87.0595 27.9536C87.0112 28.0825 87.0074 28.2235 87.0487 28.3548C87.4885 29.7281 88.2261 30.8664 89.2615 31.7698C89.3582 31.8558 89.481 31.9081 89.6109 31.9186C89.7408 31.9291 89.8706 31.8972 89.9802 31.8278C90.0899 31.7585 90.1734 31.6555 90.2177 31.5347C90.2621 31.414 90.2649 31.2822 90.2258 31.1598C89.7961 29.7798 89.0821 28.6298 88.084 27.7098Z" fill="#FF0000"/>
<path d="M90.2908 18.9998L91.7778 22.4398C91.7846 23.1932 92.0535 23.8965 92.5847 24.5498C92.6022 24.5664 92.6123 24.5892 92.6128 24.6131C92.6133 24.637 92.6041 24.6601 92.5873 24.6773C92.5705 24.6946 92.5474 24.7045 92.5231 24.705C92.4988 24.7055 92.4754 24.6964 92.4579 24.6798L92.3208 24.5848C92.2667 24.5482 92.2261 24.5582 92.199 24.6148C91.6205 25.7048 91.2973 26.8748 91.2297 28.1248C91.2251 28.2027 91.2427 28.2801 91.2804 28.3482C91.3181 28.4163 91.3744 28.4723 91.4428 28.5098C92.2244 28.9432 93.2513 29.0482 94.5235 28.8248L94.9143 29.1798C95.0564 29.3132 95.0648 29.4515 94.9396 29.5948C94.1733 30.4848 95.2035 31.9198 94.2799 33.1648L92.2701 33.2298C92.0772 33.2365 91.9723 33.1465 91.9554 32.9598C91.8032 31.4048 91.7727 29.9348 90.7018 28.6648C88.8477 26.4782 86.9225 24.3582 84.9263 22.3048C84.8353 22.2118 84.7853 22.087 84.7872 21.9578C84.7891 21.8285 84.8427 21.7053 84.9364 21.6148L88.9255 17.6998C89.1285 17.4998 89.3096 17.5198 89.4686 17.7598L90.2908 18.9998Z" fill="#FE3D3D"/>
<path d="M67.0579 18.0951L69.5193 18.1751L67.2 18.6901C67.041 18.7268 66.9936 18.8201 67.0579 18.9701C67.2135 19.3468 67.1442 19.6584 66.8498 19.9051C66.2137 20.4384 65.8432 21.1151 65.7383 21.9351C65.762 22.1718 65.8601 22.3584 66.0327 22.4951C65.8838 22.5451 65.7366 22.4901 65.5912 22.3301C65.4727 22.2034 65.4152 22.2268 65.4186 22.4001L65.4237 22.6551L57.0547 18.3901C60.3975 17.9201 63.7319 17.8218 67.0579 18.0951Z" fill="#BF0000"/>
<path d="M79.6996 20.7048L76.5732 18.6048C78.4663 17.2348 79.7858 19.6048 80.8415 20.4548C81.7652 21.1981 82.6905 21.9448 83.6176 22.6948C83.7462 22.7981 83.8122 22.9331 83.8155 23.0998C83.8223 23.7598 83.5449 24.1815 82.9832 24.3648C82.8106 24.4215 82.7294 24.5365 82.7396 24.7098C82.8918 27.7298 85.5005 29.3948 87.089 31.8248C87.1939 31.9848 87.1584 32.1065 86.9825 32.1898C86.2922 32.5265 85.8067 33.0481 85.5259 33.7548C85.4582 33.9248 85.3347 34.0331 85.1554 34.0798L84.6225 34.2148C84.345 34.2848 84.3078 34.4198 84.5108 34.6198L84.6631 34.7698C84.7556 34.8558 84.8119 34.9728 84.8209 35.0978C84.83 35.2227 84.7911 35.3465 84.712 35.4445C84.6329 35.5426 84.5193 35.6078 84.3937 35.6273C84.2681 35.6468 84.1397 35.6191 84.0338 35.5498C81.9174 34.2348 82.9426 32.3848 82.3843 30.6498C82.002 29.4531 81.8091 28.5731 81.8058 28.0098C81.7855 25.2098 81.0834 22.7748 79.6996 20.7048Z" fill="#FE3D3D"/>
<path d="M65.9145 38.065L58.9615 35.04C57.4593 34.12 56.3258 33.3833 55.5612 32.83C51.4503 29.835 50.7194 25.095 49.608 20.465C49.5872 20.3797 49.5864 20.2908 49.6056 20.2052C49.6248 20.1195 49.6634 20.0392 49.7186 19.9704C49.7738 19.9016 49.8442 19.846 49.9243 19.8078C50.0045 19.7696 50.0924 19.7499 50.1815 19.75H50.5824C50.7685 19.75 50.9241 19.8183 51.0493 19.955C52.2724 21.32 54.6172 21.005 56.1651 20.365C56.3174 20.3017 56.4696 20.305 56.6219 20.375C57.6471 20.865 59.7634 22.025 58.7078 23.46C58.6591 23.5255 58.6308 23.6041 58.6263 23.6865C58.6218 23.7689 58.6413 23.8516 58.6824 23.925C59.6568 25.635 60.7226 27.445 62.6512 28.225C64.9147 29.1417 66.8179 30.5533 68.3608 32.46C68.4589 32.5833 68.4403 32.6867 68.305 32.77C67.3982 33.33 66.6944 33.11 66.1937 32.11C66.1589 32.0407 66.1039 31.9835 66.0359 31.946C65.9679 31.9085 65.8901 31.8924 65.813 31.9C65.5221 31.9267 65.3343 32.03 65.2497 32.21C65.1854 32.34 65.2057 32.5017 65.3106 32.695C65.7538 33.515 66.3899 34.1433 67.2189 34.58C67.254 34.5986 67.2843 34.625 67.3073 34.657C67.3304 34.6891 67.3454 34.7258 67.3514 34.7643C67.3573 34.8028 67.3539 34.8419 67.3415 34.8785C67.329 34.9151 67.3079 34.9482 67.2798 34.975L66.9144 35.34C66.8411 35.4114 66.7428 35.4522 66.6398 35.4541C66.5368 35.4559 66.437 35.4187 66.3612 35.35L63.3211 32.64C63.2654 32.5908 63.1962 32.5589 63.1222 32.5482C63.0482 32.5376 62.9726 32.5486 62.905 32.58C62.6918 32.6767 62.6224 32.8567 62.6969 33.12C62.7375 33.26 62.8288 33.3883 62.9709 33.505C63.2382 33.7283 63.5343 33.9067 63.8591 34.04C64.0215 34.1067 64.1467 34.215 64.2347 34.365C64.6136 35.005 65.1414 35.4717 65.8181 35.765C65.9805 35.835 66.0803 35.9567 66.1176 36.13C66.2935 36.9767 66.2258 37.6217 65.9145 38.065ZM60.5862 31.8022C60.7921 31.5569 60.681 31.0702 60.2773 30.4492C59.8736 29.8281 59.2104 29.1235 58.4336 28.4904C57.6568 27.8573 56.83 27.3475 56.1352 27.0733C55.4403 26.799 54.9342 26.7826 54.7283 27.0279C54.5224 27.2731 54.6335 27.7598 55.0371 28.3808C55.4408 29.0019 56.104 29.7065 56.8808 30.3396C57.6576 30.9727 58.4844 31.4825 59.1793 31.7567C59.8742 32.031 60.3802 32.0474 60.5862 31.8022Z" fill="#FE3D3D"/>
<path d="M41.053 19.9648C40.9921 20.6015 40.7705 21.1382 40.3881 21.5748C40.3002 21.6748 40.3205 21.7465 40.449 21.7898C41.0851 22.0065 41.7906 21.9332 42.5654 21.5698C40.9041 23.1165 40.0989 24.8798 40.1496 26.8598C40.175 27.8798 41.0276 28.5598 41.9564 27.7698C42.8327 27.0232 43.6633 25.8815 44.4483 24.3448C44.631 26.1515 43.616 27.6782 41.4032 28.9248C41.3693 28.944 41.3396 28.9696 41.3158 29.0001C41.2921 29.0307 41.2747 29.0656 41.2648 29.1028C41.2549 29.1401 41.2526 29.1789 41.258 29.217C41.2635 29.2551 41.2766 29.2918 41.2966 29.3248C42.7786 31.8048 41.4793 35.9798 41.0124 38.7048C40.7536 40.2098 40.7992 41.4548 40.8043 42.9748C40.8048 43.0669 40.8336 43.1566 40.887 43.2322C40.9403 43.3078 41.0157 43.3657 41.1031 43.3982C41.1905 43.4307 41.2859 43.4363 41.3766 43.4143C41.4674 43.3923 41.5492 43.3436 41.6113 43.2748C41.9902 42.8482 42.2507 42.8465 42.3928 43.2698L39.769 46.2698C39.7275 46.3179 39.6988 46.3754 39.6855 46.4372C39.6722 46.4989 39.6748 46.563 39.6929 46.6235C39.711 46.6841 39.7442 46.7392 39.7894 46.7839C39.8345 46.8287 39.8903 46.8617 39.9517 46.8798C40.0735 46.9132 40.2122 46.9015 40.3678 46.8448C40.4795 46.8048 40.5878 46.7215 40.6927 46.5948C43.5584 43.1915 46.5207 40.4165 49.5793 38.2698C52.4011 36.2848 56.9485 36.3748 60.4605 37.2748L67.8094 40.0998C67.9955 40.1698 68.1291 40.1148 68.2103 39.9348C68.3795 39.5515 68.6349 39.3498 68.9767 39.3298C70.3537 39.9032 71.7376 40.4682 73.1282 41.0248C74.5086 41.5798 76.021 41.5948 77.5182 42.0348C77.5615 42.047 77.6069 42.0505 77.6516 42.0452C77.6963 42.0399 77.7395 42.026 77.7787 42.0041C77.8179 41.9822 77.8523 41.9529 77.8799 41.9179C77.9075 41.8828 77.9277 41.8427 77.9395 41.7998C78.3505 40.2748 77.031 39.3048 77.3152 37.5698L78.1425 39.6398L79.0661 41.9498L78.9748 43.3798L78.4317 44.0748C76.9227 44.7482 75.6336 44.6965 74.5645 43.9198C72.7323 42.5898 70.9458 41.6948 68.8752 40.7548C68.6552 40.6582 68.5385 40.7282 68.525 40.9648L68.4945 41.4598C68.4899 41.5326 68.4638 41.6022 68.4195 41.66C68.3753 41.7178 68.3149 41.7613 68.2458 41.7848L66.6066 42.3498C66.5119 42.3823 66.4261 42.4359 66.3559 42.5065C66.2858 42.5771 66.2332 42.6627 66.2022 42.7566C66.1712 42.8506 66.1628 42.9503 66.1774 43.048C66.1921 43.1457 66.2296 43.2388 66.2868 43.3198L67.85 45.5398C62.2774 46.0498 62.7342 51.5348 68.6011 50.0898C68.2255 50.7932 67.3848 51.1015 66.0787 51.0148C65.8961 51.0021 65.7141 51.0613 65.5712 51.1798C65.1821 51.4965 64.9537 51.8915 64.8861 52.3648C64.8797 52.4263 64.8959 52.4883 64.9317 52.5398L66.703 54.7798C66.8316 54.9432 66.9821 54.9665 67.1547 54.8498L68.1596 54.1548C68.1955 54.1295 68.2382 54.1153 68.2824 54.1139C68.3265 54.1125 68.3701 54.1241 68.4076 54.1471C68.4451 54.1701 68.4748 54.2035 68.493 54.2432C68.5111 54.2828 68.517 54.3269 68.5098 54.3698C68.3626 55.2848 67.3983 55.5998 67.1598 56.3548C65.6744 58.0015 64.1248 59.3432 62.5109 60.3798C59.2255 61.8832 55.7592 62.1215 52.1118 61.0948C46.6543 59.5548 42.0105 58.0065 38.1804 56.4498C37.8928 56.3332 37.475 55.9015 36.9269 55.1548C36.8389 55.0364 36.8007 54.8895 36.8203 54.7448C37.0233 53.1682 36.624 51.8132 35.6225 50.6798C35.4906 50.5298 35.3248 50.4632 35.1252 50.4798L33.09 50.6548C32.9107 50.6715 32.7635 50.6098 32.6485 50.4698C31.4507 49.0298 31.6081 45.8898 31.2224 44.2398C30.3849 40.6548 30.1667 35.3948 32.1866 32.1198C32.2746 31.9765 32.2831 31.8265 32.212 31.6698L31.938 31.0848L41.053 19.9648ZM34.3674 46.069C34.5665 46.1626 34.8061 46.1676 35.0725 46.0837C35.339 45.9998 35.627 45.8287 35.9201 45.5802C36.2133 45.3316 36.5059 45.0105 36.7812 44.6351C37.0564 44.2597 37.309 43.8374 37.5245 43.3923C37.74 42.9473 37.9142 42.4881 38.037 42.0411C38.1599 41.5941 38.2291 41.168 38.2407 40.7871C38.2523 40.4062 38.206 40.078 38.1045 39.8213C38.003 39.5645 37.8482 39.3842 37.6491 39.2906C37.45 39.1971 37.2104 39.1921 36.944 39.276C36.6775 39.3598 36.3895 39.5309 36.0964 39.7795C35.8032 40.0281 35.5106 40.3492 35.2353 40.7246C34.9601 41.1 34.7075 41.5223 34.492 41.9673C34.2765 42.4124 34.1024 42.8716 33.9795 43.3186C33.8566 43.7656 33.7874 44.1917 33.7758 44.5726C33.7643 44.9535 33.8105 45.2817 33.912 45.5384C34.0135 45.7952 34.1683 45.9755 34.3674 46.069ZM49.6361 51.6482C49.5735 51.3505 49.4137 51.0757 49.1659 50.8395C48.918 50.6032 48.5869 50.4101 48.1914 50.2713C47.796 50.1324 47.344 50.0505 46.8612 50.0302C46.3784 50.0099 45.8743 50.0516 45.3776 50.1529C44.3746 50.3576 43.4628 50.7927 42.8429 51.3625C42.223 51.9323 41.9458 52.5902 42.0721 53.1914C42.1347 53.4891 42.2945 53.764 42.5424 54.0002C42.7903 54.2365 43.1214 54.4295 43.5168 54.5684C43.9122 54.7072 44.3643 54.7892 44.8471 54.8095C45.3299 54.8298 45.834 54.7881 46.3306 54.6867C47.3337 54.4821 48.2454 54.047 48.8653 53.4772C49.4852 52.9074 49.7625 52.2495 49.6361 51.6482Z" fill="#BF0000"/>
<path d="M66.5086 22.7951C66.4139 22.2851 66.6084 21.7418 67.0923 21.1651C69.0817 20.0051 71.0289 19.7901 72.9338 20.5201C73.0451 20.5633 73.1426 20.6351 73.2162 20.728C73.2899 20.8209 73.3369 20.9315 73.3524 21.0484C73.368 21.1653 73.3514 21.2841 73.3046 21.3925C73.2578 21.501 73.1823 21.5951 73.0861 21.6651C71.0086 23.1618 68.8161 23.5384 66.5086 22.7951Z" fill="white"/>
<path d="M44.4474 24.3452C43.6625 25.8818 42.8318 27.0235 41.9555 27.7702C41.0267 28.5602 40.1741 27.8802 40.1487 26.8602C40.098 24.8802 40.9033 23.1168 42.5645 21.5702C44.2258 20.5568 44.8534 21.4818 44.4474 24.3452Z" fill="white"/>
<path d="M67.0934 21.165C66.6095 21.7417 66.415 22.285 66.5097 22.795C66.3236 22.725 66.1646 22.625 66.0326 22.495C65.8601 22.3584 65.762 22.1717 65.7383 21.935C66.168 21.5184 66.6197 21.2617 67.0934 21.165Z" fill="#FE3D3D"/>
<path d="M91.7793 22.4395L94.525 28.8245C93.2528 29.0478 92.2259 28.9428 91.4443 28.5095C91.3759 28.472 91.3196 28.4159 91.2819 28.3478C91.2442 28.2797 91.2266 28.2023 91.2312 28.1245C91.2988 26.8745 91.622 25.7045 92.2005 24.6145C92.2276 24.5578 92.2682 24.5478 92.3223 24.5845L92.4594 24.6795C92.4769 24.696 92.5003 24.7051 92.5246 24.7046C92.5489 24.7041 92.572 24.6942 92.5888 24.677C92.6056 24.6597 92.6148 24.6366 92.6143 24.6127C92.6138 24.5888 92.6037 24.566 92.5862 24.5495C92.055 23.8961 91.7861 23.1928 91.7793 22.4395Z" fill="#FF0000"/>
<path d="M78.1417 39.6399L77.3145 37.5699L76.0558 34.5199C76.0558 33.4566 75.8004 32.5466 75.2895 31.7899C74.9647 31.3032 74.6314 31.1682 74.2897 31.3849L72.625 28.7699L74.4724 26.3249L77.7408 23.7799C77.8087 23.7279 77.8907 23.6968 77.9765 23.6906C78.0623 23.6844 78.148 23.7033 78.2229 23.7449C79.0959 24.2449 79.3649 24.8599 79.5983 25.9499C80.0855 28.1799 80.9534 29.1899 80.725 31.9399C80.7149 32.0966 80.6336 32.2016 80.4814 32.2549C79.7201 32.5199 77.685 32.8699 77.8626 33.9349C77.8897 34.0949 77.8795 34.2499 77.8321 34.3999C77.4024 35.7766 77.5615 37.1032 78.3092 38.3799C78.3907 38.5208 78.4125 38.6862 78.3701 38.8399L78.1417 39.6399Z" fill="#FE3D3D"/>
<path d="M68.3918 29.4707C69.8437 30.7586 71.3688 31.4217 71.7983 30.9518C72.2278 30.4818 71.399 29.0568 69.9472 27.7689C68.4953 26.481 66.9702 25.818 66.5407 26.2879C66.1112 26.7579 66.94 28.1828 68.3918 29.4707Z" fill="white"/>
<path d="M56.882 30.3394C58.4996 31.6578 60.1586 32.3126 60.5874 31.8019C61.0162 31.2913 60.0524 29.8086 58.4348 28.4902C56.8172 27.1718 55.1582 26.517 54.7294 27.0276C54.3006 27.5383 55.2644 29.021 56.882 30.3394Z" fill="white"/>
<path d="M88.0842 27.7098C89.0824 28.6298 89.7963 29.7798 90.226 31.1598C90.2651 31.2823 90.2623 31.414 90.2179 31.5347C90.1736 31.6555 90.0901 31.7585 89.9804 31.8278C89.8708 31.8972 89.741 31.9291 89.6111 31.9186C89.4812 31.9081 89.3584 31.8558 89.2617 31.7698C88.2263 30.8665 87.4887 29.7281 87.0489 28.3548C87.0076 28.2235 87.0114 28.0826 87.0597 27.9537C87.108 27.8248 87.198 27.7151 87.3158 27.6417C87.4337 27.5682 87.5729 27.5351 87.7118 27.5474C87.8507 27.5597 87.9816 27.6168 88.0842 27.7098Z" fill="white"/>
<path d="M31.9372 31.085L32.2112 31.67C32.2823 31.8266 32.2738 31.9766 32.1858 32.12C30.1659 35.395 30.3841 40.655 31.2216 44.24C31.6073 45.89 31.4499 49.03 32.6477 50.47C32.7627 50.61 32.9099 50.6716 33.0892 50.655L35.1244 50.48C35.324 50.4633 35.4898 50.53 35.6217 50.68C36.6232 51.8133 37.0225 53.1683 36.8195 54.745C36.7999 54.8896 36.8381 55.0365 36.9261 55.155C37.4742 55.9016 37.892 56.3333 38.1796 56.45C42.0097 58.0066 46.6535 59.555 52.111 61.095C55.7584 62.1216 59.2247 61.8833 62.5101 60.38C56.562 64.29 48.802 61.295 42.3311 59.1C33.5105 56.1 31.1302 52.715 30.2167 43.625C29.7244 38.735 29.5721 35.165 31.9372 31.085Z" fill="#A90101"/>
<path d="M76.0562 34.5198L74.29 31.3848C74.6318 31.1681 74.965 31.3031 75.2898 31.7898C75.8008 32.5465 76.0562 33.4565 76.0562 34.5198Z" fill="white"/>
<path d="M58.9617 35.04L65.9147 38.065L68.9751 39.33C68.6334 39.35 68.3779 39.5517 68.2087 39.935C68.1275 40.115 67.9939 40.17 67.8078 40.1L60.4589 37.275L60.667 37.26C60.914 37.2434 60.9326 37.1717 60.7228 37.045C59.3322 36.2184 58.7452 35.55 58.9617 35.04Z" fill="#DD1616"/>
<path d="M92.3076 42.11C92.0775 42.2833 92.0809 42.365 92.3177 42.355C91.4042 43.355 90.9474 44.2866 90.9474 45.15C87.6282 45.4 83.2483 48.06 79.041 50.22L82.1876 44.925C82.9354 45.2683 83.81 45.1633 84.8115 44.61C85.4611 44.5566 85.9416 44.255 86.2529 43.705C86.3374 43.5616 86.3544 43.41 86.3036 43.25C86.1243 42.6733 85.7589 42.345 85.2074 42.265C84.6254 41.8716 83.9826 41.6483 83.2788 41.595C83.8929 39.665 82.9286 38.07 83.5275 36.345C83.5397 36.3085 83.562 36.2761 83.592 36.2516C83.6219 36.227 83.6583 36.2112 83.6969 36.206C83.7355 36.2008 83.7748 36.2064 83.8104 36.2221C83.8459 36.2378 83.8763 36.2631 83.898 36.295L84.7303 37.465C84.8386 37.6116 84.979 37.7166 85.1515 37.78C87.3795 38.59 88.8209 40.655 90.5515 42.01C90.6835 42.1166 90.8358 42.1666 91.0083 42.16L92.3076 42.11Z" fill="#A90101"/>
<path d="M81.4769 39.2448C81.5311 40.9215 81.3044 42.5398 80.7969 44.0998C80.753 44.2302 80.6614 44.3392 80.5401 44.4058C80.4188 44.4723 80.2763 44.4915 80.1407 44.4597C80.005 44.4278 79.8857 44.3472 79.8063 44.2335C79.7268 44.1198 79.6927 43.9812 79.7108 43.8448L80.4315 39.1648C80.9457 38.9348 81.2942 38.9615 81.4769 39.2448Z" fill="white"/>
<path d="M34.4917 41.9671C33.5854 43.839 33.5296 45.6753 34.367 46.0688C35.2044 46.4624 36.6179 45.2639 37.5242 43.3921C38.4304 41.5203 38.4862 39.6839 37.6488 39.2904C36.8114 38.8969 35.3979 40.0953 34.4917 41.9671Z" fill="white"/>
<path d="M80.4312 39.165L79.7105 43.845C79.6925 43.9814 79.7265 44.12 79.806 44.2337C79.8855 44.3474 80.0047 44.428 80.1404 44.4599C80.2761 44.4917 80.4185 44.4725 80.5398 44.406C80.6612 44.3394 80.7527 44.2304 80.7966 44.1C81.3041 42.54 81.5308 40.9217 81.4767 39.245C81.9791 39.165 82.309 39.585 82.309 40.075C82.2989 41.065 82.0908 42.175 81.6848 43.405C81.1265 45.095 79.4466 44.9 78.9746 43.38L79.066 41.95C79.2453 40.5367 79.7004 39.6084 80.4312 39.165Z" fill="#FE3D3D"/>
<path d="M78.4308 44.0749C77.7203 47.4249 74.7868 49.5199 72.4472 51.7349C72.3118 51.8616 72.2898 52.0033 72.3812 52.1599L72.9141 53.1149C72.9987 53.2616 73.0393 53.4199 73.0359 53.5899C73.0224 54.5833 73.4859 55.2533 74.4265 55.5999C72.3321 56.8633 69.9096 57.1149 67.1588 56.3549C67.3974 55.5999 68.3616 55.2849 68.5088 54.3699C68.5161 54.327 68.5102 54.2829 68.492 54.2433C68.4738 54.2036 68.4441 54.1702 68.4067 54.1472C68.3692 54.1242 68.3256 54.1126 68.2815 54.114C68.2373 54.1154 68.1946 54.1296 68.1586 54.1549L67.1538 54.8499C66.9812 54.9666 66.8306 54.9433 66.7021 54.7799L64.9308 52.5399C64.895 52.4884 64.8788 52.4264 64.8851 52.3649C64.9528 51.8916 65.1812 51.4966 65.5703 51.1799C65.7131 51.0614 65.8952 51.0022 66.0778 51.0149C67.3838 51.1016 68.2246 50.7933 68.6002 50.0899C72.5944 48.9299 72.1376 44.8799 67.8491 45.5399L66.2859 43.3199C66.2286 43.2389 66.1912 43.1458 66.1765 43.0481C66.1618 42.9504 66.1703 42.8507 66.2013 42.7567C66.2322 42.6628 66.2849 42.5772 66.355 42.5066C66.4252 42.436 66.5109 42.3824 66.6056 42.3499L68.2449 41.7849C68.3139 41.7614 68.3743 41.7179 68.4186 41.6601C68.4628 41.6023 68.4889 41.5327 68.4936 41.4599L68.5241 40.9649C68.5376 40.7283 68.6543 40.6583 68.8742 40.7549C70.9449 41.6949 72.7314 42.5899 74.5635 43.9199C75.6327 44.6966 76.9218 44.7483 78.4308 44.0749Z" fill="#A90101"/>
<path d="M83.2777 41.5947C83.9814 41.6481 84.6243 41.8714 85.2063 42.2647C85.7713 43.0281 85.6393 43.8097 84.8104 44.6097C83.8089 45.1631 82.9343 45.2681 82.1865 44.9247L83.2777 41.5947Z" fill="white"/>
<path d="M85.2064 42.2651C85.7579 42.3451 86.1233 42.6735 86.3027 43.2501C86.3534 43.4101 86.3365 43.5618 86.2519 43.7051C85.9406 44.2551 85.4602 44.5568 84.8105 44.6101C85.6395 43.8101 85.7714 43.0285 85.2064 42.2651Z" fill="#FE3D3D"/>
<path d="M67.849 45.54C72.1376 44.88 72.5943 48.93 68.6002 50.09C62.7332 51.535 62.2765 46.05 67.849 45.54Z" fill="white"/>
<path d="M46.3307 54.687C48.4194 54.2609 49.8993 52.9005 49.6362 51.6485C49.373 50.3965 47.4664 49.7271 45.3777 50.1532C43.2889 50.5793 41.809 51.9397 42.0722 53.1917C42.3354 54.4437 44.242 55.1131 46.3307 54.687Z" fill="white"/>
<path d="M117.03 44.5V42.8C117.03 42.0267 117.05 41.38 117.09 40.86C117.143 40.3267 117.243 39.88 117.39 39.52C117.537 39.16 117.77 38.8533 118.09 38.6C118.41 38.3467 118.85 38.1067 119.41 37.88L122.77 36.48C123.237 36.2933 123.583 36.12 123.81 35.96C124.037 35.7867 124.19 35.58 124.27 35.34C124.35 35.1 124.39 34.7867 124.39 34.4C124.39 33.8267 124.297 33.4067 124.11 33.14C123.937 32.8733 123.617 32.7 123.15 32.62C122.697 32.54 122.057 32.5 121.23 32.5C120.923 32.5 120.543 32.5133 120.09 32.54C119.65 32.5667 119.183 32.6 118.69 32.64C118.21 32.68 117.75 32.72 117.31 32.76V30.98C117.71 30.9 118.177 30.8333 118.71 30.78C119.243 30.7267 119.79 30.68 120.35 30.64C120.923 30.6 121.457 30.58 121.95 30.58C122.603 30.58 123.21 30.62 123.77 30.7C124.33 30.7667 124.823 30.92 125.25 31.16C125.69 31.4 126.03 31.7667 126.27 32.26C126.523 32.74 126.65 33.3933 126.65 34.22C126.65 35.0333 126.557 35.6867 126.37 36.18C126.197 36.66 125.93 37.0533 125.57 37.36C125.21 37.6533 124.743 37.9133 124.17 38.14L120.33 39.72C119.997 39.8533 119.75 40 119.59 40.16C119.43 40.32 119.33 40.5333 119.29 40.8C119.25 41.0667 119.23 41.4133 119.23 41.84V42.56H126.65V44.5H117.03ZM129.817 44.5V30.74H136.357C137.263 30.74 137.99 30.88 138.537 31.16C139.083 31.4267 139.483 31.82 139.737 32.34C139.99 32.8467 140.117 33.4667 140.117 34.2C140.117 34.8133 140.03 35.34 139.857 35.78C139.697 36.22 139.443 36.58 139.097 36.86C138.75 37.1267 138.303 37.32 137.757 37.44V37.52C138.397 37.64 138.897 37.8467 139.257 38.14C139.63 38.4333 139.89 38.8067 140.037 39.26C140.183 39.7133 140.257 40.2467 140.257 40.86C140.257 41.38 140.197 41.8667 140.077 42.32C139.957 42.76 139.75 43.14 139.457 43.46C139.177 43.78 138.783 44.0333 138.277 44.22C137.77 44.4067 137.123 44.5 136.337 44.5H129.817ZM132.077 42.6H135.657C136.27 42.6 136.743 42.54 137.077 42.42C137.41 42.2867 137.643 42.0733 137.777 41.78C137.923 41.4733 137.997 41.0667 137.997 40.56C137.997 40.04 137.923 39.6333 137.777 39.34C137.63 39.0333 137.383 38.82 137.037 38.7C136.703 38.5667 136.243 38.5 135.657 38.5H132.077V42.6ZM132.077 36.58H135.577C136.123 36.58 136.557 36.5133 136.877 36.38C137.21 36.2467 137.457 36.04 137.617 35.76C137.777 35.4667 137.857 35.0933 137.857 34.64C137.857 34.1333 137.79 33.74 137.657 33.46C137.523 33.1667 137.297 32.96 136.977 32.84C136.657 32.72 136.19 32.66 135.577 32.66H132.077V36.58ZM146.551 44.5V39.44L141.691 30.74H144.091L147.671 37.2H147.811L151.351 30.74H153.691L148.811 39.44V44.5H146.551ZM155.135 44.5V42.8C155.135 42.0267 155.155 41.38 155.195 40.86C155.249 40.3267 155.349 39.88 155.495 39.52C155.642 39.16 155.875 38.8533 156.195 38.6C156.515 38.3467 156.955 38.1067 157.515 37.88L160.875 36.48C161.342 36.2933 161.689 36.12 161.915 35.96C162.142 35.7867 162.295 35.58 162.375 35.34C162.455 35.1 162.495 34.7867 162.495 34.4C162.495 33.8267 162.402 33.4067 162.215 33.14C162.042 32.8733 161.722 32.7 161.255 32.62C160.802 32.54 160.162 32.5 159.335 32.5C159.029 32.5 158.649 32.5133 158.195 32.54C157.755 32.5667 157.289 32.6 156.795 32.64C156.315 32.68 155.855 32.72 155.415 32.76V30.98C155.815 30.9 156.282 30.8333 156.815 30.78C157.349 30.7267 157.895 30.68 158.455 30.64C159.029 30.6 159.562 30.58 160.055 30.58C160.709 30.58 161.315 30.62 161.875 30.7C162.435 30.7667 162.929 30.92 163.355 31.16C163.795 31.4 164.135 31.7667 164.375 32.26C164.629 32.74 164.755 33.3933 164.755 34.22C164.755 35.0333 164.662 35.6867 164.475 36.18C164.302 36.66 164.035 37.0533 163.675 37.36C163.315 37.6533 162.849 37.9133 162.275 38.14L158.435 39.72C158.102 39.8533 157.855 40 157.695 40.16C157.535 40.32 157.435 40.5333 157.395 40.8C157.355 41.0667 157.335 41.4133 157.335 41.84V42.56H164.755V44.5H155.135Z" fill="#3A3A3A"/>
</svg>
