<svg width="188" height="76" viewBox="0 0 188 76" fill="none" xmlns="http://www.w3.org/2000/svg">
<path fill-rule="evenodd" clip-rule="evenodd" d="M42.4616 24.1822C42.4616 23.0751 43.4125 22.1776 44.5855 22.1776H64.9746C66.1476 22.1776 67.0985 23.0751 67.0985 24.1822V52.2455C67.0985 53.3525 66.1476 54.25 64.9746 54.25H44.5855C43.4125 54.25 42.4616 53.3525 42.4616 52.2455V24.1822ZM46.7518 36.6102C46.5394 35.5411 47.1054 33.3438 48.8757 32.6012C50.7871 31.7993 52.0614 31.7993 53.3358 31.7993C54.1145 30.8639 56.1818 29.1133 57.3711 28.7926C58.0083 28.5921 58.6454 28.7926 58.6454 29.3939C58.6454 29.875 56.734 31.1312 55.672 31.7993C57.3711 31.7325 60.8543 32.1602 62.0436 33.6034C62.7233 34.4052 62.61 35.942 62.4684 36.6102C60.0217 35.4245 53.6688 33.2617 46.7518 36.6102ZM54.6101 35.207C51.2119 35.207 48.3801 36.1425 47.3889 36.6102C47.1765 41.822 47.8965 43.1435 49.9376 44.4278C51.849 45.6306 53.6897 47.1005 54.6101 48.036C55.0348 47.5014 56.564 46.0315 59.2826 44.4278C62.0011 42.8242 62.1144 38.5479 61.8312 36.6102C60.8401 36.1425 58.0083 35.207 54.6101 35.207ZM60.1321 38.4143C59.9905 39.4165 59.0277 41.9422 56.3091 44.0269C58.2206 43.2251 60.3445 42.0224 60.1321 38.4143Z" fill="url(#paint0_linear_552_1772)"/>
<path fill-rule="evenodd" clip-rule="evenodd" d="M20.4321 21.9519H17.7109C16.5589 21.9519 15.625 22.8556 15.625 23.9705V52.2314C15.625 53.3462 16.5589 54.25 17.7109 54.25H20.4321C20.4234 53.6494 20.4346 52.9802 20.4643 52.2314C21.4378 51.7604 24.219 50.8183 27.5565 50.8183C30.894 50.8183 33.6753 51.7604 34.6487 52.2314C34.7246 52.7633 34.7714 53.4703 34.7454 54.25H37.736C38.888 54.25 39.8219 53.3462 39.8219 52.2314V23.9705C39.8219 22.8556 38.888 21.9519 37.736 21.9519H34.7454C34.6761 24.0325 34.0878 26.6312 32.1456 27.8059C29.4756 29.4208 27.9737 30.9011 27.5565 31.4394C26.6526 30.4974 24.8448 29.0171 22.9675 27.8059C21.2488 26.6971 20.4839 25.5607 20.4321 21.9519ZM32.9452 21.9519C32.7188 23.0686 31.732 25.4311 29.2253 27.4022C31.0674 26.6099 33.1104 25.4288 32.9893 21.9519H32.9452ZM21.9245 48.1941C20.1859 48.9419 19.63 51.1548 19.8386 52.2314C26.5972 48.9704 32.8474 51.1146 35.2745 52.2314C35.4136 51.5585 35.5249 50.0109 34.8574 49.2034C33.6892 47.75 30.2683 47.3194 28.5995 47.3866C29.6425 46.7138 31.5199 45.4488 31.5199 44.9643C31.5199 44.3587 30.8941 44.1568 30.2683 44.3587C29.1002 44.6817 27.0698 46.4446 26.305 47.3866C25.0534 47.3866 23.8018 47.3866 21.9245 48.1941Z" fill="url(#paint1_linear_552_1772)"/>
<path d="M32.9452 21.9519C32.7188 23.0686 31.732 25.4311 29.2253 27.4022C31.0674 26.6099 33.1104 25.4288 32.9893 21.9519H32.9452Z" fill="url(#paint2_linear_552_1772)"/>
<path d="M32.9452 21.9519C32.7188 23.0686 31.732 25.4311 29.2253 27.4022C31.0674 26.6099 33.1104 25.4288 32.9893 21.9519H32.9452Z" fill="url(#paint3_linear_552_1772)"/>
<path d="M32.9452 21.9519C32.7188 23.0686 31.732 25.4311 29.2253 27.4022C31.0674 26.6099 33.1104 25.4288 32.9893 21.9519H32.9452Z" fill="url(#paint4_linear_552_1772)"/>
<path d="M32.9452 21.9519C32.7188 23.0686 31.732 25.4311 29.2253 27.4022C31.0674 26.6099 33.1104 25.4288 32.9893 21.9519H32.9452Z" fill="url(#paint5_linear_552_1772)"/>
<path fill-rule="evenodd" clip-rule="evenodd" d="M72.264 22.1776H82.0544C81.5597 22.6143 81.1293 23.0486 80.8581 23.3803C79.6065 23.3803 78.3549 23.3803 76.4776 24.1822C74.7389 24.9248 74.183 27.1221 74.3916 28.1912C81.1436 24.8688 87.3901 27.0233 89.8276 28.1912C89.9667 27.523 90.0779 25.9862 89.4104 25.1844C88.2423 23.7412 84.8214 23.3135 83.1526 23.3803C83.6475 23.0633 84.3303 22.6138 84.9112 22.1776H92.2891C93.4411 22.1776 94.375 23.0751 94.375 24.1822V52.2455C94.375 53.3525 93.4411 54.25 92.2891 54.25H72.264C71.112 54.25 70.1781 53.3525 70.1781 52.2455V24.1822C70.1781 23.0751 71.112 22.1776 72.264 22.1776ZM82.1096 26.788C78.7721 26.788 75.9908 27.7235 75.0174 28.1912C74.8088 33.403 75.5159 34.7245 77.5205 36.0088C79.3978 37.2116 81.2057 38.6815 82.1096 39.617C82.5268 39.0824 84.0287 37.6125 86.6987 36.0088C89.3687 34.4052 89.4799 30.1289 89.2018 28.1912C88.2284 27.7235 85.4471 26.788 82.1096 26.788ZM87.533 29.9953C87.394 30.9975 86.4483 33.5232 83.7783 35.6079C85.6557 34.8061 87.7416 33.6034 87.533 29.9953Z" fill="url(#paint6_linear_552_1772)"/>
<path d="M116.715 44.66C116.275 44.66 115.795 44.64 115.275 44.6C114.768 44.5733 114.268 44.5333 113.775 44.48C113.295 44.4133 112.875 44.3467 112.515 44.28V42.5C112.968 42.54 113.442 42.58 113.935 42.62C114.442 42.66 114.915 42.6933 115.355 42.72C115.808 42.7333 116.195 42.74 116.515 42.74C117.262 42.74 117.875 42.7 118.355 42.62C118.835 42.54 119.195 42.3533 119.435 42.06C119.675 41.7667 119.795 41.3 119.795 40.66C119.795 40.1 119.715 39.6667 119.555 39.36C119.408 39.04 119.155 38.82 118.795 38.7C118.448 38.5667 117.975 38.5 117.375 38.5H114.895V36.58H117.375C117.828 36.58 118.222 36.5267 118.555 36.42C118.902 36.3133 119.168 36.12 119.355 35.84C119.542 35.5467 119.635 35.12 119.635 34.56C119.635 33.92 119.528 33.46 119.315 33.18C119.115 32.8867 118.775 32.7 118.295 32.62C117.815 32.54 117.155 32.5 116.315 32.5C115.942 32.5 115.528 32.5133 115.075 32.54C114.635 32.5667 114.195 32.6 113.755 32.64C113.315 32.6667 112.928 32.7067 112.595 32.76V30.96C112.955 30.88 113.375 30.8133 113.855 30.76C114.335 30.7067 114.828 30.6667 115.335 30.64C115.842 30.6 116.308 30.58 116.735 30.58C117.735 30.58 118.568 30.66 119.235 30.82C119.902 30.9667 120.428 31.1933 120.815 31.5C121.215 31.8067 121.502 32.1867 121.675 32.64C121.848 33.08 121.935 33.6 121.935 34.2C121.935 35.2 121.735 35.9467 121.335 36.44C120.935 36.9333 120.348 37.2667 119.575 37.44V37.52C120.095 37.6267 120.542 37.7933 120.915 38.02C121.288 38.2467 121.575 38.5867 121.775 39.04C121.975 39.48 122.075 40.0733 122.075 40.82C122.075 41.3933 122.002 41.9133 121.855 42.38C121.722 42.8467 121.462 43.2533 121.075 43.6C120.702 43.9333 120.162 44.1933 119.455 44.38C118.748 44.5667 117.835 44.66 116.715 44.66ZM130.545 44.66C129.452 44.66 128.552 44.6 127.845 44.48C127.139 44.3467 126.579 44.1267 126.165 43.82C125.752 43.5133 125.452 43.0933 125.265 42.56C125.079 42.0267 124.959 41.36 124.905 40.56C124.852 39.7467 124.825 38.7667 124.825 37.62C124.825 36.4733 124.852 35.5 124.905 34.7C124.959 33.8867 125.079 33.2133 125.265 32.68C125.452 32.1467 125.752 31.7267 126.165 31.42C126.579 31.1133 127.139 30.9 127.845 30.78C128.552 30.6467 129.452 30.58 130.545 30.58C131.639 30.58 132.539 30.6467 133.245 30.78C133.965 30.9 134.532 31.1133 134.945 31.42C135.359 31.7267 135.659 32.1467 135.845 32.68C136.045 33.2133 136.172 33.8867 136.225 34.7C136.279 35.5 136.305 36.4733 136.305 37.62C136.305 38.7667 136.279 39.7467 136.225 40.56C136.172 41.36 136.045 42.0267 135.845 42.56C135.659 43.0933 135.359 43.5133 134.945 43.82C134.532 44.1267 133.965 44.3467 133.245 44.48C132.539 44.6 131.639 44.66 130.545 44.66ZM130.545 42.74C131.212 42.74 131.759 42.72 132.185 42.68C132.625 42.64 132.965 42.54 133.205 42.38C133.459 42.22 133.645 41.96 133.765 41.6C133.885 41.2267 133.959 40.7267 133.985 40.1C134.025 39.46 134.045 38.6333 134.045 37.62C134.045 36.6067 134.025 35.7867 133.985 35.16C133.959 34.52 133.885 34.02 133.765 33.66C133.645 33.2867 133.459 33.02 133.205 32.86C132.965 32.7 132.625 32.6 132.185 32.56C131.759 32.52 131.212 32.5 130.545 32.5C129.892 32.5 129.352 32.52 128.925 32.56C128.499 32.6 128.159 32.7 127.905 32.86C127.652 33.02 127.465 33.2867 127.345 33.66C127.239 34.02 127.165 34.52 127.125 35.16C127.099 35.7867 127.085 36.6067 127.085 37.62C127.085 38.6333 127.099 39.46 127.125 40.1C127.165 40.7267 127.239 41.2267 127.345 41.6C127.465 41.96 127.652 42.22 127.905 42.38C128.159 42.54 128.499 42.64 128.925 42.68C129.352 42.72 129.892 42.74 130.545 42.74ZM138.124 44.5L143.044 30.74H146.004L150.924 44.5H148.584L147.384 41.1H141.584L140.404 44.5H138.124ZM142.224 39.18H146.724L144.524 32.92H144.424L142.224 39.18ZM153.195 44.5V30.74H155.455V36.54H157.375L161.875 30.74H164.355L159.215 37.36L164.415 44.5H161.795L157.375 38.46H155.455V44.5H153.195ZM171.333 44.66C170.839 44.66 170.293 44.6467 169.693 44.62C169.106 44.5933 168.526 44.5533 167.953 44.5C167.393 44.46 166.879 44.4133 166.413 44.36V42.5C166.893 42.54 167.393 42.58 167.913 42.62C168.446 42.66 168.953 42.6933 169.433 42.72C169.913 42.7333 170.326 42.74 170.673 42.74C171.379 42.74 171.933 42.7067 172.333 42.64C172.733 42.5733 173.053 42.4667 173.293 42.32C173.453 42.2133 173.566 42.08 173.633 41.92C173.713 41.76 173.759 41.5733 173.773 41.36C173.799 41.1333 173.813 40.8867 173.813 40.62C173.813 40.26 173.799 39.96 173.773 39.72C173.746 39.48 173.686 39.2933 173.593 39.16C173.499 39.0267 173.353 38.9333 173.153 38.88C172.953 38.8133 172.693 38.76 172.373 38.72L169.093 38.34C168.453 38.26 167.926 38.1267 167.513 37.94C167.113 37.74 166.799 37.48 166.573 37.16C166.359 36.84 166.213 36.46 166.132 36.02C166.053 35.58 166.013 35.0933 166.013 34.56C166.013 33.6667 166.133 32.96 166.373 32.44C166.613 31.92 166.953 31.5267 167.393 31.26C167.846 30.98 168.379 30.8 168.993 30.72C169.606 30.6267 170.286 30.58 171.033 30.58C171.553 30.58 172.086 30.6 172.633 30.64C173.179 30.6667 173.693 30.7067 174.173 30.76C174.666 30.8 175.073 30.86 175.393 30.94V32.76C175.059 32.7067 174.666 32.66 174.213 32.62C173.773 32.58 173.313 32.5533 172.833 32.54C172.353 32.5133 171.906 32.5 171.493 32.5C170.799 32.5 170.239 32.5333 169.812 32.6C169.399 32.6533 169.079 32.7467 168.853 32.88C168.586 33.0267 168.426 33.2333 168.373 33.5C168.319 33.7533 168.293 34.0733 168.293 34.46C168.293 34.9133 168.319 35.2667 168.373 35.52C168.439 35.76 168.579 35.9267 168.793 36.02C169.019 36.1133 169.359 36.1867 169.812 36.24L173.093 36.62C173.506 36.66 173.879 36.7267 174.213 36.82C174.546 36.9 174.839 37.04 175.092 37.24C175.359 37.44 175.566 37.7267 175.713 38.1C175.806 38.2867 175.873 38.5 175.913 38.74C175.966 38.98 176.006 39.2467 176.033 39.54C176.073 39.82 176.093 40.14 176.093 40.5C176.093 41.26 176.013 41.8933 175.853 42.4C175.706 42.9067 175.493 43.3133 175.213 43.62C174.946 43.9133 174.613 44.14 174.213 44.3C173.813 44.4467 173.373 44.54 172.893 44.58C172.413 44.6333 171.893 44.66 171.333 44.66Z" fill="#3A3A3A"/>
<defs>
<linearGradient id="paint0_linear_552_1772" x1="82.2765" y1="22.1776" x2="82.2765" y2="54.25" gradientUnits="userSpaceOnUse">
<stop stop-color="#F8B900"/>
<stop offset="1" stop-color="#E77908"/>
</linearGradient>
<linearGradient id="paint1_linear_552_1772" x1="82.2765" y1="22.1776" x2="82.2765" y2="54.25" gradientUnits="userSpaceOnUse">
<stop stop-color="#F8B900"/>
<stop offset="1" stop-color="#E77908"/>
</linearGradient>
<linearGradient id="paint2_linear_552_1772" x1="82.2765" y1="22.1776" x2="82.2765" y2="54.25" gradientUnits="userSpaceOnUse">
<stop stop-color="#F8B900"/>
<stop offset="1" stop-color="#E77908"/>
</linearGradient>
<linearGradient id="paint3_linear_552_1772" x1="82.2765" y1="22.1776" x2="82.2765" y2="54.25" gradientUnits="userSpaceOnUse">
<stop stop-color="#F8B900"/>
<stop offset="1" stop-color="#E77908"/>
</linearGradient>
<linearGradient id="paint4_linear_552_1772" x1="82.2765" y1="22.1776" x2="82.2765" y2="54.25" gradientUnits="userSpaceOnUse">
<stop stop-color="#F8B900"/>
<stop offset="1" stop-color="#E77908"/>
</linearGradient>
<linearGradient id="paint5_linear_552_1772" x1="82.2765" y1="22.1776" x2="82.2765" y2="54.25" gradientUnits="userSpaceOnUse">
<stop stop-color="#F8B900"/>
<stop offset="1" stop-color="#E77908"/>
</linearGradient>
<linearGradient id="paint6_linear_552_1772" x1="82.2765" y1="22.1776" x2="82.2765" y2="54.25" gradientUnits="userSpaceOnUse">
<stop stop-color="#F8B900"/>
<stop offset="1" stop-color="#E77908"/>
</linearGradient>
</defs>
</svg>
