<svg width="188" height="76" viewBox="0 0 188 76" fill="none" xmlns="http://www.w3.org/2000/svg">
<path fill-rule="evenodd" clip-rule="evenodd" d="M29.5 11.75C29.5 9.67893 31.2754 8 33.4655 8H71.5345C73.7246 8 75.5 9.67893 75.5 11.75V64.25C75.5 66.3211 73.7246 68 71.5345 68H33.4655C31.2754 68 29.5 66.3211 29.5 64.25V11.75ZM37.5103 35C37.1137 33 38.1705 28.8892 41.4758 27.5C45.0447 26 47.424 26 49.8034 26C51.2574 24.25 55.1172 20.975 57.3379 20.375C58.5275 20 59.7172 20.375 59.7172 21.5C59.7172 22.4 56.1482 24.75 54.1655 26C57.3379 25.875 63.8413 26.675 66.062 29.375C67.331 30.875 67.1195 33.75 66.8551 35C62.2867 32.7818 50.4251 28.7357 37.5103 35ZM52.1827 32.375C45.8378 32.375 40.5505 34.125 38.6999 35C38.3033 44.75 39.6475 47.2224 43.4585 49.625C47.0274 51.875 50.4643 54.625 52.1827 56.375C52.9758 55.375 55.8309 52.625 60.9068 49.625C65.9827 46.625 66.1941 38.625 65.6654 35C63.8148 34.125 58.5275 32.375 52.1827 32.375ZM62.493 38.375C62.2286 40.25 60.4309 44.975 55.355 48.875C58.924 47.375 62.8895 45.125 62.493 38.375Z" fill="url(#paint0_linear_729_10366)"/>
<path d="M99.84 44.66C99.4 44.66 98.92 44.64 98.4 44.6C97.8933 44.5733 97.3933 44.5333 96.9 44.48C96.42 44.4133 96 44.3467 95.64 44.28V42.5C96.0933 42.54 96.5667 42.58 97.06 42.62C97.5667 42.66 98.04 42.6933 98.48 42.72C98.9333 42.7333 99.32 42.74 99.64 42.74C100.387 42.74 101 42.7 101.48 42.62C101.96 42.54 102.32 42.3533 102.56 42.06C102.8 41.7667 102.92 41.3 102.92 40.66C102.92 40.1 102.84 39.6667 102.68 39.36C102.533 39.04 102.28 38.82 101.92 38.7C101.573 38.5667 101.1 38.5 100.5 38.5H98.02V36.58H100.5C100.953 36.58 101.347 36.5267 101.68 36.42C102.027 36.3133 102.293 36.12 102.48 35.84C102.667 35.5467 102.76 35.12 102.76 34.56C102.76 33.92 102.653 33.46 102.44 33.18C102.24 32.8867 101.9 32.7 101.42 32.62C100.94 32.54 100.28 32.5 99.44 32.5C99.0667 32.5 98.6533 32.5133 98.2 32.54C97.76 32.5667 97.32 32.6 96.88 32.64C96.44 32.6667 96.0533 32.7067 95.72 32.76V30.96C96.08 30.88 96.5 30.8133 96.98 30.76C97.46 30.7067 97.9533 30.6667 98.46 30.64C98.9667 30.6 99.4333 30.58 99.86 30.58C100.86 30.58 101.693 30.66 102.36 30.82C103.027 30.9667 103.553 31.1933 103.94 31.5C104.34 31.8067 104.627 32.1867 104.8 32.64C104.973 33.08 105.06 33.6 105.06 34.2C105.06 35.2 104.86 35.9467 104.46 36.44C104.06 36.9333 103.473 37.2667 102.7 37.44V37.52C103.22 37.6267 103.667 37.7933 104.04 38.02C104.413 38.2467 104.7 38.5867 104.9 39.04C105.1 39.48 105.2 40.0733 105.2 40.82C105.2 41.3933 105.127 41.9133 104.98 42.38C104.847 42.8467 104.587 43.2533 104.2 43.6C103.827 43.9333 103.287 44.1933 102.58 44.38C101.873 44.5667 100.96 44.66 99.84 44.66ZM118.495 44.66C117.401 44.66 116.501 44.6 115.795 44.48C115.088 44.3467 114.528 44.1267 114.115 43.82C113.701 43.5133 113.401 43.0933 113.215 42.56C113.028 42.0267 112.908 41.36 112.855 40.56C112.801 39.7467 112.775 38.7667 112.775 37.62C112.775 36.4733 112.801 35.5 112.855 34.7C112.908 33.8867 113.028 33.2133 113.215 32.68C113.401 32.1467 113.701 31.7267 114.115 31.42C114.528 31.1133 115.088 30.9 115.795 30.78C116.501 30.6467 117.401 30.58 118.495 30.58C119.588 30.58 120.488 30.6467 121.195 30.78C121.915 30.9 122.481 31.1133 122.895 31.42C123.308 31.7267 123.608 32.1467 123.795 32.68C123.995 33.2133 124.121 33.8867 124.175 34.7C124.228 35.5 124.255 36.4733 124.255 37.62C124.255 38.7667 124.228 39.7467 124.175 40.56C124.121 41.36 123.995 42.0267 123.795 42.56C123.608 43.0933 123.308 43.5133 122.895 43.82C122.481 44.1267 121.915 44.3467 121.195 44.48C120.488 44.6 119.588 44.66 118.495 44.66ZM118.495 42.74C119.161 42.74 119.708 42.72 120.135 42.68C120.575 42.64 120.915 42.54 121.155 42.38C121.408 42.22 121.595 41.96 121.715 41.6C121.835 41.2267 121.908 40.7267 121.935 40.1C121.975 39.46 121.995 38.6333 121.995 37.62C121.995 36.6067 121.975 35.7867 121.935 35.16C121.908 34.52 121.835 34.02 121.715 33.66C121.595 33.2867 121.408 33.02 121.155 32.86C120.915 32.7 120.575 32.6 120.135 32.56C119.708 32.52 119.161 32.5 118.495 32.5C117.841 32.5 117.301 32.52 116.875 32.56C116.448 32.6 116.108 32.7 115.855 32.86C115.601 33.02 115.415 33.2867 115.295 33.66C115.188 34.02 115.115 34.52 115.075 35.16C115.048 35.7867 115.035 36.6067 115.035 37.62C115.035 38.6333 115.048 39.46 115.075 40.1C115.115 40.7267 115.188 41.2267 115.295 41.6C115.415 41.96 115.601 42.22 115.855 42.38C116.108 42.54 116.448 42.64 116.875 42.68C117.301 42.72 117.841 42.74 118.495 42.74ZM126.073 44.5L130.993 30.74H133.953L138.873 44.5H136.533L135.333 41.1H129.533L128.353 44.5H126.073ZM130.173 39.18H134.673L132.473 32.92H132.373L130.173 39.18ZM141.145 44.5V30.74H143.405V36.54H145.325L149.825 30.74H152.305L147.165 37.36L152.365 44.5H149.745L145.325 38.46H143.405V44.5H141.145ZM159.282 44.66C158.788 44.66 158.242 44.6467 157.642 44.62C157.055 44.5933 156.475 44.5533 155.902 44.5C155.342 44.46 154.828 44.4133 154.362 44.36V42.5C154.842 42.54 155.342 42.58 155.862 42.62C156.395 42.66 156.902 42.6933 157.382 42.72C157.862 42.7333 158.275 42.74 158.622 42.74C159.328 42.74 159.882 42.7067 160.282 42.64C160.682 42.5733 161.002 42.4667 161.242 42.32C161.402 42.2133 161.515 42.08 161.582 41.92C161.662 41.76 161.708 41.5733 161.722 41.36C161.748 41.1333 161.762 40.8867 161.762 40.62C161.762 40.26 161.748 39.96 161.722 39.72C161.695 39.48 161.635 39.2933 161.542 39.16C161.448 39.0267 161.302 38.9333 161.102 38.88C160.902 38.8133 160.642 38.76 160.322 38.72L157.042 38.34C156.402 38.26 155.875 38.1267 155.462 37.94C155.062 37.74 154.748 37.48 154.522 37.16C154.308 36.84 154.162 36.46 154.082 36.02C154.002 35.58 153.962 35.0933 153.962 34.56C153.962 33.6667 154.082 32.96 154.322 32.44C154.562 31.92 154.902 31.5267 155.342 31.26C155.795 30.98 156.328 30.8 156.942 30.72C157.555 30.6267 158.235 30.58 158.982 30.58C159.502 30.58 160.035 30.6 160.582 30.64C161.128 30.6667 161.642 30.7067 162.122 30.76C162.615 30.8 163.022 30.86 163.342 30.94V32.76C163.008 32.7067 162.615 32.66 162.162 32.62C161.722 32.58 161.262 32.5533 160.782 32.54C160.302 32.5133 159.855 32.5 159.442 32.5C158.748 32.5 158.188 32.5333 157.762 32.6C157.348 32.6533 157.028 32.7467 156.802 32.88C156.535 33.0267 156.375 33.2333 156.322 33.5C156.268 33.7533 156.242 34.0733 156.242 34.46C156.242 34.9133 156.268 35.2667 156.322 35.52C156.388 35.76 156.528 35.9267 156.742 36.02C156.968 36.1133 157.308 36.1867 157.762 36.24L161.042 36.62C161.455 36.66 161.828 36.7267 162.162 36.82C162.495 36.9 162.788 37.04 163.042 37.24C163.308 37.44 163.515 37.7267 163.662 38.1C163.755 38.2867 163.822 38.5 163.862 38.74C163.915 38.98 163.955 39.2467 163.982 39.54C164.022 39.82 164.042 40.14 164.042 40.5C164.042 41.26 163.962 41.8933 163.802 42.4C163.655 42.9067 163.442 43.3133 163.162 43.62C162.895 43.9133 162.562 44.14 162.162 44.3C161.762 44.4467 161.322 44.54 160.842 44.58C160.362 44.6333 159.842 44.66 159.282 44.66Z" fill="#3A3A3A"/>
<defs>
<linearGradient id="paint0_linear_729_10366" x1="103.84" y1="7.99981" x2="103.84" y2="67.9998" gradientUnits="userSpaceOnUse">
<stop stop-color="#F8B900"/>
<stop offset="1" stop-color="#E77908"/>
</linearGradient>
</defs>
</svg>
