<svg width="188" height="76" viewBox="0 0 188 76" fill="none" xmlns="http://www.w3.org/2000/svg">
<path d="M76.0703 48.3769C75.8008 47.5685 75.3966 47.1642 75.3966 46.8948C75.5313 45.1431 75.3966 43.3915 75.3966 41.7746C75.3966 40.8314 74.3187 40.0229 73.6449 39.7535C74.0492 39.0798 74.1839 39.0798 74.7229 37.5976C76.3398 33.2859 74.3186 27.6267 70.0069 25.8751C69.7374 25.7404 69.6027 25.7404 69.3332 25.6056C68.2553 25.2014 67.1773 24.9319 66.0994 24.9319C64.6173 24.9319 64.3478 24.9319 62.8656 25.3361C62.1919 25.4709 61.6529 25.7404 61.3835 26.0098C61.2487 25.7404 60.8445 25.4709 60.575 25.3361C60.3055 25.2014 60.1708 25.0666 59.9013 25.0666C59.7666 24.9319 59.4971 24.9319 59.3623 24.9319H55.7243C55.9938 24.1235 57.3412 20.3507 57.476 19.8117C57.7455 18.8685 58.1497 18.0601 57.7455 16.9822C57.476 16.3084 56.398 15.5 55.7243 15.5H24.4643C22.7127 15.5 21.5 16.5779 21.5 18.1948V29.5131C21.5 30.591 22.1737 31.2648 22.8474 31.8037C23.9253 32.4774 24.5991 32.3427 25.9465 32.3427H33.0878C31.0666 38.1366 28.9108 44.0652 26.8897 49.8591C26.4854 50.937 24.1948 57.1351 24.1948 58.0783C24.1948 59.6952 26.216 60.6384 27.1591 60.6384H41.4417C42.6544 60.6384 43.7323 59.1562 43.7323 58.4825C45.3492 58.4825 45.7535 58.213 46.8314 57.6741C47.9093 57.1351 48.3136 56.5961 48.8525 56.1919C49.122 56.4614 49.3915 56.7309 49.9304 57.0004C50.4694 57.2699 50.8736 57.5393 51.4126 57.8088C52.4905 58.213 53.5685 58.4825 54.6464 58.4825H55.0506C56.6675 58.6173 58.2844 58.213 59.7666 57.4046C60.0361 57.2699 60.3055 57.0004 60.575 56.8656C60.8445 57.5393 61.7877 58.213 62.4614 58.213H70.8154C72.2975 58.213 73.7797 57.2699 74.7229 56.3267C76.6093 54.4403 76.8787 50.6675 76.0703 48.3769Z" fill="#3A3A3A"/>
<path d="M38.2084 56.0581V50.399C38.2084 49.7253 38.6126 49.1863 39.0168 48.7821C39.5558 48.2431 40.3643 48.1084 41.1727 48.1084V27.0887C41.1727 26.5497 41.7117 25.7413 41.8464 25.4718C42.2506 25.0676 42.7896 24.7981 43.4633 24.7981H48.9877C49.5267 24.7981 50.0656 25.2023 50.3351 25.6065L51.2783 26.8192C51.5478 26.8192 51.6825 26.5497 51.8173 26.2802C51.952 26.1455 52.2215 25.6065 52.491 25.337L55.1858 17.9263H24.0605V29.2446H36.861L27.0249 57.675H39.1516C38.6126 57.2708 38.2084 56.7318 38.2084 56.0581Z" fill="#E50A7E"/>
<path fill-rule="evenodd" clip-rule="evenodd" d="M57.3418 48.7817C57.3418 50.9376 54.5122 51.3418 53.7038 49.5902C53.0301 47.8385 54.647 46.4911 56.1291 47.0301C56.8028 47.2996 57.3418 47.9733 57.3418 48.7817ZM48.7184 48.108V42.1794H44.0024V48.9165C44.0024 51.2071 42.9245 50.8028 41.0381 50.8028V55.6535C43.3287 55.6535 44.0024 55.923 45.8888 54.9798C46.1583 54.8451 46.4277 54.5756 46.6972 54.4409L47.3709 53.7671C48.3141 52.824 48.7184 51.4765 48.7184 49.5902C48.7184 51.0723 49.5268 52.285 50.3352 53.3629C50.47 53.4977 50.6047 53.6324 50.7395 53.7671C53.9733 56.5967 58.5545 56.0578 60.8451 52.824C61.1146 52.4197 61.2493 52.285 61.5188 51.746C63.001 48.647 62.0578 45.6827 59.7672 43.5268C58.0155 41.9099 55.1859 41.5057 53.0301 42.4489C52.3564 42.7183 51.5479 43.2573 51.009 43.6615C50.47 44.2005 50.0658 44.7395 49.5268 45.4132C49.1226 46.0869 48.7184 47.1648 48.7184 48.108Z" fill="url(#paint0_linear_554_4164)"/>
<path fill-rule="evenodd" clip-rule="evenodd" d="M43.8682 41.1016H48.5841V34.3645L51.1442 37.5983C51.5484 38.1372 51.4137 38.1372 51.8179 37.5983L54.2433 34.4992V40.9668H58.9592V27.4927H54.378C54.378 27.6274 51.8179 31.1307 51.5484 31.2654C51.4137 31.1307 48.7189 27.7622 48.7189 27.4927H43.8682V41.1016Z" fill="url(#paint1_linear_554_4164)"/>
<path fill-rule="evenodd" clip-rule="evenodd" d="M67.851 34.2297C67.851 36.3855 65.0214 36.7897 64.213 35.0381C63.5393 33.2865 65.1562 31.9391 66.6383 32.478C67.312 32.7475 67.851 33.4212 67.851 34.2297ZM59.2275 33.9602C59.2275 36.7898 60.7097 39.0804 63.135 40.293C65.5604 41.5057 68.7942 40.9667 70.6806 39.0804C71.2195 38.5414 71.6238 38.0024 72.028 37.194C73.7796 33.6907 72.1627 29.379 68.6594 27.8968C66.9078 27.2231 64.8867 27.2231 63.2698 28.0316C60.9792 29.1095 59.2275 31.2654 59.2275 33.9602Z" fill="url(#paint2_linear_554_4164)"/>
<path fill-rule="evenodd" clip-rule="evenodd" d="M61.9229 45.5477C61.9229 46.7604 61.9229 47.7036 62.4618 48.7815C63.2703 50.8026 64.6177 50.6679 66.2346 50.6679C66.9083 50.6679 68.5252 50.3984 68.5252 51.2068C68.5252 51.6111 68.121 51.7458 67.7167 51.7458H62.866V55.6533H70.1421C73.5106 55.6533 74.0496 50.9373 72.8369 48.512C71.8937 46.7604 70.5463 46.8951 69.0642 46.8951C68.3904 46.8951 66.9083 47.1646 66.9083 46.3561C66.9083 45.9519 67.3125 45.8172 67.7167 45.8172H72.5674V41.9097H65.2914C63.405 42.0444 61.9229 43.796 61.9229 45.5477Z" fill="url(#paint3_linear_554_4164)"/>
<path d="M93.54 45L98.98 33.18H91.76V31.24H101.44V33L96.04 45H93.54ZM104.168 45V31.24H107.248L111.288 41.24H111.388L115.428 31.24H118.508V45H116.328V34.74H116.248L112.088 45H110.488L106.368 34.74H106.288V45H104.168ZM127.455 45.16C126.362 45.16 125.462 45.1 124.755 44.98C124.049 44.8467 123.489 44.6267 123.075 44.32C122.662 44.0133 122.362 43.5933 122.175 43.06C121.989 42.5267 121.869 41.86 121.815 41.06C121.762 40.2467 121.735 39.2667 121.735 38.12C121.735 36.9733 121.762 36 121.815 35.2C121.869 34.3867 121.989 33.7133 122.175 33.18C122.362 32.6467 122.662 32.2267 123.075 31.92C123.489 31.6133 124.049 31.4 124.755 31.28C125.462 31.1467 126.362 31.08 127.455 31.08C128.549 31.08 129.449 31.1467 130.155 31.28C130.875 31.4 131.442 31.6133 131.855 31.92C132.269 32.2267 132.569 32.6467 132.755 33.18C132.955 33.7133 133.082 34.3867 133.135 35.2C133.189 36 133.215 36.9733 133.215 38.12C133.215 39.2667 133.189 40.2467 133.135 41.06C133.082 41.86 132.955 42.5267 132.755 43.06C132.569 43.5933 132.269 44.0133 131.855 44.32C131.442 44.6267 130.875 44.8467 130.155 44.98C129.449 45.1 128.549 45.16 127.455 45.16ZM127.455 43.24C128.122 43.24 128.669 43.22 129.095 43.18C129.535 43.14 129.875 43.04 130.115 42.88C130.369 42.72 130.555 42.46 130.675 42.1C130.795 41.7267 130.869 41.2267 130.895 40.6C130.935 39.96 130.955 39.1333 130.955 38.12C130.955 37.1067 130.935 36.2867 130.895 35.66C130.869 35.02 130.795 34.52 130.675 34.16C130.555 33.7867 130.369 33.52 130.115 33.36C129.875 33.2 129.535 33.1 129.095 33.06C128.669 33.02 128.122 33 127.455 33C126.802 33 126.262 33.02 125.835 33.06C125.409 33.1 125.069 33.2 124.815 33.36C124.562 33.52 124.375 33.7867 124.255 34.16C124.149 34.52 124.075 35.02 124.035 35.66C124.009 36.2867 123.995 37.1067 123.995 38.12C123.995 39.1333 124.009 39.96 124.035 40.6C124.075 41.2267 124.149 41.7267 124.255 42.1C124.375 42.46 124.562 42.72 124.815 42.88C125.069 43.04 125.409 43.14 125.835 43.18C126.262 43.22 126.802 43.24 127.455 43.24ZM135.194 45V43.18C135.914 43.1667 136.467 43.1333 136.854 43.08C137.24 43.0133 137.52 42.88 137.694 42.68C137.867 42.4667 137.967 42.14 137.994 41.7C138.034 41.26 138.054 40.6533 138.054 39.88V31.24H140.314V39.22C140.314 40.3267 140.287 41.24 140.234 41.96C140.194 42.68 140.087 43.2467 139.914 43.66C139.754 44.0733 139.487 44.3733 139.114 44.56C138.754 44.7467 138.254 44.8667 137.614 44.92C136.987 44.9733 136.18 45 135.194 45ZM149.135 45.16C148.042 45.16 147.142 45.1 146.435 44.98C145.728 44.8467 145.168 44.6267 144.755 44.32C144.342 44.0133 144.042 43.5933 143.855 43.06C143.668 42.5267 143.548 41.86 143.495 41.06C143.442 40.2467 143.415 39.2667 143.415 38.12C143.415 36.9733 143.442 36 143.495 35.2C143.548 34.3867 143.668 33.7133 143.855 33.18C144.042 32.6467 144.342 32.2267 144.755 31.92C145.168 31.6133 145.728 31.4 146.435 31.28C147.142 31.1467 148.042 31.08 149.135 31.08C150.228 31.08 151.128 31.1467 151.835 31.28C152.555 31.4 153.122 31.6133 153.535 31.92C153.948 32.2267 154.248 32.6467 154.435 33.18C154.635 33.7133 154.762 34.3867 154.815 35.2C154.868 36 154.895 36.9733 154.895 38.12C154.895 39.2667 154.868 40.2467 154.815 41.06C154.762 41.86 154.635 42.5267 154.435 43.06C154.248 43.5933 153.948 44.0133 153.535 44.32C153.122 44.6267 152.555 44.8467 151.835 44.98C151.128 45.1 150.228 45.16 149.135 45.16ZM149.135 43.24C149.802 43.24 150.348 43.22 150.775 43.18C151.215 43.14 151.555 43.04 151.795 42.88C152.048 42.72 152.235 42.46 152.355 42.1C152.475 41.7267 152.548 41.2267 152.575 40.6C152.615 39.96 152.635 39.1333 152.635 38.12C152.635 37.1067 152.615 36.2867 152.575 35.66C152.548 35.02 152.475 34.52 152.355 34.16C152.235 33.7867 152.048 33.52 151.795 33.36C151.555 33.2 151.215 33.1 150.775 33.06C150.348 33.02 149.802 33 149.135 33C148.482 33 147.942 33.02 147.515 33.06C147.088 33.1 146.748 33.2 146.495 33.36C146.242 33.52 146.055 33.7867 145.935 34.16C145.828 34.52 145.755 35.02 145.715 35.66C145.688 36.2867 145.675 37.1067 145.675 38.12C145.675 39.1333 145.688 39.96 145.715 40.6C145.755 41.2267 145.828 41.7267 145.935 42.1C146.055 42.46 146.242 42.72 146.495 42.88C146.748 43.04 147.088 43.14 147.515 43.18C147.942 43.22 148.482 43.24 149.135 43.24ZM162.793 45.16C162.3 45.16 161.753 45.1467 161.153 45.12C160.567 45.0933 159.987 45.0533 159.413 45C158.853 44.96 158.34 44.9133 157.873 44.86V43C158.353 43.04 158.853 43.08 159.373 43.12C159.907 43.16 160.413 43.1933 160.893 43.22C161.373 43.2333 161.787 43.24 162.133 43.24C162.84 43.24 163.393 43.2067 163.793 43.14C164.193 43.0733 164.513 42.9667 164.753 42.82C164.913 42.7133 165.027 42.58 165.093 42.42C165.173 42.26 165.22 42.0733 165.233 41.86C165.26 41.6333 165.273 41.3867 165.273 41.12C165.273 40.76 165.26 40.46 165.233 40.22C165.207 39.98 165.147 39.7933 165.053 39.66C164.96 39.5267 164.813 39.4333 164.613 39.38C164.413 39.3133 164.153 39.26 163.833 39.22L160.553 38.84C159.913 38.76 159.387 38.6267 158.973 38.44C158.573 38.24 158.26 37.98 158.033 37.66C157.82 37.34 157.673 36.96 157.593 36.52C157.513 36.08 157.473 35.5933 157.473 35.06C157.473 34.1667 157.593 33.46 157.833 32.94C158.073 32.42 158.413 32.0267 158.853 31.76C159.307 31.48 159.84 31.3 160.453 31.22C161.067 31.1267 161.747 31.08 162.493 31.08C163.013 31.08 163.547 31.1 164.093 31.14C164.64 31.1667 165.153 31.2067 165.633 31.26C166.127 31.3 166.533 31.36 166.853 31.44V33.26C166.52 33.2067 166.127 33.16 165.673 33.12C165.233 33.08 164.773 33.0533 164.293 33.04C163.813 33.0133 163.367 33 162.953 33C162.26 33 161.7 33.0333 161.273 33.1C160.86 33.1533 160.54 33.2467 160.313 33.38C160.047 33.5267 159.887 33.7333 159.833 34C159.78 34.2533 159.753 34.5733 159.753 34.96C159.753 35.4133 159.78 35.7667 159.833 36.02C159.9 36.26 160.04 36.4267 160.253 36.52C160.48 36.6133 160.82 36.6867 161.273 36.74L164.553 37.12C164.967 37.16 165.34 37.2267 165.673 37.32C166.007 37.4 166.3 37.54 166.553 37.74C166.82 37.94 167.027 38.2267 167.173 38.6C167.267 38.7867 167.333 39 167.373 39.24C167.427 39.48 167.467 39.7467 167.493 40.04C167.533 40.32 167.553 40.64 167.553 41C167.553 41.76 167.473 42.3933 167.313 42.9C167.167 43.4067 166.953 43.8133 166.673 44.12C166.407 44.4133 166.073 44.64 165.673 44.8C165.273 44.9467 164.833 45.04 164.353 45.08C163.873 45.1333 163.353 45.16 162.793 45.16Z" fill="#3A3A3A"/>
<defs>
<linearGradient id="paint0_linear_554_4164" x1="41.0495" y1="48.8604" x2="62.2815" y2="48.8604" gradientUnits="userSpaceOnUse">
<stop stop-color="#FDE610"/>
<stop offset="1" stop-color="#E7432E"/>
</linearGradient>
<linearGradient id="paint1_linear_554_4164" x1="44.0344" y1="34.2626" x2="59.1899" y2="34.2626" gradientUnits="userSpaceOnUse">
<stop stop-color="#FDE610"/>
<stop offset="1" stop-color="#E7432E"/>
</linearGradient>
<linearGradient id="paint2_linear_554_4164" x1="59.3144" y1="34.2285" x2="72.7978" y2="34.2285" gradientUnits="userSpaceOnUse">
<stop stop-color="#FDE610"/>
<stop offset="1" stop-color="#E7432E"/>
</linearGradient>
<linearGradient id="paint3_linear_554_4164" x1="62.0475" y1="48.8576" x2="73.6418" y2="48.8576" gradientUnits="userSpaceOnUse">
<stop stop-color="#FDE610"/>
<stop offset="1" stop-color="#E7432E"/>
</linearGradient>
</defs>
</svg>
