<svg width="188" height="76" viewBox="0 0 188 76" fill="none" xmlns="http://www.w3.org/2000/svg">
<path d="M63.8668 37.6308C63.3796 37.9119 62.7046 38.0559 61.8417 38.0559C61.111 38.0559 60.5335 37.857 60.102 37.4525C59.6706 37.048 59.4548 36.3897 59.4548 35.4778C58.6824 36.3897 57.7847 37.048 56.7548 37.4525C55.7249 37.857 54.6184 38.0559 53.4215 38.0559C52.649 38.0559 51.9114 37.9667 51.2155 37.7953C50.5196 37.6239 49.9142 37.3496 49.4062 36.9794C48.8982 36.6091 48.4946 36.1223 48.1954 35.5258C47.8961 34.9293 47.75 34.2025 47.75 33.3523C47.75 32.3924 47.917 31.6107 48.2441 31.0005C48.5781 30.3903 49.0096 29.8966 49.5523 29.5126C50.0951 29.1287 50.7145 28.8407 51.4104 28.6487C52.1063 28.4499 52.8161 28.2922 53.5467 28.1619C54.3192 28.0111 55.0568 27.8945 55.7527 27.8191C56.4486 27.7437 57.061 27.634 57.5899 27.49C58.1187 27.346 58.5432 27.1403 58.8494 26.866C59.1556 26.5918 59.3157 26.1941 59.3157 25.673C59.3157 25.0628 59.1974 24.5759 58.9677 24.2057C58.7381 23.8354 58.4388 23.5543 58.07 23.3555C57.7082 23.1566 57.2976 23.0264 56.8453 22.9647C56.3929 22.8961 55.9476 22.8687 55.5022 22.8687C54.3122 22.8687 53.3171 23.0949 52.5168 23.5406C51.7235 23.9863 51.2921 24.8296 51.2225 26.0707H48.4041C48.4459 25.0285 48.6686 24.144 49.0652 23.4241C49.4619 22.7041 49.9908 22.1213 50.6588 21.6756C51.3199 21.23 52.0784 20.9077 52.9274 20.7157C53.7764 20.5169 54.688 20.4209 55.6622 20.4209C56.4347 20.4209 57.2002 20.4758 57.9656 20.5855C58.7311 20.6952 59.42 20.9146 60.0394 21.2574C60.6587 21.5934 61.1528 22.0665 61.5286 22.6767C61.9044 23.2869 62.0922 24.0823 62.0922 25.0628V33.75C62.0922 34.4013 62.134 34.8813 62.2105 35.1898C62.2871 35.4915 62.5446 35.6492 62.9899 35.6492C63.2335 35.6492 63.5188 35.5944 63.8528 35.4847V37.6308H63.8668ZM59.2948 28.9778C58.9399 29.2384 58.4806 29.4304 57.903 29.5469C57.3254 29.6635 56.727 29.7663 56.0937 29.8418C55.4604 29.9172 54.8272 30.0063 54.187 30.1023C53.5467 30.1983 52.9692 30.356 52.4612 30.5754C51.9532 30.7948 51.5356 31.1034 51.2155 31.5079C50.8954 31.9124 50.7354 32.4609 50.7354 33.1535C50.7354 33.6128 50.8328 33.9968 51.0137 34.3122C51.2016 34.6276 51.4452 34.8813 51.7444 35.0801C52.0436 35.279 52.3916 35.4161 52.7882 35.5052C53.1849 35.5944 53.6024 35.6355 54.0478 35.6355C54.9733 35.6355 55.7736 35.5121 56.4347 35.2584C57.0958 35.0047 57.6386 34.6893 58.0561 34.3122C58.4736 33.9282 58.7868 33.5168 58.9816 33.0712C59.1834 32.6255 59.2809 32.2072 59.2809 31.8164V28.9778H59.2948Z" fill="#FF0800"/>
<path d="M89.9552 48.7169V33.2761H87.3039V35.6896H87.2691C86.7611 34.7502 86.0513 34.0509 85.1466 33.5846C84.242 33.1184 83.2468 32.8853 82.1613 32.8853C80.679 32.8853 79.4334 33.1595 78.4174 33.7149C77.4014 34.2703 76.5802 34.9765 75.9679 35.8404C75.3485 36.6975 74.9101 37.6574 74.6457 38.7133C74.3812 39.7692 74.249 40.7977 74.249 41.7987C74.249 42.9506 74.4091 44.0477 74.7292 45.083C75.0493 46.1183 75.5295 47.0234 76.1697 47.7913C76.8099 48.5661 77.6032 49.1763 78.5566 49.6357C79.5099 50.0951 80.6234 50.3214 81.9038 50.3214C83.0102 50.3214 84.0541 50.0745 85.0353 49.5877C86.0165 49.1009 86.7541 48.333 87.2412 47.2839H87.3108V48.3947C87.3108 49.334 87.2204 50.1911 87.0325 50.9727C86.8446 51.7544 86.5384 52.4263 86.1209 52.9817C85.7033 53.5371 85.1675 53.969 84.5273 54.2844C83.8871 54.5998 83.1007 54.7575 82.1752 54.7575C81.7089 54.7575 81.2218 54.7095 80.7138 54.6136C80.2058 54.5176 79.7396 54.3599 79.3081 54.1405C78.8767 53.921 78.5148 53.6399 78.2156 53.2902C77.9164 52.9406 77.7563 52.5155 77.7354 52.0149H74.9101C74.9519 52.9268 75.1954 53.7016 75.6408 54.3324C76.0792 54.9632 76.6429 55.4775 77.3179 55.8683C77.9929 56.2591 78.7445 56.5402 79.5726 56.7185C80.4007 56.8899 81.2149 56.9791 82.0082 56.9791C84.75 56.9791 86.7611 56.2934 88.0415 54.9221C89.315 53.5508 89.9552 51.4801 89.9552 48.7169ZM82.0638 47.901C81.1383 47.901 80.3659 47.709 79.7465 47.3319C79.1272 46.948 78.6331 46.4474 78.2573 45.8304C77.8816 45.2133 77.6171 44.5208 77.464 43.7597C77.3109 42.9986 77.2344 42.2375 77.2344 41.4765C77.2344 40.6743 77.3248 39.8995 77.5127 39.159C77.7006 38.4185 77.9999 37.7671 78.4104 37.198C78.821 36.6289 79.3429 36.1832 79.9831 35.8404C80.6234 35.5044 81.3958 35.333 82.3004 35.333C83.1842 35.333 83.9358 35.5044 84.5551 35.8541C85.1745 36.2038 85.6755 36.6632 86.0652 37.2391C86.4549 37.8151 86.7332 38.4665 86.9072 39.1795C87.0812 39.8995 87.1717 40.6263 87.1717 41.3668C87.1717 42.1484 87.0742 42.9369 86.8933 43.7185C86.7054 44.5002 86.4131 45.2064 86.0165 45.8235C85.6198 46.4474 85.091 46.948 84.4438 47.3251C83.7827 47.709 82.9963 47.901 82.0638 47.901Z" fill="#FF0010"/>
<path fill-rule="evenodd" clip-rule="evenodd" d="M70.4767 14.2573H67.5957V62.9866H70.4767V14.2573Z" fill="#FF1D00"/>
<path fill-rule="evenodd" clip-rule="evenodd" d="M63.9365 14.2569V16.8555L70.4779 16.8486V14.25L63.9365 14.2569Z" fill="#FF1D00"/>
<path fill-rule="evenodd" clip-rule="evenodd" d="M67.6182 60.395V63.0005L74.1595 62.9936L74.1525 60.395H67.6182Z" fill="#FF1D00"/>
<path d="M111.44 44.5L116.36 30.74H119.32L124.24 44.5H121.9L120.7 41.1H114.9L113.72 44.5H111.44ZM115.54 39.18H120.04L117.84 32.92H117.74L115.54 39.18ZM126.512 44.5V30.74H128.772V42.52H134.872V44.5H126.512ZM142.773 44.66C141.786 44.66 140.946 44.6 140.253 44.48C139.573 44.3467 139.006 44.1267 138.553 43.82C138.1 43.5133 137.746 43.0933 137.493 42.56C137.253 42.0267 137.08 41.36 136.973 40.56C136.88 39.7467 136.833 38.7667 136.833 37.62C136.833 36.4733 136.88 35.5 136.973 34.7C137.08 33.8867 137.26 33.2133 137.513 32.68C137.766 32.1467 138.12 31.7267 138.573 31.42C139.026 31.1133 139.593 30.9 140.273 30.78C140.966 30.6467 141.8 30.58 142.773 30.58C143.213 30.58 143.693 30.6 144.213 30.64C144.746 30.68 145.273 30.7333 145.793 30.8C146.313 30.8533 146.786 30.92 147.213 31V32.8C146.76 32.7333 146.313 32.68 145.873 32.64C145.433 32.6 145.026 32.5667 144.653 32.54C144.293 32.5133 143.993 32.5 143.753 32.5C142.953 32.5 142.28 32.52 141.733 32.56C141.186 32.5867 140.74 32.68 140.393 32.84C140.046 33 139.78 33.2667 139.593 33.64C139.406 34 139.273 34.5 139.193 35.14C139.126 35.78 139.093 36.6067 139.093 37.62C139.093 38.5133 139.113 39.2667 139.153 39.88C139.206 40.48 139.306 40.98 139.453 41.38C139.613 41.7667 139.826 42.06 140.093 42.26C140.373 42.46 140.733 42.6 141.173 42.68C141.626 42.76 142.18 42.8 142.833 42.8C143.086 42.8 143.353 42.7933 143.633 42.78C143.926 42.7667 144.2 42.7533 144.453 42.74C144.706 42.7133 144.92 42.6867 145.093 42.66V38.76H142.393V36.88H147.273V44.24C146.82 44.32 146.32 44.3933 145.773 44.46C145.24 44.5133 144.713 44.56 144.193 44.6C143.673 44.64 143.2 44.66 142.773 44.66Z" fill="#3A3A3A"/>
</svg>
