<svg width="188" height="76" viewBox="0 0 188 76" fill="none" xmlns="http://www.w3.org/2000/svg">
<path d="M45.9979 16.3421C46.0259 16.4569 46.0936 16.5564 46.1884 16.6219C46.2831 16.6874 46.3984 16.7144 46.5123 16.6978C46.6263 16.6812 46.7312 16.6221 46.8072 16.5316C46.8832 16.4412 46.9251 16.3257 46.925 16.2068V15.1333C46.925 14.9022 47.0371 14.7923 47.2614 14.8036C48.7765 14.9107 49.6735 15.4545 49.9525 16.435C54.2135 31.5548 58.5537 46.6492 62.9733 61.7183C63.0444 61.9775 62.9733 62.1832 62.76 62.3354L60.9058 63.6541C60.8594 63.6863 60.8074 63.7088 60.7528 63.7203C60.6982 63.7318 60.6421 63.7321 60.5878 63.721C60.5335 63.71 60.4821 63.6879 60.4367 63.6561C60.3912 63.6243 60.3527 63.5833 60.3232 63.5357C59.5465 62.2959 58.4936 61.383 57.1644 60.7969C56.7323 60.6109 56.5901 60.7462 56.7378 61.2027L57.5829 63.7809C57.6122 63.8602 57.6143 63.9475 57.5888 64.0282C57.5633 64.1089 57.5118 64.1782 57.4428 64.2246C57.3738 64.2711 57.2915 64.2917 57.2095 64.2833C57.1275 64.2748 57.0508 64.2377 56.9921 64.1782L55.1379 62.4114C55.0011 62.2818 54.8425 62.2227 54.662 62.2339C54.5909 62.2396 54.5198 62.2424 54.4487 62.2424C54.4011 62.2393 54.3535 62.248 54.3099 62.2679C54.2662 62.2878 54.2276 62.3184 54.1973 62.357C54.1669 62.3957 54.1456 62.4415 54.1351 62.4906C54.1247 62.5397 54.1253 62.5908 54.1369 62.6397L54.6866 64.7868C54.7286 64.9507 54.7041 65.1173 54.6184 65.2499C54.5327 65.3824 54.3929 65.4701 54.2297 65.4937C54.0665 65.5172 53.8933 65.4747 53.7482 65.3754C53.603 65.2761 53.4979 65.1282 53.4559 64.9643L50.6745 54.9812C50.6319 54.8282 50.5416 54.6936 50.4174 54.5976C50.2931 54.5016 50.1415 54.4493 49.9853 54.4486L40.3038 54.3726C40.0686 54.3726 39.9182 54.4881 39.8525 54.7191C38.7641 58.5174 37.9409 61.1886 37.3829 62.7327C37.1368 63.4033 36.6828 63.7893 36.021 63.8907C35.7475 63.9302 35.649 63.8147 35.7256 63.5442L37.785 56.2407C37.9108 55.7955 37.8096 55.7335 37.4814 56.0547C37.2134 56.3196 37.0192 56.6972 36.8989 57.1874C36.2015 60.053 35.7338 62.758 32.8211 64.3388C32.7658 64.3698 32.7026 64.3828 32.6399 64.3761C32.5772 64.3693 32.518 64.3432 32.47 64.3011C32.422 64.259 32.3875 64.2029 32.3711 64.1402C32.3547 64.0775 32.3571 64.0112 32.3781 63.9499L32.9196 62.3269C33.0235 62.017 32.9333 61.7887 32.6488 61.6422L31.8037 61.2196C31.5248 61.073 31.2869 61.1266 31.0899 61.3802C30.0671 62.665 28.7379 63.3779 27.1025 63.5188C26.7962 63.5414 26.6895 63.4033 26.7825 63.1046L30.3433 51.9972C30.4582 51.6366 30.3488 51.3745 30.0151 51.2111L29.5557 50.9829C29.3855 50.8961 29.2528 50.7472 29.1836 50.5651C29.1143 50.3829 29.1134 50.1808 29.1811 49.998C29.2488 49.8153 29.3801 49.6651 29.5495 49.5768C29.7189 49.4885 29.9142 49.4684 30.0972 49.5205C30.666 49.6895 31.1528 49.5627 31.5576 49.1401C31.6007 49.0934 31.6304 49.0353 31.6432 48.9722C31.656 48.9091 31.6515 48.8436 31.6302 48.7831C31.6089 48.7225 31.5717 48.6692 31.5226 48.6292C31.4735 48.5893 31.4146 48.5642 31.3525 48.5568L29.7444 48.3962C29.3232 48.3511 29.2247 48.1426 29.449 47.7707C30.0726 46.7394 29.9303 45.8067 29.0224 44.9727C28.9542 44.9126 28.9054 44.8325 28.8824 44.7431C28.8593 44.6537 28.8632 44.5593 28.8934 44.4722C28.9237 44.3852 28.9789 44.3096 29.0517 44.2556C29.1245 44.2016 29.2116 44.1716 29.3013 44.1697L33.0098 44.026C33.1333 44.0213 33.2525 43.9785 33.352 43.9032C33.4515 43.8278 33.5267 43.7233 33.5678 43.6033L41.2145 21.2618C41.2891 21.0422 41.292 20.8046 41.2227 20.5855L39.5244 14.8881C39.415 14.5218 39.538 14.4007 39.8936 14.5246C43.0442 15.6405 43.6923 20.3995 44.7097 24.0344C44.7699 24.2598 44.8793 24.2908 45.0379 24.1274C45.1254 24.0316 45.15 23.9132 45.1117 23.7723C43.9686 19.5007 42.8144 15.2319 41.6494 10.9659C41.5236 10.5038 41.6685 10.3854 42.0842 10.6109L44.5702 11.9465C44.6637 11.9973 44.7461 12.0669 44.8124 12.1512C44.8787 12.2355 44.9275 12.3327 44.9559 12.4367L45.9979 16.3421ZM43.3888 43.8992C43.3761 43.943 43.3734 43.9892 43.381 44.0342C43.3886 44.0792 43.4061 44.1218 43.4324 44.1587C43.4586 44.1955 43.4928 44.2256 43.5322 44.2466C43.5716 44.2676 43.6152 44.2788 43.6595 44.2796H47.4583C47.5036 44.2793 47.5482 44.2679 47.5884 44.2465C47.6286 44.225 47.6634 44.1941 47.6898 44.1562C47.7162 44.1182 47.7335 44.0744 47.7403 44.0283C47.7471 43.9822 47.7433 43.935 47.729 43.8907L45.8256 37.6016C45.8068 37.5411 45.7697 37.4884 45.7197 37.4513C45.6696 37.4142 45.6093 37.3946 45.5476 37.3956C45.486 37.3965 45.4263 37.4179 45.3773 37.4565C45.3284 37.4952 45.2928 37.549 45.2758 37.6101L43.3888 43.8992Z" fill="#D9020C"/>
<path d="M87.94 44.5L92.86 30.74H95.82L100.74 44.5H98.4L97.2 41.1H91.4L90.22 44.5H87.94ZM92.04 39.18H96.54L94.34 32.92H94.24L92.04 39.18ZM103.012 44.5V30.74H105.272V42.52H111.372V44.5H103.012ZM114.641 44.5V32.72H110.461V30.74H121.061V32.72H116.901V44.5H114.641ZM123.403 44.5V30.74H132.563V32.66H125.663V36.6H131.623V38.52H125.663V42.58H132.563V44.5H123.403ZM135.531 44.5V30.74H137.871L144.171 40.26H144.251V30.74H146.411V44.5H144.251L137.771 34.68H137.691V44.5H135.531ZM152.922 44.5V32.72H148.742V30.74H159.342V32.72H155.182V44.5H152.922ZM161.684 44.5V30.74H170.844V32.66H163.944V36.6H169.904V38.52H163.944V42.58H170.844V44.5H161.684Z" fill="#3A3A3A"/>
</svg>
