<svg width="188" height="76" viewBox="0 0 188 76" fill="none" xmlns="http://www.w3.org/2000/svg">
<path d="M32.3428 45.051H52.4515C52.4566 45.051 52.4616 45.0498 52.4662 45.0476C52.4707 45.0454 52.4747 45.0421 52.4779 45.0381C52.481 45.0341 52.4832 45.0295 52.4843 45.0245C52.4854 45.0196 52.4853 45.0144 52.4841 45.0095L46.6152 19.6388C46.6134 19.6315 46.6092 19.625 46.6033 19.6204C46.5974 19.6157 46.5901 19.6132 46.5826 19.6132H16.2885C16.2834 19.6131 16.2784 19.612 16.2738 19.6098C16.2693 19.6075 16.2653 19.6043 16.2621 19.6003C16.259 19.5963 16.2568 19.5917 16.2557 19.5867C16.2546 19.5817 16.2547 19.5766 16.2559 19.5717L18.5263 10.5257C18.5281 10.5184 18.5323 10.5119 18.5382 10.5072C18.5441 10.5025 18.5514 10.5 18.559 10.5H54.9662C54.9737 10.5 54.981 10.5025 54.987 10.5072C54.9929 10.5119 54.997 10.5184 54.9988 10.5257L68.7491 65.4585C68.7503 65.4634 68.7503 65.4686 68.7492 65.4736C68.7482 65.4785 68.746 65.4832 68.7428 65.4872C68.7397 65.4912 68.7357 65.4944 68.7311 65.4966C68.7265 65.4988 68.7215 65.5 68.7164 65.5H57.2366C57.2291 65.5 57.2218 65.4975 57.2159 65.4928C57.21 65.4881 57.2058 65.4816 57.204 65.4743L54.5825 54.1888C54.5807 54.1815 54.5766 54.175 54.5706 54.1703C54.5647 54.1657 54.5574 54.1631 54.5499 54.1631L30.2395 54.175C30.232 54.175 30.2247 54.1775 30.2187 54.1822C30.2128 54.1868 30.2086 54.1934 30.2069 54.2007L27.5913 65.4743C27.5895 65.4816 27.5854 65.4881 27.5794 65.4928C27.5735 65.4975 27.5662 65.5 27.5587 65.5H16.2836C16.2785 65.5 16.2735 65.4988 16.2689 65.4966C16.2643 65.4944 16.2603 65.4912 16.2572 65.4872C16.254 65.4832 16.2518 65.4785 16.2508 65.4736C16.2497 65.4686 16.2497 65.4634 16.2509 65.4585L26.0764 26.6231C26.0781 26.616 26.0821 26.6096 26.0878 26.6049C26.0936 26.6003 26.1006 26.5977 26.108 26.5974L36.505 26.6034C36.5101 26.6034 36.5151 26.6045 36.5196 26.6068C36.5242 26.609 36.5282 26.6122 36.5314 26.6162C36.5345 26.6202 36.5367 26.6249 36.5378 26.6298C36.5389 26.6348 36.5388 26.6399 36.5376 26.6449L32.3102 45.0095C32.309 45.0144 32.3089 45.0196 32.31 45.0245C32.3111 45.0295 32.3133 45.0341 32.3164 45.0381C32.3196 45.0421 32.3236 45.0454 32.3282 45.0476C32.3327 45.0498 32.3377 45.051 32.3428 45.051Z" fill="#3A3A3A"/>
<path d="M84.94 44.5L89.86 30.74H92.82L97.74 44.5H95.4L94.2 41.1H88.4L87.22 44.5H84.94ZM89.04 39.18H93.54L91.34 32.92H91.24L89.04 39.18ZM100.012 44.5V30.74H106.172C107.039 30.74 107.739 30.8467 108.272 31.06C108.805 31.2733 109.212 31.58 109.492 31.98C109.785 32.3667 109.979 32.8333 110.072 33.38C110.179 33.9267 110.232 34.5333 110.232 35.2C110.232 35.8267 110.185 36.4133 110.092 36.96C109.999 37.4933 109.805 37.9667 109.512 38.38C109.232 38.78 108.819 39.0933 108.272 39.32C107.725 39.5467 107.005 39.66 106.112 39.66H102.272V44.5H100.012ZM102.272 37.74H105.252C105.879 37.74 106.379 37.7 106.752 37.62C107.125 37.54 107.392 37.4 107.552 37.2C107.725 37 107.839 36.74 107.892 36.42C107.945 36.1 107.972 35.6933 107.972 35.2C107.972 34.7067 107.945 34.3 107.892 33.98C107.852 33.6467 107.745 33.3867 107.572 33.2C107.412 33 107.152 32.86 106.792 32.78C106.432 32.7 105.939 32.66 105.312 32.66H102.272V37.74ZM113.02 44.5V30.74H119.18C120.046 30.74 120.746 30.8467 121.28 31.06C121.813 31.2733 122.22 31.58 122.5 31.98C122.793 32.3667 122.986 32.8333 123.08 33.38C123.186 33.9267 123.24 34.5333 123.24 35.2C123.24 35.8267 123.193 36.4133 123.1 36.96C123.006 37.4933 122.813 37.9667 122.52 38.38C122.24 38.78 121.826 39.0933 121.28 39.32C120.733 39.5467 120.013 39.66 119.12 39.66H115.28V44.5H113.02ZM115.28 37.74H118.26C118.886 37.74 119.386 37.7 119.76 37.62C120.133 37.54 120.4 37.4 120.56 37.2C120.733 37 120.846 36.74 120.9 36.42C120.953 36.1 120.98 35.6933 120.98 35.2C120.98 34.7067 120.953 34.3 120.9 33.98C120.86 33.6467 120.753 33.3867 120.58 33.2C120.42 33 120.16 32.86 119.8 32.78C119.44 32.7 118.946 32.66 118.32 32.66H115.28V37.74ZM123.885 44.5L128.805 30.74H131.765L136.685 44.5H134.345L133.145 41.1H127.345L126.165 44.5H123.885ZM127.985 39.18H132.485L130.285 32.92H130.185L127.985 39.18ZM138.957 44.5V30.74H145.377C146.244 30.74 146.944 30.84 147.477 31.04C148.011 31.24 148.411 31.5333 148.677 31.92C148.944 32.2933 149.124 32.7467 149.217 33.28C149.311 33.8 149.357 34.3733 149.357 35C149.357 35.4533 149.311 35.9533 149.217 36.5C149.137 37.0333 148.951 37.5267 148.657 37.98C148.377 38.42 147.931 38.74 147.317 38.94L149.577 44.5H147.177L144.977 38.88L145.557 39.18C145.464 39.22 145.351 39.2467 145.217 39.26C145.097 39.26 144.951 39.26 144.777 39.26H141.217V44.5H138.957ZM141.217 37.34H144.417C145.044 37.34 145.537 37.3 145.897 37.22C146.257 37.1267 146.524 36.9867 146.697 36.8C146.871 36.6133 146.977 36.3733 147.017 36.08C147.071 35.7867 147.097 35.4267 147.097 35C147.097 34.56 147.071 34.1933 147.017 33.9C146.977 33.5933 146.877 33.3533 146.717 33.18C146.557 32.9933 146.297 32.86 145.937 32.78C145.591 32.7 145.111 32.66 144.497 32.66H141.217V37.34ZM151.131 44.5L156.051 30.74H159.011L163.931 44.5H161.591L160.391 41.1H154.591L153.411 44.5H151.131ZM155.231 39.18H159.731L157.531 32.92H157.431L155.231 39.18ZM167.969 44.5V32.72H163.789V30.74H174.389V32.72H170.229V44.5H167.969Z" fill="#3A3A3A"/>
</svg>
