<svg width="188" height="76" viewBox="0 0 188 76" fill="none" xmlns="http://www.w3.org/2000/svg">
<path d="M44.8407 19.25H23.4252L22.7344 20.6389H45.5315L44.8407 19.25Z" fill="url(#paint0_linear_552_3203)"/>
<path d="M46.913 24.1113H21.0072L16.8623 34.528C30.1993 33.7467 37.75 33.7704 51.4034 34.528L46.913 24.1113Z" fill="url(#paint1_linear_552_3203)"/>
<path d="M53.1295 38.3477C38.1512 37.9963 29.7708 37.9803 14.789 38.3477L12.3711 43.9032C29.0752 43.0942 38.4054 43.1616 55.5474 43.9032L53.1295 38.3477Z" fill="url(#paint2_linear_552_3203)"/>
<path d="M56.9303 47.3754C38.9932 46.5268 28.9272 46.5538 10.9907 47.3754L9.26367 50.8476C28.7103 49.6372 39.5216 49.6226 58.6574 50.8476L56.9303 47.3754Z" fill="url(#paint3_linear_552_3203)"/>
<path d="M23.0797 53.625C16.7539 53.8681 13.4386 54.016 7.88164 54.3194L6.5 56.75H22.0435L23.0797 53.625Z" fill="url(#paint4_linear_552_3203)"/>
<path d="M60.0389 54.3194C54.4128 53.8944 51.0651 53.7521 44.8408 53.625L46.2225 56.75H61.4205L60.0389 54.3194Z" fill="url(#paint5_linear_552_3203)"/>
<path d="M76.396 44L80.824 31.616H83.488L87.916 44H85.81L84.73 40.94H79.51L78.448 44H76.396ZM80.086 39.212H84.136L82.156 33.578H82.066L80.086 39.212ZM91.5499 44V33.398H87.7879V31.616H97.3279V33.398H93.5839V44H91.5499ZM99.4353 44V31.616H102.207L105.843 40.616H105.933L109.569 31.616H112.341V44H110.379V34.766H110.307L106.563 44H105.123L101.415 34.766H101.343V44H99.4353ZM120.394 44.144C119.41 44.144 118.6 44.09 117.964 43.982C117.328 43.862 116.824 43.664 116.452 43.388C116.08 43.112 115.81 42.734 115.642 42.254C115.474 41.774 115.366 41.174 115.318 40.454C115.27 39.722 115.246 38.84 115.246 37.808C115.246 36.776 115.27 35.9 115.318 35.18C115.366 34.448 115.474 33.842 115.642 33.362C115.81 32.882 116.08 32.504 116.452 32.228C116.824 31.952 117.328 31.76 117.964 31.652C118.6 31.532 119.41 31.472 120.394 31.472C121.378 31.472 122.188 31.532 122.824 31.652C123.472 31.76 123.982 31.952 124.354 32.228C124.726 32.504 124.996 32.882 125.164 33.362C125.344 33.842 125.458 34.448 125.506 35.18C125.554 35.9 125.578 36.776 125.578 37.808C125.578 38.84 125.554 39.722 125.506 40.454C125.458 41.174 125.344 41.774 125.164 42.254C124.996 42.734 124.726 43.112 124.354 43.388C123.982 43.664 123.472 43.862 122.824 43.982C122.188 44.09 121.378 44.144 120.394 44.144ZM120.394 42.416C120.994 42.416 121.486 42.398 121.87 42.362C122.266 42.326 122.572 42.236 122.788 42.092C123.016 41.948 123.184 41.714 123.292 41.39C123.4 41.054 123.466 40.604 123.49 40.04C123.526 39.464 123.544 38.72 123.544 37.808C123.544 36.896 123.526 36.158 123.49 35.594C123.466 35.018 123.4 34.568 123.292 34.244C123.184 33.908 123.016 33.668 122.788 33.524C122.572 33.38 122.266 33.29 121.87 33.254C121.486 33.218 120.994 33.2 120.394 33.2C119.806 33.2 119.32 33.218 118.936 33.254C118.552 33.29 118.246 33.38 118.018 33.524C117.79 33.668 117.622 33.908 117.514 34.244C117.418 34.568 117.352 35.018 117.316 35.594C117.292 36.158 117.28 36.896 117.28 37.808C117.28 38.72 117.292 39.464 117.316 40.04C117.352 40.604 117.418 41.054 117.514 41.39C117.622 41.714 117.79 41.948 118.018 42.092C118.246 42.236 118.552 42.326 118.936 42.362C119.32 42.398 119.806 42.416 120.394 42.416ZM132.686 44.144C132.242 44.144 131.75 44.132 131.21 44.108C130.682 44.084 130.16 44.048 129.644 44C129.14 43.964 128.678 43.922 128.258 43.874V42.2C128.69 42.236 129.14 42.272 129.608 42.308C130.088 42.344 130.544 42.374 130.976 42.398C131.408 42.41 131.78 42.416 132.092 42.416C132.728 42.416 133.226 42.386 133.586 42.326C133.946 42.266 134.234 42.17 134.45 42.038C134.594 41.942 134.696 41.822 134.756 41.678C134.828 41.534 134.87 41.366 134.882 41.174C134.906 40.97 134.918 40.748 134.918 40.508C134.918 40.184 134.906 39.914 134.882 39.698C134.858 39.482 134.804 39.314 134.72 39.194C134.636 39.074 134.504 38.99 134.324 38.942C134.144 38.882 133.91 38.834 133.622 38.798L130.67 38.456C130.094 38.384 129.62 38.264 129.248 38.096C128.888 37.916 128.606 37.682 128.402 37.394C128.21 37.106 128.078 36.764 128.006 36.368C127.934 35.972 127.898 35.534 127.898 35.054C127.898 34.25 128.006 33.614 128.222 33.146C128.438 32.678 128.744 32.324 129.14 32.084C129.548 31.832 130.028 31.67 130.58 31.598C131.132 31.514 131.744 31.472 132.416 31.472C132.884 31.472 133.364 31.49 133.856 31.526C134.348 31.55 134.81 31.586 135.242 31.634C135.686 31.67 136.052 31.724 136.34 31.796V33.434C136.04 33.386 135.686 33.344 135.278 33.308C134.882 33.272 134.468 33.248 134.036 33.236C133.604 33.212 133.202 33.2 132.83 33.2C132.206 33.2 131.702 33.23 131.318 33.29C130.946 33.338 130.658 33.422 130.454 33.542C130.214 33.674 130.07 33.86 130.022 34.1C129.974 34.328 129.95 34.616 129.95 34.964C129.95 35.372 129.974 35.69 130.022 35.918C130.082 36.134 130.208 36.284 130.4 36.368C130.604 36.452 130.91 36.518 131.318 36.566L134.27 36.908C134.642 36.944 134.978 37.004 135.278 37.088C135.578 37.16 135.842 37.286 136.07 37.466C136.31 37.646 136.496 37.904 136.628 38.24C136.712 38.408 136.772 38.6 136.808 38.816C136.856 39.032 136.892 39.272 136.916 39.536C136.952 39.788 136.97 40.076 136.97 40.4C136.97 41.084 136.898 41.654 136.754 42.11C136.622 42.566 136.43 42.932 136.178 43.208C135.938 43.472 135.638 43.676 135.278 43.82C134.918 43.952 134.522 44.036 134.09 44.072C133.658 44.12 133.19 44.144 132.686 44.144ZM139.707 44V31.616H147.591V33.344H141.741V37.178H146.925V38.906H141.741V44H139.707ZM149.937 44V31.616H158.181V33.344H151.971V36.89H157.335V38.618H151.971V42.272H158.181V44H149.937ZM160.853 44V31.616H166.631C167.411 31.616 168.041 31.706 168.521 31.886C169.001 32.066 169.361 32.33 169.601 32.678C169.841 33.014 170.003 33.422 170.087 33.902C170.171 34.37 170.213 34.886 170.213 35.45C170.213 35.858 170.171 36.308 170.087 36.8C170.015 37.28 169.847 37.724 169.583 38.132C169.331 38.528 168.929 38.816 168.377 38.996L170.411 44H168.251L166.271 38.942L166.793 39.212C166.709 39.248 166.607 39.272 166.487 39.284C166.379 39.284 166.247 39.284 166.091 39.284H162.887V44H160.853ZM162.887 37.556H165.767C166.331 37.556 166.775 37.52 167.099 37.448C167.423 37.364 167.663 37.238 167.819 37.07C167.975 36.902 168.071 36.686 168.107 36.422C168.155 36.158 168.179 35.834 168.179 35.45C168.179 35.054 168.155 34.724 168.107 34.46C168.071 34.184 167.981 33.968 167.837 33.812C167.693 33.644 167.459 33.524 167.135 33.452C166.823 33.38 166.391 33.344 165.839 33.344H162.887V37.556ZM171.81 44L176.238 31.616H178.902L183.33 44H181.224L180.144 40.94H174.924L173.862 44H171.81ZM175.5 39.212H179.55L177.57 33.578H177.48L175.5 39.212Z" fill="#3A3A3A"/>
<defs>
<linearGradient id="paint0_linear_552_3203" x1="14.4445" y1="33.1389" x2="56.5846" y2="33.1389" gradientUnits="userSpaceOnUse">
<stop stop-color="#9729C8"/>
<stop offset="1" stop-color="#4792FB"/>
</linearGradient>
<linearGradient id="paint1_linear_552_3203" x1="14.4444" y1="33.1391" x2="56.5845" y2="33.1391" gradientUnits="userSpaceOnUse">
<stop stop-color="#9729C8"/>
<stop offset="1" stop-color="#4792FB"/>
</linearGradient>
<linearGradient id="paint2_linear_552_3203" x1="14.4436" y1="33.1394" x2="56.5837" y2="33.1394" gradientUnits="userSpaceOnUse">
<stop stop-color="#9729C8"/>
<stop offset="1" stop-color="#4792FB"/>
</linearGradient>
<linearGradient id="paint3_linear_552_3203" x1="14.4448" y1="33.1393" x2="56.5849" y2="33.1393" gradientUnits="userSpaceOnUse">
<stop stop-color="#9729C8"/>
<stop offset="1" stop-color="#4792FB"/>
</linearGradient>
<linearGradient id="paint4_linear_552_3203" x1="14.4444" y1="33.1389" x2="56.5845" y2="33.1389" gradientUnits="userSpaceOnUse">
<stop stop-color="#9729C8"/>
<stop offset="1" stop-color="#4792FB"/>
</linearGradient>
<linearGradient id="paint5_linear_552_3203" x1="14.4447" y1="33.1389" x2="56.5848" y2="33.1389" gradientUnits="userSpaceOnUse">
<stop stop-color="#9729C8"/>
<stop offset="1" stop-color="#4792FB"/>
</linearGradient>
</defs>
</svg>
