<svg width="188" height="76" viewBox="0 0 188 76" fill="none" xmlns="http://www.w3.org/2000/svg">
<path d="M36.9342 33.0156C33.9133 33.0156 31.4648 35.4641 31.4648 38.485C31.4648 41.5058 33.9133 43.9543 36.9342 43.9543C39.955 43.9543 42.4035 41.5058 42.4035 38.485C42.4035 35.4641 39.955 33.0156 36.9342 33.0156ZM38.6663 40.8122L36.8697 39.5083L35.0732 40.8122L35.7592 38.701L33.9626 37.3972L36.1837 37.3668L36.8697 35.286L37.5558 37.3972H39.7769L37.9803 38.701L38.6663 40.8122Z" fill="white"/>
<path d="M36.9332 44.1174C33.829 44.1174 31.3047 41.5931 31.3047 38.4889C31.3047 35.3847 33.829 32.8604 36.9332 32.8604C40.0374 32.8604 42.5617 35.3847 42.5617 38.4889C42.5617 41.5931 40.0374 44.1174 36.9332 44.1174ZM36.9332 33.1787C34.0071 33.1787 31.6231 35.559 31.6231 38.4889C31.6231 41.4187 34.0033 43.799 36.9332 43.799C39.8631 43.799 42.2434 41.4187 42.2434 38.4889C42.2434 35.559 39.8631 33.1787 36.9332 33.1787ZM38.9686 41.2368L36.8688 39.7093L34.769 41.2368L35.5725 38.7656L33.4803 37.2457L36.069 37.2116L36.8726 34.7744L37.6723 37.2419H40.2686L38.1688 38.7694L38.9724 41.2406L38.9686 41.2368ZM36.8688 39.3152L38.3621 40.3992L37.7936 38.6443L39.287 37.5603H37.4411L36.8688 35.8016L36.3002 37.5262L34.4468 37.5527L35.9478 38.6443L35.3792 40.3992L36.8726 39.3152H36.8688Z" fill="white"/>
<path d="M17.2568 36.293H20.1071V43.4225H23.272V36.293H26.1222V33.7573H17.2568V36.293Z" fill="white"/>
<path d="M23.4351 43.586H19.948V36.4565H17.1016V33.5986H26.2854V36.4565H23.4389V43.586H23.4351ZM20.2664 43.2638H23.1129V36.1343H25.9594V33.917H17.4199V36.1343H20.2664V43.2638Z" fill="white"/>
<path d="M9.63043 33.7577L6.16992 43.4228H9.27035L9.63422 42.1493H12.7877L13.1629 43.4228H16.3164L12.8521 33.7539H9.63043V33.7577ZM10.2369 40.1329L11.2148 36.6686L12.2343 40.1329H10.2331H10.2369Z" fill="white"/>
<path d="M16.5447 43.5854H13.0425L12.6673 42.3118H9.75259L9.38872 43.5854H6.00781V43.3958L6.01539 43.3655L9.51759 33.5942H12.9667L16.5447 43.5816V43.5854ZM13.2813 43.2632H16.0899L12.7431 33.9164H9.745L6.39442 43.2632H9.14614L9.51001 41.9897H12.9061L13.2813 43.2632ZM12.4512 40.2916H10.0255L11.0943 36.5089H11.3369L11.3748 36.6227L12.455 40.2916H12.4512ZM10.4462 39.9694H12.0229L11.2194 37.2405L10.4462 39.9694Z" fill="white"/>
<path d="M53.2467 39.7838L51.5448 33.7573H47.7167L47.7129 43.358V43.4225H50.5594V40.1439L50.4949 38.643L50.3585 37.2178H50.385L52.1437 43.4225H54.3458L56.1045 37.2178H56.131L55.9719 38.9651L55.9302 40.4699V43.4225H58.7804V33.7573H54.9523L53.2467 39.7838Z" fill="white"/>
<path d="M58.9393 43.586H55.7706V40.4704L55.8085 38.9618L55.8237 38.7913L54.463 43.5822H52.0183L50.6538 38.7723L50.7144 40.1368V43.5822H47.542L47.5496 43.3548V33.5986H51.662L53.2463 39.1968L54.8307 33.5986H58.9393V43.586ZM56.0928 43.2638H58.6209V33.917H55.077L53.2501 40.3756L51.4232 33.917H47.8793V43.2638H50.3998V40.1482L50.3354 38.651L50.1838 37.0629H50.506L52.2647 43.2638H54.2242L55.9829 37.0629H56.3051L56.1269 38.9846L56.089 40.4779V43.2676L56.0928 43.2638Z" fill="white"/>
<path d="M65.3874 33.7573H62.2188V43.4187H65.3874V33.7573Z" fill="white"/>
<path d="M65.5456 43.5778H62.0586V33.5942H65.5456V43.5778ZM62.377 43.2556H65.2235V33.9126H62.377V43.2556Z" fill="white"/>
<path d="M73.4003 41.3087C71.7895 41.3087 71.4938 40.0351 71.4938 38.6782C71.4938 36.8096 72.1647 35.8583 73.2791 35.8583C74.2759 35.8583 74.9051 36.4382 74.9998 37.4426H78.0055C77.7516 34.96 76.1028 33.4932 73.1464 33.4932C70.4477 33.4932 68.3252 35.4262 68.3252 38.5683C68.3252 41.7104 70.2582 43.67 73.4534 43.67C76.0043 43.67 77.7895 42.1653 78.0737 39.6713H75.0264C74.9051 40.5999 74.4199 41.3087 73.4003 41.3087Z" fill="white"/>
<path d="M73.4524 43.8331C70.189 43.8331 68.165 41.8167 68.165 38.5722C68.165 35.3278 70.2118 33.3379 73.1454 33.3379C76.0791 33.3379 77.8946 34.7896 78.1637 37.4314L78.1827 37.6095H74.8548L74.8397 37.4655C74.7525 36.5369 74.1991 36.0252 73.2781 36.0252C72.2282 36.0252 71.6521 36.969 71.6521 38.6859C71.6521 40.4029 72.1751 41.1572 73.3994 41.1572C74.4493 41.1572 74.7752 40.3423 74.8662 39.66L74.8852 39.5198H78.2509L78.232 39.6979C77.9439 42.2526 76.1132 43.8407 73.4524 43.8407V43.8331ZM73.1454 33.6563C70.4013 33.6563 68.4872 35.6765 68.4872 38.5722C68.4872 41.6651 70.3444 43.5147 73.4562 43.5147C75.8744 43.5147 77.5611 42.1085 77.8946 39.8344H75.1694C74.9875 40.8919 74.3659 41.4718 73.407 41.4718C71.5535 41.4718 71.3413 39.8799 71.3413 38.6822C71.3413 36.787 72.05 35.703 73.2857 35.703C74.3128 35.703 74.9989 36.2905 75.1467 37.2873H77.8302C77.5194 34.945 75.863 33.6601 73.153 33.6601L73.1454 33.6563Z" fill="white"/>
<path d="M36.6598 32.6992C33.6389 32.6992 31.1904 35.1477 31.1904 38.1686C31.1904 41.1894 33.6389 43.6379 36.6598 43.6379C39.6806 43.6379 42.1291 41.1894 42.1291 38.1686C42.1291 35.1477 39.6806 32.6992 36.6598 32.6992ZM38.3919 40.4958L36.5953 39.1919L34.7988 40.4958L35.4848 38.3846L33.6882 37.0808L35.9093 37.0504L36.5953 34.9696L37.2814 37.0808H39.5025L37.7059 38.3846L38.3919 40.4958Z" fill="#FDAA3D"/>
<path d="M36.6588 43.801C33.5546 43.801 31.0303 41.2767 31.0303 38.1725C31.0303 35.0683 33.5546 32.5439 36.6588 32.5439C39.763 32.5439 42.2873 35.0683 42.2873 38.1725C42.2873 41.2767 39.763 43.801 36.6588 43.801ZM36.6588 32.8623C33.7327 32.8623 31.3487 35.2426 31.3487 38.1725C31.3487 41.1023 33.7289 43.4826 36.6588 43.4826C39.5887 43.4826 41.969 41.1023 41.969 38.1725C41.969 35.2426 39.5887 32.8623 36.6588 32.8623ZM38.6942 40.9204L36.5944 39.3929L34.4946 40.9204L35.2981 38.4492L33.2059 36.9293L35.7946 36.8952L36.5982 34.458L37.3979 36.9255H39.9942L37.8944 38.453L38.698 40.9242L38.6942 40.9204ZM36.5944 38.9988L38.0877 40.0828L37.5192 38.3279L39.0126 37.2439H37.1667L36.5944 35.4852L36.0258 37.2098L34.1724 37.2363L35.6733 38.3279L35.1048 40.0828L36.5982 38.9988H36.5944Z" fill="white"/>
<path d="M17 35.8764H19.8465V43.0059H23.0151V35.8764H25.8616V33.3369H17V35.8764Z" fill="#FDAA3D"/>
<path d="M23.1782 43.1655H19.6912V36.0361H16.8447V33.1782H26.0285V36.0361H23.182V43.1655H23.1782ZM20.0096 42.8434H22.8561V35.7139H25.7026V33.4966H17.1631V35.7139H20.0096V42.8434Z" fill="white"/>
<path d="M9.37445 33.3348L5.91016 43H9.01059L9.37445 41.7265H12.5279L12.9032 43H16.0567L12.5924 33.3311H9.37445V33.3348ZM9.98089 39.7101L10.9588 36.2458L11.9784 39.7101H9.9771H9.98089Z" fill="#FDAA3D"/>
<path d="M16.2869 43.1635H12.7847L12.4095 41.89H9.49477L9.13091 43.1635H5.75V42.974L5.75758 42.9436L9.25978 33.1724H12.7089L16.2869 43.1597V43.1635ZM13.0235 42.8413H15.8321L12.4853 33.4945H9.48719L6.13661 42.8451H8.88833L9.2522 41.5716H12.6483L13.0235 42.8451V42.8413ZM12.1934 39.8697H9.76767L10.8365 36.0871H11.0791L11.117 36.2008L12.1972 39.8697H12.1934ZM10.1884 39.5476H11.7651L10.9616 36.8186L10.1884 39.5476Z" fill="white"/>
<path d="M52.9879 39.3667L51.2861 33.3364H47.4579L47.4541 42.9371V43.0016H50.3006V39.7268L50.2324 38.2221L50.0997 36.8007H50.1262L51.8849 43.0016H54.087L55.8457 36.8007H55.8723L55.7131 38.5442L55.6714 40.049V43.0054H58.5179V33.3364H54.6935L52.9879 39.3667Z" fill="#FDAA3D"/>
<path d="M58.6805 43.1651H55.5118V40.0495L55.5498 38.5409L55.5649 38.3704L54.2042 43.1613H51.7595L50.395 38.3514L50.4556 39.7159V43.1613H47.2832L47.2908 42.9339V33.1777H51.4032L52.9875 38.7759L54.5719 33.1777H58.6805V43.1651ZM55.834 42.8429H58.3621V33.4961H54.8182L52.9913 39.9547L51.1644 33.4961H47.6205V42.8429H50.1411V39.7273L50.0766 38.2301L49.925 36.642H50.2472L52.0059 42.8429H53.9654L55.7241 36.642H56.0463L55.8681 38.5637L55.8302 40.057V42.8467L55.834 42.8429Z" fill="white"/>
<path d="M65.1286 33.3364H61.96V42.9978H65.1286V33.3364Z" fill="#FDAA3D"/>
<path d="M65.2868 43.1613H61.7998V33.1777H65.2868V43.1613ZM62.1182 42.8391H64.9647V33.4961H62.1182V42.8391Z" fill="white"/>
<path d="M73.1406 40.8907C71.5297 40.8907 71.2341 39.6172 71.2341 38.2603C71.2341 36.3917 71.905 35.4403 73.0193 35.4403C74.0161 35.4403 74.6453 36.0202 74.7401 37.0246H77.7457C77.4918 34.542 75.843 33.0752 72.8866 33.0752C70.188 33.0752 68.0654 35.0082 68.0654 38.1503C68.0654 41.2925 69.9985 43.252 73.1936 43.252C75.7445 43.252 77.5297 41.7473 77.814 39.2533H74.7666C74.6453 40.1819 74.1602 40.8907 73.1406 40.8907Z" fill="#FDAA3D"/>
<path d="M73.1937 43.4112C69.9302 43.4112 67.9062 41.3948 67.9062 38.1504C67.9062 34.9059 69.953 32.916 72.8866 32.916C75.8203 32.916 77.6358 34.3677 77.9049 37.0095L77.9239 37.1876H74.596L74.5809 37.0436C74.4937 36.115 73.9403 35.6033 73.0193 35.6033C71.9694 35.6033 71.3933 36.5471 71.3933 38.2641C71.3933 39.9811 71.9163 40.7353 73.1406 40.7353C74.1905 40.7353 74.5165 39.9204 74.6074 39.2382L74.6264 39.0979H77.9921L77.9732 39.2761C77.6851 41.8307 75.8544 43.4188 73.1937 43.4188V43.4112ZM72.8866 33.2344C70.1425 33.2344 68.2284 35.2546 68.2284 38.1504C68.2284 41.2432 70.0856 43.0929 73.1974 43.0929C75.6156 43.0929 77.3023 41.6867 77.6358 39.4125H74.9106C74.7287 40.47 74.1071 41.0499 73.1482 41.0499C71.2947 41.0499 71.0825 39.458 71.0825 38.2603C71.0825 36.3651 71.7913 35.2811 73.0269 35.2811C74.054 35.2811 74.7401 35.8686 74.8879 36.8655H77.5714C77.2606 34.5231 75.6043 33.2382 72.8942 33.2382L72.8866 33.2344Z" fill="white"/>
<path fill-rule="evenodd" clip-rule="evenodd" d="M46.4957 24.3303C47.0452 23.2728 48.3491 22.8635 49.4066 23.4131C50.4641 23.9626 50.8734 25.2665 50.3238 26.324C49.7742 27.3815 48.4704 27.7908 47.4129 27.2412C46.3554 26.6916 45.9461 25.3878 46.4957 24.3303ZM32.4679 30.2279C37.0807 27.5634 41.7237 25.8464 45.6732 25.1679C45.658 25.4181 45.6732 25.6683 45.73 25.9184C44.0206 26.2178 42.1975 26.7182 40.2872 27.4042C37.8122 28.2987 35.3106 29.4699 32.8469 30.8912C32.0207 31.3688 31.2133 31.8691 30.4326 32.3808C30.4742 32.0473 30.5235 31.7137 30.5728 31.384C31.1906 30.9898 31.816 30.6032 32.4679 30.2317V30.2279ZM51.1311 25.7289C51.169 25.475 51.169 25.2096 51.1349 24.9481C53.3105 25.24 54.9404 26.0814 55.7666 27.5103C56.4375 28.6701 56.5019 30.1029 56.0547 31.691H54.4969C55.1299 30.065 55.1829 28.6664 54.5954 27.6506C54.0193 26.6537 52.814 25.998 51.1349 25.7251L51.1311 25.7289ZM43.3043 43.3991C43.2209 44.142 43.1223 44.8697 43.0048 45.5898C42.5993 45.84 42.1861 46.0864 41.7654 46.3289C31.4673 52.2759 21.0365 53.4887 18.4705 49.0428C17.7693 47.8261 17.7314 46.31 18.2545 44.6347H19.0769C18.6411 46.0144 18.66 47.2045 19.1755 48.099C20.1534 49.7932 22.9392 50.4944 26.8091 50.0207C28.8596 49.7667 31.1034 49.2057 33.4761 48.3492C35.9512 47.4546 38.4527 46.2835 40.9164 44.8621C41.7313 44.3921 42.5273 43.8994 43.2967 43.3953L43.3043 43.3991Z" fill="#166FAF"/>
<path fill-rule="evenodd" clip-rule="evenodd" d="M40.2185 56.6917C40.4232 56.8509 40.6468 56.9874 40.8931 57.0859C39.5514 58.8256 38.005 59.8149 36.36 59.8149C31.2242 59.8149 27.0625 50.1763 27.0625 38.2824C27.0625 26.3886 31.2204 16.75 36.3562 16.75C41.492 16.75 45.6537 26.3886 45.6537 38.2824C45.6537 43.6115 44.8198 48.4858 43.4326 52.2495C43.2242 52.1131 42.9967 52.0032 42.7542 51.9274C43.3492 50.2976 43.8306 48.4706 44.1907 46.4732C44.6569 43.8807 44.8919 41.1289 44.8919 38.2862C44.8919 35.4435 44.6531 32.688 44.1907 30.0993C43.7472 27.6167 43.1067 25.3918 42.3031 23.4929C40.7794 19.8997 38.782 17.8416 36.8224 17.8416C34.8628 17.8416 32.8654 19.8997 31.3417 23.4929C30.5344 25.3956 29.8976 27.6167 29.4542 30.0993C28.988 32.6918 28.753 35.4435 28.753 38.2862C28.753 41.1289 28.9917 43.8844 29.4542 46.4732C29.8976 48.9558 30.5382 51.1807 31.3417 53.0796C32.8654 56.6728 34.8628 58.7309 36.8224 58.7309C37.9746 58.7309 39.142 58.0183 40.2185 56.6955V56.6917ZM41.9241 52.3822C40.7302 52.3822 39.7636 53.3487 39.7636 54.5426C39.7636 55.7366 40.7302 56.7031 41.9241 56.7031C43.118 56.7031 44.0845 55.7366 44.0845 54.5426C44.0845 53.3487 43.118 52.3822 41.9241 52.3822Z" fill="#0D7632"/>
<path d="M30.2725 26.5248C30.3445 26.2822 30.4166 26.0434 30.4886 25.8084C31.9554 26.2102 33.4867 26.7294 35.0482 27.37C34.745 27.5178 34.438 27.6694 34.1386 27.8248C33.7709 27.6808 33.3995 27.5368 33.0318 27.4079C32.0881 27.0668 31.167 26.7749 30.2725 26.5285V26.5248ZM28.9005 25.4142C28.4759 25.3232 28.059 25.2361 27.6497 25.1678C27.6648 25.418 27.6497 25.6682 27.5928 25.9183C27.9491 25.9828 28.313 26.0548 28.6806 26.1344C28.7526 25.8918 28.8246 25.653 28.9005 25.418V25.4142ZM32.9939 47.121C32.9939 47.121 33.0167 47.1134 33.028 47.1096C33.7103 46.8633 34.3963 46.5942 35.0824 46.3023C34.1841 45.8551 33.2896 45.3737 32.3989 44.862C31.7052 44.4603 31.0268 44.0471 30.3635 43.6188C30.4469 44.3579 30.5492 45.0819 30.6705 45.7982C30.9623 45.9764 31.2542 46.1507 31.5536 46.3251C32.0312 46.6017 32.5126 46.8633 32.9901 47.121H32.9939ZM43.2314 32.6005C43.1897 32.267 43.1442 31.9335 43.0988 31.6037C42.3748 31.1337 41.6281 30.6713 40.8549 30.224C40.275 29.8905 39.6951 29.5683 39.1152 29.2613C38.8082 29.3864 38.505 29.5153 38.1979 29.6479C38.9598 30.0345 39.7178 30.4477 40.4721 30.8836C41.4235 31.4331 42.3445 32.0055 43.2314 32.6005ZM55.0684 44.6308H54.2459C54.6818 46.0105 54.6628 47.2006 54.1473 48.0951C53.1695 49.7894 50.3836 50.4905 46.5138 50.0168C44.6338 49.7856 42.5909 49.2928 40.4342 48.5537C39.7406 48.9138 39.047 49.2549 38.3533 49.5771C46.1044 52.5335 52.8587 52.4994 54.8561 49.0427C55.5611 47.826 55.5952 46.3099 55.0722 44.6346L55.0684 44.6308ZM22.1879 24.9518C20.0123 25.2437 18.3825 26.0851 17.5562 27.514C16.8853 28.6738 16.8209 30.1066 17.2682 31.6947H18.8259C18.193 30.0686 18.1399 28.67 18.7274 27.6543C19.3035 26.6574 20.5088 26.0017 22.1879 25.7288C22.15 25.4749 22.15 25.2095 22.1841 24.948L22.1879 24.9518ZM26.8006 24.2961C26.2283 23.2462 24.9207 22.8634 23.8708 23.4319C22.8209 24.0042 22.4381 25.3119 23.0066 26.3618C23.5789 27.4117 24.8866 27.7945 25.9365 27.226C26.9864 26.6574 27.3692 25.346 26.8006 24.2961Z" fill="#E63334"/>
<path d="M95.69 34L100.61 20.24H103.57L108.49 34H106.15L104.95 30.6H99.15L97.97 34H95.69ZM99.79 28.68H104.29L102.09 22.42H101.99L99.79 28.68ZM112.528 34V22.22H108.348V20.24H118.948V22.22H114.788V34H112.528ZM126.549 34.16C125.456 34.16 124.556 34.1 123.849 33.98C123.143 33.8467 122.583 33.6267 122.169 33.32C121.756 33.0133 121.456 32.5933 121.269 32.06C121.083 31.5267 120.963 30.86 120.909 30.06C120.856 29.2467 120.829 28.2667 120.829 27.12C120.829 25.9733 120.856 25 120.909 24.2C120.963 23.3867 121.083 22.7133 121.269 22.18C121.456 21.6467 121.756 21.2267 122.169 20.92C122.583 20.6133 123.143 20.4 123.849 20.28C124.556 20.1467 125.456 20.08 126.549 20.08C127.643 20.08 128.543 20.1467 129.249 20.28C129.969 20.4 130.536 20.6133 130.949 20.92C131.363 21.2267 131.663 21.6467 131.849 22.18C132.049 22.7133 132.176 23.3867 132.229 24.2C132.283 25 132.309 25.9733 132.309 27.12C132.309 28.2667 132.283 29.2467 132.229 30.06C132.176 30.86 132.049 31.5267 131.849 32.06C131.663 32.5933 131.363 33.0133 130.949 33.32C130.536 33.6267 129.969 33.8467 129.249 33.98C128.543 34.1 127.643 34.16 126.549 34.16ZM126.549 32.24C127.216 32.24 127.763 32.22 128.189 32.18C128.629 32.14 128.969 32.04 129.209 31.88C129.463 31.72 129.649 31.46 129.769 31.1C129.889 30.7267 129.963 30.2267 129.989 29.6C130.029 28.96 130.049 28.1333 130.049 27.12C130.049 26.1067 130.029 25.2867 129.989 24.66C129.963 24.02 129.889 23.52 129.769 23.16C129.649 22.7867 129.463 22.52 129.209 22.36C128.969 22.2 128.629 22.1 128.189 22.06C127.763 22.02 127.216 22 126.549 22C125.896 22 125.356 22.02 124.929 22.06C124.503 22.1 124.163 22.2 123.909 22.36C123.656 22.52 123.469 22.7867 123.349 23.16C123.243 23.52 123.169 24.02 123.129 24.66C123.103 25.2867 123.089 26.1067 123.089 27.12C123.089 28.1333 123.103 28.96 123.129 29.6C123.169 30.2267 123.243 30.7267 123.349 31.1C123.469 31.46 123.656 31.72 123.909 31.88C124.163 32.04 124.503 32.14 124.929 32.18C125.356 32.22 125.896 32.24 126.549 32.24ZM135.528 34V20.24H138.608L142.648 30.24H142.748L146.788 20.24H149.868V34H147.688V23.74H147.608L143.448 34H141.848L137.728 23.74H137.648V34H135.528ZM153.555 34V20.24H155.815V34H153.555ZM164.653 34.16C163.666 34.16 162.839 34.1 162.173 33.98C161.506 33.8467 160.959 33.6267 160.533 33.32C160.119 33.0133 159.799 32.6 159.573 32.08C159.359 31.5467 159.213 30.8733 159.133 30.06C159.053 29.2467 159.013 28.2667 159.013 27.12C159.013 25.9733 159.053 24.9933 159.133 24.18C159.213 23.3667 159.359 22.7 159.573 22.18C159.799 21.6467 160.119 21.2267 160.533 20.92C160.959 20.6133 161.506 20.4 162.173 20.28C162.839 20.1467 163.666 20.08 164.653 20.08C165.039 20.08 165.433 20.0933 165.833 20.12C166.246 20.1467 166.639 20.1867 167.013 20.24C167.386 20.28 167.706 20.3333 167.973 20.4V22.2C167.639 22.16 167.306 22.1267 166.973 22.1C166.653 22.06 166.339 22.0333 166.033 22.02C165.726 22.0067 165.459 22 165.233 22C164.499 22 163.893 22.0267 163.413 22.08C162.933 22.1333 162.546 22.2533 162.253 22.44C161.973 22.6267 161.759 22.9067 161.613 23.28C161.479 23.64 161.386 24.1333 161.333 24.76C161.293 25.3867 161.273 26.1733 161.273 27.12C161.273 28.0533 161.293 28.84 161.333 29.48C161.386 30.1067 161.479 30.6067 161.613 30.98C161.759 31.34 161.973 31.6133 162.253 31.8C162.546 31.9867 162.933 32.1067 163.413 32.16C163.893 32.2133 164.499 32.24 165.233 32.24C165.673 32.24 166.153 32.22 166.673 32.18C167.206 32.14 167.666 32.0933 168.053 32.04V33.88C167.759 33.9333 167.413 33.98 167.013 34.02C166.626 34.06 166.226 34.0933 165.813 34.12C165.413 34.1467 165.026 34.16 164.653 34.16ZM101.77 56.16C101.277 56.16 100.73 56.1467 100.13 56.12C99.5433 56.0933 98.9633 56.0533 98.39 56C97.83 55.96 97.3167 55.9133 96.85 55.86V54C97.33 54.04 97.83 54.08 98.35 54.12C98.8833 54.16 99.39 54.1933 99.87 54.22C100.35 54.2333 100.763 54.24 101.11 54.24C101.817 54.24 102.37 54.2067 102.77 54.14C103.17 54.0733 103.49 53.9667 103.73 53.82C103.89 53.7133 104.003 53.58 104.07 53.42C104.15 53.26 104.197 53.0733 104.21 52.86C104.237 52.6333 104.25 52.3867 104.25 52.12C104.25 51.76 104.237 51.46 104.21 51.22C104.183 50.98 104.123 50.7933 104.03 50.66C103.937 50.5267 103.79 50.4333 103.59 50.38C103.39 50.3133 103.13 50.26 102.81 50.22L99.53 49.84C98.89 49.76 98.3633 49.6267 97.95 49.44C97.55 49.24 97.2367 48.98 97.01 48.66C96.7967 48.34 96.65 47.96 96.57 47.52C96.49 47.08 96.45 46.5933 96.45 46.06C96.45 45.1667 96.57 44.46 96.81 43.94C97.05 43.42 97.39 43.0267 97.83 42.76C98.2833 42.48 98.8167 42.3 99.43 42.22C100.043 42.1267 100.723 42.08 101.47 42.08C101.99 42.08 102.523 42.1 103.07 42.14C103.617 42.1667 104.13 42.2067 104.61 42.26C105.103 42.3 105.51 42.36 105.83 42.44V44.26C105.497 44.2067 105.103 44.16 104.65 44.12C104.21 44.08 103.75 44.0533 103.27 44.04C102.79 44.0133 102.343 44 101.93 44C101.237 44 100.677 44.0333 100.25 44.1C99.8367 44.1533 99.5167 44.2467 99.29 44.38C99.0233 44.5267 98.8633 44.7333 98.81 45C98.7567 45.2533 98.73 45.5733 98.73 45.96C98.73 46.4133 98.7567 46.7667 98.81 47.02C98.8767 47.26 99.0167 47.4267 99.23 47.52C99.4567 47.6133 99.7967 47.6867 100.25 47.74L103.53 48.12C103.943 48.16 104.317 48.2267 104.65 48.32C104.983 48.4 105.277 48.54 105.53 48.74C105.797 48.94 106.003 49.2267 106.15 49.6C106.243 49.7867 106.31 50 106.35 50.24C106.403 50.48 106.443 50.7467 106.47 51.04C106.51 51.32 106.53 51.64 106.53 52C106.53 52.76 106.45 53.3933 106.29 53.9C106.143 54.4067 105.93 54.8133 105.65 55.12C105.383 55.4133 105.05 55.64 104.65 55.8C104.25 55.9467 103.81 56.04 103.33 56.08C102.85 56.1333 102.33 56.16 101.77 56.16ZM109.57 56V42.24H111.83V54.02H117.93V56H109.57ZM125.612 56.16C124.518 56.16 123.618 56.1 122.912 55.98C122.205 55.8467 121.645 55.6267 121.232 55.32C120.818 55.0133 120.518 54.5933 120.332 54.06C120.145 53.5267 120.025 52.86 119.972 52.06C119.918 51.2467 119.892 50.2667 119.892 49.12C119.892 47.9733 119.918 47 119.972 46.2C120.025 45.3867 120.145 44.7133 120.332 44.18C120.518 43.6467 120.818 43.2267 121.232 42.92C121.645 42.6133 122.205 42.4 122.912 42.28C123.618 42.1467 124.518 42.08 125.612 42.08C126.705 42.08 127.605 42.1467 128.312 42.28C129.032 42.4 129.598 42.6133 130.012 42.92C130.425 43.2267 130.725 43.6467 130.912 44.18C131.112 44.7133 131.238 45.3867 131.292 46.2C131.345 47 131.372 47.9733 131.372 49.12C131.372 50.2667 131.345 51.2467 131.292 52.06C131.238 52.86 131.112 53.5267 130.912 54.06C130.725 54.5933 130.425 55.0133 130.012 55.32C129.598 55.6267 129.032 55.8467 128.312 55.98C127.605 56.1 126.705 56.16 125.612 56.16ZM125.612 54.24C126.278 54.24 126.825 54.22 127.252 54.18C127.692 54.14 128.032 54.04 128.272 53.88C128.525 53.72 128.712 53.46 128.832 53.1C128.952 52.7267 129.025 52.2267 129.052 51.6C129.092 50.96 129.112 50.1333 129.112 49.12C129.112 48.1067 129.092 47.2867 129.052 46.66C129.025 46.02 128.952 45.52 128.832 45.16C128.712 44.7867 128.525 44.52 128.272 44.36C128.032 44.2 127.692 44.1 127.252 44.06C126.825 44.02 126.278 44 125.612 44C124.958 44 124.418 44.02 123.992 44.06C123.565 44.1 123.225 44.2 122.972 44.36C122.718 44.52 122.532 44.7867 122.412 45.16C122.305 45.52 122.232 46.02 122.192 46.66C122.165 47.2867 122.152 48.1067 122.152 49.12C122.152 50.1333 122.165 50.96 122.192 51.6C122.232 52.2267 122.305 52.7267 122.412 53.1C122.532 53.46 122.718 53.72 122.972 53.88C123.225 54.04 123.565 54.14 123.992 54.18C124.418 54.22 124.958 54.24 125.612 54.24ZM137.43 56V44.22H133.25V42.24H143.85V44.22H139.69V56H137.43ZM150.723 56V42.24H152.983V54.02H159.083V56H150.723ZM160.104 56L165.024 42.24H167.984L172.904 56H170.564L169.364 52.6H163.564L162.384 56H160.104ZM164.204 50.68H168.704L166.504 44.42H166.404L164.204 50.68ZM175.176 56V42.24H181.716C182.623 42.24 183.349 42.38 183.896 42.66C184.443 42.9267 184.843 43.32 185.096 43.84C185.349 44.3467 185.476 44.9667 185.476 45.7C185.476 46.3133 185.389 46.84 185.216 47.28C185.056 47.72 184.803 48.08 184.456 48.36C184.109 48.6267 183.663 48.82 183.116 48.94V49.02C183.756 49.14 184.256 49.3467 184.616 49.64C184.989 49.9333 185.249 50.3067 185.396 50.76C185.543 51.2133 185.616 51.7467 185.616 52.36C185.616 52.88 185.556 53.3667 185.436 53.82C185.316 54.26 185.109 54.64 184.816 54.96C184.536 55.28 184.143 55.5333 183.636 55.72C183.129 55.9067 182.483 56 181.696 56H175.176ZM177.436 54.1H181.016C181.629 54.1 182.103 54.04 182.436 53.92C182.769 53.7867 183.003 53.5733 183.136 53.28C183.283 52.9733 183.356 52.5667 183.356 52.06C183.356 51.54 183.283 51.1333 183.136 50.84C182.989 50.5333 182.743 50.32 182.396 50.2C182.063 50.0667 181.603 50 181.016 50H177.436V54.1ZM177.436 48.08H180.936C181.483 48.08 181.916 48.0133 182.236 47.88C182.569 47.7467 182.816 47.54 182.976 47.26C183.136 46.9667 183.216 46.5933 183.216 46.14C183.216 45.6333 183.149 45.24 183.016 44.96C182.883 44.6667 182.656 44.46 182.336 44.34C182.016 44.22 181.549 44.16 180.936 44.16H177.436V48.08Z" fill="#3A3A3A"/>
</svg>
