<svg width="188" height="76" viewBox="0 0 188 76" fill="none" xmlns="http://www.w3.org/2000/svg">
<path d="M37.4815 10.5H49.9088C50.1182 10.5 50.2147 10.6047 50.1984 10.8141L50.11 11.9037C50.1051 11.958 50.1171 12.0124 50.1442 12.0596C50.1714 12.1069 50.2124 12.1446 50.2618 12.1676C50.3111 12.1907 50.3664 12.198 50.42 12.1885C50.4737 12.1791 50.5231 12.1533 50.5616 12.1148L52.0585 10.6571C52.134 10.5846 52.236 10.5442 52.3432 10.5442L57.2709 10.5049L58.4979 10.5C58.6583 10.5 58.799 10.5524 58.92 10.6571L62.606 13.9258C62.6662 13.9784 62.7145 14.0433 62.7475 14.1161C62.7805 14.189 62.7975 14.268 62.7974 14.3479L62.822 16.0756L62.8171 32.0121C62.8138 40.3722 62.8171 48.6636 62.8269 56.8863C62.8269 57.4687 62.3999 58.187 61.5459 59.041C59.6841 60.906 57.7781 62.7237 55.8279 64.4938C55.0034 65.2448 54.812 65.4853 53.6046 65.4804C43.8833 65.4542 34.162 65.4607 24.4407 65.5C24.2575 65.5 24.0023 65.2906 23.6751 64.8718L16.2197 57.7845C16.0986 57.6667 16.0365 57.5244 16.0332 57.3575L15.9449 46.4566L15.935 44.0811C15.9351 43.9243 15.8908 43.7711 15.8074 43.6394L13.1374 39.5117C13.0458 39.371 13 39.2172 13 39.0503V10.7454C13 10.5818 13.0818 10.5 13.2454 10.5H22.934C23.1041 10.5 23.2514 10.5573 23.3757 10.6718L25.4322 12.5172C25.6514 12.7135 25.761 12.6628 25.761 12.3651V10.7503C25.761 10.5834 25.8445 10.5 26.0113 10.5H37.4815ZM24.2395 22.5052C24.2101 22.4749 24.1937 22.4344 24.1937 22.3923C24.1937 22.3501 24.2101 22.3096 24.2395 22.2794L25.7119 20.7873C25.7277 20.7721 25.7401 20.7537 25.7486 20.7335C25.757 20.7132 25.7612 20.6915 25.761 20.6696V14.986C25.7613 14.9629 25.7566 14.94 25.7473 14.9188C25.738 14.8976 25.7243 14.8787 25.707 14.8633L22.5364 12.0264C22.5077 12.0017 22.4712 11.9878 22.4333 11.9871L14.6344 11.8694C14.5914 11.8694 14.5502 11.8864 14.5199 11.9168C14.4895 11.9472 14.4724 11.9884 14.4724 12.0313V32.8907C14.4724 32.9336 14.4895 32.9748 14.5199 33.0052C14.5502 33.0356 14.5914 33.0526 14.6344 33.0526L22.6689 33.1263C22.6909 33.1265 22.7126 33.1223 22.7329 33.1138C22.7531 33.1054 22.7714 33.0929 22.7867 33.0772L25.7169 30.1029C25.7317 30.0872 25.7433 30.0687 25.7508 30.0485C25.7584 30.0282 25.7619 30.0067 25.761 29.9851V24.1199C25.7615 24.078 25.7456 24.0375 25.7169 24.007L24.2395 22.5052ZM27.2482 24.2574L27.2433 32.8269C27.2433 32.9807 27.3202 33.0576 27.4739 33.0576L35.4103 33.1361C35.6034 33.1361 35.6999 33.0396 35.6999 32.8465V30.4416C35.6999 30.2354 35.5985 30.1323 35.3956 30.1323H32.6323C32.4687 30.1323 32.3869 30.0505 32.3869 29.8869V24.1739C32.3869 23.9612 32.4933 23.8565 32.706 23.8598L35.4398 23.9089C35.6132 23.9122 35.6999 23.8255 35.6999 23.6488V21.1849C35.6999 21.0344 35.6246 20.9608 35.4741 20.964L32.5734 21.0328L32.4262 15.1381C32.4229 14.9909 32.4933 14.9173 32.6372 14.9173H35.3318C35.5772 14.9173 35.6999 14.7946 35.6999 14.5492V12.2816C35.6999 12.0755 35.5985 11.9724 35.3956 11.9724H27.5868C27.3643 11.9724 27.2531 12.0837 27.2531 12.3062L27.2482 24.2574ZM45.2707 15.0841C45.2707 15.0399 45.2882 14.9974 45.3195 14.9662C45.3508 14.9349 45.3933 14.9173 45.4375 14.9173H48.4167C48.461 14.9173 48.5034 14.8997 48.5347 14.8684C48.566 14.8371 48.5836 14.7947 48.5836 14.7504V12.1393C48.5836 12.095 48.566 12.0526 48.5347 12.0213C48.5034 11.99 48.461 11.9724 48.4167 11.9724H37.3196C37.2761 11.9724 37.2344 11.9893 37.2033 12.0196C37.1721 12.0498 37.154 12.091 37.1527 12.1344L37.0889 14.7455C37.0882 14.7678 37.0921 14.79 37.1001 14.8109C37.1082 14.8317 37.1204 14.8507 37.136 14.8667C37.1516 14.8827 37.1702 14.8954 37.1907 14.9041C37.2113 14.9128 37.2334 14.9173 37.2558 14.9173H40.0779C40.1222 14.9173 40.1646 14.9349 40.1959 14.9662C40.2272 14.9974 40.2448 15.0399 40.2448 15.0841L40.235 32.9103C40.235 32.9546 40.2525 32.997 40.2838 33.0283C40.3151 33.0596 40.3576 33.0772 40.4018 33.0772L45.1038 33.1361C45.148 33.1361 45.1905 33.1185 45.2218 33.0872C45.2531 33.0559 45.2707 33.0135 45.2707 32.9692V15.0841ZM54.8954 15.5308C54.8982 15.3439 54.972 15.1647 55.1019 15.0296C55.2318 14.8945 55.4079 14.8137 55.5944 14.8037C55.7809 14.7937 55.9637 14.8552 56.1056 14.9757C56.2475 15.0962 56.3378 15.2667 56.358 15.4523C56.5674 17.1537 56.5265 18.991 56.2353 20.964C56.2164 21.094 56.1541 21.2135 56.0586 21.3027L50.5223 26.5151C50.3751 26.6547 50.2578 26.8225 50.1776 27.0081C50.0975 27.1937 50.0561 27.3934 50.056 27.5949V32.3655C50.056 32.5673 50.1362 32.7608 50.2789 32.9035C50.4215 33.0461 50.615 33.1263 50.8168 33.1263H60.952C61.217 33.1263 61.3495 32.9954 61.3495 32.7336L61.3397 30.4514C61.3397 30.3668 61.3061 30.2856 61.2463 30.2258C61.1865 30.166 61.1053 30.1323 61.0207 30.1323H55.2144C55.0639 30.1323 54.969 30.0587 54.9298 29.9115C54.4291 27.8893 54.9936 26.7556 56.5593 25.347C57.8321 24.2083 59.1 23.0631 60.363 21.9113C61.8698 20.537 61.3594 16.7284 61.3348 15.1823C61.3349 15.1067 61.3187 15.0318 61.2874 14.9625C61.2561 14.8931 61.2104 14.8309 61.1532 14.7799L58.1936 12.1246C58.0759 12.0166 57.9368 11.9642 57.7765 11.9675C54.7138 12.0019 53.0058 11.4129 50.8364 14.0829C49.7321 15.4474 49.953 17.3811 50.0953 19.0401C50.1015 19.1204 50.1378 19.1953 50.197 19.2499C50.2562 19.3046 50.3338 19.3348 50.4143 19.3346H54.5862C54.74 19.3346 54.8185 19.256 54.8218 19.099L54.8954 15.5308ZM22.5659 37.9804C22.5659 37.9166 22.5912 37.8554 22.6363 37.8103C22.6814 37.7652 22.7426 37.7399 22.8064 37.7399H25.5205C25.5521 37.7399 25.5834 37.7337 25.6126 37.7216C25.6417 37.7095 25.6682 37.6918 25.6906 37.6694C25.7129 37.6471 25.7306 37.6206 25.7427 37.5914C25.7548 37.5622 25.761 37.531 25.761 37.4994V35.0355C25.761 35.0039 25.7548 34.9727 25.7427 34.9435C25.7306 34.9143 25.7129 34.8878 25.6906 34.8655C25.6682 34.8431 25.6417 34.8254 25.6126 34.8133C25.5834 34.8012 25.5521 34.795 25.5205 34.795H14.7129C14.6491 34.795 14.588 34.8204 14.5429 34.8655C14.4978 34.9106 14.4724 34.9717 14.4724 35.0355V37.4994C14.4724 37.5632 14.4978 37.6243 14.5429 37.6694C14.588 37.7145 14.6491 37.7399 14.7129 37.7399H17.2995C17.3633 37.7399 17.4244 37.7652 17.4695 37.8103C17.5146 37.8554 17.54 37.9166 17.54 37.9804V55.782C17.54 55.8458 17.5653 55.9069 17.6104 55.952C17.6555 55.9971 17.7167 56.0225 17.7805 56.0225H22.345C22.4088 56.0225 22.47 55.9971 22.5151 55.952C22.5602 55.9069 22.5855 55.8458 22.5855 55.782L22.5659 37.9804ZM32.598 43.7523C32.5703 43.7523 32.5428 43.7468 32.5172 43.7362C32.4916 43.7256 32.4683 43.7101 32.4488 43.6905C32.4292 43.6709 32.4136 43.6476 32.403 43.622C32.3924 43.5964 32.3869 43.5689 32.3869 43.5412V37.9509C32.3869 37.9232 32.3924 37.8958 32.403 37.8702C32.4136 37.8445 32.4292 37.8213 32.4488 37.8017C32.4683 37.7821 32.4916 37.7665 32.5172 37.7559C32.5428 37.7453 32.5703 37.7399 32.598 37.7399H35.4888C35.5448 37.7399 35.5985 37.7176 35.6381 37.6781C35.6777 37.6385 35.6999 37.5848 35.6999 37.5288V35.0061C35.6999 34.9501 35.6777 34.8964 35.6381 34.8568C35.5985 34.8173 35.5448 34.795 35.4888 34.795H27.4445C27.3885 34.795 27.3348 34.8173 27.2953 34.8568C27.2557 34.8964 27.2334 34.9501 27.2334 35.0061V55.8114C27.2334 55.8674 27.2557 55.9211 27.2953 55.9607C27.3348 56.0003 27.3885 56.0225 27.4445 56.0225H35.4888C35.5448 56.0225 35.5985 56.0003 35.6381 55.9607C35.6777 55.9211 35.6999 55.8674 35.6999 55.8114V53.1071C35.6999 53.079 35.6943 53.0511 35.6834 53.0252C35.6725 52.9992 35.6565 52.9758 35.6364 52.9561C35.6162 52.9364 35.5924 52.921 35.5662 52.9107C35.54 52.9004 35.5121 52.8954 35.4839 52.896L32.6029 52.9795C32.5748 52.9801 32.5468 52.9752 32.5206 52.9648C32.4944 52.9545 32.4706 52.9391 32.4505 52.9194C32.4304 52.8998 32.4144 52.8763 32.4035 52.8503C32.3925 52.8244 32.3869 52.7966 32.3869 52.7684V46.7855C32.3869 46.7578 32.3924 46.7303 32.403 46.7047C32.4136 46.6791 32.4292 46.6558 32.4488 46.6362C32.4683 46.6166 32.4916 46.6011 32.5172 46.5905C32.5428 46.5799 32.5703 46.5744 32.598 46.5744H35.4888C35.5448 46.5744 35.5985 46.5522 35.6381 46.5126C35.6777 46.473 35.6999 46.4194 35.6999 46.3634V43.9633C35.6999 43.9073 35.6777 43.8537 35.6381 43.8141C35.5985 43.7745 35.5448 43.7523 35.4888 43.7523H32.598ZM42.0804 52.5279V38.0687C42.0804 37.9849 42.1133 37.9045 42.1721 37.8448C42.2309 37.7852 42.3108 37.751 42.3945 37.7497L43.2436 37.735C43.4498 37.7317 43.5528 37.8348 43.5528 38.0442V43.5069C43.5528 43.572 43.5787 43.6344 43.6247 43.6804C43.6707 43.7264 43.7331 43.7523 43.7982 43.7523H48.1566C48.3595 43.7523 48.4609 43.6492 48.4609 43.4431L48.456 37.9362C48.456 37.8583 48.4408 37.7814 48.4114 37.7098C48.3819 37.6382 48.3387 37.5734 48.2842 37.519L45.7811 34.9963C45.6698 34.8817 45.5341 34.8245 45.3737 34.8245L40.5147 34.7852C40.4432 34.7836 40.3722 34.7963 40.3056 34.8224C40.239 34.8485 40.1783 34.8876 40.127 34.9374L37.3637 37.573C37.2361 37.6973 37.1723 37.8495 37.1723 38.0294V52.4887C37.1723 52.649 37.2247 52.7897 37.3294 52.9108C38.684 54.4912 40.0681 55.8458 42.1884 56.1354C44.5541 56.4626 46.3864 55.6822 47.6854 53.7942C48.8585 52.0862 48.51 48.9499 48.4413 46.9229C48.4347 46.7724 48.3562 46.6971 48.2057 46.6971H43.7982C43.6346 46.6971 43.5528 46.7789 43.5528 46.9425V52.5034C43.5528 52.5872 43.5199 52.6676 43.4611 52.7273C43.4024 52.7869 43.3225 52.8211 43.2387 52.8224L42.3896 52.8371C42.1835 52.8404 42.0804 52.7373 42.0804 52.5279ZM54.8414 46.8051C54.8414 46.7716 54.8482 46.7384 54.8614 46.7077C54.8747 46.6769 54.8941 46.6492 54.9184 46.6262C54.9428 46.6032 54.9716 46.5854 55.0031 46.574C55.0346 46.5625 55.0681 46.5577 55.1016 46.5597L56.2059 46.6186C56.2675 46.6223 56.3255 46.6491 56.3683 46.6937C56.4111 46.7383 56.4354 46.7973 56.4366 46.8591V55.7771C56.4366 55.8422 56.4624 55.9046 56.5084 55.9506C56.5545 55.9966 56.6169 56.0225 56.682 56.0225H61.0992C61.1643 56.0225 61.2267 55.9966 61.2728 55.9506C61.3188 55.9046 61.3446 55.8422 61.3446 55.7771V35.0404C61.3446 34.9753 61.3188 34.9129 61.2728 34.8669C61.2267 34.8209 61.1643 34.795 61.0992 34.795H56.6721C56.6079 34.795 56.5462 34.8202 56.5003 34.8652C56.4544 34.9101 56.428 34.9713 56.4267 35.0355L56.2844 43.4774C56.2832 43.54 56.2581 43.5997 56.2144 43.6444C56.1706 43.6891 56.1113 43.7154 56.0488 43.7179L55.0917 43.767C55.0583 43.769 55.0248 43.7642 54.9933 43.7527C54.9618 43.7413 54.933 43.7235 54.9086 43.7005C54.8842 43.6776 54.8648 43.6498 54.8516 43.619C54.8384 43.5883 54.8315 43.5551 54.8316 43.5216L54.8611 35.0404C54.8611 34.9753 54.8352 34.9129 54.7892 34.8669C54.7432 34.8209 54.6807 34.795 54.6157 34.795H50.3014C50.2364 34.795 50.1739 34.8209 50.1279 34.8669C50.0819 34.9129 50.056 34.9753 50.056 35.0404V55.7771C50.056 55.8422 50.0819 55.9046 50.1279 55.9506C50.1739 55.9966 50.2364 56.0225 50.3014 56.0225H54.596C54.6611 56.0225 54.7235 55.9966 54.7695 55.9506C54.8156 55.9046 54.8414 55.8422 54.8414 55.7771V46.8051Z" fill="#3A3A3A"/>
<path d="M24.2397 22.505L25.7171 24.0068C25.7459 24.0373 25.7617 24.0778 25.7613 24.1197V29.9849C25.7621 30.0065 25.7587 30.028 25.7511 30.0482C25.7435 30.0685 25.7319 30.087 25.7171 30.1027L22.787 33.077C22.7717 33.0927 22.7533 33.1052 22.7331 33.1136C22.7128 33.122 22.6911 33.1263 22.6692 33.1261L14.6346 33.0524C14.5917 33.0524 14.5505 33.0354 14.5201 33.005C14.4897 32.9746 14.4727 32.9334 14.4727 32.8905V12.0311C14.4727 11.9882 14.4897 11.947 14.5201 11.9166C14.5505 11.8862 14.5917 11.8691 14.6346 11.8691L22.4336 11.9869C22.4715 11.9876 22.5079 12.0015 22.5366 12.0262L25.7073 14.8631C25.7245 14.8785 25.7382 14.8974 25.7475 14.9186C25.7569 14.9397 25.7615 14.9627 25.7613 14.9858V20.6693C25.7615 20.6913 25.7572 20.713 25.7488 20.7333C25.7404 20.7535 25.7279 20.7718 25.7122 20.7871L24.2397 22.2792C24.2104 22.3094 24.1939 22.3499 24.1939 22.3921C24.1939 22.4342 24.2104 22.4747 24.2397 22.505ZM20.7648 15.0839C20.7648 15.041 20.7478 14.9998 20.7174 14.9694C20.687 14.939 20.6458 14.922 20.6029 14.922H19.5231C19.4801 14.922 19.4389 14.939 19.4085 14.9694C19.3782 14.9998 19.3611 15.041 19.3611 15.0839V20.738C19.3611 20.781 19.3782 20.8222 19.4085 20.8526C19.4389 20.883 19.4801 20.9 19.5231 20.9H20.6029C20.6458 20.9 20.687 20.883 20.7174 20.8526C20.7478 20.8222 20.7648 20.781 20.7648 20.738V15.0839ZM20.7605 24.143C20.7606 24.1256 20.7573 24.1083 20.7507 24.0922C20.7441 24.0761 20.7344 24.0614 20.7222 24.0491C20.7099 24.0367 20.6954 24.0269 20.6793 24.0201C20.6633 24.0134 20.6461 24.0099 20.6287 24.0098L19.5194 24.004C19.502 24.0039 19.4848 24.0072 19.4687 24.0138C19.4526 24.0204 19.4379 24.0301 19.4255 24.0423C19.4132 24.0546 19.4033 24.0691 19.3966 24.0852C19.3898 24.1012 19.3863 24.1184 19.3862 24.1358L19.3556 29.9862C19.3555 30.0036 19.3589 30.0208 19.3654 30.0369C19.372 30.053 19.3817 30.0677 19.3939 30.0801C19.4062 30.0924 19.4207 30.1023 19.4368 30.109C19.4528 30.1158 19.47 30.1193 19.4874 30.1194L20.5967 30.1252C20.6141 30.1252 20.6313 30.1219 20.6474 30.1153C20.6635 30.1088 20.6782 30.0991 20.6906 30.0868C20.7029 30.0746 20.7128 30.06 20.7195 30.044C20.7263 30.0279 20.7298 30.0107 20.7299 29.9933L20.7605 24.143Z" fill="#316EA9"/>
<path d="M45.2717 15.0844V32.9694C45.2717 33.0137 45.2541 33.0561 45.2228 33.0874C45.1915 33.1187 45.1491 33.1363 45.1048 33.1363L40.4029 33.0774C40.3586 33.0774 40.3162 33.0598 40.2849 33.0285C40.2536 32.9973 40.236 32.9548 40.236 32.9106L40.2458 15.0844C40.2458 15.0401 40.2282 14.9977 40.1969 14.9664C40.1656 14.9351 40.1232 14.9175 40.0789 14.9175H37.2568C37.2345 14.9175 37.2123 14.913 37.1918 14.9044C37.1712 14.8957 37.1526 14.8829 37.137 14.8669C37.1215 14.8509 37.1093 14.8319 37.1012 14.8111C37.0931 14.7903 37.0893 14.768 37.0899 14.7457L37.1537 12.1346C37.155 12.0912 37.1731 12.05 37.2043 12.0198C37.2355 11.9895 37.2772 11.9726 37.3206 11.9727H48.4178C48.462 11.9727 48.5045 11.9902 48.5358 12.0215C48.5671 12.0528 48.5846 12.0953 48.5846 12.1395V14.7506C48.5846 14.7949 48.5671 14.8373 48.5358 14.8686C48.5045 14.8999 48.462 14.9175 48.4178 14.9175H45.4386C45.3943 14.9175 45.3519 14.9351 45.3206 14.9664C45.2893 14.9977 45.2717 15.0401 45.2717 15.0844Z" fill="#316EA9"/>
<path d="M54.8959 15.531L54.8223 19.0992C54.819 19.2563 54.7405 19.3348 54.5867 19.3348H50.4148C50.3343 19.335 50.2567 19.3048 50.1975 19.2502C50.1383 19.1956 50.102 19.1206 50.0958 19.0403C49.9535 17.3814 49.7326 15.4476 50.8369 14.0831C53.0063 11.4131 54.7143 12.0021 57.777 11.9677C57.9373 11.9645 58.0764 12.0168 58.1942 12.1248L61.1537 14.7801C61.2109 14.8311 61.2566 14.8933 61.2879 14.9627C61.3192 15.032 61.3354 15.107 61.3353 15.1825C61.3599 16.7286 61.8703 20.5373 60.3635 21.9115C59.1005 23.0633 57.8326 24.2085 56.5598 25.3472C54.9941 26.7558 54.4297 27.8896 54.9303 29.9117C54.9695 30.059 55.0644 30.1326 55.2149 30.1326H61.0212C61.1058 30.1326 61.187 30.1662 61.2468 30.226C61.3066 30.2858 61.3402 30.367 61.3402 30.4516L61.3501 32.7339C61.3501 32.9956 61.2175 33.1265 60.9525 33.1265H50.8173C50.6155 33.1265 50.422 33.0464 50.2794 32.9037C50.1367 32.761 50.0566 32.5675 50.0566 32.3658V27.5951C50.0566 27.3936 50.098 27.194 50.1781 27.0083C50.2583 26.8227 50.3756 26.655 50.5228 26.5153L56.0591 21.3029C56.1546 21.2137 56.2169 21.0943 56.2358 20.9643C56.527 18.9912 56.5679 17.154 56.3585 15.4525C56.3383 15.2669 56.248 15.0965 56.1061 14.976C55.9643 14.8555 55.7814 14.7939 55.5949 14.804C55.4084 14.814 55.2323 14.8948 55.1024 15.0299C54.9725 15.165 54.8987 15.3442 54.8959 15.531Z" fill="#E37611"/>
<path d="M20.6031 14.9219H19.5233C19.4338 14.9219 19.3613 14.9944 19.3613 15.0838V20.738C19.3613 20.8274 19.4338 20.8999 19.5233 20.8999H20.6031C20.6925 20.8999 20.765 20.8274 20.765 20.738V15.0838C20.765 14.9944 20.6925 14.9219 20.6031 14.9219Z" fill="#3A3A3A"/>
<path d="M27.253 12.3064L27.2481 24.2576L27.2432 32.8269C27.2432 32.9807 27.3201 33.0576 27.4738 33.0576L35.4102 33.1361C35.6033 33.1361 35.6998 33.0396 35.6998 32.8465V30.4416C35.6998 30.2354 35.5984 30.1324 35.3955 30.1324H32.6322C32.4686 30.1324 32.3868 30.0506 32.3868 29.8869V24.1739C32.3868 23.9613 32.4932 23.8565 32.7059 23.8598L35.4397 23.9089C35.6131 23.9122 35.6998 23.8255 35.6998 23.6488V21.1849C35.6998 21.0344 35.6245 20.9608 35.474 20.964L32.5734 21.033L32.4261 15.1384C32.4228 14.9911 32.4932 14.9175 32.6372 14.9175H35.3317C35.5771 14.9175 35.6998 14.7948 35.6998 14.5494V12.2819C35.6998 12.0757 35.5984 11.9727 35.3955 11.9727H27.5867C27.3642 11.9727 27.253 12.0839 27.253 12.3064Z" fill="#316EA9"/>
<path d="M20.6284 24.0099L19.5192 24.0041C19.446 24.0037 19.3864 24.0627 19.386 24.1359L19.3554 29.9863C19.355 30.0595 19.414 30.1191 19.4872 30.1195L20.5964 30.1253C20.6696 30.1257 20.7293 30.0667 20.7296 29.9935L20.7603 24.1431C20.7607 24.0699 20.7016 24.0103 20.6284 24.0099Z" fill="#3A3A3A"/>
<path d="M22.5661 37.9803L22.5857 55.7819C22.5857 55.8457 22.5604 55.9068 22.5153 55.9519C22.4702 55.997 22.409 56.0224 22.3452 56.0224H17.7807C17.7169 56.0224 17.6558 55.997 17.6107 55.9519C17.5656 55.9068 17.5402 55.8457 17.5402 55.7819V37.9803C17.5402 37.9165 17.5149 37.8553 17.4698 37.8102C17.4247 37.7651 17.3635 37.7398 17.2997 37.7398H14.7132C14.6494 37.7398 14.5882 37.7144 14.5431 37.6693C14.498 37.6242 14.4727 37.5631 14.4727 37.4993V35.0354C14.4727 34.9716 14.498 34.9105 14.5431 34.8654C14.5882 34.8203 14.6494 34.7949 14.7132 34.7949H25.5208C25.5523 34.7949 25.5836 34.8011 25.6128 34.8132C25.642 34.8253 25.6685 34.843 25.6908 34.8654C25.7131 34.8877 25.7309 34.9142 25.7429 34.9434C25.755 34.9726 25.7613 35.0038 25.7613 35.0354V37.4993C25.7613 37.5309 25.755 37.5621 25.7429 37.5913C25.7309 37.6205 25.7131 37.647 25.6908 37.6693C25.6685 37.6917 25.642 37.7094 25.6128 37.7215C25.5836 37.7336 25.5523 37.7398 25.5208 37.7398H22.8066C22.7428 37.7398 22.6816 37.7651 22.6365 37.8102C22.5914 37.8553 22.5661 37.9165 22.5661 37.9803Z" fill="#316EA9"/>
<path d="M32.5979 43.7522H35.4888C35.5448 43.7522 35.5985 43.7744 35.638 43.814C35.6776 43.8536 35.6998 43.9072 35.6998 43.9632V46.3633C35.6998 46.4193 35.6776 46.4729 35.638 46.5125C35.5985 46.5521 35.5448 46.5743 35.4888 46.5743H32.5979C32.5702 46.5743 32.5428 46.5798 32.5172 46.5904C32.4916 46.601 32.4683 46.6165 32.4487 46.6361C32.4291 46.6557 32.4136 46.679 32.403 46.7046C32.3923 46.7302 32.3869 46.7577 32.3869 46.7854V52.7683C32.3869 52.7965 32.3925 52.8243 32.4034 52.8502C32.4143 52.8762 32.4303 52.8997 32.4504 52.9193C32.4705 52.939 32.4944 52.9544 32.5206 52.9647C32.5467 52.9751 32.5747 52.98 32.6028 52.9794L35.4839 52.8959C35.512 52.8953 35.54 52.9003 35.5662 52.9106C35.5923 52.9209 35.6162 52.9363 35.6363 52.956C35.6564 52.9757 35.6724 52.9991 35.6833 53.0251C35.6942 53.051 35.6999 53.0789 35.6998 53.107V55.8113C35.6998 55.8673 35.6776 55.921 35.638 55.9606C35.5985 56.0002 35.5448 56.0224 35.4888 56.0224H27.4444C27.3885 56.0224 27.3348 56.0002 27.2952 55.9606C27.2556 55.921 27.2334 55.8673 27.2334 55.8113V35.006C27.2334 34.95 27.2556 34.8963 27.2952 34.8567C27.3348 34.8172 27.3885 34.7949 27.4444 34.7949H35.4888C35.5448 34.7949 35.5985 34.8172 35.638 34.8567C35.6776 34.8963 35.6998 34.95 35.6998 35.006V37.5287C35.6998 37.5847 35.6776 37.6384 35.638 37.678C35.5985 37.7175 35.5448 37.7398 35.4888 37.7398H32.5979C32.5702 37.7398 32.5428 37.7452 32.5172 37.7558C32.4916 37.7664 32.4683 37.782 32.4487 37.8016C32.4291 37.8212 32.4136 37.8444 32.403 37.8701C32.3923 37.8957 32.3869 37.9231 32.3869 37.9508V43.5411C32.3869 43.5688 32.3923 43.5963 32.403 43.6219C32.4136 43.6475 32.4291 43.6708 32.4487 43.6904C32.4683 43.71 32.4916 43.7255 32.5172 43.7361C32.5428 43.7467 32.5702 43.7522 32.5979 43.7522Z" fill="#316EA9"/>
<path d="M42.3892 52.8372L43.2383 52.8225C43.322 52.8212 43.4019 52.787 43.4607 52.7273C43.5195 52.6677 43.5524 52.5872 43.5524 52.5035V46.9426C43.5524 46.779 43.6342 46.6972 43.7978 46.6972H48.2052C48.3558 46.6972 48.4343 46.7725 48.4408 46.923C48.5096 48.95 48.858 52.0863 47.685 53.7943C46.386 55.6823 44.5536 56.4627 42.1879 56.1355C40.0676 55.8459 38.6836 54.4913 37.3289 52.9108C37.2242 52.7898 37.1719 52.6491 37.1719 52.4888V38.0295C37.1719 37.8496 37.2357 37.6974 37.3633 37.5731L40.1265 34.9374C40.1779 34.8877 40.2386 34.8486 40.3051 34.8225C40.3717 34.7963 40.4428 34.7837 40.5143 34.7853L45.3733 34.8246C45.5336 34.8246 45.6694 34.8818 45.7807 34.9963L48.2838 37.5191C48.3382 37.5735 48.3814 37.6383 48.4109 37.7099C48.4404 37.7815 48.4556 37.8584 48.4556 37.9363L48.4605 43.4431C48.4605 43.6493 48.359 43.7524 48.1562 43.7524H43.7978C43.7327 43.7524 43.6703 43.7265 43.6243 43.6805C43.5782 43.6345 43.5524 43.572 43.5524 43.507V38.0443C43.5524 37.8348 43.4493 37.7318 43.2432 37.7351L42.3941 37.7498C42.3103 37.7511 42.2304 37.7852 42.1717 37.8449C42.1129 37.9046 42.08 37.985 42.08 38.0688V52.528C42.08 52.7374 42.183 52.8405 42.3892 52.8372Z" fill="#316EA9"/>
<path d="M54.841 46.805V55.777C54.841 55.8421 54.8152 55.9045 54.7692 55.9505C54.7231 55.9965 54.6607 56.0224 54.5956 56.0224H50.3011C50.236 56.0224 50.1736 55.9965 50.1275 55.9505C50.0815 55.9045 50.0557 55.8421 50.0557 55.777V35.0403C50.0557 34.9752 50.0815 34.9128 50.1275 34.8668C50.1736 34.8208 50.236 34.7949 50.3011 34.7949H54.6153C54.6804 34.7949 54.7428 34.8208 54.7888 34.8668C54.8348 34.9128 54.8607 34.9752 54.8607 35.0403L54.8312 43.5215C54.8312 43.555 54.838 43.5882 54.8512 43.6189C54.8645 43.6497 54.8839 43.6775 54.9082 43.7004C54.9326 43.7234 54.9614 43.7412 54.9929 43.7526C55.0244 43.7641 55.0579 43.7689 55.0914 43.7669L56.0484 43.7178C56.111 43.7153 56.1702 43.689 56.214 43.6443C56.2578 43.5996 56.2828 43.5399 56.284 43.4773L56.4264 35.0354C56.4276 34.9712 56.4541 34.91 56.4999 34.8651C56.5458 34.8201 56.6075 34.7949 56.6718 34.7949H61.0989C61.1639 34.7949 61.2264 34.8208 61.2724 34.8668C61.3184 34.9128 61.3443 34.9752 61.3443 35.0403V55.777C61.3443 55.8421 61.3184 55.9045 61.2724 55.9505C61.2264 55.9965 61.1639 56.0224 61.0989 56.0224H56.6816C56.6165 56.0224 56.5541 55.9965 56.5081 55.9505C56.462 55.9045 56.4362 55.8421 56.4362 55.777V46.859C56.435 46.7972 56.4107 46.7382 56.3679 46.6936C56.3252 46.649 56.2672 46.6222 56.2055 46.6185L55.1012 46.5596C55.0677 46.5576 55.0342 46.5624 55.0027 46.5739C54.9712 46.5853 54.9424 46.6031 54.9181 46.6261C54.8937 46.6491 54.8743 46.6768 54.861 46.7076C54.8478 46.7383 54.841 46.7715 54.841 46.805Z" fill="#316EA9"/>
<path d="M81.84 44.5V30.74H88.38C89.2867 30.74 90.0133 30.88 90.56 31.16C91.1067 31.4267 91.5067 31.82 91.76 32.34C92.0133 32.8467 92.14 33.4667 92.14 34.2C92.14 34.8133 92.0533 35.34 91.88 35.78C91.72 36.22 91.4667 36.58 91.12 36.86C90.7733 37.1267 90.3267 37.32 89.78 37.44V37.52C90.42 37.64 90.92 37.8467 91.28 38.14C91.6533 38.4333 91.9133 38.8067 92.06 39.26C92.2067 39.7133 92.28 40.2467 92.28 40.86C92.28 41.38 92.22 41.8667 92.1 42.32C91.98 42.76 91.7733 43.14 91.48 43.46C91.2 43.78 90.8067 44.0333 90.3 44.22C89.7933 44.4067 89.1467 44.5 88.36 44.5H81.84ZM84.1 42.6H87.68C88.2933 42.6 88.7667 42.54 89.1 42.42C89.4333 42.2867 89.6667 42.0733 89.8 41.78C89.9467 41.4733 90.02 41.0667 90.02 40.56C90.02 40.04 89.9467 39.6333 89.8 39.34C89.6533 39.0333 89.4067 38.82 89.06 38.7C88.7267 38.5667 88.2667 38.5 87.68 38.5H84.1V42.6ZM84.1 36.58H87.6C88.1467 36.58 88.58 36.5133 88.9 36.38C89.2333 36.2467 89.48 36.04 89.64 35.76C89.8 35.4667 89.88 35.0933 89.88 34.64C89.88 34.1333 89.8133 33.74 89.68 33.46C89.5467 33.1667 89.32 32.96 89 32.84C88.68 32.72 88.2133 32.66 87.6 32.66H84.1V36.58ZM95.4142 44.5V30.74H104.574V32.66H97.6742V36.6H103.634V38.52H97.6742V42.58H104.574V44.5H95.4142ZM110.383 44.5V32.72H106.203V30.74H116.803V32.72H112.643V44.5H110.383ZM118.585 44.5V42.8C118.585 42.0267 118.605 41.38 118.645 40.86C118.698 40.3267 118.798 39.88 118.945 39.52C119.091 39.16 119.325 38.8533 119.645 38.6C119.965 38.3467 120.405 38.1067 120.965 37.88L124.325 36.48C124.791 36.2933 125.138 36.12 125.365 35.96C125.591 35.7867 125.745 35.58 125.825 35.34C125.905 35.1 125.945 34.7867 125.945 34.4C125.945 33.8267 125.851 33.4067 125.665 33.14C125.491 32.8733 125.171 32.7 124.705 32.62C124.251 32.54 123.611 32.5 122.785 32.5C122.478 32.5 122.098 32.5133 121.645 32.54C121.205 32.5667 120.738 32.6 120.245 32.64C119.765 32.68 119.305 32.72 118.865 32.76V30.98C119.265 30.9 119.731 30.8333 120.265 30.78C120.798 30.7267 121.345 30.68 121.905 30.64C122.478 30.6 123.011 30.58 123.505 30.58C124.158 30.58 124.765 30.62 125.325 30.7C125.885 30.7667 126.378 30.92 126.805 31.16C127.245 31.4 127.585 31.7667 127.825 32.26C128.078 32.74 128.205 33.3933 128.205 34.22C128.205 35.0333 128.111 35.6867 127.925 36.18C127.751 36.66 127.485 37.0533 127.125 37.36C126.765 37.6533 126.298 37.9133 125.725 38.14L121.885 39.72C121.551 39.8533 121.305 40 121.145 40.16C120.985 40.32 120.885 40.5333 120.845 40.8C120.805 41.0667 120.785 41.4133 120.785 41.84V42.56H128.205V44.5H118.585ZM134.211 44.5V32.72H130.031V30.74H140.631V32.72H136.471V44.5H134.211ZM142.973 44.5V30.74H152.133V32.66H145.233V36.6H151.193V38.52H145.233V42.58H152.133V44.5H142.973ZM160.282 44.66C159.295 44.66 158.468 44.6 157.802 44.48C157.135 44.3467 156.588 44.1267 156.162 43.82C155.748 43.5133 155.428 43.1 155.202 42.58C154.988 42.0467 154.842 41.3733 154.762 40.56C154.682 39.7467 154.642 38.7667 154.642 37.62C154.642 36.4733 154.682 35.4933 154.762 34.68C154.842 33.8667 154.988 33.2 155.202 32.68C155.428 32.1467 155.748 31.7267 156.162 31.42C156.588 31.1133 157.135 30.9 157.802 30.78C158.468 30.6467 159.295 30.58 160.282 30.58C160.668 30.58 161.062 30.5933 161.462 30.62C161.875 30.6467 162.268 30.6867 162.642 30.74C163.015 30.78 163.335 30.8333 163.602 30.9V32.7C163.268 32.66 162.935 32.6267 162.602 32.6C162.282 32.56 161.968 32.5333 161.662 32.52C161.355 32.5067 161.088 32.5 160.862 32.5C160.128 32.5 159.522 32.5267 159.042 32.58C158.562 32.6333 158.175 32.7533 157.882 32.94C157.602 33.1267 157.388 33.4067 157.242 33.78C157.108 34.14 157.015 34.6333 156.962 35.26C156.922 35.8867 156.902 36.6733 156.902 37.62C156.902 38.5533 156.922 39.34 156.962 39.98C157.015 40.6067 157.108 41.1067 157.242 41.48C157.388 41.84 157.602 42.1133 157.882 42.3C158.175 42.4867 158.562 42.6067 159.042 42.66C159.522 42.7133 160.128 42.74 160.862 42.74C161.302 42.74 161.782 42.72 162.302 42.68C162.835 42.64 163.295 42.5933 163.682 42.54V44.38C163.388 44.4333 163.042 44.48 162.642 44.52C162.255 44.56 161.855 44.5933 161.442 44.62C161.042 44.6467 160.655 44.66 160.282 44.66ZM166.567 44.5V30.74H168.827V36.58H175.187V30.74H177.447V44.5H175.187V38.56H168.827V44.5H166.567Z" fill="#3A3A3A"/>
</svg>
