<svg width="188" height="76" viewBox="0 0 188 76" fill="none" xmlns="http://www.w3.org/2000/svg">
<path fill-rule="evenodd" clip-rule="evenodd" d="M22.0322 14.8408H59.7194C60.4788 14.8408 61.0944 15.4644 61.0944 16.2337V61.0172C61.0944 61.7864 60.4788 62.41 59.7194 62.41H22.0322C21.2728 62.41 20.6572 61.7864 20.6572 61.0172V16.2337C20.6572 15.4644 21.2728 14.8408 22.0322 14.8408ZM30.0843 54.5954H42.1129C45.7221 54.5661 48.446 53.7654 50.2846 52.1933C52.1231 50.6212 53.0424 48.2703 53.0424 45.1406C53.0424 43.4149 52.6285 41.9525 51.8008 40.7533C50.9732 39.5541 49.7859 38.7351 48.2391 38.2964C49.6095 37.7406 50.6475 36.8778 51.3531 35.7078C52.0587 34.5379 52.4114 33.1266 52.4114 31.474C52.4114 28.6076 51.4175 26.4213 49.4297 24.915C47.4419 23.4086 44.5417 22.6555 40.7289 22.6555H30.0843V54.5954ZM37.2282 41.0165H42.235C44.6909 41.0312 45.9189 42.3693 45.9189 45.031C45.9189 46.1863 45.5729 47.082 44.8809 47.7182C44.1889 48.3544 43.1984 48.6725 41.9093 48.6725H37.2282V41.0165ZM37.2282 35.9711V28.6003H40.7289C42.33 28.6003 43.4901 28.8965 44.2092 29.4888C44.9284 30.0811 45.2879 31.0499 45.2879 32.3954C45.2879 33.5654 44.9555 34.4501 44.2906 35.0497C43.6258 35.6493 42.5131 35.9565 40.9527 35.9711H37.2282Z" fill="#FFC927"/>
<path d="M85.34 45V31.24H91.88C92.7867 31.24 93.5133 31.38 94.06 31.66C94.6067 31.9267 95.0067 32.32 95.26 32.84C95.5133 33.3467 95.64 33.9667 95.64 34.7C95.64 35.3133 95.5533 35.84 95.38 36.28C95.22 36.72 94.9667 37.08 94.62 37.36C94.2733 37.6267 93.8267 37.82 93.28 37.94V38.02C93.92 38.14 94.42 38.3467 94.78 38.64C95.1533 38.9333 95.4133 39.3067 95.56 39.76C95.7067 40.2133 95.78 40.7467 95.78 41.36C95.78 41.88 95.72 42.3667 95.6 42.82C95.48 43.26 95.2733 43.64 94.98 43.96C94.7 44.28 94.3067 44.5333 93.8 44.72C93.2933 44.9067 92.6467 45 91.86 45H85.34ZM87.6 43.1H91.18C91.7933 43.1 92.2667 43.04 92.6 42.92C92.9333 42.7867 93.1667 42.5733 93.3 42.28C93.4467 41.9733 93.52 41.5667 93.52 41.06C93.52 40.54 93.4467 40.1333 93.3 39.84C93.1533 39.5333 92.9067 39.32 92.56 39.2C92.2267 39.0667 91.7667 39 91.18 39H87.6V43.1ZM87.6 37.08H91.1C91.6467 37.08 92.08 37.0133 92.4 36.88C92.7333 36.7467 92.98 36.54 93.14 36.26C93.3 35.9667 93.38 35.5933 93.38 35.14C93.38 34.6333 93.3133 34.24 93.18 33.96C93.0467 33.6667 92.82 33.46 92.5 33.34C92.18 33.22 91.7133 33.16 91.1 33.16H87.6V37.08ZM104.394 45.16C103.408 45.16 102.568 45.1 101.874 44.98C101.194 44.8467 100.628 44.6267 100.174 44.32C99.7209 44.0133 99.3676 43.5933 99.1142 43.06C98.8742 42.5267 98.7009 41.86 98.5942 41.06C98.5009 40.2467 98.4542 39.2667 98.4542 38.12C98.4542 36.9733 98.5009 36 98.5942 35.2C98.7009 34.3867 98.8809 33.7133 99.1342 33.18C99.3876 32.6467 99.7409 32.2267 100.194 31.92C100.648 31.6133 101.214 31.4 101.894 31.28C102.588 31.1467 103.421 31.08 104.394 31.08C104.834 31.08 105.314 31.1 105.834 31.14C106.368 31.18 106.894 31.2333 107.414 31.3C107.934 31.3533 108.408 31.42 108.834 31.5V33.3C108.381 33.2333 107.934 33.18 107.494 33.14C107.054 33.1 106.648 33.0667 106.274 33.04C105.914 33.0133 105.614 33 105.374 33C104.574 33 103.901 33.02 103.354 33.06C102.808 33.0867 102.361 33.18 102.014 33.34C101.668 33.5 101.401 33.7667 101.214 34.14C101.028 34.5 100.894 35 100.814 35.64C100.748 36.28 100.714 37.1067 100.714 38.12C100.714 39.0133 100.734 39.7667 100.774 40.38C100.828 40.98 100.928 41.48 101.074 41.88C101.234 42.2667 101.448 42.56 101.714 42.76C101.994 42.96 102.354 43.1 102.794 43.18C103.248 43.26 103.801 43.3 104.454 43.3C104.708 43.3 104.974 43.2933 105.254 43.28C105.548 43.2667 105.821 43.2533 106.074 43.24C106.328 43.2133 106.541 43.1867 106.714 43.16V39.26H104.014V37.38H108.894V44.74C108.441 44.82 107.941 44.8933 107.394 44.96C106.861 45.0133 106.334 45.06 105.814 45.1C105.294 45.14 104.821 45.16 104.394 45.16ZM110.952 45L115.872 31.24H118.832L123.752 45H121.412L120.212 41.6H114.412L113.232 45H110.952ZM115.052 39.68H119.552L117.352 33.42H117.252L115.052 39.68ZM126.024 45V31.24H129.104L133.144 41.24H133.244L137.284 31.24H140.364V45H138.184V34.74H138.104L133.944 45H132.344L128.224 34.74H128.144V45H126.024ZM144.051 45V31.24H146.311V45H144.051ZM149.969 45V31.24H152.309L158.609 40.76H158.689V31.24H160.849V45H158.689L152.209 35.18H152.129V45H149.969ZM170 45.16C169.013 45.16 168.173 45.1 167.48 44.98C166.8 44.8467 166.233 44.6267 165.78 44.32C165.326 44.0133 164.973 43.5933 164.72 43.06C164.48 42.5267 164.306 41.86 164.2 41.06C164.106 40.2467 164.06 39.2667 164.06 38.12C164.06 36.9733 164.106 36 164.2 35.2C164.306 34.3867 164.486 33.7133 164.74 33.18C164.993 32.6467 165.346 32.2267 165.8 31.92C166.253 31.6133 166.82 31.4 167.5 31.28C168.193 31.1467 169.026 31.08 170 31.08C170.44 31.08 170.92 31.1 171.44 31.14C171.973 31.18 172.5 31.2333 173.02 31.3C173.54 31.3533 174.013 31.42 174.44 31.5V33.3C173.986 33.2333 173.54 33.18 173.1 33.14C172.66 33.1 172.253 33.0667 171.88 33.04C171.52 33.0133 171.22 33 170.98 33C170.18 33 169.506 33.02 168.96 33.06C168.413 33.0867 167.966 33.18 167.62 33.34C167.273 33.5 167.006 33.7667 166.82 34.14C166.633 34.5 166.5 35 166.42 35.64C166.353 36.28 166.32 37.1067 166.32 38.12C166.32 39.0133 166.34 39.7667 166.38 40.38C166.433 40.98 166.533 41.48 166.68 41.88C166.84 42.2667 167.053 42.56 167.32 42.76C167.6 42.96 167.96 43.1 168.4 43.18C168.853 43.26 169.406 43.3 170.06 43.3C170.313 43.3 170.58 43.2933 170.86 43.28C171.153 43.2667 171.426 43.2533 171.68 43.24C171.933 43.2133 172.146 43.1867 172.32 43.16V39.26H169.62V37.38H174.5V44.74C174.046 44.82 173.546 44.8933 173 44.96C172.466 45.0133 171.94 45.06 171.42 45.1C170.9 45.14 170.426 45.16 170 45.16Z" fill="#3A3A3A"/>
</svg>
