<svg width="188" height="76" viewBox="0 0 188 76" fill="none" xmlns="http://www.w3.org/2000/svg">
<path fill-rule="evenodd" clip-rule="evenodd" d="M22.0322 14.8408H59.7194C60.4788 14.8408 61.0944 15.4644 61.0944 16.2337V61.0172C61.0944 61.7864 60.4788 62.41 59.7194 62.41H22.0322C21.2728 62.41 20.6572 61.7864 20.6572 61.0172V16.2337C20.6572 15.4644 21.2728 14.8408 22.0322 14.8408ZM30.0843 54.5954H42.1129C45.7221 54.5661 48.446 53.7654 50.2846 52.1933C52.1231 50.6212 53.0424 48.2703 53.0424 45.1406C53.0424 43.4149 52.6285 41.9525 51.8008 40.7533C50.9732 39.5541 49.7859 38.7351 48.2391 38.2964C49.6095 37.7406 50.6475 36.8778 51.3531 35.7078C52.0587 34.5379 52.4114 33.1266 52.4114 31.474C52.4114 28.6076 51.4175 26.4213 49.4297 24.915C47.4419 23.4086 44.5417 22.6555 40.7289 22.6555H30.0843V54.5954ZM37.2282 41.0165H42.235C44.6909 41.0312 45.9189 42.3693 45.9189 45.031C45.9189 46.1863 45.5729 47.082 44.8809 47.7182C44.1889 48.3544 43.1984 48.6725 41.9093 48.6725H37.2282V41.0165ZM37.2282 35.9711V28.6003H40.7289C42.33 28.6003 43.4901 28.8965 44.2092 29.4888C44.9284 30.0811 45.2879 31.0499 45.2879 32.3954C45.2879 33.5654 44.9555 34.4501 44.2906 35.0497C43.6258 35.6493 42.5131 35.9565 40.9527 35.9711H37.2282Z" fill="#FFC927"/>
<path d="M85.3398 45.0001V31.2401H91.8798C92.7865 31.2401 93.5131 31.3801 94.0598 31.6601C94.6065 31.9268 95.0065 32.3201 95.2598 32.8401C95.5131 33.3468 95.6398 33.9668 95.6398 34.7001C95.6398 35.3134 95.5531 35.8401 95.3798 36.2801C95.2198 36.7201 94.9666 37.0801 94.6199 37.3601C94.2732 37.6268 93.8265 37.8201 93.2798 37.9401V38.0201C93.9198 38.1401 94.4198 38.3468 94.7798 38.6401C95.1531 38.9334 95.4131 39.3068 95.5598 39.7601C95.7065 40.2134 95.7798 40.7468 95.7798 41.3601C95.7798 41.8801 95.7198 42.3668 95.5998 42.8201C95.4798 43.2601 95.2732 43.6401 94.9799 43.9601C94.6999 44.2801 94.3066 44.5334 93.7999 44.7201C93.2932 44.9068 92.6465 45.0001 91.8598 45.0001H85.3398ZM87.5998 43.1001H91.1798C91.7931 43.1001 92.2665 43.0401 92.5998 42.9201C92.9331 42.7868 93.1666 42.5734 93.2999 42.2801C93.4466 41.9734 93.5198 41.5668 93.5198 41.0601C93.5198 40.5401 93.4466 40.1334 93.2999 39.8401C93.1532 39.5334 92.9065 39.3201 92.5598 39.2001C92.2265 39.0668 91.7665 39.0001 91.1798 39.0001H87.5998V43.1001ZM87.5998 37.0801H91.0998C91.6465 37.0801 92.0798 37.0134 92.3998 36.8801C92.7331 36.7468 92.9798 36.5401 93.1398 36.2601C93.2998 35.9668 93.3798 35.5934 93.3798 35.1401C93.3798 34.6334 93.3131 34.2401 93.1798 33.9601C93.0465 33.6668 92.8198 33.4601 92.4998 33.3401C92.1798 33.2201 91.7131 33.1601 91.0998 33.1601H87.5998V37.0801ZM104.394 45.1601C103.408 45.1601 102.568 45.1001 101.874 44.9801C101.194 44.8468 100.628 44.6268 100.174 44.3201C99.7208 44.0134 99.3674 43.5934 99.114 43.0601C98.874 42.5268 98.7007 41.8601 98.594 41.0601C98.5007 40.2468 98.454 39.2668 98.454 38.1201C98.454 36.9734 98.5007 36.0001 98.594 35.2001C98.7007 34.3868 98.8807 33.7134 99.134 33.1801C99.3874 32.6468 99.7407 32.2268 100.194 31.9201C100.648 31.6134 101.214 31.4001 101.894 31.2801C102.588 31.1468 103.421 31.0801 104.394 31.0801C104.834 31.0801 105.314 31.1001 105.834 31.1401C106.368 31.1801 106.894 31.2334 107.414 31.3001C107.934 31.3534 108.408 31.4201 108.834 31.5001V33.3001C108.381 33.2334 107.934 33.1801 107.494 33.1401C107.054 33.1001 106.648 33.0668 106.274 33.0401C105.914 33.0134 105.614 33.0001 105.374 33.0001C104.574 33.0001 103.901 33.0201 103.354 33.0601C102.808 33.0868 102.361 33.1801 102.014 33.3401C101.668 33.5001 101.401 33.7668 101.214 34.1401C101.028 34.5001 100.894 35.0001 100.814 35.6401C100.748 36.2801 100.714 37.1068 100.714 38.1201C100.714 39.0134 100.734 39.7668 100.774 40.3801C100.828 40.9801 100.928 41.4801 101.074 41.8801C101.234 42.2668 101.448 42.5601 101.714 42.7601C101.994 42.9601 102.354 43.1001 102.794 43.1801C103.248 43.2601 103.801 43.3001 104.454 43.3001C104.708 43.3001 104.974 43.2934 105.254 43.2801C105.548 43.2668 105.821 43.2534 106.074 43.2401C106.328 43.2134 106.541 43.1868 106.714 43.1601V39.2601H104.014V37.3801H108.894V44.7401C108.441 44.8201 107.941 44.8934 107.394 44.9601C106.861 45.0134 106.334 45.0601 105.814 45.1001C105.294 45.1401 104.821 45.1601 104.394 45.1601ZM110.952 45.0001L115.872 31.2401H118.832L123.752 45.0001H121.412L120.212 41.6001H114.412L113.232 45.0001H110.952ZM115.052 39.6801H119.552L117.352 33.4201H117.252L115.052 39.6801ZM126.024 45.0001V31.2401H129.104L133.144 41.2401H133.244L137.284 31.2401H140.364V45.0001H138.184V34.7401H138.104L133.944 45.0001H132.344L128.224 34.7401H128.144V45.0001H126.024ZM144.051 45.0001V31.2401H146.311V45.0001H144.051ZM149.969 45.0001V31.2401H152.309L158.609 40.7601H158.689V31.2401H160.849V45.0001H158.689L152.209 35.1801H152.129V45.0001H149.969ZM170 45.1601C169.013 45.1601 168.173 45.1001 167.48 44.9801C166.8 44.8468 166.233 44.6268 165.78 44.3201C165.326 44.0134 164.973 43.5934 164.72 43.0601C164.48 42.5268 164.306 41.8601 164.2 41.0601C164.106 40.2468 164.06 39.2668 164.06 38.1201C164.06 36.9734 164.106 36.0001 164.2 35.2001C164.306 34.3868 164.486 33.7134 164.74 33.1801C164.993 32.6468 165.346 32.2268 165.8 31.9201C166.253 31.6134 166.82 31.4001 167.5 31.2801C168.193 31.1468 169.026 31.0801 170 31.0801C170.44 31.0801 170.92 31.1001 171.44 31.1401C171.973 31.1801 172.5 31.2334 173.02 31.3001C173.54 31.3534 174.013 31.4201 174.44 31.5001V33.3001C173.986 33.2334 173.54 33.1801 173.1 33.1401C172.66 33.1001 172.253 33.0668 171.88 33.0401C171.52 33.0134 171.22 33.0001 170.98 33.0001C170.18 33.0001 169.506 33.0201 168.96 33.0601C168.413 33.0868 167.966 33.1801 167.62 33.3401C167.273 33.5001 167.006 33.7668 166.82 34.1401C166.633 34.5001 166.5 35.0001 166.42 35.6401C166.353 36.2801 166.32 37.1068 166.32 38.1201C166.32 39.0134 166.34 39.7668 166.38 40.3801C166.433 40.9801 166.533 41.4801 166.68 41.8801C166.84 42.2668 167.053 42.5601 167.32 42.7601C167.6 42.9601 167.96 43.1001 168.4 43.1801C168.853 43.2601 169.406 43.3001 170.06 43.3001C170.313 43.3001 170.58 43.2934 170.86 43.2801C171.153 43.2668 171.426 43.2534 171.68 43.2401C171.933 43.2134 172.146 43.1868 172.32 43.1601V39.2601H169.62V37.3801H174.5V44.7401C174.046 44.8201 173.546 44.8934 173 44.9601C172.466 45.0134 171.94 45.0601 171.42 45.1001C170.9 45.1401 170.426 45.1601 170 45.1601Z" fill="#3A3A3A"/>
</svg>
