<svg width="188" height="76" viewBox="0 0 188 76" fill="none" xmlns="http://www.w3.org/2000/svg">
<path d="M61.8235 37.3779H73.8296V51.8314C72.099 53.1163 70.2594 54.0523 68.3051 54.6279C66.3509 55.2093 64.3107 55.5 62.1788 55.5C59.3993 55.5 56.8662 55.0581 54.5911 54.1744C52.3102 53.2907 50.3617 52.0698 48.7398 50.5058C47.118 48.9477 45.8686 47.0988 44.9861 44.9593C44.1035 42.8198 43.668 40.4942 43.668 37.9884C43.668 35.436 44.0864 33.0872 44.9174 30.9477C45.7541 28.8081 46.9461 26.9651 48.4991 25.4128C50.0522 23.8605 51.9262 22.657 54.1269 21.7907C56.3275 20.9302 58.7861 20.5 61.5082 20.5C62.9123 20.5 64.2362 20.6163 65.4683 20.8547C66.7062 21.0872 67.8409 21.4128 68.8839 21.8198C69.9269 22.2267 70.8783 22.7151 71.7436 23.2791C72.6089 23.843 73.3825 24.4535 74.0591 25.1105L71.7895 28.6105C71.4342 29.157 70.9757 29.4942 70.4084 29.6221C69.8468 29.75 69.2392 29.6047 68.5917 29.1977C67.9727 28.8198 67.3882 28.4942 66.8437 28.2209C66.2936 27.9477 65.7376 27.7267 65.1646 27.5523C64.5915 27.3779 63.9898 27.2558 63.3594 27.1744C62.7232 27.093 62.0183 27.0581 61.2275 27.0581C59.7604 27.0581 58.4365 27.3198 57.2674 27.843C56.0926 28.3663 55.0954 29.1105 54.2644 30.064C53.4392 31.0174 52.8031 32.1686 52.3503 33.5058C51.9033 34.843 51.6798 36.3372 51.6798 37.9826C51.6798 39.8023 51.9262 41.4128 52.4191 42.8256C52.912 44.2384 53.6111 45.4244 54.5166 46.4012C55.4221 47.3779 56.4995 48.1105 57.7603 48.6221C59.0211 49.1337 60.4137 49.3837 61.9438 49.3837C62.8837 49.3837 63.7376 49.2907 64.5055 49.0988C65.2677 48.9128 66.0127 48.6628 66.7406 48.3488V43.157H63.3995C62.9066 43.157 62.5169 43.0233 62.2418 42.7558C61.961 42.4884 61.8235 42.1512 61.8235 41.7442V37.3779Z" fill="#EC1C24"/>
<path d="M29.1517 21.3018C31.4784 21.3018 33.4613 21.5227 35.1003 21.9587C36.7337 22.3948 38.0689 23.0168 39.1005 23.8134C40.1321 24.6099 40.8885 25.5808 41.3585 26.7262C41.8284 27.8715 42.0634 29.1448 42.0634 30.5518C42.0634 31.3192 41.9545 32.0575 41.7367 32.7727C41.5189 33.4878 41.1808 34.1506 40.7166 34.7668C40.2524 35.3832 39.6622 35.9529 38.9343 36.4704C38.2065 36.9878 37.3354 37.4355 36.321 37.8075C38.5446 38.3541 40.1837 39.2378 41.2496 40.4587C42.3155 41.6797 42.8485 43.2611 42.8485 45.2029C42.8485 46.6564 42.5734 48.0111 42.0175 49.2611C41.4616 50.5111 40.6479 51.6041 39.5761 52.5343C38.5045 53.4646 37.1806 54.1913 35.6104 54.7146C34.0344 55.2378 32.2406 55.4994 30.2176 55.4994H16.75V21.3018H29.1517ZM24.5726 27.2378V35.6855H28.6473C29.5127 35.6855 30.2921 35.6215 30.9856 35.4994C31.679 35.3773 32.2693 35.1564 32.7564 34.8425C33.2435 34.5285 33.6103 34.0982 33.8682 33.5518C34.1204 33.0053 34.2521 32.3134 34.2521 31.4878C34.2521 30.6739 34.149 29.9994 33.9542 29.4587C33.7536 28.918 33.4441 28.482 33.0258 28.1564C32.6074 27.8308 32.0802 27.5925 31.4383 27.4529C30.7964 27.3134 30.04 27.2436 29.1574 27.2436H24.5726V27.2378ZM30.0801 49.5168C31.1116 49.5168 31.9598 49.3832 32.6131 49.1157C33.2664 48.8482 33.7822 48.5053 34.149 48.0808C34.5215 47.6564 34.7737 47.1797 34.9112 46.6506C35.0488 46.1215 35.1175 45.5808 35.1175 45.0285C35.1175 44.4006 35.0373 43.8367 34.8768 43.3367C34.7163 42.8367 34.4356 42.4122 34.0458 42.0692C33.6504 41.7262 33.1347 41.4587 32.4813 41.2727C31.8337 41.0867 31.0142 40.9936 30.0285 40.9936H24.5669V49.5168H30.0801Z" fill="#EC1C24"/>
<path d="M92.906 44V31.616H98.792C99.608 31.616 100.262 31.742 100.754 31.994C101.246 32.234 101.606 32.588 101.834 33.056C102.062 33.512 102.176 34.07 102.176 34.73C102.176 35.282 102.098 35.756 101.942 36.152C101.798 36.548 101.57 36.872 101.258 37.124C100.946 37.364 100.544 37.538 100.052 37.646V37.718C100.628 37.826 101.078 38.012 101.402 38.276C101.738 38.54 101.972 38.876 102.104 39.284C102.236 39.692 102.302 40.172 102.302 40.724C102.302 41.192 102.248 41.63 102.14 42.038C102.032 42.434 101.846 42.776 101.582 43.064C101.33 43.352 100.976 43.58 100.52 43.748C100.064 43.916 99.482 44 98.774 44H92.906ZM94.94 42.29H98.162C98.714 42.29 99.14 42.236 99.44 42.128C99.74 42.008 99.95 41.816 100.07 41.552C100.202 41.276 100.268 40.91 100.268 40.454C100.268 39.986 100.202 39.62 100.07 39.356C99.938 39.08 99.716 38.888 99.404 38.78C99.104 38.66 98.69 38.6 98.162 38.6H94.94V42.29ZM94.94 36.872H98.09C98.582 36.872 98.972 36.812 99.26 36.692C99.56 36.572 99.782 36.386 99.926 36.134C100.07 35.87 100.142 35.534 100.142 35.126C100.142 34.67 100.082 34.316 99.962 34.064C99.842 33.8 99.638 33.614 99.35 33.506C99.062 33.398 98.642 33.344 98.09 33.344H94.94V36.872ZM109.857 44.144C108.873 44.144 108.063 44.09 107.427 43.982C106.791 43.862 106.287 43.664 105.915 43.388C105.543 43.112 105.273 42.734 105.105 42.254C104.937 41.774 104.829 41.174 104.781 40.454C104.733 39.722 104.709 38.84 104.709 37.808C104.709 36.776 104.733 35.9 104.781 35.18C104.829 34.448 104.937 33.842 105.105 33.362C105.273 32.882 105.543 32.504 105.915 32.228C106.287 31.952 106.791 31.76 107.427 31.652C108.063 31.532 108.873 31.472 109.857 31.472C110.841 31.472 111.651 31.532 112.287 31.652C112.935 31.76 113.445 31.952 113.817 32.228C114.189 32.504 114.459 32.882 114.627 33.362C114.807 33.842 114.921 34.448 114.969 35.18C115.017 35.9 115.041 36.776 115.041 37.808C115.041 38.84 115.017 39.722 114.969 40.454C114.921 41.174 114.807 41.774 114.627 42.254C114.459 42.734 114.189 43.112 113.817 43.388C113.445 43.664 112.935 43.862 112.287 43.982C111.651 44.09 110.841 44.144 109.857 44.144ZM109.857 42.416C110.457 42.416 110.949 42.398 111.333 42.362C111.729 42.326 112.035 42.236 112.251 42.092C112.479 41.948 112.647 41.714 112.755 41.39C112.863 41.054 112.929 40.604 112.953 40.04C112.989 39.464 113.007 38.72 113.007 37.808C113.007 36.896 112.989 36.158 112.953 35.594C112.929 35.018 112.863 34.568 112.755 34.244C112.647 33.908 112.479 33.668 112.251 33.524C112.035 33.38 111.729 33.29 111.333 33.254C110.949 33.218 110.457 33.2 109.857 33.2C109.269 33.2 108.783 33.218 108.399 33.254C108.015 33.29 107.709 33.38 107.481 33.524C107.253 33.668 107.085 33.908 106.977 34.244C106.881 34.568 106.815 35.018 106.779 35.594C106.755 36.158 106.743 36.896 106.743 37.808C106.743 38.72 106.755 39.464 106.779 40.04C106.815 40.604 106.881 41.054 106.977 41.39C107.085 41.714 107.253 41.948 107.481 42.092C107.709 42.236 108.015 42.326 108.399 42.362C108.783 42.398 109.269 42.416 109.857 42.416ZM122.671 44.144C121.687 44.144 120.877 44.09 120.241 43.982C119.605 43.862 119.101 43.664 118.729 43.388C118.357 43.112 118.087 42.734 117.919 42.254C117.751 41.774 117.643 41.174 117.595 40.454C117.547 39.722 117.523 38.84 117.523 37.808C117.523 36.776 117.547 35.9 117.595 35.18C117.643 34.448 117.751 33.842 117.919 33.362C118.087 32.882 118.357 32.504 118.729 32.228C119.101 31.952 119.605 31.76 120.241 31.652C120.877 31.532 121.687 31.472 122.671 31.472C123.655 31.472 124.465 31.532 125.101 31.652C125.749 31.76 126.259 31.952 126.631 32.228C127.003 32.504 127.273 32.882 127.441 33.362C127.621 33.842 127.735 34.448 127.783 35.18C127.831 35.9 127.855 36.776 127.855 37.808C127.855 38.84 127.831 39.722 127.783 40.454C127.735 41.174 127.621 41.774 127.441 42.254C127.273 42.734 127.003 43.112 126.631 43.388C126.259 43.664 125.749 43.862 125.101 43.982C124.465 44.09 123.655 44.144 122.671 44.144ZM122.671 42.416C123.271 42.416 123.763 42.398 124.147 42.362C124.543 42.326 124.849 42.236 125.065 42.092C125.293 41.948 125.461 41.714 125.569 41.39C125.677 41.054 125.743 40.604 125.767 40.04C125.803 39.464 125.821 38.72 125.821 37.808C125.821 36.896 125.803 36.158 125.767 35.594C125.743 35.018 125.677 34.568 125.569 34.244C125.461 33.908 125.293 33.668 125.065 33.524C124.849 33.38 124.543 33.29 124.147 33.254C123.763 33.218 123.271 33.2 122.671 33.2C122.083 33.2 121.597 33.218 121.213 33.254C120.829 33.29 120.523 33.38 120.295 33.524C120.067 33.668 119.899 33.908 119.791 34.244C119.695 34.568 119.629 35.018 119.593 35.594C119.569 36.158 119.557 36.896 119.557 37.808C119.557 38.72 119.569 39.464 119.593 40.04C119.629 40.604 119.695 41.054 119.791 41.39C119.899 41.714 120.067 41.948 120.295 42.092C120.523 42.236 120.829 42.326 121.213 42.362C121.597 42.398 122.083 42.416 122.671 42.416ZM130.752 44V31.616H133.524L137.16 40.616H137.25L140.886 31.616H143.658V44H141.696V34.766H141.624L137.88 44H136.44L132.732 34.766H132.66V44H130.752ZM146.976 44V31.616H149.01V44H146.976ZM152.302 44V31.616H154.408L160.078 40.184H160.15V31.616H162.094V44H160.15L154.318 35.162H154.246V44H152.302ZM170.33 44.144C169.442 44.144 168.686 44.09 168.062 43.982C167.45 43.862 166.94 43.664 166.532 43.388C166.124 43.112 165.806 42.734 165.578 42.254C165.362 41.774 165.206 41.174 165.11 40.454C165.026 39.722 164.984 38.84 164.984 37.808C164.984 36.776 165.026 35.9 165.11 35.18C165.206 34.448 165.368 33.842 165.596 33.362C165.824 32.882 166.142 32.504 166.55 32.228C166.958 31.952 167.468 31.76 168.08 31.652C168.704 31.532 169.454 31.472 170.33 31.472C170.726 31.472 171.158 31.49 171.626 31.526C172.106 31.562 172.58 31.61 173.048 31.67C173.516 31.718 173.942 31.778 174.326 31.85V33.47C173.918 33.41 173.516 33.362 173.12 33.326C172.724 33.29 172.358 33.26 172.022 33.236C171.698 33.212 171.428 33.2 171.212 33.2C170.492 33.2 169.886 33.218 169.394 33.254C168.902 33.278 168.5 33.362 168.188 33.506C167.876 33.65 167.636 33.89 167.468 34.226C167.3 34.55 167.18 35 167.108 35.576C167.048 36.152 167.018 36.896 167.018 37.808C167.018 38.612 167.036 39.29 167.072 39.842C167.12 40.382 167.21 40.832 167.342 41.192C167.486 41.54 167.678 41.804 167.918 41.984C168.17 42.164 168.494 42.29 168.89 42.362C169.298 42.434 169.796 42.47 170.384 42.47C170.612 42.47 170.852 42.464 171.104 42.452C171.368 42.44 171.614 42.428 171.842 42.416C172.07 42.392 172.262 42.368 172.418 42.344V38.834H169.988V37.142H174.38V43.766C173.972 43.838 173.522 43.904 173.03 43.964C172.55 44.012 172.076 44.054 171.608 44.09C171.14 44.126 170.714 44.144 170.33 44.144Z" fill="#3A3A3A"/>
</svg>
