<svg width="188" height="76" viewBox="0 0 188 76" fill="none" xmlns="http://www.w3.org/2000/svg">
<mask id="mask0_551_44616" style="mask-type:alpha" maskUnits="userSpaceOnUse" x="17" y="14" width="43" height="48">
<path d="M17.25 14.25H59.6724V61.75H17.25V14.25Z" fill="white"/>
</mask>
<g mask="url(#mask0_551_44616)">
<path fill-rule="evenodd" clip-rule="evenodd" d="M59.078 32.5778C57.6541 26.145 53.176 20.6356 47.5305 17.2677C43.0983 14.7507 37.8785 13.8951 32.8282 14.3795C27.2789 14.9001 22.0453 17.5665 18.1946 21.5094C17.4804 22.1703 17.0042 23.1933 17.3842 24.153C17.8146 25.7284 20.1911 26.3532 21.2166 24.9815C24.2477 21.7675 28.3319 19.5176 32.7641 18.9743C37.8465 18.3677 43.1854 19.4542 47.2651 22.6094C52.6265 26.6068 55.7722 33.329 54.9709 39.9747C54.5679 45.312 51.4911 50.1467 47.2787 53.3925C43.2128 56.5161 37.8785 57.7248 32.8145 57.0548C28.8081 56.5703 25.0261 54.7188 22.1552 51.9258C21.3539 51.2738 20.6763 50.0968 19.463 50.3595C17.6223 50.4636 16.6974 52.9126 17.952 54.2072C21.2578 57.7564 25.6855 60.3911 30.5114 61.2875C36.2715 62.324 42.4663 61.6813 47.5808 58.7207C51.569 56.2851 54.9845 52.8629 57.1595 48.7387C59.719 43.7999 60.2547 37.9647 59.078 32.5778Z" fill="#5BF495"/>
<path fill-rule="evenodd" clip-rule="evenodd" d="M33.2954 25.5076C33.0756 23.2804 29.3302 23.0089 28.8908 25.2497C28.6618 28.3459 28.8266 31.4696 28.8036 34.5797C28.7487 35.7611 29.7012 36.9745 30.9373 36.9925C33.2954 37.0194 35.6672 36.8023 38.0159 37.0695C39.8796 37.5178 41.354 39.1566 41.7341 40.9988C42.2424 43.2855 40.9282 45.7975 38.7532 46.7028C36.093 47.1014 33.3733 46.8522 30.6993 47.1332C29.9666 47.2189 29.2706 47.6898 29.0005 48.3823C28.2635 49.7404 29.486 51.6099 31.0244 51.5472C33.2816 51.6014 35.5437 51.6734 37.8055 51.6236C41.1708 51.5106 44.2158 49.3283 45.7816 46.4449C46.8165 44.4799 46.9493 42.1576 46.5967 39.9985C45.8685 36.2592 42.5813 33.0902 38.7306 32.6332C36.8851 32.3343 35.0444 32.8052 33.3183 33.4207C33.3275 30.786 33.4282 28.1424 33.2954 25.5076Z" fill="#5BF495"/>
<path fill-rule="evenodd" clip-rule="evenodd" d="M31.4824 44.1431C33.0118 45.0848 35.2004 43.5955 34.9714 41.8669C34.8889 40.0872 32.5491 39.078 31.1483 40.1868C29.77 41.1374 29.9716 43.4281 31.4824 44.1431Z" fill="#5BF495"/>
</g>
<path d="M82.34 44.5V30.74H88.88C89.7867 30.74 90.5133 30.88 91.06 31.16C91.6067 31.4267 92.0067 31.82 92.26 32.34C92.5133 32.8467 92.64 33.4667 92.64 34.2C92.64 34.8133 92.5533 35.34 92.38 35.78C92.22 36.22 91.9667 36.58 91.62 36.86C91.2733 37.1267 90.8267 37.32 90.28 37.44V37.52C90.92 37.64 91.42 37.8467 91.78 38.14C92.1533 38.4333 92.4133 38.8067 92.56 39.26C92.7067 39.7133 92.78 40.2467 92.78 40.86C92.78 41.38 92.72 41.8667 92.6 42.32C92.48 42.76 92.2733 43.14 91.98 43.46C91.7 43.78 91.3067 44.0333 90.8 44.22C90.2933 44.4067 89.6467 44.5 88.86 44.5H82.34ZM84.6 42.6H88.18C88.7933 42.6 89.2667 42.54 89.6 42.42C89.9333 42.2867 90.1667 42.0733 90.3 41.78C90.4467 41.4733 90.52 41.0667 90.52 40.56C90.52 40.04 90.4467 39.6333 90.3 39.34C90.1533 39.0333 89.9067 38.82 89.56 38.7C89.2267 38.5667 88.7667 38.5 88.18 38.5H84.6V42.6ZM84.6 36.58H88.1C88.6467 36.58 89.08 36.5133 89.4 36.38C89.7333 36.2467 89.98 36.04 90.14 35.76C90.3 35.4667 90.38 35.0933 90.38 34.64C90.38 34.1333 90.3133 33.74 90.18 33.46C90.0467 33.1667 89.82 32.96 89.5 32.84C89.18 32.72 88.7133 32.66 88.1 32.66H84.6V36.58ZM101.174 44.66C100.081 44.66 99.1809 44.6 98.4742 44.48C97.7676 44.3467 97.2076 44.1267 96.7942 43.82C96.3809 43.5133 96.0809 43.0933 95.8942 42.56C95.7076 42.0267 95.5876 41.36 95.5342 40.56C95.4809 39.7467 95.4542 38.7667 95.4542 37.62C95.4542 36.4733 95.4809 35.5 95.5342 34.7C95.5876 33.8867 95.7076 33.2133 95.8942 32.68C96.0809 32.1467 96.3809 31.7267 96.7942 31.42C97.2076 31.1133 97.7676 30.9 98.4742 30.78C99.1809 30.6467 100.081 30.58 101.174 30.58C102.268 30.58 103.168 30.6467 103.874 30.78C104.594 30.9 105.161 31.1133 105.574 31.42C105.988 31.7267 106.288 32.1467 106.474 32.68C106.674 33.2133 106.801 33.8867 106.854 34.7C106.908 35.5 106.934 36.4733 106.934 37.62C106.934 38.7667 106.908 39.7467 106.854 40.56C106.801 41.36 106.674 42.0267 106.474 42.56C106.288 43.0933 105.988 43.5133 105.574 43.82C105.161 44.1267 104.594 44.3467 103.874 44.48C103.168 44.6 102.268 44.66 101.174 44.66ZM101.174 42.74C101.841 42.74 102.388 42.72 102.814 42.68C103.254 42.64 103.594 42.54 103.834 42.38C104.088 42.22 104.274 41.96 104.394 41.6C104.514 41.2267 104.588 40.7267 104.614 40.1C104.654 39.46 104.674 38.6333 104.674 37.62C104.674 36.6067 104.654 35.7867 104.614 35.16C104.588 34.52 104.514 34.02 104.394 33.66C104.274 33.2867 104.088 33.02 103.834 32.86C103.594 32.7 103.254 32.6 102.814 32.56C102.388 32.52 101.841 32.5 101.174 32.5C100.521 32.5 99.9809 32.52 99.5542 32.56C99.1276 32.6 98.7876 32.7 98.5342 32.86C98.2809 33.02 98.0942 33.2867 97.9742 33.66C97.8676 34.02 97.7942 34.52 97.7542 35.16C97.7276 35.7867 97.7142 36.6067 97.7142 37.62C97.7142 38.6333 97.7276 39.46 97.7542 40.1C97.7942 40.7267 97.8676 41.2267 97.9742 41.6C98.0942 41.96 98.2809 42.22 98.5342 42.38C98.7876 42.54 99.1276 42.64 99.5542 42.68C99.9809 42.72 100.521 42.74 101.174 42.74ZM115.413 44.66C114.319 44.66 113.419 44.6 112.713 44.48C112.006 44.3467 111.446 44.1267 111.033 43.82C110.619 43.5133 110.319 43.0933 110.133 42.56C109.946 42.0267 109.826 41.36 109.773 40.56C109.719 39.7467 109.693 38.7667 109.693 37.62C109.693 36.4733 109.719 35.5 109.773 34.7C109.826 33.8867 109.946 33.2133 110.133 32.68C110.319 32.1467 110.619 31.7267 111.033 31.42C111.446 31.1133 112.006 30.9 112.713 30.78C113.419 30.6467 114.319 30.58 115.413 30.58C116.506 30.58 117.406 30.6467 118.113 30.78C118.833 30.9 119.399 31.1133 119.813 31.42C120.226 31.7267 120.526 32.1467 120.713 32.68C120.913 33.2133 121.039 33.8867 121.093 34.7C121.146 35.5 121.173 36.4733 121.173 37.62C121.173 38.7667 121.146 39.7467 121.093 40.56C121.039 41.36 120.913 42.0267 120.713 42.56C120.526 43.0933 120.226 43.5133 119.813 43.82C119.399 44.1267 118.833 44.3467 118.113 44.48C117.406 44.6 116.506 44.66 115.413 44.66ZM115.413 42.74C116.079 42.74 116.626 42.72 117.053 42.68C117.493 42.64 117.833 42.54 118.073 42.38C118.326 42.22 118.513 41.96 118.633 41.6C118.753 41.2267 118.826 40.7267 118.853 40.1C118.893 39.46 118.913 38.6333 118.913 37.62C118.913 36.6067 118.893 35.7867 118.853 35.16C118.826 34.52 118.753 34.02 118.633 33.66C118.513 33.2867 118.326 33.02 118.073 32.86C117.833 32.7 117.493 32.6 117.053 32.56C116.626 32.52 116.079 32.5 115.413 32.5C114.759 32.5 114.219 32.52 113.793 32.56C113.366 32.6 113.026 32.7 112.773 32.86C112.519 33.02 112.333 33.2867 112.213 33.66C112.106 34.02 112.033 34.52 111.993 35.16C111.966 35.7867 111.953 36.6067 111.953 37.62C111.953 38.6333 111.966 39.46 111.993 40.1C112.033 40.7267 112.106 41.2267 112.213 41.6C112.333 41.96 112.519 42.22 112.773 42.38C113.026 42.54 113.366 42.64 113.793 42.68C114.219 42.72 114.759 42.74 115.413 42.74ZM129.651 44.66C128.557 44.66 127.657 44.6 126.951 44.48C126.244 44.3467 125.684 44.1267 125.271 43.82C124.857 43.5133 124.557 43.0933 124.371 42.56C124.184 42.0267 124.064 41.36 124.011 40.56C123.957 39.7467 123.931 38.7667 123.931 37.62C123.931 36.4733 123.957 35.5 124.011 34.7C124.064 33.8867 124.184 33.2133 124.371 32.68C124.557 32.1467 124.857 31.7267 125.271 31.42C125.684 31.1133 126.244 30.9 126.951 30.78C127.657 30.6467 128.557 30.58 129.651 30.58C130.744 30.58 131.644 30.6467 132.351 30.78C133.071 30.9 133.637 31.1133 134.051 31.42C134.464 31.7267 134.764 32.1467 134.951 32.68C135.151 33.2133 135.277 33.8867 135.331 34.7C135.384 35.5 135.411 36.4733 135.411 37.62C135.411 38.7667 135.384 39.7467 135.331 40.56C135.277 41.36 135.151 42.0267 134.951 42.56C134.764 43.0933 134.464 43.5133 134.051 43.82C133.637 44.1267 133.071 44.3467 132.351 44.48C131.644 44.6 130.744 44.66 129.651 44.66ZM129.651 42.74C130.317 42.74 130.864 42.72 131.291 42.68C131.731 42.64 132.071 42.54 132.311 42.38C132.564 42.22 132.751 41.96 132.871 41.6C132.991 41.2267 133.064 40.7267 133.091 40.1C133.131 39.46 133.151 38.6333 133.151 37.62C133.151 36.6067 133.131 35.7867 133.091 35.16C133.064 34.52 132.991 34.02 132.871 33.66C132.751 33.2867 132.564 33.02 132.311 32.86C132.071 32.7 131.731 32.6 131.291 32.56C130.864 32.52 130.317 32.5 129.651 32.5C128.997 32.5 128.457 32.52 128.031 32.56C127.604 32.6 127.264 32.7 127.011 32.86C126.757 33.02 126.571 33.2867 126.451 33.66C126.344 34.02 126.271 34.52 126.231 35.16C126.204 35.7867 126.191 36.6067 126.191 37.62C126.191 38.6333 126.204 39.46 126.231 40.1C126.271 40.7267 126.344 41.2267 126.451 41.6C126.571 41.96 126.757 42.22 127.011 42.38C127.264 42.54 127.604 42.64 128.031 42.68C128.457 42.72 128.997 42.74 129.651 42.74ZM138.629 44.5V30.74H140.969L147.269 40.26H147.349V30.74H149.509V44.5H147.349L140.869 34.68H140.789V44.5H138.629ZM158.66 44.66C157.673 44.66 156.833 44.6 156.14 44.48C155.46 44.3467 154.893 44.1267 154.44 43.82C153.987 43.5133 153.633 43.0933 153.38 42.56C153.14 42.0267 152.967 41.36 152.86 40.56C152.767 39.7467 152.72 38.7667 152.72 37.62C152.72 36.4733 152.767 35.5 152.86 34.7C152.967 33.8867 153.147 33.2133 153.4 32.68C153.653 32.1467 154.007 31.7267 154.46 31.42C154.913 31.1133 155.48 30.9 156.16 30.78C156.853 30.6467 157.687 30.58 158.66 30.58C159.1 30.58 159.58 30.6 160.1 30.64C160.633 30.68 161.16 30.7333 161.68 30.8C162.2 30.8533 162.673 30.92 163.1 31V32.8C162.647 32.7333 162.2 32.68 161.76 32.64C161.32 32.6 160.913 32.5667 160.54 32.54C160.18 32.5133 159.88 32.5 159.64 32.5C158.84 32.5 158.167 32.52 157.62 32.56C157.073 32.5867 156.627 32.68 156.28 32.84C155.933 33 155.667 33.2667 155.48 33.64C155.293 34 155.16 34.5 155.08 35.14C155.013 35.78 154.98 36.6067 154.98 37.62C154.98 38.5133 155 39.2667 155.04 39.88C155.093 40.48 155.193 40.98 155.34 41.38C155.5 41.7667 155.713 42.06 155.98 42.26C156.26 42.46 156.62 42.6 157.06 42.68C157.513 42.76 158.067 42.8 158.72 42.8C158.973 42.8 159.24 42.7933 159.52 42.78C159.813 42.7667 160.087 42.7533 160.34 42.74C160.593 42.7133 160.807 42.6867 160.98 42.66V38.76H158.28V36.88H163.16V44.24C162.707 44.32 162.207 44.3933 161.66 44.46C161.127 44.5133 160.6 44.56 160.08 44.6C159.56 44.64 159.087 44.66 158.66 44.66ZM171.877 44.66C170.784 44.66 169.884 44.6 169.177 44.48C168.471 44.3467 167.911 44.1267 167.497 43.82C167.084 43.5133 166.784 43.0933 166.597 42.56C166.411 42.0267 166.291 41.36 166.237 40.56C166.184 39.7467 166.157 38.7667 166.157 37.62C166.157 36.4733 166.184 35.5 166.237 34.7C166.291 33.8867 166.411 33.2133 166.597 32.68C166.784 32.1467 167.084 31.7267 167.497 31.42C167.911 31.1133 168.471 30.9 169.177 30.78C169.884 30.6467 170.784 30.58 171.877 30.58C172.971 30.58 173.871 30.6467 174.577 30.78C175.297 30.9 175.864 31.1133 176.277 31.42C176.691 31.7267 176.991 32.1467 177.177 32.68C177.377 33.2133 177.504 33.8867 177.557 34.7C177.611 35.5 177.637 36.4733 177.637 37.62C177.637 38.7667 177.611 39.7467 177.557 40.56C177.504 41.36 177.377 42.0267 177.177 42.56C176.991 43.0933 176.691 43.5133 176.277 43.82C175.864 44.1267 175.297 44.3467 174.577 44.48C173.871 44.6 172.971 44.66 171.877 44.66ZM171.877 42.74C172.544 42.74 173.091 42.72 173.517 42.68C173.957 42.64 174.297 42.54 174.537 42.38C174.791 42.22 174.977 41.96 175.097 41.6C175.217 41.2267 175.291 40.7267 175.317 40.1C175.357 39.46 175.377 38.6333 175.377 37.62C175.377 36.6067 175.357 35.7867 175.317 35.16C175.291 34.52 175.217 34.02 175.097 33.66C174.977 33.2867 174.791 33.02 174.537 32.86C174.297 32.7 173.957 32.6 173.517 32.56C173.091 32.52 172.544 32.5 171.877 32.5C171.224 32.5 170.684 32.52 170.257 32.56C169.831 32.6 169.491 32.7 169.237 32.86C168.984 33.02 168.797 33.2867 168.677 33.66C168.571 34.02 168.497 34.52 168.457 35.16C168.431 35.7867 168.417 36.6067 168.417 37.62C168.417 38.6333 168.431 39.46 168.457 40.1C168.497 40.7267 168.571 41.2267 168.677 41.6C168.797 41.96 168.984 42.22 169.237 42.38C169.491 42.54 169.831 42.64 170.257 42.68C170.684 42.72 171.224 42.74 171.877 42.74Z" fill="#3A3A3A"/>
</svg>
