<svg width="188" height="76" viewBox="0 0 188 76" fill="none" xmlns="http://www.w3.org/2000/svg">
<path d="M68.4993 60.5C80.9253 60.5 90.9987 50.7062 90.9987 38.6249C90.9987 26.5438 80.9253 16.75 68.4993 16.75C56.0732 16.75 46 26.5438 46 38.6249C46 50.7062 56.0732 60.5 68.4993 60.5Z" fill="url(#paint0_linear_551_44560)"/>
<path fill-rule="evenodd" clip-rule="evenodd" d="M66.8411 47.338H69.83C69.9453 47.338 70.0389 47.249 70.0389 47.1393V34.0457H72.1267C73.5277 31.6121 76.0276 30.6963 76.0276 30.6963H61.5225C61.5225 30.6963 63.6928 31.3505 64.4895 34.0457H66.6322V47.1393C66.6322 47.2492 66.7258 47.338 66.8411 47.338Z" fill="#F7F6F6"/>
<path fill-rule="evenodd" clip-rule="evenodd" d="M83.3344 35.1973L84.7629 32.5807C84.7629 32.5807 82.8399 30.749 79.4335 30.749C74.4885 30.749 71.7413 34.4647 71.5767 39.3316C71.4171 44.0938 74.8182 47.4954 79.1588 47.5479C83.4992 47.6002 85.4222 45.5592 85.4222 45.5592V38.2013C85.4222 38.0443 85.2904 37.9134 85.1256 37.9134L80.2301 37.8192C80.0597 37.8141 79.9225 37.945 79.9225 38.1019L79.8784 40.6086C79.873 40.7708 80.0104 40.9017 80.1806 40.9017H81.7136C81.8785 40.9017 82.0157 41.0324 82.0157 41.1896V43.937C82.0157 43.937 75.2798 46.7629 75.1478 38.8606C75.0929 35.5637 77.5105 33.8892 79.5983 33.7843C81.5432 33.685 83.3344 35.1975 83.3344 35.1975V35.1973Z" fill="#F7F6F6"/>
<path d="M68.5054 16.9121C56.1706 16.9121 46.1709 26.6302 46.1709 38.6248C46.1709 50.6195 56.1706 60.3376 68.5054 60.3376C80.8402 60.3376 90.8399 50.6195 90.8399 38.6248C90.8399 26.6302 80.8402 16.9121 68.5054 16.9121ZM68.5054 18.1681C80.126 18.1681 89.5432 27.3262 89.5432 38.6248C89.5432 42.6073 88.373 46.3229 86.351 49.4682C85.5213 49.9182 82.7467 51.0956 76.4338 51.012C68.9065 50.9124 66.6428 49.2693 59.665 49.2693C55.6542 49.2693 52.3246 50.295 51.44 50.5933C48.94 47.2283 47.4676 43.094 47.4676 38.6248C47.4676 27.3262 56.8849 18.1681 68.5054 18.1681ZM58.8464 51.504C62.4287 51.504 70.9888 55.434 78.9776 56.3761C77.1041 57.4228 75.0491 58.1972 72.8679 58.6472C63.544 53.1262 59.6541 51.5038 58.8464 51.5038V51.504ZM65.8737 58.9247C62.0277 58.4589 58.5057 56.9831 55.5936 54.7746C56.4837 54.6804 59.1376 55.1461 61.0332 56.0253C62.5221 56.7109 64.2527 57.6477 65.8737 58.9247ZM81.917 54.3927C76.1535 54.785 67.8955 51.4358 62.7199 50.7765C68.3625 50.4153 78.1644 53.2937 85.5324 50.6509C84.4884 52.0377 83.2741 53.2988 81.917 54.3926V54.3927Z" fill="#F7F6F6"/>
<path d="M62.2084 38.0229C63.2524 37.238 63.8294 36.6361 63.8294 34.8044C63.8294 32.8158 61.7965 30.6963 58.0328 30.6963C53.4725 30.6963 52.2637 33.5223 52.2637 33.5223V45.6635C52.2637 45.6635 54.5165 47.3382 57.8129 47.3382C59.7415 47.3382 64.9281 47.3905 64.9281 41.9218C64.9281 39.6714 63.1426 38.7556 62.2084 38.0229ZM56.1098 35.1445C56.1098 35.1445 56.5767 33.8625 57.9779 33.8362C59.0768 33.8153 60.0108 34.5166 60.0108 35.354C60.0108 36.2959 59.269 36.9762 58.5548 36.9762C57.9449 36.9762 56.8735 37.0442 56.3461 37.0338C56.2143 37.0338 56.1098 36.9292 56.1098 36.8036V35.1445ZM60.835 42.8637C60.5601 44.8523 56.9339 44.3289 56.2197 43.8424C56.1537 43.8005 56.1098 43.7376 56.1098 43.6592V40.0062C56.1098 39.8912 56.2087 39.797 56.3296 39.797C56.3296 39.797 59.6262 39.3783 60.6151 40.7128C60.9338 41.1472 60.9503 42.0317 60.835 42.8637Z" fill="#F7F6F6"/>
<path fill-rule="evenodd" clip-rule="evenodd" d="M74.0214 22.25L70.8787 24.6258L71.9555 28.3048L68.6096 26.1958L65.2689 28.3048L66.3403 24.6258L63.1976 22.25L67.2084 22.0824L68.6096 18.5029L70.016 22.0824L74.0214 22.25ZM61.7417 24.9346L60.3954 26.2586L61.1537 27.9595L59.412 27.1483L57.945 28.3624L58.2197 26.536L56.5549 25.5835L58.4616 25.2643L58.9011 23.464L59.8076 25.0968L61.7417 24.9346ZM54.2308 28.6083L53.6046 29.5974L54.3188 30.5342L53.1375 30.2726L52.4233 31.2092L52.3189 30.058L51.165 29.702L52.2803 29.252V28.0955L53.0772 28.9643L54.2308 28.6083ZM83.0596 28.6083L83.686 29.5974L82.9718 30.5342L84.1529 30.2726L84.8673 31.2092L84.9717 30.058L86.1256 29.702L85.0102 29.252V28.0955L84.2135 28.9643L83.0596 28.6083ZM75.6204 24.9346L76.9664 26.2586L76.2082 27.9595L77.9499 27.1483L79.4114 28.3624L79.1422 26.536L80.807 25.5835L78.8949 25.2643L78.461 23.464L77.5488 25.0968L75.6204 24.9346Z" fill="#F7F6F6"/>
<path d="M112.34 44.5V30.74H118.88C119.787 30.74 120.513 30.88 121.06 31.16C121.607 31.4267 122.007 31.82 122.26 32.34C122.513 32.8467 122.64 33.4667 122.64 34.2C122.64 34.8133 122.553 35.34 122.38 35.78C122.22 36.22 121.967 36.58 121.62 36.86C121.273 37.1267 120.827 37.32 120.28 37.44V37.52C120.92 37.64 121.42 37.8467 121.78 38.14C122.153 38.4333 122.413 38.8067 122.56 39.26C122.707 39.7133 122.78 40.2467 122.78 40.86C122.78 41.38 122.72 41.8667 122.6 42.32C122.48 42.76 122.273 43.14 121.98 43.46C121.7 43.78 121.307 44.0333 120.8 44.22C120.293 44.4067 119.647 44.5 118.86 44.5H112.34ZM114.6 42.6H118.18C118.793 42.6 119.267 42.54 119.6 42.42C119.933 42.2867 120.167 42.0733 120.3 41.78C120.447 41.4733 120.52 41.0667 120.52 40.56C120.52 40.04 120.447 39.6333 120.3 39.34C120.153 39.0333 119.907 38.82 119.56 38.7C119.227 38.5667 118.767 38.5 118.18 38.5H114.6V42.6ZM114.6 36.58H118.1C118.647 36.58 119.08 36.5133 119.4 36.38C119.733 36.2467 119.98 36.04 120.14 35.76C120.3 35.4667 120.38 35.0933 120.38 34.64C120.38 34.1333 120.313 33.74 120.18 33.46C120.047 33.1667 119.82 32.96 119.5 32.84C119.18 32.72 118.713 32.66 118.1 32.66H114.6V36.58ZM128.754 44.5V32.72H124.574V30.74H135.174V32.72H131.014V44.5H128.754ZM142.996 44.66C142.009 44.66 141.169 44.6 140.476 44.48C139.796 44.3467 139.229 44.1267 138.776 43.82C138.322 43.5133 137.969 43.0933 137.716 42.56C137.476 42.0267 137.302 41.36 137.196 40.56C137.102 39.7467 137.056 38.7667 137.056 37.62C137.056 36.4733 137.102 35.5 137.196 34.7C137.302 33.8867 137.482 33.2133 137.736 32.68C137.989 32.1467 138.342 31.7267 138.796 31.42C139.249 31.1133 139.816 30.9 140.496 30.78C141.189 30.6467 142.022 30.58 142.996 30.58C143.436 30.58 143.916 30.6 144.436 30.64C144.969 30.68 145.496 30.7333 146.016 30.8C146.536 30.8533 147.009 30.92 147.436 31V32.8C146.982 32.7333 146.536 32.68 146.096 32.64C145.656 32.6 145.249 32.5667 144.876 32.54C144.516 32.5133 144.216 32.5 143.976 32.5C143.176 32.5 142.502 32.52 141.956 32.56C141.409 32.5867 140.962 32.68 140.616 32.84C140.269 33 140.002 33.2667 139.816 33.64C139.629 34 139.496 34.5 139.416 35.14C139.349 35.78 139.316 36.6067 139.316 37.62C139.316 38.5133 139.336 39.2667 139.376 39.88C139.429 40.48 139.529 40.98 139.676 41.38C139.836 41.7667 140.049 42.06 140.316 42.26C140.596 42.46 140.956 42.6 141.396 42.68C141.849 42.76 142.402 42.8 143.056 42.8C143.309 42.8 143.576 42.7933 143.856 42.78C144.149 42.7667 144.422 42.7533 144.676 42.74C144.929 42.7133 145.142 42.6867 145.316 42.66V38.76H142.616V36.88H147.496V44.24C147.042 44.32 146.542 44.3933 145.996 44.46C145.462 44.5133 144.936 44.56 144.416 44.6C143.896 44.64 143.422 44.66 142.996 44.66Z" fill="#3A3A3A"/>
<defs>
<linearGradient id="paint0_linear_551_44560" x1="38.5752" y1="38.1564" x2="73.6743" y2="38.1564" gradientUnits="userSpaceOnUse">
<stop stop-color="#B80101"/>
<stop offset="1" stop-color="#FD1515"/>
</linearGradient>
</defs>
</svg>
