<svg width="188" height="76" viewBox="0 0 188 76" fill="none" xmlns="http://www.w3.org/2000/svg">
<path d="M22.7136 23.1514H18.9081C16.0962 23.1514 15.1776 23.9322 14.1091 27.2612C13.378 29.5422 12.8906 32.1107 12.8906 33.5903C12.8906 34.7821 13.1531 35.6247 13.7155 36.2001C14.2966 36.7754 14.9152 37.0014 17.6521 37.0014C19.8078 36.9809 20.689 37.207 20.9327 35.9329L21.4388 33.7958H21.1576C20.7827 34.474 20.4265 34.6795 19.433 34.6795H17.6334C16.8835 34.6795 16.696 34.6383 16.4149 34.4945C16.0024 34.2479 15.7963 33.7958 15.7963 33.1793C15.7963 32.7889 15.8525 32.0285 16.0024 31.2478C16.3212 29.4394 16.6398 28.1653 17.1085 26.9529C17.6334 25.6173 18.0833 25.309 19.6017 25.309H21.1763C22.0574 25.309 22.2448 25.1857 22.4136 24.446L22.7136 23.1514ZM27.7591 23.8911C27.7779 23.7473 27.7966 23.624 27.7966 23.5623C27.7966 23.2952 27.5904 23.1514 27.178 23.1514H24.591L24.5348 23.4391C24.7973 23.5418 24.891 23.6651 24.891 23.8911C24.891 24.0555 24.8722 24.2405 24.7973 24.5282L22.2853 36.0151C22.2291 36.2206 22.2291 36.3234 22.2291 36.4261C22.2291 36.7343 22.3978 36.8576 22.8289 36.8576H28.3028C29.0151 36.8576 29.24 36.6727 29.4088 35.8918L29.8399 33.9397H29.54C29.2776 34.4534 29.1463 34.5356 28.5652 34.5356H25.4346L27.7591 23.8911ZM37.7417 33.4259L37.8166 36.0973C37.8354 36.6932 37.9479 36.8576 38.3604 36.8576H40.9285L40.9661 36.5905C40.6473 36.4467 40.6099 36.3644 40.5911 35.8302L40.1974 23.8911C40.1787 23.2541 40.0849 23.1514 39.5601 23.1514H36.2046L36.1483 23.4391C36.4107 23.5623 36.4857 23.6445 36.4857 23.8295C36.4857 23.9322 36.4295 24.0761 36.3357 24.261L30.0558 35.789C29.9059 36.0768 29.8309 36.2617 29.8309 36.4056C29.8309 36.6932 30.0371 36.8576 30.412 36.8576H32.924L32.9802 36.5905C32.6615 36.5288 32.5303 36.4261 32.5303 36.2001C32.5303 36.0768 32.5865 35.9329 32.6803 35.748L33.8612 33.4259H37.7417ZM37.7041 31.3504H34.911L37.573 26.0693L37.7041 31.3504ZM53.5399 36.8576L58.9575 24.261C59.1075 23.8911 59.1637 23.7062 59.1637 23.5623C59.1637 23.2952 58.9575 23.1514 58.5638 23.1514H56.1268L56.0706 23.4391C56.2393 23.5418 56.3143 23.6651 56.3143 23.85C56.3143 23.9322 56.2956 24.0761 56.2393 24.1994L52.9775 32.4601V23.1514H50.2031L46.2102 32.5423L46.2852 24.0144C46.2852 23.3363 46.1352 23.1514 45.5166 23.1514H43.1733L43.1359 23.4391C43.492 23.6034 43.5483 23.7267 43.5483 24.1994V35.8302C43.5483 36.6316 43.717 36.8576 44.2981 36.8576H46.7163L50.3156 28.3503V35.9535C50.3156 36.6727 50.4843 36.8576 51.1029 36.8576H53.5399Z" fill="#3A3A3A"/>
<path d="M12.837 45.4339C13.3892 45.1918 13.7021 44.9295 14.0333 44.4453C14.4566 43.7594 14.7511 42.6095 14.7511 41.6007C14.7511 40.1683 13.9413 39.4823 12.2297 39.4823H6.57954L6.52433 39.7648C6.76357 39.8455 6.87401 39.9868 6.87401 40.2288C6.87401 40.3701 6.83723 40.5516 6.78203 40.8341L4.31579 52.1117C4.27902 52.2529 4.24219 52.4345 4.24219 52.5152C4.24219 52.8178 4.42622 52.9389 4.84956 52.9389H10.4445C12.0088 52.9389 12.8002 52.4749 13.3707 51.2038C13.7757 50.3363 14.1805 48.339 14.1805 47.3101C14.1805 46.3215 13.8125 45.797 12.837 45.4339ZM8.76963 44.4252L9.39539 41.4998H10.8125C11.4383 41.4998 11.7512 41.5402 11.8984 41.6007C12.1561 41.7217 12.2849 41.984 12.2849 42.3472C12.2849 42.912 12.0272 43.7392 11.7327 44.0216C11.4568 44.3041 11.1254 44.4049 10.3157 44.4252H9.76348H8.76963ZM7.40776 50.6591L8.29115 46.5637H10.0396C11.107 46.5637 11.4568 46.8259 11.4568 47.5724C11.4568 48.2583 11.1622 49.4486 10.831 50.0135C10.5733 50.4776 10.15 50.6591 9.3034 50.6591H7.40776ZM20.4841 40.2087C20.5029 40.0674 20.521 39.9464 20.521 39.8859C20.521 39.6034 20.3371 39.4823 19.9322 39.4823H17.374L17.3188 39.7648C17.558 39.8455 17.6685 39.9868 17.6685 40.2288C17.6685 40.3701 17.6501 40.5315 17.5764 40.8341L15.644 49.6907C15.5336 50.1749 15.552 50.5179 15.552 50.8004C15.552 51.345 15.7176 51.8292 16.0489 52.2529C16.5826 52.8985 17.7237 53.1406 19.6745 53.1406C21.3308 53.1406 22.5826 52.8985 23.3187 52.3134C24.0178 51.7687 24.331 51.1433 24.7175 49.4285L26.7048 40.3095C26.7235 40.1885 26.7603 39.9868 26.7603 39.906C26.7603 39.6034 26.5946 39.4823 26.1713 39.4823H23.6501L23.5762 39.7648C23.8158 39.8455 23.9258 39.9868 23.9258 40.2288C23.9258 40.3701 23.9077 40.5516 23.8339 40.8341L22.0487 49.025C21.736 50.4776 21.3126 50.8205 19.9875 50.8205C18.8647 50.8205 18.4047 50.5784 18.4047 49.953C18.4047 49.8117 18.4415 49.5495 18.4967 49.3074L20.4841 40.2087ZM27.0518 49.7916H26.7573L26.2602 52.0713C26.242 52.1924 26.2232 52.3336 26.2232 52.4143C26.2232 52.7774 26.4077 52.9389 26.8492 52.9389H31.3952C33.1254 52.9389 34.211 52.0713 34.7631 50.2354C35.0389 49.3679 35.2783 47.9759 35.2783 47.3101C35.2783 46.2409 34.8369 45.5953 33.8427 45.2119L32.0393 44.5058C31.2295 44.2032 30.9718 43.941 30.9718 43.4366C30.9718 43.0331 31.1557 42.3472 31.3583 42.0244C31.6159 41.6411 31.9654 41.4998 32.7752 41.4998H34.8369C35.4991 41.4998 35.6836 41.3586 35.8305 40.6525L36.0881 39.4823H32.1862C30.7142 39.4823 29.8857 39.8051 29.2972 40.592C28.7264 41.3586 28.1011 43.4769 28.1011 44.6471C28.1011 45.1111 28.193 45.5146 28.395 45.8575C28.6526 46.261 28.9108 46.4628 29.6468 46.7452L31.3401 47.3908C32.113 47.6935 32.2969 47.9154 32.2969 48.5206C32.2969 48.9038 32.1862 49.4486 32.0211 49.8117C31.7266 50.417 31.2663 50.6591 30.3278 50.6591H28.2848C27.2906 50.6591 27.0699 50.4776 27.0518 49.7916ZM42.8153 41.4998H45.0051C45.7049 41.4998 45.9255 41.3384 46.0725 40.713L46.459 38.9175H46.22C45.9806 39.3815 45.7417 39.4823 44.9682 39.4823H38.3799C37.607 39.4823 37.4782 39.4823 37.3306 40.1885L36.9073 42.0647H37.1649C37.3857 41.6208 37.5702 41.4998 38.0666 41.4998H40.0545L37.7359 52.1117C37.699 52.2933 37.6802 52.4143 37.6802 52.495C37.6802 52.8178 37.8459 52.9389 38.2692 52.9389H40.8093L40.8824 52.6766C40.6435 52.5959 40.5329 52.4345 40.5329 52.1924C40.5329 52.0713 40.5697 51.8494 40.6248 51.5871L42.8153 41.4998ZM48.3099 50.6591L48.9908 47.5522C49.1566 46.8058 49.3961 46.604 50.1133 46.604H52.8559C53.3524 46.604 53.5369 46.4426 53.6469 45.9787L53.9783 44.4453H49.6718L50.3159 41.4998H53.9971C54.7143 41.4998 54.9538 41.3384 55.0826 40.7937L55.3771 39.4823H47.482L47.4263 39.7648C47.6658 39.8455 47.7758 39.9868 47.7758 40.2288C47.7758 40.3701 47.7396 40.5516 47.684 40.8341L45.2177 52.1117C45.1814 52.2529 45.1445 52.4345 45.1445 52.5152C45.1445 52.8178 45.3284 52.9389 45.7517 52.9389H51.8985C52.7083 52.9389 52.8741 52.7976 53.0585 51.9301L53.4818 50.0337H53.2423C52.9297 50.5784 52.7452 50.6591 51.7697 50.6591H48.3099ZM64.5792 50.6591H64.119C63.6957 50.6591 63.5669 50.5381 63.4199 50.1144L62.3525 46.8461C63.5669 46.6645 64.2109 46.3014 64.7819 45.4339C65.4072 44.5058 65.7573 43.2348 65.7573 41.984C65.7573 41.056 65.536 40.4306 65.0764 40.0271C64.6343 39.6236 64.119 39.4823 63.0334 39.4823H57.2174L57.1624 39.7648C57.4013 39.8455 57.512 39.9868 57.512 40.2288C57.512 40.3701 57.4751 40.5516 57.42 40.8341L54.9538 52.1117C54.9169 52.273 54.8988 52.4143 54.8988 52.5152C54.8988 52.8178 55.0639 52.9389 55.4872 52.9389H58.0273L58.101 52.6766C57.8615 52.5959 57.7514 52.4345 57.7514 52.1924C57.7514 52.0713 57.7877 51.8494 57.8434 51.5871L58.8739 46.8461H59.8307L61.1925 52.1319C61.3582 52.7572 61.5609 52.9389 62.1499 52.9389H63.328C63.9352 52.9389 64.119 52.7774 64.2666 52.1117L64.5792 50.6591ZM59.3154 44.869L60.052 41.4998H61.6159C62.6283 41.4998 62.9597 41.7621 62.9597 42.5287C62.9597 43.4164 62.6283 44.2436 62.1312 44.5865C61.8373 44.7883 61.4502 44.869 60.788 44.869H59.3154Z" fill="#3A3A3A"/>
<path d="M87.616 43.628C86.8267 43.628 86.1653 43.58 85.632 43.484C85.0987 43.3773 84.6613 43.2013 84.32 42.956C83.9893 42.7107 83.7333 42.38 83.552 41.964C83.3813 41.5373 83.264 40.9987 83.2 40.348C83.136 39.6973 83.104 38.9133 83.104 37.996C83.104 37.0787 83.136 36.2947 83.2 35.644C83.264 34.9933 83.3813 34.46 83.552 34.044C83.7333 33.6173 83.9893 33.2813 84.32 33.036C84.6613 32.7907 85.0987 32.62 85.632 32.524C86.1653 32.4173 86.8267 32.364 87.616 32.364C87.9253 32.364 88.24 32.3747 88.56 32.396C88.8907 32.4173 89.2053 32.4493 89.504 32.492C89.8027 32.524 90.0587 32.5667 90.272 32.62V34.06C90.0053 34.028 89.7387 34.0013 89.472 33.98C89.216 33.948 88.9653 33.9267 88.72 33.916C88.4747 33.9053 88.2613 33.9 88.08 33.9C87.4933 33.9 87.008 33.9213 86.624 33.964C86.24 34.0067 85.9307 34.1027 85.696 34.252C85.472 34.4013 85.3013 34.6253 85.184 34.924C85.0773 35.212 85.0027 35.6067 84.96 36.108C84.928 36.6093 84.912 37.2387 84.912 37.996C84.912 38.7427 84.928 39.372 84.96 39.884C85.0027 40.3853 85.0773 40.7853 85.184 41.084C85.3013 41.372 85.472 41.5907 85.696 41.74C85.9307 41.8893 86.24 41.9853 86.624 42.028C87.008 42.0707 87.4933 42.092 88.08 42.092C88.432 42.092 88.816 42.076 89.232 42.044C89.6587 42.012 90.0267 41.9747 90.336 41.932V43.404C90.1013 43.4467 89.824 43.484 89.504 43.516C89.1947 43.548 88.8747 43.5747 88.544 43.596C88.224 43.6173 87.9147 43.628 87.616 43.628ZM92.6439 43.5V32.492H94.4519V41.916H99.3319V43.5H92.6439ZM100.149 43.5L104.085 32.492H106.453L110.389 43.5H108.517L107.557 40.78H102.917L101.973 43.5H100.149ZM103.429 39.244H107.029L105.269 34.236H105.189L103.429 39.244ZM113.375 43.5L110.527 32.492H112.351L114.559 41.308H114.639L117.055 32.492H118.943L121.391 41.308H121.487L123.583 32.492H125.391L122.543 43.5H120.335L117.999 35.164H117.935L115.583 43.5H113.375ZM127.347 43.5V32.492H132.579C133.304 32.492 133.886 32.604 134.323 32.828C134.76 33.0413 135.08 33.356 135.283 33.772C135.486 34.1773 135.587 34.6733 135.587 35.26C135.587 35.7507 135.518 36.172 135.379 36.524C135.251 36.876 135.048 37.164 134.771 37.388C134.494 37.6013 134.136 37.756 133.699 37.852V37.916C134.211 38.012 134.611 38.1773 134.899 38.412C135.198 38.6467 135.406 38.9453 135.523 39.308C135.64 39.6707 135.699 40.0973 135.699 40.588C135.699 41.004 135.651 41.3933 135.555 41.756C135.459 42.108 135.294 42.412 135.059 42.668C134.835 42.924 134.52 43.1267 134.115 43.276C133.71 43.4253 133.192 43.5 132.563 43.5H127.347ZM129.155 41.98H132.019C132.51 41.98 132.888 41.932 133.155 41.836C133.422 41.7293 133.608 41.5587 133.715 41.324C133.832 41.0787 133.891 40.7533 133.891 40.348C133.891 39.932 133.832 39.6067 133.715 39.372C133.598 39.1267 133.4 38.956 133.123 38.86C132.856 38.7533 132.488 38.7 132.019 38.7H129.155V41.98ZM129.155 37.164H131.955C132.392 37.164 132.739 37.1107 132.995 37.004C133.262 36.8973 133.459 36.732 133.587 36.508C133.715 36.2733 133.779 35.9747 133.779 35.612C133.779 35.2067 133.726 34.892 133.619 34.668C133.512 34.4333 133.331 34.268 133.075 34.172C132.819 34.076 132.446 34.028 131.955 34.028H129.155V37.164ZM142.366 43.628C141.609 43.628 140.974 43.5853 140.462 43.5C139.95 43.404 139.534 43.2493 139.214 43.036C138.905 42.8227 138.665 42.5293 138.494 42.156C138.334 41.772 138.222 41.292 138.158 40.716C138.105 40.14 138.078 39.4467 138.078 38.636V32.492H139.886V39.196C139.886 39.8147 139.908 40.316 139.95 40.7C139.993 41.084 140.089 41.3773 140.238 41.58C140.388 41.7827 140.633 41.9213 140.974 41.996C141.316 42.06 141.78 42.092 142.366 42.092C142.964 42.092 143.428 42.06 143.758 41.996C144.089 41.9213 144.329 41.7827 144.478 41.58C144.638 41.3773 144.734 41.084 144.766 40.7C144.809 40.316 144.83 39.8147 144.83 39.196V32.492H146.638V38.636C146.638 39.4467 146.606 40.14 146.542 40.716C146.489 41.292 146.382 41.772 146.222 42.156C146.062 42.5293 145.822 42.8227 145.502 43.036C145.193 43.2493 144.782 43.404 144.27 43.5C143.758 43.5853 143.124 43.628 142.366 43.628ZM153.216 43.628C152.821 43.628 152.384 43.6173 151.904 43.596C151.435 43.5747 150.971 43.5427 150.512 43.5C150.064 43.468 149.653 43.4307 149.28 43.388V41.9C149.664 41.932 150.064 41.964 150.48 41.996C150.907 42.028 151.312 42.0547 151.696 42.076C152.08 42.0867 152.411 42.092 152.688 42.092C153.253 42.092 153.696 42.0653 154.016 42.012C154.336 41.9587 154.592 41.8733 154.784 41.756C154.912 41.6707 155.003 41.564 155.056 41.436C155.12 41.308 155.157 41.1587 155.168 40.988C155.189 40.8067 155.2 40.6093 155.2 40.396C155.2 40.108 155.189 39.868 155.168 39.676C155.147 39.484 155.099 39.3347 155.024 39.228C154.949 39.1213 154.832 39.0467 154.672 39.004C154.512 38.9507 154.304 38.908 154.048 38.876L151.424 38.572C150.912 38.508 150.491 38.4013 150.16 38.252C149.84 38.092 149.589 37.884 149.408 37.628C149.237 37.372 149.12 37.068 149.056 36.716C148.992 36.364 148.96 35.9747 148.96 35.548C148.96 34.8333 149.056 34.268 149.248 33.852C149.44 33.436 149.712 33.1213 150.064 32.908C150.427 32.684 150.853 32.54 151.344 32.476C151.835 32.4013 152.379 32.364 152.976 32.364C153.392 32.364 153.819 32.38 154.256 32.412C154.693 32.4333 155.104 32.4653 155.488 32.508C155.883 32.54 156.208 32.588 156.464 32.652V34.108C156.197 34.0653 155.883 34.028 155.52 33.996C155.168 33.964 154.8 33.9427 154.416 33.932C154.032 33.9107 153.675 33.9 153.344 33.9C152.789 33.9 152.341 33.9267 152 33.98C151.669 34.0227 151.413 34.0973 151.232 34.204C151.019 34.3213 150.891 34.4867 150.848 34.7C150.805 34.9027 150.784 35.1587 150.784 35.468C150.784 35.8307 150.805 36.1133 150.848 36.316C150.901 36.508 151.013 36.6413 151.184 36.716C151.365 36.7907 151.637 36.8493 152 36.892L154.624 37.196C154.955 37.228 155.253 37.2813 155.52 37.356C155.787 37.42 156.021 37.532 156.224 37.692C156.437 37.852 156.603 38.0813 156.72 38.38C156.795 38.5293 156.848 38.7 156.88 38.892C156.923 39.084 156.955 39.2973 156.976 39.532C157.008 39.756 157.024 40.012 157.024 40.3C157.024 40.908 156.96 41.4147 156.832 41.82C156.715 42.2253 156.544 42.5507 156.32 42.796C156.107 43.0307 155.84 43.212 155.52 43.34C155.2 43.4573 154.848 43.532 154.464 43.564C154.08 43.6067 153.664 43.628 153.216 43.628ZM161.728 43.5V34.076H158.384V32.492H166.864V34.076H163.536V43.5H161.728ZM168.738 43.5V32.492H176.066V34.028H170.546V37.18H175.314V38.716H170.546V41.964H176.066V43.5H168.738ZM178.441 43.5V32.492H183.577C184.27 32.492 184.83 32.572 185.257 32.732C185.683 32.892 186.003 33.1267 186.217 33.436C186.43 33.7347 186.574 34.0973 186.649 34.524C186.723 34.94 186.761 35.3987 186.761 35.9C186.761 36.2627 186.723 36.6627 186.649 37.1C186.585 37.5267 186.435 37.9213 186.201 38.284C185.977 38.636 185.619 38.892 185.129 39.052L186.937 43.5H185.017L183.257 39.004L183.721 39.244C183.646 39.276 183.555 39.2973 183.449 39.308C183.353 39.308 183.235 39.308 183.097 39.308H180.249V43.5H178.441ZM180.249 37.772H182.809C183.31 37.772 183.705 37.74 183.993 37.676C184.281 37.6013 184.494 37.4893 184.633 37.34C184.771 37.1907 184.857 36.9987 184.889 36.764C184.931 36.5293 184.953 36.2413 184.953 35.9C184.953 35.548 184.931 35.2547 184.889 35.02C184.857 34.7747 184.777 34.5827 184.649 34.444C184.521 34.2947 184.313 34.188 184.025 34.124C183.747 34.06 183.363 34.028 182.873 34.028H180.249V37.772Z" fill="#3A3A3A"/>
</svg>
