<svg width="188" height="76" viewBox="0 0 188 76" fill="none" xmlns="http://www.w3.org/2000/svg">
<path d="M69.8559 21.707V30.3087H50.8093V34.6096H69.8559V42.5969H50.8093V48.1265H70.4703L79.9125 26.7574C81.269 23.6874 84.3092 21.707 87.6655 21.707C91.0302 21.707 94.0763 23.6972 95.4278 26.7786L108.564 56.7282H96.5826L87.3665 31.5375L76.9216 56.7282H51C44.7868 56.7282 39.75 51.6914 39.75 45.4782V32.957C39.75 26.7438 44.7868 21.707 51 21.707H69.8559Z" fill="#3A3A3A"/>
<path d="M87.3663 46.2834C93.7561 32.0292 106.618 22.3215 112.25 19.2495C111.943 21.2975 111.144 26.7453 110.407 32.1521C99.04 38.2961 90.7455 51.8131 88.2879 56.1139C83.8642 48.2495 76.2046 44.8498 72.9277 44.133C74.3614 43.0066 77.6587 40.508 79.379 39.5249C84.6015 41.9826 85.2159 43.5186 87.3663 46.2834Z" fill="#F22C2D"/>
<path d="M130.906 44V31.616H139.15V33.344H132.94V36.89H138.304V38.618H132.94V42.272H139.15V44H130.906ZM140.562 44L144.99 31.616H147.654L152.082 44H149.976L148.896 40.94H143.676L142.614 44H140.562ZM144.252 39.212H148.302L146.322 33.578H146.232L144.252 39.212Z" fill="#3A3A3A"/>
</svg>
