<svg width="188" height="76" viewBox="0 0 188 76" fill="none" xmlns="http://www.w3.org/2000/svg">
<path d="M89.5991 45.3561C85.5555 47.725 80.7959 49.8817 75.5795 51.6118C68.1855 54.06 61.0477 55.2604 55.0957 55.279C60.9327 61.0004 69.5911 63.3419 77.829 60.6124C85.9003 57.9357 91.49 51.0835 93.0527 43.1631C91.992 43.8946 90.8645 44.6118 89.6704 45.3146L89.5991 45.3561Z" fill="#E42314"/>
<path d="M79.713 47.995C82.059 47.2199 84.3617 46.3147 86.6108 45.2834V34.4258H82.3787V31.8826H92.5031C92.4631 31.749 92.4304 31.6147 92.386 31.4812C91.3391 28.1772 89.5733 25.1574 87.2205 22.6475C82.7876 22.9546 77.7683 23.9458 72.597 25.6588C67.5042 27.3466 62.9258 29.5167 59.1914 31.8826H66.8305V34.3872H59.8738V37.3154H66.0135V39.7422H59.8738V42.8633H67.0764V45.368H56.8349V33.485C51.1769 37.6189 48.1343 42.1511 49.2758 45.7322C51.2409 51.9003 64.8684 52.9138 79.713 47.995ZM69.2365 35.0326C69.8589 33.9741 70.7583 33.1135 71.8338 32.5473C72.9416 31.9503 74.1886 31.6518 75.5748 31.6518C76.733 31.6518 77.7846 31.8509 78.7294 32.2491C79.6462 32.6265 80.4619 33.2207 81.1092 33.9829L79.1448 35.8317C78.2005 34.8172 77.0607 34.31 75.7254 34.31C74.8814 34.31 74.1321 34.4898 73.4773 34.8494C72.8357 35.197 72.3054 35.7251 71.9495 36.371C71.5843 37.0259 71.4016 37.7772 71.4016 38.6249C71.4016 39.4603 71.5843 40.2051 71.9495 40.8595C72.3057 41.5052 72.8325 42.036 73.47 42.3915C74.119 42.757 74.8589 42.94 75.6897 42.9405C76.5181 42.9534 77.3365 42.7547 78.0702 42.3625V38.4134H80.8662V43.8842C80.1147 44.454 79.2707 44.8844 78.3729 45.1558C77.4491 45.4485 76.4876 45.5986 75.5202 45.6009C74.1466 45.6009 72.9122 45.3024 71.8171 44.7055C70.7495 44.1351 69.8572 43.275 69.2387 42.2201C68.6149 41.1607 68.3031 39.963 68.3031 38.6271C68.3031 37.2912 68.6149 36.0931 69.2387 35.0326H69.2365Z" fill="#E42314"/>
<path d="M93.1143 34.4258H89.6709V43.7736C90.9567 43.0901 92.1693 42.3831 93.3086 41.6526C93.6181 39.2483 93.5526 36.8092 93.1143 34.4258Z" fill="#E42314"/>
<path d="M86.1908 21.6284C80.361 16.1585 71.8881 13.9625 63.8176 16.637C55.5811 19.3664 49.9238 26.4508 48.5 34.5782C53.3257 31.0253 59.7906 27.7172 67.1846 25.2674C73.9769 23.0165 80.5516 21.8221 86.1908 21.6284Z" fill="#E42314"/>
<path d="M114.656 43.9999V31.6159H122.9V33.3439H116.69V36.8899H122.054V38.6179H116.69V42.2719H122.9V43.9999H114.656ZM130.504 44.1439C129.616 44.1439 128.86 44.0899 128.236 43.9819C127.624 43.8619 127.114 43.6639 126.706 43.3879C126.298 43.1119 125.98 42.7339 125.752 42.2539C125.536 41.7739 125.38 41.1739 125.284 40.4539C125.2 39.7219 125.158 38.8399 125.158 37.8079C125.158 36.7759 125.2 35.8999 125.284 35.1799C125.38 34.4479 125.542 33.8419 125.77 33.3619C125.998 32.8819 126.316 32.5039 126.724 32.2279C127.132 31.9519 127.642 31.7599 128.254 31.6519C128.878 31.5319 129.628 31.4719 130.504 31.4719C130.9 31.4719 131.332 31.4899 131.8 31.5259C132.28 31.5619 132.754 31.6099 133.222 31.6699C133.69 31.7179 134.116 31.7779 134.5 31.8499V33.4699C134.092 33.4099 133.69 33.3619 133.294 33.3259C132.898 33.2899 132.532 33.2599 132.196 33.2359C131.872 33.2119 131.602 33.1999 131.386 33.1999C130.666 33.1999 130.06 33.2179 129.568 33.2539C129.076 33.2779 128.674 33.3619 128.362 33.5059C128.05 33.6499 127.81 33.8899 127.642 34.2259C127.474 34.5499 127.354 34.9999 127.282 35.5759C127.222 36.1519 127.192 36.8959 127.192 37.8079C127.192 38.6119 127.21 39.2899 127.246 39.8419C127.294 40.3819 127.384 40.8319 127.516 41.1919C127.66 41.5399 127.852 41.8039 128.092 41.9839C128.344 42.1639 128.668 42.2899 129.064 42.3619C129.472 42.4339 129.97 42.4699 130.558 42.4699C130.786 42.4699 131.026 42.4639 131.278 42.4519C131.542 42.4399 131.788 42.4279 132.016 42.4159C132.244 42.3919 132.436 42.3679 132.592 42.3439V38.8339H130.162V37.1419H134.554V43.7659C134.146 43.8379 133.696 43.9039 133.204 43.9639C132.724 44.0119 132.25 44.0539 131.782 44.0899C131.314 44.1259 130.888 44.1439 130.504 44.1439ZM140.222 43.9999V33.3979H136.46V31.6159H146V33.3979H142.256V43.9999H140.222Z" fill="#3A3A3A"/>
</svg>
