<svg width="188" height="76" viewBox="0 0 188 76" fill="none" xmlns="http://www.w3.org/2000/svg">
<path fill-rule="evenodd" clip-rule="evenodd" d="M58.8936 56.6861H94.0717V59.25H58.4727C56.7896 59.25 52.4975 58.8964 49.2993 55.3598C45.933 51.6462 45.7647 47.0485 45.7647 46.1641V30.337C45.6806 28.9223 45.8487 24.4129 49.2153 20.5225C52.2449 17.074 56.7896 16.8089 58.1358 16.8089L94.0717 16.75V19.2232L58.1358 19.2846C57.0421 19.2846 53.3389 19.4613 50.9826 22.2023C48.1096 25.3932 48.1188 29.2571 48.121 30.1839C48.1211 30.2074 48.1211 30.229 48.1211 30.2487V46.1641C48.1211 46.6946 48.2054 50.4968 50.9826 53.5915C53.5074 56.4209 57.0421 56.6861 58.4727 56.6861H58.8936ZM94.0722 30.514V21.7604L58.2207 21.672C58.2207 21.672 54.6859 21.5836 52.7502 23.7941C50.3096 26.5351 50.5621 30.0718 50.5621 30.0718V46.0757C50.5621 46.0757 50.478 49.259 52.7502 51.8231C55.1068 54.3873 58.8098 54.122 58.8098 54.122H94.0722V45.3685H63.1859C63.1859 45.3685 62.5125 45.4568 61.8394 44.838C61.3344 44.3957 61.3344 43.5116 61.3344 43.5116V42.3622H94.0722V33.8739H61.4185V32.6362C61.4185 32.6362 61.3344 31.7517 61.8394 31.1329C62.4285 30.4256 63.3544 30.514 63.3544 30.514H94.0722Z" fill="#5F9AF8"/>
<path d="M113.34 44.5002V30.7402H122.5V32.6602H115.6V36.6002H121.56V38.5202H115.6V42.5802H122.5V44.5002H113.34ZM125.469 44.5002V30.7402H127.729V42.5202H133.829V44.5002H125.469ZM136.25 44.5002V30.7402H138.51V36.5402H140.43L144.93 30.7402H147.41L142.27 37.3602L147.47 44.5002H144.85L140.43 38.4602H138.51V44.5002H136.25Z" fill="#3A3A3A"/>
</svg>
