<svg width="188" height="76" viewBox="0 0 188 76" fill="none" xmlns="http://www.w3.org/2000/svg">
<g clip-path="url(#clip0_729_10352)">
<mask id="mask0_729_10352" style="mask-type:luminance" maskUnits="userSpaceOnUse" x="0" y="0" width="188" height="76">
<path d="M188 0H0V76H188V0Z" fill="white"/>
</mask>
<g mask="url(#mask0_729_10352)">
<path fill-rule="evenodd" clip-rule="evenodd" d="M50.302 22.6191C50.302 22.6191 43.8333 13.0308 29.3306 13.0308C17.3762 13.0308 8.36035 19.8225 8.36035 23.8176C8.36035 28.412 17.3756 30.8091 17.3756 38.0003H32.8583C32.8583 33.8054 19.3354 31.6081 19.3354 22.6191C19.3354 14.4291 40.3056 15.0283 50.3008 22.6191H50.302Z" fill="url(#paint0_linear_729_10352)"/>
<path fill-rule="evenodd" clip-rule="evenodd" d="M50.302 53.3819C50.302 53.3819 43.8333 62.9695 29.3306 62.9695C17.3762 62.9695 8.36035 56.1784 8.36035 52.1833C8.36035 47.5889 17.3762 44.9915 17.3762 38H32.8583C32.8583 42.1949 19.3354 44.3922 19.3354 53.3812C19.3354 61.5712 40.3056 60.9719 50.3008 53.3812L50.302 53.3819Z" fill="url(#paint1_linear_729_10352)"/>
<path fill-rule="evenodd" clip-rule="evenodd" d="M8.55731 22.4194C8.36133 23.0187 8.36133 23.4182 8.36133 23.8177C8.36133 28.4121 17.3766 30.8092 17.3766 38.0004C17.3766 44.9919 8.36133 47.5887 8.36133 52.1831C8.36133 52.5826 8.36133 52.9821 8.55731 53.3816C7.38078 48.987 23.0594 45.1916 30.3115 41.1965C31.8793 40.1977 32.8592 39.1989 32.8592 38.0004C32.8592 36.8019 31.8793 35.8031 30.3115 34.8043C23.0594 30.8098 7.38078 27.0138 8.55731 22.4194Z" fill="url(#paint2_linear_729_10352)"/>
<path d="M73.1562 44.0002V31.6162H81.4003V33.3442H75.1903V36.8902H80.5543V38.6182H75.1903V42.2722H81.4003V44.0002H73.1562ZM84.0723 44.0002V31.6162H86.1783L91.8483 40.1842H91.9202V31.6162H93.8643V44.0002H91.9202L86.0882 35.1622H86.0163V44.0002H84.0723ZM97.168 44.0002V31.6162H101.218C102.262 31.6162 103.114 31.6702 103.774 31.7782C104.446 31.8742 104.974 32.0542 105.358 32.3182C105.742 32.5822 106.018 32.9482 106.186 33.4162C106.366 33.8842 106.48 34.4782 106.528 35.1982C106.576 35.9182 106.6 36.7882 106.6 37.8082C106.6 38.8282 106.576 39.6982 106.528 40.4182C106.48 41.1382 106.366 41.7322 106.186 42.2002C106.018 42.6682 105.742 43.0342 105.358 43.2982C104.974 43.5622 104.446 43.7482 103.774 43.8562C103.114 43.9522 102.262 44.0002 101.218 44.0002H97.168ZM99.202 42.2722H101.038C101.71 42.2722 102.262 42.2602 102.694 42.2362C103.138 42.2002 103.486 42.1162 103.738 41.9842C103.99 41.8402 104.176 41.6122 104.296 41.3002C104.416 40.9882 104.488 40.5502 104.512 39.9862C104.548 39.4102 104.566 38.6842 104.566 37.8082C104.566 36.9322 104.548 36.2122 104.512 35.6482C104.488 35.0842 104.41 34.6462 104.278 34.3342C104.158 34.0102 103.966 33.7822 103.702 33.6502C103.45 33.5062 103.108 33.4222 102.676 33.3982C102.244 33.3622 101.698 33.3442 101.038 33.3442H99.202V42.2722ZM114.242 44.1442C113.258 44.1442 112.448 44.0902 111.812 43.9822C111.176 43.8622 110.672 43.6642 110.3 43.3882C109.928 43.1122 109.658 42.7342 109.49 42.2542C109.322 41.7742 109.214 41.1742 109.166 40.4542C109.118 39.7222 109.094 38.8402 109.094 37.8082C109.094 36.7762 109.118 35.9002 109.166 35.1802C109.214 34.4482 109.322 33.8422 109.49 33.3622C109.658 32.8822 109.928 32.5042 110.3 32.2282C110.672 31.9522 111.176 31.7602 111.812 31.6522C112.448 31.5322 113.258 31.4722 114.242 31.4722C115.226 31.4722 116.036 31.5322 116.672 31.6522C117.32 31.7602 117.83 31.9522 118.202 32.2282C118.574 32.5042 118.844 32.8822 119.012 33.3622C119.192 33.8422 119.306 34.4482 119.354 35.1802C119.402 35.9002 119.426 36.7762 119.426 37.8082C119.426 38.8402 119.402 39.7222 119.354 40.4542C119.306 41.1742 119.192 41.7742 119.012 42.2542C118.844 42.7342 118.574 43.1122 118.202 43.3882C117.83 43.6642 117.32 43.8622 116.672 43.9822C116.036 44.0902 115.226 44.1442 114.242 44.1442ZM114.242 42.4162C114.842 42.4162 115.334 42.3982 115.718 42.3622C116.114 42.3262 116.42 42.2362 116.636 42.0922C116.864 41.9482 117.032 41.7142 117.14 41.3902C117.248 41.0542 117.314 40.6042 117.338 40.0402C117.374 39.4642 117.392 38.7202 117.392 37.8082C117.392 36.8962 117.374 36.1582 117.338 35.5942C117.314 35.0182 117.248 34.5682 117.14 34.2442C117.032 33.9082 116.864 33.6682 116.636 33.5242C116.42 33.3802 116.114 33.2902 115.718 33.2542C115.334 33.2182 114.842 33.2002 114.242 33.2002C113.654 33.2002 113.168 33.2182 112.784 33.2542C112.4 33.2902 112.094 33.3802 111.866 33.5242C111.638 33.6682 111.47 33.9082 111.362 34.2442C111.266 34.5682 111.2 35.0182 111.164 35.5942C111.14 36.1582 111.128 36.8962 111.128 37.8082C111.128 38.7202 111.14 39.4642 111.164 40.0402C111.2 40.6042 111.266 41.0542 111.362 41.3902C111.47 41.7142 111.638 41.9482 111.866 42.0922C112.094 42.2362 112.4 42.3262 112.784 42.3622C113.168 42.3982 113.654 42.4162 114.242 42.4162ZM122.322 44.0002V31.6162H128.1C128.88 31.6162 129.51 31.7062 129.99 31.8862C130.47 32.0662 130.83 32.3302 131.07 32.6782C131.31 33.0142 131.472 33.4222 131.556 33.9022C131.64 34.3702 131.682 34.8862 131.682 35.4502C131.682 35.8582 131.64 36.3082 131.556 36.8002C131.484 37.2802 131.316 37.7242 131.052 38.1322C130.8 38.5282 130.398 38.8162 129.846 38.9962L131.88 44.0002H129.72L127.74 38.9422L128.262 39.2122C128.178 39.2482 128.076 39.2722 127.956 39.2842C127.848 39.2842 127.716 39.2842 127.56 39.2842H124.356V44.0002H122.322ZM124.356 37.5562H127.236C127.8 37.5562 128.244 37.5202 128.568 37.4482C128.892 37.3642 129.132 37.2382 129.288 37.0702C129.444 36.9022 129.54 36.6862 129.576 36.4222C129.624 36.1582 129.648 35.8342 129.648 35.4502C129.648 35.0542 129.624 34.7242 129.576 34.4602C129.54 34.1842 129.45 33.9682 129.306 33.8122C129.162 33.6442 128.928 33.5242 128.604 33.4522C128.292 33.3802 127.86 33.3442 127.308 33.3442H124.356V37.5562ZM134.539 44.0002V31.6162H140.083C140.863 31.6162 141.493 31.7122 141.973 31.9042C142.453 32.0962 142.819 32.3722 143.071 32.7322C143.335 33.0802 143.509 33.5002 143.593 33.9922C143.689 34.4842 143.737 35.0302 143.737 35.6302C143.737 36.1942 143.695 36.7222 143.611 37.2142C143.527 37.6942 143.353 38.1202 143.089 38.4922C142.837 38.8522 142.465 39.1342 141.973 39.3382C141.481 39.5422 140.833 39.6442 140.029 39.6442H136.573V44.0002H134.539ZM136.573 37.9162H139.255C139.819 37.9162 140.269 37.8802 140.605 37.8082C140.941 37.7362 141.181 37.6102 141.325 37.4302C141.481 37.2502 141.583 37.0162 141.631 36.7282C141.679 36.4402 141.703 36.0742 141.703 35.6302C141.703 35.1862 141.679 34.8202 141.631 34.5322C141.595 34.2322 141.499 33.9982 141.343 33.8302C141.199 33.6502 140.965 33.5242 140.641 33.4522C140.317 33.3802 139.873 33.3442 139.309 33.3442H136.573V37.9162ZM146.246 44.0002V31.6162H148.28V36.8722H154.004V31.6162H156.038V44.0002H154.004V38.6542H148.28V44.0002H146.246ZM159.342 44.0002V31.6162H161.376V44.0002H159.342ZM164.668 44.0002V31.6162H166.774L172.444 40.1842H172.516V31.6162H174.46V44.0002H172.516L166.684 35.1622H166.612V44.0002H164.668ZM176.503 44.0002L180.931 31.6162H183.595L188.023 44.0002H185.917L184.837 40.9402H179.617L178.555 44.0002H176.503ZM180.193 39.2122H184.243L182.263 33.5782H182.173L180.193 39.2122Z" fill="#3A3A3A"/>
</g>
</g>
<defs>
<linearGradient id="paint0_linear_729_10352" x1="25.2576" y1="25.4003" x2="25.9558" y2="8.326" gradientUnits="userSpaceOnUse">
<stop stop-color="#3FA4FF"/>
<stop offset="0.231" stop-color="#66BDFF"/>
<stop offset="1" stop-color="#CDEEFF"/>
</linearGradient>
<linearGradient id="paint1_linear_729_10352" x1="19.1997" y1="3.16817" x2="22.0718" y2="41.7419" gradientUnits="userSpaceOnUse">
<stop stop-color="#553704"/>
<stop offset="0.231" stop-color="#792307"/>
<stop offset="1" stop-color="#FEA702"/>
</linearGradient>
<linearGradient id="paint2_linear_729_10352" x1="12.683" y1="24.4541" x2="28.6324" y2="24.9731" gradientUnits="userSpaceOnUse">
<stop stop-color="#6A0804"/>
<stop offset="0.231" stop-color="#A5080F"/>
<stop offset="1" stop-color="#FD121B"/>
</linearGradient>
<clipPath id="clip0_729_10352">
<rect width="188" height="76" fill="white"/>
</clipPath>
</defs>
</svg>
