<svg width="188" height="76" viewBox="0 0 188 76" fill="none" xmlns="http://www.w3.org/2000/svg">
<g clip-path="url(#clip0_552_3228)">
<path fill-rule="evenodd" clip-rule="evenodd" d="M50.302 22.6191C50.302 22.6191 43.8333 13.0308 29.3306 13.0308C17.3762 13.0308 8.36035 19.8225 8.36035 23.8176C8.36035 28.412 17.3756 30.8091 17.3756 38.0003H32.8583C32.8583 33.8054 19.3354 31.6081 19.3354 22.6191C19.3354 14.4291 40.3056 15.0283 50.3008 22.6191H50.302Z" fill="url(#paint0_linear_552_3228)"/>
<path fill-rule="evenodd" clip-rule="evenodd" d="M50.302 53.3819C50.302 53.3819 43.8333 62.9695 29.3306 62.9695C17.3762 62.9695 8.36035 56.1784 8.36035 52.1833C8.36035 47.5889 17.3762 44.9915 17.3762 38H32.8583C32.8583 42.1949 19.3354 44.3922 19.3354 53.3812C19.3354 61.5712 40.3056 60.9719 50.3008 53.3812L50.302 53.3819Z" fill="url(#paint1_linear_552_3228)"/>
<path fill-rule="evenodd" clip-rule="evenodd" d="M8.55731 22.4194C8.36133 23.0187 8.36133 23.4182 8.36133 23.8177C8.36133 28.4121 17.3766 30.8092 17.3766 38.0004C17.3766 44.9919 8.36133 47.5887 8.36133 52.1831C8.36133 52.5826 8.36133 52.9821 8.55731 53.3816C7.38078 48.987 23.0594 45.1916 30.3115 41.1965C31.8793 40.1977 32.8592 39.1989 32.8592 38.0004C32.8592 36.8019 31.8793 35.8031 30.3115 34.8043C23.0594 30.8098 7.38078 27.0138 8.55731 22.4194Z" fill="url(#paint2_linear_552_3228)"/>
<path d="M73.156 44V31.616H81.4V33.344H75.19V36.89H80.554V38.618H75.19V42.272H81.4V44H73.156ZM84.072 44V31.616H86.178L91.848 40.184H91.92V31.616H93.864V44H91.92L86.088 35.162H86.016V44H84.072ZM97.1677 44V31.616H101.218C102.262 31.616 103.114 31.67 103.774 31.778C104.446 31.874 104.974 32.054 105.358 32.318C105.742 32.582 106.018 32.948 106.186 33.416C106.366 33.884 106.48 34.478 106.528 35.198C106.576 35.918 106.6 36.788 106.6 37.808C106.6 38.828 106.576 39.698 106.528 40.418C106.48 41.138 106.366 41.732 106.186 42.2C106.018 42.668 105.742 43.034 105.358 43.298C104.974 43.562 104.446 43.748 103.774 43.856C103.114 43.952 102.262 44 101.218 44H97.1677ZM99.2017 42.272H101.038C101.71 42.272 102.262 42.26 102.694 42.236C103.138 42.2 103.486 42.116 103.738 41.984C103.99 41.84 104.176 41.612 104.296 41.3C104.416 40.988 104.488 40.55 104.512 39.986C104.548 39.41 104.566 38.684 104.566 37.808C104.566 36.932 104.548 36.212 104.512 35.648C104.488 35.084 104.41 34.646 104.278 34.334C104.158 34.01 103.966 33.782 103.702 33.65C103.45 33.506 103.108 33.422 102.676 33.398C102.244 33.362 101.698 33.344 101.038 33.344H99.2017V42.272ZM114.242 44.144C113.258 44.144 112.448 44.09 111.812 43.982C111.176 43.862 110.672 43.664 110.3 43.388C109.928 43.112 109.658 42.734 109.49 42.254C109.322 41.774 109.214 41.174 109.166 40.454C109.118 39.722 109.094 38.84 109.094 37.808C109.094 36.776 109.118 35.9 109.166 35.18C109.214 34.448 109.322 33.842 109.49 33.362C109.658 32.882 109.928 32.504 110.3 32.228C110.672 31.952 111.176 31.76 111.812 31.652C112.448 31.532 113.258 31.472 114.242 31.472C115.226 31.472 116.036 31.532 116.672 31.652C117.32 31.76 117.83 31.952 118.202 32.228C118.574 32.504 118.844 32.882 119.012 33.362C119.192 33.842 119.306 34.448 119.354 35.18C119.402 35.9 119.426 36.776 119.426 37.808C119.426 38.84 119.402 39.722 119.354 40.454C119.306 41.174 119.192 41.774 119.012 42.254C118.844 42.734 118.574 43.112 118.202 43.388C117.83 43.664 117.32 43.862 116.672 43.982C116.036 44.09 115.226 44.144 114.242 44.144ZM114.242 42.416C114.842 42.416 115.334 42.398 115.718 42.362C116.114 42.326 116.42 42.236 116.636 42.092C116.864 41.948 117.032 41.714 117.14 41.39C117.248 41.054 117.314 40.604 117.338 40.04C117.374 39.464 117.392 38.72 117.392 37.808C117.392 36.896 117.374 36.158 117.338 35.594C117.314 35.018 117.248 34.568 117.14 34.244C117.032 33.908 116.864 33.668 116.636 33.524C116.42 33.38 116.114 33.29 115.718 33.254C115.334 33.218 114.842 33.2 114.242 33.2C113.654 33.2 113.168 33.218 112.784 33.254C112.4 33.29 112.094 33.38 111.866 33.524C111.638 33.668 111.47 33.908 111.362 34.244C111.266 34.568 111.2 35.018 111.164 35.594C111.14 36.158 111.128 36.896 111.128 37.808C111.128 38.72 111.14 39.464 111.164 40.04C111.2 40.604 111.266 41.054 111.362 41.39C111.47 41.714 111.638 41.948 111.866 42.092C112.094 42.236 112.4 42.326 112.784 42.362C113.168 42.398 113.654 42.416 114.242 42.416ZM122.322 44V31.616H128.1C128.88 31.616 129.51 31.706 129.99 31.886C130.47 32.066 130.83 32.33 131.07 32.678C131.31 33.014 131.472 33.422 131.556 33.902C131.64 34.37 131.682 34.886 131.682 35.45C131.682 35.858 131.64 36.308 131.556 36.8C131.484 37.28 131.316 37.724 131.052 38.132C130.8 38.528 130.398 38.816 129.846 38.996L131.88 44H129.72L127.74 38.942L128.262 39.212C128.178 39.248 128.076 39.272 127.956 39.284C127.848 39.284 127.716 39.284 127.56 39.284H124.356V44H122.322ZM124.356 37.556H127.236C127.8 37.556 128.244 37.52 128.568 37.448C128.892 37.364 129.132 37.238 129.288 37.07C129.444 36.902 129.54 36.686 129.576 36.422C129.624 36.158 129.648 35.834 129.648 35.45C129.648 35.054 129.624 34.724 129.576 34.46C129.54 34.184 129.45 33.968 129.306 33.812C129.162 33.644 128.928 33.524 128.604 33.452C128.292 33.38 127.86 33.344 127.308 33.344H124.356V37.556ZM134.539 44V31.616H140.083C140.863 31.616 141.493 31.712 141.973 31.904C142.453 32.096 142.819 32.372 143.071 32.732C143.335 33.08 143.509 33.5 143.593 33.992C143.689 34.484 143.737 35.03 143.737 35.63C143.737 36.194 143.695 36.722 143.611 37.214C143.527 37.694 143.353 38.12 143.089 38.492C142.837 38.852 142.465 39.134 141.973 39.338C141.481 39.542 140.833 39.644 140.029 39.644H136.573V44H134.539ZM136.573 37.916H139.255C139.819 37.916 140.269 37.88 140.605 37.808C140.941 37.736 141.181 37.61 141.325 37.43C141.481 37.25 141.583 37.016 141.631 36.728C141.679 36.44 141.703 36.074 141.703 35.63C141.703 35.186 141.679 34.82 141.631 34.532C141.595 34.232 141.499 33.998 141.343 33.83C141.199 33.65 140.965 33.524 140.641 33.452C140.317 33.38 139.873 33.344 139.309 33.344H136.573V37.916ZM146.246 44V31.616H148.28V36.872H154.004V31.616H156.038V44H154.004V38.654H148.28V44H146.246ZM159.342 44V31.616H161.376V44H159.342ZM164.668 44V31.616H166.774L172.444 40.184H172.516V31.616H174.46V44H172.516L166.684 35.162H166.612V44H164.668ZM176.503 44L180.931 31.616H183.595L188.023 44H185.917L184.837 40.94H179.617L178.555 44H176.503ZM180.193 39.212H184.243L182.263 33.578H182.173L180.193 39.212Z" fill="#3A3A3A"/>
</g>
<defs>
<linearGradient id="paint0_linear_552_3228" x1="25.2576" y1="25.4003" x2="25.9558" y2="8.32604" gradientUnits="userSpaceOnUse">
<stop stop-color="#3FA4FF"/>
<stop offset="0.231" stop-color="#66BDFF"/>
<stop offset="1" stop-color="#CDEEFF"/>
</linearGradient>
<linearGradient id="paint1_linear_552_3228" x1="19.1997" y1="3.16817" x2="22.0718" y2="41.7419" gradientUnits="userSpaceOnUse">
<stop stop-color="#553704"/>
<stop offset="0.231" stop-color="#792307"/>
<stop offset="1" stop-color="#FEA702"/>
</linearGradient>
<linearGradient id="paint2_linear_552_3228" x1="12.683" y1="24.4541" x2="28.6324" y2="24.9731" gradientUnits="userSpaceOnUse">
<stop stop-color="#6A0804"/>
<stop offset="0.231" stop-color="#A5080F"/>
<stop offset="1" stop-color="#FD121B"/>
</linearGradient>
<clipPath id="clip0_552_3228">
<rect width="188" height="76" fill="white"/>
</clipPath>
</defs>
</svg>
