<svg width="188" height="76" viewBox="0 0 188 76" fill="none" xmlns="http://www.w3.org/2000/svg">
<path d="M24.9829 40.5669H11.8192V51.7207H27.2062V56.75H6.25V20.5H27.0521V25.579H11.8192V35.5875H24.9829V40.5669Z" fill="#7C2CAD"/>
<path d="M38.9614 20.5L48.2068 48.285L57.4301 20.5H64.6284V56.75H59.0811V44.7995L59.6314 28.8156L50.1659 56.75H46.1816L36.738 28.8405L37.2884 44.7995V56.75H31.7412V20.5H38.9614Z" fill="#7C2CAD"/>
<path d="M82.59 44.5V30.74H91.75V32.66H84.85V36.6H90.81V38.52H84.85V42.58H91.75V44.5H82.59ZM94.7189 44.5V30.74H100.879C101.746 30.74 102.446 30.8467 102.979 31.06C103.512 31.2733 103.919 31.58 104.199 31.98C104.492 32.3667 104.686 32.8333 104.779 33.38C104.886 33.9267 104.939 34.5333 104.939 35.2C104.939 35.8267 104.892 36.4133 104.799 36.96C104.706 37.4933 104.512 37.9667 104.219 38.38C103.939 38.78 103.526 39.0933 102.979 39.32C102.432 39.5467 101.712 39.66 100.819 39.66H96.9789V44.5H94.7189ZM96.9789 37.74H99.9589C100.586 37.74 101.086 37.7 101.459 37.62C101.832 37.54 102.099 37.4 102.259 37.2C102.432 37 102.546 36.74 102.599 36.42C102.652 36.1 102.679 35.6933 102.679 35.2C102.679 34.7067 102.652 34.3 102.599 33.98C102.559 33.6467 102.452 33.3867 102.279 33.2C102.119 33 101.859 32.86 101.499 32.78C101.139 32.7 100.646 32.66 100.019 32.66H96.9789V37.74ZM107.727 44.5V30.74H109.987V44.5H107.727ZM118.825 44.66C117.838 44.66 117.011 44.6 116.345 44.48C115.678 44.3467 115.131 44.1267 114.705 43.82C114.291 43.5133 113.971 43.1 113.745 42.58C113.531 42.0467 113.385 41.3733 113.305 40.56C113.225 39.7467 113.185 38.7667 113.185 37.62C113.185 36.4733 113.225 35.4933 113.305 34.68C113.385 33.8667 113.531 33.2 113.745 32.68C113.971 32.1467 114.291 31.7267 114.705 31.42C115.131 31.1133 115.678 30.9 116.345 30.78C117.011 30.6467 117.838 30.58 118.825 30.58C119.211 30.58 119.605 30.5933 120.005 30.62C120.418 30.6467 120.811 30.6867 121.185 30.74C121.558 30.78 121.878 30.8333 122.145 30.9V32.7C121.811 32.66 121.478 32.6267 121.145 32.6C120.825 32.56 120.511 32.5333 120.205 32.52C119.898 32.5067 119.631 32.5 119.405 32.5C118.671 32.5 118.065 32.5267 117.585 32.58C117.105 32.6333 116.718 32.7533 116.425 32.94C116.145 33.1267 115.931 33.4067 115.785 33.78C115.651 34.14 115.558 34.6333 115.505 35.26C115.465 35.8867 115.445 36.6733 115.445 37.62C115.445 38.5533 115.465 39.34 115.505 39.98C115.558 40.6067 115.651 41.1067 115.785 41.48C115.931 41.84 116.145 42.1133 116.425 42.3C116.718 42.4867 117.105 42.6067 117.585 42.66C118.065 42.7133 118.671 42.74 119.405 42.74C119.845 42.74 120.325 42.72 120.845 42.68C121.378 42.64 121.838 42.5933 122.225 42.54V44.38C121.931 44.4333 121.585 44.48 121.185 44.52C120.798 44.56 120.398 44.5933 119.985 44.62C119.585 44.6467 119.198 44.66 118.825 44.66ZM125.11 44.5V30.74H128.19L132.23 40.74H132.33L136.37 30.74H139.45V44.5H137.27V34.24H137.19L133.03 44.5H131.43L127.31 34.24H127.23V44.5H125.11ZM143.137 44.5V30.74H152.297V32.66H145.397V36.6H151.357V38.52H145.397V42.58H152.297V44.5H143.137ZM155.266 44.5V30.74H159.766C160.926 30.74 161.872 30.8 162.606 30.92C163.352 31.0267 163.939 31.2267 164.366 31.52C164.792 31.8133 165.099 32.22 165.286 32.74C165.486 33.26 165.612 33.92 165.666 34.72C165.719 35.52 165.746 36.4867 165.746 37.62C165.746 38.7533 165.719 39.72 165.666 40.52C165.612 41.32 165.486 41.98 165.286 42.5C165.099 43.02 164.792 43.4267 164.366 43.72C163.939 44.0133 163.352 44.22 162.606 44.34C161.872 44.4467 160.926 44.5 159.766 44.5H155.266ZM157.526 42.58H159.566C160.312 42.58 160.926 42.5667 161.406 42.54C161.899 42.5 162.286 42.4067 162.566 42.26C162.846 42.1 163.052 41.8467 163.186 41.5C163.319 41.1533 163.399 40.6667 163.426 40.04C163.466 39.4 163.486 38.5933 163.486 37.62C163.486 36.6467 163.466 35.8467 163.426 35.22C163.399 34.5933 163.312 34.1067 163.166 33.76C163.032 33.4 162.819 33.1467 162.526 33C162.246 32.84 161.866 32.7467 161.386 32.72C160.906 32.68 160.299 32.66 159.566 32.66H157.526V42.58ZM168.977 44.5V30.74H171.237V44.5H168.977ZM173.495 44.5L178.415 30.74H181.375L186.295 44.5H183.955L182.755 41.1H176.955L175.775 44.5H173.495ZM177.595 39.18H182.095L179.895 32.92H179.795L177.595 39.18Z" fill="#3A3A3A"/>
</svg>
