<svg width="188" height="76" viewBox="0 0 188 76" fill="none" xmlns="http://www.w3.org/2000/svg">
<path d="M49.9999 15.5C37.5733 15.5 27.5 25.8531 27.5 38.6251C27.5 51.397 37.5733 61.75 49.9999 61.75C62.4267 61.75 72.5 51.397 72.5 38.6251C72.5 25.8531 62.4267 15.5 49.9999 15.5ZM43.0303 57.3678C39.5726 59.1214 34.1417 55.0673 30.902 48.3147C27.6605 41.562 27.8385 34.6677 31.2962 32.9141C34.754 31.1605 40.1849 35.2146 43.4246 41.9672C46.666 48.7199 46.4899 55.6159 43.0303 57.3678ZM36.5527 24.4778C36.5527 20.1333 42.5733 16.6099 49.9999 16.6099C57.4266 16.6099 63.4474 20.1333 63.4474 24.4778C63.4474 28.8224 57.4266 32.3457 49.9999 32.3457C42.5733 32.3457 36.5527 28.8242 36.5527 24.4778ZM53.2868 57.5022C49.5969 54.8396 50.014 47.6961 54.2149 41.5442C58.4177 35.3921 64.8151 32.5645 68.5032 35.2254C72.1912 37.8863 71.7759 45.0315 67.5751 51.1836C63.3741 57.3355 56.9766 60.1649 53.2868 57.5022Z" fill="#23B04E"/>
<path d="M52.3438 25.9864L47.8054 25.8634L51.9709 28.4318L48.9832 30.2744L40.625 25.1194L43.4551 23.3746L48.6578 23.675L48.1867 20.4568L51.0169 18.7119L59.375 23.8651L56.389 25.7077L52.2217 23.1393L52.4065 25.9466L52.3438 25.9864Z" fill="#23B04E"/>
<path d="M93.84 34V20.24H103V22.16H96.1V26.1H102.06V28.02H96.1V32.08H103V34H93.84ZM109.269 34L104.589 20.24H106.929L110.749 31.52H110.849L114.629 20.24H116.909L112.229 34H109.269ZM119.231 34V20.24H128.391V22.16H121.491V26.1H127.451V28.02H121.491V32.08H128.391V34H119.231ZM131.36 34V20.24H137.78C138.646 20.24 139.346 20.34 139.88 20.54C140.413 20.74 140.813 21.0333 141.08 21.42C141.346 21.7933 141.526 22.2467 141.62 22.78C141.713 23.3 141.76 23.8733 141.76 24.5C141.76 24.9533 141.713 25.4533 141.62 26C141.54 26.5333 141.353 27.0267 141.06 27.48C140.78 27.92 140.333 28.24 139.72 28.44L141.98 34H139.58L137.38 28.38L137.96 28.68C137.866 28.72 137.753 28.7467 137.62 28.76C137.5 28.76 137.353 28.76 137.18 28.76H133.62V34H131.36ZM133.62 26.84H136.82C137.446 26.84 137.94 26.8 138.3 26.72C138.66 26.6267 138.926 26.4867 139.1 26.3C139.273 26.1133 139.38 25.8733 139.42 25.58C139.473 25.2867 139.5 24.9267 139.5 24.5C139.5 24.06 139.473 23.6933 139.42 23.4C139.38 23.0933 139.28 22.8533 139.12 22.68C138.96 22.4933 138.7 22.36 138.34 22.28C137.993 22.2 137.513 22.16 136.9 22.16H133.62V26.84ZM147.762 34V28.94L142.902 20.24H145.302L148.882 26.7H149.022L152.562 20.24H154.902L150.022 28.94V34H147.762ZM93.84 56V42.24H96.92L100.96 52.24H101.06L105.1 42.24H108.18V56H106V45.74H105.92L101.76 56H100.16L96.04 45.74H95.96V56H93.84ZM110.467 56L115.387 42.24H118.347L123.267 56H120.927L119.727 52.6H113.927L112.747 56H110.467ZM114.567 50.68H119.067L116.867 44.42H116.767L114.567 50.68ZM127.305 56V44.22H123.125V42.24H133.725V44.22H129.565V56H127.305ZM136.067 56V42.24H142.487C143.353 42.24 144.053 42.34 144.587 42.54C145.12 42.74 145.52 43.0333 145.787 43.42C146.053 43.7933 146.233 44.2467 146.327 44.78C146.42 45.3 146.467 45.8733 146.467 46.5C146.467 46.9533 146.42 47.4533 146.327 48C146.247 48.5333 146.06 49.0267 145.767 49.48C145.487 49.92 145.04 50.24 144.427 50.44L146.687 56H144.287L142.087 50.38L142.667 50.68C142.573 50.72 142.46 50.7467 142.327 50.76C142.207 50.76 142.06 50.76 141.887 50.76H138.327V56H136.067ZM138.327 48.84H141.527C142.153 48.84 142.647 48.8 143.007 48.72C143.367 48.6267 143.633 48.4867 143.807 48.3C143.98 48.1133 144.087 47.8733 144.127 47.58C144.18 47.2867 144.207 46.9267 144.207 46.5C144.207 46.06 144.18 45.6933 144.127 45.4C144.087 45.0933 143.987 44.8533 143.827 44.68C143.667 44.4933 143.407 44.36 143.047 44.28C142.7 44.2 142.22 44.16 141.607 44.16H138.327V48.84ZM149.641 56V42.24H151.901V56H149.641ZM154.179 56L159.099 49.1L154.259 42.24H156.899L160.439 47.22H160.599L164.119 42.24H166.699L161.859 49.04L166.759 56H164.119L160.499 50.88H160.339L156.739 56H154.179Z" fill="#3A3A3A"/>
</svg>
