<svg width="188" height="76" viewBox="0 0 188 76" fill="none" xmlns="http://www.w3.org/2000/svg">
<path d="M10.0596 14.9855C26.0311 6.32504 46.7273 15.4578 48.2836 37.5081C18.6048 39.8691 15.0308 26.3241 10.0602 14.9855H10.0596Z" fill="url(#paint0_linear_551_44602)"/>
<path d="M10.0596 62.2642C26.0311 70.9253 46.7273 61.7918 48.2836 39.7416C18.6048 37.3806 15.0308 50.9182 10.0602 62.2642H10.0596Z" fill="url(#paint1_linear_551_44602)"/>
<path d="M42.7411 21.8651C35.214 11.715 21.4199 8.82799 10 15.0059C14.4522 25.1646 17.7856 37.0823 39.7531 37.7643C41.8586 33.9152 42.9605 29.5853 42.9545 25.1841C42.9528 24.0743 42.8815 22.9657 42.7411 21.8651ZM15.3835 51.095C16.049 51.142 16.6614 51.1756 17.3137 51.1756C21.5417 51.1774 25.7044 50.1183 29.4304 48.0927C33.1564 46.0671 36.3297 43.1381 38.6673 39.5669C25.4651 40.2213 19.2557 45.0844 15.3828 51.0936V51.095H15.3835Z" fill="url(#paint2_radial_551_44602)"/>
<path d="M78.84 44.5V30.74H88V32.66H81.1V36.6H87.06V38.52H81.1V42.58H88V44.5H78.84ZM94.2689 44.5L89.5889 30.74H91.9289L95.7489 42.02H95.8489L99.6289 30.74H101.909L97.2289 44.5H94.2689ZM109.295 44.66C108.202 44.66 107.302 44.6 106.595 44.48C105.889 44.3467 105.329 44.1267 104.915 43.82C104.502 43.5133 104.202 43.0933 104.015 42.56C103.829 42.0267 103.709 41.36 103.655 40.56C103.602 39.7467 103.575 38.7667 103.575 37.62C103.575 36.4733 103.602 35.5 103.655 34.7C103.709 33.8867 103.829 33.2133 104.015 32.68C104.202 32.1467 104.502 31.7267 104.915 31.42C105.329 31.1133 105.889 30.9 106.595 30.78C107.302 30.6467 108.202 30.58 109.295 30.58C110.389 30.58 111.289 30.6467 111.995 30.78C112.715 30.9 113.282 31.1133 113.695 31.42C114.109 31.7267 114.409 32.1467 114.595 32.68C114.795 33.2133 114.922 33.8867 114.975 34.7C115.029 35.5 115.055 36.4733 115.055 37.62C115.055 38.7667 115.029 39.7467 114.975 40.56C114.922 41.36 114.795 42.0267 114.595 42.56C114.409 43.0933 114.109 43.5133 113.695 43.82C113.282 44.1267 112.715 44.3467 111.995 44.48C111.289 44.6 110.389 44.66 109.295 44.66ZM109.295 42.74C109.962 42.74 110.509 42.72 110.935 42.68C111.375 42.64 111.715 42.54 111.955 42.38C112.209 42.22 112.395 41.96 112.515 41.6C112.635 41.2267 112.709 40.7267 112.735 40.1C112.775 39.46 112.795 38.6333 112.795 37.62C112.795 36.6067 112.775 35.7867 112.735 35.16C112.709 34.52 112.635 34.02 112.515 33.66C112.395 33.2867 112.209 33.02 111.955 32.86C111.715 32.7 111.375 32.6 110.935 32.56C110.509 32.52 109.962 32.5 109.295 32.5C108.642 32.5 108.102 32.52 107.675 32.56C107.249 32.6 106.909 32.7 106.655 32.86C106.402 33.02 106.215 33.2867 106.095 33.66C105.989 34.02 105.915 34.52 105.875 35.16C105.849 35.7867 105.835 36.6067 105.835 37.62C105.835 38.6333 105.849 39.46 105.875 40.1C105.915 40.7267 105.989 41.2267 106.095 41.6C106.215 41.96 106.402 42.22 106.655 42.38C106.909 42.54 107.249 42.64 107.675 42.68C108.102 42.72 108.642 42.74 109.295 42.74ZM118.274 44.5V30.74H120.534V42.52H126.634V44.5H118.274ZM134.255 44.66C133.308 44.66 132.515 44.6067 131.875 44.5C131.235 44.38 130.715 44.1867 130.315 43.92C129.928 43.6533 129.628 43.2867 129.415 42.82C129.215 42.34 129.075 41.74 128.995 41.02C128.928 40.3 128.895 39.4333 128.895 38.42V30.74H131.155V39.12C131.155 39.8933 131.182 40.52 131.235 41C131.288 41.48 131.408 41.8467 131.595 42.1C131.782 42.3533 132.088 42.5267 132.515 42.62C132.942 42.7 133.522 42.74 134.255 42.74C135.002 42.74 135.582 42.7 135.995 42.62C136.408 42.5267 136.708 42.3533 136.895 42.1C137.095 41.8467 137.215 41.48 137.255 41C137.308 40.52 137.335 39.8933 137.335 39.12V30.74H139.595V38.42C139.595 39.4333 139.555 40.3 139.475 41.02C139.408 41.74 139.275 42.34 139.075 42.82C138.875 43.2867 138.575 43.6533 138.175 43.92C137.788 44.1867 137.275 44.38 136.635 44.5C135.995 44.6067 135.202 44.66 134.255 44.66ZM145.977 44.5V32.72H141.797V30.74H152.397V32.72H148.237V44.5H145.977ZM154.738 44.5V30.74H156.998V44.5H154.738ZM165.916 44.66C164.823 44.66 163.923 44.6 163.216 44.48C162.51 44.3467 161.95 44.1267 161.536 43.82C161.123 43.5133 160.823 43.0933 160.636 42.56C160.45 42.0267 160.33 41.36 160.276 40.56C160.223 39.7467 160.196 38.7667 160.196 37.62C160.196 36.4733 160.223 35.5 160.276 34.7C160.33 33.8867 160.45 33.2133 160.636 32.68C160.823 32.1467 161.123 31.7267 161.536 31.42C161.95 31.1133 162.51 30.9 163.216 30.78C163.923 30.6467 164.823 30.58 165.916 30.58C167.01 30.58 167.91 30.6467 168.616 30.78C169.336 30.9 169.903 31.1133 170.316 31.42C170.73 31.7267 171.03 32.1467 171.216 32.68C171.416 33.2133 171.543 33.8867 171.596 34.7C171.65 35.5 171.676 36.4733 171.676 37.62C171.676 38.7667 171.65 39.7467 171.596 40.56C171.543 41.36 171.416 42.0267 171.216 42.56C171.03 43.0933 170.73 43.5133 170.316 43.82C169.903 44.1267 169.336 44.3467 168.616 44.48C167.91 44.6 167.01 44.66 165.916 44.66ZM165.916 42.74C166.583 42.74 167.13 42.72 167.556 42.68C167.996 42.64 168.336 42.54 168.576 42.38C168.83 42.22 169.016 41.96 169.136 41.6C169.256 41.2267 169.33 40.7267 169.356 40.1C169.396 39.46 169.416 38.6333 169.416 37.62C169.416 36.6067 169.396 35.7867 169.356 35.16C169.33 34.52 169.256 34.02 169.136 33.66C169.016 33.2867 168.83 33.02 168.576 32.86C168.336 32.7 167.996 32.6 167.556 32.56C167.13 32.52 166.583 32.5 165.916 32.5C165.263 32.5 164.723 32.52 164.296 32.56C163.87 32.6 163.53 32.7 163.276 32.86C163.023 33.02 162.836 33.2867 162.716 33.66C162.61 34.02 162.536 34.52 162.496 35.16C162.47 35.7867 162.456 36.6067 162.456 37.62C162.456 38.6333 162.47 39.46 162.496 40.1C162.536 40.7267 162.61 41.2267 162.716 41.6C162.836 41.96 163.023 42.22 163.276 42.38C163.53 42.54 163.87 42.64 164.296 42.68C164.723 42.72 165.263 42.74 165.916 42.74ZM174.895 44.5V30.74H177.235L183.535 40.26H183.615V30.74H185.775V44.5H183.615L177.135 34.68H177.055V44.5H174.895Z" fill="#3A3A3A"/>
<defs>
<linearGradient id="paint0_linear_551_44602" x1="28.919" y1="28.6246" x2="27.4276" y2="59.0491" gradientUnits="userSpaceOnUse">
<stop stop-color="#62E4B8"/>
<stop offset="1" stop-color="#A8A8A8"/>
</linearGradient>
<linearGradient id="paint1_linear_551_44602" x1="28.919" y1="56.3456" x2="27.4276" y2="86.7702" gradientUnits="userSpaceOnUse">
<stop stop-color="#62E4B8"/>
<stop offset="1" stop-color="#A8A8A8"/>
</linearGradient>
<radialGradient id="paint2_radial_551_44602" cx="0" cy="0" r="1" gradientUnits="userSpaceOnUse" gradientTransform="translate(19.9491 29.2832) scale(30.5718 30.9887)">
<stop stop-color="#2FBE7B"/>
<stop offset="0.99" stop-color="#38DCA8"/>
<stop offset="1" stop-color="#787878"/>
</radialGradient>
</defs>
</svg>
