<svg width="188" height="76" viewBox="0 0 188 76" fill="none" xmlns="http://www.w3.org/2000/svg">
<path d="M49.8226 26.6253C51.4186 25.335 52.2798 22.8131 52.6031 20.8615C52.6056 20.8433 52.614 20.8264 52.6272 20.8136C52.6403 20.8007 52.6574 20.7927 52.6756 20.7907C52.6938 20.7886 52.7122 20.7928 52.7279 20.8024C52.7435 20.812 52.7555 20.8266 52.7618 20.8438L56.5829 30.5228C56.5879 30.5371 56.5881 30.5528 56.5835 30.5673C56.5789 30.5819 56.5697 30.5945 56.5574 30.603C56.5451 30.6115 56.5305 30.6155 56.5159 30.6143C56.5013 30.6131 56.4876 30.6067 56.4771 30.5963C55.0456 29.3001 52.5884 28.0244 50.5956 28.2743C50.4349 28.2939 50.4242 28.3458 50.5633 28.43C54.0463 30.511 54.8017 35.108 51.883 38.0179C49.2994 40.5898 45.0845 41.0806 41.6661 40.0783C38.2292 39.0711 34.7785 38.1149 31.3141 37.2096C31.2953 37.2039 31.2751 37.2049 31.2569 37.2124C31.2388 37.2199 31.2237 37.2334 31.2144 37.2507C31.2051 37.268 31.202 37.288 31.2057 37.3073C31.2094 37.3266 31.2196 37.344 31.2347 37.3566C31.6658 37.725 32.1821 38.0914 32.7837 38.4559C35.4075 40.0489 38.045 41.6205 40.6962 43.1704C44.4819 45.3837 47.7504 50.7625 44.9993 54.9098C43.1269 57.7257 39.7997 58.434 36.7958 56.7263C36.7017 56.6734 36.641 56.6989 36.6135 56.8027C35.4761 61.0558 30.6028 62.6313 27.155 60.0153C26.1028 59.2178 25.2827 58.0754 24.6948 56.5882C23.3016 53.0552 24.1188 50.501 25.2886 46.289C25.7883 44.4902 26.3056 42.6943 26.8405 40.9013C26.8425 40.8935 26.8415 40.8847 26.8376 40.8749C26.8239 40.8455 26.8062 40.8259 26.7847 40.8161C26.7611 40.8043 26.7445 40.8112 26.7347 40.8367C25.0965 45.0104 23.4956 49.1979 21.9319 53.3991C20.6034 56.9712 19.9254 60.5326 19.898 64.0833C19.8941 64.6437 19.7373 65.0767 19.4277 65.3824C19.3504 65.4578 19.247 65.5 19.1396 65.5H17.5466C17.3451 65.5001 17.1515 65.4215 17.0071 65.2809C16.8627 65.1404 16.7789 64.949 16.7735 64.7475C16.6775 61.0539 17.4731 57.5013 19.1602 54.0898C20.624 51.127 22.5972 47.3628 25.0799 42.7972C26.0244 41.061 26.5603 39.7756 26.6877 38.9408C27.205 35.5195 24.8536 33.6414 21.8555 32.4363C18.1442 30.947 14.3908 29.6048 10.5952 28.4095C10.5746 28.4033 10.5557 28.3922 10.5402 28.3772C10.5247 28.3622 10.513 28.3437 10.5061 28.3233C10.4992 28.3029 10.4973 28.2811 10.5005 28.2598C10.5038 28.2385 10.512 28.2183 10.5247 28.2008C14.4897 22.6897 16.8235 17.1697 18.9016 10.5946C18.9329 10.4927 18.9927 10.4731 19.0809 10.5358C24.6596 14.5567 30.1795 16.9375 36.6253 18.8951C36.735 18.9284 36.7585 18.9931 36.6958 19.0891C34.0094 23.1717 31.752 27.0427 30.0325 31.7514C29.817 32.3412 29.672 32.8644 29.5975 33.321C29.5662 33.5091 29.6063 33.5257 29.718 33.3709C31.9137 30.2906 33.6743 26.9222 35.6318 23.6949C38.1831 19.4888 44.6848 16.1116 48.6675 20.7321C50.0744 22.3644 50.4163 24.2994 49.6933 26.5372C49.6384 26.7076 49.6815 26.737 49.8226 26.6253Z" fill="#3A3A3A"/>
<path d="M9.98945 42.6743C8.19944 43.1357 7.22361 46.1955 6.7739 47.7239C6.72491 47.8827 6.67298 47.8836 6.61812 47.7269L3.75234 39.6351C3.74869 39.6219 3.74932 39.6079 3.75414 39.5951C3.75896 39.5823 3.76772 39.5713 3.77915 39.5638C3.79059 39.5563 3.80411 39.5526 3.81778 39.5533C3.83145 39.5539 3.84455 39.5589 3.85521 39.5675C5.34542 40.8813 7.30296 41.8395 9.35457 41.5309C9.36571 41.5292 9.376 41.5239 9.38393 41.5159C9.39186 41.5078 9.39703 41.4975 9.39867 41.4863C9.40031 41.4752 9.39834 41.4638 9.39305 41.4538C9.38776 41.4439 9.37943 41.4359 9.36927 41.431C7.42348 40.5629 6.34085 39.2265 6.12138 37.4218C5.42478 31.6785 13.4548 29.9767 15.3271 35.5084C15.3565 35.5985 15.4104 35.6161 15.4888 35.5613C17.754 34.0152 19.8154 34.0035 21.673 35.526C25.3618 38.5505 22.9016 43.8764 18.3134 43.8294C18.1939 43.8275 18.1528 43.8833 18.19 43.9969C19.0806 46.7452 17.9284 49.3405 15.2654 50.2958C14.2151 50.672 13.1707 50.6446 12.1322 50.2135C9.05183 48.932 8.1818 45.5048 10.0806 42.8095C10.1727 42.6802 10.1423 42.6351 9.98945 42.6743Z" fill="#3A3A3A"/>
<path d="M69.656 44V31.616H77.54V33.344H71.69V37.178H76.874V38.906H71.69V44H69.656ZM79.8865 44V31.616H88.1305V33.344H81.9205V36.89H87.2845V38.618H81.9205V42.272H88.1305V44H79.8865ZM90.8025 44V31.616H92.8365V42.218H98.3265V44H90.8025ZM100.506 44V31.616H102.54V44H100.506ZM104.59 44L109.018 37.79L104.662 31.616H107.038L110.224 36.098H110.368L113.536 31.616H115.858L111.502 37.736L115.912 44H113.536L110.278 39.392H110.134L106.894 44H104.59ZM122.559 44.144C121.671 44.144 120.915 44.09 120.291 43.982C119.679 43.862 119.169 43.664 118.761 43.388C118.353 43.112 118.035 42.734 117.807 42.254C117.591 41.774 117.435 41.174 117.339 40.454C117.255 39.722 117.213 38.84 117.213 37.808C117.213 36.776 117.255 35.9 117.339 35.18C117.435 34.448 117.597 33.842 117.825 33.362C118.053 32.882 118.371 32.504 118.779 32.228C119.187 31.952 119.697 31.76 120.309 31.652C120.933 31.532 121.683 31.472 122.559 31.472C122.955 31.472 123.387 31.49 123.855 31.526C124.335 31.562 124.809 31.61 125.277 31.67C125.745 31.718 126.171 31.778 126.555 31.85V33.47C126.147 33.41 125.745 33.362 125.349 33.326C124.953 33.29 124.587 33.26 124.251 33.236C123.927 33.212 123.657 33.2 123.441 33.2C122.721 33.2 122.115 33.218 121.623 33.254C121.131 33.278 120.729 33.362 120.417 33.506C120.105 33.65 119.865 33.89 119.697 34.226C119.529 34.55 119.409 35 119.337 35.576C119.277 36.152 119.247 36.896 119.247 37.808C119.247 38.612 119.265 39.29 119.301 39.842C119.349 40.382 119.439 40.832 119.571 41.192C119.715 41.54 119.907 41.804 120.147 41.984C120.399 42.164 120.723 42.29 121.119 42.362C121.527 42.434 122.025 42.47 122.613 42.47C122.841 42.47 123.081 42.464 123.333 42.452C123.597 42.44 123.843 42.428 124.071 42.416C124.299 42.392 124.491 42.368 124.647 42.344V38.834H122.217V37.142H126.609V43.766C126.201 43.838 125.751 43.904 125.259 43.964C124.779 44.012 124.305 44.054 123.837 44.09C123.369 44.126 122.943 44.144 122.559 44.144ZM128.46 44L132.888 31.616H135.552L139.98 44H137.874L136.794 40.94H131.574L130.512 44H128.46ZM132.15 39.212H136.2L134.22 33.578H134.13L132.15 39.212ZM142.025 44V31.616H144.797L148.433 40.616H148.523L152.159 31.616H154.931V44H152.969V34.766H152.897L149.153 44H147.713L144.005 34.766H143.933V44H142.025ZM158.25 44V31.616H160.284V44H158.25ZM163.576 44V31.616H165.682L171.352 40.184H171.424V31.616H173.368V44H171.424L165.592 35.162H165.52V44H163.576ZM181.604 44.144C180.716 44.144 179.96 44.09 179.336 43.982C178.724 43.862 178.214 43.664 177.806 43.388C177.398 43.112 177.08 42.734 176.852 42.254C176.636 41.774 176.48 41.174 176.384 40.454C176.3 39.722 176.258 38.84 176.258 37.808C176.258 36.776 176.3 35.9 176.384 35.18C176.48 34.448 176.642 33.842 176.87 33.362C177.098 32.882 177.416 32.504 177.824 32.228C178.232 31.952 178.742 31.76 179.354 31.652C179.978 31.532 180.728 31.472 181.604 31.472C182 31.472 182.432 31.49 182.9 31.526C183.38 31.562 183.854 31.61 184.322 31.67C184.79 31.718 185.216 31.778 185.6 31.85V33.47C185.192 33.41 184.79 33.362 184.394 33.326C183.998 33.29 183.632 33.26 183.296 33.236C182.972 33.212 182.702 33.2 182.486 33.2C181.766 33.2 181.16 33.218 180.668 33.254C180.176 33.278 179.774 33.362 179.462 33.506C179.15 33.65 178.91 33.89 178.742 34.226C178.574 34.55 178.454 35 178.382 35.576C178.322 36.152 178.292 36.896 178.292 37.808C178.292 38.612 178.31 39.29 178.346 39.842C178.394 40.382 178.484 40.832 178.616 41.192C178.76 41.54 178.952 41.804 179.192 41.984C179.444 42.164 179.768 42.29 180.164 42.362C180.572 42.434 181.07 42.47 181.658 42.47C181.886 42.47 182.126 42.464 182.378 42.452C182.642 42.44 182.888 42.428 183.116 42.416C183.344 42.392 183.536 42.368 183.692 42.344V38.834H181.262V37.142H185.654V43.766C185.246 43.838 184.796 43.904 184.304 43.964C183.824 44.012 183.35 44.054 182.882 44.09C182.414 44.126 181.988 44.144 181.604 44.144Z" fill="#3A3A3A"/>
</svg>
