<svg width="188" height="76" viewBox="0 0 188 76" fill="none" xmlns="http://www.w3.org/2000/svg">
<path d="M48.0293 46.7657L51.6964 40.5571L55.3293 46.8314L62.7248 34.3332L59.079 34.3332L62.7146 28.0864H73.4998L55.3006 59.1323L48.0293 46.7657Z" fill="white"/>
<path d="M44.254 40.3439L48.0298 46.7654L51.6968 40.5569L51.6982 40.5545L48.0948 34.3339H55.4055L59.0412 28.0871L44.3081 28.087L41.4448 23.249L61.9208 23.2822L65.5562 17.036L30.5 17L40.7587 34.3339H40.7747L44.254 40.3439Z" fill="#D71A20"/>
<path d="M88.656 44V31.616H96.54V33.344H90.69V37.178H95.874V38.906H90.69V44H88.656ZM103.566 44.144C102.714 44.144 102 44.096 101.424 44C100.848 43.892 100.38 43.718 100.02 43.478C99.6725 43.238 99.4025 42.908 99.2105 42.488C99.0305 42.056 98.9045 41.516 98.8325 40.868C98.7725 40.22 98.7425 39.44 98.7425 38.528V31.616H100.776V39.158C100.776 39.854 100.8 40.418 100.848 40.85C100.896 41.282 101.004 41.612 101.172 41.84C101.34 42.068 101.616 42.224 102 42.308C102.384 42.38 102.906 42.416 103.566 42.416C104.238 42.416 104.76 42.38 105.132 42.308C105.504 42.224 105.774 42.068 105.942 41.84C106.122 41.612 106.23 41.282 106.266 40.85C106.314 40.418 106.338 39.854 106.338 39.158V31.616H108.372V38.528C108.372 39.44 108.336 40.22 108.264 40.868C108.204 41.516 108.084 42.056 107.904 42.488C107.724 42.908 107.454 43.238 107.094 43.478C106.746 43.718 106.284 43.892 105.708 44C105.132 44.096 104.418 44.144 103.566 44.144ZM116.492 44.144C115.604 44.144 114.848 44.09 114.224 43.982C113.612 43.862 113.102 43.664 112.694 43.388C112.286 43.112 111.968 42.734 111.74 42.254C111.524 41.774 111.368 41.174 111.272 40.454C111.188 39.722 111.146 38.84 111.146 37.808C111.146 36.776 111.188 35.9 111.272 35.18C111.368 34.448 111.53 33.842 111.758 33.362C111.986 32.882 112.304 32.504 112.712 32.228C113.12 31.952 113.63 31.76 114.242 31.652C114.866 31.532 115.616 31.472 116.492 31.472C116.888 31.472 117.32 31.49 117.788 31.526C118.268 31.562 118.742 31.61 119.21 31.67C119.678 31.718 120.104 31.778 120.488 31.85V33.47C120.08 33.41 119.678 33.362 119.282 33.326C118.886 33.29 118.52 33.26 118.184 33.236C117.86 33.212 117.59 33.2 117.374 33.2C116.654 33.2 116.048 33.218 115.556 33.254C115.064 33.278 114.662 33.362 114.35 33.506C114.038 33.65 113.798 33.89 113.63 34.226C113.462 34.55 113.342 35 113.27 35.576C113.21 36.152 113.18 36.896 113.18 37.808C113.18 38.612 113.198 39.29 113.234 39.842C113.282 40.382 113.372 40.832 113.504 41.192C113.648 41.54 113.84 41.804 114.08 41.984C114.332 42.164 114.656 42.29 115.052 42.362C115.46 42.434 115.958 42.47 116.546 42.47C116.774 42.47 117.014 42.464 117.266 42.452C117.53 42.44 117.776 42.428 118.004 42.416C118.232 42.392 118.424 42.368 118.58 42.344V38.834H116.15V37.142H120.542V43.766C120.134 43.838 119.684 43.904 119.192 43.964C118.712 44.012 118.238 44.054 117.77 44.09C117.302 44.126 116.876 44.144 116.492 44.144ZM122.394 44L126.822 31.616H129.486L133.914 44H131.808L130.728 40.94H125.508L124.446 44H122.394ZM126.084 39.212H130.134L128.154 33.578H128.064L126.084 39.212ZM140.136 44.144C139.692 44.144 139.2 44.132 138.66 44.108C138.132 44.084 137.61 44.048 137.094 44C136.59 43.964 136.128 43.922 135.708 43.874V42.2C136.14 42.236 136.59 42.272 137.058 42.308C137.538 42.344 137.994 42.374 138.426 42.398C138.858 42.41 139.23 42.416 139.542 42.416C140.178 42.416 140.676 42.386 141.036 42.326C141.396 42.266 141.684 42.17 141.9 42.038C142.044 41.942 142.146 41.822 142.206 41.678C142.278 41.534 142.32 41.366 142.332 41.174C142.356 40.97 142.368 40.748 142.368 40.508C142.368 40.184 142.356 39.914 142.332 39.698C142.308 39.482 142.254 39.314 142.17 39.194C142.086 39.074 141.954 38.99 141.774 38.942C141.594 38.882 141.36 38.834 141.072 38.798L138.12 38.456C137.544 38.384 137.07 38.264 136.698 38.096C136.338 37.916 136.056 37.682 135.852 37.394C135.66 37.106 135.528 36.764 135.456 36.368C135.384 35.972 135.348 35.534 135.348 35.054C135.348 34.25 135.456 33.614 135.672 33.146C135.888 32.678 136.194 32.324 136.59 32.084C136.998 31.832 137.478 31.67 138.03 31.598C138.582 31.514 139.194 31.472 139.866 31.472C140.334 31.472 140.814 31.49 141.306 31.526C141.798 31.55 142.26 31.586 142.692 31.634C143.136 31.67 143.502 31.724 143.79 31.796V33.434C143.49 33.386 143.136 33.344 142.728 33.308C142.332 33.272 141.918 33.248 141.486 33.236C141.054 33.212 140.652 33.2 140.28 33.2C139.656 33.2 139.152 33.23 138.768 33.29C138.396 33.338 138.108 33.422 137.904 33.542C137.664 33.674 137.52 33.86 137.472 34.1C137.424 34.328 137.4 34.616 137.4 34.964C137.4 35.372 137.424 35.69 137.472 35.918C137.532 36.134 137.658 36.284 137.85 36.368C138.054 36.452 138.36 36.518 138.768 36.566L141.72 36.908C142.092 36.944 142.428 37.004 142.728 37.088C143.028 37.16 143.292 37.286 143.52 37.466C143.76 37.646 143.946 37.904 144.078 38.24C144.162 38.408 144.222 38.6 144.258 38.816C144.306 39.032 144.342 39.272 144.366 39.536C144.402 39.788 144.42 40.076 144.42 40.4C144.42 41.084 144.348 41.654 144.204 42.11C144.072 42.566 143.88 42.932 143.628 43.208C143.388 43.472 143.088 43.676 142.728 43.82C142.368 43.952 141.972 44.036 141.54 44.072C141.108 44.12 140.64 44.144 140.136 44.144ZM151.89 44.144C150.906 44.144 150.096 44.09 149.46 43.982C148.824 43.862 148.32 43.664 147.948 43.388C147.576 43.112 147.306 42.734 147.138 42.254C146.97 41.774 146.862 41.174 146.814 40.454C146.766 39.722 146.742 38.84 146.742 37.808C146.742 36.776 146.766 35.9 146.814 35.18C146.862 34.448 146.97 33.842 147.138 33.362C147.306 32.882 147.576 32.504 147.948 32.228C148.32 31.952 148.824 31.76 149.46 31.652C150.096 31.532 150.906 31.472 151.89 31.472C152.874 31.472 153.684 31.532 154.32 31.652C154.968 31.76 155.478 31.952 155.85 32.228C156.222 32.504 156.492 32.882 156.66 33.362C156.84 33.842 156.954 34.448 157.002 35.18C157.05 35.9 157.074 36.776 157.074 37.808C157.074 38.84 157.05 39.722 157.002 40.454C156.954 41.174 156.84 41.774 156.66 42.254C156.492 42.734 156.222 43.112 155.85 43.388C155.478 43.664 154.968 43.862 154.32 43.982C153.684 44.09 152.874 44.144 151.89 44.144ZM151.89 42.416C152.49 42.416 152.982 42.398 153.366 42.362C153.762 42.326 154.068 42.236 154.284 42.092C154.512 41.948 154.68 41.714 154.788 41.39C154.896 41.054 154.962 40.604 154.986 40.04C155.022 39.464 155.04 38.72 155.04 37.808C155.04 36.896 155.022 36.158 154.986 35.594C154.962 35.018 154.896 34.568 154.788 34.244C154.68 33.908 154.512 33.668 154.284 33.524C154.068 33.38 153.762 33.29 153.366 33.254C152.982 33.218 152.49 33.2 151.89 33.2C151.302 33.2 150.816 33.218 150.432 33.254C150.048 33.29 149.742 33.38 149.514 33.524C149.286 33.668 149.118 33.908 149.01 34.244C148.914 34.568 148.848 35.018 148.812 35.594C148.788 36.158 148.776 36.896 148.776 37.808C148.776 38.72 148.788 39.464 148.812 40.04C148.848 40.604 148.914 41.054 149.01 41.39C149.118 41.714 149.286 41.948 149.514 42.092C149.742 42.236 150.048 42.326 150.432 42.362C150.816 42.398 151.302 42.416 151.89 42.416Z" fill="#3A3A3A"/>
</svg>
