<svg width="188" height="76" viewBox="0 0 188 76" fill="none" xmlns="http://www.w3.org/2000/svg">
<path d="M21.6595 26.3768V28.5416C21.6595 32.7771 19.4006 36.8243 13.7533 36.8243C8.10601 36.8243 5 32.9653 5 27.4122C5 21.859 8.10601 18 13.7533 18C17.8946 18 20.5301 20.1648 21.1889 23.4591H17.2358C16.8593 22.1413 15.6357 21.2943 13.7533 21.2943C10.459 21.2943 8.85898 23.8355 8.85898 27.318C8.85898 30.8005 10.459 33.3418 13.7533 33.3418C16.5769 33.3418 17.8005 31.6476 17.8946 29.3887H13.6592V26.2827H21.6595V26.3768Z" fill="#3A3A3A"/>
<path d="M34.9298 31.553H28.0589L26.5529 36.4473H22.7881L28.5295 18.376H34.365L40.1064 36.4473H36.2475L34.9298 31.553ZM29.0001 28.2587H33.8944L32.012 21.9526H30.8825L29.0001 28.2587Z" fill="#3A3A3A"/>
<path d="M42.1777 18.2817H48.0133L51.0252 25.6232H51.684L54.6018 18.2817H60.3432V36.3531H56.8607V22.8937H56.2018L53.19 30.2352H49.4251L46.4132 22.8937H45.7544V36.3531H42.2719L42.1777 18.2817Z" fill="#3A3A3A"/>
<path d="M73.6154 33.0588L73.0507 36.4472H63.9209V18.2817H76.2508L75.592 21.6701H67.6858V25.435H74.9331L74.3684 28.7292H67.6858V32.9647L73.6154 33.0588Z" fill="#3A3A3A"/>
<path d="M16.5769 49.6249C17.7064 50.2837 18.4594 51.5073 18.4594 52.9191C18.4594 56.4016 15.6357 58.0958 12.3415 58.0958H5L8.01189 41.248H14.6945C17.0476 41.248 19.2124 42.5657 19.2124 45.107C19.2124 46.8953 18.2711 48.4013 16.6711 49.1543L16.5769 49.6249ZM12.0591 56.684C14.6004 56.684 16.8593 55.5545 16.8593 52.825C16.8593 50.7543 14.9769 50.0013 13.1886 50.0013H8.01189L6.78831 56.684H12.0591ZM8.29425 48.5895H13.4709C15.7299 48.5895 17.6123 47.7424 17.6123 45.2012C17.6123 43.4128 16.0122 42.6599 14.4122 42.6599H9.32959L8.29425 48.5895Z" fill="#2BDC24"/>
<path d="M27.2126 56.684L26.4596 58.0958H19.8711L22.883 41.248H35.307L34.5541 42.6599H24.2007L23.1653 48.5895H31.448L30.6951 50.0013H22.883L21.6594 56.684H27.2126Z" fill="#2BDC24"/>
<path d="M44.4369 58.0958H42.8368L41.8956 52.6368H34.2717L31.4481 58.0958H29.7539L38.6013 41.248H41.425L44.4369 58.0958ZM35.0247 51.2249H41.6132L40.2014 42.8481H39.2602L35.0247 51.2249Z" fill="#2BDC24"/>
<path d="M57.6136 42.6599H52.0605L49.3309 58.0958H47.7309L50.4604 42.6599H44.9072L45.0955 41.248H57.896L57.6136 42.6599Z" fill="#2BDC24"/>
<path d="M69.1907 58.1899H59.9668L62.9787 41.248H72.2026L69.1907 58.1899Z" fill="url(#paint0_linear_552_1781)"/>
<path d="M64.5794 58.1899H55.3555L58.4615 41.248H67.6854L64.5794 58.1899Z" fill="url(#paint1_linear_552_1781)"/>
<path d="M87.32 44.66C86.3333 44.66 85.4933 44.6 84.8 44.48C84.12 44.3467 83.5533 44.1267 83.1 43.82C82.6467 43.5133 82.2933 43.0933 82.04 42.56C81.8 42.0267 81.6267 41.36 81.52 40.56C81.4267 39.7467 81.38 38.7667 81.38 37.62C81.38 36.4733 81.4267 35.5 81.52 34.7C81.6267 33.8867 81.8067 33.2133 82.06 32.68C82.3133 32.1467 82.6667 31.7267 83.12 31.42C83.5733 31.1133 84.14 30.9 84.82 30.78C85.5133 30.6467 86.3467 30.58 87.32 30.58C87.76 30.58 88.24 30.6 88.76 30.64C89.2933 30.68 89.82 30.7333 90.34 30.8C90.86 30.8533 91.3333 30.92 91.76 31V32.8C91.3067 32.7333 90.86 32.68 90.42 32.64C89.98 32.6 89.5733 32.5667 89.2 32.54C88.84 32.5133 88.54 32.5 88.3 32.5C87.5 32.5 86.8267 32.52 86.28 32.56C85.7333 32.5867 85.2867 32.68 84.94 32.84C84.5933 33 84.3267 33.2667 84.14 33.64C83.9533 34 83.82 34.5 83.74 35.14C83.6733 35.78 83.64 36.6067 83.64 37.62C83.64 38.5133 83.66 39.2667 83.7 39.88C83.7533 40.48 83.8533 40.98 84 41.38C84.16 41.7667 84.3733 42.06 84.64 42.26C84.92 42.46 85.28 42.6 85.72 42.68C86.1733 42.76 86.7267 42.8 87.38 42.8C87.6333 42.8 87.9 42.7933 88.18 42.78C88.4733 42.7667 88.7467 42.7533 89 42.74C89.2533 42.7133 89.4667 42.6867 89.64 42.66V38.76H86.94V36.88H91.82V44.24C91.3667 44.32 90.8667 44.3933 90.32 44.46C89.7867 44.5133 89.26 44.56 88.74 44.6C88.22 44.64 87.7467 44.66 87.32 44.66ZM93.8775 44.5L98.7975 30.74H101.758L106.678 44.5H104.338L103.138 41.1H97.3375L96.1575 44.5H93.8775ZM97.9775 39.18H102.478L100.278 32.92H100.178L97.9775 39.18ZM108.949 44.5V30.74H112.029L116.069 40.74H116.169L120.209 30.74H123.289V44.5H121.109V34.24H121.029L116.869 44.5H115.269L111.149 34.24H111.069V44.5H108.949ZM126.977 44.5V30.74H136.137V32.66H129.237V36.6H135.197V38.52H129.237V42.58H136.137V44.5H126.977ZM139.106 44.5V30.74H145.646C146.552 30.74 147.279 30.88 147.826 31.16C148.372 31.4267 148.772 31.82 149.026 32.34C149.279 32.8467 149.406 33.4667 149.406 34.2C149.406 34.8133 149.319 35.34 149.146 35.78C148.986 36.22 148.732 36.58 148.386 36.86C148.039 37.1267 147.592 37.32 147.046 37.44V37.52C147.686 37.64 148.186 37.8467 148.546 38.14C148.919 38.4333 149.179 38.8067 149.326 39.26C149.472 39.7133 149.546 40.2467 149.546 40.86C149.546 41.38 149.486 41.8667 149.366 42.32C149.246 42.76 149.039 43.14 148.746 43.46C148.466 43.78 148.072 44.0333 147.566 44.22C147.059 44.4067 146.412 44.5 145.626 44.5H139.106ZM141.366 42.6H144.946C145.559 42.6 146.032 42.54 146.366 42.42C146.699 42.2867 146.932 42.0733 147.066 41.78C147.212 41.4733 147.286 41.0667 147.286 40.56C147.286 40.04 147.212 39.6333 147.066 39.34C146.919 39.0333 146.672 38.82 146.326 38.7C145.992 38.5667 145.532 38.5 144.946 38.5H141.366V42.6ZM141.366 36.58H144.866C145.412 36.58 145.846 36.5133 146.166 36.38C146.499 36.2467 146.746 36.04 146.906 35.76C147.066 35.4667 147.146 35.0933 147.146 34.64C147.146 34.1333 147.079 33.74 146.946 33.46C146.812 33.1667 146.586 32.96 146.266 32.84C145.946 32.72 145.479 32.66 144.866 32.66H141.366V36.58ZM152.68 44.5V30.74H161.84V32.66H154.94V36.6H160.9V38.52H154.94V42.58H161.84V44.5H152.68ZM163.409 44.5L168.329 30.74H171.289L176.209 44.5H173.869L172.669 41.1H166.869L165.689 44.5H163.409ZM167.509 39.18H172.009L169.809 32.92H169.709L167.509 39.18ZM180.246 44.5V32.72H176.066V30.74H186.666V32.72H182.506V44.5H180.246Z" fill="#3A3A3A"/>
<defs>
<linearGradient id="paint0_linear_552_1781" x1="66.0847" y1="58.3576" x2="66.0847" y2="42.5739" gradientUnits="userSpaceOnUse">
<stop offset="0.193" stop-color="#2BDC24" stop-opacity="0"/>
<stop offset="1" stop-color="#2BDC24"/>
</linearGradient>
<linearGradient id="paint1_linear_552_1781" x1="61.5204" y1="41.1817" x2="61.5204" y2="59.1153" gradientUnits="userSpaceOnUse">
<stop offset="0.193" stop-color="#2BDC24" stop-opacity="0"/>
<stop offset="1" stop-color="#2BDC24"/>
</linearGradient>
</defs>
</svg>
