<svg width="188" height="76" viewBox="0 0 188 76" fill="none" xmlns="http://www.w3.org/2000/svg">
<g clip-path="url(#clip0_552_1718)">
<path d="M54.3384 24.6405L54.0892 24.25H4.5V53H40.3671L43.6896 48.1188H62.7279L65.9674 52.642L66.2166 52.9837H74.2738L73.3933 51.7309L54.3384 24.6405ZM35.7819 37.5593V45.6945L35.566 45.8735C32.9079 48.1026 28.9208 49.2415 23.937 49.2415C15.0491 49.2415 9.73304 45.2878 9.73304 38.6494C9.63567 35.4697 11.1777 32.4553 13.8364 30.628C16.8087 28.7788 20.2854 27.8594 23.8041 27.9922C28.7879 27.9922 32.2268 28.9522 34.8184 31.0023L35.3002 31.3928L34.9014 31.8646L33.2402 34.0123L32.8415 34.5004L32.3431 34.0937C30.6818 32.6781 28.5055 31.7344 23.8041 31.7344C17.5244 31.7344 14.3514 34.0123 14.3514 38.6169C14.3514 43.2214 17.4414 45.5318 23.8041 45.5318C26.4839 45.7098 29.1608 45.1459 31.529 43.9048V40.8134H21.7275V36.941H35.7985L35.7819 37.5593ZM47.9425 41.9849L53.1257 34.4516L58.4086 41.9849H47.9425Z" fill="#0486D1"/>
<path d="M98.82 44.66C97.8333 44.66 96.9933 44.6 96.3 44.48C95.62 44.3467 95.0533 44.1267 94.6 43.82C94.1467 43.5133 93.7933 43.0933 93.54 42.56C93.3 42.0267 93.1267 41.36 93.02 40.56C92.9267 39.7467 92.88 38.7667 92.88 37.62C92.88 36.4733 92.9267 35.5 93.02 34.7C93.1267 33.8867 93.3067 33.2133 93.56 32.68C93.8133 32.1467 94.1667 31.7267 94.62 31.42C95.0733 31.1133 95.64 30.9 96.32 30.78C97.0133 30.6467 97.8467 30.58 98.82 30.58C99.26 30.58 99.74 30.6 100.26 30.64C100.793 30.68 101.32 30.7333 101.84 30.8C102.36 30.8533 102.833 30.92 103.26 31V32.8C102.807 32.7333 102.36 32.68 101.92 32.64C101.48 32.6 101.073 32.5667 100.7 32.54C100.34 32.5133 100.04 32.5 99.8 32.5C99 32.5 98.3267 32.52 97.78 32.56C97.2333 32.5867 96.7867 32.68 96.44 32.84C96.0933 33 95.8267 33.2667 95.64 33.64C95.4533 34 95.32 34.5 95.24 35.14C95.1733 35.78 95.14 36.6067 95.14 37.62C95.14 38.5133 95.16 39.2667 95.2 39.88C95.2533 40.48 95.3533 40.98 95.5 41.38C95.66 41.7667 95.8733 42.06 96.14 42.26C96.42 42.46 96.78 42.6 97.22 42.68C97.6733 42.76 98.2267 42.8 98.88 42.8C99.1333 42.8 99.4 42.7933 99.68 42.78C99.9733 42.7667 100.247 42.7533 100.5 42.74C100.753 42.7133 100.967 42.6867 101.14 42.66V38.76H98.44V36.88H103.32V44.24C102.867 44.32 102.367 44.3933 101.82 44.46C101.287 44.5133 100.76 44.56 100.24 44.6C99.72 44.64 99.2467 44.66 98.82 44.66ZM105.378 44.5L110.298 30.74H113.258L118.178 44.5H115.838L114.638 41.1H108.838L107.658 44.5H105.378ZM109.478 39.18H113.978L111.778 32.92H111.678L109.478 39.18ZM120.449 44.5V30.74H123.529L127.569 40.74H127.669L131.709 30.74H134.789V44.5H132.609V34.24H132.529L128.369 44.5H126.769L122.649 34.24H122.569V44.5H120.449ZM138.477 44.5V30.74H147.637V32.66H140.737V36.6H146.697V38.52H140.737V42.58H147.637V44.5H138.477ZM149.206 44.5L154.126 30.74H157.086L162.006 44.5H159.666L158.466 41.1H152.666L151.486 44.5H149.206ZM153.306 39.18H157.806L155.606 32.92H155.506L153.306 39.18ZM164.278 44.5V30.74H170.698C171.564 30.74 172.264 30.84 172.798 31.04C173.331 31.24 173.731 31.5333 173.998 31.92C174.264 32.2933 174.444 32.7467 174.538 33.28C174.631 33.8 174.678 34.3733 174.678 35C174.678 35.4533 174.631 35.9533 174.538 36.5C174.458 37.0333 174.271 37.5267 173.978 37.98C173.698 38.42 173.251 38.74 172.638 38.94L174.898 44.5H172.498L170.298 38.88L170.878 39.18C170.784 39.22 170.671 39.2467 170.538 39.26C170.418 39.26 170.271 39.26 170.098 39.26H166.538V44.5H164.278ZM166.538 37.34H169.738C170.364 37.34 170.858 37.3 171.218 37.22C171.578 37.1267 171.844 36.9867 172.018 36.8C172.191 36.6133 172.298 36.3733 172.338 36.08C172.391 35.7867 172.418 35.4267 172.418 35C172.418 34.56 172.391 34.1933 172.338 33.9C172.298 33.5933 172.198 33.3533 172.038 33.18C171.878 32.9933 171.618 32.86 171.258 32.78C170.911 32.7 170.431 32.66 169.818 32.66H166.538V37.34ZM180.692 44.5V32.72H176.512V30.74H187.112V32.72H182.952V44.5H180.692Z" fill="#3A3A3A"/>
</g>
<defs>
<clipPath id="clip0_552_1718">
<rect width="188" height="76" fill="white"/>
</clipPath>
</defs>
</svg>
