<svg width="188" height="76" viewBox="0 0 188 76" fill="none" xmlns="http://www.w3.org/2000/svg">
<path d="M14.5 38C14.5 53.1878 26.8137 65.5 42.0034 65.5C56.987 65.5 69.1721 53.5197 69.5 38.6166H54.7067H50.7466H41.8801V47.0022C36.9758 47.0022 33 43.027 33 38.1233C33 33.2196 36.9758 29.2444 41.8801 29.2444C46.0655 29.2444 49.5746 32.1397 50.5134 36.0364V11.8417C47.8337 10.9708 44.9735 10.5 42.0034 10.5C26.8137 10.5 14.5 22.8122 14.5 38Z" fill="#A7CE3D"/>
<path d="M90.588 44.144C89.7 44.144 88.944 44.09 88.32 43.982C87.708 43.862 87.198 43.664 86.79 43.388C86.382 43.112 86.064 42.734 85.836 42.254C85.62 41.774 85.464 41.174 85.368 40.454C85.284 39.722 85.242 38.84 85.242 37.808C85.242 36.776 85.284 35.9 85.368 35.18C85.464 34.448 85.626 33.842 85.854 33.362C86.082 32.882 86.4 32.504 86.808 32.228C87.216 31.952 87.726 31.76 88.338 31.652C88.962 31.532 89.712 31.472 90.588 31.472C90.984 31.472 91.416 31.49 91.884 31.526C92.364 31.562 92.838 31.61 93.306 31.67C93.774 31.718 94.2 31.778 94.584 31.85V33.47C94.176 33.41 93.774 33.362 93.378 33.326C92.982 33.29 92.616 33.26 92.28 33.236C91.956 33.212 91.686 33.2 91.47 33.2C90.75 33.2 90.144 33.218 89.652 33.254C89.16 33.278 88.758 33.362 88.446 33.506C88.134 33.65 87.894 33.89 87.726 34.226C87.558 34.55 87.438 35 87.366 35.576C87.306 36.152 87.276 36.896 87.276 37.808C87.276 38.612 87.294 39.29 87.33 39.842C87.378 40.382 87.468 40.832 87.6 41.192C87.744 41.54 87.936 41.804 88.176 41.984C88.428 42.164 88.752 42.29 89.148 42.362C89.556 42.434 90.054 42.47 90.642 42.47C90.87 42.47 91.11 42.464 91.362 42.452C91.626 42.44 91.872 42.428 92.1 42.416C92.328 42.392 92.52 42.368 92.676 42.344V38.834H90.246V37.142H94.638V43.766C94.23 43.838 93.78 43.904 93.288 43.964C92.808 44.012 92.334 44.054 91.866 44.09C91.398 44.126 90.972 44.144 90.588 44.144ZM96.4898 44L100.918 31.616H103.582L108.01 44H105.904L104.824 40.94H99.6038L98.5418 44H96.4898ZM100.18 39.212H104.23L102.25 33.578H102.16L100.18 39.212ZM110.054 44V31.616H112.826L116.462 40.616H116.552L120.188 31.616H122.96V44H120.998V34.766H120.926L117.182 44H115.742L112.034 34.766H111.962V44H110.054ZM131.013 44.144C130.029 44.144 129.219 44.09 128.583 43.982C127.947 43.862 127.443 43.664 127.071 43.388C126.699 43.112 126.429 42.734 126.261 42.254C126.093 41.774 125.985 41.174 125.937 40.454C125.889 39.722 125.865 38.84 125.865 37.808C125.865 36.776 125.889 35.9 125.937 35.18C125.985 34.448 126.093 33.842 126.261 33.362C126.429 32.882 126.699 32.504 127.071 32.228C127.443 31.952 127.947 31.76 128.583 31.652C129.219 31.532 130.029 31.472 131.013 31.472C131.997 31.472 132.807 31.532 133.443 31.652C134.091 31.76 134.601 31.952 134.973 32.228C135.345 32.504 135.615 32.882 135.783 33.362C135.963 33.842 136.077 34.448 136.125 35.18C136.173 35.9 136.197 36.776 136.197 37.808C136.197 38.84 136.173 39.722 136.125 40.454C136.077 41.174 135.963 41.774 135.783 42.254C135.615 42.734 135.345 43.112 134.973 43.388C134.601 43.664 134.091 43.862 133.443 43.982C132.807 44.09 131.997 44.144 131.013 44.144ZM131.013 42.416C131.613 42.416 132.105 42.398 132.489 42.362C132.885 42.326 133.191 42.236 133.407 42.092C133.635 41.948 133.803 41.714 133.911 41.39C134.019 41.054 134.085 40.604 134.109 40.04C134.145 39.464 134.163 38.72 134.163 37.808C134.163 36.896 134.145 36.158 134.109 35.594C134.085 35.018 134.019 34.568 133.911 34.244C133.803 33.908 133.635 33.668 133.407 33.524C133.191 33.38 132.885 33.29 132.489 33.254C132.105 33.218 131.613 33.2 131.013 33.2C130.425 33.2 129.939 33.218 129.555 33.254C129.171 33.29 128.865 33.38 128.637 33.524C128.409 33.668 128.241 33.908 128.133 34.244C128.037 34.568 127.971 35.018 127.935 35.594C127.911 36.158 127.899 36.896 127.899 37.808C127.899 38.72 127.911 39.464 127.935 40.04C127.971 40.604 128.037 41.054 128.133 41.39C128.241 41.714 128.409 41.948 128.637 42.092C128.865 42.236 129.171 42.326 129.555 42.362C129.939 42.398 130.425 42.416 131.013 42.416ZM139.094 44V31.616H141.866L145.502 40.616H145.592L149.228 31.616H152V44H150.038V34.766H149.966L146.222 44H144.782L141.074 34.766H141.002V44H139.094ZM154.058 44L158.486 31.616H161.15L165.578 44H163.472L162.392 40.94H157.172L156.11 44H154.058ZM157.748 39.212H161.798L159.818 33.578H159.728L157.748 39.212ZM169.212 44V33.398H165.45V31.616H174.99V33.398H171.246V44H169.212Z" fill="#3A3A3A"/>
</svg>
