<svg width="188" height="76" viewBox="0 0 188 76" fill="none" xmlns="http://www.w3.org/2000/svg">
<path d="M72.5672 37.5934H50.6593V45.2311H63.2818C62.2848 47.5026 60.626 49.4314 58.5154 50.7732C56.3117 51.9994 53.8059 52.599 51.2769 52.5055C49.2277 52.5548 47.1891 52.2001 45.281 51.4622C43.3748 50.7253 41.6376 49.6195 40.1722 48.2102C38.7259 46.8821 37.5765 45.2713 36.7976 43.4808C36.0198 41.6927 35.63 39.7642 35.6531 37.8189C35.6199 35.9212 35.9889 34.0374 36.7365 32.2881C37.4849 30.5369 38.5948 28.9583 39.9958 27.6526C41.4113 26.2767 43.0942 25.1966 44.9437 24.4772C46.7951 23.7567 48.7749 23.4113 50.7649 23.4615C53.2114 23.4671 55.6282 23.9823 57.8561 24.9738C60.0824 25.9638 62.07 27.408 63.6876 29.2111L69.5134 23.5475C67.2532 21.0113 64.4736 18.9753 61.3575 17.5735C58.0022 16.1944 54.3998 15.4935 50.7643 15.5122C47.4438 15.404 44.1399 16.0169 41.0867 17.3074C38.0372 18.5962 35.3138 20.5319 33.1106 22.9767C32.1408 24.0471 31.2775 25.2069 30.5328 26.44C30.2924 27.4026 29.9491 28.3373 29.5088 29.2285C28.9852 30.0871 28.5871 31.0141 28.3261 31.9821C27.8687 33.9665 27.6202 35.9919 27.5846 38.0265C27.5542 39.0421 27.6311 40.058 27.814 41.0579C27.991 42.0444 28.2907 42.9972 28.5561 43.9499C28.9419 45.8713 29.7035 47.7003 30.7983 49.3351C31.3847 49.9049 31.8629 50.5735 32.2105 51.3092L32.3343 51.4307C32.9166 52.1584 33.605 52.8339 34.258 53.5088C34.9234 54.2078 35.6247 54.8727 36.3592 55.5009C37.0502 56.0569 37.7953 56.5443 38.5836 56.9559C39.386 57.4788 40.2304 57.9362 41.1084 58.3237C41.8499 58.5835 42.5206 58.9817 43.2621 59.2241C43.6542 59.3197 44.0589 59.3546 44.4625 59.3282C44.8369 59.3406 45.2091 59.3867 45.5744 59.4665C46.369 59.6055 47.1459 59.8304 47.9576 59.8996C48.7699 59.9688 49.8116 59.8996 50.7295 59.8996C52.563 59.8771 54.3901 59.6803 56.1848 59.3108C57.9002 59.0289 59.5652 58.504 61.1281 57.7523C62.6292 57.0733 64.0209 56.1806 65.2585 55.1027C66.4146 53.9779 67.4389 52.7288 68.3124 51.3789C68.7542 50.686 69.2662 49.9931 69.6721 49.2833C70.0145 48.5736 70.2977 47.8379 70.5197 47.0843C70.8023 46.3048 71.1727 45.5601 71.4553 44.7632C71.7378 43.9662 71.985 43.2559 72.3024 42.5287C72.3344 42.4459 72.3896 42.3737 72.4616 42.3206C72.6029 41.3633 72.6737 40.3971 72.6734 39.4297V37.698L72.5672 37.5934Z" fill="#3A3A3A"/>
<path d="M67.9253 47.1359C64.4027 50.0505 60.3097 52.2204 55.9003 53.5111C51.2069 54.6547 46.3555 55.036 41.5374 54.64C36.2915 54.2231 33.0448 53.1288 33.3836 53.4763C34.925 55.1347 36.7333 56.5313 38.7358 57.61C42.4954 59.5778 46.7015 60.5701 50.9579 60.4935C54.8511 60.5893 58.702 59.6791 62.1273 57.8533C65.3603 56.0166 68.0343 53.3593 69.8706 50.1583C71.3312 47.7412 72.2838 45.0595 72.6716 42.2725C71.261 44.0364 69.6903 45.6702 67.979 47.1535L67.9253 47.1359Z" fill="url(#paint0_linear_729_10275)"/>
<path d="M32.5501 22.9323C30.6925 25.0545 29.2695 27.5111 28.3599 30.1665C26.9771 33.991 26.6415 38.107 27.3869 42.1C27.7936 44.3895 28.5697 46.6 29.6855 48.6478C30.4757 50.1034 31.4372 51.4622 32.5501 52.6961C34.0434 54.5449 35.8357 56.1386 37.855 57.4131C39.8498 58.6237 42.0468 59.4759 44.3438 59.9302C41.7742 57.6934 39.5679 55.0815 37.8018 52.1857C36.0802 49.3106 34.7934 46.2035 33.9821 42.9624C32.9694 38.5582 32.7363 34.0148 33.293 29.5325C33.9827 24.5517 34.8667 20.6265 34.8667 20.6265C34.0134 21.3352 33.2153 22.1059 32.479 22.9323H32.5501Z" fill="url(#paint1_linear_729_10275)"/>
<path d="M98.8199 44.6601C97.8332 44.6601 96.9932 44.6001 96.2999 44.4801C95.6199 44.3468 95.0532 44.1268 94.5999 43.8201C94.1466 43.5134 93.7932 43.0934 93.5399 42.5601C93.2999 42.0268 93.1266 41.3601 93.0199 40.5601C92.9266 39.7468 92.8799 38.7668 92.8799 37.6201C92.8799 36.4734 92.9266 35.5001 93.0199 34.7001C93.1266 33.8868 93.3066 33.2134 93.5599 32.6801C93.8132 32.1468 94.1666 31.7268 94.6199 31.4201C95.0732 31.1134 95.6399 30.9001 96.3199 30.7801C97.0132 30.6468 97.8466 30.5801 98.8199 30.5801C99.2599 30.5801 99.7399 30.6001 100.26 30.6401C100.793 30.6801 101.32 30.7334 101.84 30.8001C102.36 30.8534 102.833 30.9201 103.26 31.0001V32.8001C102.807 32.7334 102.36 32.6801 101.92 32.6401C101.48 32.6001 101.073 32.5668 100.7 32.5401C100.34 32.5134 100.04 32.5001 99.7999 32.5001C98.9999 32.5001 98.3266 32.5201 97.7799 32.5601C97.2332 32.5868 96.7866 32.6801 96.4399 32.8401C96.0932 33.0001 95.8266 33.2668 95.6399 33.6401C95.4532 34.0001 95.3199 34.5001 95.2399 35.1401C95.1732 35.7801 95.1399 36.6068 95.1399 37.6201C95.1399 38.5134 95.1599 39.2668 95.1999 39.8801C95.2532 40.4801 95.3532 40.9801 95.4999 41.3801C95.6599 41.7668 95.8732 42.0601 96.1399 42.2601C96.4199 42.4601 96.7799 42.6001 97.2199 42.6801C97.6732 42.7601 98.2266 42.8001 98.8799 42.8001C99.1332 42.8001 99.3999 42.7934 99.6799 42.7801C99.9732 42.7668 100.247 42.7534 100.5 42.7401C100.753 42.7134 100.967 42.6868 101.14 42.6601V38.7601H98.4399V36.8801H103.32V44.2401C102.867 44.3201 102.367 44.3934 101.82 44.4601C101.287 44.5134 100.76 44.5601 100.24 44.6001C99.7199 44.6401 99.2466 44.6601 98.8199 44.6601ZM105.378 44.5001L110.298 30.7401H113.258L118.178 44.5001H115.838L114.638 41.1001H108.838L107.658 44.5001H105.378ZM109.478 39.1801H113.978L111.778 32.9201H111.678L109.478 39.1801ZM120.449 44.5001V30.7401H123.529L127.569 40.7401H127.669L131.709 30.7401H134.789V44.5001H132.609V34.2401H132.529L128.369 44.5001H126.769L122.649 34.2401H122.569V44.5001H120.449ZM137.637 44.5001V42.6801L144.897 32.6601H137.857V30.7401H147.757V32.5201L140.457 42.6001H147.857V44.5001H137.637ZM150.664 44.5001V30.7401H152.924V44.5001H150.664ZM155.202 44.5001L160.122 37.6001L155.282 30.7401H157.922L161.462 35.7201H161.622L165.142 30.7401H167.722L162.882 37.5401L167.782 44.5001H165.142L161.522 39.3801H161.362L157.762 44.5001H155.202Z" fill="#3A3A3A"/>
<defs>
<linearGradient id="paint0_linear_729_10275" x1="35.3815" y1="57.593" x2="73.7795" y2="48.5638" gradientUnits="userSpaceOnUse">
<stop stop-color="#352711"/>
<stop offset="0.01" stop-color="#352711"/>
<stop offset="1" stop-color="#F2A50A"/>
</linearGradient>
<linearGradient id="paint1_linear_729_10275" x1="30.6227" y1="24.7277" x2="36.968" y2="56.6498" gradientUnits="userSpaceOnUse">
<stop stop-color="#352711"/>
<stop offset="0.01" stop-color="#352711"/>
<stop offset="1" stop-color="#F2A50A"/>
</linearGradient>
</defs>
</svg>
