<svg width="188" height="76" viewBox="0 0 188 76" fill="none" xmlns="http://www.w3.org/2000/svg">
<path fill-rule="evenodd" clip-rule="evenodd" d="M68.5 38C68.5 50.4264 58.4264 60.5 46 60.5C33.5736 60.5 23.5 50.4264 23.5 38C23.5 25.5736 33.5736 15.5 46 15.5C58.4264 15.5 68.5 25.5736 68.5 38ZM46.4856 57.2626C57.2134 57.2626 65.9101 48.566 65.9101 37.8381C65.9101 33.2667 64.3309 29.0641 61.6883 25.7461C60.6705 26.0306 59.3797 26.4488 57.9127 26.9985C52.3987 29.0648 44.3951 32.9888 39.0395 38.6475C39.687 39.8129 42.223 42.2626 43.41 43.3417C46.4316 40.428 54.1582 34.2446 60.8921 32.8201C61.2805 33.7266 61.3777 35.2482 61.3777 35.8957C61.3777 39.2975 60.0824 42.4005 57.9524 44.7493C57.1176 45.6699 56.1546 46.4747 55.0912 47.1362C53.0208 48.4241 50.5697 49.1691 47.9424 49.1691C40.5224 49.1691 34.5072 43.2264 34.5072 35.8957C34.5072 28.565 40.5224 22.6223 47.9424 22.6223C49.9731 22.6223 51.8985 23.0674 53.6241 23.8641C55.6218 22.956 57.0131 22.352 57.7764 22.0303C54.5945 19.7536 50.6965 18.4137 46.4856 18.4137C35.7578 18.4137 27.0612 27.1103 27.0612 37.8381C27.0612 48.566 35.7578 57.2626 46.4856 57.2626Z" fill="#79A6F4"/>
<path d="M95.32 45.16C94.3333 45.16 93.4933 45.1 92.8 44.98C92.12 44.8467 91.5533 44.6267 91.1 44.32C90.6467 44.0133 90.2933 43.5933 90.04 43.06C89.8 42.5267 89.6267 41.86 89.52 41.06C89.4267 40.2467 89.38 39.2667 89.38 38.12C89.38 36.9733 89.4267 36 89.52 35.2C89.6267 34.3867 89.8067 33.7133 90.06 33.18C90.3133 32.6467 90.6667 32.2267 91.12 31.92C91.5733 31.6133 92.14 31.4 92.82 31.28C93.5133 31.1467 94.3467 31.08 95.32 31.08C95.76 31.08 96.24 31.1 96.76 31.14C97.2933 31.18 97.82 31.2333 98.34 31.3C98.86 31.3533 99.3333 31.42 99.76 31.5V33.3C99.3067 33.2333 98.86 33.18 98.42 33.14C97.98 33.1 97.5733 33.0667 97.2 33.04C96.84 33.0133 96.54 33 96.3 33C95.5 33 94.8267 33.02 94.28 33.06C93.7333 33.0867 93.2867 33.18 92.94 33.34C92.5933 33.5 92.3267 33.7667 92.14 34.14C91.9533 34.5 91.82 35 91.74 35.64C91.6733 36.28 91.64 37.1067 91.64 38.12C91.64 39.0133 91.66 39.7667 91.7 40.38C91.7533 40.98 91.8533 41.48 92 41.88C92.16 42.2667 92.3733 42.56 92.64 42.76C92.92 42.96 93.28 43.1 93.72 43.18C94.1733 43.26 94.7267 43.3 95.38 43.3C95.6333 43.3 95.9 43.2933 96.18 43.28C96.4733 43.2667 96.7467 43.2533 97 43.24C97.2533 43.2133 97.4667 43.1867 97.64 43.16V39.26H94.94V37.38H99.82V44.74C99.3667 44.82 98.8667 44.8933 98.32 44.96C97.7867 45.0133 97.26 45.06 96.74 45.1C96.22 45.14 95.7467 45.16 95.32 45.16ZM103.278 45V31.24H112.438V33.16H105.538V37.1H111.498V39.02H105.538V43.08H112.438V45H103.278ZM115.406 45V31.24H117.746L124.046 40.76H124.126V31.24H126.286V45H124.126L117.646 35.18H117.566V45H115.406ZM129.957 45V31.24H139.117V33.16H132.217V37.1H138.177V39.02H132.217V43.08H139.117V45H129.957ZM146.766 45.16C146.273 45.16 145.726 45.1467 145.126 45.12C144.539 45.0933 143.959 45.0533 143.386 45C142.826 44.96 142.313 44.9133 141.846 44.86V43C142.326 43.04 142.826 43.08 143.346 43.12C143.879 43.16 144.386 43.1933 144.866 43.22C145.346 43.2333 145.759 43.24 146.106 43.24C146.813 43.24 147.366 43.2067 147.766 43.14C148.166 43.0733 148.486 42.9667 148.726 42.82C148.886 42.7133 148.999 42.58 149.066 42.42C149.146 42.26 149.193 42.0733 149.206 41.86C149.233 41.6333 149.246 41.3867 149.246 41.12C149.246 40.76 149.233 40.46 149.206 40.22C149.179 39.98 149.119 39.7933 149.026 39.66C148.933 39.5267 148.786 39.4333 148.586 39.38C148.386 39.3133 148.126 39.26 147.806 39.22L144.526 38.84C143.886 38.76 143.359 38.6267 142.946 38.44C142.546 38.24 142.233 37.98 142.006 37.66C141.793 37.34 141.646 36.96 141.566 36.52C141.486 36.08 141.446 35.5933 141.446 35.06C141.446 34.1667 141.566 33.46 141.806 32.94C142.046 32.42 142.386 32.0267 142.826 31.76C143.279 31.48 143.813 31.3 144.426 31.22C145.039 31.1267 145.719 31.08 146.466 31.08C146.986 31.08 147.519 31.1 148.066 31.14C148.613 31.1667 149.126 31.2067 149.606 31.26C150.099 31.3 150.506 31.36 150.826 31.44V33.26C150.493 33.2067 150.099 33.16 149.646 33.12C149.206 33.08 148.746 33.0533 148.266 33.04C147.786 33.0133 147.339 33 146.926 33C146.233 33 145.673 33.0333 145.246 33.1C144.833 33.1533 144.513 33.2467 144.286 33.38C144.019 33.5267 143.859 33.7333 143.806 34C143.753 34.2533 143.726 34.5733 143.726 34.96C143.726 35.4133 143.753 35.7667 143.806 36.02C143.873 36.26 144.013 36.4267 144.226 36.52C144.453 36.6133 144.793 36.6867 145.246 36.74L148.526 37.12C148.939 37.16 149.313 37.2267 149.646 37.32C149.979 37.4 150.273 37.54 150.526 37.74C150.793 37.94 150.999 38.2267 151.146 38.6C151.239 38.7867 151.306 39 151.346 39.24C151.399 39.48 151.439 39.7467 151.466 40.04C151.506 40.32 151.526 40.64 151.526 41C151.526 41.76 151.446 42.3933 151.286 42.9C151.139 43.4067 150.926 43.8133 150.646 44.12C150.379 44.4133 150.046 44.64 149.646 44.8C149.246 44.9467 148.806 45.04 148.326 45.08C147.846 45.1333 147.326 45.16 146.766 45.16ZM154.567 45V31.24H156.827V45H154.567ZM165.165 45.16C164.671 45.16 164.125 45.1467 163.525 45.12C162.938 45.0933 162.358 45.0533 161.785 45C161.225 44.96 160.711 44.9133 160.245 44.86V43C160.725 43.04 161.225 43.08 161.745 43.12C162.278 43.16 162.785 43.1933 163.265 43.22C163.745 43.2333 164.158 43.24 164.505 43.24C165.211 43.24 165.765 43.2067 166.165 43.14C166.565 43.0733 166.885 42.9667 167.125 42.82C167.285 42.7133 167.398 42.58 167.465 42.42C167.545 42.26 167.591 42.0733 167.605 41.86C167.631 41.6333 167.645 41.3867 167.645 41.12C167.645 40.76 167.631 40.46 167.605 40.22C167.578 39.98 167.518 39.7933 167.425 39.66C167.331 39.5267 167.185 39.4333 166.985 39.38C166.785 39.3133 166.525 39.26 166.205 39.22L162.925 38.84C162.285 38.76 161.758 38.6267 161.345 38.44C160.945 38.24 160.631 37.98 160.405 37.66C160.191 37.34 160.045 36.96 159.965 36.52C159.885 36.08 159.845 35.5933 159.845 35.06C159.845 34.1667 159.965 33.46 160.205 32.94C160.445 32.42 160.785 32.0267 161.225 31.76C161.678 31.48 162.211 31.3 162.825 31.22C163.438 31.1267 164.118 31.08 164.865 31.08C165.385 31.08 165.918 31.1 166.465 31.14C167.011 31.1667 167.525 31.2067 168.005 31.26C168.498 31.3 168.905 31.36 169.225 31.44V33.26C168.891 33.2067 168.498 33.16 168.045 33.12C167.605 33.08 167.145 33.0533 166.665 33.04C166.185 33.0133 165.738 33 165.325 33C164.631 33 164.071 33.0333 163.645 33.1C163.231 33.1533 162.911 33.2467 162.685 33.38C162.418 33.5267 162.258 33.7333 162.205 34C162.151 34.2533 162.125 34.5733 162.125 34.96C162.125 35.4133 162.151 35.7667 162.205 36.02C162.271 36.26 162.411 36.4267 162.625 36.52C162.851 36.6133 163.191 36.6867 163.645 36.74L166.925 37.12C167.338 37.16 167.711 37.2267 168.045 37.32C168.378 37.4 168.671 37.54 168.925 37.74C169.191 37.94 169.398 38.2267 169.545 38.6C169.638 38.7867 169.705 39 169.745 39.24C169.798 39.48 169.838 39.7467 169.865 40.04C169.905 40.32 169.925 40.64 169.925 41C169.925 41.76 169.845 42.3933 169.685 42.9C169.538 43.4067 169.325 43.8133 169.045 44.12C168.778 44.4133 168.445 44.64 168.045 44.8C167.645 44.9467 167.205 45.04 166.725 45.08C166.245 45.1333 165.725 45.16 165.165 45.16Z" fill="#3A3A3A"/>
</svg>
