<svg width="188" height="76" viewBox="0 0 188 76" fill="none" xmlns="http://www.w3.org/2000/svg">
<path d="M46.125 37.2027C46.125 37.2027 46.0172 37.2566 45.9094 37.3105L52.0547 23.4028H26.1799V31.9739H26.6111H28.9291V38.2269H39.0095V31.9739H42.2977V47.2292H39.0095V41.4613H28.9291V41.5152H28.8752V47.1753H26.126V55.6924H36.9071C37.1228 55.9619 37.3384 56.2315 37.6079 56.5549C39.2251 58.4955 40.8962 59.5197 42.5673 60.0588C43.4837 60.3822 44.5079 60.5439 45.6399 60.5439C45.6938 60.5439 45.8016 60.5439 45.8555 60.5439C45.9633 60.5439 46.0711 60.5439 46.1789 60.5439C53.5101 60.5439 58.3078 55.4229 58.3078 48.7386C58.2539 39.9519 50.6531 37.2027 46.125 37.2027Z" fill="#EFB432"/>
<path d="M53.2945 27.6073L51.4617 32.1893L51.2461 32.7283V32.7822C53.8336 32.9979 62.6202 34.9385 63.1054 45.2884C63.2671 49.2774 62.2968 53.2665 60.0328 55.8H83.7513V47.229L73.6709 47.1751C72.6467 47.1212 71.5686 47.0134 70.6522 46.636C69.7358 46.2587 68.9272 45.6118 68.2264 45.0189C67.5796 44.3181 66.9866 43.4556 66.6093 42.5392C66.2319 41.6228 66.1241 40.5447 66.0702 39.4666C66.1241 38.4423 66.2319 37.3642 66.6093 36.5017C66.9327 35.6392 67.6335 34.8846 68.2803 34.2377C68.9811 33.6447 69.7897 33.0518 70.5983 32.6744C71.5147 32.351 72.485 32.1354 73.5631 32.0815H83.6435V23.4565H66.771L64.6147 27.6073H53.2945Z" fill="#EFB432"/>
<path d="M69.4121 39.6279C69.4121 42.7544 72.5386 43.8865 74.4793 43.8865H81.4331V41.5146H74.1558H73.455V38.3342H83.6972V35.3154H74.4793C72.1074 35.3693 69.4121 36.1779 69.4121 39.6279Z" fill="#EFB432"/>
<path d="M98.84 45V31.24H101.1V37.08H107.46V31.24H109.72V45H107.46V39.06H101.1V45H98.84ZM113.391 45V31.24H115.651V45H113.391ZM124.789 45.16C123.802 45.16 122.962 45.1 122.269 44.98C121.589 44.8467 121.022 44.6267 120.569 44.32C120.115 44.0133 119.762 43.5933 119.509 43.06C119.269 42.5267 119.095 41.86 118.989 41.06C118.895 40.2467 118.849 39.2667 118.849 38.12C118.849 36.9733 118.895 36 118.989 35.2C119.095 34.3867 119.275 33.7133 119.529 33.18C119.782 32.6467 120.135 32.2267 120.589 31.92C121.042 31.6133 121.609 31.4 122.289 31.28C122.982 31.1467 123.815 31.08 124.789 31.08C125.229 31.08 125.709 31.1 126.229 31.14C126.762 31.18 127.289 31.2333 127.809 31.3C128.329 31.3533 128.802 31.42 129.229 31.5V33.3C128.775 33.2333 128.329 33.18 127.889 33.14C127.449 33.1 127.042 33.0667 126.669 33.04C126.309 33.0133 126.009 33 125.769 33C124.969 33 124.295 33.02 123.749 33.06C123.202 33.0867 122.755 33.18 122.409 33.34C122.062 33.5 121.795 33.7667 121.609 34.14C121.422 34.5 121.289 35 121.209 35.64C121.142 36.28 121.109 37.1067 121.109 38.12C121.109 39.0133 121.129 39.7667 121.169 40.38C121.222 40.98 121.322 41.48 121.469 41.88C121.629 42.2667 121.842 42.56 122.109 42.76C122.389 42.96 122.749 43.1 123.189 43.18C123.642 43.26 124.195 43.3 124.849 43.3C125.102 43.3 125.369 43.2933 125.649 43.28C125.942 43.2667 126.215 43.2533 126.469 43.24C126.722 43.2133 126.935 43.1867 127.109 43.16V39.26H124.409V37.38H129.289V44.74C128.835 44.82 128.335 44.8933 127.789 44.96C127.255 45.0133 126.729 45.06 126.209 45.1C125.689 45.14 125.215 45.16 124.789 45.16ZM132.746 45V31.24H135.006V37.08H141.366V31.24H143.626V45H141.366V39.06H135.006V45H132.746ZM156.061 45.16C155.635 45.16 155.161 45.14 154.641 45.1C154.135 45.0733 153.635 45.0333 153.141 44.98C152.648 44.9267 152.208 44.86 151.821 44.78V43C152.315 43.04 152.808 43.08 153.301 43.12C153.795 43.16 154.261 43.1933 154.701 43.22C155.155 43.2333 155.541 43.24 155.861 43.24C156.528 43.24 157.075 43.2067 157.501 43.14C157.928 43.06 158.255 42.9333 158.481 42.76C158.721 42.5733 158.888 42.3333 158.981 42.04C159.075 41.7333 159.121 41.3467 159.121 40.88C159.121 40.36 159.068 39.9467 158.961 39.64C158.868 39.32 158.688 39.0867 158.421 38.94C158.168 38.7933 157.815 38.7 157.361 38.66C156.921 38.6067 156.355 38.58 155.661 38.58C155.355 38.58 154.995 38.5933 154.581 38.62C154.168 38.6333 153.735 38.66 153.281 38.7C152.828 38.7267 152.395 38.7667 151.981 38.82V31.24H160.401V33.18H154.041V36.82C154.295 36.7933 154.595 36.7667 154.941 36.74C155.288 36.7133 155.635 36.6933 155.981 36.68C156.328 36.6667 156.635 36.66 156.901 36.66C157.848 36.66 158.615 36.7467 159.201 36.92C159.788 37.08 160.241 37.3333 160.561 37.68C160.895 38.0133 161.121 38.4333 161.241 38.94C161.361 39.4333 161.421 40.0067 161.421 40.66C161.421 41.46 161.341 42.1533 161.181 42.74C161.035 43.3133 160.768 43.78 160.381 44.14C159.995 44.4867 159.448 44.7467 158.741 44.92C158.048 45.08 157.155 45.16 156.061 45.16Z" fill="#3A3A3A"/>
</svg>
