<svg width="188" height="76" viewBox="0 0 188 76" fill="none" xmlns="http://www.w3.org/2000/svg">
<path d="M26.2903 29.9336H21.125V54.0632H26.2903V29.9336Z" fill="#3A3A3A"/>
<path d="M26.2903 22.0479H21.125V27.3464H26.2903V22.0479Z" fill="#3A3A3A"/>
<path d="M84.6784 33.4164V28.0681H35.7069C30.5663 28.0681 29.6272 32.0151 29.8002 33.9886V48.7276C29.8002 52.9764 33.0377 54.1795 34.6565 54.2499H61.6075V39.6852C61.6075 37.1279 59.8776 36.3891 59.0125 36.3393H39.4141V41.2026H56.7512V49.3246H37.1774C35.2793 49.3246 34.706 47.8901 34.6565 47.1728V35.0707C34.6565 33.409 36.3372 32.9769 37.1774 32.9686H66.5381V54.2499H71.7033V33.4164H84.6784Z" fill="#BA1D2E"/>
<path d="M29.7988 25.1064V22.7468C29.7988 22.0823 30.2444 21.75 31.1355 21.75H33.6727L34.1154 22.0024V22.3304H31.144C30.8262 22.3304 30.6672 22.4503 30.6672 22.6901V25.1632C30.6672 25.403 30.8262 25.5228 31.144 25.5228H33.4173V24.1222H32.0635V23.5418H34.2857V26.1033H31.1355C30.2444 26.1033 29.7988 25.771 29.7988 25.1064Z" fill="#3A3A3A"/>
<path d="M35.0176 25.9708L36.8907 21.75H38.2784L40.1429 25.9708L40.0323 26.1033H39.3086L38.8658 25.0686H36.3031L35.8604 26.1033H35.1368L35.0176 25.9708ZM36.55 24.4882H38.6189L37.6739 22.3304H37.4951L36.55 24.4882Z" fill="#3A3A3A"/>
<path d="M41.0586 26.1033V21.75H42.1569L44.047 24.7405L45.9456 21.75H47.0439V26.1033H46.1754V22.7847L44.4641 25.4913H43.6383L41.927 22.7847V26.1033H41.0586Z" fill="#3A3A3A"/>
<path d="M48.5332 26.1033V21.75H49.4016V26.1033H48.5332Z" fill="#3A3A3A"/>
<path d="M50.8955 26.1033V21.75H51.849L54.7097 25.0812V21.75H55.5781V26.1033H54.6246L51.7639 22.7721V26.1033H50.8955Z" fill="#3A3A3A"/>
<path d="M56.9795 25.1064V22.7468C56.9795 22.0823 57.425 21.75 58.3161 21.75H60.8533L61.296 22.0024V22.3304H58.3247C58.0068 22.3304 57.8479 22.4503 57.8479 22.6901V25.1632C57.8479 25.403 58.0068 25.5228 58.3247 25.5228H60.5978V24.1222H59.2442V23.5418H61.4663V26.1033H58.3161C57.425 26.1033 56.9795 25.771 56.9795 25.1064Z" fill="#3A3A3A"/>
<path d="M64.2852 22.3304V21.75H68.9678V22.3304H67.0607V26.1033H66.1923V22.3304H64.2852Z" fill="#3A3A3A"/>
<path d="M69.9189 26.1033V21.75H73.8013V22.3304H70.7873V23.5418H73.5458V24.1222H70.7873V25.5228H73.8013V26.1033H69.9189Z" fill="#3A3A3A"/>
<path d="M74.8887 25.1064V22.7468C74.8887 22.0823 75.3342 21.75 76.2253 21.75H78.5922L79.0264 22.0024V22.3304H76.2339C75.916 22.3304 75.7571 22.4503 75.7571 22.6901V25.1632C75.7571 25.403 75.916 25.5228 76.2339 25.5228H79.0264V25.8509L78.5922 26.1033H76.2253C75.3342 26.1033 74.8887 25.771 74.8887 25.1064Z" fill="#3A3A3A"/>
<path d="M80.2031 26.1033V21.75H81.0715V23.5418H83.8216V21.75H84.69V26.1033H83.8216V24.1222H81.0715V26.1033H80.2031Z" fill="#3A3A3A"/>
<path d="M103.715 44.5V30.74H105.975V44.5H103.715ZM115.113 44.66C114.126 44.66 113.286 44.6 112.593 44.48C111.913 44.3467 111.346 44.1267 110.893 43.82C110.44 43.5133 110.086 43.0933 109.833 42.56C109.593 42.0267 109.42 41.36 109.313 40.56C109.22 39.7467 109.173 38.7667 109.173 37.62C109.173 36.4733 109.22 35.5 109.313 34.7C109.42 33.8867 109.6 33.2133 109.853 32.68C110.106 32.1467 110.46 31.7267 110.913 31.42C111.366 31.1133 111.933 30.9 112.613 30.78C113.306 30.6467 114.14 30.58 115.113 30.58C115.553 30.58 116.033 30.6 116.553 30.64C117.086 30.68 117.613 30.7333 118.133 30.8C118.653 30.8533 119.126 30.92 119.553 31V32.8C119.1 32.7333 118.653 32.68 118.213 32.64C117.773 32.6 117.366 32.5667 116.993 32.54C116.633 32.5133 116.333 32.5 116.093 32.5C115.293 32.5 114.62 32.52 114.073 32.56C113.526 32.5867 113.08 32.68 112.733 32.84C112.386 33 112.12 33.2667 111.933 33.64C111.746 34 111.613 34.5 111.533 35.14C111.466 35.78 111.433 36.6067 111.433 37.62C111.433 38.5133 111.453 39.2667 111.493 39.88C111.546 40.48 111.646 40.98 111.793 41.38C111.953 41.7667 112.166 42.06 112.433 42.26C112.713 42.46 113.073 42.6 113.513 42.68C113.966 42.76 114.52 42.8 115.173 42.8C115.426 42.8 115.693 42.7933 115.973 42.78C116.266 42.7667 116.54 42.7533 116.793 42.74C117.046 42.7133 117.26 42.6867 117.433 42.66V38.76H114.733V36.88H119.613V44.24C119.16 44.32 118.66 44.3933 118.113 44.46C117.58 44.5133 117.053 44.56 116.533 44.6C116.013 44.64 115.54 44.66 115.113 44.66ZM125.91 44.5V32.72H121.73V30.74H132.33V32.72H128.17V44.5H125.91ZM134.672 44.5V30.74H143.832V32.66H136.932V36.6H142.892V38.52H136.932V42.58H143.832V44.5H134.672ZM151.981 44.66C150.994 44.66 150.168 44.6 149.501 44.48C148.834 44.3467 148.288 44.1267 147.861 43.82C147.448 43.5133 147.128 43.1 146.901 42.58C146.688 42.0467 146.541 41.3733 146.461 40.56C146.381 39.7467 146.341 38.7667 146.341 37.62C146.341 36.4733 146.381 35.4933 146.461 34.68C146.541 33.8667 146.688 33.2 146.901 32.68C147.128 32.1467 147.448 31.7267 147.861 31.42C148.288 31.1133 148.834 30.9 149.501 30.78C150.168 30.6467 150.994 30.58 151.981 30.58C152.368 30.58 152.761 30.5933 153.161 30.62C153.574 30.6467 153.968 30.6867 154.341 30.74C154.714 30.78 155.034 30.8333 155.301 30.9V32.7C154.968 32.66 154.634 32.6267 154.301 32.6C153.981 32.56 153.668 32.5333 153.361 32.52C153.054 32.5067 152.788 32.5 152.561 32.5C151.828 32.5 151.221 32.5267 150.741 32.58C150.261 32.6333 149.874 32.7533 149.581 32.94C149.301 33.1267 149.088 33.4067 148.941 33.78C148.808 34.14 148.714 34.6333 148.661 35.26C148.621 35.8867 148.601 36.6733 148.601 37.62C148.601 38.5533 148.621 39.34 148.661 39.98C148.714 40.6067 148.808 41.1067 148.941 41.48C149.088 41.84 149.301 42.1133 149.581 42.3C149.874 42.4867 150.261 42.6067 150.741 42.66C151.221 42.7133 151.828 42.74 152.561 42.74C153.001 42.74 153.481 42.72 154.001 42.68C154.534 42.64 154.994 42.5933 155.381 42.54V44.38C155.088 44.4333 154.741 44.48 154.341 44.52C153.954 44.56 153.554 44.5933 153.141 44.62C152.741 44.6467 152.354 44.66 151.981 44.66ZM158.266 44.5V30.74H160.526V36.58H166.886V30.74H169.146V44.5H166.886V38.56H160.526V44.5H158.266Z" fill="#3A3A3A"/>
</svg>
