<svg width="188" height="76" viewBox="0 0 188 76" fill="none" xmlns="http://www.w3.org/2000/svg">
<path d="M41.8228 15.5H18.1772C12.2803 15.5 7.5 20.4131 7.5 26.4738V50.7762C7.5 56.8369 12.2803 61.75 18.1772 61.75H41.8228C47.7197 61.75 52.5 56.8369 52.5 50.7762V26.4738C52.5 20.4131 47.7197 15.5 41.8228 15.5Z" fill="#ED1438"/>
<path d="M30.0005 45.1474C33.5053 45.1474 36.3466 42.2272 36.3466 38.625C36.3466 35.0227 33.5053 32.1025 30.0005 32.1025C26.4956 32.1025 23.6543 35.0227 23.6543 38.625C23.6543 42.2272 26.4956 45.1474 30.0005 45.1474Z" fill="white"/>
<path d="M73.84 44.5V30.74H76.1V44.5H73.84ZM79.758 44.5V30.74H82.098L88.398 40.26H88.478V30.74H90.638V44.5H88.478L81.998 34.68H81.918V44.5H79.758ZM94.3088 44.5V30.74H103.069V32.66H96.5688V36.92H102.329V38.84H96.5688V44.5H94.3088ZM105.676 44.5V30.74H107.936V44.5H105.676ZM111.594 44.5V30.74H113.934L120.234 40.26H120.314V30.74H122.474V44.5H120.314L113.834 34.68H113.754V44.5H111.594ZM131.625 44.66C130.638 44.66 129.798 44.6 129.105 44.48C128.425 44.3467 127.858 44.1267 127.405 43.82C126.951 43.5133 126.598 43.0933 126.345 42.56C126.105 42.0267 125.931 41.36 125.825 40.56C125.731 39.7467 125.685 38.7667 125.685 37.62C125.685 36.4733 125.731 35.5 125.825 34.7C125.931 33.8867 126.111 33.2133 126.365 32.68C126.618 32.1467 126.971 31.7267 127.425 31.42C127.878 31.1133 128.445 30.9 129.125 30.78C129.818 30.6467 130.651 30.58 131.625 30.58C132.065 30.58 132.545 30.6 133.065 30.64C133.598 30.68 134.125 30.7333 134.645 30.8C135.165 30.8533 135.638 30.92 136.065 31V32.8C135.611 32.7333 135.165 32.68 134.725 32.64C134.285 32.6 133.878 32.5667 133.505 32.54C133.145 32.5133 132.845 32.5 132.605 32.5C131.805 32.5 131.131 32.52 130.585 32.56C130.038 32.5867 129.591 32.68 129.245 32.84C128.898 33 128.631 33.2667 128.445 33.64C128.258 34 128.125 34.5 128.045 35.14C127.978 35.78 127.945 36.6067 127.945 37.62C127.945 38.5133 127.965 39.2667 128.005 39.88C128.058 40.48 128.158 40.98 128.305 41.38C128.465 41.7667 128.678 42.06 128.945 42.26C129.225 42.46 129.585 42.6 130.025 42.68C130.478 42.76 131.031 42.8 131.685 42.8C131.938 42.8 132.205 42.7933 132.485 42.78C132.778 42.7667 133.051 42.7533 133.305 42.74C133.558 42.7133 133.771 42.6867 133.945 42.66V38.76H131.245V36.88H136.125V44.24C135.671 44.32 135.171 44.3933 134.625 44.46C134.091 44.5133 133.565 44.56 133.045 44.6C132.525 44.64 132.051 44.66 131.625 44.66ZM138.182 44.5L143.102 30.74H146.062L150.982 44.5H148.642L147.442 41.1H141.642L140.462 44.5H138.182ZM142.282 39.18H146.782L144.582 32.92H144.482L142.282 39.18ZM153.254 44.5V30.74H156.334L160.374 40.74H160.474L164.514 30.74H167.594V44.5H165.414V34.24H165.334L161.174 44.5H159.574L155.454 34.24H155.374V44.5H153.254ZM171.281 44.5V30.74H180.441V32.66H173.541V36.6H179.501V38.52H173.541V42.58H180.441V44.5H171.281ZM183.41 44.5V30.74H185.67V44.5H183.41Z" fill="#3A3A3A"/>
</svg>
