<svg width="188" height="76" viewBox="0 0 188 76" fill="none" xmlns="http://www.w3.org/2000/svg">
<path d="M21.978 55.2279C21.8704 55.0135 21.6917 54.7756 21.5131 54.6329C21.3585 54.513 21.0722 54.3582 20.6199 54.3582C19.8345 54.3582 19.2859 54.8467 19.2859 55.5863C19.2859 55.8959 19.3695 56.0748 19.5836 56.2778C19.8212 56.5157 20.1195 56.6476 20.416 56.7783L21.178 57.1119C21.6429 57.3149 22.0712 57.5287 22.4043 57.8624C22.8085 58.2677 22.9751 58.7327 22.9751 59.3042C22.9751 60.7709 21.8919 61.7484 20.4635 61.7484C19.9396 61.7484 19.2853 61.6405 18.738 61.1039C18.3446 60.722 18.1064 60.1746 18 59.6975L18.8571 59.459C18.916 59.8764 19.1066 60.2342 19.3321 60.4721C19.678 60.8178 20.0701 60.9136 20.4755 60.9136C21.5593 60.9136 22.0712 60.1384 22.0712 59.3398C22.0712 58.982 21.9635 58.6724 21.6778 58.4104C21.4516 58.1948 21.1419 58.0527 20.7257 57.8617L20.0112 57.5281C19.7021 57.3853 19.3081 57.2185 18.9514 56.8728C18.6062 56.5391 18.4035 56.1693 18.4035 55.573C18.4035 54.3455 19.3442 53.5241 20.6294 53.5241C21.1172 53.5241 21.5099 53.6192 21.9027 53.8812C22.2238 54.0963 22.4981 54.4179 22.6761 54.7629L21.9774 55.2286L21.978 55.2279ZM27.3579 54.4889V61.6057H26.4774V54.4889H24.5479V53.6547H29.2855V54.4889H27.3579V54.4889ZM32.6668 58.5297C32.6668 59.197 32.6668 59.924 33.2983 60.4607C33.6195 60.7353 34.1674 60.9142 34.6077 60.9142C35.0479 60.9142 35.5958 60.7353 35.917 60.4607C36.5485 59.9246 36.5485 59.1977 36.5485 58.5297V53.6547H37.429V58.7682C37.429 59.4356 37.3575 60.0794 36.9292 60.6757C36.4542 61.331 35.6199 61.749 34.6083 61.749C33.5967 61.749 32.7631 61.3316 32.2874 60.6757C31.8591 60.0794 31.7876 59.4362 31.7876 58.7682V53.6554H32.6687V58.531H32.6668V58.5297ZM40.785 53.6547H42.4041C43.2023 53.6547 44.3323 53.7385 45.3319 54.5841C46.0585 55.1924 46.6887 56.2055 46.6887 57.6359C46.6887 59.3055 45.8672 60.1987 45.2958 60.6878C44.5692 61.3081 43.8078 61.6057 42.3921 61.6057H40.785V53.6547ZM41.6668 60.7715H42.4396C43.0711 60.7715 43.9402 60.6998 44.7137 60.0559C45.3091 59.5554 45.7854 58.7689 45.7854 57.6365C45.7854 55.7291 44.452 54.4889 42.4409 54.4889H41.668V60.7715H41.6668V60.7715ZM50.4976 53.6547V61.6057H49.6165V53.6547H50.497H50.4976ZM53.4254 57.6359C53.4254 55.2635 55.2707 53.5234 57.5555 53.5234C59.8403 53.5234 61.6856 55.2641 61.6856 57.6365C61.6856 59.9963 59.8524 61.749 57.5555 61.749C55.2586 61.749 53.4254 59.9963 53.4254 57.6365V57.6359ZM54.3294 57.6359C54.3294 59.4597 55.7698 60.9142 57.5555 60.9142C59.3418 60.9142 60.7816 59.4597 60.7816 57.6365C60.7816 55.8122 59.3418 54.3582 57.5555 54.3582C55.7692 54.3582 54.33 55.8128 54.33 57.6365L54.3294 57.6359Z" fill="#3A3A3A"/>
<path d="M26.9526 14.6116V31.1014H23.1526V14.6116H26.9526ZM22.0041 14.583V31.1014H18.2041V14.583H22.0041V14.583ZM57.9034 14.5754V24.541C57.9034 24.541 51.6 17.4471 50.7353 16.6472C49.0415 15.0829 46.9245 14.25 44.3578 14.25C41.0765 14.25 39.0229 15.5599 37.9125 16.6713C36.4321 18.1538 35.3686 20.5503 35.3686 22.9228C35.3686 25.3441 36.3542 27.5681 37.9334 29.0506C39.1667 30.2368 41.2628 31.4719 44.347 31.4719C47.1107 31.4719 49.1834 30.5331 50.7131 29.0506C51.8588 27.9381 52.6632 26.521 53.0316 24.966L58.3823 31.1002H61.6103V14.5761H57.9034V14.5754ZM47.9494 26.5551C47.1595 27.3461 45.9756 27.9633 44.2976 27.9633C43.0149 27.9633 41.831 27.6182 40.7693 26.6052C39.7577 25.6169 39.2643 24.4065 39.2643 22.8987C39.2643 21.0705 40.0041 19.8602 40.7199 19.1681C41.6074 18.2787 42.8914 17.7598 44.3223 17.7598C45.8268 17.7598 47.1348 18.3771 47.9488 19.1681C48.6887 19.909 49.3804 21.1701 49.3804 22.874C49.3804 24.7757 48.5911 25.9379 47.9494 26.5551V26.5551Z" fill="#3A3A3A"/>
<path d="M31.5722 24.345C32.4314 24.1303 33.2214 23.6985 33.8665 23.0909C34.9275 22.0531 35.1492 20.7711 35.1492 19.7326C35.1492 17.9044 34.4087 16.6941 33.7176 16.028C32.9277 15.2865 31.6209 14.5703 29.523 14.5703H23.155V17.4934H28.4385C28.9326 17.4934 29.9189 17.5035 30.5352 17.973C30.8564 18.2197 31.3004 18.7805 31.3004 19.7193C31.3004 20.5344 30.9552 21.0153 30.6841 21.2862C30.043 21.9294 29.1049 21.9649 28.4138 21.9649H27.534V24.6311L31.9902 31.0805H36.629L31.5715 24.345H31.5722ZM54.0671 41.485V44.7519H58.3536C58.0141 46.0422 57.228 46.7102 57.0975 46.8155C56.7047 47.1561 55.7888 47.7549 54.0614 47.7549C52.7261 47.7549 51.5738 47.4124 50.528 46.3905C49.2231 45.1154 48.7632 43.5315 48.5548 42.2869C48.7632 41.0435 49.2237 39.4615 50.528 38.1864C51.5745 37.1626 52.7267 36.8251 54.0614 36.8251C55.7888 36.8251 56.7047 37.4322 57.0975 37.7722C57.2153 37.8667 57.8589 38.4313 58.2364 39.4792L61.6329 37.8287C61.2383 36.9894 60.7322 36.1984 60.0981 35.5368C58.1604 33.5189 55.9459 33.1516 53.8783 33.1516C51.7841 33.1516 49.5329 33.4923 47.4913 35.5894C47.1682 35.9225 46.8705 36.2809 46.6038 36.6615L46.5988 36.6551L46.5975 36.6704L46.5798 36.6957C46.3434 36.3345 46.0698 35.9992 45.7632 35.6954C44.0099 33.9915 41.7326 33.1523 39.0107 33.1523C35.5293 33.1523 33.3579 34.5427 32.179 35.7214C31.8927 36.0068 31.6241 36.383 31.3739 36.8175L31.3384 36.7554L31.3365 36.7547L31.3384 36.7522C31.1135 36.4759 30.871 36.2145 30.6125 35.9694C28.4658 33.8989 26.0314 33.5741 23.7289 33.5741H18.1748V51.0294H23.8581C25.3245 51.0294 28.3346 50.8455 30.7424 48.4077C30.9324 48.2174 31.1123 48.0169 31.2827 47.8089C31.5582 48.1825 31.8566 48.532 32.1784 48.853C33.3572 50.031 35.5287 51.4221 39.0094 51.4221C41.7314 51.4221 44.0086 50.5829 45.762 48.879C46.069 48.5747 46.3431 48.2387 46.5798 47.8767L46.5969 47.9021L46.5975 47.918L46.6026 47.911C46.8699 48.2916 47.1663 48.65 47.4906 48.983C49.5329 51.0802 51.7829 51.4208 53.8777 51.4208C55.9452 51.4208 58.1382 51.0536 60.0753 49.0357C62.013 47.0172 62.7396 43.7928 62.7396 41.6696V41.4838H54.0677V41.4844L54.0671 41.485ZM28.9725 43.4617C28.8078 43.9203 28.3289 45.5474 27.2875 46.4247C25.9801 47.5272 24.1469 47.5894 23.3089 47.5894H22.2105V36.9279H23.3089C24.539 36.9279 26.2405 37.1245 27.5492 38.4345C28.2301 39.1164 28.8509 40.3616 29.115 42.1962C29.1391 42.3763 29.1676 42.5552 29.1987 42.7328C29.1112 43.0367 29.0352 43.286 28.9725 43.4629V43.4617ZM43.6653 45.0761C43.4428 45.4901 43.162 45.8699 42.8317 46.204C41.9676 47.0426 40.5798 47.6985 38.9841 47.6985C37.4657 47.6985 36.1045 47.1479 35.1619 46.204C34.9593 46.0063 34.7749 45.7908 34.6108 45.5601L34.6184 45.5595C34.6184 45.5595 33.8076 44.3948 33.2844 42.2862C33.8082 40.177 34.6184 39.013 34.6184 39.013L34.6108 39.0111C34.7749 38.7802 34.9592 38.5645 35.1619 38.3672C36.1038 37.424 37.4651 36.8727 38.9841 36.8727C40.5804 36.8727 41.9676 37.528 42.8317 38.3672C43.1619 38.7014 43.4426 39.0812 43.6653 39.4951C44.0838 40.1847 44.3922 40.9355 44.5793 41.7204C44.6237 41.9094 44.6648 42.0972 44.7041 42.285C44.6649 42.4739 44.6233 42.6623 44.5793 42.8502C44.3923 43.6353 44.0839 44.3863 43.6653 45.0761V45.0761Z" fill="#3A3A3A"/>
<path d="M54.0658 41.4831V44.7512H58.3523C58.0122 46.0408 57.2267 46.7088 57.0962 46.8141C56.7035 47.1541 55.7875 47.7536 54.0601 47.7536C52.7248 47.7536 51.5726 47.411 50.5267 46.3891C49.2218 45.1141 48.762 43.5301 48.5536 42.2855C48.5174 42.4986 48.4889 42.7016 48.4649 42.8919C48.2907 44.1251 47.6287 46.3047 46.5791 47.876L46.5962 47.9008L46.5975 47.916L46.6025 47.9096C46.9098 48.3461 47.2182 48.7026 47.49 48.9817C49.5322 51.0788 51.7829 51.4195 53.877 51.4195C55.9446 51.4195 58.1376 51.0516 60.0747 49.0343C62.0117 47.0158 62.7389 43.7914 62.7389 41.6683V41.4824H54.0658V41.4837V41.4831Z" fill="#3A3A3A"/>
<path d="M84.34 44.5V30.74H86.6V44.5H84.34ZM90.258 44.5V30.74H96.678C97.5446 30.74 98.2446 30.84 98.778 31.04C99.3113 31.24 99.7113 31.5333 99.978 31.92C100.245 32.2933 100.425 32.7467 100.518 33.28C100.611 33.8 100.658 34.3733 100.658 35C100.658 35.4533 100.611 35.9533 100.518 36.5C100.438 37.0333 100.251 37.5267 99.958 37.98C99.678 38.42 99.2313 38.74 98.618 38.94L100.878 44.5H98.478L96.278 38.88L96.858 39.18C96.7646 39.22 96.6513 39.2467 96.518 39.26C96.398 39.26 96.2513 39.26 96.078 39.26H92.518V44.5H90.258ZM92.518 37.34H95.718C96.3446 37.34 96.838 37.3 97.198 37.22C97.558 37.1267 97.8246 36.9867 97.998 36.8C98.1713 36.6133 98.278 36.3733 98.318 36.08C98.3713 35.7867 98.398 35.4267 98.398 35C98.398 34.56 98.3713 34.1933 98.318 33.9C98.278 33.5933 98.178 33.3533 98.018 33.18C97.858 32.9933 97.598 32.86 97.238 32.78C96.8913 32.7 96.4113 32.66 95.798 32.66H92.518V37.34ZM109.092 44.66C107.999 44.66 107.099 44.6 106.392 44.48C105.686 44.3467 105.126 44.1267 104.712 43.82C104.299 43.5133 103.999 43.0933 103.812 42.56C103.626 42.0267 103.506 41.36 103.452 40.56C103.399 39.7467 103.372 38.7667 103.372 37.62C103.372 36.4733 103.399 35.5 103.452 34.7C103.506 33.8867 103.626 33.2133 103.812 32.68C103.999 32.1467 104.299 31.7267 104.712 31.42C105.126 31.1133 105.686 30.9 106.392 30.78C107.099 30.6467 107.999 30.58 109.092 30.58C110.186 30.58 111.086 30.6467 111.792 30.78C112.512 30.9 113.079 31.1133 113.492 31.42C113.906 31.7267 114.206 32.1467 114.392 32.68C114.592 33.2133 114.719 33.8867 114.772 34.7C114.826 35.5 114.852 36.4733 114.852 37.62C114.852 38.7667 114.826 39.7467 114.772 40.56C114.719 41.36 114.592 42.0267 114.392 42.56C114.206 43.0933 113.906 43.5133 113.492 43.82C113.079 44.1267 112.512 44.3467 111.792 44.48C111.086 44.6 110.186 44.66 109.092 44.66ZM109.092 42.74C109.759 42.74 110.306 42.72 110.732 42.68C111.172 42.64 111.512 42.54 111.752 42.38C112.006 42.22 112.192 41.96 112.312 41.6C112.432 41.2267 112.506 40.7267 112.532 40.1C112.572 39.46 112.592 38.6333 112.592 37.62C112.592 36.6067 112.572 35.7867 112.532 35.16C112.506 34.52 112.432 34.02 112.312 33.66C112.192 33.2867 112.006 33.02 111.752 32.86C111.512 32.7 111.172 32.6 110.732 32.56C110.306 32.52 109.759 32.5 109.092 32.5C108.439 32.5 107.899 32.52 107.472 32.56C107.046 32.6 106.706 32.7 106.452 32.86C106.199 33.02 106.012 33.2867 105.892 33.66C105.786 34.02 105.712 34.52 105.672 35.16C105.646 35.7867 105.632 36.6067 105.632 37.62C105.632 38.6333 105.646 39.46 105.672 40.1C105.712 40.7267 105.786 41.2267 105.892 41.6C106.012 41.96 106.199 42.22 106.452 42.38C106.706 42.54 107.046 42.64 107.472 42.68C107.899 42.72 108.439 42.74 109.092 42.74ZM118.07 44.5V30.74H120.41L126.71 40.26H126.79V30.74H128.95V44.5H126.79L120.31 34.68H120.23V44.5H118.07ZM137.445 44.5V30.74H141.945C143.105 30.74 144.052 30.8 144.785 30.92C145.532 31.0267 146.119 31.2267 146.545 31.52C146.972 31.8133 147.279 32.22 147.465 32.74C147.665 33.26 147.792 33.92 147.845 34.72C147.899 35.52 147.925 36.4867 147.925 37.62C147.925 38.7533 147.899 39.72 147.845 40.52C147.792 41.32 147.665 41.98 147.465 42.5C147.279 43.02 146.972 43.4267 146.545 43.72C146.119 44.0133 145.532 44.22 144.785 44.34C144.052 44.4467 143.105 44.5 141.945 44.5H137.445ZM139.705 42.58H141.745C142.492 42.58 143.105 42.5667 143.585 42.54C144.079 42.5 144.465 42.4067 144.745 42.26C145.025 42.1 145.232 41.8467 145.365 41.5C145.499 41.1533 145.579 40.6667 145.605 40.04C145.645 39.4 145.665 38.5933 145.665 37.62C145.665 36.6467 145.645 35.8467 145.605 35.22C145.579 34.5933 145.492 34.1067 145.345 33.76C145.212 33.4 144.999 33.1467 144.705 33C144.425 32.84 144.045 32.7467 143.565 32.72C143.085 32.68 142.479 32.66 141.745 32.66H139.705V42.58ZM156.416 44.66C155.323 44.66 154.423 44.6 153.716 44.48C153.01 44.3467 152.45 44.1267 152.036 43.82C151.623 43.5133 151.323 43.0933 151.136 42.56C150.95 42.0267 150.83 41.36 150.776 40.56C150.723 39.7467 150.696 38.7667 150.696 37.62C150.696 36.4733 150.723 35.5 150.776 34.7C150.83 33.8867 150.95 33.2133 151.136 32.68C151.323 32.1467 151.623 31.7267 152.036 31.42C152.45 31.1133 153.01 30.9 153.716 30.78C154.423 30.6467 155.323 30.58 156.416 30.58C157.51 30.58 158.41 30.6467 159.116 30.78C159.836 30.9 160.403 31.1133 160.816 31.42C161.23 31.7267 161.53 32.1467 161.716 32.68C161.916 33.2133 162.043 33.8867 162.096 34.7C162.15 35.5 162.176 36.4733 162.176 37.62C162.176 38.7667 162.15 39.7467 162.096 40.56C162.043 41.36 161.916 42.0267 161.716 42.56C161.53 43.0933 161.23 43.5133 160.816 43.82C160.403 44.1267 159.836 44.3467 159.116 44.48C158.41 44.6 157.51 44.66 156.416 44.66ZM156.416 42.74C157.083 42.74 157.63 42.72 158.056 42.68C158.496 42.64 158.836 42.54 159.076 42.38C159.33 42.22 159.516 41.96 159.636 41.6C159.756 41.2267 159.83 40.7267 159.856 40.1C159.896 39.46 159.916 38.6333 159.916 37.62C159.916 36.6067 159.896 35.7867 159.856 35.16C159.83 34.52 159.756 34.02 159.636 33.66C159.516 33.2867 159.33 33.02 159.076 32.86C158.836 32.7 158.496 32.6 158.056 32.56C157.63 32.52 157.083 32.5 156.416 32.5C155.763 32.5 155.223 32.52 154.796 32.56C154.37 32.6 154.03 32.7 153.776 32.86C153.523 33.02 153.336 33.2867 153.216 33.66C153.11 34.02 153.036 34.52 152.996 35.16C152.97 35.7867 152.956 36.6067 152.956 37.62C152.956 38.6333 152.97 39.46 152.996 40.1C153.036 40.7267 153.11 41.2267 153.216 41.6C153.336 41.96 153.523 42.22 153.776 42.38C154.03 42.54 154.37 42.64 154.796 42.68C155.223 42.72 155.763 42.74 156.416 42.74ZM170.875 44.66C169.888 44.66 169.048 44.6 168.355 44.48C167.675 44.3467 167.108 44.1267 166.655 43.82C166.201 43.5133 165.848 43.0933 165.595 42.56C165.355 42.0267 165.181 41.36 165.075 40.56C164.981 39.7467 164.935 38.7667 164.935 37.62C164.935 36.4733 164.981 35.5 165.075 34.7C165.181 33.8867 165.361 33.2133 165.615 32.68C165.868 32.1467 166.221 31.7267 166.675 31.42C167.128 31.1133 167.695 30.9 168.375 30.78C169.068 30.6467 169.901 30.58 170.875 30.58C171.315 30.58 171.795 30.6 172.315 30.64C172.848 30.68 173.375 30.7333 173.895 30.8C174.415 30.8533 174.888 30.92 175.315 31V32.8C174.861 32.7333 174.415 32.68 173.975 32.64C173.535 32.6 173.128 32.5667 172.755 32.54C172.395 32.5133 172.095 32.5 171.855 32.5C171.055 32.5 170.381 32.52 169.835 32.56C169.288 32.5867 168.841 32.68 168.495 32.84C168.148 33 167.881 33.2667 167.695 33.64C167.508 34 167.375 34.5 167.295 35.14C167.228 35.78 167.195 36.6067 167.195 37.62C167.195 38.5133 167.215 39.2667 167.255 39.88C167.308 40.48 167.408 40.98 167.555 41.38C167.715 41.7667 167.928 42.06 168.195 42.26C168.475 42.46 168.835 42.6 169.275 42.68C169.728 42.76 170.281 42.8 170.935 42.8C171.188 42.8 171.455 42.7933 171.735 42.78C172.028 42.7667 172.301 42.7533 172.555 42.74C172.808 42.7133 173.021 42.6867 173.195 42.66V38.76H170.495V36.88H175.375V44.24C174.921 44.32 174.421 44.3933 173.875 44.46C173.341 44.5133 172.815 44.56 172.295 44.6C171.775 44.64 171.301 44.66 170.875 44.66Z" fill="#3A3A3A"/>
</svg>
