<svg width="188" height="76" viewBox="0 0 188 76" fill="none" xmlns="http://www.w3.org/2000/svg">
<path fill-rule="evenodd" clip-rule="evenodd" d="M23.2805 60.5645V60.7974C23.2805 60.7192 23.278 60.6416 23.2732 60.5645H23.2805Z" fill="#3A3A3A"/>
<path fill-rule="evenodd" clip-rule="evenodd" d="M36.7208 60.5645H36.7281C36.7233 60.6416 36.7208 60.7192 36.7208 60.7974V60.5645Z" fill="#3A3A3A"/>
<path fill-rule="evenodd" clip-rule="evenodd" d="M36.7208 60.7974C36.7208 60.7192 36.7233 60.6416 36.7281 60.5645H36.7208V60.7974ZM23.2732 60.5645C23.278 60.6416 23.2805 60.7192 23.2805 60.7974V60.5645H23.2732Z" fill="#3A3A3A"/>
<path fill-rule="evenodd" clip-rule="evenodd" d="M26.9657 26.5153H33.0356C33.8501 26.5153 34.6471 26.5881 35.4201 26.7273V15.6628C35.4201 12.8115 37.798 10.5 40.7312 10.5C43.6645 10.5 46.0423 12.8115 46.0423 15.6628V39.159V47.6935V53.4885C46.0423 55.0403 45.5999 56.4916 44.831 57.7297C44.2169 57.3143 43.472 57.0709 42.669 57.0709H40.5277C38.5051 57.0709 36.8509 58.6149 36.7281 60.5645H36.7208V60.7974V61.7069H23.2805V60.7974V60.5645H23.2732C23.1504 58.6149 21.4962 57.0709 19.4736 57.0709H17.3323C16.5293 57.0709 15.7844 57.3143 15.1703 57.7297C14.4014 56.4916 13.959 55.0403 13.959 53.4885V47.6935V39.159V15.6628C13.959 12.8115 16.3368 10.5 19.2701 10.5C22.2033 10.5 24.5812 12.8115 24.5812 15.6628V26.7273C25.3542 26.5881 26.1512 26.5153 26.9657 26.5153ZM19.2701 13.0287C20.7666 13.0287 21.9798 14.2081 21.9798 15.6628V27.4776C19.8166 28.3511 17.9482 29.7759 16.5603 31.5716V15.6628C16.5603 14.2081 17.7735 13.0287 19.2701 13.0287ZM40.7312 13.0287C42.2278 13.0287 43.441 14.2081 43.441 15.6628V31.5716C42.0531 29.7759 40.1847 28.3511 38.0215 27.4776V15.6628C38.0215 14.2081 39.2347 13.0287 40.7312 13.0287ZM24.4391 50.458L18.0455 49.3612C17.78 49.3157 17.5351 49.5142 17.536 49.7762C17.5418 51.4298 17.7084 53.5819 20.5715 54.1207C23.6254 54.6954 24.3516 52.5417 24.7841 50.9843C24.8506 50.7449 24.6903 50.5011 24.4391 50.458ZM41.9566 49.3612L35.5629 50.458C35.3117 50.5011 35.1515 50.7449 35.218 50.9843C35.6505 52.5417 36.3766 54.6954 39.4306 54.1207C42.2936 53.5819 42.4602 51.4298 42.466 49.7762C42.4669 49.5142 42.222 49.3157 41.9566 49.3612ZM31.9517 53.2778C31.9517 53.8902 31.6157 54.4264 31.1132 54.7216C31.3786 55.0769 31.7147 55.341 32.0735 55.537C32.7331 55.8972 33.4574 56.0174 33.9027 56.0174C34.202 56.0174 34.4446 56.2532 34.4446 56.5442C34.4446 56.8351 34.202 57.071 33.9027 57.071C33.3002 57.071 32.3878 56.9172 31.5426 56.4556C30.9804 56.1486 30.4434 55.7016 30.0548 55.0753C29.6663 55.7016 29.1292 56.1486 28.5671 56.4556C27.7219 56.9172 26.8095 57.071 26.207 57.071C25.9077 57.071 25.6651 56.8351 25.6651 56.5442C25.6651 56.2532 25.9077 56.0174 26.207 56.0174C26.6523 56.0174 27.3765 55.8972 28.0362 55.537C28.4446 55.314 28.8236 55.0025 29.1024 54.569C28.7238 54.2598 28.4832 53.7961 28.4832 53.2778C28.4832 52.3467 29.2596 51.592 30.2174 51.592C31.1752 51.592 31.9517 52.3467 31.9517 53.2778Z" fill="#3A3A3A"/>
<path fill-rule="evenodd" clip-rule="evenodd" d="M13.959 60.6536H13.9656C13.9612 60.7233 13.959 60.7936 13.959 60.8643V60.6536ZM22.8469 60.6536V60.8643C22.8469 60.7936 22.8447 60.7233 22.8403 60.6536H22.8469Z" fill="#3A3A3A"/>
<path d="M19.3785 57.4927H17.4275C15.5847 57.4927 14.0775 58.8896 13.9656 60.6536C13.9612 60.7233 13.959 60.7936 13.959 60.8643V62.7609V64.236C13.959 64.9343 14.5413 65.5003 15.2597 65.5003C15.978 65.5003 16.5603 64.9343 16.5603 64.236V62.9777C16.5603 62.8579 16.6574 62.7609 16.7771 62.7609V62.7609C16.8968 62.7609 16.9939 62.8579 16.9939 62.9777V64.1306C16.9939 64.8871 17.6248 65.5003 18.403 65.5003C19.1812 65.5003 19.812 64.8871 19.812 64.1306V62.9777C19.812 62.8579 19.9091 62.7609 20.0288 62.7609V62.7609C20.1485 62.7609 20.2456 62.8579 20.2456 62.9777V64.236C20.2456 64.9343 20.8279 65.5003 21.5463 65.5003C22.2646 65.5003 22.8469 64.9343 22.8469 64.236V62.7609V60.8643C22.8469 60.7936 22.8447 60.7233 22.8403 60.6536C22.7284 58.8896 21.2212 57.4927 19.3785 57.4927Z" fill="#3A3A3A"/>
<path fill-rule="evenodd" clip-rule="evenodd" d="M37.1543 60.6536H37.161C37.1565 60.7233 37.1543 60.7936 37.1543 60.8643V60.6536ZM46.0422 60.6536V60.8643C46.0422 60.7936 46.04 60.7233 46.0356 60.6536H46.0422Z" fill="#3A3A3A"/>
<path d="M42.5738 57.4927H40.6228C38.78 57.4927 37.2729 58.8896 37.161 60.6536C37.1565 60.7233 37.1543 60.7936 37.1543 60.8643V62.7609V64.236C37.1543 64.9343 37.7366 65.5003 38.455 65.5003C39.1733 65.5003 39.7556 64.9343 39.7556 64.236V62.9777C39.7556 62.8579 39.8527 62.7609 39.9724 62.7609V62.7609C40.0922 62.7609 40.1892 62.8579 40.1892 62.9777V64.1306C40.1892 64.8871 40.8201 65.5003 41.5983 65.5003C42.3765 65.5003 43.0073 64.8871 43.0073 64.1306V62.9777C43.0073 62.8579 43.1044 62.7609 43.2241 62.7609V62.7609C43.3438 62.7609 43.4409 62.8579 43.4409 62.9777V64.236C43.4409 64.9343 44.0232 65.5003 44.7416 65.5003C45.4599 65.5003 46.0422 64.9343 46.0422 64.236V62.7609V60.8643C46.0422 60.7936 46.04 60.7233 46.0356 60.6536C45.9237 58.8896 44.4166 57.4927 42.5738 57.4927Z" fill="#3A3A3A"/>
<path d="M64.6 44.5V42.68C65.32 42.6667 65.8733 42.6333 66.26 42.58C66.6467 42.5133 66.9267 42.38 67.1 42.18C67.2733 41.9667 67.3733 41.64 67.4 41.2C67.44 40.76 67.46 40.1533 67.46 39.38V30.74H69.72V38.72C69.72 39.8267 69.6933 40.74 69.64 41.46C69.6 42.18 69.4933 42.7467 69.32 43.16C69.16 43.5733 68.8933 43.8733 68.52 44.06C68.16 44.2467 67.66 44.3667 67.02 44.42C66.3933 44.4733 65.5867 44.5 64.6 44.5ZM71.8814 44.5L76.8014 30.74H79.7614L84.6814 44.5H82.3414L81.1414 41.1H75.3414L74.1614 44.5H71.8814ZM75.9814 39.18H80.4814L78.2814 32.92H78.1814L75.9814 39.18ZM86.9533 44.5V30.74H91.4533C92.6133 30.74 93.5599 30.8 94.2933 30.92C95.0399 31.0267 95.6266 31.2267 96.0533 31.52C96.4799 31.8133 96.7866 32.22 96.9733 32.74C97.1733 33.26 97.2999 33.92 97.3533 34.72C97.4066 35.52 97.4333 36.4867 97.4333 37.62C97.4333 38.7533 97.4066 39.72 97.3533 40.52C97.2999 41.32 97.1733 41.98 96.9733 42.5C96.7866 43.02 96.4799 43.4267 96.0533 43.72C95.6266 44.0133 95.0399 44.22 94.2933 44.34C93.5599 44.4467 92.6133 44.5 91.4533 44.5H86.9533ZM89.2133 42.58H91.2533C91.9999 42.58 92.6133 42.5667 93.0933 42.54C93.5866 42.5 93.9733 42.4067 94.2533 42.26C94.5333 42.1 94.7399 41.8467 94.8733 41.5C95.0066 41.1533 95.0866 40.6667 95.1133 40.04C95.1533 39.4 95.1733 38.5933 95.1733 37.62C95.1733 36.6467 95.1533 35.8467 95.1133 35.22C95.0866 34.5933 94.9999 34.1067 94.8533 33.76C94.7199 33.4 94.5066 33.1467 94.2133 33C93.9333 32.84 93.5533 32.7467 93.0733 32.72C92.5933 32.68 91.9866 32.66 91.2533 32.66H89.2133V42.58ZM100.664 44.5V30.74H109.824V32.66H102.924V36.6H108.884V38.52H102.924V42.58H109.824V44.5H100.664ZM117.617 44.5V30.74H124.037C124.904 30.74 125.604 30.84 126.137 31.04C126.671 31.24 127.071 31.5333 127.337 31.92C127.604 32.2933 127.784 32.7467 127.877 33.28C127.971 33.8 128.017 34.3733 128.017 35C128.017 35.4533 127.971 35.9533 127.877 36.5C127.797 37.0333 127.611 37.5267 127.317 37.98C127.037 38.42 126.591 38.74 125.977 38.94L128.237 44.5H125.837L123.637 38.88L124.217 39.18C124.124 39.22 124.011 39.2467 123.877 39.26C123.757 39.26 123.611 39.26 123.437 39.26H119.877V44.5H117.617ZM119.877 37.34H123.077C123.704 37.34 124.197 37.3 124.557 37.22C124.917 37.1267 125.184 36.9867 125.357 36.8C125.531 36.6133 125.637 36.3733 125.677 36.08C125.731 35.7867 125.757 35.4267 125.757 35C125.757 34.56 125.731 34.1933 125.677 33.9C125.637 33.5933 125.537 33.3533 125.377 33.18C125.217 32.9933 124.957 32.86 124.597 32.78C124.251 32.7 123.771 32.66 123.157 32.66H119.877V37.34ZM129.792 44.5L134.712 30.74H137.672L142.592 44.5H140.252L139.052 41.1H133.252L132.072 44.5H129.792ZM133.892 39.18H138.392L136.192 32.92H136.092L133.892 39.18ZM144.863 44.5V30.74H151.403C152.31 30.74 153.037 30.88 153.583 31.16C154.13 31.4267 154.53 31.82 154.783 32.34C155.037 32.8467 155.163 33.4667 155.163 34.2C155.163 34.8133 155.077 35.34 154.903 35.78C154.743 36.22 154.49 36.58 154.143 36.86C153.797 37.1267 153.35 37.32 152.803 37.44V37.52C153.443 37.64 153.943 37.8467 154.303 38.14C154.677 38.4333 154.937 38.8067 155.083 39.26C155.23 39.7133 155.303 40.2467 155.303 40.86C155.303 41.38 155.243 41.8667 155.123 42.32C155.003 42.76 154.797 43.14 154.503 43.46C154.223 43.78 153.83 44.0333 153.323 44.22C152.817 44.4067 152.17 44.5 151.383 44.5H144.863ZM147.123 42.6H150.703C151.317 42.6 151.79 42.54 152.123 42.42C152.457 42.2867 152.69 42.0733 152.823 41.78C152.97 41.4733 153.043 41.0667 153.043 40.56C153.043 40.04 152.97 39.6333 152.823 39.34C152.677 39.0333 152.43 38.82 152.083 38.7C151.75 38.5667 151.29 38.5 150.703 38.5H147.123V42.6ZM147.123 36.58H150.623C151.17 36.58 151.603 36.5133 151.923 36.38C152.257 36.2467 152.503 36.04 152.663 35.76C152.823 35.4667 152.903 35.0933 152.903 34.64C152.903 34.1333 152.837 33.74 152.703 33.46C152.57 33.1667 152.343 32.96 152.023 32.84C151.703 32.72 151.237 32.66 150.623 32.66H147.123V36.58ZM158.438 44.5V30.74H164.978C165.884 30.74 166.611 30.88 167.158 31.16C167.704 31.4267 168.104 31.82 168.358 32.34C168.611 32.8467 168.738 33.4667 168.738 34.2C168.738 34.8133 168.651 35.34 168.478 35.78C168.318 36.22 168.064 36.58 167.718 36.86C167.371 37.1267 166.924 37.32 166.378 37.44V37.52C167.018 37.64 167.518 37.8467 167.878 38.14C168.251 38.4333 168.511 38.8067 168.658 39.26C168.804 39.7133 168.878 40.2467 168.878 40.86C168.878 41.38 168.818 41.8667 168.698 42.32C168.578 42.76 168.371 43.14 168.078 43.46C167.798 43.78 167.404 44.0333 166.898 44.22C166.391 44.4067 165.744 44.5 164.958 44.5H158.438ZM160.698 42.6H164.278C164.891 42.6 165.364 42.54 165.698 42.42C166.031 42.2867 166.264 42.0733 166.398 41.78C166.544 41.4733 166.618 41.0667 166.618 40.56C166.618 40.04 166.544 39.6333 166.398 39.34C166.251 39.0333 166.004 38.82 165.658 38.7C165.324 38.5667 164.864 38.5 164.278 38.5H160.698V42.6ZM160.698 36.58H164.198C164.744 36.58 165.178 36.5133 165.498 36.38C165.831 36.2467 166.078 36.04 166.238 35.76C166.398 35.4667 166.478 35.0933 166.478 34.64C166.478 34.1333 166.411 33.74 166.278 33.46C166.144 33.1667 165.918 32.96 165.598 32.84C165.278 32.72 164.811 32.66 164.198 32.66H160.698V36.58ZM172.012 44.5V30.74H174.272V44.5H172.012ZM180.77 44.5V32.72H176.59V30.74H187.19V32.72H183.03V44.5H180.77Z" fill="#3A3A3A"/>
</svg>
