<svg width="188" height="76" viewBox="0 0 188 76" fill="none" xmlns="http://www.w3.org/2000/svg">
<path d="M20.802 45.8794C22.9455 45.8447 25.0899 45.863 27.2333 45.8684C27.6551 45.8721 28.1025 45.8283 28.4902 46.0279C29.1177 46.3141 29.5734 47.0205 29.4154 47.7141C28.6271 51.2716 27.8204 54.8262 27.0202 58.3818C26.7492 59.5904 25.5208 60.4481 24.2951 60.4281C22.0295 60.4226 19.7629 60.4308 17.4972 60.4235C16.674 60.4253 15.7846 59.801 15.8425 58.915V58.7227C15.882 58.1193 16.0437 57.536 16.1742 56.9481C16.8449 53.9959 17.5128 51.0437 18.1771 48.0906C18.3673 46.8546 19.5534 45.8857 20.802 45.8794ZM53.9105 16.8859C54.1402 16.8275 54.3772 16.8066 54.6134 16.8093C56.9406 16.8266 59.2669 16.7984 61.5932 16.8239C62.4587 16.8148 63.2295 17.6223 63.1716 18.4791C63.1422 18.7443 63.0678 19.0023 63.0127 19.263C62.3493 22.2498 61.6649 25.233 60.9923 28.218C60.6009 29.969 59.583 31.5549 58.2195 32.7225C56.2304 34.3722 53.848 35.4942 51.3802 36.2434C49.3829 36.8605 47.3303 37.2761 45.2806 37.6772C45.0858 37.7236 44.8754 37.7783 44.7358 37.9305C44.642 38.1092 44.79 38.317 44.9774 38.3462C45.5434 38.492 46.1314 38.5166 46.7065 38.6059C48.5385 38.8958 50.3439 39.4408 51.9701 40.3377C52.8824 40.8509 53.7681 41.4433 54.459 42.2354C55.7664 43.7046 56.4913 45.729 56.2028 47.6886C55.6442 51.2725 54.6823 54.7779 53.9408 58.3262C53.7562 59.2058 53.0735 59.9441 52.2356 60.2631C51.7092 60.4828 51.1294 60.4199 50.5736 60.4262C48.4604 60.4235 46.3463 60.4326 44.2323 60.4208C43.297 60.4509 42.4637 59.4993 42.6722 58.5833C43.1674 56.2663 43.7251 53.9622 44.2268 51.6471C44.4932 50.361 44.7119 49.0403 44.5741 47.7251C44.3637 46.5566 44.0191 45.3134 43.1013 44.4894C41.9877 43.5643 40.7033 42.8096 39.2912 42.4368C37.993 42.0658 36.6139 41.9665 35.3745 41.4041C34.8591 41.1589 34.3381 40.8663 33.9945 40.3988C33.2485 39.3998 33.2016 37.9533 33.8402 36.8897C34.1645 36.3264 34.735 35.9627 35.3111 35.692C36.3787 35.2044 37.5593 35.0677 38.7078 34.8772C40.9698 34.5281 43.2988 34.2328 45.3706 33.2019C46.7635 32.5538 48.1251 31.6889 48.9804 30.3882C49.2662 29.9489 49.4858 29.4649 49.6107 28.9563C50.3963 25.5876 51.134 22.2088 51.9104 18.8382C52.13 17.8775 52.9605 17.121 53.9105 16.8859ZM26.9954 16.8923C27.4051 16.7902 27.8305 16.8148 28.2486 16.8121C30.4196 16.8275 32.5906 16.7966 34.7626 16.8266C35.6795 16.8221 36.4577 17.77 36.2583 18.6605C35.4654 22.2206 34.6514 25.7762 33.8567 29.3355C33.5691 30.5113 32.3793 31.3498 31.1785 31.3525C28.9459 31.3589 26.7142 31.3498 24.4816 31.3571C23.8642 31.3607 23.1981 31.1101 22.8692 30.565C22.6083 30.1704 22.6175 29.6691 22.7176 29.2243C23.4701 25.9038 24.217 22.5825 24.9649 19.2611C25.0375 18.944 25.0917 18.6186 25.2387 18.3242C25.5814 17.626 26.2475 17.1046 26.9954 16.8923Z" fill="#912279"/>
<path d="M25.2711 34.5059C26.5877 34.269 27.9806 34.7484 28.937 35.6599C29.7106 36.3763 30.1553 37.4017 30.2233 38.4425C30.2931 39.7259 29.7281 41.0174 28.7643 41.8714C28.1432 42.4302 27.3384 42.7647 26.5133 42.8859C24.8761 43.1001 23.1488 42.2652 22.3256 40.8424C21.7596 39.9474 21.6494 38.8345 21.8239 37.8091C22.1464 36.1438 23.5916 34.7867 25.2711 34.5059Z" fill="#FE7A1C"/>
<path d="M83.34 45V31.24H85.6V37.04H87.52L92.02 31.24H94.5L89.36 37.86L94.56 45H91.94L87.52 38.96H85.6V45H83.34ZM95.397 45L100.317 31.24H103.277L108.197 45H105.857L104.657 41.6H98.857L97.677 45H95.397ZM99.497 39.68H103.997L101.797 33.42H101.697L99.497 39.68ZM110.469 45V31.24H112.729V43.02H118.829V45H110.469ZM119.85 45L124.77 31.24H127.73L132.65 45H130.31L129.11 41.6H123.31L122.13 45H119.85ZM123.95 39.68H128.45L126.25 33.42H126.15L123.95 39.68ZM134.922 45V31.24H138.002L142.042 41.24H142.142L146.182 31.24H149.262V45H147.082V34.74H147.002L142.842 45H141.242L137.122 34.74H137.042V45H134.922ZM152.949 45V31.24H159.489C160.396 31.24 161.123 31.38 161.669 31.66C162.216 31.9267 162.616 32.32 162.869 32.84C163.123 33.3467 163.249 33.9667 163.249 34.7C163.249 35.3133 163.163 35.84 162.989 36.28C162.829 36.72 162.576 37.08 162.229 37.36C161.883 37.6267 161.436 37.82 160.889 37.94V38.02C161.529 38.14 162.029 38.3467 162.389 38.64C162.763 38.9333 163.023 39.3067 163.169 39.76C163.316 40.2133 163.389 40.7467 163.389 41.36C163.389 41.88 163.329 42.3667 163.209 42.82C163.089 43.26 162.883 43.64 162.589 43.96C162.309 44.28 161.916 44.5333 161.409 44.72C160.903 44.9067 160.256 45 159.469 45H152.949ZM155.209 43.1H158.789C159.403 43.1 159.876 43.04 160.209 42.92C160.543 42.7867 160.776 42.5733 160.909 42.28C161.056 41.9733 161.129 41.5667 161.129 41.06C161.129 40.54 161.056 40.1333 160.909 39.84C160.763 39.5333 160.516 39.32 160.169 39.2C159.836 39.0667 159.376 39 158.789 39H155.209V43.1ZM155.209 37.08H158.709C159.256 37.08 159.689 37.0133 160.009 36.88C160.343 36.7467 160.589 36.54 160.749 36.26C160.909 35.9667 160.989 35.5933 160.989 35.14C160.989 34.6333 160.923 34.24 160.789 33.96C160.656 33.6667 160.429 33.46 160.109 33.34C159.789 33.22 159.323 33.16 158.709 33.16H155.209V37.08ZM165.124 45L170.044 31.24H173.004L177.924 45H175.584L174.384 41.6H168.584L167.404 45H165.124ZM169.224 39.68H173.724L171.524 33.42H171.424L169.224 39.68Z" fill="#3A3A3A"/>
</svg>
