<svg width="188" height="76" viewBox="0 0 188 76" fill="none" xmlns="http://www.w3.org/2000/svg">
<path d="M29.2412 45.2421L33.6842 24.25H40.82L37.7233 39.7947H43.2435L42.0317 45.2421H29.2412Z" fill="#3A3A3A"/>
<path d="M46.1964 32.0078L45.1113 37.484H59.7598L60.9806 32.0078H46.1964Z" fill="#3A3A3A"/>
<path d="M47.5968 24.25L46.5117 29.7262H61.1602L62.381 24.25H47.5968Z" fill="#3A3A3A"/>
<path d="M44.3292 39.7666L43.2441 45.2428H57.8926L59.1134 39.7666H44.3292Z" fill="#3A3A3A"/>
<path fill-rule="evenodd" clip-rule="evenodd" d="M59.1133 45.1836L68.552 24.25H76.7769L77.3162 45.1836C74.9792 45.2277 70.3047 45.2895 70.3047 45.1836V42.4012H67.338L66.1246 45.1836H59.1133ZM71.1137 31.272L68.552 36.8366H71.1137V31.272Z" fill="#3A3A3A"/>
<path fill-rule="evenodd" clip-rule="evenodd" d="M78.7168 45.2421L83.145 24.25H94.5502C101.393 24.25 97.905 38.0676 92.1351 38.0676H87.1702L85.8284 45.2421H78.7168ZM89.0486 28.2358L87.9752 33.1517C88.7287 33.1758 89.4885 33.141 89.9883 32.886C91.2125 31.988 91.33 29.6973 91.0617 28.9002C90.7933 28.103 89.8255 28.2358 89.0486 28.2358Z" fill="#3A3A3A"/>
<path d="M27.375 53.0001L28.8606 47.5239H85.7178L27.375 53.0001Z" fill="#3A3A3A"/>
<path d="M117.465 44.5V30.74H119.725V42.52H125.825V44.5H117.465ZM128.246 44.5V30.74H137.406V32.66H130.506V36.6H136.466V38.52H130.506V42.58H137.406V44.5H128.246ZM138.975 44.5L143.895 30.74H146.855L151.775 44.5H149.435L148.235 41.1H142.435L141.255 44.5H138.975ZM143.075 39.18H147.575L145.375 32.92H145.275L143.075 39.18ZM154.047 44.5V30.74H160.207C161.074 30.74 161.774 30.8467 162.307 31.06C162.84 31.2733 163.247 31.58 163.527 31.98C163.82 32.3667 164.014 32.8333 164.107 33.38C164.214 33.9267 164.267 34.5333 164.267 35.2C164.267 35.8267 164.22 36.4133 164.127 36.96C164.034 37.4933 163.84 37.9667 163.547 38.38C163.267 38.78 162.854 39.0933 162.307 39.32C161.76 39.5467 161.04 39.66 160.147 39.66H156.307V44.5H154.047ZM156.307 37.74H159.287C159.914 37.74 160.414 37.7 160.787 37.62C161.16 37.54 161.427 37.4 161.587 37.2C161.76 37 161.874 36.74 161.927 36.42C161.98 36.1 162.007 35.6933 162.007 35.2C162.007 34.7067 161.98 34.3 161.927 33.98C161.887 33.6467 161.78 33.3867 161.607 33.2C161.447 33 161.187 32.86 160.827 32.78C160.467 32.7 159.974 32.66 159.347 32.66H156.307V37.74Z" fill="#3A3A3A"/>
</svg>
