<svg width="188" height="76" viewBox="0 0 188 76" fill="none" xmlns="http://www.w3.org/2000/svg">
<path d="M61.5662 47.9575C55.6496 47.6592 52.0816 44.1654 51.9913 38.6265C52.0816 33.0449 55.6045 29.5937 61.5662 29.2955C65.4955 29.0824 68.2957 26.3556 68.2054 22.8618C68.0699 19.4958 65.1793 16.8115 61.6113 16.7689C57.953 16.7689 54.7915 19.3254 54.927 22.9044C55.1077 27.2503 53.0752 29.8068 49.0105 31.2554C44.8102 32.7467 41.0164 31.8945 37.629 29.2955C35.9579 28.0173 35.3256 26.313 35.2805 24.3104C35.3256 23.1174 35.145 21.9244 34.7837 20.774C33.6545 17.7915 30.3123 16.1724 27.0605 16.9394C23.5829 17.7489 21.3698 21.1149 22.1828 24.4382C22.8602 27.2077 25.4346 29.1677 28.4155 29.2529C32.4351 29.4659 35.6418 30.9572 37.4935 34.451C38.8936 37.05 38.8936 40.1603 37.4935 42.7594C35.6418 46.2532 32.39 47.7018 28.4155 47.9575C24.7572 48.1279 21.9118 50.9826 22.0021 54.4338C22.0925 57.2459 24.2152 59.6745 27.1057 60.3136C30.3575 61.0805 33.6997 59.4188 34.8289 56.4789C35.1902 55.3285 35.3256 54.1355 35.3256 52.9425C35.3708 50.94 36.0031 49.1931 37.6742 47.9575C41.0615 45.3584 44.8554 44.5063 49.0556 45.9975C53.1204 47.4462 55.1528 50.0026 54.9722 54.3485C54.7915 57.9276 57.953 60.484 61.6113 60.484C65.1793 60.4414 68.0699 57.7571 68.2054 54.3912C68.2957 50.8974 65.4503 48.1705 61.5662 47.9575Z" fill="url(#paint0_linear_552_3173)"/>
<path d="M45.0816 47.9565C41.4232 47.9992 38.4876 50.8539 38.5327 54.305C38.5779 57.7563 41.5587 60.5257 45.2171 60.4831C48.8754 60.4405 51.8111 57.5858 51.7659 54.1346C51.7659 50.6834 48.7399 47.914 45.0816 47.9565Z" fill="#3A3A3A"/>
<path d="M28.6854 32.2773C24.9819 32.2773 22.001 35.132 22.001 38.6258C22.001 42.1196 24.9819 44.9317 28.6854 44.9317C32.2985 44.9317 35.2342 42.1622 35.2342 38.711V38.6684V38.5406C35.2794 35.132 32.3888 32.3199 28.7305 32.2773C28.7305 32.2773 28.7305 32.2773 28.6854 32.2773Z" fill="#3A3A3A"/>
<path d="M68.2497 38.3707C68.1142 34.9621 65.0882 32.2352 61.4299 32.2778C57.7264 32.4057 54.8359 35.3455 54.9714 38.8393C55.1069 42.1627 57.9071 44.8044 61.4299 44.9322C65.0882 44.9748 68.0691 42.2906 68.2497 38.882V38.3707Z" fill="#3A3A3A"/>
<path d="M45.0806 29.2517C48.7389 29.2091 51.6746 26.397 51.6294 22.9458C51.5843 19.6224 48.7841 16.8956 45.2613 16.7677C41.6029 16.6399 38.5317 19.3668 38.3962 22.818C38.2607 26.2692 41.1061 29.1239 44.7644 29.2517C44.8999 29.2517 44.9903 29.2517 45.0806 29.2517Z" fill="#3A3A3A"/>
<path d="M88.156 44V31.616H90.928L94.564 40.616H94.654L98.29 31.616H101.062V44H99.1V34.766H99.028L95.284 44H93.844L90.136 34.766H90.064V44H88.156ZM103.121 44L107.549 31.616H110.213L114.641 44H112.535L111.455 40.94H106.235L105.173 44H103.121ZM106.811 39.212H110.861L108.881 33.578H108.791L106.811 39.212ZM116.685 44V31.616H118.791L124.461 40.184H124.533V31.616H126.477V44H124.533L118.701 35.162H118.629V44H116.685ZM134.443 44.144C133.555 44.144 132.811 44.09 132.211 43.982C131.611 43.862 131.119 43.664 130.735 43.388C130.363 43.112 130.075 42.74 129.871 42.272C129.679 41.792 129.547 41.186 129.475 40.454C129.403 39.722 129.367 38.84 129.367 37.808C129.367 36.776 129.403 35.894 129.475 35.162C129.547 34.43 129.679 33.83 129.871 33.362C130.075 32.882 130.363 32.504 130.735 32.228C131.119 31.952 131.611 31.76 132.211 31.652C132.811 31.532 133.555 31.472 134.443 31.472C134.791 31.472 135.145 31.484 135.505 31.508C135.877 31.532 136.231 31.568 136.567 31.616C136.903 31.652 137.191 31.7 137.431 31.76V33.38C137.131 33.344 136.831 33.314 136.531 33.29C136.243 33.254 135.961 33.23 135.685 33.218C135.409 33.206 135.169 33.2 134.965 33.2C134.305 33.2 133.759 33.224 133.327 33.272C132.895 33.32 132.547 33.428 132.283 33.596C132.031 33.764 131.839 34.016 131.707 34.352C131.587 34.676 131.503 35.12 131.455 35.684C131.419 36.248 131.401 36.956 131.401 37.808C131.401 38.648 131.419 39.356 131.455 39.932C131.503 40.496 131.587 40.946 131.707 41.282C131.839 41.606 132.031 41.852 132.283 42.02C132.547 42.188 132.895 42.296 133.327 42.344C133.759 42.392 134.305 42.416 134.965 42.416C135.361 42.416 135.793 42.398 136.261 42.362C136.741 42.326 137.155 42.284 137.503 42.236V43.892C137.239 43.94 136.927 43.982 136.567 44.018C136.219 44.054 135.859 44.084 135.487 44.108C135.127 44.132 134.779 44.144 134.443 44.144ZM138.839 44L143.267 31.616H145.931L150.359 44H148.253L147.173 40.94H141.953L140.891 44H138.839ZM142.529 39.212H146.579L144.599 33.578H144.509L142.529 39.212ZM152.404 44V31.616H154.438V42.218H159.928V44H152.404ZM160.847 44L165.275 31.616H167.939L172.367 44H170.261L169.181 40.94H163.961L162.899 44H160.847ZM164.537 39.212H168.587L166.607 33.578H166.517L164.537 39.212Z" fill="#3A3A3A"/>
<defs>
<linearGradient id="paint0_linear_552_3173" x1="23.9282" y1="18.654" x2="63.8234" y2="60.9435" gradientUnits="userSpaceOnUse">
<stop offset="0.02" stop-color="#FFCE00"/>
<stop offset="0.44" stop-color="#FF1C03"/>
<stop offset="1" stop-color="#DE0021"/>
</linearGradient>
</defs>
</svg>
