<svg width="188" height="76" viewBox="0 0 188 76" fill="none" xmlns="http://www.w3.org/2000/svg">
<path d="M49.0012 39.106H49.5859C54.1637 40.9738 48.2234 45.4277 47.3613 41.5286C47.107 40.3759 47.6537 39.5684 49.0012 39.106Z" fill="#3A3A3A"/>
<path d="M33.2115 39.8881L36.9769 48.6375C36.9902 48.6671 37.0118 48.6922 37.039 48.7098C37.0663 48.7274 37.098 48.7368 37.1304 48.7368C37.1629 48.7368 37.1946 48.7274 37.2219 48.7098C37.2491 48.6922 37.2707 48.6671 37.284 48.6375L39.6671 43.0391C39.6757 43.0178 39.6885 42.9986 39.7048 42.9825C39.7211 42.9664 39.7405 42.9538 39.7618 42.9454C39.7832 42.9371 39.806 42.9332 39.8289 42.9339C39.8518 42.9347 39.8743 42.9401 39.895 42.9499L42.5505 44.1389C42.5711 44.1476 42.5898 44.1602 42.6055 44.1762C42.6212 44.1921 42.6335 44.211 42.6418 44.2317C42.6501 44.2525 42.6542 44.2747 42.6538 44.297C42.6535 44.3194 42.6487 44.3414 42.6397 44.3619L37.2741 56.6338C37.2608 56.6634 37.2392 56.6885 37.212 56.7061C37.1847 56.7237 37.153 56.7331 37.1205 56.7331C37.0881 56.7331 37.0563 56.7237 37.0291 56.7061C37.0019 56.6885 36.9803 56.6634 36.967 56.6338L33.2016 47.9142C33.1883 47.8846 33.1667 47.8595 33.1395 47.8419C33.1122 47.8243 33.0805 47.8149 33.048 47.8149C33.0156 47.8149 32.9839 47.8243 32.9566 47.8419C32.9294 47.8595 32.9078 47.8846 32.8945 47.9142L29.1242 56.614C29.1109 56.6436 29.0893 56.6687 29.062 56.6863C29.0348 56.7039 29.003 56.7133 28.9706 56.7133C28.9382 56.7133 28.9064 56.7039 28.8792 56.6863C28.8519 56.6687 28.8303 56.6436 28.817 56.614L23.4663 44.3767C23.4573 44.3563 23.4525 44.3342 23.4522 44.3119C23.4518 44.2895 23.4559 44.2673 23.4642 44.2466C23.4725 44.2258 23.4848 44.2069 23.5005 44.191C23.5162 44.1751 23.5349 44.1624 23.5555 44.1538L26.1912 42.9598C26.2119 42.95 26.2344 42.9446 26.2573 42.9438C26.2802 42.9431 26.303 42.947 26.3244 42.9553C26.3457 42.9637 26.3651 42.9763 26.3814 42.9924C26.3977 43.0085 26.4105 43.0277 26.4191 43.049L28.7923 48.5731C28.8056 48.6027 28.8272 48.6278 28.8544 48.6454C28.8816 48.663 28.9134 48.6723 28.9458 48.6723C28.9783 48.6723 29.01 48.663 29.0373 48.6454C29.0645 48.6278 29.0861 48.6027 29.0994 48.5731L32.9044 39.8881C32.9177 39.8585 32.9393 39.8334 32.9665 39.8158C32.9938 39.7982 33.0255 39.7888 33.058 39.7888C33.0904 39.7888 33.1221 39.7982 33.1494 39.8158C33.1766 39.8334 33.1982 39.8585 33.2115 39.8881Z" fill="#3A3A3A"/>
<path d="M68.4177 44.1637V59.0862L60.565 49.6482C60.5405 49.6165 60.5066 49.5935 60.4682 49.5825C60.4297 49.5715 60.3888 49.573 60.3513 49.5868C60.3137 49.6006 60.2816 49.6259 60.2594 49.6593C60.2373 49.6926 60.2263 49.7321 60.2281 49.772L60.2777 55.2961C60.2777 55.371 60.2485 55.4429 60.1964 55.4958C60.1444 55.5488 60.0738 55.5785 60.0002 55.5785H57.2753C57.1102 55.5785 57.0276 55.4976 57.0276 55.3358L57.0128 40.8542C57.0095 40.4809 57.1267 40.438 57.3645 40.7253L64.91 49.9454C64.9351 49.975 64.9686 49.9961 65.0061 50.0059C65.0436 50.0157 65.0832 50.0137 65.1195 50.0002C65.1558 49.9866 65.1871 49.9622 65.209 49.9302C65.2309 49.8983 65.2424 49.8603 65.242 49.8216L65.1776 44.4213C65.1743 44.2033 65.2833 44.096 65.5045 44.0993L68.4177 44.1637Z" fill="#3A3A3A"/>
<path d="M17.5074 30.5745C17.4975 30.2706 17.4975 30.2045 17.5074 30.3763L22.9275 18.144C22.9414 18.1121 22.9642 18.0851 22.9933 18.066C23.0223 18.047 23.0563 18.0369 23.091 18.0369C23.1257 18.0369 23.1597 18.047 23.1887 18.066C23.2178 18.0851 23.2406 18.1121 23.2545 18.144L26.9752 26.7448C26.9925 26.7864 27.0217 26.822 27.0592 26.847C27.0966 26.8721 27.1407 26.8855 27.1858 26.8855C27.2309 26.8855 27.2749 26.8721 27.3124 26.847C27.3499 26.822 27.3791 26.7864 27.3963 26.7448L31.127 18.0895C31.1385 18.063 31.1576 18.0404 31.1818 18.0245C31.206 18.0087 31.2343 18.0002 31.2632 18.0002C31.2922 18.0002 31.3205 18.0087 31.3447 18.0245C31.3689 18.0404 31.3879 18.063 31.3995 18.0895L36.7304 30.3713C36.7931 30.52 36.7502 30.6273 36.6016 30.6934L34.1888 31.7883C34.1481 31.8064 34.1043 31.8162 34.0599 31.8173C34.0154 31.8184 33.9712 31.8106 33.9297 31.7945C33.8883 31.7784 33.8504 31.7542 33.8183 31.7234C33.7863 31.6925 33.7606 31.6557 33.7429 31.6149L31.449 26.2245C31.4346 26.1905 31.4105 26.1614 31.3796 26.1409C31.3488 26.1205 31.3126 26.1096 31.2756 26.1096C31.2386 26.1096 31.2024 26.1205 31.1716 26.1409C31.1408 26.1614 31.1166 26.1905 31.1022 26.2245L27.3815 34.8897C27.3671 34.9238 27.3429 34.9529 27.3121 34.9733C27.2813 34.9938 27.2451 35.0047 27.2081 35.0047C27.1711 35.0047 27.1349 34.9938 27.1041 34.9733C27.0732 34.9529 27.0491 34.9238 27.0347 34.8897L23.2446 26.1948C23.2315 26.1664 23.2106 26.1422 23.1843 26.1253C23.1579 26.1084 23.1273 26.0994 23.096 26.0994C23.0646 26.0994 23.034 26.1084 23.0077 26.1253C22.9813 26.1422 22.9604 26.1664 22.9473 26.1948L20.6138 31.6595C20.5412 31.8279 20.4206 31.8758 20.2521 31.8032L17.5074 30.5745Z" fill="#3A3A3A"/>
<path d="M39.7979 31.0495L47.5317 18.4505C47.5464 18.427 47.5668 18.4075 47.5911 18.3941C47.6154 18.3806 47.6427 18.3735 47.6704 18.3735C47.6982 18.3735 47.7255 18.3806 47.7497 18.3941C47.774 18.4075 47.7945 18.427 47.8091 18.4505L55.5429 31.0495C55.5649 31.0863 55.5716 31.1304 55.5614 31.1721C55.5512 31.2138 55.525 31.2498 55.4884 31.2724L52.9022 32.8727C52.8838 32.8843 52.8632 32.8922 52.8416 32.8958C52.8201 32.8994 52.798 32.8986 52.7768 32.8935C52.7555 32.8884 52.7355 32.8792 52.7179 32.8662C52.7003 32.8533 52.6855 32.8369 52.6743 32.8182L51.8172 31.3814C51.8024 31.3567 51.7813 31.3364 51.7561 31.3224C51.7308 31.3085 51.7024 31.3015 51.6736 31.3021H43.6326C43.6042 31.3029 43.5764 31.311 43.5521 31.3258C43.5277 31.3406 43.5077 31.3615 43.4939 31.3864L42.6517 32.8677C42.6405 32.8865 42.6257 32.9028 42.6081 32.9158C42.5905 32.9287 42.5705 32.938 42.5492 32.9431C42.528 32.9481 42.5059 32.9489 42.4844 32.9453C42.4628 32.9418 42.4422 32.9339 42.4238 32.9222L39.8475 31.2724C39.8118 31.2491 39.7866 31.2127 39.7773 31.171C39.7681 31.1294 39.7755 31.0857 39.7979 31.0495ZM45.7531 27.7102C45.738 27.7353 45.7299 27.7639 45.7297 27.7932C45.7295 27.8224 45.7371 27.8512 45.7518 27.8765C45.7664 27.9018 45.7876 27.9227 45.8131 27.937C45.8386 27.9514 45.8675 27.9586 45.8968 27.9579H49.4243C49.4535 27.9586 49.4824 27.9514 49.5079 27.937C49.5334 27.9227 49.5546 27.9018 49.5693 27.8765C49.5839 27.8512 49.5916 27.8224 49.5913 27.7932C49.5911 27.7639 49.583 27.7353 49.5679 27.7102L47.7992 24.7475C47.7846 24.724 47.7641 24.7045 47.7398 24.6911C47.7156 24.6776 47.6883 24.6705 47.6605 24.6705C47.6328 24.6705 47.6055 24.6776 47.5812 24.6911C47.5569 24.7045 47.5365 24.724 47.5218 24.7475L45.7531 27.7102Z" fill="#3A3A3A"/>
<path d="M67.9819 25.5303L72.3368 29.8158C72.3521 29.8306 72.3642 29.8483 72.3725 29.8679C72.3808 29.8875 72.3851 29.9085 72.3851 29.9298C72.3851 29.951 72.3808 29.9721 72.3725 29.9916C72.3642 30.0112 72.3521 30.0289 72.3368 30.0437L70.2312 32.1493C70.2164 32.1646 70.1987 32.1768 70.1791 32.1851C70.1596 32.1933 70.1385 32.1976 70.1172 32.1976C70.096 32.1976 70.0749 32.1933 70.0554 32.1851C70.0358 32.1768 70.0181 32.1646 70.0033 32.1493L65.7425 27.7994C65.7278 27.7841 65.7101 27.7719 65.6905 27.7636C65.6709 27.7553 65.6499 27.7511 65.6286 27.7511C65.6073 27.7511 65.5863 27.7553 65.5667 27.7636C65.5471 27.7719 65.5294 27.7841 65.5146 27.7994L61.2242 32.1493C61.2094 32.1646 61.1917 32.1768 61.1721 32.1851C61.1525 32.1933 61.1315 32.1976 61.1102 32.1976C61.089 32.1976 61.0679 32.1933 61.0483 32.1851C61.0288 32.1768 61.011 32.1646 60.9963 32.1493L58.9303 30.0487C58.9009 30.019 58.8845 29.9789 58.8845 29.9372C58.8845 29.8955 58.9009 29.8554 58.9303 29.8257L63.2158 25.5402C63.2311 25.5254 63.2433 25.5077 63.2516 25.4881C63.2599 25.4686 63.2641 25.4475 63.2641 25.4262C63.2641 25.405 63.2599 25.3839 63.2516 25.3644C63.2433 25.3448 63.2311 25.3271 63.2158 25.3123L58.9204 20.997C58.9051 20.9823 58.8929 20.9645 58.8846 20.945C58.8763 20.9254 58.8721 20.9044 58.8721 20.8831C58.8721 20.8618 58.8763 20.8408 58.8846 20.8212C58.8929 20.8016 58.9051 20.7839 58.9204 20.7691L61.0508 18.7081C61.0811 18.6794 61.1215 18.6638 61.1633 18.6648C61.205 18.6657 61.2447 18.6831 61.2737 18.7131L65.4651 23.0927C65.4799 23.108 65.4976 23.1202 65.5172 23.1285C65.5367 23.1368 65.5578 23.141 65.579 23.141C65.6003 23.141 65.6214 23.1368 65.6409 23.1285C65.6605 23.1202 65.6782 23.108 65.693 23.0927L70.0083 18.6982C70.023 18.6829 70.0407 18.6708 70.0603 18.6625C70.0799 18.6542 70.1009 18.6499 70.1222 18.6499C70.1435 18.6499 70.1645 18.6542 70.1841 18.6625C70.2037 18.6708 70.2214 18.6829 70.2362 18.6982L72.3368 20.7989C72.3521 20.8136 72.3642 20.8314 72.3725 20.8509C72.3808 20.8705 72.3851 20.8916 72.3851 20.9128C72.3851 20.9341 72.3808 20.9551 72.3725 20.9747C72.3642 20.9943 72.3521 21.012 72.3368 21.0268L67.9819 25.3024C67.9666 25.3172 67.9545 25.3349 67.9462 25.3544C67.9379 25.374 67.9336 25.3951 67.9336 25.4163C67.9336 25.4376 67.9379 25.4586 67.9462 25.4782C67.9545 25.4978 67.9666 25.5155 67.9819 25.5303Z" fill="#3A3A3A"/>
<path d="M50.5174 44.0596H47.8024C47.6273 44.0596 47.4854 44.2015 47.4854 44.3766V55.2564C47.4854 55.4316 47.6273 55.5735 47.8024 55.5735H50.5174C50.6925 55.5735 50.8345 55.4316 50.8345 55.2564V44.3766C50.8345 44.2015 50.6925 44.0596 50.5174 44.0596Z" fill="#3A3A3A"/>
<path d="M88.84 44.5V30.74H91.92L95.96 40.74H96.06L100.1 30.74H103.18V44.5H101V34.24H100.92L96.76 44.5H95.16L91.04 34.24H90.96V44.5H88.84ZM105.467 44.5L110.387 30.74H113.347L118.267 44.5H115.927L114.727 41.1H108.927L107.747 44.5H105.467ZM109.567 39.18H114.067L111.867 32.92H111.767L109.567 39.18ZM119.159 44.5L124.079 37.6L119.239 30.74H121.879L125.419 35.72H125.579L129.099 30.74H131.679L126.839 37.54L131.739 44.5H129.099L125.479 39.38H125.319L121.719 44.5H119.159ZM136.355 44.5L132.795 30.74H135.075L137.835 41.76H137.935L140.955 30.74H143.315L146.375 41.76H146.495L149.115 30.74H151.375L147.815 44.5H145.055L142.135 34.08H142.055L139.115 44.5H136.355ZM153.82 44.5V30.74H156.08V44.5H153.82ZM159.738 44.5V30.74H162.078L168.378 40.26H168.458V30.74H170.618V44.5H168.458L161.978 34.68H161.898V44.5H159.738Z" fill="#3A3A3A"/>
</svg>
