<svg width="188" height="76" viewBox="0 0 188 76" fill="none" xmlns="http://www.w3.org/2000/svg">
<path fill-rule="evenodd" clip-rule="evenodd" d="M71.5301 15.5C84.2567 15.5 94.5 25.7433 94.5 38.7803C94.5 51.5068 84.2567 61.75 71.5301 61.75C63.1493 61.75 56.3204 57.7149 51.9748 51.1964C56.0101 45.609 59.7349 39.401 63.1493 32.8827C63.1493 32.8827 62.2182 53.3692 69.3574 53.6796C74.9447 54.9212 82.0839 37.5387 82.0839 37.5387C81.463 37.5387 87.3608 47.7818 88.9127 46.8507C89.5336 46.5404 87.9815 44.3674 86.7399 41.574C85.4983 38.7803 84.8776 35.0554 84.5671 33.5034C84.2567 31.0202 84.5671 30.089 82.7046 29.7786C81.1527 29.4681 80.5318 30.7097 79.6007 32.8825C76.807 39.0905 71.5301 49.9548 69.6678 49.6443C66.8741 49.0234 67.495 25.7433 67.495 23.8809C67.8053 22.0184 67.495 21.0873 66.2532 20.4664C64.0805 20.4664 63.1493 22.9498 62.5286 24.5017C57.8724 32.5722 53.5269 40.0219 49.1812 45.6091C48.5604 43.4363 48.25 40.9531 48.25 38.7803C48.25 25.7433 58.4933 15.5 71.5301 15.5Z" fill="#F29201"/>
<path d="M115.84 44.5V30.74H118.92L122.96 40.74H123.06L127.1 30.74H130.18V44.5H128V34.24H127.92L123.76 44.5H122.16L118.04 34.24H117.96V44.5H115.84ZM139.347 44.66C138.361 44.66 137.521 44.6 136.827 44.48C136.147 44.3467 135.581 44.1267 135.127 43.82C134.674 43.5133 134.321 43.0933 134.067 42.56C133.827 42.0267 133.654 41.36 133.547 40.56C133.454 39.7467 133.407 38.7667 133.407 37.62C133.407 36.4733 133.454 35.5 133.547 34.7C133.654 33.8867 133.834 33.2133 134.087 32.68C134.341 32.1467 134.694 31.7267 135.147 31.42C135.601 31.1133 136.167 30.9 136.847 30.78C137.541 30.6467 138.374 30.58 139.347 30.58C139.787 30.58 140.267 30.6 140.787 30.64C141.321 30.68 141.847 30.7333 142.367 30.8C142.887 30.8533 143.361 30.92 143.787 31V32.8C143.334 32.7333 142.887 32.68 142.447 32.64C142.007 32.6 141.601 32.5667 141.227 32.54C140.867 32.5133 140.567 32.5 140.327 32.5C139.527 32.5 138.854 32.52 138.307 32.56C137.761 32.5867 137.314 32.68 136.967 32.84C136.621 33 136.354 33.2667 136.167 33.64C135.981 34 135.847 34.5 135.767 35.14C135.701 35.78 135.667 36.6067 135.667 37.62C135.667 38.5133 135.687 39.2667 135.727 39.88C135.781 40.48 135.881 40.98 136.027 41.38C136.187 41.7667 136.401 42.06 136.667 42.26C136.947 42.46 137.307 42.6 137.747 42.68C138.201 42.76 138.754 42.8 139.407 42.8C139.661 42.8 139.927 42.7933 140.207 42.78C140.501 42.7667 140.774 42.7533 141.027 42.74C141.281 42.7133 141.494 42.6867 141.667 42.66V38.76H138.967V36.88H143.847V44.24C143.394 44.32 142.894 44.3933 142.347 44.46C141.814 44.5133 141.287 44.56 140.767 44.6C140.247 44.64 139.774 44.66 139.347 44.66Z" fill="#3A3A3A"/>
</svg>
