<svg width="188" height="76" viewBox="0 0 188 76" fill="none" xmlns="http://www.w3.org/2000/svg">
<path d="M55.4989 23.1192H71.5151V28.932H57.3832V35.4423H69.3953V41.2551H57.3832V47.7654H71.5151V53.5782H55.4989V60.4999H54.3213V15.5H55.4989V23.1192Z" fill="#54E024"/>
<path d="M27 23.1194H32.6528L44.4293 41.7203V23.1194H50.5532V53.5784H45.1359L33.1238 34.9775V53.5784H27V23.1194Z" fill="#737373"/>
<path d="M93.34 45V31.24H95.68L101.98 40.76H102.06V31.24H104.22V45H102.06L95.58 35.18H95.5V45H93.34ZM107.891 45V31.24H117.051V33.16H110.151V37.1H116.111V39.02H110.151V43.08H117.051V45H107.891ZM122.86 45V33.22H118.68V31.24H129.28V33.22H125.12V45H122.86ZM131.621 45V31.24H140.781V33.16H133.881V37.1H139.841V39.02H133.881V43.08H140.781V45H131.621ZM143.75 45V31.24H146.09L152.39 40.76H152.47V31.24H154.63V45H152.47L145.99 35.18H145.91V45H143.75ZM161.141 45V33.22H156.961V31.24H167.561V33.22H163.401V45H161.141Z" fill="#3A3A3A"/>
</svg>
