<svg width="188" height="76" viewBox="0 0 188 76" fill="none" xmlns="http://www.w3.org/2000/svg">
<path d="M27.8428 15.5213H47.9555C56.1119 15.2237 64.5462 18.0511 69.5512 23.3339C72.7026 26.6077 73.8148 30.8488 74.0002 34.9411C70.2 35.0155 66.3999 34.9411 62.5072 34.9411C62.4145 31.2952 60.3754 27.3518 56.1119 25.7148C50.8288 23.7803 44.8969 24.7476 39.3358 24.5988C39.2431 28.0214 39.3358 31.5185 39.2431 34.9411H27.8428V15.5213Z" fill="#FFFC00"/>
<path d="M27.8427 37.2468C31.6428 37.1724 35.4429 37.1724 39.1503 37.1724V61.2797H27.75C27.8427 53.2439 27.8427 45.2825 27.8427 37.2468V37.2468Z" fill="#FFFC00"/>
<path d="M62.4147 37.5449H73.9077C74.0004 45.5807 73.9077 53.542 73.9077 61.5778C70.1076 61.8754 66.2148 61.7266 62.322 61.5778C62.322 53.542 62.2293 45.5063 62.4147 37.5449Z" fill="#FFFC00"/>
<path d="M95.156 34V21.616H97.262L102.932 30.184H103.004V21.616H104.948V34H103.004L97.172 25.162H97.1V34H95.156ZM112.986 34.144C112.002 34.144 111.192 34.09 110.556 33.982C109.92 33.862 109.416 33.664 109.044 33.388C108.672 33.112 108.402 32.734 108.234 32.254C108.066 31.774 107.958 31.174 107.91 30.454C107.862 29.722 107.838 28.84 107.838 27.808C107.838 26.776 107.862 25.9 107.91 25.18C107.958 24.448 108.066 23.842 108.234 23.362C108.402 22.882 108.672 22.504 109.044 22.228C109.416 21.952 109.92 21.76 110.556 21.652C111.192 21.532 112.002 21.472 112.986 21.472C113.97 21.472 114.78 21.532 115.416 21.652C116.064 21.76 116.574 21.952 116.946 22.228C117.318 22.504 117.588 22.882 117.756 23.362C117.936 23.842 118.05 24.448 118.098 25.18C118.146 25.9 118.17 26.776 118.17 27.808C118.17 28.84 118.146 29.722 118.098 30.454C118.05 31.174 117.936 31.774 117.756 32.254C117.588 32.734 117.318 33.112 116.946 33.388C116.574 33.664 116.064 33.862 115.416 33.982C114.78 34.09 113.97 34.144 112.986 34.144ZM112.986 32.416C113.586 32.416 114.078 32.398 114.462 32.362C114.858 32.326 115.164 32.236 115.38 32.092C115.608 31.948 115.776 31.714 115.884 31.39C115.992 31.054 116.058 30.604 116.082 30.04C116.118 29.464 116.136 28.72 116.136 27.808C116.136 26.896 116.118 26.158 116.082 25.594C116.058 25.018 115.992 24.568 115.884 24.244C115.776 23.908 115.608 23.668 115.38 23.524C115.164 23.38 114.858 23.29 114.462 23.254C114.078 23.218 113.586 23.2 112.986 23.2C112.398 23.2 111.912 23.218 111.528 23.254C111.144 23.29 110.838 23.38 110.61 23.524C110.382 23.668 110.214 23.908 110.106 24.244C110.01 24.568 109.944 25.018 109.908 25.594C109.884 26.158 109.872 26.896 109.872 27.808C109.872 28.72 109.884 29.464 109.908 30.04C109.944 30.604 110.01 31.054 110.106 31.39C110.214 31.714 110.382 31.948 110.61 32.092C110.838 32.236 111.144 32.326 111.528 32.362C111.912 32.398 112.398 32.416 112.986 32.416ZM121.066 34V21.616H123.1V32.218H128.59V34H121.066ZM130.769 34V21.616H132.803V34H130.769ZM136.095 34V21.616H138.867L142.503 30.616H142.593L146.229 21.616H149.001V34H147.039V24.766H146.967L143.223 34H141.783L138.075 24.766H138.003V34H136.095ZM152.32 34V21.616H154.354V34H152.32ZM160.202 34V23.398H156.44V21.616H165.98V23.398H162.236V34H160.202ZM99.818 54.144C98.93 54.144 98.186 54.09 97.586 53.982C96.986 53.862 96.494 53.664 96.11 53.388C95.738 53.112 95.45 52.74 95.246 52.272C95.054 51.792 94.922 51.186 94.85 50.454C94.778 49.722 94.742 48.84 94.742 47.808C94.742 46.776 94.778 45.894 94.85 45.162C94.922 44.43 95.054 43.83 95.246 43.362C95.45 42.882 95.738 42.504 96.11 42.228C96.494 41.952 96.986 41.76 97.586 41.652C98.186 41.532 98.93 41.472 99.818 41.472C100.166 41.472 100.52 41.484 100.88 41.508C101.252 41.532 101.606 41.568 101.942 41.616C102.278 41.652 102.566 41.7 102.806 41.76V43.38C102.506 43.344 102.206 43.314 101.906 43.29C101.618 43.254 101.336 43.23 101.06 43.218C100.784 43.206 100.544 43.2 100.34 43.2C99.68 43.2 99.134 43.224 98.702 43.272C98.27 43.32 97.922 43.428 97.658 43.596C97.406 43.764 97.214 44.016 97.082 44.352C96.962 44.676 96.878 45.12 96.83 45.684C96.794 46.248 96.776 46.956 96.776 47.808C96.776 48.648 96.794 49.356 96.83 49.932C96.878 50.496 96.962 50.946 97.082 51.282C97.214 51.606 97.406 51.852 97.658 52.02C97.922 52.188 98.27 52.296 98.702 52.344C99.134 52.392 99.68 52.416 100.34 52.416C100.736 52.416 101.168 52.398 101.636 52.362C102.116 52.326 102.53 52.284 102.878 52.236V53.892C102.614 53.94 102.302 53.982 101.942 54.018C101.594 54.054 101.234 54.084 100.862 54.108C100.502 54.132 100.154 54.144 99.818 54.144ZM105.474 54V41.616H107.508V54H105.474ZM113.357 54V43.398H109.595V41.616H119.135V43.398H115.391V54H113.357ZM124.086 54V49.446L119.712 41.616H121.872L125.094 47.43H125.22L128.406 41.616H130.512L126.12 49.446V54H124.086Z" fill="#3A3A3A"/>
</svg>
