<svg width="188" height="76" viewBox="0 0 188 76" fill="none" xmlns="http://www.w3.org/2000/svg">
<path d="M4.5679 52.0185C1.12418 50.5685 4.79447 47.0342 7.06007 45.4483C2.52884 46.8076 -2.00234 51.5654 3.43512 54.0576C8.87258 56.5497 19.9741 58.3622 34.0208 58.3622C48.0676 58.3622 57.5831 55.6435 63.9268 54.0576C70.2705 52.4716 74.5752 49.2998 74.5752 47.2607C74.5752 45.2217 71.1768 43.1827 67.0987 42.2764C74.3486 45.4483 72.9893 49.0732 67.7784 50.8857C55.7707 54.9638 45.5754 56.0966 34.0208 56.3232C17.2553 56.5497 8.87256 53.831 4.5679 52.0185Z" fill="#3A3A3A"/>
<path d="M71.4034 20.7531C70.8596 17.6719 66.9477 18.412 65.0597 19.1672C65.9659 17.5813 73.669 13.5031 73.669 20.7531C73.669 28.0029 64.1541 36.1586 60.9819 38.8776L60.9816 38.8779C66.1925 32.5342 72.0831 24.6047 71.4034 20.7531Z" fill="#3A3A3A"/>
<path d="M60.3019 21.8857C62.1144 26.7794 60.1509 32.9872 58.9426 35.4793C64.1535 28.0028 61.8878 22.7919 60.3019 19.6201C46.0286 29.1356 36.7396 24.1513 30.6225 22.3388C24.5053 20.5263 18.6147 17.1279 14.3101 18.2607C10.0054 19.3935 8.64607 23.9247 10.6851 32.534C12.7242 41.1433 18.6147 47.7136 21.3335 50.8855C14.6273 51.0667 14.6122 48.5443 15.4429 47.2605C14.3101 47.4115 12.1804 48.1667 12.7242 49.9792C13.4038 52.2448 19.7475 53.3776 34.0208 53.3776C45.4394 53.3776 52.9764 50.5079 55.3176 49.073C55.6197 48.2423 56.3144 45.9464 56.6769 43.409C56.3144 44.6777 54.7134 47.2605 53.9582 48.3933L46.7083 50.4323C42.3281 51.1875 32.5256 52.2448 28.3569 50.4323C14.9898 45.2214 13.1773 34.3465 12.7242 31.6278C12.271 28.9091 11.8179 24.1513 14.3101 21.8857C16.3038 20.0732 20.4272 21.4326 22.2397 22.3388C25.8647 24.0758 35.0631 27.5497 42.8567 27.5497C52.5989 27.5497 55.3176 24.831 60.3019 21.8857Z" fill="#3A3A3A"/>
<path d="M86.84 31V17.24H96V19.16H89.1V23.1H95.06V25.02H89.1V29.08H96V31H86.84ZM103.649 31.16C103.156 31.16 102.609 31.1467 102.009 31.12C101.422 31.0933 100.842 31.0533 100.269 31C99.7089 30.96 99.1956 30.9133 98.7289 30.86V29C99.2089 29.04 99.7089 29.08 100.229 29.12C100.762 29.16 101.269 29.1933 101.749 29.22C102.229 29.2333 102.642 29.24 102.989 29.24C103.696 29.24 104.249 29.2067 104.649 29.14C105.049 29.0733 105.369 28.9667 105.609 28.82C105.769 28.7133 105.882 28.58 105.949 28.42C106.029 28.26 106.076 28.0733 106.089 27.86C106.116 27.6333 106.129 27.3867 106.129 27.12C106.129 26.76 106.116 26.46 106.089 26.22C106.062 25.98 106.002 25.7933 105.909 25.66C105.816 25.5267 105.669 25.4333 105.469 25.38C105.269 25.3133 105.009 25.26 104.689 25.22L101.409 24.84C100.769 24.76 100.242 24.6267 99.8289 24.44C99.4289 24.24 99.1156 23.98 98.8889 23.66C98.6756 23.34 98.5289 22.96 98.4489 22.52C98.3689 22.08 98.3289 21.5933 98.3289 21.06C98.3289 20.1667 98.4489 19.46 98.6889 18.94C98.9289 18.42 99.2689 18.0267 99.7089 17.76C100.162 17.48 100.696 17.3 101.309 17.22C101.922 17.1267 102.602 17.08 103.349 17.08C103.869 17.08 104.402 17.1 104.949 17.14C105.496 17.1667 106.009 17.2067 106.489 17.26C106.982 17.3 107.389 17.36 107.709 17.44V19.26C107.376 19.2067 106.982 19.16 106.529 19.12C106.089 19.08 105.629 19.0533 105.149 19.04C104.669 19.0133 104.222 19 103.809 19C103.116 19 102.556 19.0333 102.129 19.1C101.716 19.1533 101.396 19.2467 101.169 19.38C100.902 19.5267 100.742 19.7333 100.689 20C100.636 20.2533 100.609 20.5733 100.609 20.96C100.609 21.4133 100.636 21.7667 100.689 22.02C100.756 22.26 100.896 22.4267 101.109 22.52C101.336 22.6133 101.676 22.6867 102.129 22.74L105.409 23.12C105.822 23.16 106.196 23.2267 106.529 23.32C106.862 23.4 107.156 23.54 107.409 23.74C107.676 23.94 107.882 24.2267 108.029 24.6C108.122 24.7867 108.189 25 108.229 25.24C108.282 25.48 108.322 25.7467 108.349 26.04C108.389 26.32 108.409 26.64 108.409 27C108.409 27.76 108.329 28.3933 108.169 28.9C108.022 29.4067 107.809 29.8133 107.529 30.12C107.262 30.4133 106.929 30.64 106.529 30.8C106.129 30.9467 105.689 31.04 105.209 31.08C104.729 31.1333 104.209 31.16 103.649 31.16ZM111.449 31V17.24H117.609C118.476 17.24 119.176 17.3467 119.709 17.56C120.243 17.7733 120.649 18.08 120.929 18.48C121.223 18.8667 121.416 19.3333 121.509 19.88C121.616 20.4267 121.669 21.0333 121.669 21.7C121.669 22.3267 121.623 22.9133 121.529 23.46C121.436 23.9933 121.243 24.4667 120.949 24.88C120.669 25.28 120.256 25.5933 119.709 25.82C119.163 26.0467 118.443 26.16 117.549 26.16H113.709V31H111.449ZM113.709 24.24H116.689C117.316 24.24 117.816 24.2 118.189 24.12C118.563 24.04 118.829 23.9 118.989 23.7C119.163 23.5 119.276 23.24 119.329 22.92C119.383 22.6 119.409 22.1933 119.409 21.7C119.409 21.2067 119.383 20.8 119.329 20.48C119.289 20.1467 119.183 19.8867 119.009 19.7C118.849 19.5 118.589 19.36 118.229 19.28C117.869 19.2 117.376 19.16 116.749 19.16H113.709V24.24ZM124.457 31V17.24H130.877C131.744 17.24 132.444 17.34 132.977 17.54C133.511 17.74 133.911 18.0333 134.177 18.42C134.444 18.7933 134.624 19.2467 134.717 19.78C134.811 20.3 134.857 20.8733 134.857 21.5C134.857 21.9533 134.811 22.4533 134.717 23C134.637 23.5333 134.451 24.0267 134.157 24.48C133.877 24.92 133.431 25.24 132.817 25.44L135.077 31H132.677L130.477 25.38L131.057 25.68C130.964 25.72 130.851 25.7467 130.717 25.76C130.597 25.76 130.451 25.76 130.277 25.76H126.717V31H124.457ZM126.717 23.84H129.917C130.544 23.84 131.037 23.8 131.397 23.72C131.757 23.6267 132.024 23.4867 132.197 23.3C132.371 23.1133 132.477 22.8733 132.517 22.58C132.571 22.2867 132.597 21.9267 132.597 21.5C132.597 21.06 132.571 20.6933 132.517 20.4C132.477 20.0933 132.377 19.8533 132.217 19.68C132.057 19.4933 131.797 19.36 131.437 19.28C131.091 19.2 130.611 19.16 129.997 19.16H126.717V23.84ZM138.031 31V17.24H147.191V19.16H140.291V23.1H146.251V25.02H140.291V29.08H147.191V31H138.031ZM154.84 31.16C154.347 31.16 153.8 31.1467 153.2 31.12C152.614 31.0933 152.034 31.0533 151.46 31C150.9 30.96 150.387 30.9133 149.92 30.86V29C150.4 29.04 150.9 29.08 151.42 29.12C151.954 29.16 152.46 29.1933 152.94 29.22C153.42 29.2333 153.834 29.24 154.18 29.24C154.887 29.24 155.44 29.2067 155.84 29.14C156.24 29.0733 156.56 28.9667 156.8 28.82C156.96 28.7133 157.074 28.58 157.14 28.42C157.22 28.26 157.267 28.0733 157.28 27.86C157.307 27.6333 157.32 27.3867 157.32 27.12C157.32 26.76 157.307 26.46 157.28 26.22C157.254 25.98 157.194 25.7933 157.1 25.66C157.007 25.5267 156.86 25.4333 156.66 25.38C156.46 25.3133 156.2 25.26 155.88 25.22L152.6 24.84C151.96 24.76 151.434 24.6267 151.02 24.44C150.62 24.24 150.307 23.98 150.08 23.66C149.867 23.34 149.72 22.96 149.64 22.52C149.56 22.08 149.52 21.5933 149.52 21.06C149.52 20.1667 149.64 19.46 149.88 18.94C150.12 18.42 150.46 18.0267 150.9 17.76C151.354 17.48 151.887 17.3 152.5 17.22C153.114 17.1267 153.794 17.08 154.54 17.08C155.06 17.08 155.594 17.1 156.14 17.14C156.687 17.1667 157.2 17.2067 157.68 17.26C158.174 17.3 158.58 17.36 158.9 17.44V19.26C158.567 19.2067 158.174 19.16 157.72 19.12C157.28 19.08 156.82 19.0533 156.34 19.04C155.86 19.0133 155.414 19 155 19C154.307 19 153.747 19.0333 153.32 19.1C152.907 19.1533 152.587 19.2467 152.36 19.38C152.094 19.5267 151.934 19.7333 151.88 20C151.827 20.2533 151.8 20.5733 151.8 20.96C151.8 21.4133 151.827 21.7667 151.88 22.02C151.947 22.26 152.087 22.4267 152.3 22.52C152.527 22.6133 152.867 22.6867 153.32 22.74L156.6 23.12C157.014 23.16 157.387 23.2267 157.72 23.32C158.054 23.4 158.347 23.54 158.6 23.74C158.867 23.94 159.074 24.2267 159.22 24.6C159.314 24.7867 159.38 25 159.42 25.24C159.474 25.48 159.514 25.7467 159.54 26.04C159.58 26.32 159.6 26.64 159.6 27C159.6 27.76 159.52 28.3933 159.36 28.9C159.214 29.4067 159 29.8133 158.72 30.12C158.454 30.4133 158.12 30.64 157.72 30.8C157.32 30.9467 156.88 31.04 156.4 31.08C155.92 31.1333 155.4 31.16 154.84 31.16ZM167.321 31.16C166.827 31.16 166.281 31.1467 165.681 31.12C165.094 31.0933 164.514 31.0533 163.941 31C163.381 30.96 162.867 30.9133 162.401 30.86V29C162.881 29.04 163.381 29.08 163.901 29.12C164.434 29.16 164.941 29.1933 165.421 29.22C165.901 29.2333 166.314 29.24 166.661 29.24C167.367 29.24 167.921 29.2067 168.321 29.14C168.721 29.0733 169.041 28.9667 169.281 28.82C169.441 28.7133 169.554 28.58 169.621 28.42C169.701 28.26 169.747 28.0733 169.761 27.86C169.787 27.6333 169.801 27.3867 169.801 27.12C169.801 26.76 169.787 26.46 169.761 26.22C169.734 25.98 169.674 25.7933 169.581 25.66C169.487 25.5267 169.341 25.4333 169.141 25.38C168.941 25.3133 168.681 25.26 168.361 25.22L165.081 24.84C164.441 24.76 163.914 24.6267 163.501 24.44C163.101 24.24 162.787 23.98 162.561 23.66C162.347 23.34 162.201 22.96 162.121 22.52C162.041 22.08 162.001 21.5933 162.001 21.06C162.001 20.1667 162.121 19.46 162.361 18.94C162.601 18.42 162.941 18.0267 163.381 17.76C163.834 17.48 164.367 17.3 164.981 17.22C165.594 17.1267 166.274 17.08 167.021 17.08C167.541 17.08 168.074 17.1 168.621 17.14C169.167 17.1667 169.681 17.2067 170.161 17.26C170.654 17.3 171.061 17.36 171.381 17.44V19.26C171.047 19.2067 170.654 19.16 170.201 19.12C169.761 19.08 169.301 19.0533 168.821 19.04C168.341 19.0133 167.894 19 167.481 19C166.787 19 166.227 19.0333 165.801 19.1C165.387 19.1533 165.067 19.2467 164.841 19.38C164.574 19.5267 164.414 19.7333 164.361 20C164.307 20.2533 164.281 20.5733 164.281 20.96C164.281 21.4133 164.307 21.7667 164.361 22.02C164.427 22.26 164.567 22.4267 164.781 22.52C165.007 22.6133 165.347 22.6867 165.801 22.74L169.081 23.12C169.494 23.16 169.867 23.2267 170.201 23.32C170.534 23.4 170.827 23.54 171.081 23.74C171.347 23.94 171.554 24.2267 171.701 24.6C171.794 24.7867 171.861 25 171.901 25.24C171.954 25.48 171.994 25.7467 172.021 26.04C172.061 26.32 172.081 26.64 172.081 27C172.081 27.76 172.001 28.3933 171.841 28.9C171.694 29.4067 171.481 29.8133 171.201 30.12C170.934 30.4133 170.601 30.64 170.201 30.8C169.801 30.9467 169.361 31.04 168.881 31.08C168.401 31.1333 167.881 31.16 167.321 31.16ZM180.381 31.16C179.288 31.16 178.388 31.1 177.681 30.98C176.975 30.8467 176.415 30.6267 176.001 30.32C175.588 30.0133 175.288 29.5933 175.101 29.06C174.915 28.5267 174.795 27.86 174.741 27.06C174.688 26.2467 174.661 25.2667 174.661 24.12C174.661 22.9733 174.688 22 174.741 21.2C174.795 20.3867 174.915 19.7133 175.101 19.18C175.288 18.6467 175.588 18.2267 176.001 17.92C176.415 17.6133 176.975 17.4 177.681 17.28C178.388 17.1467 179.288 17.08 180.381 17.08C181.475 17.08 182.375 17.1467 183.081 17.28C183.801 17.4 184.368 17.6133 184.781 17.92C185.195 18.2267 185.495 18.6467 185.681 19.18C185.881 19.7133 186.008 20.3867 186.061 21.2C186.115 22 186.141 22.9733 186.141 24.12C186.141 25.2667 186.115 26.2467 186.061 27.06C186.008 27.86 185.881 28.5267 185.681 29.06C185.495 29.5933 185.195 30.0133 184.781 30.32C184.368 30.6267 183.801 30.8467 183.081 30.98C182.375 31.1 181.475 31.16 180.381 31.16ZM180.381 29.24C181.048 29.24 181.595 29.22 182.021 29.18C182.461 29.14 182.801 29.04 183.041 28.88C183.295 28.72 183.481 28.46 183.601 28.1C183.721 27.7267 183.795 27.2267 183.821 26.6C183.861 25.96 183.881 25.1333 183.881 24.12C183.881 23.1067 183.861 22.2867 183.821 21.66C183.795 21.02 183.721 20.52 183.601 20.16C183.481 19.7867 183.295 19.52 183.041 19.36C182.801 19.2 182.461 19.1 182.021 19.06C181.595 19.02 181.048 19 180.381 19C179.728 19 179.188 19.02 178.761 19.06C178.335 19.1 177.995 19.2 177.741 19.36C177.488 19.52 177.301 19.7867 177.181 20.16C177.075 20.52 177.001 21.02 176.961 21.66C176.935 22.2867 176.921 23.1067 176.921 24.12C176.921 25.1333 176.935 25.96 176.961 26.6C177.001 27.2267 177.075 27.7267 177.181 28.1C177.301 28.46 177.488 28.72 177.741 28.88C177.995 29.04 178.335 29.14 178.761 29.18C179.188 29.22 179.728 29.24 180.381 29.24ZM92.32 58.16C91.3333 58.16 90.4933 58.1 89.8 57.98C89.12 57.8467 88.5533 57.6267 88.1 57.32C87.6467 57.0133 87.2933 56.5933 87.04 56.06C86.8 55.5267 86.6267 54.86 86.52 54.06C86.4267 53.2467 86.38 52.2667 86.38 51.12C86.38 49.9733 86.4267 49 86.52 48.2C86.6267 47.3867 86.8067 46.7133 87.06 46.18C87.3133 45.6467 87.6667 45.2267 88.12 44.92C88.5733 44.6133 89.14 44.4 89.82 44.28C90.5133 44.1467 91.3467 44.08 92.32 44.08C92.76 44.08 93.24 44.1 93.76 44.14C94.2933 44.18 94.82 44.2333 95.34 44.3C95.86 44.3533 96.3333 44.42 96.76 44.5V46.3C96.3067 46.2333 95.86 46.18 95.42 46.14C94.98 46.1 94.5733 46.0667 94.2 46.04C93.84 46.0133 93.54 46 93.3 46C92.5 46 91.8267 46.02 91.28 46.06C90.7333 46.0867 90.2867 46.18 89.94 46.34C89.5933 46.5 89.3267 46.7667 89.14 47.14C88.9533 47.5 88.82 48 88.74 48.64C88.6733 49.28 88.64 50.1067 88.64 51.12C88.64 52.0133 88.66 52.7667 88.7 53.38C88.7533 53.98 88.8533 54.48 89 54.88C89.16 55.2667 89.3733 55.56 89.64 55.76C89.92 55.96 90.28 56.1 90.72 56.18C91.1733 56.26 91.7267 56.3 92.38 56.3C92.6333 56.3 92.9 56.2933 93.18 56.28C93.4733 56.2667 93.7467 56.2533 94 56.24C94.2533 56.2133 94.4667 56.1867 94.64 56.16V52.26H91.94V50.38H96.82V57.74C96.3667 57.82 95.8667 57.8933 95.32 57.96C94.7867 58.0133 94.26 58.06 93.74 58.1C93.22 58.14 92.7467 58.16 92.32 58.16ZM98.8775 58L103.798 44.24H106.758L111.678 58H109.338L108.138 54.6H102.338L101.158 58H98.8775ZM102.978 52.68H107.478L105.278 46.42H105.178L102.978 52.68ZM113.949 58V44.24H117.029L121.069 54.24H121.169L125.209 44.24H128.289V58H126.109V47.74H126.029L121.869 58H120.269L116.149 47.74H116.069V58H113.949ZM131.977 58V44.24H141.137V46.16H134.237V50.1H140.197V52.02H134.237V56.08H141.137V58H131.977ZM148.786 58.16C148.292 58.16 147.746 58.1467 147.146 58.12C146.559 58.0933 145.979 58.0533 145.406 58C144.846 57.96 144.332 57.9133 143.866 57.86V56C144.346 56.04 144.846 56.08 145.366 56.12C145.899 56.16 146.406 56.1933 146.886 56.22C147.366 56.2333 147.779 56.24 148.126 56.24C148.832 56.24 149.386 56.2067 149.786 56.14C150.186 56.0733 150.506 55.9667 150.746 55.82C150.906 55.7133 151.019 55.58 151.086 55.42C151.166 55.26 151.212 55.0733 151.226 54.86C151.252 54.6333 151.266 54.3867 151.266 54.12C151.266 53.76 151.252 53.46 151.226 53.22C151.199 52.98 151.139 52.7933 151.046 52.66C150.952 52.5267 150.806 52.4333 150.606 52.38C150.406 52.3133 150.146 52.26 149.826 52.22L146.546 51.84C145.906 51.76 145.379 51.6267 144.966 51.44C144.566 51.24 144.252 50.98 144.026 50.66C143.812 50.34 143.666 49.96 143.586 49.52C143.506 49.08 143.466 48.5933 143.466 48.06C143.466 47.1667 143.586 46.46 143.826 45.94C144.066 45.42 144.406 45.0267 144.846 44.76C145.299 44.48 145.832 44.3 146.446 44.22C147.059 44.1267 147.739 44.08 148.486 44.08C149.006 44.08 149.539 44.1 150.086 44.14C150.632 44.1667 151.146 44.2067 151.626 44.26C152.119 44.3 152.526 44.36 152.846 44.44V46.26C152.512 46.2067 152.119 46.16 151.666 46.12C151.226 46.08 150.766 46.0533 150.286 46.04C149.806 46.0133 149.359 46 148.946 46C148.252 46 147.692 46.0333 147.266 46.1C146.852 46.1533 146.532 46.2467 146.306 46.38C146.039 46.5267 145.879 46.7333 145.826 47C145.772 47.2533 145.746 47.5733 145.746 47.96C145.746 48.4133 145.772 48.7667 145.826 49.02C145.892 49.26 146.032 49.4267 146.246 49.52C146.472 49.6133 146.812 49.6867 147.266 49.74L150.546 50.12C150.959 50.16 151.332 50.2267 151.666 50.32C151.999 50.4 152.292 50.54 152.546 50.74C152.812 50.94 153.019 51.2267 153.166 51.6C153.259 51.7867 153.326 52 153.366 52.24C153.419 52.48 153.459 52.7467 153.486 53.04C153.526 53.32 153.546 53.64 153.546 54C153.546 54.76 153.466 55.3933 153.306 55.9C153.159 56.4067 152.946 56.8133 152.666 57.12C152.399 57.4133 152.066 57.64 151.666 57.8C151.266 57.9467 150.826 58.04 150.346 58.08C149.866 58.1333 149.346 58.16 148.786 58.16Z" fill="#3A3A3A"/>
</svg>
