<svg width="188" height="76" viewBox="0 0 188 76" fill="none" xmlns="http://www.w3.org/2000/svg">
<path d="M65.723 38C65.723 50.5348 55.2974 60.5 42.7365 60.5C30.1756 60.5 19.75 50.5348 19.75 38C19.75 25.4652 30.1756 15.5 42.7365 15.5C55.2974 15.5 65.723 25.4652 65.723 38ZM30.4268 38C30.4268 44.5808 35.9536 50.7228 42.7365 50.7228C49.5194 50.7228 55.0462 44.5808 55.0462 38C55.0462 31.4192 49.5194 25.2772 42.7365 25.2772C35.9536 25.2772 30.4268 31.4192 30.4268 38Z" fill="url(#paint0_linear_552_2866)"/>
<path d="M91.89 44.144C90.906 44.144 90.096 44.09 89.46 43.982C88.824 43.862 88.32 43.664 87.948 43.388C87.576 43.112 87.306 42.734 87.138 42.254C86.97 41.774 86.862 41.174 86.814 40.454C86.766 39.722 86.742 38.84 86.742 37.808C86.742 36.776 86.766 35.9 86.814 35.18C86.862 34.448 86.97 33.842 87.138 33.362C87.306 32.882 87.576 32.504 87.948 32.228C88.32 31.952 88.824 31.76 89.46 31.652C90.096 31.532 90.906 31.472 91.89 31.472C92.874 31.472 93.684 31.532 94.32 31.652C94.968 31.76 95.478 31.952 95.85 32.228C96.222 32.504 96.492 32.882 96.66 33.362C96.84 33.842 96.954 34.448 97.002 35.18C97.05 35.9 97.074 36.776 97.074 37.808C97.074 38.84 97.05 39.722 97.002 40.454C96.954 41.174 96.84 41.774 96.66 42.254C96.492 42.734 96.222 43.112 95.85 43.388C95.478 43.664 94.968 43.862 94.32 43.982C93.684 44.09 92.874 44.144 91.89 44.144ZM91.89 42.416C92.49 42.416 92.982 42.398 93.366 42.362C93.762 42.326 94.068 42.236 94.284 42.092C94.512 41.948 94.68 41.714 94.788 41.39C94.896 41.054 94.962 40.604 94.986 40.04C95.022 39.464 95.04 38.72 95.04 37.808C95.04 36.896 95.022 36.158 94.986 35.594C94.962 35.018 94.896 34.568 94.788 34.244C94.68 33.908 94.512 33.668 94.284 33.524C94.068 33.38 93.762 33.29 93.366 33.254C92.982 33.218 92.49 33.2 91.89 33.2C91.302 33.2 90.816 33.218 90.432 33.254C90.048 33.29 89.742 33.38 89.514 33.524C89.286 33.668 89.118 33.908 89.01 34.244C88.914 34.568 88.848 35.018 88.812 35.594C88.788 36.158 88.776 36.896 88.776 37.808C88.776 38.72 88.788 39.464 88.812 40.04C88.848 40.604 88.914 41.054 89.01 41.39C89.118 41.714 89.286 41.948 89.514 42.092C89.742 42.236 90.048 42.326 90.432 42.362C90.816 42.398 91.302 42.416 91.89 42.416ZM99.9705 44V31.616H102.076L107.746 40.184H107.818V31.616H109.762V44H107.818L101.986 35.162H101.914V44H99.9705ZM113.066 44V31.616H115.1V42.218H120.59V44H113.066ZM124.172 44V39.446L119.798 31.616H121.958L125.18 37.43H125.306L128.492 31.616H130.598L126.206 39.446V44H124.172ZM132.402 44V31.616H137.946C138.726 31.616 139.356 31.712 139.836 31.904C140.316 32.096 140.682 32.372 140.934 32.732C141.198 33.08 141.372 33.5 141.456 33.992C141.552 34.484 141.6 35.03 141.6 35.63C141.6 36.194 141.558 36.722 141.474 37.214C141.39 37.694 141.216 38.12 140.952 38.492C140.7 38.852 140.328 39.134 139.836 39.338C139.344 39.542 138.696 39.644 137.892 39.644H134.436V44H132.402ZM134.436 37.916H137.118C137.682 37.916 138.132 37.88 138.468 37.808C138.804 37.736 139.044 37.61 139.188 37.43C139.344 37.25 139.446 37.016 139.494 36.728C139.542 36.44 139.566 36.074 139.566 35.63C139.566 35.186 139.542 34.82 139.494 34.532C139.458 34.232 139.362 33.998 139.206 33.83C139.062 33.65 138.828 33.524 138.504 33.452C138.18 33.38 137.736 33.344 137.172 33.344H134.436V37.916ZM144.109 44V31.616H146.143V42.218H151.633V44H144.109ZM152.552 44L156.98 31.616H159.644L164.072 44H161.966L160.886 40.94H155.666L154.604 44H152.552ZM156.242 39.212H160.292L158.312 33.578H158.222L156.242 39.212ZM167.695 44V39.446L163.321 31.616H165.481L168.703 37.43H168.829L172.015 31.616H174.121L169.729 39.446V44H167.695Z" fill="#3A3A3A"/>
<defs>
<linearGradient id="paint0_linear_552_2866" x1="145.422" y1="14.8106" x2="145.422" y2="71.0292" gradientUnits="userSpaceOnUse">
<stop stop-color="#FFC000"/>
<stop offset="1" stop-color="#D200FF"/>
</linearGradient>
</defs>
</svg>
