<svg width="188" height="76" viewBox="0 0 188 76" fill="none" xmlns="http://www.w3.org/2000/svg">
<path d="M54.2699 50.4724C42.3824 32.7413 43.3708 25.3739 44.4112 22.9619C40.7355 26.9604 38.5 32.2591 38.5 38.0724C38.5 49.6538 47.3823 59.1983 58.8162 60.4932C58.8162 57.7897 56.5879 54.0392 54.2687 50.4724H54.2699Z" fill="#3A3A3A"/>
<path d="M61.4787 51.3683C74.7537 34.1196 77.4798 24.0546 77.8802 22.2715C73.7139 18.0952 67.9067 15.5 61.4787 15.5C55.0512 15.5 49.2434 18.0958 45.0771 22.2715C45.4775 24.0546 48.2036 34.1196 61.4787 51.3677V51.3683Z" fill="#3A3A3A"/>
<path d="M78.5458 22.9619C79.573 25.348 80.5548 32.5829 69.0689 49.9076C69.0558 49.9265 69.0432 49.9459 69.0301 49.9712C66.601 53.69 64.1533 57.669 64.1533 60.4991C75.5866 59.1983 84.4564 49.6603 84.4564 38.0783C84.4564 32.2591 82.2149 26.9604 78.5458 22.9619V22.9619Z" fill="#3A3A3A"/>
<path d="M110.1 44.66C109.007 44.66 108.107 44.6 107.4 44.48C106.693 44.3467 106.133 44.1267 105.72 43.82C105.307 43.5133 105.007 43.0933 104.82 42.56C104.633 42.0267 104.513 41.36 104.46 40.56C104.407 39.7467 104.38 38.7667 104.38 37.62C104.38 36.4733 104.407 35.5 104.46 34.7C104.513 33.8867 104.633 33.2133 104.82 32.68C105.007 32.1467 105.307 31.7267 105.72 31.42C106.133 31.1133 106.693 30.9 107.4 30.78C108.107 30.6467 109.007 30.58 110.1 30.58C111.193 30.58 112.093 30.6467 112.8 30.78C113.52 30.9 114.087 31.1133 114.5 31.42C114.913 31.7267 115.213 32.1467 115.4 32.68C115.6 33.2133 115.727 33.8867 115.78 34.7C115.833 35.5 115.86 36.4733 115.86 37.62C115.86 38.7667 115.833 39.7467 115.78 40.56C115.727 41.36 115.6 42.0267 115.4 42.56C115.213 43.0933 114.913 43.5133 114.5 43.82C114.087 44.1267 113.52 44.3467 112.8 44.48C112.093 44.6 111.193 44.66 110.1 44.66ZM110.1 42.74C110.767 42.74 111.313 42.72 111.74 42.68C112.18 42.64 112.52 42.54 112.76 42.38C113.013 42.22 113.2 41.96 113.32 41.6C113.44 41.2267 113.513 40.7267 113.54 40.1C113.58 39.46 113.6 38.6333 113.6 37.62C113.6 36.6067 113.58 35.7867 113.54 35.16C113.513 34.52 113.44 34.02 113.32 33.66C113.2 33.2867 113.013 33.02 112.76 32.86C112.52 32.7 112.18 32.6 111.74 32.56C111.313 32.52 110.767 32.5 110.1 32.5C109.447 32.5 108.907 32.52 108.48 32.56C108.053 32.6 107.713 32.7 107.46 32.86C107.207 33.02 107.02 33.2867 106.9 33.66C106.793 34.02 106.72 34.52 106.68 35.16C106.653 35.7867 106.64 36.6067 106.64 37.62C106.64 38.6333 106.653 39.46 106.68 40.1C106.72 40.7267 106.793 41.2267 106.9 41.6C107.02 41.96 107.207 42.22 107.46 42.38C107.713 42.54 108.053 42.64 108.48 42.68C108.907 42.72 109.447 42.74 110.1 42.74ZM119.078 44.5V30.74H125.498C126.365 30.74 127.065 30.84 127.598 31.04C128.132 31.24 128.532 31.5333 128.798 31.92C129.065 32.2933 129.245 32.7467 129.338 33.28C129.432 33.8 129.478 34.3733 129.478 35C129.478 35.4533 129.432 35.9533 129.338 36.5C129.258 37.0333 129.072 37.5267 128.778 37.98C128.498 38.42 128.052 38.74 127.438 38.94L129.698 44.5H127.298L125.098 38.88L125.678 39.18C125.585 39.22 125.472 39.2467 125.338 39.26C125.218 39.26 125.072 39.26 124.898 39.26H121.338V44.5H119.078ZM121.338 37.34H124.538C125.165 37.34 125.658 37.3 126.018 37.22C126.378 37.1267 126.645 36.9867 126.818 36.8C126.992 36.6133 127.098 36.3733 127.138 36.08C127.192 35.7867 127.218 35.4267 127.218 35C127.218 34.56 127.192 34.1933 127.138 33.9C127.098 33.5933 126.998 33.3533 126.838 33.18C126.678 32.9933 126.418 32.86 126.058 32.78C125.712 32.7 125.232 32.66 124.618 32.66H121.338V37.34ZM135.48 44.5V39.44L130.62 30.74H133.02L136.6 37.2H136.74L140.28 30.74H142.62L137.74 39.44V44.5H135.48ZM143.245 44.5L148.165 37.6L143.325 30.74H145.965L149.505 35.72H149.665L153.185 30.74H155.765L150.925 37.54L155.825 44.5H153.185L149.565 39.38H149.405L145.805 44.5H143.245Z" fill="#3A3A3A"/>
</svg>
