<svg width="188" height="76" viewBox="0 0 188 76" fill="none" xmlns="http://www.w3.org/2000/svg">
<path d="M26.8312 41.4345C24.8119 41.2258 22.8234 40.8523 20.8656 40.3139C20.7426 40.2788 20.6404 40.214 20.5591 40.1195C19.4649 38.8429 18.1949 37.051 16.7491 34.7439C15.6647 33.0136 15.3846 32.0742 15.5395 29.9187C15.7504 26.9623 16.2283 21.3033 18.3575 19.6521C21.5083 17.2087 24.824 15.0169 28.3044 13.0768C28.4014 13.0228 28.5109 12.9966 28.6209 13.001C31.0631 13.1262 36.8441 13.3338 38.7557 15.3971C39.7642 16.4847 40.6376 17.6756 41.3759 18.9698C41.444 19.0885 41.4122 19.1621 41.2803 19.1906C37.7966 19.9718 36.8342 21.3692 34.7874 24.0586C34.1415 24.909 32.978 24.4673 32.1409 24.2762C32.0464 24.2542 31.953 24.2575 31.8607 24.2861C29.4086 25.0507 27.0707 26.0757 24.8471 27.3611C24.7488 27.4167 24.6721 27.5038 24.6295 27.6083C23.5485 30.2615 23.0178 33.9562 24.3758 36.5995C25.2085 38.2189 26.0665 39.769 26.9498 41.25C27.0333 41.3884 26.9938 41.4499 26.8312 41.4345Z" fill="#3A3A3A"/>
<path d="M58.989 13.726C61.3028 15.0905 68.5174 19.3158 69.1437 21.6295C69.9588 24.6419 70.4521 27.706 70.6235 30.8217C70.7883 33.7781 67.3936 38.0199 65.4852 40.1392C65.4075 40.2234 65.3084 40.2849 65.1985 40.3172C63.2693 40.8796 61.3006 41.24 59.2923 41.3982C59.1582 41.4092 59.1242 41.3565 59.1901 41.24C60.1789 39.5031 61.3917 37.6541 62.0707 35.7886C62.987 33.2804 62.4662 30.0472 61.4774 27.628C61.4368 27.5253 61.3639 27.4386 61.2698 27.3808C59.1868 26.1416 57.0016 25.1616 54.7143 24.4409C53.8079 24.1541 53.0565 24.4541 52.1863 24.6353C52.0356 24.6672 51.8786 24.6479 51.7401 24.5804C51.6016 24.513 51.4895 24.4012 51.4217 24.2629C49.8957 21.1219 48.0335 20.0771 44.7937 19.1081C44.6816 19.0752 44.6575 19.0093 44.7212 18.9104C46.0923 16.7977 47.3908 14.4972 50.0506 13.9765C51.481 13.6974 53.4058 13.414 55.825 13.1261C57.2258 12.958 57.7366 12.9877 58.989 13.726Z" fill="#3A3A3A"/>
<path d="M39.2965 38.926C38.8175 38.9854 38.7406 39.193 39.0658 39.549L41.9662 42.7229C42.0343 42.7976 42.0684 42.8855 42.0684 42.9866V45.3827C42.0683 45.416 42.0598 45.4487 42.0436 45.4775C42.0274 45.5064 42.0042 45.5305 41.9761 45.5475L37.4113 48.2831C37.3256 48.3336 37.2806 48.3094 37.2762 48.2105L36.8708 38.9326C36.8642 38.8294 36.907 38.7536 36.9993 38.7052C38.1946 38.0768 39.3449 37.3869 40.4501 36.6354C41.7157 35.7719 42.1771 34.0613 42.4013 32.6441C42.6485 31.0917 41.8838 29.4339 41.2873 28.0101C40.6182 26.4182 38.9538 25.4426 37.4673 24.7439C37.3816 24.7021 37.3674 24.6428 37.4245 24.5659C38.4286 23.2519 39.1318 22.4917 39.5338 22.2851C41.8981 21.0744 44.2711 21.0755 46.653 22.2884C47.0946 22.5125 47.8241 23.3541 48.8414 24.8131C48.9029 24.901 48.8843 24.968 48.7854 25.0141C47.6055 25.5645 45.8883 26.2698 45.1336 27.3245C44.7348 27.8881 43.4395 31.1807 43.7658 32.4727C44.1646 34.0481 44.9589 36.4772 46.5574 37.3144C47.3813 37.745 48.2218 38.1559 49.0787 38.547C49.1798 38.5932 49.2281 38.6712 49.2237 38.781L48.8315 47.9897C48.8293 48.082 48.7898 48.1018 48.7129 48.049C47.3154 47.0888 45.84 46.2704 44.2865 45.5936C44.181 45.5475 44.1283 45.4662 44.1283 45.3497V42.8976C44.1283 42.8446 44.1483 42.7939 44.1843 42.7559L47.088 39.5226C47.1359 39.4699 47.1682 39.405 47.1815 39.3351C47.1947 39.2652 47.1884 39.193 47.1631 39.1265C47.1379 39.0599 47.0947 39.0017 47.0384 38.9582C46.9821 38.9146 46.9149 38.8876 46.8441 38.8799C44.3261 38.6074 41.8102 38.6228 39.2965 38.926Z" fill="#3A3A3A"/>
<path d="M39.0625 28.5638C39.0777 28.5747 39.0912 28.5893 39.102 28.6067C40.216 30.3007 40.773 33.4714 38.9735 34.9545C37.9617 35.7884 36.4884 36.8694 35.0975 36.6222C33.8627 36.4025 32.6817 36.0532 31.5545 35.5742C31.4531 35.532 31.3716 35.4517 31.327 35.35C30.7766 34.1075 29.7879 31.6521 30.3679 30.3667C30.8096 29.3911 31.8643 27.4399 32.9025 27.1993C34.0209 26.94 35.1525 26.7785 36.2972 26.7148C36.4159 26.7082 36.5269 26.7357 36.6301 26.7972C37.4893 27.3202 38.3 27.909 39.0625 28.5638Z" fill="#3A3A3A"/>
<path d="M54.1575 27.8191C54.8299 28.5672 56.1285 30.2778 55.9604 31.4215C55.7626 32.7706 55.3902 34.0692 54.8431 35.3172C54.7985 35.4192 54.7186 35.5003 54.6189 35.5446C53.4368 36.0698 52.2162 36.4202 50.9572 36.596C49.5466 36.7938 48.2084 35.9335 47.1867 35.07C45.8123 33.9132 46.0859 31.1018 46.5968 29.6219C47.0351 28.3596 47.9052 27.7894 48.9863 27.1006C50.0311 26.4315 51.7581 26.8402 52.8919 27.0973C53.4104 27.2159 53.8323 27.4565 54.1575 27.8191ZM49.3587 34.7273C49.413 34.7644 49.4796 34.7793 49.5446 34.7689C49.6096 34.7585 49.6681 34.7235 49.7081 34.6712L50.7693 33.2968C50.792 33.2677 50.8207 33.2437 50.8535 33.2266C50.8863 33.2095 50.9224 33.1997 50.9593 33.1979C50.9962 33.196 51.0331 33.2021 51.0674 33.2158C51.1018 33.2294 51.1327 33.2503 51.1583 33.2771L52.4667 34.6251C52.4906 34.6493 52.5191 34.6685 52.5505 34.6816C52.5819 34.6948 52.6156 34.7015 52.6496 34.7015C52.6837 34.7015 52.7174 34.6948 52.7488 34.6816C52.7802 34.6685 52.8087 34.6493 52.8326 34.6251L53.9598 33.4847C53.9841 33.4603 54.0032 33.4313 54.0161 33.3993C54.0289 33.3674 54.0352 33.3332 54.0346 33.2987C54.034 33.2643 54.0265 33.2304 54.0125 33.1989C53.9985 33.1674 53.9783 33.1391 53.9532 33.1156L52.5458 31.8038C52.4961 31.7574 52.4669 31.6932 52.4644 31.6253C52.4619 31.5573 52.4865 31.4912 52.5326 31.4413L53.9598 29.8889C54.0048 29.8402 54.0293 29.7759 54.0281 29.7096C54.0268 29.6433 54 29.58 53.9532 29.5329L52.8425 28.4321C52.8176 28.4077 52.788 28.3886 52.7555 28.376C52.723 28.3634 52.6883 28.3576 52.6534 28.3588C52.6186 28.36 52.5844 28.3683 52.5528 28.3832C52.5213 28.3981 52.4931 28.4192 52.47 28.4453L51.0594 30.0043C51.0134 30.0544 50.9495 30.0843 50.8815 30.0874C50.8136 30.0905 50.7472 30.0665 50.6968 30.0207L49.2203 28.6793C49.17 28.6335 49.1036 28.6096 49.0356 28.6126C48.9677 28.6157 48.9037 28.6456 48.8577 28.6958L47.9547 29.6944C47.912 29.7422 47.8888 29.8041 47.8894 29.8681C47.89 29.9321 47.9144 29.9936 47.958 30.0405L49.3587 31.5368C49.4018 31.5832 49.4263 31.6437 49.4275 31.707C49.4287 31.7702 49.4066 31.8317 49.3653 31.8796L47.9909 33.455C47.9675 33.4824 47.95 33.5144 47.9397 33.549C47.9295 33.5835 47.9266 33.6198 47.9312 33.6556C47.9359 33.6913 47.948 33.7257 47.9668 33.7564C47.9856 33.7872 48.0107 33.8136 48.0404 33.8341L49.3587 34.7273Z" fill="#3A3A3A"/>
<path d="M52.0444 42.1466C51.9752 42.1254 51.9142 42.0833 51.8699 42.0261C51.8256 41.9688 51.8002 41.8992 51.7972 41.8269L51.6819 38.943C51.6775 38.8155 51.7379 38.7375 51.8631 38.7089L54.0912 38.2277C54.2186 38.2014 54.3153 38.2442 54.3812 38.3563C55.2645 39.8724 55.9522 41.4742 56.4444 43.1617C56.5125 43.3968 56.429 43.4792 56.1939 43.4089L52.0444 42.1466Z" fill="#3A3A3A"/>
<path d="M34.3757 38.9763C34.3933 38.9802 34.4089 38.99 34.4198 39.0039C34.4307 39.0178 34.4361 39.0349 34.435 39.0521L34.3032 41.7712C34.2966 41.9053 34.2318 41.9986 34.1087 42.0514C32.731 42.6358 31.3072 43.0687 29.8372 43.35C29.6768 43.3807 29.6197 43.3181 29.6659 43.1621C30.1383 41.5295 30.7985 39.9772 31.6467 38.505C31.7038 38.4039 31.7895 38.3666 31.9038 38.3929L34.3757 38.9763Z" fill="#3A3A3A"/>
<path d="M49.0677 52.4528L47.1825 51.3553C47.0792 51.2938 46.976 51.2938 46.8727 51.3553C45.7224 52.0243 43.7647 53.3921 42.1991 52.8483C40.6984 52.3254 39.3438 51.5464 38.1353 50.5115C38.0013 50.3973 38.0101 50.2951 38.1617 50.205L42.766 47.4497C42.8565 47.3955 42.9594 47.3657 43.0646 47.3634C43.1698 47.3611 43.2737 47.3863 43.3659 47.4365L54.8718 53.7118C54.8978 53.7259 54.9263 53.7348 54.9557 53.738C54.9851 53.7412 55.0147 53.7385 55.0429 53.7303C55.0711 53.722 55.0973 53.7082 55.12 53.6898C55.1426 53.6714 55.1613 53.6486 55.175 53.6228L57.2514 49.8227C57.3061 49.7232 57.3909 49.6436 57.4934 49.5956C57.5959 49.5476 57.7109 49.5336 57.8216 49.5557C59.72 49.9293 61.3141 50.8279 62.6039 52.2518C62.6385 52.2892 62.6616 52.3361 62.6703 52.3869C62.6791 52.4377 62.6732 52.4903 62.6534 52.5385C61.7679 54.7094 60.1551 55.9948 57.815 56.3947C56.3022 56.6551 51.6682 53.8997 50.2971 53.0428C50.2566 53.0175 50.2098 53.004 50.162 53.0038C50.1142 53.0036 50.0673 53.0167 50.0266 53.0417C49.9858 53.0667 49.9529 53.1026 49.9314 53.1452C49.9099 53.1879 49.9007 53.2358 49.9049 53.2834L50.6201 61.622C50.6253 61.6851 50.607 61.748 50.5687 61.7985C50.5303 61.849 50.4747 61.8835 50.4125 61.8955C48.7162 62.2295 47.0276 62.4283 45.3467 62.4921C43.1319 62.5745 39.2196 59.8916 37.7695 58.6359C36.6818 57.6933 36.2731 53.5405 36.1182 52.1133C36.1072 52.0057 36.1413 51.9881 36.2204 52.0606C38.288 53.9085 40.382 55.1291 42.5023 55.7223C44.0217 56.1475 47.7988 53.5866 49.0776 52.6736C49.1897 52.5945 49.1864 52.5209 49.0677 52.4528Z" fill="#3A3A3A"/>
<path d="M86.84 34V20.24H93C93.8667 20.24 94.5667 20.3467 95.1 20.56C95.6333 20.7733 96.04 21.08 96.32 21.48C96.6133 21.8667 96.8067 22.3333 96.9 22.88C97.0067 23.4267 97.06 24.0333 97.06 24.7C97.06 25.3267 97.0133 25.9133 96.92 26.46C96.8267 26.9933 96.6333 27.4667 96.34 27.88C96.06 28.28 95.6467 28.5933 95.1 28.82C94.5533 29.0467 93.8333 29.16 92.94 29.16H89.1V34H86.84ZM89.1 27.24H92.08C92.7067 27.24 93.2067 27.2 93.58 27.12C93.9533 27.04 94.22 26.9 94.38 26.7C94.5533 26.5 94.6667 26.24 94.72 25.92C94.7733 25.6 94.8 25.1933 94.8 24.7C94.8 24.2067 94.7733 23.8 94.72 23.48C94.68 23.1467 94.5733 22.8867 94.4 22.7C94.24 22.5 93.98 22.36 93.62 22.28C93.26 22.2 92.7667 22.16 92.14 22.16H89.1V27.24ZM99.8478 34V20.24H109.008V22.16H102.108V26.1H108.068V28.02H102.108V32.08H109.008V34H99.8478ZM114.817 34V22.22H110.637V20.24H121.237V22.22H117.077V34H114.817ZM123.578 34V20.24H132.738V22.16H125.838V26.1H131.798V28.02H125.838V32.08H132.738V34H123.578ZM135.707 34V20.24H142.127C142.994 20.24 143.694 20.34 144.227 20.54C144.761 20.74 145.161 21.0333 145.427 21.42C145.694 21.7933 145.874 22.2467 145.967 22.78C146.061 23.3 146.107 23.8733 146.107 24.5C146.107 24.9533 146.061 25.4533 145.967 26C145.887 26.5333 145.701 27.0267 145.407 27.48C145.127 27.92 144.681 28.24 144.067 28.44L146.327 34H143.927L141.727 28.38L142.307 28.68C142.214 28.72 142.101 28.7467 141.967 28.76C141.847 28.76 141.701 28.76 141.527 28.76H137.967V34H135.707ZM137.967 26.84H141.167C141.794 26.84 142.287 26.8 142.647 26.72C143.007 26.6267 143.274 26.4867 143.447 26.3C143.621 26.1133 143.727 25.8733 143.767 25.58C143.821 25.2867 143.847 24.9267 143.847 24.5C143.847 24.06 143.821 23.6933 143.767 23.4C143.727 23.0933 143.627 22.8533 143.467 22.68C143.307 22.4933 143.047 22.36 142.687 22.28C142.341 22.2 141.861 22.16 141.247 22.16H137.967V26.84ZM159.526 34.16C158.486 34.16 157.606 34.1 156.886 33.98C156.166 33.8467 155.579 33.6667 155.126 33.44C154.686 33.2133 154.352 32.94 154.126 32.62C153.899 32.3 153.739 31.9467 153.646 31.56C153.566 31.1733 153.526 30.76 153.526 30.32C153.526 29.5733 153.619 28.9867 153.806 28.56C154.006 28.12 154.292 27.7867 154.666 27.56C155.039 27.32 155.492 27.14 156.026 27.02V26.94C155.226 26.7533 154.626 26.42 154.226 25.94C153.839 25.4467 153.646 24.7 153.646 23.7C153.646 23.2067 153.719 22.74 153.866 22.3C154.026 21.86 154.312 21.4733 154.726 21.14C155.152 20.8067 155.752 20.5467 156.526 20.36C157.299 20.1733 158.292 20.08 159.506 20.08C159.946 20.08 160.432 20.1 160.966 20.14C161.499 20.18 162.026 20.2267 162.546 20.28C163.079 20.3333 163.559 20.4 163.986 20.48V22.18C163.586 22.1267 163.146 22.08 162.666 22.04C162.186 22 161.712 21.9667 161.246 21.94C160.792 21.9133 160.386 21.9 160.026 21.9C159.092 21.9 158.346 21.94 157.786 22.02C157.226 22.0867 156.799 22.2 156.506 22.36C156.226 22.52 156.039 22.74 155.946 23.02C155.852 23.3 155.806 23.6467 155.806 24.06C155.806 24.34 155.832 24.6133 155.886 24.88C155.939 25.1333 156.039 25.3533 156.186 25.54C156.346 25.7267 156.592 25.8733 156.926 25.98C157.272 26.0867 157.732 26.14 158.306 26.14H160.006V27.94H158.306C157.732 27.94 157.266 27.9867 156.906 28.08C156.559 28.16 156.299 28.2933 156.126 28.48C155.952 28.6533 155.832 28.88 155.766 29.16C155.712 29.44 155.686 29.7733 155.686 30.16C155.686 30.8 155.812 31.28 156.066 31.6C156.332 31.9067 156.746 32.1133 157.306 32.22C157.879 32.3133 158.619 32.36 159.526 32.36C159.899 32.36 160.259 32.3533 160.606 32.34C160.952 32.3267 161.292 32.3067 161.626 32.28C161.972 32.2533 162.306 32.22 162.626 32.18L161.966 33.22V26.14H166.306V27.94H164.066V33.76C163.652 33.8267 163.179 33.8933 162.646 33.96C162.126 34.0133 161.592 34.06 161.046 34.1C160.512 34.14 160.006 34.16 159.526 34.16ZM91.52 56.16C91.0267 56.16 90.48 56.1467 89.88 56.12C89.2933 56.0933 88.7133 56.0533 88.14 56C87.58 55.96 87.0667 55.9133 86.6 55.86V54C87.08 54.04 87.58 54.08 88.1 54.12C88.6333 54.16 89.14 54.1933 89.62 54.22C90.1 54.2333 90.5133 54.24 90.86 54.24C91.5667 54.24 92.12 54.2067 92.52 54.14C92.92 54.0733 93.24 53.9667 93.48 53.82C93.64 53.7133 93.7533 53.58 93.82 53.42C93.9 53.26 93.9467 53.0733 93.96 52.86C93.9867 52.6333 94 52.3867 94 52.12C94 51.76 93.9867 51.46 93.96 51.22C93.9333 50.98 93.8733 50.7933 93.78 50.66C93.6867 50.5267 93.54 50.4333 93.34 50.38C93.14 50.3133 92.88 50.26 92.56 50.22L89.28 49.84C88.64 49.76 88.1133 49.6267 87.7 49.44C87.3 49.24 86.9867 48.98 86.76 48.66C86.5467 48.34 86.4 47.96 86.32 47.52C86.24 47.08 86.2 46.5933 86.2 46.06C86.2 45.1667 86.32 44.46 86.56 43.94C86.8 43.42 87.14 43.0267 87.58 42.76C88.0333 42.48 88.5667 42.3 89.18 42.22C89.7933 42.1267 90.4733 42.08 91.22 42.08C91.74 42.08 92.2733 42.1 92.82 42.14C93.3667 42.1667 93.88 42.2067 94.36 42.26C94.8533 42.3 95.26 42.36 95.58 42.44V44.26C95.2467 44.2067 94.8533 44.16 94.4 44.12C93.96 44.08 93.5 44.0533 93.02 44.04C92.54 44.0133 92.0933 44 91.68 44C90.9867 44 90.4267 44.0333 90 44.1C89.5867 44.1533 89.2667 44.2467 89.04 44.38C88.7733 44.5267 88.6133 44.7333 88.56 45C88.5067 45.2533 88.48 45.5733 88.48 45.96C88.48 46.4133 88.5067 46.7667 88.56 47.02C88.6267 47.26 88.7667 47.4267 88.98 47.52C89.2067 47.6133 89.5467 47.6867 90 47.74L93.28 48.12C93.6933 48.16 94.0667 48.2267 94.4 48.32C94.7333 48.4 95.0267 48.54 95.28 48.74C95.5467 48.94 95.7533 49.2267 95.9 49.6C95.9933 49.7867 96.06 50 96.1 50.24C96.1533 50.48 96.1933 50.7467 96.22 51.04C96.26 51.32 96.28 51.64 96.28 52C96.28 52.76 96.2 53.3933 96.04 53.9C95.8933 54.4067 95.68 54.8133 95.4 55.12C95.1333 55.4133 94.8 55.64 94.4 55.8C94 55.9467 93.56 56.04 93.08 56.08C92.6 56.1333 92.08 56.16 91.52 56.16ZM104.58 56.16C103.487 56.16 102.587 56.1 101.88 55.98C101.174 55.8467 100.614 55.6267 100.2 55.32C99.7871 55.0133 99.4871 54.5933 99.3005 54.06C99.1138 53.5267 98.9938 52.86 98.9405 52.06C98.8871 51.2467 98.8605 50.2667 98.8605 49.12C98.8605 47.9733 98.8871 47 98.9405 46.2C98.9938 45.3867 99.1138 44.7133 99.3005 44.18C99.4871 43.6467 99.7871 43.2267 100.2 42.92C100.614 42.6133 101.174 42.4 101.88 42.28C102.587 42.1467 103.487 42.08 104.58 42.08C105.674 42.08 106.574 42.1467 107.28 42.28C108 42.4 108.567 42.6133 108.98 42.92C109.394 43.2267 109.694 43.6467 109.88 44.18C110.08 44.7133 110.207 45.3867 110.26 46.2C110.314 47 110.34 47.9733 110.34 49.12C110.34 50.2667 110.314 51.2467 110.26 52.06C110.207 52.86 110.08 53.5267 109.88 54.06C109.694 54.5933 109.394 55.0133 108.98 55.32C108.567 55.6267 108 55.8467 107.28 55.98C106.574 56.1 105.674 56.16 104.58 56.16ZM104.58 54.24C105.247 54.24 105.794 54.22 106.22 54.18C106.66 54.14 107 54.04 107.24 53.88C107.494 53.72 107.68 53.46 107.8 53.1C107.92 52.7267 107.994 52.2267 108.02 51.6C108.06 50.96 108.08 50.1333 108.08 49.12C108.08 48.1067 108.06 47.2867 108.02 46.66C107.994 46.02 107.92 45.52 107.8 45.16C107.68 44.7867 107.494 44.52 107.24 44.36C107 44.2 106.66 44.1 106.22 44.06C105.794 44.02 105.247 44 104.58 44C103.927 44 103.387 44.02 102.96 44.06C102.534 44.1 102.194 44.2 101.94 44.36C101.687 44.52 101.5 44.7867 101.38 45.16C101.274 45.52 101.2 46.02 101.16 46.66C101.134 47.2867 101.12 48.1067 101.12 49.12C101.12 50.1333 101.134 50.96 101.16 51.6C101.2 52.2267 101.274 52.7267 101.38 53.1C101.5 53.46 101.687 53.72 101.94 53.88C102.194 54.04 102.534 54.14 102.96 54.18C103.387 54.22 103.927 54.24 104.58 54.24ZM113.559 56V42.24H115.899L122.199 51.76H122.279V42.24H124.439V56H122.279L115.799 46.18H115.719V56H113.559ZM132.79 56.16C132.296 56.16 131.75 56.1467 131.15 56.12C130.563 56.0933 129.983 56.0533 129.41 56C128.85 55.96 128.336 55.9133 127.87 55.86V54C128.35 54.04 128.85 54.08 129.37 54.12C129.903 54.16 130.41 54.1933 130.89 54.22C131.37 54.2333 131.783 54.24 132.13 54.24C132.836 54.24 133.39 54.2067 133.79 54.14C134.19 54.0733 134.51 53.9667 134.75 53.82C134.91 53.7133 135.023 53.58 135.09 53.42C135.17 53.26 135.216 53.0733 135.23 52.86C135.256 52.6333 135.27 52.3867 135.27 52.12C135.27 51.76 135.256 51.46 135.23 51.22C135.203 50.98 135.143 50.7933 135.05 50.66C134.956 50.5267 134.81 50.4333 134.61 50.38C134.41 50.3133 134.15 50.26 133.83 50.22L130.55 49.84C129.91 49.76 129.383 49.6267 128.97 49.44C128.57 49.24 128.256 48.98 128.03 48.66C127.816 48.34 127.67 47.96 127.59 47.52C127.51 47.08 127.47 46.5933 127.47 46.06C127.47 45.1667 127.59 44.46 127.83 43.94C128.07 43.42 128.41 43.0267 128.85 42.76C129.303 42.48 129.836 42.3 130.45 42.22C131.063 42.1267 131.743 42.08 132.49 42.08C133.01 42.08 133.543 42.1 134.09 42.14C134.636 42.1667 135.15 42.2067 135.63 42.26C136.123 42.3 136.53 42.36 136.85 42.44V44.26C136.516 44.2067 136.123 44.16 135.67 44.12C135.23 44.08 134.77 44.0533 134.29 44.04C133.81 44.0133 133.363 44 132.95 44C132.256 44 131.696 44.0333 131.27 44.1C130.856 44.1533 130.536 44.2467 130.31 44.38C130.043 44.5267 129.883 44.7333 129.83 45C129.776 45.2533 129.75 45.5733 129.75 45.96C129.75 46.4133 129.776 46.7667 129.83 47.02C129.896 47.26 130.036 47.4267 130.25 47.52C130.476 47.6133 130.816 47.6867 131.27 47.74L134.55 48.12C134.963 48.16 135.336 48.2267 135.67 48.32C136.003 48.4 136.296 48.54 136.55 48.74C136.816 48.94 137.023 49.2267 137.17 49.6C137.263 49.7867 137.33 50 137.37 50.24C137.423 50.48 137.463 50.7467 137.49 51.04C137.53 51.32 137.55 51.64 137.55 52C137.55 52.76 137.47 53.3933 137.31 53.9C137.163 54.4067 136.95 54.8133 136.67 55.12C136.403 55.4133 136.07 55.64 135.67 55.8C135.27 55.9467 134.83 56.04 134.35 56.08C133.87 56.1333 133.35 56.16 132.79 56.16Z" fill="#3A3A3A"/>
</svg>
