<svg width="188" height="76" viewBox="0 0 188 76" fill="none" xmlns="http://www.w3.org/2000/svg">
<path d="M58.3481 18.667L46.0087 50.2197L45.2295 52.0626C44.4899 53.8106 45.6356 55.8201 47.3729 55.8201H81.3538C82.3202 55.8202 83.2562 55.4446 84.0001 54.7581C84.7439 54.0716 85.2488 53.1174 85.4275 52.0606L89.5781 27.509C89.8038 26.1737 89.5574 24.793 88.8903 23.655C88.2232 22.517 87.1869 21.7096 85.9977 21.4013L63.7659 15.6375C62.687 15.3578 61.5542 15.5077 60.5643 16.0612C59.5745 16.6147 58.7903 17.5367 58.3481 18.667V18.667Z" fill="#3E95A0"/>
<path fill-rule="evenodd" clip-rule="evenodd" d="M88.5271 23.1144L70.472 36.2517L59.248 17.151C59.8167 16.4814 60.5331 15.9893 61.3258 15.7237C62.1186 15.4582 62.9601 15.4285 63.7664 15.6375L85.9976 21.4014C86.9841 21.6555 87.871 22.2561 88.5271 23.1144V23.1144Z" fill="#B6CD3A"/>
<path fill-rule="evenodd" clip-rule="evenodd" d="M59.4522 16.9233L70.6974 36.0596L45.3287 54.518C45.132 54.1492 45.02 53.7322 45.0024 53.3038C44.9849 52.8755 45.0624 52.4489 45.228 52.0617L46.0084 50.2188L58.3479 18.6661C58.6052 18.0073 58.981 17.4142 59.4522 16.9233V16.9233Z" fill="#F8A600"/>
<path d="M47.0391 55.819L49.4537 39.6318H54.9087C56.026 39.6318 56.9308 39.8638 57.6218 40.3269C58.3133 40.7855 58.7941 41.4207 59.0641 42.2324C59.3341 43.0382 59.3904 43.958 59.2347 44.9904C59.0831 46.0288 58.7491 46.9506 58.2328 47.7571C57.7212 48.5629 57.0468 49.198 56.2084 49.6619C55.3706 50.1204 54.3906 50.3497 53.268 50.3497H49.6526L50.0144 47.9382H53.2751C53.9282 47.9382 54.483 47.8124 54.9372 47.5594C55.3966 47.3064 55.7584 46.9585 56.0237 46.5157C56.2889 46.0736 56.4642 45.565 56.5495 44.9904C56.63 44.4166 56.6039 43.9099 56.4713 43.4731C56.3387 43.0356 56.0805 42.6956 55.6968 42.4538C55.3179 42.2061 54.7998 42.0822 54.1414 42.0822H51.7268L49.6739 55.819H47.0391ZM63.541 39.6318L61.127 55.819H58.4922L60.9068 39.6318H63.5416H63.541ZM62.5806 55.819L64.9958 39.6318H70.4509C71.5682 39.6318 72.4724 39.8638 73.1639 40.3269C73.8555 40.7855 74.3363 41.4207 74.6057 42.2324C74.8757 43.0382 74.9325 43.958 74.7762 44.9904C74.6247 46.0288 74.2907 46.9506 73.775 47.7571C73.2634 48.5629 72.5884 49.198 71.75 49.6619C70.9122 50.1204 69.9322 50.3497 68.8102 50.3497H65.193L65.5554 47.9382H68.8161C69.4692 47.9382 70.0234 47.8124 70.4781 47.5594C70.937 47.3064 71.2994 46.9585 71.5647 46.5157C71.8299 46.0736 72.0052 45.565 72.0904 44.9904C72.171 44.4166 72.1449 43.9099 72.0123 43.4731C71.8797 43.0356 71.6215 42.6956 71.2378 42.4538C70.8589 42.2061 70.3408 42.0822 69.6823 42.0822H67.2672L65.2149 55.819H62.58H62.5806ZM74.2806 55.819H71.4675L79.0039 39.6318H82.2569L84.9693 55.819H82.1568L80.2029 42.9512H80.0898L74.2795 55.819H74.2806ZM75.3168 49.4721H82.9881L82.6329 51.8276H74.9622L75.3174 49.4721H75.3168Z" fill="white"/>
<path d="M53.5359 58.5991C53.4982 58.4519 53.4418 58.3114 53.3683 58.1821C53.2949 58.0515 53.2022 57.9357 53.0942 57.8394C52.9827 57.7383 52.856 57.66 52.7199 57.6082C52.5684 57.5508 52.4092 57.5227 52.2492 57.5252C51.9769 57.5252 51.7323 57.6003 51.5168 57.7518C51.3013 57.9033 51.1307 58.1221 51.0058 58.4074C50.8815 58.6927 50.8193 59.0359 50.8193 59.4379C50.8193 59.8385 50.882 60.1811 51.0076 60.4664C51.1331 60.7517 51.3048 60.9711 51.5227 61.1239C51.7424 61.2755 51.9934 61.3506 52.2759 61.3506C52.5334 61.3506 52.7614 61.29 52.9592 61.1674C53.1569 61.0455 53.3109 60.8709 53.421 60.6436C53.5335 60.4163 53.588 60.1461 53.585 59.8332L53.7076 59.8747H52.3659V59.5077H53.9574V59.8747C53.9574 60.2562 53.8846 60.5863 53.7401 60.8637C53.5957 61.1417 53.3973 61.3565 53.1451 61.508C52.8928 61.6596 52.6033 61.7354 52.2759 61.7354C51.9105 61.7354 51.5908 61.6411 51.3167 61.4534C51.0392 61.2602 50.8169 60.9829 50.676 60.6541C50.525 60.3096 50.4492 59.9037 50.4492 59.4379C50.4492 59.0873 50.493 58.7704 50.5801 58.4878C50.6591 58.2213 50.7849 57.975 50.9501 57.763C51.1112 57.5621 51.3013 57.4085 51.5209 57.3018C51.7406 57.1944 51.9828 57.1404 52.2492 57.1404C52.4784 57.1404 52.6874 57.1792 52.8769 57.2563C53.2371 57.3985 53.5417 57.6757 53.7384 58.0404C53.8325 58.215 53.8959 58.4015 53.9284 58.5991H53.5359V58.5991ZM56.915 61.6741H56.5136L58.0376 57.2016H58.4468L59.9709 61.6741H59.57L58.2567 57.732H58.2277L56.915 61.6741V61.6741ZM57.2034 59.9597H59.2817V60.3267H57.2034V59.9597V59.9597ZM62.8201 57.2016H63.2618L64.7817 61.0976H64.8184L66.3378 57.2016H66.7801V61.6741H66.4201V58.0641H66.3869L64.9736 61.6741H64.626L63.2126 58.0641H63.1795V61.6741H62.8195V57.2016H62.8201ZM70.0248 61.6741V57.2016H72.4548V57.5686H70.4073V59.2521H72.3257V59.6191H70.4073V61.3071H72.4957V61.6741H70.0248V61.6741ZM77.8507 58.3198C77.8416 58.2016 77.8092 58.0871 77.7558 57.9845C77.7024 57.8818 77.6292 57.7936 77.5416 57.7261C77.3592 57.5785 77.1295 57.5054 76.8524 57.5054C76.657 57.5054 76.4853 57.541 76.3372 57.6121C76.1996 57.6751 76.0794 57.7776 75.9891 57.9093C75.9062 58.0345 75.8647 58.1768 75.8647 58.3375C75.8647 58.4555 75.8884 58.5589 75.9358 58.6472C75.9838 58.7362 76.0483 58.8126 76.1282 58.8765C76.2099 58.9391 76.2999 58.9931 76.3982 59.0379C76.4977 59.0834 76.5984 59.1216 76.699 59.1519L77.1407 59.287C77.2745 59.3265 77.4084 59.3766 77.5416 59.4385C77.6754 59.4991 77.7974 59.5762 77.9081 59.6691C78.02 59.7614 78.1094 59.8734 78.1757 60.0078C78.2438 60.1402 78.2782 60.2997 78.2782 60.4861C78.2782 60.7246 78.2201 60.9394 78.1041 61.1305C77.9886 61.3216 77.8222 61.4725 77.6049 61.5851C77.3882 61.6952 77.1289 61.7505 76.8257 61.7505C76.5409 61.7505 76.2928 61.7004 76.0832 61.5996C75.8877 61.5101 75.7169 61.3646 75.5882 61.1779C75.4677 60.997 75.3973 60.7808 75.3857 60.556H75.7783C75.7919 60.7319 75.847 60.8815 75.9423 61.004C76.0376 61.1259 76.1614 61.2188 76.3147 61.2834C76.4675 61.346 76.6374 61.3769 76.8257 61.3769C77.0347 61.3769 77.2201 61.34 77.3823 61.2656C77.5457 61.1898 77.6742 61.085 77.7672 60.9513C77.8607 60.8156 77.9081 60.6588 77.9081 60.4795C77.9123 60.3423 77.8731 60.2078 77.7974 60.0994C77.7136 59.9876 77.6079 59.8987 77.4883 59.8398C77.3414 59.7632 77.1889 59.7011 77.0324 59.654L76.5315 59.4965C76.2028 59.3924 75.9476 59.2474 75.7665 59.0623C75.6777 58.9734 75.6073 58.864 75.5603 58.7418C75.5133 58.6196 75.4907 58.4875 75.4941 58.3547C75.4941 58.1142 75.5545 57.9034 75.6741 57.7215C75.7955 57.5377 75.9595 57.3954 76.1655 57.2932C76.3853 57.1872 76.6229 57.1344 76.8624 57.1384C77.123 57.1384 77.3539 57.1891 77.554 57.2913C77.7432 57.3832 77.9075 57.5285 78.0307 57.7129C78.1491 57.8908 78.2124 58.0924 78.2207 58.3198H77.8507V58.3198Z" fill="#414141"/>
<path d="M111.156 44V31.616H116.7C117.48 31.616 118.11 31.712 118.59 31.904C119.07 32.096 119.436 32.372 119.688 32.732C119.952 33.08 120.126 33.5 120.21 33.992C120.306 34.484 120.354 35.03 120.354 35.63C120.354 36.194 120.312 36.722 120.228 37.214C120.144 37.694 119.97 38.12 119.706 38.492C119.454 38.852 119.082 39.134 118.59 39.338C118.098 39.542 117.45 39.644 116.646 39.644H113.19V44H111.156ZM113.19 37.916H115.872C116.436 37.916 116.886 37.88 117.222 37.808C117.558 37.736 117.798 37.61 117.942 37.43C118.098 37.25 118.2 37.016 118.248 36.728C118.296 36.44 118.32 36.074 118.32 35.63C118.32 35.186 118.296 34.82 118.248 34.532C118.212 34.232 118.116 33.998 117.96 33.83C117.816 33.65 117.582 33.524 117.258 33.452C116.934 33.38 116.49 33.344 115.926 33.344H113.19V37.916ZM122.863 44V31.616H124.897V44H122.863ZM128.189 44V31.616H133.733C134.513 31.616 135.143 31.712 135.623 31.904C136.103 32.096 136.469 32.372 136.721 32.732C136.985 33.08 137.159 33.5 137.243 33.992C137.339 34.484 137.387 35.03 137.387 35.63C137.387 36.194 137.345 36.722 137.261 37.214C137.177 37.694 137.003 38.12 136.739 38.492C136.487 38.852 136.115 39.134 135.623 39.338C135.131 39.542 134.483 39.644 133.679 39.644H130.223V44H128.189ZM130.223 37.916H132.905C133.469 37.916 133.919 37.88 134.255 37.808C134.591 37.736 134.831 37.61 134.975 37.43C135.131 37.25 135.233 37.016 135.281 36.728C135.329 36.44 135.353 36.074 135.353 35.63C135.353 35.186 135.329 34.82 135.281 34.532C135.245 34.232 135.149 33.998 134.993 33.83C134.849 33.65 134.615 33.524 134.291 33.452C133.967 33.38 133.523 33.344 132.959 33.344H130.223V37.916ZM137.968 44L142.396 31.616H145.06L149.488 44H147.382L146.302 40.94H141.082L140.02 44H137.968ZM141.658 39.212H145.708L143.728 33.578H143.638L141.658 39.212Z" fill="#3A3A3A"/>
</svg>
