<svg width="188" height="76" viewBox="0 0 188 76" fill="none" xmlns="http://www.w3.org/2000/svg">
<path fill-rule="evenodd" clip-rule="evenodd" d="M29.0328 19.95H59.592L66.288 14.25L66.288 57C66.2903 59.621 64.149 61.7475 61.5052 61.75H29.0328C27.7632 61.7489 26.546 61.2478 25.6491 60.357C24.7521 59.4662 24.2489 58.2586 24.25 57V24.7C24.2489 23.4414 24.7521 22.2338 25.6491 21.343C26.546 20.4522 27.7632 19.9511 29.0328 19.95Z" fill="#074A8A"/>
<path d="M47.0574 45.6339C47.523 45.3613 47.9178 44.9844 48.21 44.5334C48.516 44.0492 48.7272 43.5122 48.8325 42.9504C48.9541 42.3448 49.0151 41.7287 49.0146 41.1111C49.015 40.4928 48.9489 39.8762 48.8173 39.2719C48.6982 38.6999 48.4771 38.1537 48.1646 37.6586C47.8679 37.1935 47.4681 36.8017 46.9957 36.5128C46.4666 36.2077 45.8617 36.0562 45.25 36.0757C44.6283 36.0537 44.013 36.2052 43.474 36.5128C43.0068 36.7964 42.6122 37.1835 42.3213 37.6436C42.0167 38.1339 41.8057 38.6756 41.6989 39.2416C41.5762 39.8572 41.5152 40.4834 41.5167 41.1109C41.516 41.7292 41.5822 42.3458 41.714 42.9502C41.8286 43.5116 42.0446 44.0479 42.3516 44.5331C43.4213 46.0158 45.4319 46.4862 47.0574 45.6339ZM41.4559 33.2718V35.2619H41.5167C41.9884 34.4674 42.6852 33.8278 43.5205 33.4226C44.3563 33.0351 45.2695 32.8393 46.1922 32.8497C47.2956 32.8211 48.3894 33.0595 49.3789 33.5443C50.2458 33.9874 51.0027 34.6156 51.5952 35.3836C52.1987 36.1819 52.6419 37.0877 52.9006 38.0519C53.1868 39.0885 53.3297 40.1588 53.3256 41.2335C53.3291 42.2534 53.186 43.2687 52.9006 44.2486C52.6364 45.1755 52.1987 46.045 51.6104 46.8116C51.0336 47.5554 50.2974 48.163 49.4549 48.5904C48.5168 49.0501 47.4802 49.2778 46.434 49.2538C45.505 49.2631 44.586 49.062 43.7472 48.6659C42.9304 48.2766 42.2334 47.6781 41.7282 46.9321H41.6684V54.3193H37.3574V33.2718H41.4559Z" fill="#FDE428"/>
<path d="M89.156 44V31.616H94.7C95.48 31.616 96.11 31.712 96.59 31.904C97.07 32.096 97.436 32.372 97.688 32.732C97.952 33.08 98.126 33.5 98.21 33.992C98.306 34.484 98.354 35.03 98.354 35.63C98.354 36.194 98.312 36.722 98.228 37.214C98.144 37.694 97.97 38.12 97.706 38.492C97.454 38.852 97.082 39.134 96.59 39.338C96.098 39.542 95.45 39.644 94.646 39.644H91.19V44H89.156ZM91.19 37.916H93.872C94.436 37.916 94.886 37.88 95.222 37.808C95.558 37.736 95.798 37.61 95.942 37.43C96.098 37.25 96.2 37.016 96.248 36.728C96.296 36.44 96.32 36.074 96.32 35.63C96.32 35.186 96.296 34.82 96.248 34.532C96.212 34.232 96.116 33.998 95.96 33.83C95.816 33.65 95.582 33.524 95.258 33.452C94.934 33.38 94.49 33.344 93.926 33.344H91.19V37.916ZM100.863 44V31.616H102.897V42.218H108.387V44H100.863ZM109.306 44L113.734 31.616H116.398L120.826 44H118.72L117.64 40.94H112.42L111.358 44H109.306ZM112.996 39.212H117.046L115.066 33.578H114.976L112.996 39.212ZM124.46 44V33.398H120.698V31.616H130.238V33.398H126.494V44H124.46ZM132.345 44V31.616H134.379V44H132.345ZM137.672 44V31.616H143.216C143.996 31.616 144.626 31.712 145.106 31.904C145.586 32.096 145.952 32.372 146.204 32.732C146.468 33.08 146.642 33.5 146.726 33.992C146.822 34.484 146.87 35.03 146.87 35.63C146.87 36.194 146.828 36.722 146.744 37.214C146.66 37.694 146.486 38.12 146.222 38.492C145.97 38.852 145.598 39.134 145.106 39.338C144.614 39.542 143.966 39.644 143.162 39.644H139.706V44H137.672ZM139.706 37.916H142.388C142.952 37.916 143.402 37.88 143.738 37.808C144.074 37.736 144.314 37.61 144.458 37.43C144.614 37.25 144.716 37.016 144.764 36.728C144.812 36.44 144.836 36.074 144.836 35.63C144.836 35.186 144.812 34.82 144.764 34.532C144.728 34.232 144.632 33.998 144.476 33.83C144.332 33.65 144.098 33.524 143.774 33.452C143.45 33.38 143.006 33.344 142.442 33.344H139.706V37.916ZM154.059 44.144C153.207 44.144 152.493 44.096 151.917 44C151.341 43.892 150.873 43.718 150.513 43.478C150.165 43.238 149.895 42.908 149.703 42.488C149.523 42.056 149.397 41.516 149.325 40.868C149.265 40.22 149.235 39.44 149.235 38.528V31.616H151.269V39.158C151.269 39.854 151.293 40.418 151.341 40.85C151.389 41.282 151.497 41.612 151.665 41.84C151.833 42.068 152.109 42.224 152.493 42.308C152.877 42.38 153.399 42.416 154.059 42.416C154.731 42.416 155.253 42.38 155.625 42.308C155.997 42.224 156.267 42.068 156.435 41.84C156.615 41.612 156.723 41.282 156.759 40.85C156.807 40.418 156.831 39.854 156.831 39.158V31.616H158.865V38.528C158.865 39.44 158.829 40.22 158.757 40.868C158.697 41.516 158.577 42.056 158.397 42.488C158.217 42.908 157.947 43.238 157.587 43.478C157.239 43.718 156.777 43.892 156.201 44C155.625 44.096 154.911 44.144 154.059 44.144ZM166.264 44.144C165.82 44.144 165.328 44.132 164.788 44.108C164.26 44.084 163.738 44.048 163.222 44C162.718 43.964 162.256 43.922 161.836 43.874V42.2C162.268 42.236 162.718 42.272 163.186 42.308C163.666 42.344 164.122 42.374 164.554 42.398C164.986 42.41 165.358 42.416 165.67 42.416C166.306 42.416 166.804 42.386 167.164 42.326C167.524 42.266 167.812 42.17 168.028 42.038C168.172 41.942 168.274 41.822 168.334 41.678C168.406 41.534 168.448 41.366 168.46 41.174C168.484 40.97 168.496 40.748 168.496 40.508C168.496 40.184 168.484 39.914 168.46 39.698C168.436 39.482 168.382 39.314 168.298 39.194C168.214 39.074 168.082 38.99 167.902 38.942C167.722 38.882 167.488 38.834 167.2 38.798L164.248 38.456C163.672 38.384 163.198 38.264 162.826 38.096C162.466 37.916 162.184 37.682 161.98 37.394C161.788 37.106 161.656 36.764 161.584 36.368C161.512 35.972 161.476 35.534 161.476 35.054C161.476 34.25 161.584 33.614 161.8 33.146C162.016 32.678 162.322 32.324 162.718 32.084C163.126 31.832 163.606 31.67 164.158 31.598C164.71 31.514 165.322 31.472 165.994 31.472C166.462 31.472 166.942 31.49 167.434 31.526C167.926 31.55 168.388 31.586 168.82 31.634C169.264 31.67 169.63 31.724 169.918 31.796V33.434C169.618 33.386 169.264 33.344 168.856 33.308C168.46 33.272 168.046 33.248 167.614 33.236C167.182 33.212 166.78 33.2 166.408 33.2C165.784 33.2 165.28 33.23 164.896 33.29C164.524 33.338 164.236 33.422 164.032 33.542C163.792 33.674 163.648 33.86 163.6 34.1C163.552 34.328 163.528 34.616 163.528 34.964C163.528 35.372 163.552 35.69 163.6 35.918C163.66 36.134 163.786 36.284 163.978 36.368C164.182 36.452 164.488 36.518 164.896 36.566L167.848 36.908C168.22 36.944 168.556 37.004 168.856 37.088C169.156 37.16 169.42 37.286 169.648 37.466C169.888 37.646 170.074 37.904 170.206 38.24C170.29 38.408 170.35 38.6 170.386 38.816C170.434 39.032 170.47 39.272 170.494 39.536C170.53 39.788 170.548 40.076 170.548 40.4C170.548 41.084 170.476 41.654 170.332 42.11C170.2 42.566 170.008 42.932 169.756 43.208C169.516 43.472 169.216 43.676 168.856 43.82C168.496 43.952 168.1 44.036 167.668 44.072C167.236 44.12 166.768 44.144 166.264 44.144Z" fill="#3A3A3A"/>
</svg>
