<svg width="188" height="76" viewBox="0 0 188 76" fill="none" xmlns="http://www.w3.org/2000/svg">
<path fill-rule="evenodd" clip-rule="evenodd" d="M7.66699 32.897L19.1743 27.2906L7.66699 21.7085V32.897Z" fill="#EB008B"/>
<path fill-rule="evenodd" clip-rule="evenodd" d="M19.1748 38.4796L30.6596 32.8975L19.1748 27.291V38.4796Z" fill="#00ADEE"/>
<path fill-rule="evenodd" clip-rule="evenodd" d="M19.1748 49.6675L30.6596 44.061L19.1748 38.479V49.6675Z" fill="#00B4A4"/>
<path fill-rule="evenodd" clip-rule="evenodd" d="M30.6592 44.0613L42.1665 38.4791L30.6592 32.897V44.0613Z" fill="#FFE600"/>
<path fill-rule="evenodd" clip-rule="evenodd" d="M7.66797 44.0613L19.1753 38.4791L7.66797 32.897V44.0613Z" fill="#EC1C24"/>
<path fill-rule="evenodd" clip-rule="evenodd" d="M7.66797 55.2491L19.1753 49.667L7.66797 44.0605V55.2491Z" fill="#FAAF40"/>
<path d="M47.656 44V31.616H53.2C53.98 31.616 54.61 31.712 55.09 31.904C55.57 32.096 55.936 32.372 56.188 32.732C56.452 33.08 56.626 33.5 56.71 33.992C56.806 34.484 56.854 35.03 56.854 35.63C56.854 36.194 56.812 36.722 56.728 37.214C56.644 37.694 56.47 38.12 56.206 38.492C55.954 38.852 55.582 39.134 55.09 39.338C54.598 39.542 53.95 39.644 53.146 39.644H49.69V44H47.656ZM49.69 37.916H52.372C52.936 37.916 53.386 37.88 53.722 37.808C54.058 37.736 54.298 37.61 54.442 37.43C54.598 37.25 54.7 37.016 54.748 36.728C54.796 36.44 54.82 36.074 54.82 35.63C54.82 35.186 54.796 34.82 54.748 34.532C54.712 34.232 54.616 33.998 54.46 33.83C54.316 33.65 54.082 33.524 53.758 33.452C53.434 33.38 52.99 33.344 52.426 33.344H49.69V37.916ZM59.363 44V31.616H61.397V42.218H66.887V44H59.363ZM67.8062 44L72.2342 31.616H74.8982L79.3262 44H77.2202L76.1402 40.94H70.9202L69.8582 44H67.8062ZM71.4962 39.212H75.5462L73.5662 33.578H73.4762L71.4962 39.212ZM82.9492 44V39.446L78.5752 31.616H80.7352L83.9572 37.43H84.0832L87.2692 31.616H89.3752L84.9832 39.446V44H82.9492ZM95.1278 44.144C94.6838 44.144 94.1918 44.132 93.6518 44.108C93.1238 44.084 92.6018 44.048 92.0858 44C91.5818 43.964 91.1198 43.922 90.6998 43.874V42.2C91.1318 42.236 91.5818 42.272 92.0498 42.308C92.5298 42.344 92.9858 42.374 93.4178 42.398C93.8498 42.41 94.2218 42.416 94.5338 42.416C95.1698 42.416 95.6678 42.386 96.0278 42.326C96.3878 42.266 96.6758 42.17 96.8918 42.038C97.0358 41.942 97.1378 41.822 97.1978 41.678C97.2698 41.534 97.3118 41.366 97.3238 41.174C97.3478 40.97 97.3598 40.748 97.3598 40.508C97.3598 40.184 97.3478 39.914 97.3238 39.698C97.2998 39.482 97.2458 39.314 97.1618 39.194C97.0778 39.074 96.9458 38.99 96.7658 38.942C96.5858 38.882 96.3518 38.834 96.0638 38.798L93.1118 38.456C92.5358 38.384 92.0618 38.264 91.6898 38.096C91.3298 37.916 91.0478 37.682 90.8438 37.394C90.6518 37.106 90.5198 36.764 90.4478 36.368C90.3758 35.972 90.3398 35.534 90.3398 35.054C90.3398 34.25 90.4478 33.614 90.6638 33.146C90.8798 32.678 91.1858 32.324 91.5818 32.084C91.9898 31.832 92.4698 31.67 93.0218 31.598C93.5738 31.514 94.1858 31.472 94.8578 31.472C95.3258 31.472 95.8058 31.49 96.2978 31.526C96.7898 31.55 97.2518 31.586 97.6838 31.634C98.1278 31.67 98.4938 31.724 98.7818 31.796V33.434C98.4818 33.386 98.1278 33.344 97.7198 33.308C97.3238 33.272 96.9098 33.248 96.4778 33.236C96.0458 33.212 95.6438 33.2 95.2718 33.2C94.6478 33.2 94.1438 33.23 93.7598 33.29C93.3878 33.338 93.0998 33.422 92.8958 33.542C92.6558 33.674 92.5118 33.86 92.4638 34.1C92.4158 34.328 92.3918 34.616 92.3918 34.964C92.3918 35.372 92.4158 35.69 92.4638 35.918C92.5238 36.134 92.6498 36.284 92.8418 36.368C93.0458 36.452 93.3518 36.518 93.7598 36.566L96.7118 36.908C97.0838 36.944 97.4198 37.004 97.7198 37.088C98.0198 37.16 98.2838 37.286 98.5118 37.466C98.7518 37.646 98.9378 37.904 99.0698 38.24C99.1538 38.408 99.2138 38.6 99.2498 38.816C99.2978 39.032 99.3338 39.272 99.3578 39.536C99.3938 39.788 99.4118 40.076 99.4118 40.4C99.4118 41.084 99.3398 41.654 99.1958 42.11C99.0638 42.566 98.8718 42.932 98.6198 43.208C98.3798 43.472 98.0798 43.676 97.7198 43.82C97.3598 43.952 96.9638 44.036 96.5318 44.072C96.0998 44.12 95.6318 44.144 95.1278 44.144ZM106.882 44.144C105.898 44.144 105.088 44.09 104.452 43.982C103.816 43.862 103.312 43.664 102.94 43.388C102.568 43.112 102.298 42.734 102.13 42.254C101.962 41.774 101.854 41.174 101.806 40.454C101.758 39.722 101.734 38.84 101.734 37.808C101.734 36.776 101.758 35.9 101.806 35.18C101.854 34.448 101.962 33.842 102.13 33.362C102.298 32.882 102.568 32.504 102.94 32.228C103.312 31.952 103.816 31.76 104.452 31.652C105.088 31.532 105.898 31.472 106.882 31.472C107.866 31.472 108.676 31.532 109.312 31.652C109.96 31.76 110.47 31.952 110.842 32.228C111.214 32.504 111.484 32.882 111.652 33.362C111.832 33.842 111.946 34.448 111.994 35.18C112.042 35.9 112.066 36.776 112.066 37.808C112.066 38.84 112.042 39.722 111.994 40.454C111.946 41.174 111.832 41.774 111.652 42.254C111.484 42.734 111.214 43.112 110.842 43.388C110.47 43.664 109.96 43.862 109.312 43.982C108.676 44.09 107.866 44.144 106.882 44.144ZM106.882 42.416C107.482 42.416 107.974 42.398 108.358 42.362C108.754 42.326 109.06 42.236 109.276 42.092C109.504 41.948 109.672 41.714 109.78 41.39C109.888 41.054 109.954 40.604 109.978 40.04C110.014 39.464 110.032 38.72 110.032 37.808C110.032 36.896 110.014 36.158 109.978 35.594C109.954 35.018 109.888 34.568 109.78 34.244C109.672 33.908 109.504 33.668 109.276 33.524C109.06 33.38 108.754 33.29 108.358 33.254C107.974 33.218 107.482 33.2 106.882 33.2C106.294 33.2 105.808 33.218 105.424 33.254C105.04 33.29 104.734 33.38 104.506 33.524C104.278 33.668 104.11 33.908 104.002 34.244C103.906 34.568 103.84 35.018 103.804 35.594C103.78 36.158 103.768 36.896 103.768 37.808C103.768 38.72 103.78 39.464 103.804 40.04C103.84 40.604 103.906 41.054 104.002 41.39C104.11 41.714 104.278 41.948 104.506 42.092C104.734 42.236 105.04 42.326 105.424 42.362C105.808 42.398 106.294 42.416 106.882 42.416ZM114.963 44V31.616H117.069L122.739 40.184H122.811V31.616H124.755V44H122.811L116.979 35.162H116.907V44H114.963ZM128.058 44V31.616H132.108C133.152 31.616 134.004 31.67 134.664 31.778C135.336 31.874 135.864 32.054 136.248 32.318C136.632 32.582 136.908 32.948 137.076 33.416C137.256 33.884 137.37 34.478 137.418 35.198C137.466 35.918 137.49 36.788 137.49 37.808C137.49 38.828 137.466 39.698 137.418 40.418C137.37 41.138 137.256 41.732 137.076 42.2C136.908 42.668 136.632 43.034 136.248 43.298C135.864 43.562 135.336 43.748 134.664 43.856C134.004 43.952 133.152 44 132.108 44H128.058ZM130.092 42.272H131.928C132.6 42.272 133.152 42.26 133.584 42.236C134.028 42.2 134.376 42.116 134.628 41.984C134.88 41.84 135.066 41.612 135.186 41.3C135.306 40.988 135.378 40.55 135.402 39.986C135.438 39.41 135.456 38.684 135.456 37.808C135.456 36.932 135.438 36.212 135.402 35.648C135.378 35.084 135.3 34.646 135.168 34.334C135.048 34.01 134.856 33.782 134.592 33.65C134.34 33.506 133.998 33.422 133.566 33.398C133.134 33.362 132.588 33.344 131.928 33.344H130.092V42.272ZM140.398 44V31.616H142.432V44H140.398ZM145.724 44V31.616H151.502C152.282 31.616 152.912 31.706 153.392 31.886C153.872 32.066 154.232 32.33 154.472 32.678C154.712 33.014 154.874 33.422 154.958 33.902C155.042 34.37 155.084 34.886 155.084 35.45C155.084 35.858 155.042 36.308 154.958 36.8C154.886 37.28 154.718 37.724 154.454 38.132C154.202 38.528 153.8 38.816 153.248 38.996L155.282 44H153.122L151.142 38.942L151.664 39.212C151.58 39.248 151.478 39.272 151.358 39.284C151.25 39.284 151.118 39.284 150.962 39.284H147.758V44H145.724ZM147.758 37.556H150.638C151.202 37.556 151.646 37.52 151.97 37.448C152.294 37.364 152.534 37.238 152.69 37.07C152.846 36.902 152.942 36.686 152.978 36.422C153.026 36.158 153.05 35.834 153.05 35.45C153.05 35.054 153.026 34.724 152.978 34.46C152.942 34.184 152.852 33.968 152.708 33.812C152.564 33.644 152.33 33.524 152.006 33.452C151.694 33.38 151.262 33.344 150.71 33.344H147.758V37.556ZM157.941 44V31.616H166.185V33.344H159.975V36.89H165.339V38.618H159.975V42.272H166.185V44H157.941ZM173.519 44.144C172.631 44.144 171.887 44.09 171.287 43.982C170.687 43.862 170.195 43.664 169.811 43.388C169.439 43.112 169.151 42.74 168.947 42.272C168.755 41.792 168.623 41.186 168.551 40.454C168.479 39.722 168.443 38.84 168.443 37.808C168.443 36.776 168.479 35.894 168.551 35.162C168.623 34.43 168.755 33.83 168.947 33.362C169.151 32.882 169.439 32.504 169.811 32.228C170.195 31.952 170.687 31.76 171.287 31.652C171.887 31.532 172.631 31.472 173.519 31.472C173.867 31.472 174.221 31.484 174.581 31.508C174.953 31.532 175.307 31.568 175.643 31.616C175.979 31.652 176.267 31.7 176.507 31.76V33.38C176.207 33.344 175.907 33.314 175.607 33.29C175.319 33.254 175.037 33.23 174.761 33.218C174.485 33.206 174.245 33.2 174.041 33.2C173.381 33.2 172.835 33.224 172.403 33.272C171.971 33.32 171.623 33.428 171.359 33.596C171.107 33.764 170.915 34.016 170.783 34.352C170.663 34.676 170.579 35.12 170.531 35.684C170.495 36.248 170.477 36.956 170.477 37.808C170.477 38.648 170.495 39.356 170.531 39.932C170.579 40.496 170.663 40.946 170.783 41.282C170.915 41.606 171.107 41.852 171.359 42.02C171.623 42.188 171.971 42.296 172.403 42.344C172.835 42.392 173.381 42.416 174.041 42.416C174.437 42.416 174.869 42.398 175.337 42.362C175.817 42.326 176.231 42.284 176.579 42.236V43.892C176.315 43.94 176.003 43.982 175.643 44.018C175.295 44.054 174.935 44.084 174.563 44.108C174.203 44.132 173.855 44.144 173.519 44.144ZM181.732 44V33.398H177.97V31.616H187.51V33.398H183.766V44H181.732Z" fill="#3A3A3A"/>
</svg>
