<svg width="188" height="76" viewBox="0 0 188 76" fill="none" xmlns="http://www.w3.org/2000/svg">
<path d="M68 38C68 45.2934 65.1027 52.2882 59.9454 57.4454C54.7882 62.6027 47.7935 65.5 40.5 65.5C33.2065 65.5 26.2118 62.6027 21.0546 57.4454C15.8973 52.2882 13 45.2934 13 38C13 30.7065 15.8973 23.7118 21.0546 18.5546C26.2118 13.3973 33.2065 10.5 40.5 10.5C47.7935 10.5 54.7882 13.3973 59.9454 18.5546C65.1027 23.7118 68 30.7065 68 38ZM50.4193 38.1887C50.4075 38.1888 50.396 38.1921 50.3858 38.1981C50.3757 38.2041 50.3674 38.2127 50.3617 38.2231C50.356 38.2334 50.3532 38.245 50.3534 38.2568C50.3537 38.2686 50.3572 38.2801 50.3634 38.2901L56.791 48.2024C56.8066 48.2273 56.8286 48.2476 56.8545 48.2614C56.8805 48.2751 56.9097 48.2818 56.9391 48.2807C56.9684 48.2797 56.997 48.2709 57.0219 48.2553C57.0469 48.2397 57.0673 48.2179 57.0811 48.1919C67.8882 28.9825 45.208 9.26621 27.9034 23.2294C27.8656 23.2604 27.8395 23.3035 27.8293 23.3517C27.8192 23.4 27.8256 23.4505 27.8475 23.495L29.3923 26.6617C29.4483 26.7782 29.524 26.7922 29.6195 26.7036C39.8709 17.2317 55.6096 24.0578 56.2318 37.8252C56.2434 38.0932 56.1141 38.226 55.8438 38.2237L50.4193 38.1887ZM25.0059 38.2901L30.4304 38.4159C30.5819 38.4183 30.6215 38.353 30.5492 38.2202L24.569 27.2733C24.5543 27.247 24.5329 27.225 24.507 27.2096C24.4811 27.1942 24.4516 27.1859 24.4215 27.1855C24.3913 27.1852 24.3616 27.1928 24.3354 27.2076C24.3091 27.2224 24.2872 27.2439 24.2719 27.2698C20.4389 33.7196 20.0218 40.0796 23.0207 46.35C28.585 57.9784 43.2437 60.8689 53.1071 52.7881C53.1956 52.7158 53.2143 52.6284 53.163 52.5259L51.6356 49.3943C51.6259 49.3749 51.6119 49.358 51.5948 49.3449C51.5776 49.3317 51.5577 49.3226 51.5365 49.3182C51.5153 49.3139 51.4934 49.3143 51.4725 49.3196C51.4515 49.3249 51.432 49.3349 51.4154 49.3488C50.1944 50.3787 49.1902 51.1174 48.4026 51.5648C38.1897 57.3528 25.1178 50.4673 24.8312 38.4649C24.8265 38.3437 24.8847 38.2854 25.0059 38.2901Z" fill="#FFC001"/>
<path d="M50.4189 38.1892L55.8434 38.2241C56.1137 38.2265 56.243 38.0937 56.2313 37.8257C55.6092 24.0582 39.8704 17.2322 29.6191 26.7041C29.5236 26.7926 29.4478 26.7786 29.3919 26.6621L27.8471 23.4955C27.8252 23.4509 27.8188 23.4004 27.8289 23.3522C27.8391 23.304 27.8652 23.2609 27.903 23.2299C45.2076 9.26666 67.8877 28.9829 57.0807 48.1924C57.0668 48.2183 57.0465 48.2402 57.0215 48.2558C56.9966 48.2714 56.968 48.2801 56.9386 48.2812C56.9092 48.2823 56.8801 48.2756 56.8541 48.2618C56.8281 48.2481 56.8062 48.2277 56.7906 48.2029L50.3629 38.2906C50.3567 38.2805 50.3533 38.269 50.353 38.2573C50.3527 38.2455 50.3556 38.2338 50.3613 38.2235C50.367 38.2132 50.3753 38.2046 50.3854 38.1986C50.3955 38.1925 50.4071 38.1893 50.4189 38.1892Z" fill="#1A1A1A"/>
<path d="M24.8309 38.4654C25.1175 50.4678 38.1895 57.3533 48.4023 51.5653C49.1899 51.1179 50.1942 50.3792 51.4152 49.3493C51.4317 49.3354 51.4512 49.3254 51.4722 49.3201C51.4932 49.3148 51.5151 49.3144 51.5363 49.3187C51.5575 49.3231 51.5774 49.3322 51.5945 49.3454C51.6117 49.3586 51.6257 49.3754 51.6354 49.3948L53.1628 52.5264C53.214 52.629 53.1954 52.7163 53.1068 52.7886C43.2435 60.8694 28.5847 57.9789 23.0204 46.3505C20.0216 40.0801 20.4387 33.7201 24.2717 27.2703C24.287 27.2444 24.3089 27.2229 24.3351 27.2081C24.3614 27.1933 24.3911 27.1857 24.4212 27.186C24.4514 27.1864 24.4809 27.1947 24.5068 27.2101C24.5327 27.2255 24.5541 27.2475 24.5688 27.2738L30.549 38.2207C30.6212 38.3535 30.5816 38.4188 30.4302 38.4164L25.0057 38.2906C24.8845 38.2859 24.8263 38.3442 24.8309 38.4654Z" fill="#1A1A1A"/>
<path d="M84.34 45V31.24H90.5C91.3667 31.24 92.0667 31.3467 92.6 31.56C93.1333 31.7733 93.54 32.08 93.82 32.48C94.1133 32.8667 94.3067 33.3333 94.4 33.88C94.5067 34.4267 94.56 35.0333 94.56 35.7C94.56 36.3267 94.5133 36.9133 94.42 37.46C94.3267 37.9933 94.1333 38.4667 93.84 38.88C93.56 39.28 93.1467 39.5933 92.6 39.82C92.0533 40.0467 91.3333 40.16 90.44 40.16H86.6V45H84.34ZM86.6 38.24H89.58C90.2067 38.24 90.7067 38.2 91.08 38.12C91.4533 38.04 91.72 37.9 91.88 37.7C92.0533 37.5 92.1667 37.24 92.22 36.92C92.2733 36.6 92.3 36.1933 92.3 35.7C92.3 35.2067 92.2733 34.8 92.22 34.48C92.18 34.1467 92.0733 33.8867 91.9 33.7C91.74 33.5 91.48 33.36 91.12 33.28C90.76 33.2 90.2667 33.16 89.64 33.16H86.6V38.24ZM102.608 45.16C101.514 45.16 100.614 45.1 99.9078 44.98C99.2011 44.8467 98.6411 44.6267 98.2278 44.32C97.8145 44.0133 97.5145 43.5933 97.3278 43.06C97.1411 42.5267 97.0211 41.86 96.9678 41.06C96.9145 40.2467 96.8878 39.2667 96.8878 38.12C96.8878 36.9733 96.9145 36 96.9678 35.2C97.0211 34.3867 97.1411 33.7133 97.3278 33.18C97.5145 32.6467 97.8145 32.2267 98.2278 31.92C98.6411 31.6133 99.2011 31.4 99.9078 31.28C100.614 31.1467 101.514 31.08 102.608 31.08C103.701 31.08 104.601 31.1467 105.308 31.28C106.028 31.4 106.594 31.6133 107.008 31.92C107.421 32.2267 107.721 32.6467 107.908 33.18C108.108 33.7133 108.234 34.3867 108.288 35.2C108.341 36 108.368 36.9733 108.368 38.12C108.368 39.2667 108.341 40.2467 108.288 41.06C108.234 41.86 108.108 42.5267 107.908 43.06C107.721 43.5933 107.421 44.0133 107.008 44.32C106.594 44.6267 106.028 44.8467 105.308 44.98C104.601 45.1 103.701 45.16 102.608 45.16ZM102.608 43.24C103.274 43.24 103.821 43.22 104.248 43.18C104.688 43.14 105.028 43.04 105.268 42.88C105.521 42.72 105.708 42.46 105.828 42.1C105.948 41.7267 106.021 41.2267 106.048 40.6C106.088 39.96 106.108 39.1333 106.108 38.12C106.108 37.1067 106.088 36.2867 106.048 35.66C106.021 35.02 105.948 34.52 105.828 34.16C105.708 33.7867 105.521 33.52 105.268 33.36C105.028 33.2 104.688 33.1 104.248 33.06C103.821 33.02 103.274 33 102.608 33C101.954 33 101.414 33.02 100.988 33.06C100.561 33.1 100.221 33.2 99.9678 33.36C99.7145 33.52 99.5278 33.7867 99.4078 34.16C99.3011 34.52 99.2278 35.02 99.1878 35.66C99.1611 36.2867 99.1478 37.1067 99.1478 38.12C99.1478 39.1333 99.1611 39.96 99.1878 40.6C99.2278 41.2267 99.3011 41.7267 99.4078 42.1C99.5278 42.46 99.7145 42.72 99.9678 42.88C100.221 43.04 100.561 43.14 100.988 43.18C101.414 43.22 101.954 43.24 102.608 43.24ZM111.586 45V31.24H117.746C118.613 31.24 119.313 31.3467 119.846 31.56C120.379 31.7733 120.786 32.08 121.066 32.48C121.359 32.8667 121.553 33.3333 121.646 33.88C121.753 34.4267 121.806 35.0333 121.806 35.7C121.806 36.3267 121.759 36.9133 121.666 37.46C121.573 37.9933 121.379 38.4667 121.086 38.88C120.806 39.28 120.393 39.5933 119.846 39.82C119.299 40.0467 118.579 40.16 117.686 40.16H113.846V45H111.586ZM113.846 38.24H116.826C117.453 38.24 117.953 38.2 118.326 38.12C118.699 38.04 118.966 37.9 119.126 37.7C119.299 37.5 119.413 37.24 119.466 36.92C119.519 36.6 119.546 36.1933 119.546 35.7C119.546 35.2067 119.519 34.8 119.466 34.48C119.426 34.1467 119.319 33.8867 119.146 33.7C118.986 33.5 118.726 33.36 118.366 33.28C118.006 33.2 117.513 33.16 116.886 33.16H113.846V38.24ZM124.594 45V31.24H126.854V45H124.594ZM130.512 45V31.24H136.672C137.539 31.24 138.239 31.3467 138.772 31.56C139.305 31.7733 139.712 32.08 139.992 32.48C140.285 32.8667 140.479 33.3333 140.572 33.88C140.679 34.4267 140.732 35.0333 140.732 35.7C140.732 36.3267 140.685 36.9133 140.592 37.46C140.499 37.9933 140.305 38.4667 140.012 38.88C139.732 39.28 139.319 39.5933 138.772 39.82C138.225 40.0467 137.505 40.16 136.612 40.16H132.772V45H130.512ZM132.772 38.24H135.752C136.379 38.24 136.879 38.2 137.252 38.12C137.625 38.04 137.892 37.9 138.052 37.7C138.225 37.5 138.339 37.24 138.392 36.92C138.445 36.6 138.472 36.1933 138.472 35.7C138.472 35.2067 138.445 34.8 138.392 34.48C138.352 34.1467 138.245 33.8867 138.072 33.7C137.912 33.5 137.652 33.36 137.292 33.28C136.932 33.2 136.439 33.16 135.812 33.16H132.772V38.24ZM143.52 45V31.24H145.78V43.02H151.88V45H143.52ZM152.901 45L157.821 31.24H160.781L165.701 45H163.361L162.161 41.6H156.361L155.181 45H152.901ZM157.001 39.68H161.501L159.301 33.42H159.201L157.001 39.68ZM169.727 45V39.94L164.867 31.24H167.267L170.847 37.7H170.987L174.527 31.24H176.867L171.987 39.94V45H169.727Z" fill="#3A3A3A"/>
</svg>
