<svg width="188" height="76" viewBox="0 0 188 76" fill="none" xmlns="http://www.w3.org/2000/svg">
<path d="M52.2483 40.5681V22.2277C52.2483 16.8472 50.5582 14.4149 48.6198 12.7597C46.422 10.8859 42.4948 9.25 34.2491 9.25C26.0034 9.25 22.0763 10.8923 19.8784 12.7597C17.9401 14.4149 16.25 16.8472 16.25 22.2277V40.9368C16.2501 42.7124 16.6288 44.4689 17.3623 46.0959C18.0958 47.7228 19.1682 49.1852 20.5122 50.3913L25.678 55.0207C25.7987 55.1292 25.9416 55.2118 26.0974 55.2632C26.2532 55.3145 26.4184 55.3335 26.5823 55.3187C26.7462 55.304 26.905 55.256 27.0484 55.1778C27.1919 55.0995 27.3167 54.9929 27.4148 54.8648L31.7941 49.1406C31.9663 48.9155 32.0466 48.6366 32.0195 48.3576C31.9924 48.0785 31.8598 47.8191 31.6473 47.6291L27.9855 44.3494C27.1952 43.6398 26.5647 42.7794 26.1334 41.8224C25.7021 40.8653 25.4795 39.8322 25.4794 38.7878V26.0759C25.4794 22.2242 27.0034 20.5746 27.5808 20.1391C28.245 19.6374 29.6511 18.4428 34.2499 18.4428C38.8486 18.4428 40.2548 19.6374 40.9189 20.1391C41.4971 20.5746 43.0204 22.2242 43.0204 26.0759V38.0676C43.0204 40.0183 42.3733 41.9172 41.1747 43.4833L30.2671 57.7541C30.095 57.9795 30.0147 58.2586 30.0418 58.5379C30.0689 58.8171 30.2014 59.0768 30.4139 59.2671L34.2491 62.7157L35.7932 64.1L36.8065 65.0092L38.074 66.1448C38.5054 66.5337 39.0747 66.75 39.664 66.75H49.96C50.1959 66.7503 50.4264 66.6816 50.6213 66.5528C50.8162 66.4241 50.9665 66.2412 51.0525 66.0282C51.1384 65.8152 51.156 65.582 51.103 65.3592C51.05 65.1363 50.9288 64.9342 50.7554 64.7792L42.589 57.4508L49.6331 48.2408C51.3313 46.0216 52.2482 43.3315 52.2483 40.5681V40.5681Z" fill="#FF7800"/>
<path d="M87.72 46.8L85.94 44.26L88.08 43.7L90.3 46.76V46.8H87.72ZM84.1 44.66C83.0067 44.66 82.1067 44.6 81.4 44.48C80.6933 44.3467 80.1333 44.1267 79.72 43.82C79.3067 43.5133 79.0067 43.0933 78.82 42.56C78.6333 42.0267 78.5133 41.36 78.46 40.56C78.4067 39.7467 78.38 38.7667 78.38 37.62C78.38 36.4733 78.4067 35.5 78.46 34.7C78.5133 33.8867 78.6333 33.2133 78.82 32.68C79.0067 32.1467 79.3067 31.7267 79.72 31.42C80.1333 31.1133 80.6933 30.9 81.4 30.78C82.1067 30.6467 83.0067 30.58 84.1 30.58C85.1933 30.58 86.0933 30.6467 86.8 30.78C87.52 30.9 88.0867 31.1133 88.5 31.42C88.9133 31.7267 89.2133 32.1467 89.4 32.68C89.6 33.2133 89.7267 33.8867 89.78 34.7C89.8333 35.5 89.86 36.4733 89.86 37.62C89.86 38.7667 89.8333 39.7467 89.78 40.56C89.7267 41.36 89.6 42.0267 89.4 42.56C89.2133 43.0933 88.9133 43.5133 88.5 43.82C88.0867 44.1267 87.52 44.3467 86.8 44.48C86.0933 44.6 85.1933 44.66 84.1 44.66ZM84.1 42.74C84.7667 42.74 85.3133 42.72 85.74 42.68C86.18 42.64 86.52 42.54 86.76 42.38C87.0133 42.22 87.2 41.96 87.32 41.6C87.44 41.2267 87.5133 40.7267 87.54 40.1C87.58 39.46 87.6 38.6333 87.6 37.62C87.6 36.6067 87.58 35.7867 87.54 35.16C87.5133 34.52 87.44 34.02 87.32 33.66C87.2 33.2867 87.0133 33.02 86.76 32.86C86.52 32.7 86.18 32.6 85.74 32.56C85.3133 32.52 84.7667 32.5 84.1 32.5C83.4467 32.5 82.9067 32.52 82.48 32.56C82.0533 32.6 81.7133 32.7 81.46 32.86C81.2067 33.02 81.02 33.2867 80.9 33.66C80.7933 34.02 80.72 34.52 80.68 35.16C80.6533 35.7867 80.64 36.6067 80.64 37.62C80.64 38.6333 80.6533 39.46 80.68 40.1C80.72 40.7267 80.7933 41.2267 80.9 41.6C81.02 41.96 81.2067 42.22 81.46 42.38C81.7133 42.54 82.0533 42.64 82.48 42.68C82.9067 42.72 83.4467 42.74 84.1 42.74ZM98.2783 44.66C97.3316 44.66 96.5383 44.6067 95.8983 44.5C95.2583 44.38 94.7383 44.1867 94.3383 43.92C93.9516 43.6533 93.6516 43.2867 93.4383 42.82C93.2383 42.34 93.0983 41.74 93.0183 41.02C92.9516 40.3 92.9183 39.4333 92.9183 38.42V30.74H95.1783V39.12C95.1783 39.8933 95.2049 40.52 95.2583 41C95.3116 41.48 95.4316 41.8467 95.6183 42.1C95.8049 42.3533 96.1116 42.5267 96.5383 42.62C96.9649 42.7 97.5449 42.74 98.2783 42.74C99.0249 42.74 99.6049 42.7 100.018 42.62C100.432 42.5267 100.732 42.3533 100.918 42.1C101.118 41.8467 101.238 41.48 101.278 41C101.332 40.52 101.358 39.8933 101.358 39.12V30.74H103.618V38.42C103.618 39.4333 103.578 40.3 103.498 41.02C103.432 41.74 103.298 42.34 103.098 42.82C102.898 43.2867 102.598 43.6533 102.198 43.92C101.812 44.1867 101.298 44.38 100.658 44.5C100.018 44.6067 99.2249 44.66 98.2783 44.66ZM107.16 44.5V30.74H109.42V44.5H107.16ZM118.258 44.66C117.272 44.66 116.445 44.6 115.778 44.48C115.112 44.3467 114.565 44.1267 114.138 43.82C113.725 43.5133 113.405 43.1 113.178 42.58C112.965 42.0467 112.818 41.3733 112.738 40.56C112.658 39.7467 112.618 38.7667 112.618 37.62C112.618 36.4733 112.658 35.4933 112.738 34.68C112.818 33.8667 112.965 33.2 113.178 32.68C113.405 32.1467 113.725 31.7267 114.138 31.42C114.565 31.1133 115.112 30.9 115.778 30.78C116.445 30.6467 117.272 30.58 118.258 30.58C118.645 30.58 119.038 30.5933 119.438 30.62C119.852 30.6467 120.245 30.6867 120.618 30.74C120.992 30.78 121.312 30.8333 121.578 30.9V32.7C121.245 32.66 120.912 32.6267 120.578 32.6C120.258 32.56 119.945 32.5333 119.638 32.52C119.332 32.5067 119.065 32.5 118.838 32.5C118.105 32.5 117.498 32.5267 117.018 32.58C116.538 32.6333 116.152 32.7533 115.858 32.94C115.578 33.1267 115.365 33.4067 115.218 33.78C115.085 34.14 114.992 34.6333 114.938 35.26C114.898 35.8867 114.878 36.6733 114.878 37.62C114.878 38.5533 114.898 39.34 114.938 39.98C114.992 40.6067 115.085 41.1067 115.218 41.48C115.365 41.84 115.578 42.1133 115.858 42.3C116.152 42.4867 116.538 42.6067 117.018 42.66C117.498 42.7133 118.105 42.74 118.838 42.74C119.278 42.74 119.758 42.72 120.278 42.68C120.812 42.64 121.272 42.5933 121.658 42.54V44.38C121.365 44.4333 121.018 44.48 120.618 44.52C120.232 44.56 119.832 44.5933 119.418 44.62C119.018 44.6467 118.632 44.66 118.258 44.66ZM124.543 44.5V30.74H126.803V36.54H128.723L133.223 30.74H135.703L130.563 37.36L135.763 44.5H133.143L128.723 38.46H126.803V44.5H124.543ZM142.68 44.66C142.187 44.66 141.64 44.6467 141.04 44.62C140.453 44.5933 139.873 44.5533 139.3 44.5C138.74 44.46 138.227 44.4133 137.76 44.36V42.5C138.24 42.54 138.74 42.58 139.26 42.62C139.793 42.66 140.3 42.6933 140.78 42.72C141.26 42.7333 141.673 42.74 142.02 42.74C142.727 42.74 143.28 42.7067 143.68 42.64C144.08 42.5733 144.4 42.4667 144.64 42.32C144.8 42.2133 144.913 42.08 144.98 41.92C145.06 41.76 145.107 41.5733 145.12 41.36C145.147 41.1333 145.16 40.8867 145.16 40.62C145.16 40.26 145.147 39.96 145.12 39.72C145.093 39.48 145.033 39.2933 144.94 39.16C144.847 39.0267 144.7 38.9333 144.5 38.88C144.3 38.8133 144.04 38.76 143.72 38.72L140.44 38.34C139.8 38.26 139.273 38.1267 138.86 37.94C138.46 37.74 138.147 37.48 137.92 37.16C137.707 36.84 137.56 36.46 137.48 36.02C137.4 35.58 137.36 35.0933 137.36 34.56C137.36 33.6667 137.48 32.96 137.72 32.44C137.96 31.92 138.3 31.5267 138.74 31.26C139.193 30.98 139.727 30.8 140.34 30.72C140.953 30.6267 141.633 30.58 142.38 30.58C142.9 30.58 143.433 30.6 143.98 30.64C144.527 30.6667 145.04 30.7067 145.52 30.76C146.013 30.8 146.42 30.86 146.74 30.94V32.76C146.407 32.7067 146.013 32.66 145.56 32.62C145.12 32.58 144.66 32.5533 144.18 32.54C143.7 32.5133 143.253 32.5 142.84 32.5C142.147 32.5 141.587 32.5333 141.16 32.6C140.747 32.6533 140.427 32.7467 140.2 32.88C139.933 33.0267 139.773 33.2333 139.72 33.5C139.667 33.7533 139.64 34.0733 139.64 34.46C139.64 34.9133 139.667 35.2667 139.72 35.52C139.787 35.76 139.927 35.9267 140.14 36.02C140.367 36.1133 140.707 36.1867 141.16 36.24L144.44 36.62C144.853 36.66 145.227 36.7267 145.56 36.82C145.893 36.9 146.187 37.04 146.44 37.24C146.707 37.44 146.913 37.7267 147.06 38.1C147.153 38.2867 147.22 38.5 147.26 38.74C147.313 38.98 147.353 39.2467 147.38 39.54C147.42 39.82 147.44 40.14 147.44 40.5C147.44 41.26 147.36 41.8933 147.2 42.4C147.053 42.9067 146.84 43.3133 146.56 43.62C146.293 43.9133 145.96 44.14 145.56 44.3C145.16 44.4467 144.72 44.54 144.24 44.58C143.76 44.6333 143.24 44.66 142.68 44.66ZM150.481 44.5V30.74H156.641C157.507 30.74 158.207 30.8467 158.741 31.06C159.274 31.2733 159.681 31.58 159.961 31.98C160.254 32.3667 160.447 32.8333 160.541 33.38C160.647 33.9267 160.701 34.5333 160.701 35.2C160.701 35.8267 160.654 36.4133 160.561 36.96C160.467 37.4933 160.274 37.9667 159.981 38.38C159.701 38.78 159.287 39.0933 158.741 39.32C158.194 39.5467 157.474 39.66 156.581 39.66H152.741V44.5H150.481ZM152.741 37.74H155.721C156.347 37.74 156.847 37.7 157.221 37.62C157.594 37.54 157.861 37.4 158.021 37.2C158.194 37 158.307 36.74 158.361 36.42C158.414 36.1 158.441 35.6933 158.441 35.2C158.441 34.7067 158.414 34.3 158.361 33.98C158.321 33.6467 158.214 33.3867 158.041 33.2C157.881 33 157.621 32.86 157.261 32.78C156.901 32.7 156.407 32.66 155.781 32.66H152.741V37.74ZM163.488 44.5V30.74H165.748V44.5H163.488ZM169.406 44.5V30.74H171.746L178.046 40.26H178.126V30.74H180.286V44.5H178.126L171.646 34.68H171.566V44.5H169.406Z" fill="#3A3A3A"/>
</svg>
