<svg width="188" height="76" viewBox="0 0 188 76" fill="none" xmlns="http://www.w3.org/2000/svg">
<path d="M28.3197 57.5284C29.5242 57.0146 30.1543 56.3959 30.1543 55.7271V43.3299C30.1288 42.7938 30.2458 42.2605 30.4939 41.7823C30.742 41.3042 31.1127 40.8977 31.5694 40.6029C32.4901 39.9672 33.5882 39.6259 34.7138 39.6256C37.4496 39.7243 40.1728 39.214 42.6793 38.1329C44.6018 37.2705 46.2103 35.8525 47.2898 34.0683C48.3768 32.1854 49.1217 30.1311 49.4913 27.9974C49.544 27.4836 49.7529 27.1735 50.0146 27.1735C50.2762 27.1735 50.3815 27.3787 50.3815 27.8423C50.4284 29.6523 50.0567 31.4492 49.2944 33.0979C48.532 34.7465 47.3988 36.204 45.98 37.3607C42.7741 39.8262 38.7677 41.0691 34.701 40.8598C33.8439 40.8688 33.0073 41.1188 32.2905 41.5803C31.9489 41.7319 31.6534 41.9681 31.433 42.2658C31.2126 42.5635 31.0748 42.9124 31.0334 43.2782V56.089C31.0334 56.8611 30.2469 57.6834 28.7281 58.6091C28.2495 58.4525 27.9943 58.2489 27.9943 57.9403C27.9975 57.8477 28.0299 57.7583 28.0871 57.6845C28.1442 57.6108 28.2233 57.5562 28.3133 57.5284M34.0773 21.9264C35.3028 21.1818 36.7238 20.806 38.1645 20.8456C39.4425 20.7858 40.715 21.0473 41.8613 21.6053C43.0076 22.1634 43.9898 22.9996 44.7149 24.0346C44.8151 24.1882 44.8703 24.366 44.8744 24.5484C44.8795 24.6839 44.8334 24.8165 44.7451 24.9208C44.6568 25.0251 44.5325 25.0938 44.3958 25.1138C44.2363 25.1138 44.0289 25.0621 43.9763 24.9086C43.2544 24.0416 42.3639 23.3244 41.3567 22.7988C40.3473 22.2365 39.2156 21.9192 38.056 21.8731C37.0338 21.8548 36.0303 22.1433 35.1796 22.7001C34.9539 22.8221 34.703 22.8922 34.4458 22.9053C34.0788 22.8536 33.9225 22.7001 33.9225 22.4934C33.8699 22.1801 33.9225 22.0235 34.082 21.9279" fill="#D11172"/>
<path d="M40.4712 44.049C41.572 45.8503 42.8291 48.0619 44.3495 50.7371C45.3639 52.6461 46.4811 54.5006 47.6965 56.2928C48.4303 57.3219 49.0589 57.8356 49.6348 57.8356C49.8069 57.8324 49.9738 57.7778 50.1134 57.679C50.4325 57.679 50.6367 57.7823 50.6367 58.0392C50.6269 58.149 50.5879 58.2542 50.5234 58.3444C50.459 58.4346 50.3715 58.5066 50.2698 58.553C49.9918 58.6921 49.69 58.7792 49.3796 58.8098C48.9756 58.7833 48.584 58.662 48.2376 58.4563C47.8912 58.2505 47.6001 57.9663 47.3886 57.6273C46.8127 56.8551 45.8172 55.1071 44.3495 52.482C42.8818 49.8569 41.4157 47.4918 39.948 45.3819M32.6095 33.4467L26.7403 23.2658C26.6845 23.0816 26.6492 22.892 26.635 22.7003C26.635 22.4435 26.6876 22.3401 26.844 22.3401C27.0001 22.359 27.1491 22.4159 27.2772 22.5057C27.4053 22.5954 27.5087 22.715 27.5778 22.8538L33.9176 33.5047" fill="#D11172"/>
<path d="M39.8938 45.542C39.8424 46.3172 39.896 47.0957 40.0534 47.857L46.7075 58.7647C46.9622 59.1856 47.3347 59.5257 47.7808 59.7446C48.2269 59.9634 48.7276 60.0517 49.2233 59.999C50.2347 59.9887 51.2131 59.6444 52.0008 59.0216C52.3976 58.7482 52.7231 58.3866 52.9507 57.9664C53.1783 57.5462 53.3016 57.0791 53.3106 56.6032C53.2765 55.8855 53.0408 55.191 52.6294 54.5968L45.929 43.5356C45.6527 43.1291 45.2654 42.8072 44.8114 42.6069C44.3574 42.4066 43.8551 42.336 43.3621 42.4031C41.738 42.4031 40.7426 43.0203 40.4793 44.3062L39.8938 45.542ZM38.6894 25.9961C39.0084 26.5099 39.2653 26.9735 39.5285 27.4371L40.315 28.8264C40.5766 29.2963 40.8909 29.7521 41.1542 30.2674C41.3791 29.855 41.5047 29.3974 41.5211 28.9298C41.5197 28.5458 41.4403 28.166 41.2874 27.8126C41.1346 27.4592 40.9114 27.1393 40.6309 26.8717C40.3845 26.6043 40.0854 26.3888 39.7516 26.2383C39.4179 26.0878 39.0565 26.0054 38.6894 25.9961ZM33.9209 33.6585C35.8775 33.7512 37.8374 33.5607 39.7375 33.093C39.2142 32.1157 38.3751 30.623 37.118 28.6166C36.2781 27.466 35.6566 26.1761 35.2833 24.8089C35.2736 24.5343 35.3628 24.2652 35.5353 24.0489C35.7077 23.8326 35.9524 23.6829 36.2262 23.6263C36.8408 23.3787 37.5002 23.2561 38.1645 23.2661C39.633 23.2546 41.0596 23.7458 42.1991 24.6554C42.7927 25.1212 43.2642 25.7197 43.5742 26.4009C43.8842 27.0821 44.0237 27.8262 43.9811 28.5711C43.9817 29.2353 43.874 29.8952 43.662 30.5259C43.5043 31.3068 43.161 32.0401 42.6601 32.6661C42.1591 33.2921 41.5147 33.7931 40.7793 34.1284C39.09 34.7547 37.2925 35.0515 35.4875 35.0024H29.4668C28.4984 34.9576 27.5284 35.0441 26.584 35.2592C26.3029 35.3098 26.0378 35.4246 25.8103 35.5944C25.5827 35.7642 25.3991 35.9842 25.2743 36.2366C24.971 36.9337 24.8451 37.6927 24.9073 38.4482V56.398C24.8828 56.8435 24.9541 57.2891 25.1165 57.7058C25.2789 58.1224 25.5289 58.5009 25.8502 58.8164C26.4614 59.3769 27.2664 59.6892 28.1028 59.6904C29.0653 59.6842 30.001 59.3782 30.775 58.8164C31.1388 58.5584 31.4337 58.2178 31.6346 57.8237C31.8354 57.4296 31.9362 56.9937 31.9284 56.5531L31.7688 45.4402C31.7234 44.9761 31.7848 44.508 31.9486 44.0704C32.1123 43.6328 32.3742 43.237 32.7149 42.9122C33.3957 42.4057 34.2191 42.118 35.0728 42.0883C35.963 42.0366 36.7495 41.9849 37.3254 41.9849C40.1137 41.7763 42.8101 40.9125 45.1871 39.4663C47.1373 38.207 48.6966 36.4447 49.6939 34.3727C50.6308 32.463 51.1146 30.3697 51.109 28.25C51.2626 25.733 50.4803 23.2468 48.9075 21.2534C47.6714 19.7611 46.1824 18.4894 44.5059 17.4943C42.8247 16.6215 40.9517 16.1656 39.0499 16.166H30.5149C29.0373 16.0973 27.5905 16.5955 26.4803 17.5553C25.9874 17.9762 25.5955 18.4989 25.3327 19.086C25.0698 19.6731 24.9425 20.31 24.96 20.9511C24.9604 21.9302 25.2323 22.8907 25.7465 23.7297L31.6683 33.7619H33.9209V33.6585ZM27.2652 32.0123L22.5494 24.1401C21.8388 22.9943 21.4753 21.6736 21.5013 20.3324C21.4964 18.4162 22.2477 16.5726 23.5976 15.1887C24.4327 14.4158 25.4239 13.824 26.5071 13.4516C27.5902 13.0792 28.741 12.9346 29.8848 13.0272H40.0502C42.7798 12.9806 45.4616 13.7331 47.754 15.1887C49.9359 16.614 51.6906 18.5855 52.8367 20.8994C54.0071 23.2528 54.5994 25.8428 54.5661 28.4615C54.5762 30.9124 54.0398 33.3358 52.9947 35.5615C51.9337 37.823 50.2901 39.7736 48.2262 41.2206L54.9266 51.8714C55.8904 53.3125 56.4339 54.9853 56.498 56.7082C56.5213 57.582 56.3396 58.4493 55.9669 59.2432C55.5943 60.037 55.0408 60.7361 54.3491 61.2865C52.9538 62.425 51.1854 63.0282 49.3717 62.9843C48.2841 63.0637 47.1958 62.8403 46.2318 62.3396C45.2678 61.8389 44.4672 61.0814 43.922 60.154C38.8393 51.8197 35.9566 47.0347 35.2227 45.8004V56.1928C35.271 57.1093 35.1083 58.0247 34.7468 58.871C34.3853 59.7173 33.8342 60.4728 33.1344 61.0813C31.7121 62.2141 29.9359 62.8319 28.1044 62.8308C26.4437 62.8801 24.8221 62.3313 23.5449 61.288C22.9086 60.759 22.4034 60.0946 22.0675 59.3453C21.7317 58.596 21.5741 57.7815 21.6066 56.9635V38.1851C21.5627 36.6283 22.0211 35.0977 22.9164 33.812C23.43 33.1786 24.0972 32.6818 24.8569 32.3671C25.6167 32.0524 26.4447 31.9315 27.2652 32.0123Z" fill="#D11172"/>
<path d="M82.84 34V20.24H89.26C90.1267 20.24 90.8267 20.34 91.36 20.54C91.8933 20.74 92.2933 21.0333 92.56 21.42C92.8267 21.7933 93.0067 22.2467 93.1 22.78C93.1933 23.3 93.24 23.8733 93.24 24.5C93.24 24.9533 93.1933 25.4533 93.1 26C93.02 26.5333 92.8333 27.0267 92.54 27.48C92.26 27.92 91.8133 28.24 91.2 28.44L93.46 34H91.06L88.86 28.38L89.44 28.68C89.3467 28.72 89.2333 28.7467 89.1 28.76C88.98 28.76 88.8333 28.76 88.66 28.76H85.1V34H82.84ZM85.1 26.84H88.3C88.9267 26.84 89.42 26.8 89.78 26.72C90.14 26.6267 90.4067 26.4867 90.58 26.3C90.7533 26.1133 90.86 25.8733 90.9 25.58C90.9533 25.2867 90.98 24.9267 90.98 24.5C90.98 24.06 90.9533 23.6933 90.9 23.4C90.86 23.0933 90.76 22.8533 90.6 22.68C90.44 22.4933 90.18 22.36 89.82 22.28C89.4733 22.2 88.9933 22.16 88.38 22.16H85.1V26.84ZM96.4142 34V20.24H105.574V22.16H98.6742V26.1H104.634V28.02H98.6742V32.08H105.574V34H96.4142ZM107.143 34L112.063 20.24H115.023L119.943 34H117.603L116.403 30.6H110.603L109.423 34H107.143ZM111.243 28.68H115.743L113.543 22.42H113.443L111.243 28.68ZM122.215 34V20.24H124.475V32.02H130.575V34H122.215ZM132.996 34V20.24H135.256V34H132.996ZM143.594 34.16C143.101 34.16 142.554 34.1467 141.954 34.12C141.368 34.0933 140.788 34.0533 140.214 34C139.654 33.96 139.141 33.9133 138.674 33.86V32C139.154 32.04 139.654 32.08 140.174 32.12C140.708 32.16 141.214 32.1933 141.694 32.22C142.174 32.2333 142.588 32.24 142.934 32.24C143.641 32.24 144.194 32.2067 144.594 32.14C144.994 32.0733 145.314 31.9667 145.554 31.82C145.714 31.7133 145.828 31.58 145.894 31.42C145.974 31.26 146.021 31.0733 146.034 30.86C146.061 30.6333 146.074 30.3867 146.074 30.12C146.074 29.76 146.061 29.46 146.034 29.22C146.008 28.98 145.948 28.7933 145.854 28.66C145.761 28.5267 145.614 28.4333 145.414 28.38C145.214 28.3133 144.954 28.26 144.634 28.22L141.354 27.84C140.714 27.76 140.188 27.6267 139.774 27.44C139.374 27.24 139.061 26.98 138.834 26.66C138.621 26.34 138.474 25.96 138.394 25.52C138.314 25.08 138.274 24.5933 138.274 24.06C138.274 23.1667 138.394 22.46 138.634 21.94C138.874 21.42 139.214 21.0267 139.654 20.76C140.108 20.48 140.641 20.3 141.254 20.22C141.868 20.1267 142.548 20.08 143.294 20.08C143.814 20.08 144.348 20.1 144.894 20.14C145.441 20.1667 145.954 20.2067 146.434 20.26C146.928 20.3 147.334 20.36 147.654 20.44V22.26C147.321 22.2067 146.928 22.16 146.474 22.12C146.034 22.08 145.574 22.0533 145.094 22.04C144.614 22.0133 144.168 22 143.754 22C143.061 22 142.501 22.0333 142.074 22.1C141.661 22.1533 141.341 22.2467 141.114 22.38C140.848 22.5267 140.688 22.7333 140.634 23C140.581 23.2533 140.554 23.5733 140.554 23.96C140.554 24.4133 140.581 24.7667 140.634 25.02C140.701 25.26 140.841 25.4267 141.054 25.52C141.281 25.6133 141.621 25.6867 142.074 25.74L145.354 26.12C145.768 26.16 146.141 26.2267 146.474 26.32C146.808 26.4 147.101 26.54 147.354 26.74C147.621 26.94 147.828 27.2267 147.974 27.6C148.068 27.7867 148.134 28 148.174 28.24C148.228 28.48 148.268 28.7467 148.294 29.04C148.334 29.32 148.354 29.64 148.354 30C148.354 30.76 148.274 31.3933 148.114 31.9C147.968 32.4067 147.754 32.8133 147.474 33.12C147.208 33.4133 146.874 33.64 146.474 33.8C146.074 33.9467 145.634 34.04 145.154 34.08C144.674 34.1333 144.154 34.16 143.594 34.16ZM154.235 34V22.22H150.055V20.24H160.655V22.22H156.495V34H154.235ZM162.996 34V20.24H165.256V34H162.996ZM174.094 34.16C173.108 34.16 172.281 34.1 171.614 33.98C170.948 33.8467 170.401 33.6267 169.974 33.32C169.561 33.0133 169.241 32.6 169.014 32.08C168.801 31.5467 168.654 30.8733 168.574 30.06C168.494 29.2467 168.454 28.2667 168.454 27.12C168.454 25.9733 168.494 24.9933 168.574 24.18C168.654 23.3667 168.801 22.7 169.014 22.18C169.241 21.6467 169.561 21.2267 169.974 20.92C170.401 20.6133 170.948 20.4 171.614 20.28C172.281 20.1467 173.108 20.08 174.094 20.08C174.481 20.08 174.874 20.0933 175.274 20.12C175.688 20.1467 176.081 20.1867 176.454 20.24C176.828 20.28 177.148 20.3333 177.414 20.4V22.2C177.081 22.16 176.748 22.1267 176.414 22.1C176.094 22.06 175.781 22.0333 175.474 22.02C175.168 22.0067 174.901 22 174.674 22C173.941 22 173.334 22.0267 172.854 22.08C172.374 22.1333 171.988 22.2533 171.694 22.44C171.414 22.6267 171.201 22.9067 171.054 23.28C170.921 23.64 170.828 24.1333 170.774 24.76C170.734 25.3867 170.714 26.1733 170.714 27.12C170.714 28.0533 170.734 28.84 170.774 29.48C170.828 30.1067 170.921 30.6067 171.054 30.98C171.201 31.34 171.414 31.6133 171.694 31.8C171.988 31.9867 172.374 32.1067 172.854 32.16C173.334 32.2133 173.941 32.24 174.674 32.24C175.114 32.24 175.594 32.22 176.114 32.18C176.648 32.14 177.108 32.0933 177.494 32.04V33.88C177.201 33.9333 176.854 33.98 176.454 34.02C176.068 34.06 175.668 34.0933 175.254 34.12C174.854 34.1467 174.468 34.16 174.094 34.16ZM88.32 56.16C87.3333 56.16 86.4933 56.1 85.8 55.98C85.12 55.8467 84.5533 55.6267 84.1 55.32C83.6467 55.0133 83.2933 54.5933 83.04 54.06C82.8 53.5267 82.6267 52.86 82.52 52.06C82.4267 51.2467 82.38 50.2667 82.38 49.12C82.38 47.9733 82.4267 47 82.52 46.2C82.6267 45.3867 82.8067 44.7133 83.06 44.18C83.3133 43.6467 83.6667 43.2267 84.12 42.92C84.5733 42.6133 85.14 42.4 85.82 42.28C86.5133 42.1467 87.3467 42.08 88.32 42.08C88.76 42.08 89.24 42.1 89.76 42.14C90.2933 42.18 90.82 42.2333 91.34 42.3C91.86 42.3533 92.3333 42.42 92.76 42.5V44.3C92.3067 44.2333 91.86 44.18 91.42 44.14C90.98 44.1 90.5733 44.0667 90.2 44.04C89.84 44.0133 89.54 44 89.3 44C88.5 44 87.8267 44.02 87.28 44.06C86.7333 44.0867 86.2867 44.18 85.94 44.34C85.5933 44.5 85.3267 44.7667 85.14 45.14C84.9533 45.5 84.82 46 84.74 46.64C84.6733 47.28 84.64 48.1067 84.64 49.12C84.64 50.0133 84.66 50.7667 84.7 51.38C84.7533 51.98 84.8533 52.48 85 52.88C85.16 53.2667 85.3733 53.56 85.64 53.76C85.92 53.96 86.28 54.1 86.72 54.18C87.1733 54.26 87.7267 54.3 88.38 54.3C88.6333 54.3 88.9 54.2933 89.18 54.28C89.4733 54.2667 89.7467 54.2533 90 54.24C90.2533 54.2133 90.4667 54.1867 90.64 54.16V50.26H87.94V48.38H92.82V55.74C92.3667 55.82 91.8667 55.8933 91.32 55.96C90.7867 56.0133 90.26 56.06 89.74 56.1C89.22 56.14 88.7467 56.16 88.32 56.16ZM94.8775 56L99.7975 42.24H102.758L107.678 56H105.338L104.138 52.6H98.3375L97.1575 56H94.8775ZM98.9775 50.68H103.478L101.278 44.42H101.178L98.9775 50.68ZM109.949 56V42.24H113.029L117.069 52.24H117.169L121.209 42.24H124.289V56H122.109V45.74H122.029L117.869 56H116.269L112.149 45.74H112.069V56H109.949ZM127.977 56V42.24H137.137V44.16H130.237V48.1H136.197V50.02H130.237V54.08H137.137V56H127.977ZM144.786 56.16C144.292 56.16 143.746 56.1467 143.146 56.12C142.559 56.0933 141.979 56.0533 141.406 56C140.846 55.96 140.332 55.9133 139.866 55.86V54C140.346 54.04 140.846 54.08 141.366 54.12C141.899 54.16 142.406 54.1933 142.886 54.22C143.366 54.2333 143.779 54.24 144.126 54.24C144.832 54.24 145.386 54.2067 145.786 54.14C146.186 54.0733 146.506 53.9667 146.746 53.82C146.906 53.7133 147.019 53.58 147.086 53.42C147.166 53.26 147.212 53.0733 147.226 52.86C147.252 52.6333 147.266 52.3867 147.266 52.12C147.266 51.76 147.252 51.46 147.226 51.22C147.199 50.98 147.139 50.7933 147.046 50.66C146.952 50.5267 146.806 50.4333 146.606 50.38C146.406 50.3133 146.146 50.26 145.826 50.22L142.546 49.84C141.906 49.76 141.379 49.6267 140.966 49.44C140.566 49.24 140.252 48.98 140.026 48.66C139.812 48.34 139.666 47.96 139.586 47.52C139.506 47.08 139.466 46.5933 139.466 46.06C139.466 45.1667 139.586 44.46 139.826 43.94C140.066 43.42 140.406 43.0267 140.846 42.76C141.299 42.48 141.832 42.3 142.446 42.22C143.059 42.1267 143.739 42.08 144.486 42.08C145.006 42.08 145.539 42.1 146.086 42.14C146.632 42.1667 147.146 42.2067 147.626 42.26C148.119 42.3 148.526 42.36 148.846 42.44V44.26C148.512 44.2067 148.119 44.16 147.666 44.12C147.226 44.08 146.766 44.0533 146.286 44.04C145.806 44.0133 145.359 44 144.946 44C144.252 44 143.692 44.0333 143.266 44.1C142.852 44.1533 142.532 44.2467 142.306 44.38C142.039 44.5267 141.879 44.7333 141.826 45C141.772 45.2533 141.746 45.5733 141.746 45.96C141.746 46.4133 141.772 46.7667 141.826 47.02C141.892 47.26 142.032 47.4267 142.246 47.52C142.472 47.6133 142.812 47.6867 143.266 47.74L146.546 48.12C146.959 48.16 147.332 48.2267 147.666 48.32C147.999 48.4 148.292 48.54 148.546 48.74C148.812 48.94 149.019 49.2267 149.166 49.6C149.259 49.7867 149.326 50 149.366 50.24C149.419 50.48 149.459 50.7467 149.486 51.04C149.526 51.32 149.546 51.64 149.546 52C149.546 52.76 149.466 53.3933 149.306 53.9C149.159 54.4067 148.946 54.8133 148.666 55.12C148.399 55.4133 148.066 55.64 147.666 55.8C147.266 55.9467 146.826 56.04 146.346 56.08C145.866 56.1333 145.346 56.16 144.786 56.16Z" fill="#3A3A3A"/>
</svg>
