<svg width="188" height="76" viewBox="0 0 188 76" fill="none" xmlns="http://www.w3.org/2000/svg">
<path fill-rule="evenodd" clip-rule="evenodd" d="M50.2749 30.7136C50.3243 31.465 50.7668 32.3334 51.7573 31.8543C53.2135 31.15 52.6795 29.9279 52.6773 29.5426C52.3445 29.5926 51.7745 29.5966 51.4762 29.7229C51.0682 29.8954 50.585 30.2707 50.2749 30.7136ZM33.0822 30.0795C33.1058 30.7673 33.0499 31.5349 34.153 31.8871C34.8063 32.0954 35.6086 31.2302 35.653 30.6207C35.2172 30.0795 34.7764 29.8474 34.3677 29.6974C33.3402 29.3199 33.0971 29.2479 33.0822 30.0795ZM39.2449 36.9652C39.2449 36.9652 38.4968 37.3982 38.4968 37.9999C38.4968 38.8358 38.7198 38.9946 38.8879 39.1477C39.2414 39.4693 40.7895 39.5479 41.0485 39.5526C43.2722 39.5916 44.1737 39.5573 46.3952 39.4768C46.8702 39.4597 47.1937 39.3102 47.5226 38.9372C47.7213 38.712 47.7695 38.2672 47.5162 37.794C47.3841 37.5472 47.2412 37.1614 46.9704 36.9664C46.8192 37.2207 47.0259 38.0217 45.7834 38.4662C45.2539 38.6552 43.8177 38.7716 43.2324 38.7694C40.5155 38.7591 39.2155 38.396 39.2449 36.9652ZM37.2454 35.4505C36.007 35.4405 35.6861 36.1848 35.4089 36.943C35.0402 37.9518 36.2339 38.9887 34.3677 39.5314C35.11 40.1409 36.03 41.6671 37.2097 42.636C35.1754 43.0624 34.3454 41.489 32.9785 40.7744C33.383 43.0845 35.5729 43.3802 36.8674 44.5506C36.8103 44.6504 36.8167 44.6398 36.7596 44.7393C35.5231 44.4377 34.3141 44.1429 32.7931 43.772C33.8851 45.8042 36.0476 44.8017 37.3778 45.8741C36.1021 46.6745 34.9263 46.2371 33.7581 46.1136C33.5106 46.0877 33.241 46.2683 32.9814 46.3538C33.1421 46.5896 33.2512 46.9043 33.4745 47.0457C34.028 47.395 34.606 47.7603 35.2281 47.9384C35.764 48.0918 36.4205 48.1421 36.943 47.983C38.612 47.4752 40.2523 46.8707 41.8814 46.2474C42.1621 46.1401 42.47 45.7849 42.5267 45.4988C42.6288 44.9841 42.5066 44.4314 42.557 43.9015C42.631 43.1151 42.2585 42.6506 41.5372 42.4494C39.9547 42.0081 38.6739 41.1412 37.7118 39.8879C37.329 39.3892 36.9749 38.4808 36.9624 37.8573C36.9471 37.0803 37.1385 36.2939 37.2454 35.4505ZM52.4048 39.7426C50.8322 39.2978 50.7964 38.2868 50.7231 37.2781C50.7043 37.0198 50.6344 36.7001 50.4621 36.5307C50.05 36.1258 49.5632 35.7933 49.1064 35.4315C49.0557 35.9184 48.9571 36.4062 48.9673 36.8922C48.9788 37.4228 49.1437 37.9524 49.138 38.4811C49.1348 38.7722 48.9651 39.198 48.7769 39.4235C47.6632 40.7585 46.392 41.8908 44.6749 42.4859C44.2991 42.616 43.8174 43.0421 43.7711 43.3824C43.6828 44.0328 43.6978 44.6966 43.714 45.3001C43.7262 45.7374 44.0072 46.1239 44.4248 46.2802C46.1065 46.9081 47.6655 47.5017 49.2423 48.0463C49.6347 48.182 50.1613 48.2247 50.5333 48.0809C51.2517 47.803 51.926 47.3947 52.5717 46.9714C52.8214 46.8077 52.9436 46.4571 53.1242 46.1913C52.8549 46.0884 52.6269 46.1607 52.3481 46.1099C51.5665 45.9676 50.4771 46.0238 49.9588 45.5272C51.0861 45.103 52.4422 45.3756 53.2135 43.7826C51.77 44.132 50.5706 44.4221 49.3533 44.7165C49.2905 44.603 49.2978 44.6161 49.2346 44.5032C50.4398 43.3465 52.7398 43.1684 52.8374 40.872C51.6156 41.6534 50.7732 43.0683 48.7947 42.6039C50.0235 41.63 51.0382 40.8259 52.4048 39.7426ZM48.9051 54.6111C48.5883 53.1906 48.9086 52.8693 50.191 53.3163C50.6669 53.4822 51.0376 53.9364 51.4574 54.2573C51.6782 54.4264 51.9021 54.592 52.3481 54.9277C50.895 50.3112 47.2007 48.8573 41.6339 49.1577C37.1197 49.4013 34.1821 52.0009 33.9782 54.8612C34.4542 54.5044 34.7604 53.9339 35.2427 53.6357C35.7231 53.3384 36.4827 52.9158 36.9589 53.2358C37.2799 53.4513 36.9765 54.4373 37.1334 55.0094C39.8991 56.6189 43.1631 56.4623 43.0853 54.6098C43.0914 56.0259 43.9903 56.0022 44.7588 56.0135C46.3614 56.0369 47.8818 55.5446 48.9051 54.6111ZM34.8028 19.1403C33.5999 19.8331 31.5803 20.4441 30.4858 20.291C29.3677 20.135 28.072 20.087 26.9877 19.7766C26.6521 19.6805 26.2789 19.7102 25.8769 19.9363C26.6374 20.3256 29.3023 21.4488 29.2736 21.5147C28.9751 21.4142 27.4758 21.1007 27.0525 20.9579C27.3191 22.03 27.5494 22.9551 27.7791 23.8806C27.8783 23.8479 27.9775 23.8148 28.0768 23.782C27.8965 24.8161 27.6244 25.8448 27.559 26.886C27.4793 28.1543 27.9112 29.2282 28.9955 30.1007C30.1815 31.0545 31.1005 32.3478 32.3418 33.2087C33.5661 34.0578 35.0558 34.515 37.0046 34.1466C36.5251 33.6831 36.2788 33.3182 35.9321 33.1379C35.3151 32.8175 34.6513 32.5658 33.983 32.3612C31.3672 31.5611 29.9761 29.5504 28.8577 27.3286C28.5629 26.7428 28.6672 25.9649 28.5881 25.2752L28.9537 25.1729C29.1773 25.6215 29.4079 26.0669 29.6226 26.5195C29.9793 27.2712 30.4447 27.6059 31.4186 27.6125C33.5884 27.6274 35.6788 27.9837 36.8658 30.1815C37.4703 31.3013 38.1982 32.3921 39.4538 32.9068C39.554 32.8469 39.3728 31.6413 39.1578 31.0293C40.1665 30.6269 39.7677 30.0561 39.2302 29.4899C38.4978 28.7189 37.7558 27.9571 36.98 27.1524C37.7628 26.9337 38.7409 26.3576 38.7208 26.2116H34.479C34.4759 26.1704 34.472 26.129 34.4685 26.0875C35.7034 25.8688 38.1686 25.0104 38.1663 24.8002C36.1965 23.6192 33.8589 24.3859 31.7318 24.0372C31.7235 23.8778 31.7251 23.9087 31.7165 23.7496C33.0748 23.408 34.436 23.0777 35.7901 22.7218C37.1101 22.3749 39.6841 21.3456 39.6564 21.1987H34.0873C35.8386 20.427 37.3848 19.315 39.4114 19.3543C41.5197 19.3958 43.6381 19.484 45.7355 19.3306C48.0843 19.1587 49.9339 20.2489 51.979 21.1959H46.3895C46.3624 21.3428 49.0081 22.3877 50.3632 22.7446C51.6861 23.093 53.016 23.4171 54.3201 23.8862C52.1886 24.4093 49.8796 23.5874 47.7223 24.9365C48.8825 26.2191 50.4181 25.6012 51.8217 26.167H47.3257C47.2964 26.3102 48.2786 26.9278 49.0499 27.1733C48.2646 27.9918 47.505 28.8009 46.7251 29.5901C46.1362 30.1858 46.097 30.6805 46.9056 31.0149C46.6858 31.6026 46.4826 32.8609 46.5854 32.9451C47.068 32.5708 47.6103 32.2492 48.0186 31.8085C48.4863 31.3031 48.9115 30.7298 49.2203 30.1206C50.2918 28.0099 52.3385 27.6296 54.3507 27.6062C55.6369 27.5913 56.2146 27.1982 56.578 26.1324C56.6938 25.7918 56.9174 25.4858 57.1563 25.0453C57.6756 26.2993 57.2578 27.1748 56.7614 28.1683C55.45 30.7953 53.1988 32.1042 50.5042 32.9542C50.0235 33.1054 49.6372 33.5425 49.2072 33.8475C49.2072 33.8475 50.4979 34.3235 51.0287 34.2115C53.3251 33.7277 55.2678 32.6825 56.5544 30.6706C56.6852 30.4663 56.9448 30.1693 57.1238 30.0034C58.4298 28.7887 58.8913 26.8227 58.3254 25.1408C58.1691 24.6757 57.2319 23.9742 58.5452 23.6682C58.5803 23.6598 58.5998 23.5375 58.6065 23.4664C58.6795 22.6987 58.7481 21.9305 58.8339 20.99C58.2068 21.3178 57.5337 21.4404 56.8057 21.821C57.6622 21.0178 58.8744 20.29 60.2866 20.0271C60.2978 19.9213 58.8279 19.5358 58.097 19.6041C56.7834 19.727 55.4838 20.0976 54.1743 20.1194C53.2722 20.1347 51.653 19.1506 51.7046 19.1581C55.6921 19.7517 59.3348 18.6247 62.8747 17.008C64.3472 16.3355 65.798 17.1508 65.7556 18.7441C65.6997 20.8406 65.3121 22.8519 63.5513 24.3313C63.2415 24.5912 62.8929 25.4805 62.8929 25.4805L64.4445 24.6994C64.6429 26.6209 63.0999 26.9774 61.6985 27.5342C61.4462 27.0002 61.2554 26.4194 60.9125 25.9434C60.7285 25.6879 60.2825 25.613 59.9549 25.4564C59.8018 25.7724 59.5322 26.084 59.5201 26.4047C59.4946 27.0875 59.5746 27.779 59.6624 28.4606C59.8936 30.2644 59.2056 31.6625 57.7637 32.7548C57.5879 32.8877 57.4571 33.0771 57.3034 33.2421C57.9608 33.7755 57.9608 33.7755 59.307 33.1816C59.0387 33.8291 58.9459 34.7299 58.4543 35.0559C57.9171 35.4121 57.0109 35.2368 56.2654 35.293C56.3502 36.1601 56.3502 36.1601 58.7653 36.745C58.6553 37.1433 58.5456 37.5385 58.4336 37.9418C58.2058 38.7631 57.2169 39.1278 56.4982 38.6477C55.0924 37.7088 53.7105 37.017 51.8632 37.585C53.3625 38.4188 54.8614 39.2525 56.4666 40.1453C55.8641 40.9778 55.9862 41.4557 56.8778 41.9023C57.7379 42.3328 57.8989 44.7518 57.1324 45.4527C56.3263 46.1904 56.1298 50.9503 56.2545 50.9946C56.5394 50.499 56.9254 49.1736 57.134 48.5513C57.6233 47.0946 57.9608 46.3778 58.7666 45.448C59.3491 44.7758 60.5364 42.5661 58.9529 41.5193C58.9529 41.5193 59.2435 40.9326 59.6506 39.911C60.2847 38.3186 60.7814 37.77 61.6137 36.2537C61.6803 36.132 62.6109 34.8126 62.7069 34.7062C62.7069 34.7062 60.5128 41.3144 60.4844 41.6646C60.8959 41.5623 62.5911 40.8215 62.763 40.9085C62.2073 42.753 61.7601 44.6379 61.0561 46.4268C60.3517 48.2169 59.3832 49.9076 58.5302 51.6419C58.6821 51.7685 60.152 51.1581 60.6248 50.6297C63.0948 47.8698 64.0441 44.5069 64.352 40.9482C64.4729 39.547 64.3714 38.1274 64.6145 36.6614C64.9692 37.9864 65.5179 39.2959 65.6334 40.6406C65.7986 42.5705 66.2261 43.5767 65.6203 46.4705C65.6158 46.7213 65.4949 46.997 65.353 47.2141C63.5471 49.9749 61.7279 52.7277 59.9039 55.4947L59.5804 54.127C59.4298 54.1051 59.4228 54.1039 59.2722 54.082C59.0882 54.4027 58.8811 54.7127 58.7261 55.0465C58.0948 56.4046 56.6612 59.0476 56.5627 59.0051C56.5627 57.6916 56.5748 56.3781 56.5569 55.0649C56.5489 54.452 56.5639 53.7037 55.6905 53.7055C54.8391 53.7074 54.8123 54.4283 54.8024 55.0574C54.7916 55.772 54.8002 56.4873 54.8002 57.3703C53.728 56.7836 52.899 56.2437 51.9997 55.8606C51.0108 55.4395 50.0736 55.2829 49.1434 56.2624C48.3249 57.1245 47.2001 57.5038 45.8686 57.4312C44.0547 57.3326 42.2074 57.3529 40.4102 57.5862C38.8732 57.7861 37.7832 57.0818 36.861 56.215C36.0106 55.4155 35.2038 55.4087 34.3154 55.7652C33.3514 56.1517 32.4563 56.7016 31.3624 57.2671C31.3171 56.5244 31.3583 55.7412 31.1924 55.0025C31.0862 54.5284 30.7241 53.7948 30.3904 53.7464C29.5588 53.6263 29.4724 54.3759 29.4676 55.0134C29.4571 56.3822 29.4644 57.7506 29.3055 59.25C28.457 57.5481 27.6088 55.8463 26.7602 54.1447C26.6113 54.1597 26.609 54.16 26.4604 54.175C26.343 54.6282 26.2256 55.0814 26.0817 55.6364C24.9107 53.7015 23.8006 51.8671 22.6898 50.0333C22.6302 49.9347 22.5552 49.8439 22.5039 49.7413C21.8502 48.4225 20.5688 46.9031 20.3219 45.8984C19.5668 42.8291 20.187 39.6421 21.692 36.6785C21.692 37.3657 21.693 38.0526 21.6917 38.7397C21.691 39.4662 21.6375 40.1961 21.6939 40.9179C21.9721 44.4523 22.9441 47.759 25.3184 50.5236C25.8218 51.11 26.6094 51.4631 27.448 51.7729C25.5554 48.2363 23.9157 44.6975 23.4529 41.0015L25.3257 41.6475C25.1356 41.0015 25.0198 40.3218 24.7391 39.7167C24.2966 38.7641 23.9205 36.4649 23.2908 34.4002C24.1432 36.0843 25.0587 37.8249 25.9267 39.1069C26.6492 40.1743 27.6522 41.6855 27.5137 41.801C26.8052 42.4139 26.106 44.0166 27.1076 45.5244C27.7721 46.5247 28.4353 47.3835 28.9033 48.5398C29.3358 49.609 29.4689 49.58 29.86 51.339C30.0041 50.7538 30.0912 49.5311 30.0839 49.3074C30.0705 48.8894 29.8258 46.2736 29.0047 45.545C27.9992 44.6529 28.3741 42.3471 29.443 41.49C29.769 41.2289 29.6111 40.1465 29.6111 40.1465C31.112 39.3037 32.6132 38.4609 34.1288 37.6096C33.1638 36.8866 31.8936 37.3061 29.5167 38.7787C28.7814 39.2344 27.8011 38.794 27.604 37.9652L27.2962 36.6729C27.6822 36.6174 28.2713 36.6283 28.7776 36.4324C29.2401 36.2534 29.6124 35.8513 30.1726 35.438C29.0057 35.2325 28.0774 35.264 27.3989 34.8772C26.9906 34.6442 26.9708 33.7596 26.7682 33.1416C27.4879 33.3572 28.0423 33.5228 28.5964 33.6887L28.7693 33.345C28.2276 32.7286 27.596 32.1669 27.1631 31.4847C26.2371 30.0252 26.0824 28.425 26.4346 26.7397C26.5159 26.3507 26.2393 25.8906 26.128 25.4633C25.7079 25.7328 25.2045 25.9331 24.8932 26.2924C24.615 26.6131 24.5486 27.1093 24.3729 27.5697C23.058 26.9247 21.3781 26.7163 21.6215 24.7337L23.1584 25.4936C23.1584 25.4936 22.8181 24.6118 22.5106 24.3525C20.72 22.8419 20.3261 20.8 20.3024 18.6574C20.2855 17.1381 21.7631 16.2902 23.1387 17.0099C25.7666 18.3845 28.6481 18.9135 31.5245 19.4029C32.478 19.5654 33.515 19.2591 34.8028 19.1403Z" fill="#C63539"/>
<path d="M86.156 44V31.616H91.934C92.714 31.616 93.344 31.706 93.824 31.886C94.304 32.066 94.664 32.33 94.904 32.678C95.144 33.014 95.306 33.422 95.39 33.902C95.474 34.37 95.516 34.886 95.516 35.45C95.516 35.858 95.474 36.308 95.39 36.8C95.318 37.28 95.15 37.724 94.886 38.132C94.634 38.528 94.232 38.816 93.68 38.996L95.714 44H93.554L91.574 38.942L92.096 39.212C92.012 39.248 91.91 39.272 91.79 39.284C91.682 39.284 91.55 39.284 91.394 39.284H88.19V44H86.156ZM88.19 37.556H91.07C91.634 37.556 92.078 37.52 92.402 37.448C92.726 37.364 92.966 37.238 93.122 37.07C93.278 36.902 93.374 36.686 93.41 36.422C93.458 36.158 93.482 35.834 93.482 35.45C93.482 35.054 93.458 34.724 93.41 34.46C93.374 34.184 93.284 33.968 93.14 33.812C92.996 33.644 92.762 33.524 92.438 33.452C92.126 33.38 91.694 33.344 91.142 33.344H88.19V37.556ZM98.3728 44V31.616H106.617V33.344H100.407V36.89H105.771V38.618H100.407V42.272H106.617V44H98.3728ZM109.289 44V31.616H113.339C114.383 31.616 115.235 31.67 115.895 31.778C116.567 31.874 117.095 32.054 117.479 32.318C117.863 32.582 118.139 32.948 118.307 33.416C118.487 33.884 118.601 34.478 118.649 35.198C118.697 35.918 118.721 36.788 118.721 37.808C118.721 38.828 118.697 39.698 118.649 40.418C118.601 41.138 118.487 41.732 118.307 42.2C118.139 42.668 117.863 43.034 117.479 43.298C117.095 43.562 116.567 43.748 115.895 43.856C115.235 43.952 114.383 44 113.339 44H109.289ZM111.323 42.272H113.159C113.831 42.272 114.383 42.26 114.815 42.236C115.259 42.2 115.607 42.116 115.859 41.984C116.111 41.84 116.297 41.612 116.417 41.3C116.537 40.988 116.609 40.55 116.633 39.986C116.669 39.41 116.687 38.684 116.687 37.808C116.687 36.932 116.669 36.212 116.633 35.648C116.609 35.084 116.531 34.646 116.399 34.334C116.279 34.01 116.087 33.782 115.823 33.65C115.571 33.506 115.229 33.422 114.797 33.398C114.365 33.362 113.819 33.344 113.159 33.344H111.323V42.272ZM128.526 44V33.398H124.764V31.616H134.304V33.398H130.56V44H128.526ZM136.412 44V31.616H138.446V44H136.412ZM146.67 44.144C145.782 44.144 145.026 44.09 144.402 43.982C143.79 43.862 143.28 43.664 142.872 43.388C142.464 43.112 142.146 42.734 141.918 42.254C141.702 41.774 141.546 41.174 141.45 40.454C141.366 39.722 141.324 38.84 141.324 37.808C141.324 36.776 141.366 35.9 141.45 35.18C141.546 34.448 141.708 33.842 141.936 33.362C142.164 32.882 142.482 32.504 142.89 32.228C143.298 31.952 143.808 31.76 144.42 31.652C145.044 31.532 145.794 31.472 146.67 31.472C147.066 31.472 147.498 31.49 147.966 31.526C148.446 31.562 148.92 31.61 149.388 31.67C149.856 31.718 150.282 31.778 150.666 31.85V33.47C150.258 33.41 149.856 33.362 149.46 33.326C149.064 33.29 148.698 33.26 148.362 33.236C148.038 33.212 147.768 33.2 147.552 33.2C146.832 33.2 146.226 33.218 145.734 33.254C145.242 33.278 144.84 33.362 144.528 33.506C144.216 33.65 143.976 33.89 143.808 34.226C143.64 34.55 143.52 35 143.448 35.576C143.388 36.152 143.358 36.896 143.358 37.808C143.358 38.612 143.376 39.29 143.412 39.842C143.46 40.382 143.55 40.832 143.682 41.192C143.826 41.54 144.018 41.804 144.258 41.984C144.51 42.164 144.834 42.29 145.23 42.362C145.638 42.434 146.136 42.47 146.724 42.47C146.952 42.47 147.192 42.464 147.444 42.452C147.708 42.44 147.954 42.428 148.182 42.416C148.41 42.392 148.602 42.368 148.758 42.344V38.834H146.328V37.142H150.72V43.766C150.312 43.838 149.862 43.904 149.37 43.964C148.89 44.012 148.416 44.054 147.948 44.09C147.48 44.126 147.054 44.144 146.67 44.144ZM153.832 44V31.616H162.076V33.344H155.866V36.89H161.23V38.618H155.866V42.272H162.076V44H153.832ZM164.748 44V31.616H170.526C171.306 31.616 171.936 31.706 172.416 31.886C172.896 32.066 173.256 32.33 173.496 32.678C173.736 33.014 173.898 33.422 173.982 33.902C174.066 34.37 174.108 34.886 174.108 35.45C174.108 35.858 174.066 36.308 173.982 36.8C173.91 37.28 173.742 37.724 173.478 38.132C173.226 38.528 172.824 38.816 172.272 38.996L174.306 44H172.146L170.166 38.942L170.688 39.212C170.604 39.248 170.502 39.272 170.382 39.284C170.274 39.284 170.142 39.284 169.986 39.284H166.782V44H164.748ZM166.782 37.556H169.662C170.226 37.556 170.67 37.52 170.994 37.448C171.318 37.364 171.558 37.238 171.714 37.07C171.87 36.902 171.966 36.686 172.002 36.422C172.05 36.158 172.074 35.834 172.074 35.45C172.074 35.054 172.05 34.724 172.002 34.46C171.966 34.184 171.876 33.968 171.732 33.812C171.588 33.644 171.354 33.524 171.03 33.452C170.718 33.38 170.286 33.344 169.734 33.344H166.782V37.556Z" fill="#3A3A3A"/>
</svg>
