<svg width="188" height="76" viewBox="0 0 188 76" fill="none" xmlns="http://www.w3.org/2000/svg">
<path fill-rule="evenodd" clip-rule="evenodd" d="M52.2749 30.7136C52.3243 31.465 52.7668 32.3334 53.7573 31.8543C55.2135 31.15 54.6795 29.9279 54.6773 29.5426C54.3445 29.5926 53.7745 29.5966 53.4762 29.7229C53.0682 29.8954 52.585 30.2707 52.2749 30.7136ZM35.0822 30.0795C35.1058 30.7673 35.0499 31.5349 36.153 31.8871C36.8063 32.0954 37.6086 31.2302 37.653 30.6207C37.2172 30.0795 36.7764 29.8474 36.3677 29.6974C35.3402 29.3199 35.0971 29.2479 35.0822 30.0795ZM41.2449 36.9652C41.2449 36.9652 40.4968 37.3982 40.4968 37.9999C40.4968 38.8358 40.7198 38.9946 40.8879 39.1477C41.2414 39.4693 42.7895 39.5479 43.0485 39.5526C45.2722 39.5916 46.1737 39.5573 48.3952 39.4768C48.8702 39.4597 49.1937 39.3102 49.5226 38.9372C49.7213 38.712 49.7695 38.2672 49.5162 37.794C49.3841 37.5472 49.2412 37.1614 48.9704 36.9664C48.8192 37.2207 49.0259 38.0217 47.7834 38.4662C47.2539 38.6552 45.8177 38.7716 45.2324 38.7694C42.5155 38.7591 41.2155 38.396 41.2449 36.9652ZM39.2454 35.4505C38.007 35.4405 37.6861 36.1848 37.4089 36.943C37.0402 37.9518 38.2339 38.9887 36.3677 39.5314C37.11 40.1409 38.03 41.6671 39.2097 42.636C37.1754 43.0624 36.3454 41.489 34.9785 40.7744C35.383 43.0845 37.5729 43.3802 38.8674 44.5506C38.8103 44.6504 38.8167 44.6398 38.7596 44.7393C37.5231 44.4377 36.3141 44.1429 34.7931 43.772C35.8851 45.8042 38.0476 44.8017 39.3778 45.8741C38.1021 46.6745 36.9263 46.2371 35.7581 46.1136C35.5106 46.0877 35.241 46.2683 34.9814 46.3538C35.1421 46.5896 35.2512 46.9043 35.4745 47.0457C36.028 47.395 36.606 47.7603 37.2281 47.9384C37.764 48.0918 38.4205 48.1421 38.943 47.983C40.612 47.4752 42.2523 46.8707 43.8814 46.2474C44.1621 46.1401 44.47 45.7849 44.5267 45.4988C44.6288 44.9841 44.5066 44.4314 44.557 43.9015C44.631 43.1151 44.2585 42.6506 43.5372 42.4494C41.9547 42.0081 40.6739 41.1412 39.7118 39.8879C39.329 39.3892 38.9749 38.4808 38.9624 37.8573C38.9471 37.0803 39.1385 36.2939 39.2454 35.4505ZM54.4048 39.7426C52.8322 39.2978 52.7964 38.2868 52.7231 37.2781C52.7043 37.0198 52.6344 36.7001 52.4621 36.5307C52.05 36.1258 51.5632 35.7933 51.1064 35.4315C51.0557 35.9184 50.9571 36.4062 50.9673 36.8922C50.9788 37.4228 51.1437 37.9524 51.138 38.4811C51.1348 38.7722 50.9651 39.198 50.7769 39.4235C49.6632 40.7585 48.392 41.8908 46.6749 42.4859C46.2991 42.616 45.8174 43.0421 45.7711 43.3824C45.6828 44.0328 45.6978 44.6966 45.714 45.3001C45.7262 45.7374 46.0072 46.1239 46.4248 46.2802C48.1065 46.9081 49.6655 47.5017 51.2423 48.0463C51.6347 48.182 52.1613 48.2247 52.5333 48.0809C53.2517 47.803 53.926 47.3947 54.5717 46.9714C54.8214 46.8077 54.9436 46.4571 55.1242 46.1913C54.8549 46.0884 54.6269 46.1607 54.3481 46.1099C53.5665 45.9676 52.4771 46.0238 51.9588 45.5272C53.0861 45.103 54.4422 45.3756 55.2135 43.7826C53.77 44.132 52.5706 44.4221 51.3533 44.7165C51.2905 44.603 51.2978 44.6161 51.2346 44.5032C52.4398 43.3465 54.7398 43.1684 54.8374 40.872C53.6156 41.6534 52.7732 43.0683 50.7947 42.6039C52.0235 41.63 53.0382 40.8259 54.4048 39.7426ZM50.9051 54.6111C50.5883 53.1906 50.9086 52.8693 52.191 53.3163C52.6669 53.4822 53.0376 53.9364 53.4574 54.2573C53.6782 54.4264 53.9021 54.592 54.3481 54.9277C52.895 50.3112 49.2007 48.8573 43.6339 49.1577C39.1197 49.4013 36.1821 52.0009 35.9782 54.8612C36.4542 54.5044 36.7604 53.9339 37.2427 53.6357C37.7231 53.3384 38.4827 52.9158 38.9589 53.2358C39.2799 53.4513 38.9765 54.4373 39.1334 55.0094C41.8991 56.6189 45.1631 56.4623 45.0853 54.6098C45.0914 56.0259 45.9903 56.0022 46.7588 56.0135C48.3614 56.0369 49.8818 55.5446 50.9051 54.6111ZM36.8028 19.1403C35.5999 19.8331 33.5803 20.4441 32.4858 20.291C31.3677 20.135 30.072 20.087 28.9877 19.7766C28.6521 19.6805 28.2789 19.7102 27.8769 19.9363C28.6374 20.3256 31.3023 21.4488 31.2736 21.5147C30.9751 21.4142 29.4758 21.1007 29.0525 20.9579C29.3191 22.03 29.5494 22.9551 29.7791 23.8806C29.8783 23.8479 29.9775 23.8148 30.0768 23.782C29.8965 24.8161 29.6244 25.8448 29.559 26.886C29.4793 28.1543 29.9112 29.2282 30.9955 30.1007C32.1815 31.0545 33.1005 32.3478 34.3418 33.2087C35.5661 34.0578 37.0558 34.515 39.0046 34.1466C38.5251 33.6831 38.2788 33.3182 37.9321 33.1379C37.3151 32.8175 36.6513 32.5658 35.983 32.3612C33.3672 31.5611 31.9761 29.5504 30.8577 27.3286C30.5629 26.7428 30.6672 25.9649 30.5881 25.2752L30.9537 25.1729C31.1773 25.6215 31.4079 26.0669 31.6226 26.5195C31.9793 27.2712 32.4447 27.6059 33.4186 27.6125C35.5884 27.6274 37.6788 27.9837 38.8658 30.1815C39.4703 31.3013 40.1982 32.3921 41.4538 32.9068C41.554 32.8469 41.3728 31.6413 41.1578 31.0293C42.1665 30.6269 41.7677 30.0561 41.2302 29.4899C40.4978 28.7189 39.7558 27.9571 38.98 27.1524C39.7628 26.9337 40.7409 26.3576 40.7208 26.2116H36.479C36.4759 26.1704 36.472 26.129 36.4685 26.0875C37.7034 25.8688 40.1686 25.0104 40.1663 24.8002C38.1965 23.6192 35.8589 24.3859 33.7318 24.0372C33.7235 23.8778 33.7251 23.9087 33.7165 23.7496C35.0748 23.408 36.436 23.0777 37.7901 22.7218C39.1101 22.3749 41.6841 21.3456 41.6564 21.1987H36.0873C37.8386 20.427 39.3848 19.315 41.4114 19.3543C43.5197 19.3958 45.6381 19.484 47.7355 19.3306C50.0843 19.1587 51.9339 20.2489 53.979 21.1959H48.3895C48.3624 21.3428 51.0081 22.3877 52.3632 22.7446C53.6861 23.093 55.016 23.4171 56.3201 23.8862C54.1886 24.4093 51.8796 23.5874 49.7223 24.9365C50.8825 26.2191 52.4181 25.6012 53.8217 26.167H49.3257C49.2964 26.3102 50.2786 26.9278 51.0499 27.1733C50.2646 27.9918 49.505 28.8009 48.7251 29.5901C48.1362 30.1858 48.097 30.6805 48.9056 31.0149C48.6858 31.6026 48.4826 32.8609 48.5854 32.9451C49.068 32.5708 49.6103 32.2492 50.0186 31.8085C50.4863 31.3031 50.9115 30.7298 51.2203 30.1206C52.2918 28.0099 54.3385 27.6296 56.3507 27.6062C57.6369 27.5913 58.2146 27.1982 58.578 26.1324C58.6938 25.7918 58.9174 25.4858 59.1563 25.0453C59.6756 26.2993 59.2578 27.1748 58.7614 28.1683C57.45 30.7953 55.1988 32.1042 52.5042 32.9542C52.0235 33.1054 51.6372 33.5425 51.2072 33.8475C51.2072 33.8475 52.4979 34.3235 53.0287 34.2115C55.3251 33.7277 57.2678 32.6825 58.5544 30.6706C58.6852 30.4663 58.9448 30.1693 59.1238 30.0034C60.4298 28.7887 60.8913 26.8227 60.3254 25.1408C60.1691 24.6757 59.2319 23.9742 60.5452 23.6682C60.5803 23.6598 60.5998 23.5375 60.6065 23.4664C60.6795 22.6987 60.7481 21.9305 60.8339 20.99C60.2068 21.3178 59.5337 21.4404 58.8057 21.821C59.6622 21.0178 60.8744 20.29 62.2866 20.0271C62.2978 19.9213 60.8279 19.5358 60.097 19.6041C58.7834 19.727 57.4838 20.0976 56.1743 20.1194C55.2722 20.1347 53.653 19.1506 53.7046 19.1581C57.6921 19.7517 61.3348 18.6247 64.8747 17.008C66.3472 16.3355 67.798 17.1508 67.7556 18.7441C67.6997 20.8406 67.3121 22.8519 65.5513 24.3313C65.2415 24.5912 64.8929 25.4805 64.8929 25.4805L66.4445 24.6994C66.6429 26.6209 65.0999 26.9774 63.6985 27.5342C63.4462 27.0002 63.2554 26.4194 62.9125 25.9434C62.7285 25.6879 62.2825 25.613 61.9549 25.4564C61.8018 25.7724 61.5322 26.084 61.5201 26.4047C61.4946 27.0875 61.5746 27.779 61.6624 28.4606C61.8936 30.2644 61.2056 31.6625 59.7637 32.7548C59.5879 32.8877 59.4571 33.0771 59.3034 33.2421C59.9608 33.7755 59.9608 33.7755 61.307 33.1816C61.0387 33.8291 60.9459 34.7299 60.4543 35.0559C59.9171 35.4121 59.0109 35.2368 58.2654 35.293C58.3502 36.1601 58.3502 36.1601 60.7653 36.745C60.6553 37.1433 60.5456 37.5385 60.4336 37.9418C60.2058 38.7631 59.2169 39.1278 58.4982 38.6477C57.0924 37.7088 55.7105 37.017 53.8632 37.585C55.3625 38.4188 56.8614 39.2525 58.4666 40.1453C57.8641 40.9778 57.9862 41.4557 58.8778 41.9023C59.7379 42.3328 59.8989 44.7518 59.1324 45.4527C58.3263 46.1904 58.1298 50.9503 58.2545 50.9946C58.5394 50.499 58.9254 49.1736 59.134 48.5513C59.6233 47.0946 59.9608 46.3778 60.7666 45.448C61.3491 44.7758 62.5364 42.5661 60.9529 41.5193C60.9529 41.5193 61.2435 40.9326 61.6506 39.911C62.2847 38.3186 62.7814 37.77 63.6137 36.2537C63.6803 36.132 64.6109 34.8126 64.7069 34.7062C64.7069 34.7062 62.5128 41.3144 62.4844 41.6646C62.8959 41.5623 64.5911 40.8215 64.763 40.9085C64.2073 42.753 63.7601 44.6379 63.0561 46.4268C62.3517 48.2169 61.3832 49.9076 60.5302 51.6419C60.6821 51.7685 62.152 51.1581 62.6248 50.6297C65.0948 47.8698 66.0441 44.5069 66.352 40.9482C66.4729 39.547 66.3714 38.1274 66.6145 36.6614C66.9692 37.9864 67.5179 39.2959 67.6334 40.6406C67.7986 42.5705 68.2261 43.5767 67.6203 46.4705C67.6158 46.7213 67.4949 46.997 67.353 47.2141C65.5471 49.9749 63.7279 52.7277 61.9039 55.4947L61.5804 54.127C61.4298 54.1051 61.4228 54.1039 61.2722 54.082C61.0882 54.4027 60.8811 54.7127 60.7261 55.0465C60.0948 56.4046 58.6612 59.0476 58.5627 59.0051C58.5627 57.6916 58.5748 56.3781 58.5569 55.0649C58.5489 54.452 58.5639 53.7037 57.6905 53.7055C56.8391 53.7074 56.8123 54.4283 56.8024 55.0574C56.7916 55.772 56.8002 56.4873 56.8002 57.3703C55.728 56.7836 54.899 56.2437 53.9997 55.8606C53.0108 55.4395 52.0736 55.2829 51.1434 56.2624C50.3249 57.1245 49.2001 57.5038 47.8686 57.4312C46.0547 57.3326 44.2074 57.3529 42.4102 57.5862C40.8732 57.7861 39.7832 57.0818 38.861 56.215C38.0106 55.4155 37.2038 55.4087 36.3154 55.7652C35.3514 56.1517 34.4563 56.7016 33.3624 57.2671C33.3171 56.5244 33.3583 55.7412 33.1924 55.0025C33.0862 54.5284 32.7241 53.7948 32.3904 53.7464C31.5588 53.6263 31.4724 54.3759 31.4676 55.0134C31.4571 56.3822 31.4644 57.7506 31.3055 59.25C30.457 57.5481 29.6088 55.8463 28.7602 54.1447C28.6113 54.1597 28.609 54.16 28.4604 54.175C28.343 54.6282 28.2256 55.0814 28.0817 55.6364C26.9107 53.7015 25.8006 51.8671 24.6898 50.0333C24.6302 49.9347 24.5552 49.8439 24.5039 49.7413C23.8502 48.4225 22.5688 46.9031 22.3219 45.8984C21.5668 42.8291 22.187 39.6421 23.692 36.6785C23.692 37.3657 23.693 38.0526 23.6917 38.7397C23.691 39.4662 23.6375 40.1961 23.6939 40.9179C23.9721 44.4523 24.9441 47.759 27.3184 50.5236C27.8218 51.11 28.6094 51.4631 29.448 51.7729C27.5554 48.2363 25.9157 44.6975 25.4529 41.0015L27.3257 41.6475C27.1356 41.0015 27.0198 40.3218 26.7391 39.7167C26.2966 38.7641 25.9205 36.4649 25.2908 34.4002C26.1432 36.0843 27.0587 37.8249 27.9267 39.1069C28.6492 40.1743 29.6522 41.6855 29.5137 41.801C28.8052 42.4139 28.106 44.0166 29.1076 45.5244C29.7721 46.5247 30.4353 47.3835 30.9033 48.5398C31.3358 49.609 31.4689 49.58 31.86 51.339C32.0041 50.7538 32.0912 49.5311 32.0839 49.3074C32.0705 48.8894 31.8258 46.2736 31.0047 45.545C29.9992 44.6529 30.3741 42.3471 31.443 41.49C31.769 41.2289 31.6111 40.1465 31.6111 40.1465C33.112 39.3037 34.6132 38.4609 36.1288 37.6096C35.1638 36.8866 33.8936 37.3061 31.5167 38.7787C30.7814 39.2344 29.8011 38.794 29.604 37.9652L29.2962 36.6729C29.6822 36.6174 30.2713 36.6283 30.7776 36.4324C31.2401 36.2534 31.6124 35.8513 32.1726 35.438C31.0057 35.2325 30.0774 35.264 29.3989 34.8772C28.9906 34.6442 28.9708 33.7596 28.7682 33.1416C29.4879 33.3572 30.0423 33.5228 30.5964 33.6887L30.7693 33.345C30.2276 32.7286 29.596 32.1669 29.1631 31.4847C28.2371 30.0252 28.0824 28.425 28.4346 26.7397C28.5159 26.3507 28.2393 25.8906 28.128 25.4633C27.7079 25.7328 27.2045 25.9331 26.8932 26.2924C26.615 26.6131 26.5486 27.1093 26.3729 27.5697C25.058 26.9247 23.3781 26.7163 23.6215 24.7337L25.1584 25.4936C25.1584 25.4936 24.8181 24.6118 24.5106 24.3525C22.72 22.8419 22.3261 20.8 22.3024 18.6574C22.2855 17.1381 23.7631 16.2902 25.1387 17.0099C27.7666 18.3845 30.6481 18.9135 33.5245 19.4029C34.478 19.5654 35.515 19.2591 36.8028 19.1403Z" fill="#C63539"/>
<path d="M88.156 44V31.616H93.934C94.714 31.616 95.344 31.706 95.824 31.886C96.304 32.066 96.664 32.33 96.904 32.678C97.144 33.014 97.306 33.422 97.39 33.902C97.474 34.37 97.516 34.886 97.516 35.45C97.516 35.858 97.474 36.308 97.39 36.8C97.318 37.28 97.15 37.724 96.886 38.132C96.634 38.528 96.232 38.816 95.68 38.996L97.714 44H95.554L93.574 38.942L94.096 39.212C94.012 39.248 93.91 39.272 93.79 39.284C93.682 39.284 93.55 39.284 93.394 39.284H90.19V44H88.156ZM90.19 37.556H93.07C93.634 37.556 94.078 37.52 94.402 37.448C94.726 37.364 94.966 37.238 95.122 37.07C95.278 36.902 95.374 36.686 95.41 36.422C95.458 36.158 95.482 35.834 95.482 35.45C95.482 35.054 95.458 34.724 95.41 34.46C95.374 34.184 95.284 33.968 95.14 33.812C94.996 33.644 94.762 33.524 94.438 33.452C94.126 33.38 93.694 33.344 93.142 33.344H90.19V37.556ZM100.373 44V31.616H108.617V33.344H102.407V36.89H107.771V38.618H102.407V42.272H108.617V44H100.373ZM111.289 44V31.616H115.339C116.383 31.616 117.235 31.67 117.895 31.778C118.567 31.874 119.095 32.054 119.479 32.318C119.863 32.582 120.139 32.948 120.307 33.416C120.487 33.884 120.601 34.478 120.649 35.198C120.697 35.918 120.721 36.788 120.721 37.808C120.721 38.828 120.697 39.698 120.649 40.418C120.601 41.138 120.487 41.732 120.307 42.2C120.139 42.668 119.863 43.034 119.479 43.298C119.095 43.562 118.567 43.748 117.895 43.856C117.235 43.952 116.383 44 115.339 44H111.289ZM113.323 42.272H115.159C115.831 42.272 116.383 42.26 116.815 42.236C117.259 42.2 117.607 42.116 117.859 41.984C118.111 41.84 118.297 41.612 118.417 41.3C118.537 40.988 118.609 40.55 118.633 39.986C118.669 39.41 118.687 38.684 118.687 37.808C118.687 36.932 118.669 36.212 118.633 35.648C118.609 35.084 118.531 34.646 118.399 34.334C118.279 34.01 118.087 33.782 117.823 33.65C117.571 33.506 117.229 33.422 116.797 33.398C116.365 33.362 115.819 33.344 115.159 33.344H113.323V42.272ZM126.185 44V33.398H122.423V31.616H131.963V33.398H128.219V44H126.185ZM134.07 44V31.616H136.104V44H134.07ZM144.328 44.144C143.44 44.144 142.684 44.09 142.06 43.982C141.448 43.862 140.938 43.664 140.53 43.388C140.122 43.112 139.804 42.734 139.576 42.254C139.36 41.774 139.204 41.174 139.108 40.454C139.024 39.722 138.982 38.84 138.982 37.808C138.982 36.776 139.024 35.9 139.108 35.18C139.204 34.448 139.366 33.842 139.594 33.362C139.822 32.882 140.14 32.504 140.548 32.228C140.956 31.952 141.466 31.76 142.078 31.652C142.702 31.532 143.452 31.472 144.328 31.472C144.724 31.472 145.156 31.49 145.624 31.526C146.104 31.562 146.578 31.61 147.046 31.67C147.514 31.718 147.94 31.778 148.324 31.85V33.47C147.916 33.41 147.514 33.362 147.118 33.326C146.722 33.29 146.356 33.26 146.02 33.236C145.696 33.212 145.426 33.2 145.21 33.2C144.49 33.2 143.884 33.218 143.392 33.254C142.9 33.278 142.498 33.362 142.186 33.506C141.874 33.65 141.634 33.89 141.466 34.226C141.298 34.55 141.178 35 141.106 35.576C141.046 36.152 141.016 36.896 141.016 37.808C141.016 38.612 141.034 39.29 141.07 39.842C141.118 40.382 141.208 40.832 141.34 41.192C141.484 41.54 141.676 41.804 141.916 41.984C142.168 42.164 142.492 42.29 142.888 42.362C143.296 42.434 143.794 42.47 144.382 42.47C144.61 42.47 144.85 42.464 145.102 42.452C145.366 42.44 145.612 42.428 145.84 42.416C146.068 42.392 146.26 42.368 146.416 42.344V38.834H143.986V37.142H148.378V43.766C147.97 43.838 147.52 43.904 147.028 43.964C146.548 44.012 146.074 44.054 145.606 44.09C145.138 44.126 144.712 44.144 144.328 44.144ZM151.49 44V31.616H159.734V33.344H153.524V36.89H158.888V38.618H153.524V42.272H159.734V44H151.49ZM162.406 44V31.616H168.184C168.964 31.616 169.594 31.706 170.074 31.886C170.554 32.066 170.914 32.33 171.154 32.678C171.394 33.014 171.556 33.422 171.64 33.902C171.724 34.37 171.766 34.886 171.766 35.45C171.766 35.858 171.724 36.308 171.64 36.8C171.568 37.28 171.4 37.724 171.136 38.132C170.884 38.528 170.482 38.816 169.93 38.996L171.964 44H169.804L167.824 38.942L168.346 39.212C168.262 39.248 168.16 39.272 168.04 39.284C167.932 39.284 167.8 39.284 167.644 39.284H164.44V44H162.406ZM164.44 37.556H167.32C167.884 37.556 168.328 37.52 168.652 37.448C168.976 37.364 169.216 37.238 169.372 37.07C169.528 36.902 169.624 36.686 169.66 36.422C169.708 36.158 169.732 35.834 169.732 35.45C169.732 35.054 169.708 34.724 169.66 34.46C169.624 34.184 169.534 33.968 169.39 33.812C169.246 33.644 169.012 33.524 168.688 33.452C168.376 33.38 167.944 33.344 167.392 33.344H164.44V37.556Z" fill="#3A3A3A"/>
</svg>
