<svg width="188" height="76" viewBox="0 0 188 76" fill="none" xmlns="http://www.w3.org/2000/svg">
<path d="M44.5911 52.5871L37.3071 40.245C41.0527 39.454 43.6527 36.8545 43.6527 31.2171C43.6688 23.7046 38.6669 21.9395 32.3486 21.9395H17.014C16.8542 21.9395 16.701 22.0029 16.588 22.1158C16.475 22.2287 16.4113 22.3819 16.4111 22.5417V52.759C16.4111 53.0923 16.6809 53.3613 17.014 53.3613H22.4212C22.5809 53.3613 22.734 53.2978 22.8469 53.1849C22.9598 53.0719 23.0233 52.9187 23.0233 52.759V40.934H30.6942L37.4452 52.9228C37.6138 53.236 37.9485 53.4271 38.3057 53.4143H44.1946C44.3287 53.412 44.4566 53.3576 44.5513 53.2625C44.646 53.1675 44.7 53.0393 44.7019 52.9051C44.6976 52.7902 44.6584 52.6793 44.5895 52.5871H44.5911ZM32.3912 35.4604H23.0233V27.5512H32.3912C35.9047 27.5512 36.9716 29.2721 36.9716 31.4412C36.9716 33.6094 35.9039 35.4604 32.3912 35.4604Z" fill="#3A3A3A"/>
<ellipse cx="62.9707" cy="38.0004" rx="4.81641" ry="4.81831" fill="#3A3A3A"/>
<ellipse cx="50.9297" cy="26.7578" rx="4.81641" ry="4.81831" fill="#3A3A3A"/>
<ellipse cx="50.9297" cy="49.2436" rx="4.81641" ry="4.81831" fill="#3A3A3A"/>
<ellipse cx="75.0117" cy="26.7578" rx="4.81641" ry="4.81831" fill="#3A3A3A"/>
<ellipse cx="75.0117" cy="49.2436" rx="4.81641" ry="4.81831" fill="#3A3A3A"/>
<path d="M98.715 33V19.24H105.135C106.002 19.24 106.702 19.34 107.235 19.54C107.768 19.74 108.168 20.0333 108.435 20.42C108.702 20.7933 108.882 21.2467 108.975 21.78C109.068 22.3 109.115 22.8733 109.115 23.5C109.115 23.9533 109.068 24.4533 108.975 25C108.895 25.5333 108.708 26.0267 108.415 26.48C108.135 26.92 107.688 27.24 107.075 27.44L109.335 33H106.935L104.735 27.38L105.315 27.68C105.222 27.72 105.108 27.7467 104.975 27.76C104.855 27.76 104.708 27.76 104.535 27.76H100.975V33H98.715ZM100.975 25.84H104.175C104.802 25.84 105.295 25.8 105.655 25.72C106.015 25.6267 106.282 25.4867 106.455 25.3C106.628 25.1133 106.735 24.8733 106.775 24.58C106.828 24.2867 106.855 23.9267 106.855 23.5C106.855 23.06 106.828 22.6933 106.775 22.4C106.735 22.0933 106.635 21.8533 106.475 21.68C106.315 21.4933 106.055 21.36 105.695 21.28C105.348 21.2 104.868 21.16 104.255 21.16H100.975V25.84ZM112.289 33V19.24H121.449V21.16H114.549V25.1H120.509V27.02H114.549V31.08H121.449V33H112.289ZM124.418 33V19.24H126.678V31.02H132.778V33H124.418ZM133.799 33L138.719 19.24H141.679L146.599 33H144.259L143.059 29.6H137.259L136.079 33H133.799ZM137.899 27.68H142.399L140.199 21.42H140.099L137.899 27.68ZM147.491 33L152.411 26.1L147.571 19.24H150.211L153.751 24.22H153.911L157.431 19.24H160.011L155.171 26.04L160.071 33H157.431L153.811 27.88H153.651L150.051 33H147.491ZM104.195 57.16C103.208 57.16 102.368 57.1 101.675 56.98C100.995 56.8467 100.428 56.6267 99.975 56.32C99.5217 56.0133 99.1683 55.5933 98.915 55.06C98.675 54.5267 98.5017 53.86 98.395 53.06C98.3017 52.2467 98.255 51.2667 98.255 50.12C98.255 48.9733 98.3017 48 98.395 47.2C98.5017 46.3867 98.6817 45.7133 98.935 45.18C99.1883 44.6467 99.5417 44.2267 99.995 43.92C100.448 43.6133 101.015 43.4 101.695 43.28C102.388 43.1467 103.222 43.08 104.195 43.08C104.635 43.08 105.115 43.1 105.635 43.14C106.168 43.18 106.695 43.2333 107.215 43.3C107.735 43.3533 108.208 43.42 108.635 43.5V45.3C108.182 45.2333 107.735 45.18 107.295 45.14C106.855 45.1 106.448 45.0667 106.075 45.04C105.715 45.0133 105.415 45 105.175 45C104.375 45 103.702 45.02 103.155 45.06C102.608 45.0867 102.162 45.18 101.815 45.34C101.468 45.5 101.202 45.7667 101.015 46.14C100.828 46.5 100.695 47 100.615 47.64C100.548 48.28 100.515 49.1067 100.515 50.12C100.515 51.0133 100.535 51.7667 100.575 52.38C100.628 52.98 100.728 53.48 100.875 53.88C101.035 54.2667 101.248 54.56 101.515 54.76C101.795 54.96 102.155 55.1 102.595 55.18C103.048 55.26 103.602 55.3 104.255 55.3C104.508 55.3 104.775 55.2933 105.055 55.28C105.348 55.2667 105.622 55.2533 105.875 55.24C106.128 55.2133 106.342 55.1867 106.515 55.16V51.26H103.815V49.38H108.695V56.74C108.242 56.82 107.742 56.8933 107.195 56.96C106.662 57.0133 106.135 57.06 105.615 57.1C105.095 57.14 104.622 57.16 104.195 57.16ZM110.753 57L115.673 43.24H118.633L123.553 57H121.213L120.013 53.6H114.213L113.033 57H110.753ZM114.853 51.68H119.353L117.153 45.42H117.053L114.853 51.68ZM125.824 57V43.24H128.904L132.944 53.24H133.044L137.084 43.24H140.164V57H137.984V46.74H137.904L133.744 57H132.144L128.024 46.74H127.944V57H125.824ZM143.852 57V43.24H146.112V57H143.852ZM149.77 57V43.24H152.11L158.41 52.76H158.49V43.24H160.65V57H158.49L152.01 47.18H151.93V57H149.77ZM169.8 57.16C168.814 57.16 167.974 57.1 167.28 56.98C166.6 56.8467 166.034 56.6267 165.58 56.32C165.127 56.0133 164.774 55.5933 164.52 55.06C164.28 54.5267 164.107 53.86 164 53.06C163.907 52.2467 163.86 51.2667 163.86 50.12C163.86 48.9733 163.907 48 164 47.2C164.107 46.3867 164.287 45.7133 164.54 45.18C164.794 44.6467 165.147 44.2267 165.6 43.92C166.054 43.6133 166.62 43.4 167.3 43.28C167.994 43.1467 168.827 43.08 169.8 43.08C170.24 43.08 170.72 43.1 171.24 43.14C171.774 43.18 172.3 43.2333 172.82 43.3C173.34 43.3533 173.814 43.42 174.24 43.5V45.3C173.787 45.2333 173.34 45.18 172.9 45.14C172.46 45.1 172.054 45.0667 171.68 45.04C171.32 45.0133 171.02 45 170.78 45C169.98 45 169.307 45.02 168.76 45.06C168.214 45.0867 167.767 45.18 167.42 45.34C167.074 45.5 166.807 45.7667 166.62 46.14C166.434 46.5 166.3 47 166.22 47.64C166.154 48.28 166.12 49.1067 166.12 50.12C166.12 51.0133 166.14 51.7667 166.18 52.38C166.234 52.98 166.334 53.48 166.48 53.88C166.64 54.2667 166.854 54.56 167.12 54.76C167.4 54.96 167.76 55.1 168.2 55.18C168.654 55.26 169.207 55.3 169.86 55.3C170.114 55.3 170.38 55.2933 170.66 55.28C170.954 55.2667 171.227 55.2533 171.48 55.24C171.734 55.2133 171.947 55.1867 172.12 55.16V51.26H169.42V49.38H174.3V56.74C173.847 56.82 173.347 56.8933 172.8 56.96C172.267 57.0133 171.74 57.06 171.22 57.1C170.7 57.14 170.227 57.16 169.8 57.16Z" fill="#3A3A3A"/>
</svg>
