<svg width="188" height="76" viewBox="0 0 188 76" fill="none" xmlns="http://www.w3.org/2000/svg">
<path d="M44.0635 29.1189C54.6643 26.0462 63.0226 33.8305 63.6342 45.9166C65.2651 35.0596 61.1879 26.8656 56.4991 22.9734C54.2566 22.7686 51.6064 22.5637 49.3639 22.3589C48.1407 23.7928 45.2866 27.685 44.0635 29.1189Z" fill="#A41E22"/>
<path d="M62.2906 31.8945C57.3668 22.3805 48.545 26.6315 43.8264 29.6678C33.9788 36.1454 28.8499 21.9757 40.5439 18.332C47.5192 16.1054 59.8287 22.1781 62.2906 31.8945Z" fill="#ED1C24"/>
<path d="M48.5494 45.356C46.0866 56.1766 35.2094 59.7141 24.127 54.3038C32.9519 60.9626 42.1873 61.5869 48.139 59.2979C49.3703 57.4251 50.807 55.1361 52.0383 53.2633C51.2174 51.5986 49.1651 47.2288 48.5494 45.356Z" fill="#659A41"/>
<path d="M36.6582 59.966C47.8865 60.3674 48.3023 50.7342 47.8865 45.5163C46.8468 34.0769 62.2337 36.4852 59.7385 48.1252C58.283 55.1494 46.6389 62.5749 36.6582 59.966Z" fill="#A7CF38"/>
<path d="M31.3059 41.4295C23.2763 33.8049 26.1587 22.97 36.6589 16.75C26.3646 20.5623 20.8056 27.7855 19.5703 33.8049C20.3939 35.8114 21.6292 38.0185 22.6586 40.025C24.5116 40.4263 29.4529 41.0282 31.3059 41.4295Z" fill="#136D9A"/>
<path d="M24.8102 24.6025C18.6288 33.3065 26.8706 38.9742 31.6097 41.4033C42.1181 46.6661 32.0218 58.0016 22.9557 49.7024C17.5985 44.8444 17.1864 31.4848 24.8102 24.6025Z" fill="#2AACE3"/>
<path d="M90.02 44.66C89.5267 44.66 88.98 44.6467 88.38 44.62C87.7933 44.5933 87.2133 44.5533 86.64 44.5C86.08 44.46 85.5667 44.4133 85.1 44.36V42.5C85.58 42.54 86.08 42.58 86.6 42.62C87.1333 42.66 87.64 42.6933 88.12 42.72C88.6 42.7333 89.0133 42.74 89.36 42.74C90.0667 42.74 90.62 42.7067 91.02 42.64C91.42 42.5733 91.74 42.4667 91.98 42.32C92.14 42.2133 92.2533 42.08 92.32 41.92C92.4 41.76 92.4467 41.5733 92.46 41.36C92.4867 41.1333 92.5 40.8867 92.5 40.62C92.5 40.26 92.4867 39.96 92.46 39.72C92.4333 39.48 92.3733 39.2933 92.28 39.16C92.1867 39.0267 92.04 38.9333 91.84 38.88C91.64 38.8133 91.38 38.76 91.06 38.72L87.78 38.34C87.14 38.26 86.6133 38.1267 86.2 37.94C85.8 37.74 85.4867 37.48 85.26 37.16C85.0467 36.84 84.9 36.46 84.82 36.02C84.74 35.58 84.7 35.0933 84.7 34.56C84.7 33.6667 84.82 32.96 85.06 32.44C85.3 31.92 85.64 31.5267 86.08 31.26C86.5333 30.98 87.0667 30.8 87.68 30.72C88.2933 30.6267 88.9733 30.58 89.72 30.58C90.24 30.58 90.7733 30.6 91.32 30.64C91.8667 30.6667 92.38 30.7067 92.86 30.76C93.3533 30.8 93.76 30.86 94.08 30.94V32.76C93.7467 32.7067 93.3533 32.66 92.9 32.62C92.46 32.58 92 32.5533 91.52 32.54C91.04 32.5133 90.5933 32.5 90.18 32.5C89.4867 32.5 88.9267 32.5333 88.5 32.6C88.0867 32.6533 87.7667 32.7467 87.54 32.88C87.2733 33.0267 87.1133 33.2333 87.06 33.5C87.0067 33.7533 86.98 34.0733 86.98 34.46C86.98 34.9133 87.0067 35.2667 87.06 35.52C87.1267 35.76 87.2667 35.9267 87.48 36.02C87.7067 36.1133 88.0467 36.1867 88.5 36.24L91.78 36.62C92.1933 36.66 92.5667 36.7267 92.9 36.82C93.2333 36.9 93.5267 37.04 93.78 37.24C94.0467 37.44 94.2533 37.7267 94.4 38.1C94.4933 38.2867 94.56 38.5 94.6 38.74C94.6533 38.98 94.6933 39.2467 94.72 39.54C94.76 39.82 94.78 40.14 94.78 40.5C94.78 41.26 94.7 41.8933 94.54 42.4C94.3933 42.9067 94.18 43.3133 93.9 43.62C93.6333 43.9133 93.3 44.14 92.9 44.3C92.5 44.4467 92.06 44.54 91.58 44.58C91.1 44.6333 90.58 44.66 90.02 44.66ZM97.8205 44.5V30.74H100.08V36.54H102L106.5 30.74H108.98L103.84 37.36L109.04 44.5H106.42L102 38.46H100.08V44.5H97.8205ZM114.438 44.5V39.44L109.578 30.74H111.978L115.558 37.2H115.698L119.238 30.74H121.578L116.698 39.44V44.5H114.438ZM125.902 44.5L122.342 30.74H124.622L127.382 41.76H127.482L130.502 30.74H132.862L135.922 41.76H136.042L138.662 30.74H140.922L137.362 44.5H134.602L131.682 34.08H131.602L128.662 44.5H125.902ZM143.367 44.5V30.74H145.627V44.5H143.367ZM149.285 44.5V30.74H151.625L157.925 40.26H158.005V30.74H160.165V44.5H158.005L151.525 34.68H151.445V44.5H149.285ZM163.836 44.5V30.74H168.336C169.496 30.74 170.443 30.8 171.176 30.92C171.923 31.0267 172.509 31.2267 172.936 31.52C173.363 31.8133 173.669 32.22 173.856 32.74C174.056 33.26 174.183 33.92 174.236 34.72C174.289 35.52 174.316 36.4867 174.316 37.62C174.316 38.7533 174.289 39.72 174.236 40.52C174.183 41.32 174.056 41.98 173.856 42.5C173.669 43.02 173.363 43.4267 172.936 43.72C172.509 44.0133 171.923 44.22 171.176 44.34C170.443 44.4467 169.496 44.5 168.336 44.5H163.836ZM166.096 42.58H168.136C168.883 42.58 169.496 42.5667 169.976 42.54C170.469 42.5 170.856 42.4067 171.136 42.26C171.416 42.1 171.623 41.8467 171.756 41.5C171.889 41.1533 171.969 40.6667 171.996 40.04C172.036 39.4 172.056 38.5933 172.056 37.62C172.056 36.6467 172.036 35.8467 171.996 35.22C171.969 34.5933 171.883 34.1067 171.736 33.76C171.603 33.4 171.389 33.1467 171.096 33C170.816 32.84 170.436 32.7467 169.956 32.72C169.476 32.68 168.869 32.66 168.136 32.66H166.096V42.58Z" fill="#3A3A3A"/>
</svg>
