<svg width="188" height="76" viewBox="0 0 188 76" fill="none" xmlns="http://www.w3.org/2000/svg">
<path d="M67.5 37.0817C67.4821 36.2556 67.2248 35.0699 67.046 34.3668C66.9332 33.9311 67.1767 34.1249 67.434 34.8628C67.1849 33.7399 66.7887 32.5368 66.7021 32.5368C66.6154 32.5368 66.6622 32.7106 66.6457 32.7828C66.5796 32.6264 66.4874 32.2481 66.3788 31.9808C66.2412 31.6546 66.1036 31.4648 66.1999 31.7602C66.3884 32.2949 67.1162 35.1448 67.1946 35.6488C67.1162 35.3814 67.0281 35.0686 66.9676 34.8561C66.2756 32.4796 65.3062 30.1879 64.0785 28.0254C64.1693 28.1016 64.216 28.135 64.2697 28.1858C64.2821 28.0628 64.2917 27.9652 64.3082 27.8088C64.5531 28.1524 64.7663 28.4451 64.9755 28.7445C64.5449 27.623 63.7772 26.6779 63.1443 25.7035C63.1182 25.7462 63.0975 25.7797 63.0618 25.8371C62.3381 24.8466 61.3613 24.0285 60.9651 22.8723C60.9472 22.9231 60.9348 22.9525 60.9211 22.9912C60.8688 22.4191 60.1025 22.7533 60.1809 22.1651C60.6253 22.3897 61.3668 22.9779 61.7231 23.296C62.0795 23.6142 62.2336 23.6142 62.3601 23.6262C62.4867 23.6382 62.2336 23.4404 62.3078 23.3762C62.4042 23.296 63.3534 24.5205 63.8377 25.0498C62.4991 22.1437 58.9345 21.0851 56.4278 19.2257C49.8544 15.0818 41.0192 14.0124 33.9794 17.9812C33.6657 18.1589 33.2379 18.4209 33.0549 18.5399C32.8719 18.6589 33.2723 18.5306 33.2901 18.5479C33.0989 18.6816 32.9283 18.7899 32.7233 18.9289C32.5183 19.0679 32.9545 18.9677 32.8609 19.0358C32.7674 19.104 32.3684 19.628 32.8912 19.2938C33.414 18.9597 34.0069 18.5773 34.322 18.5773C34.637 18.5773 33.07 19.4329 32.495 19.7978C31.5924 20.3699 30.7904 20.8779 30.2758 21.2294C29.8452 21.5262 29.3995 21.8256 29.3045 21.7641C29.134 21.6411 29.7407 21.1586 29.8136 21.0476C29.9319 20.8739 29.1601 21.3577 29.3389 21.1746C29.9059 20.6298 30.503 20.1153 31.1274 19.6334C31.5636 19.3112 31.8332 19.1214 31.825 18.9851C31.8167 18.8487 31.3765 19.0706 30.9059 19.3206C27.4885 21.1345 26.3067 24.9816 24.7645 28.1671L25.191 28.1363C24.825 28.8956 24.3587 29.568 24.2885 30.39C24.4632 30.2671 24.5636 30.0973 24.7686 30.0345C24.8512 30.3018 24.6943 30.5464 24.6311 30.8004C24.6517 30.8004 24.6696 30.8138 24.6875 30.8178C24.792 30.5505 24.8966 30.2751 24.997 30.0158C25.0837 30.0238 25.1539 30.0278 25.2405 30.0372C24.953 32.065 24.7301 34.0768 24.1647 36.0631L24.1908 36.0377C23.7024 37.4988 24.3422 38.9438 24.1509 40.4984H24.0945C23.9569 39.7351 23.6818 38.9906 23.8496 38.1899C23.8235 38.2233 23.7973 38.2567 23.7327 38.3342C23.7107 38.1177 23.6845 37.9145 23.6625 37.7194C23.646 37.571 23.4451 37.571 23.4575 37.702C23.5318 38.516 23.3365 39.3167 23.5951 40.1415C23.6295 40.0279 23.6598 39.9089 23.6777 39.8541C23.9432 41.0786 24.6187 44.022 24.4357 43.6491C24.2527 43.2761 24.144 42.7508 23.9955 42.3017C24.1826 43.8991 24.7714 45.4069 25.3712 46.8933C25.3231 46.8933 25.1882 46.7877 25.0837 46.5498C25.0218 46.4054 24.8649 46.4161 24.8911 46.499C25.0494 46.8868 25.2299 47.2657 25.4318 47.6339C25.3492 47.3799 25.2584 47.0751 25.2846 47.0324C25.6546 47.4561 26.0509 48.2902 26.2999 48.7354C26.5489 49.1805 27.428 50.7004 26.8502 49.905C26.2724 49.1097 25.0232 47.4989 24.4261 46.1314C24.2472 45.7304 24.1427 45.1275 24.056 45.1222C23.9693 45.1168 23.9858 45.3053 23.9734 45.3721C23.917 45.296 23.9074 44.9243 23.8359 44.9497C23.7148 44.9912 24.1853 46.63 24.0464 46.4054C23.9074 46.1809 23.6529 45.1569 23.5965 44.8522C23.6446 45.5085 23.8414 46.106 23.8235 46.2664C23.2567 45.3935 23.5139 44.4538 23.5139 43.9873C23.5204 44.2538 23.5735 44.5173 23.6708 44.7666C23.6006 44.2586 23.7052 43.7213 23.6845 43.5635C23.6639 43.4058 23.4396 43.5341 23.4534 43.7213C23.4094 43.6237 23.3956 43.4539 23.3392 43.4673C23.2828 43.4807 23.2869 43.6571 23.2787 43.7681C23.2484 43.7253 23.2443 43.6491 23.2085 43.6745C23.1727 43.6999 23.1961 44.145 23.0874 44.0755C23.0255 44.0408 23.0874 43.6745 23.0874 43.343C23.0874 43.0422 23.0476 42.7829 22.987 42.8083C22.8563 42.8511 22.965 43.0035 22.9251 43.4686C22.8907 43.8924 22.5124 43.2788 22.5468 43.5582C22.5592 43.6598 22.4463 43.99 22.533 44.3749C22.6197 44.7599 22.5151 45.3414 22.6156 45.2358C22.716 45.1302 22.6775 45.066 22.7531 45.0112C22.7738 45.0406 22.7614 45.1289 22.8178 45.0995C22.8742 45.07 22.8618 44.9471 22.8921 44.8415C24.5623 54.3911 33.7043 58.7756 42.4473 61.3795L42.2822 61.4517C52.9127 63.4421 63.8239 55.1691 66.7048 45.6622C66.7791 45.4122 66.9538 44.4431 67.0708 43.744C66.6828 44.9979 66.4131 44.9631 66.4214 44.8749C66.526 44.0367 66.6443 43.4646 66.8616 43.0743C67.4849 42.1266 67.101 39.7071 66.9098 39.5854C66.7612 39.4919 66.7048 39.7031 66.6924 39.7031C66.7089 39.5132 66.7612 38.8823 66.614 39.1871C66.4998 39.4117 66.8892 44.9845 64.9397 47.3692C64.8613 45.8614 65.6977 44.4177 66.1517 42.958L66.116 42.946C65.999 43.1278 65.8849 43.3149 65.7597 43.5181C65.7459 43.4579 65.7335 43.4165 65.7239 43.3777C65.567 43.4673 65.5863 43.7213 65.34 43.7333C65.3978 43.4245 65.4542 43.1318 65.5065 42.8404C64.2518 45.062 63.8157 47.8772 62.1207 49.9277C61.8277 50.2793 62.3519 49.0629 62.6559 48.2461C62.9311 47.5256 62.8788 47.2035 62.3684 48.1058C61.7713 49.1645 60.6638 50.4611 59.7544 51.2832C56.5296 54.1879 52.7889 56.7972 48.1856 56.9536V56.983H48.5983C45.3295 57.3519 41.5324 57.0632 38.4988 55.6997C38.5034 55.6895 38.5089 55.6796 38.5153 55.6703C38.9432 55.8187 39.8498 56.2839 39.8154 56.0647C39.8017 55.9711 38.6556 55.6276 37.4518 55.0822C35.8092 54.3323 33.9601 53.3244 33.8391 53.2268C33.6245 53.057 34.0564 53.4941 34.0386 53.5062C31.7163 51.9475 30.108 49.4398 28.8739 46.8987C28.6868 46.5177 28.3732 46.2383 28.186 45.8106C28.0553 45.5058 27.9893 44.9377 28.0251 44.8869C28.1737 44.6503 27.8118 44.4124 27.838 44.7947C27.9372 45.3297 28.0752 45.8572 28.2507 46.3734C28.3195 46.5645 28.0884 46.1755 28.0017 45.9456C27.4184 44.4257 27.3661 44.1544 27.2395 43.609C27.2395 45.1543 28.4241 47.6018 28.6084 48.0296C28.3553 47.8611 27.9893 47.3732 27.8187 46.8773C27.9893 47.4628 28.1682 47.9467 28.1544 48.1405C27.2918 46.6447 26.6067 43.4178 26.3975 43.4178C26.1884 43.4178 26.3975 43.9298 26.4196 44.1718C25.9188 43.4392 25.5941 41.1173 25.7826 40.5252C25.9202 37.8731 26.3453 35.1595 27.3042 32.6598C27.3023 32.6546 27.3023 32.649 27.3042 32.6438C27.3042 32.6264 27.3179 32.609 27.3221 32.593C28.1475 30.4703 29.3444 28.5053 31.071 26.8785C31.0573 26.8704 31.0449 26.8584 31.0311 26.849C30.7271 27.1164 30.4258 27.3704 30.1204 27.6284C30.4877 26.4814 31.7644 25.8879 32.2349 24.8774L32.1744 24.8386C32.4275 24.61 32.6793 24.3881 32.9765 24.1261C32.4619 24.3547 32.2088 24.88 31.6296 24.9135C33.1113 23.2826 35.2933 21.8898 36.9346 20.9447C36.7818 21.0343 36.797 21.3217 37.0955 21.4232C37.3707 21.5168 37.5839 21.0222 37.9457 20.8886C40.1951 20.0157 42.6234 20.1226 44.8452 20.537C42.4569 19.7069 39.3972 19.9609 38.7341 20.1133C39.4536 19.7657 40.5088 19.8085 40.9147 19.7871C47.8224 19.4409 54.3876 23.8361 58.3938 29.1723C58.6153 29.469 59.0817 30.1762 59.2564 30.6975C59.3307 30.9181 59.7448 31.6252 59.8893 31.5236C60.0337 31.422 59.8012 30.8552 59.5095 30.5197C59.1078 30.0585 58.8684 29.4944 58.3718 28.6269C58.834 29.1616 59.1972 29.5746 59.588 30.0331C58.6813 28.4999 56.4058 26.2796 56.1664 25.6487C57.4734 26.5764 58.4722 27.7794 59.3045 29.0881C60.0502 30.2657 60.8041 31.8204 61.2623 32.7601C61.2924 32.832 61.3288 32.9013 61.371 32.9673C61.3311 32.8336 60.6913 31.3792 60.6831 31.3792C60.2951 30.1855 59.6155 29.0547 59.0445 27.8944C59.4146 28.2032 59.3665 28.2072 59.4765 28.1096C59.5866 28.012 58.8615 27.1445 58.7267 26.5804C59.1972 27.2928 59.6678 28.008 60.1644 28.7659C60.0516 28.4986 59.9594 28.266 59.8645 28.0374L59.903 28.0214C60.4918 28.7285 61.0752 29.4356 61.6599 30.1428C61.1192 29.0506 60.2208 28.1564 59.6856 27.0977C59.72 27.0803 59.7503 27.0683 59.7806 27.0509C60.2827 27.8529 61.3847 28.8635 61.6296 29.1723C61.8745 29.4811 61.1109 28.1858 61.4287 28.5413C61.7465 28.8969 62.2349 29.5746 62.3395 29.723C62.4441 29.8714 62.5266 29.8754 62.3918 29.6856C62.2569 29.4958 61.3627 28.2499 60.8495 27.5294L60.9018 27.492C62.2171 29.1562 63.469 30.9047 64.2037 32.8871C63.4277 29.8928 61.177 27.5214 59.3568 25.0565C60.2813 25.7676 60.9169 26.7207 61.6956 27.5508C61.7109 27.5386 61.727 27.5275 61.7438 27.5174C61.6351 27.3222 61.5264 27.1164 61.4177 26.9279C63.1471 28.389 64.3206 32.4767 64.4334 32.7427C64.5462 33.0087 64.355 32.188 64.2243 31.6292C64.0936 31.0704 64.3165 31.2282 64.311 31.6118C64.3055 31.9955 64.9136 33.125 64.5559 33.7212C64.5256 33.6744 64.4995 33.629 64.4472 33.5394C64.7388 34.3989 64.6301 35.2892 64.9741 36.0792C65.1392 37.4052 65.0484 38.7299 64.9741 40.0479H65.0181C65.0704 39.6469 65.1268 39.2339 65.1791 38.8315H65.2355V39.302C65.3139 38.5775 65.1832 37.7862 65.4529 37.1205C65.501 37.5068 65.5492 37.8918 65.6014 38.2728C65.6323 38.272 65.6631 38.2693 65.6936 38.2647C65.8546 36.646 65.6757 35.0365 65.5051 33.4271C65.5313 33.4271 65.5533 33.4271 65.5753 33.4191C65.6097 33.6396 65.6455 33.8549 65.684 34.1222C65.728 34.0206 65.75 33.9658 65.7803 33.8976C65.9812 34.4149 66.0554 34.967 66.4035 35.4055C66.299 34.812 66.4434 34.2452 66.4475 33.6517C66.7227 34.3334 66.852 35.6381 66.9098 35.757C66.9676 35.876 66.9703 35.6635 66.9524 35.6234C67.1451 36.1728 67.284 37.8129 67.2923 37.5589C67.3096 37.0259 67.2908 36.4922 67.2359 35.9615C67.3545 36.3275 67.4429 36.7021 67.5 37.0817ZM61.5581 52.3753C61.2045 52.6293 61.166 52.6333 61.6021 52.1079C62.0382 51.5826 62.9916 50.1028 63.3534 49.4692C63.7153 48.8356 63.2888 50.2485 63.6203 49.6684C63.9519 49.0883 64.1775 48.8169 64.5614 47.424C64.5958 47.8651 64.1252 49.647 63.524 50.6509C62.9228 51.6548 61.763 52.8405 61.3228 53.3324C60.8826 53.8243 62.1249 52.2229 62.5789 51.6762C62.9057 51.2947 63.1795 50.8731 63.3933 50.4223C62.9352 51.0452 61.9061 52.1213 61.5581 52.3753ZM29.1271 49.135C29.6774 50.6055 31.9832 52.8498 33.0934 53.4219C31.2678 52.6587 29.7448 51.612 29.4903 51.1241C29.3266 50.8113 29.5921 50.8715 29.8287 51.1428C30.0347 51.4046 30.293 51.6233 30.5881 51.7858C29.665 50.6295 29.2536 49.8743 29.1271 49.135ZM36.3375 18.0908C35.7872 18.2565 35.3001 18.4036 35.9357 18.0694C36.5067 17.7726 37.771 17.3369 37.9994 17.5695C38.2278 17.802 36.8823 17.9264 36.3375 18.0908ZM55.1635 23.7866C56.2792 23.9818 56.4581 25.2182 56.8337 25.5618C56.1362 24.9348 55.4331 24.2397 55.1635 23.7866ZM58.5726 25.4121C58.421 25.2748 58.3094 25.1009 58.2493 24.9081C58.4813 25.1231 58.6969 25.354 58.8946 25.5992C58.9647 25.6794 58.7983 25.6005 58.5726 25.4121Z" fill="#BE1622"/>
<path d="M92.868 44.144C92.424 44.144 91.932 44.132 91.392 44.108C90.864 44.084 90.342 44.048 89.826 44C89.322 43.964 88.86 43.922 88.44 43.874V42.2C88.872 42.236 89.322 42.272 89.79 42.308C90.27 42.344 90.726 42.374 91.158 42.398C91.59 42.41 91.962 42.416 92.274 42.416C92.91 42.416 93.408 42.386 93.768 42.326C94.128 42.266 94.416 42.17 94.632 42.038C94.776 41.942 94.878 41.822 94.938 41.678C95.01 41.534 95.052 41.366 95.064 41.174C95.088 40.97 95.1 40.748 95.1 40.508C95.1 40.184 95.088 39.914 95.064 39.698C95.04 39.482 94.986 39.314 94.902 39.194C94.818 39.074 94.686 38.99 94.506 38.942C94.326 38.882 94.092 38.834 93.804 38.798L90.852 38.456C90.276 38.384 89.802 38.264 89.43 38.096C89.07 37.916 88.788 37.682 88.584 37.394C88.392 37.106 88.26 36.764 88.188 36.368C88.116 35.972 88.08 35.534 88.08 35.054C88.08 34.25 88.188 33.614 88.404 33.146C88.62 32.678 88.926 32.324 89.322 32.084C89.73 31.832 90.21 31.67 90.762 31.598C91.314 31.514 91.926 31.472 92.598 31.472C93.066 31.472 93.546 31.49 94.038 31.526C94.53 31.55 94.992 31.586 95.424 31.634C95.868 31.67 96.234 31.724 96.522 31.796V33.434C96.222 33.386 95.868 33.344 95.46 33.308C95.064 33.272 94.65 33.248 94.218 33.236C93.786 33.212 93.384 33.2 93.012 33.2C92.388 33.2 91.884 33.23 91.5 33.29C91.128 33.338 90.84 33.422 90.636 33.542C90.396 33.674 90.252 33.86 90.204 34.1C90.156 34.328 90.132 34.616 90.132 34.964C90.132 35.372 90.156 35.69 90.204 35.918C90.264 36.134 90.39 36.284 90.582 36.368C90.786 36.452 91.092 36.518 91.5 36.566L94.452 36.908C94.824 36.944 95.16 37.004 95.46 37.088C95.76 37.16 96.024 37.286 96.252 37.466C96.492 37.646 96.678 37.904 96.81 38.24C96.894 38.408 96.954 38.6 96.99 38.816C97.038 39.032 97.074 39.272 97.098 39.536C97.134 39.788 97.152 40.076 97.152 40.4C97.152 41.084 97.08 41.654 96.936 42.11C96.804 42.566 96.612 42.932 96.36 43.208C96.12 43.472 95.82 43.676 95.46 43.82C95.1 43.952 94.704 44.036 94.272 44.072C93.84 44.12 93.372 44.144 92.868 44.144ZM99.8884 44V31.616H101.922V42.218H107.412V44H99.8884ZM114.326 44.144C113.342 44.144 112.532 44.09 111.896 43.982C111.26 43.862 110.756 43.664 110.384 43.388C110.012 43.112 109.742 42.734 109.574 42.254C109.406 41.774 109.298 41.174 109.25 40.454C109.202 39.722 109.178 38.84 109.178 37.808C109.178 36.776 109.202 35.9 109.25 35.18C109.298 34.448 109.406 33.842 109.574 33.362C109.742 32.882 110.012 32.504 110.384 32.228C110.756 31.952 111.26 31.76 111.896 31.652C112.532 31.532 113.342 31.472 114.326 31.472C115.31 31.472 116.12 31.532 116.756 31.652C117.404 31.76 117.914 31.952 118.286 32.228C118.658 32.504 118.928 32.882 119.096 33.362C119.276 33.842 119.39 34.448 119.438 35.18C119.486 35.9 119.51 36.776 119.51 37.808C119.51 38.84 119.486 39.722 119.438 40.454C119.39 41.174 119.276 41.774 119.096 42.254C118.928 42.734 118.658 43.112 118.286 43.388C117.914 43.664 117.404 43.862 116.756 43.982C116.12 44.09 115.31 44.144 114.326 44.144ZM114.326 42.416C114.926 42.416 115.418 42.398 115.802 42.362C116.198 42.326 116.504 42.236 116.72 42.092C116.948 41.948 117.116 41.714 117.224 41.39C117.332 41.054 117.398 40.604 117.422 40.04C117.458 39.464 117.476 38.72 117.476 37.808C117.476 36.896 117.458 36.158 117.422 35.594C117.398 35.018 117.332 34.568 117.224 34.244C117.116 33.908 116.948 33.668 116.72 33.524C116.504 33.38 116.198 33.29 115.802 33.254C115.418 33.218 114.926 33.2 114.326 33.2C113.738 33.2 113.252 33.218 112.868 33.254C112.484 33.29 112.178 33.38 111.95 33.524C111.722 33.668 111.554 33.908 111.446 34.244C111.35 34.568 111.284 35.018 111.248 35.594C111.224 36.158 111.212 36.896 111.212 37.808C111.212 38.72 111.224 39.464 111.248 40.04C111.284 40.604 111.35 41.054 111.446 41.39C111.554 41.714 111.722 41.948 111.95 42.092C112.178 42.236 112.484 42.326 112.868 42.362C113.252 42.398 113.738 42.416 114.326 42.416ZM124.962 44V33.398H121.2V31.616H130.74V33.398H126.996V44H124.962ZM132.847 44V31.616H135.619L139.255 40.616H139.345L142.981 31.616H145.753V44H143.791V34.766H143.719L139.975 44H138.535L134.827 34.766H134.755V44H132.847ZM149.072 44V31.616H151.106V44H149.072ZM154.398 44V31.616H156.432V42.218H161.922V44H154.398ZM164.101 44V31.616H166.135V42.218H171.625V44H164.101Z" fill="#3A3A3A"/>
</svg>
