<svg width="188" height="76" viewBox="0 0 188 76" fill="none" xmlns="http://www.w3.org/2000/svg">
<path d="M48.8579 57.3078H47.6602V56.8291H50.5412V57.3078H49.3434V60.4993H48.8579V57.3078Z" fill="#BA141A"/>
<path d="M51.0586 56.8613H51.8031L52.9685 59.606H53.0008L54.1662 56.8613H54.9107V60.4996H54.4252V57.4996L53.1951 60.4996H52.8714L51.6089 57.4996V60.4996H51.0586V56.8613Z" fill="#BA141A"/>
<path d="M35.9096 54.9791C33.32 52.1705 33.6113 48.7557 33.6437 48.5961L33.7084 47.9897L34.3235 48.1493C34.3882 48.1493 40.5386 49.745 43.5815 47.0642C46.5272 44.4471 47.6279 38.3833 43.8405 32.2557C40.2473 26.4471 31.5396 20.3833 29.8563 19.2344C28.1406 20.3833 19.4652 26.4471 15.8721 32.2557C12.0847 38.3833 13.1529 44.4471 16.131 47.0642C19.1739 49.745 25.3244 48.1493 25.3891 48.1493L26.0042 47.9897L26.0689 48.5961C26.0689 48.7557 26.3602 52.1705 23.7706 54.9791C21.6341 57.2769 18.2675 58.4259 13.7032 58.4259V60.4684C18.8826 60.4684 22.7671 59.0642 25.3244 56.3514C28.3348 53.0961 28.2377 49.8088 28.173 48.4046C28.1406 47.0322 27.8493 45.3727 27.8493 45.3727L24.8712 46.1386C23.544 46.4897 19.3681 47.0961 17.523 45.5003C15.1923 43.4578 14.4478 38.4791 17.6525 33.3088C20.5335 28.6812 26.9753 23.7663 29.8886 21.7237C32.7697 23.7663 39.2438 28.6812 42.1248 33.3088C45.3295 38.4791 44.585 43.4578 42.2543 45.5003C40.4415 47.0961 36.2333 46.4897 34.9061 46.1386L31.928 45.3727C31.928 45.3727 31.669 47.0322 31.6043 48.4046C31.5396 49.7769 31.4424 53.0961 34.4529 56.3514C36.9779 59.0961 40.8947 60.4684 46.0741 60.4684V58.4259C41.4127 58.4259 38.0137 57.2769 35.9096 54.9791Z" fill="#BA141A"/>
<path d="M45.6203 49.3617C49.6019 45.8511 51.1881 38.2872 46.462 30.6596C42.0919 23.6383 31.6685 16.7766 31.2153 16.4574L29.7586 15.5L28.3019 16.4574C27.8487 16.7447 17.4253 23.6383 13.0553 30.6596C8.39388 38.2872 9.94768 45.8511 13.9293 49.3617C16.3247 51.4681 19.5942 51.8191 22.1515 51.7234C21.9249 52.1383 21.6659 52.5532 21.2775 52.9362C19.756 54.5319 17.1664 55.3298 13.5732 55.3298V57.3723C17.8138 57.3723 20.9538 56.3191 22.8636 54.2447C24.5469 52.4255 24.8383 50.2872 24.903 49.266C23.1226 49.617 18.2022 50.3511 15.3212 47.7979C11.987 44.8617 10.7569 38.383 14.868 31.7128C19.0115 25.1064 29.0788 18.4681 29.4997 18.1809L29.791 17.9894L30.0823 18.1809C30.5031 18.4681 40.5705 25.0745 44.6816 31.7447C48.825 38.4149 47.5949 44.8936 44.2284 47.8298C41.3474 50.3511 36.427 49.6489 34.6466 49.2979C34.679 50.3191 35.0027 52.4894 36.686 54.2766C38.5959 56.3511 41.7358 57.4043 45.9764 57.4043V55.3617C42.3832 55.3617 39.7612 54.5638 38.2721 52.9681C37.8837 52.5851 37.6247 52.1702 37.3981 51.7553C39.9554 51.8191 43.2573 51.4681 45.6203 49.3617Z" fill="#BA141A"/>
<path d="M64.868 44.144C64.424 44.144 63.932 44.132 63.392 44.108C62.864 44.084 62.342 44.048 61.826 44C61.322 43.964 60.86 43.922 60.44 43.874V42.2C60.872 42.236 61.322 42.272 61.79 42.308C62.27 42.344 62.726 42.374 63.158 42.398C63.59 42.41 63.962 42.416 64.274 42.416C64.91 42.416 65.408 42.386 65.768 42.326C66.128 42.266 66.416 42.17 66.632 42.038C66.776 41.942 66.878 41.822 66.938 41.678C67.01 41.534 67.052 41.366 67.064 41.174C67.088 40.97 67.1 40.748 67.1 40.508C67.1 40.184 67.088 39.914 67.064 39.698C67.04 39.482 66.986 39.314 66.902 39.194C66.818 39.074 66.686 38.99 66.506 38.942C66.326 38.882 66.092 38.834 65.804 38.798L62.852 38.456C62.276 38.384 61.802 38.264 61.43 38.096C61.07 37.916 60.788 37.682 60.584 37.394C60.392 37.106 60.26 36.764 60.188 36.368C60.116 35.972 60.08 35.534 60.08 35.054C60.08 34.25 60.188 33.614 60.404 33.146C60.62 32.678 60.926 32.324 61.322 32.084C61.73 31.832 62.21 31.67 62.762 31.598C63.314 31.514 63.926 31.472 64.598 31.472C65.066 31.472 65.546 31.49 66.038 31.526C66.53 31.55 66.992 31.586 67.424 31.634C67.868 31.67 68.234 31.724 68.522 31.796V33.434C68.222 33.386 67.868 33.344 67.46 33.308C67.064 33.272 66.65 33.248 66.218 33.236C65.786 33.212 65.384 33.2 65.012 33.2C64.388 33.2 63.884 33.23 63.5 33.29C63.128 33.338 62.84 33.422 62.636 33.542C62.396 33.674 62.252 33.86 62.204 34.1C62.156 34.328 62.132 34.616 62.132 34.964C62.132 35.372 62.156 35.69 62.204 35.918C62.264 36.134 62.39 36.284 62.582 36.368C62.786 36.452 63.092 36.518 63.5 36.566L66.452 36.908C66.824 36.944 67.16 37.004 67.46 37.088C67.76 37.16 68.024 37.286 68.252 37.466C68.492 37.646 68.678 37.904 68.81 38.24C68.894 38.408 68.954 38.6 68.99 38.816C69.038 39.032 69.074 39.272 69.098 39.536C69.134 39.788 69.152 40.076 69.152 40.4C69.152 41.084 69.08 41.654 68.936 42.11C68.804 42.566 68.612 42.932 68.36 43.208C68.12 43.472 67.82 43.676 67.46 43.82C67.1 43.952 66.704 44.036 66.272 44.072C65.84 44.12 65.372 44.144 64.868 44.144ZM71.8884 44V31.616H77.4324C78.2124 31.616 78.8424 31.712 79.3224 31.904C79.8024 32.096 80.1684 32.372 80.4204 32.732C80.6844 33.08 80.8584 33.5 80.9424 33.992C81.0384 34.484 81.0864 35.03 81.0864 35.63C81.0864 36.194 81.0444 36.722 80.9604 37.214C80.8764 37.694 80.7024 38.12 80.4384 38.492C80.1864 38.852 79.8144 39.134 79.3224 39.338C78.8304 39.542 78.1824 39.644 77.3784 39.644H73.9224V44H71.8884ZM73.9224 37.916H76.6044C77.1684 37.916 77.6184 37.88 77.9544 37.808C78.2904 37.736 78.5304 37.61 78.6744 37.43C78.8304 37.25 78.9324 37.016 78.9804 36.728C79.0284 36.44 79.0524 36.074 79.0524 35.63C79.0524 35.186 79.0284 34.82 78.9804 34.532C78.9444 34.232 78.8484 33.998 78.6924 33.83C78.5484 33.65 78.3144 33.524 77.9904 33.452C77.6664 33.38 77.2224 33.344 76.6584 33.344H73.9224V37.916ZM81.6675 44L86.0955 31.616H88.7595L93.1875 44H91.0815L90.0015 40.94H84.7815L83.7195 44H81.6675ZM85.3575 39.212H89.4075L87.4275 33.578H87.3375L85.3575 39.212ZM95.2322 44V31.616H99.2822C100.326 31.616 101.178 31.67 101.838 31.778C102.51 31.874 103.038 32.054 103.422 32.318C103.806 32.582 104.082 32.948 104.25 33.416C104.43 33.884 104.544 34.478 104.592 35.198C104.64 35.918 104.664 36.788 104.664 37.808C104.664 38.828 104.64 39.698 104.592 40.418C104.544 41.138 104.43 41.732 104.25 42.2C104.082 42.668 103.806 43.034 103.422 43.298C103.038 43.562 102.51 43.748 101.838 43.856C101.178 43.952 100.326 44 99.2822 44H95.2322ZM97.2662 42.272H99.1022C99.7742 42.272 100.326 42.26 100.758 42.236C101.202 42.2 101.55 42.116 101.802 41.984C102.054 41.84 102.24 41.612 102.36 41.3C102.48 40.988 102.552 40.55 102.576 39.986C102.612 39.41 102.63 38.684 102.63 37.808C102.63 36.932 102.612 36.212 102.576 35.648C102.552 35.084 102.474 34.646 102.342 34.334C102.222 34.01 102.03 33.782 101.766 33.65C101.514 33.506 101.172 33.422 100.74 33.398C100.308 33.362 99.7622 33.344 99.1022 33.344H97.2662V42.272ZM107.572 44V31.616H115.816V33.344H109.606V36.89H114.97V38.618H109.606V42.272H115.816V44H107.572ZM123.42 44.144C122.532 44.144 121.776 44.09 121.152 43.982C120.54 43.862 120.03 43.664 119.622 43.388C119.214 43.112 118.896 42.734 118.668 42.254C118.452 41.774 118.296 41.174 118.2 40.454C118.116 39.722 118.074 38.84 118.074 37.808C118.074 36.776 118.116 35.9 118.2 35.18C118.296 34.448 118.458 33.842 118.686 33.362C118.914 32.882 119.232 32.504 119.64 32.228C120.048 31.952 120.558 31.76 121.17 31.652C121.794 31.532 122.544 31.472 123.42 31.472C123.816 31.472 124.248 31.49 124.716 31.526C125.196 31.562 125.67 31.61 126.138 31.67C126.606 31.718 127.032 31.778 127.416 31.85V33.47C127.008 33.41 126.606 33.362 126.21 33.326C125.814 33.29 125.448 33.26 125.112 33.236C124.788 33.212 124.518 33.2 124.302 33.2C123.582 33.2 122.976 33.218 122.484 33.254C121.992 33.278 121.59 33.362 121.278 33.506C120.966 33.65 120.726 33.89 120.558 34.226C120.39 34.55 120.27 35 120.198 35.576C120.138 36.152 120.108 36.896 120.108 37.808C120.108 38.612 120.126 39.29 120.162 39.842C120.21 40.382 120.3 40.832 120.432 41.192C120.576 41.54 120.768 41.804 121.008 41.984C121.26 42.164 121.584 42.29 121.98 42.362C122.388 42.434 122.886 42.47 123.474 42.47C123.702 42.47 123.942 42.464 124.194 42.452C124.458 42.44 124.704 42.428 124.932 42.416C125.16 42.392 125.352 42.368 125.508 42.344V38.834H123.078V37.142H127.47V43.766C127.062 43.838 126.612 43.904 126.12 43.964C125.64 44.012 125.166 44.054 124.698 44.09C124.23 44.126 123.804 44.144 123.42 44.144ZM129.322 44L133.75 31.616H136.414L140.842 44H138.736L137.656 40.94H132.436L131.374 44H129.322ZM133.012 39.212H137.062L135.082 33.578H134.992L133.012 39.212ZM142.886 44V31.616H145.658L149.294 40.616H149.384L153.02 31.616H155.792V44H153.83V34.766H153.758L150.014 44H148.574L144.866 34.766H144.794V44H142.886ZM159.111 44V31.616H161.145V44H159.111ZM164.437 44V31.616H166.543L172.213 40.184H172.285V31.616H174.229V44H172.285L166.453 35.162H166.381V44H164.437ZM182.465 44.144C181.577 44.144 180.821 44.09 180.197 43.982C179.585 43.862 179.075 43.664 178.667 43.388C178.259 43.112 177.941 42.734 177.713 42.254C177.497 41.774 177.341 41.174 177.245 40.454C177.161 39.722 177.119 38.84 177.119 37.808C177.119 36.776 177.161 35.9 177.245 35.18C177.341 34.448 177.503 33.842 177.731 33.362C177.959 32.882 178.277 32.504 178.685 32.228C179.093 31.952 179.603 31.76 180.215 31.652C180.839 31.532 181.589 31.472 182.465 31.472C182.861 31.472 183.293 31.49 183.761 31.526C184.241 31.562 184.715 31.61 185.183 31.67C185.651 31.718 186.077 31.778 186.461 31.85V33.47C186.053 33.41 185.651 33.362 185.255 33.326C184.859 33.29 184.493 33.26 184.157 33.236C183.833 33.212 183.563 33.2 183.347 33.2C182.627 33.2 182.021 33.218 181.529 33.254C181.037 33.278 180.635 33.362 180.323 33.506C180.011 33.65 179.771 33.89 179.603 34.226C179.435 34.55 179.315 35 179.243 35.576C179.183 36.152 179.153 36.896 179.153 37.808C179.153 38.612 179.171 39.29 179.207 39.842C179.255 40.382 179.345 40.832 179.477 41.192C179.621 41.54 179.813 41.804 180.053 41.984C180.305 42.164 180.629 42.29 181.025 42.362C181.433 42.434 181.931 42.47 182.519 42.47C182.747 42.47 182.987 42.464 183.239 42.452C183.503 42.44 183.749 42.428 183.977 42.416C184.205 42.392 184.397 42.368 184.553 42.344V38.834H182.123V37.142H186.515V43.766C186.107 43.838 185.657 43.904 185.165 43.964C184.685 44.012 184.211 44.054 183.743 44.09C183.275 44.126 182.849 44.144 182.465 44.144Z" fill="#3A3A3A"/>
</svg>
