<svg width="188" height="76" viewBox="0 0 188 76" fill="none" xmlns="http://www.w3.org/2000/svg">
<path d="M40.636 14.4665L56.9886 56.5896L49.5387 64.0485H31.7622L24.1827 56.5896L40.636 14.4665ZM40.636 10.5L22.5 56.9633L31.1725 65.5H50.1427L58.6714 56.9489L40.636 10.5Z" fill="#BE0000"/>
<path d="M39.4416 46.1415C36.9822 44.5462 29.2014 48.1679 29.2014 48.1679L26.1523 55.9141L29.8054 59.5789C30.7115 58.7454 43.3104 48.6709 39.4416 46.1415Z" fill="#BE0000"/>
<path d="M41.3693 19.9995C41.3693 19.9995 39.4277 25.8918 37.6587 31.1519C35.1849 38.4526 35.9328 40.5221 39.2695 39.4874C44.0588 38.0214 47.4961 35.6071 48.618 40.982C49.8117 47.1905 44.0876 53.1259 39.1689 57.5381C37.0258 59.4494 34.5521 61.2746 33.042 62.3812H48.9632L55.3201 55.8853L41.3693 19.9995Z" fill="#BE0000"/>
<path d="M87.216 43.628C86.8213 43.628 86.384 43.6173 85.904 43.596C85.4347 43.5747 84.9707 43.5427 84.512 43.5C84.064 43.468 83.6533 43.4307 83.28 43.388V41.9C83.664 41.932 84.064 41.964 84.48 41.996C84.9067 42.028 85.312 42.0547 85.696 42.076C86.08 42.0867 86.4107 42.092 86.688 42.092C87.2533 42.092 87.696 42.0653 88.016 42.012C88.336 41.9587 88.592 41.8733 88.784 41.756C88.912 41.6707 89.0027 41.564 89.056 41.436C89.12 41.308 89.1573 41.1587 89.168 40.988C89.1893 40.8067 89.2 40.6093 89.2 40.396C89.2 40.108 89.1893 39.868 89.168 39.676C89.1467 39.484 89.0987 39.3347 89.024 39.228C88.9493 39.1213 88.832 39.0467 88.672 39.004C88.512 38.9507 88.304 38.908 88.048 38.876L85.424 38.572C84.912 38.508 84.4907 38.4013 84.16 38.252C83.84 38.092 83.5893 37.884 83.408 37.628C83.2373 37.372 83.12 37.068 83.056 36.716C82.992 36.364 82.96 35.9747 82.96 35.548C82.96 34.8333 83.056 34.268 83.248 33.852C83.44 33.436 83.712 33.1213 84.064 32.908C84.4267 32.684 84.8533 32.54 85.344 32.476C85.8347 32.4013 86.3787 32.364 86.976 32.364C87.392 32.364 87.8187 32.38 88.256 32.412C88.6933 32.4333 89.104 32.4653 89.488 32.508C89.8827 32.54 90.208 32.588 90.464 32.652V34.108C90.1973 34.0653 89.8827 34.028 89.52 33.996C89.168 33.964 88.8 33.9427 88.416 33.932C88.032 33.9107 87.6747 33.9 87.344 33.9C86.7893 33.9 86.3413 33.9267 86 33.98C85.6693 34.0227 85.4133 34.0973 85.232 34.204C85.0187 34.3213 84.8907 34.4867 84.848 34.7C84.8053 34.9027 84.784 35.1587 84.784 35.468C84.784 35.8307 84.8053 36.1133 84.848 36.316C84.9013 36.508 85.0133 36.6413 85.184 36.716C85.3653 36.7907 85.6373 36.8493 86 36.892L88.624 37.196C88.9547 37.228 89.2533 37.2813 89.52 37.356C89.7867 37.42 90.0213 37.532 90.224 37.692C90.4373 37.852 90.6027 38.0813 90.72 38.38C90.7947 38.5293 90.848 38.7 90.88 38.892C90.9227 39.084 90.9547 39.2973 90.976 39.532C91.008 39.756 91.024 40.012 91.024 40.3C91.024 40.908 90.96 41.4147 90.832 41.82C90.7147 42.2253 90.544 42.5507 90.32 42.796C90.1067 43.0307 89.84 43.212 89.52 43.34C89.2 43.4573 88.848 43.532 88.464 43.564C88.08 43.6067 87.664 43.628 87.216 43.628ZM93.4564 43.5V32.492H98.3844C99.0777 32.492 99.6377 32.5773 100.064 32.748C100.491 32.9187 100.816 33.164 101.04 33.484C101.275 33.7933 101.43 34.1667 101.504 34.604C101.59 35.0413 101.632 35.5267 101.632 36.06C101.632 36.5613 101.595 37.0307 101.52 37.468C101.446 37.8947 101.291 38.2733 101.056 38.604C100.832 38.924 100.502 39.1747 100.064 39.356C99.627 39.5373 99.051 39.628 98.3364 39.628H95.2644V43.5H93.4564ZM95.2644 38.092H97.6484C98.1497 38.092 98.5497 38.06 98.8484 37.996C99.147 37.932 99.3604 37.82 99.4884 37.66C99.627 37.5 99.7177 37.292 99.7604 37.036C99.803 36.78 99.8244 36.4547 99.8244 36.06C99.8244 35.6653 99.803 35.34 99.7604 35.084C99.7284 34.8173 99.643 34.6093 99.5044 34.46C99.3764 34.3 99.1684 34.188 98.8804 34.124C98.5924 34.06 98.1977 34.028 97.6964 34.028H95.2644V38.092ZM103.863 43.5V32.492H111.191V34.028H105.671V37.18H110.439V38.716H105.671V41.964H111.191V43.5H103.863ZM112.446 43.5L116.382 32.492H118.75L122.686 43.5H120.814L119.854 40.78H115.214L114.27 43.5H112.446ZM115.726 39.244H119.326L117.566 34.236H117.486L115.726 39.244ZM124.503 43.5V32.492H129.639C130.333 32.492 130.893 32.572 131.319 32.732C131.746 32.892 132.066 33.1267 132.279 33.436C132.493 33.7347 132.637 34.0973 132.711 34.524C132.786 34.94 132.823 35.3987 132.823 35.9C132.823 36.2627 132.786 36.6627 132.711 37.1C132.647 37.5267 132.498 37.9213 132.263 38.284C132.039 38.636 131.682 38.892 131.191 39.052L132.999 43.5H131.079L129.319 39.004L129.783 39.244C129.709 39.276 129.618 39.2973 129.511 39.308C129.415 39.308 129.298 39.308 129.159 39.308H126.311V43.5H124.503ZM126.311 37.772H128.871C129.373 37.772 129.767 37.74 130.055 37.676C130.343 37.6013 130.557 37.4893 130.695 37.34C130.834 37.1907 130.919 36.9987 130.951 36.764C130.994 36.5293 131.015 36.2413 131.015 35.9C131.015 35.548 130.994 35.2547 130.951 35.02C130.919 34.7747 130.839 34.5827 130.711 34.444C130.583 34.2947 130.375 34.188 130.087 34.124C129.81 34.06 129.426 34.028 128.935 34.028H126.311V37.772ZM135.363 43.5V32.492H137.171V37.164H142.259V32.492H144.067V43.5H142.259V38.748H137.171V43.5H135.363ZM147.003 43.5V32.492H154.331V34.028H148.811V37.18H153.579V38.716H148.811V41.964H154.331V43.5H147.003ZM155.586 43.5L159.522 32.492H161.89L165.826 43.5H163.954L162.994 40.78H158.354L157.41 43.5H155.586ZM158.866 39.244H162.466L160.706 34.236H160.626L158.866 39.244ZM167.644 43.5V32.492H171.244C172.172 32.492 172.929 32.54 173.516 32.636C174.113 32.7213 174.583 32.8813 174.924 33.116C175.265 33.3507 175.511 33.676 175.66 34.092C175.82 34.508 175.921 35.036 175.964 35.676C176.007 36.316 176.028 37.0893 176.028 37.996C176.028 38.9027 176.007 39.676 175.964 40.316C175.921 40.956 175.82 41.484 175.66 41.9C175.511 42.316 175.265 42.6413 174.924 42.876C174.583 43.1107 174.113 43.276 173.516 43.372C172.929 43.4573 172.172 43.5 171.244 43.5H167.644ZM169.452 41.964H171.084C171.681 41.964 172.172 41.9533 172.556 41.932C172.951 41.9 173.26 41.8253 173.484 41.708C173.708 41.58 173.873 41.3773 173.98 41.1C174.087 40.8227 174.151 40.4333 174.172 39.932C174.204 39.42 174.22 38.7747 174.22 37.996C174.22 37.2173 174.204 36.5773 174.172 36.076C174.151 35.5747 174.081 35.1853 173.964 34.908C173.857 34.62 173.687 34.4173 173.452 34.3C173.228 34.172 172.924 34.0973 172.54 34.076C172.156 34.044 171.671 34.028 171.084 34.028H169.452V41.964Z" fill="#3A3A3A"/>
</svg>
