<svg width="188" height="76" viewBox="0 0 188 76" fill="none" xmlns="http://www.w3.org/2000/svg">
<path fill-rule="evenodd" clip-rule="evenodd" d="M52.4637 27.4886L52.5 53.4596C52.5 54.7237 50.8751 55.0047 50.0626 54.0913L31.5544 33.9459C31.481 33.8762 31.4439 33.7706 31.4439 33.6656C31.4439 33.3846 31.7026 33.1395 31.9977 33.1395H39.2014C39.6447 33.1395 40.125 32.824 40.125 32.262V28.6823C40.125 27.9801 39.5349 27.4182 38.7952 27.4182H24.4618C22.8732 27.4182 21.47 28.6119 21.47 30.1908C21.47 30.6831 21.6916 31.1042 21.9133 31.4895C21.9867 31.6648 22.1349 31.8409 22.0608 32.0508C21.9867 32.2262 21.8021 32.3318 21.6175 32.3318C21.47 32.3318 21.3588 32.262 21.2854 32.1916C20.6939 31.5606 19.4018 30.1908 19.069 29.7345C18.4404 28.8922 18.4404 27.2076 18.4404 25.7688C18.4404 25.5934 18.4404 18.1888 18.4404 18.1888C18.4404 17.381 19.1053 16.75 19.9555 16.75H41.3074C47.5868 16.8191 52.5371 21.5925 52.4637 27.4886ZM6.28706 48.4755L6.25 22.5046C6.25 21.2404 7.87562 20.9601 8.68807 21.8722L27.1963 42.0175C27.2705 42.0879 27.3068 42.1935 27.3068 42.2985C27.3068 42.5788 27.0488 42.8246 26.7523 42.8246H19.55C19.106 42.8246 18.6257 43.1408 18.6257 43.7021V47.317C18.6257 48.0192 19.2165 48.6516 19.9555 48.6516H34.2882C35.8768 48.6516 37.2807 47.3881 37.2807 45.8085C37.2807 45.3162 37.0591 44.8951 36.8375 44.5098C36.7633 44.3345 36.6158 44.1584 36.6899 43.9479C36.7633 43.7732 36.9486 43.6669 37.1332 43.6669C37.2807 43.6669 37.3919 43.7373 37.4653 43.8077C38.0569 44.4394 39.3497 45.8085 39.6818 46.2642C40.3096 47.1065 40.3096 48.7917 40.3096 50.2305C40.3096 50.4059 40.3096 57.8105 40.3096 57.8105C40.3096 58.6183 39.6447 59.25 38.7952 59.25H17.4433C11.1632 59.1803 6.21365 54.3716 6.28706 48.4755Z" fill="#3A3A3A"/>
<path d="M72.868 44.144C72.424 44.144 71.932 44.132 71.392 44.108C70.864 44.084 70.342 44.048 69.826 44C69.322 43.964 68.86 43.922 68.44 43.874V42.2C68.872 42.236 69.322 42.272 69.79 42.308C70.27 42.344 70.726 42.374 71.158 42.398C71.59 42.41 71.962 42.416 72.274 42.416C72.91 42.416 73.408 42.386 73.768 42.326C74.128 42.266 74.416 42.17 74.632 42.038C74.776 41.942 74.878 41.822 74.938 41.678C75.01 41.534 75.052 41.366 75.064 41.174C75.088 40.97 75.1 40.748 75.1 40.508C75.1 40.184 75.088 39.914 75.064 39.698C75.04 39.482 74.986 39.314 74.902 39.194C74.818 39.074 74.686 38.99 74.506 38.942C74.326 38.882 74.092 38.834 73.804 38.798L70.852 38.456C70.276 38.384 69.802 38.264 69.43 38.096C69.07 37.916 68.788 37.682 68.584 37.394C68.392 37.106 68.26 36.764 68.188 36.368C68.116 35.972 68.08 35.534 68.08 35.054C68.08 34.25 68.188 33.614 68.404 33.146C68.62 32.678 68.926 32.324 69.322 32.084C69.73 31.832 70.21 31.67 70.762 31.598C71.314 31.514 71.926 31.472 72.598 31.472C73.066 31.472 73.546 31.49 74.038 31.526C74.53 31.55 74.992 31.586 75.424 31.634C75.868 31.67 76.234 31.724 76.522 31.796V33.434C76.222 33.386 75.868 33.344 75.46 33.308C75.064 33.272 74.65 33.248 74.218 33.236C73.786 33.212 73.384 33.2 73.012 33.2C72.388 33.2 71.884 33.23 71.5 33.29C71.128 33.338 70.84 33.422 70.636 33.542C70.396 33.674 70.252 33.86 70.204 34.1C70.156 34.328 70.132 34.616 70.132 34.964C70.132 35.372 70.156 35.69 70.204 35.918C70.264 36.134 70.39 36.284 70.582 36.368C70.786 36.452 71.092 36.518 71.5 36.566L74.452 36.908C74.824 36.944 75.16 37.004 75.46 37.088C75.76 37.16 76.024 37.286 76.252 37.466C76.492 37.646 76.678 37.904 76.81 38.24C76.894 38.408 76.954 38.6 76.99 38.816C77.038 39.032 77.074 39.272 77.098 39.536C77.134 39.788 77.152 40.076 77.152 40.4C77.152 41.084 77.08 41.654 76.936 42.11C76.804 42.566 76.612 42.932 76.36 43.208C76.12 43.472 75.82 43.676 75.46 43.82C75.1 43.952 74.704 44.036 74.272 44.072C73.84 44.12 73.372 44.144 72.868 44.144ZM79.8884 44V31.616H85.4324C86.2124 31.616 86.8424 31.712 87.3224 31.904C87.8024 32.096 88.1684 32.372 88.4204 32.732C88.6844 33.08 88.8584 33.5 88.9424 33.992C89.0384 34.484 89.0864 35.03 89.0864 35.63C89.0864 36.194 89.0444 36.722 88.9604 37.214C88.8764 37.694 88.7024 38.12 88.4384 38.492C88.1864 38.852 87.8144 39.134 87.3224 39.338C86.8304 39.542 86.1824 39.644 85.3784 39.644H81.9224V44H79.8884ZM81.9224 37.916H84.6044C85.1684 37.916 85.6184 37.88 85.9544 37.808C86.2904 37.736 86.5304 37.61 86.6744 37.43C86.8304 37.25 86.9324 37.016 86.9804 36.728C87.0284 36.44 87.0524 36.074 87.0524 35.63C87.0524 35.186 87.0284 34.82 86.9804 34.532C86.9444 34.232 86.8484 33.998 86.6924 33.83C86.5484 33.65 86.3144 33.524 85.9904 33.452C85.6664 33.38 85.2224 33.344 84.6584 33.344H81.9224V37.916ZM91.5955 44V31.616H93.6295V44H91.5955ZM96.9216 44V31.616H99.0276L104.698 40.184H104.77V31.616H106.714V44H104.77L98.9376 35.162H98.8656V44H96.9216ZM109.261 44V42.362L115.795 33.344H109.459V31.616H118.369V33.218L111.799 42.29H118.459V44H109.261ZM119.726 44L124.154 31.616H126.818L131.246 44H129.14L128.06 40.94H122.84L121.778 44H119.726ZM123.416 39.212H127.466L125.486 33.578H125.396L123.416 39.212ZM142.565 44.144C141.677 44.144 140.921 44.09 140.297 43.982C139.685 43.862 139.175 43.664 138.767 43.388C138.359 43.112 138.041 42.734 137.813 42.254C137.597 41.774 137.441 41.174 137.345 40.454C137.261 39.722 137.219 38.84 137.219 37.808C137.219 36.776 137.261 35.9 137.345 35.18C137.441 34.448 137.603 33.842 137.831 33.362C138.059 32.882 138.377 32.504 138.785 32.228C139.193 31.952 139.703 31.76 140.315 31.652C140.939 31.532 141.689 31.472 142.565 31.472C142.961 31.472 143.393 31.49 143.861 31.526C144.341 31.562 144.815 31.61 145.283 31.67C145.751 31.718 146.177 31.778 146.561 31.85V33.47C146.153 33.41 145.751 33.362 145.355 33.326C144.959 33.29 144.593 33.26 144.257 33.236C143.933 33.212 143.663 33.2 143.447 33.2C142.727 33.2 142.121 33.218 141.629 33.254C141.137 33.278 140.735 33.362 140.423 33.506C140.111 33.65 139.871 33.89 139.703 34.226C139.535 34.55 139.415 35 139.343 35.576C139.283 36.152 139.253 36.896 139.253 37.808C139.253 38.612 139.271 39.29 139.307 39.842C139.355 40.382 139.445 40.832 139.577 41.192C139.721 41.54 139.913 41.804 140.153 41.984C140.405 42.164 140.729 42.29 141.125 42.362C141.533 42.434 142.031 42.47 142.619 42.47C142.847 42.47 143.087 42.464 143.339 42.452C143.603 42.44 143.849 42.428 144.077 42.416C144.305 42.392 144.497 42.368 144.653 42.344V38.834H142.223V37.142H146.615V43.766C146.207 43.838 145.757 43.904 145.265 43.964C144.785 44.012 144.311 44.054 143.843 44.09C143.375 44.126 142.949 44.144 142.565 44.144ZM148.466 44L152.894 31.616H155.558L159.986 44H157.88L156.8 40.94H151.58L150.518 44H148.466ZM152.156 39.212H156.206L154.226 33.578H154.136L152.156 39.212ZM162.031 44V31.616H164.803L168.439 40.616H168.529L172.165 31.616H174.937V44H172.975V34.766H172.903L169.159 44H167.719L164.011 34.766H163.939V44H162.031ZM178.256 44V31.616H186.5V33.344H180.29V36.89H185.654V38.618H180.29V42.272H186.5V44H178.256Z" fill="#3A3A3A"/>
</svg>
