<svg width="188" height="76" viewBox="0 0 188 76" fill="none" xmlns="http://www.w3.org/2000/svg">
<path d="M50.224 26.1714H38.5303V22.5825C38.5303 20.9077 38.3807 21.091 38.0817 20.6324C37.7826 20.1739 37.2841 19.9446 36.5863 19.9446C35.8287 19.9446 35.1833 19.943 34.7845 20.561C34.4057 21.1791 34.2834 21.1769 34.2834 22.433C34.2834 24.048 34.5028 25.2642 34.9414 26.0817C35.3601 26.8991 36.5464 27.8861 38.5004 29.0425C44.103 32.3722 47.632 35.1037 49.0875 37.2371C50.543 39.3704 51.2708 42.8098 51.2708 47.5551C51.2708 51.0044 50.862 53.5465 50.0446 55.1814C49.247 56.8163 47.6919 58.1921 45.379 59.3086C43.0662 60.4052 40.3746 60.9535 37.3041 60.9535C33.9345 60.9535 31.0535 60.3155 28.6609 59.0394C26.2882 57.7634 24.7331 56.1384 23.9954 54.1646C23.2576 52.1907 22.8888 49.3894 22.8888 45.7606V42.5905H34.5825V48.4822C34.5825 50.2965 34.742 50.2129 35.061 50.7313C35.4 51.2497 35.9882 51.5089 36.8256 51.5089C37.663 51.5089 38.281 51.1799 38.6798 50.522C39.0985 49.864 39.1595 49.936 39.3079 48.8411C39.3079 45.9899 38.9191 44.1257 38.1415 43.2484C37.344 42.3711 35.38 40.9057 32.2498 38.8521C29.1195 36.7785 27.0459 35.2732 26.0291 34.3361C25.0122 33.399 24.1648 32.103 23.4869 30.4481C22.829 28.7933 22.5 26.6798 22.5 24.1078C22.5 20.3993 22.9685 17.6877 23.9056 15.973C24.8627 14.2583 26.3979 12.9225 28.5114 11.9655C30.6248 10.9885 33.1769 10.5 36.1676 10.5C39.4375 10.5 42.2188 11.0284 44.5117 12.0851C46.8245 13.1418 48.3498 14.4777 49.0875 16.0927C49.8452 17.6877 50.224 20.4093 50.224 24.2573V26.1714Z" fill="white" fill-opacity="0.4"/>
<path d="M50.224 28.6714H38.5303V25.0825C38.5303 23.4077 38.3807 23.591 38.0817 23.1324C37.7826 22.6739 37.2841 22.4446 36.5863 22.4446C35.8287 22.4446 35.1833 22.443 34.7845 23.061C34.4057 23.6791 34.2834 23.6769 34.2834 24.933C34.2834 26.548 34.5028 27.7642 34.9414 28.5817C35.3601 29.3991 36.5464 30.3861 38.5004 31.5425C44.103 34.8722 47.632 37.6037 49.0875 39.7371C50.543 41.8704 51.2708 45.3098 51.2708 50.0551C51.2708 53.5044 50.862 56.0465 50.0446 57.6814C49.247 59.3163 47.6919 60.6921 45.379 61.8086C43.0662 62.9052 40.3746 63.4535 37.3041 63.4535C33.9345 63.4535 31.0535 62.8155 28.6609 61.5394C26.2882 60.2634 24.7331 58.6384 23.9954 56.6646C23.2576 54.6907 22.8888 51.8894 22.8888 48.2606V45.0905H34.5825V50.9822C34.5825 52.7965 34.742 52.7129 35.061 53.2313C35.4 53.7497 35.9882 54.0089 36.8256 54.0089C37.663 54.0089 38.281 53.6799 38.6798 53.022C39.0985 52.364 39.1595 52.436 39.3079 51.3411C39.3079 48.4899 38.9191 46.6257 38.1415 45.7484C37.344 44.8711 35.38 43.4057 32.2498 41.3521C29.1195 39.2785 27.0459 37.7732 26.0291 36.8361C25.0122 35.899 24.1648 34.603 23.4869 32.9481C22.829 31.2933 22.5 29.1798 22.5 26.6078C22.5 22.8993 22.9685 20.1877 23.9056 18.473C24.8627 16.7583 26.3979 15.4225 28.5114 14.4655C30.6248 13.4885 33.1769 13 36.1676 13C39.4375 13 42.2188 13.5284 44.5117 14.5851C46.8245 15.6418 48.3498 16.9777 49.0875 18.5927C49.8452 20.1877 50.224 22.9093 50.224 26.7573V28.6714Z" fill="#3A3A3A"/>
<path d="M61.875 10.5L61.875 64.25" stroke="#3A3A3A" stroke-width="1.25" stroke-linecap="round"/>
<path d="M14.375 10.5L14.375 64.25" stroke="#3A3A3A" stroke-width="1.25" stroke-linecap="round"/>
<path d="M86.02 44.66C85.5267 44.66 84.98 44.6467 84.38 44.62C83.7933 44.5933 83.2133 44.5533 82.64 44.5C82.08 44.46 81.5667 44.4133 81.1 44.36V42.5C81.58 42.54 82.08 42.58 82.6 42.62C83.1333 42.66 83.64 42.6933 84.12 42.72C84.6 42.7333 85.0133 42.74 85.36 42.74C86.0667 42.74 86.62 42.7067 87.02 42.64C87.42 42.5733 87.74 42.4667 87.98 42.32C88.14 42.2133 88.2533 42.08 88.32 41.92C88.4 41.76 88.4467 41.5733 88.46 41.36C88.4867 41.1333 88.5 40.8867 88.5 40.62C88.5 40.26 88.4867 39.96 88.46 39.72C88.4333 39.48 88.3733 39.2933 88.28 39.16C88.1867 39.0267 88.04 38.9333 87.84 38.88C87.64 38.8133 87.38 38.76 87.06 38.72L83.78 38.34C83.14 38.26 82.6133 38.1267 82.2 37.94C81.8 37.74 81.4867 37.48 81.26 37.16C81.0467 36.84 80.9 36.46 80.82 36.02C80.74 35.58 80.7 35.0933 80.7 34.56C80.7 33.6667 80.82 32.96 81.06 32.44C81.3 31.92 81.64 31.5267 82.08 31.26C82.5333 30.98 83.0667 30.8 83.68 30.72C84.2933 30.6267 84.9733 30.58 85.72 30.58C86.24 30.58 86.7733 30.6 87.32 30.64C87.8667 30.6667 88.38 30.7067 88.86 30.76C89.3533 30.8 89.76 30.86 90.08 30.94V32.76C89.7467 32.7067 89.3533 32.66 88.9 32.62C88.46 32.58 88 32.5533 87.52 32.54C87.04 32.5133 86.5933 32.5 86.18 32.5C85.4867 32.5 84.9267 32.5333 84.5 32.6C84.0867 32.6533 83.7667 32.7467 83.54 32.88C83.2733 33.0267 83.1133 33.2333 83.06 33.5C83.0067 33.7533 82.98 34.0733 82.98 34.46C82.98 34.9133 83.0067 35.2667 83.06 35.52C83.1267 35.76 83.2667 35.9267 83.48 36.02C83.7067 36.1133 84.0467 36.1867 84.5 36.24L87.78 36.62C88.1933 36.66 88.5667 36.7267 88.9 36.82C89.2333 36.9 89.5267 37.04 89.78 37.24C90.0467 37.44 90.2533 37.7267 90.4 38.1C90.4933 38.2867 90.56 38.5 90.6 38.74C90.6533 38.98 90.6933 39.2467 90.72 39.54C90.76 39.82 90.78 40.14 90.78 40.5C90.78 41.26 90.7 41.8933 90.54 42.4C90.3933 42.9067 90.18 43.3133 89.9 43.62C89.6333 43.9133 89.3 44.14 88.9 44.3C88.5 44.4467 88.06 44.54 87.58 44.58C87.1 44.6333 86.58 44.66 86.02 44.66ZM93.8205 44.5V30.74H99.9805C100.847 30.74 101.547 30.8467 102.08 31.06C102.614 31.2733 103.02 31.58 103.3 31.98C103.594 32.3667 103.787 32.8333 103.88 33.38C103.987 33.9267 104.04 34.5333 104.04 35.2C104.04 35.8267 103.994 36.4133 103.9 36.96C103.807 37.4933 103.614 37.9667 103.32 38.38C103.04 38.78 102.627 39.0933 102.08 39.32C101.534 39.5467 100.814 39.66 99.9205 39.66H96.0805V44.5H93.8205ZM96.0805 37.74H99.0605C99.6871 37.74 100.187 37.7 100.56 37.62C100.934 37.54 101.2 37.4 101.36 37.2C101.534 37 101.647 36.74 101.7 36.42C101.754 36.1 101.78 35.6933 101.78 35.2C101.78 34.7067 101.754 34.3 101.7 33.98C101.66 33.6467 101.554 33.3867 101.38 33.2C101.22 33 100.96 32.86 100.6 32.78C100.24 32.7 99.7471 32.66 99.1205 32.66H96.0805V37.74ZM106.828 44.5V30.74H109.088V44.5H106.828ZM112.746 44.5V30.74H115.086L121.386 40.26H121.466V30.74H123.626V44.5H121.466L114.986 34.68H114.906V44.5H112.746ZM130.137 44.5V32.72H125.957V30.74H136.557V32.72H132.397V44.5H130.137ZM138.899 44.5V30.74H141.159V36.58H147.519V30.74H149.779V44.5H147.519V38.56H141.159V44.5H138.899ZM158.709 44.66C157.616 44.66 156.716 44.6 156.009 44.48C155.303 44.3467 154.743 44.1267 154.329 43.82C153.916 43.5133 153.616 43.0933 153.429 42.56C153.243 42.0267 153.123 41.36 153.069 40.56C153.016 39.7467 152.989 38.7667 152.989 37.62C152.989 36.4733 153.016 35.5 153.069 34.7C153.123 33.8867 153.243 33.2133 153.429 32.68C153.616 32.1467 153.916 31.7267 154.329 31.42C154.743 31.1133 155.303 30.9 156.009 30.78C156.716 30.6467 157.616 30.58 158.709 30.58C159.803 30.58 160.703 30.6467 161.409 30.78C162.129 30.9 162.696 31.1133 163.109 31.42C163.523 31.7267 163.823 32.1467 164.009 32.68C164.209 33.2133 164.336 33.8867 164.389 34.7C164.443 35.5 164.469 36.4733 164.469 37.62C164.469 38.7667 164.443 39.7467 164.389 40.56C164.336 41.36 164.209 42.0267 164.009 42.56C163.823 43.0933 163.523 43.5133 163.109 43.82C162.696 44.1267 162.129 44.3467 161.409 44.48C160.703 44.6 159.803 44.66 158.709 44.66ZM158.709 42.74C159.376 42.74 159.923 42.72 160.349 42.68C160.789 42.64 161.129 42.54 161.369 42.38C161.623 42.22 161.809 41.96 161.929 41.6C162.049 41.2267 162.123 40.7267 162.149 40.1C162.189 39.46 162.209 38.6333 162.209 37.62C162.209 36.6067 162.189 35.7867 162.149 35.16C162.123 34.52 162.049 34.02 161.929 33.66C161.809 33.2867 161.623 33.02 161.369 32.86C161.129 32.7 160.789 32.6 160.349 32.56C159.923 32.52 159.376 32.5 158.709 32.5C158.056 32.5 157.516 32.52 157.089 32.56C156.663 32.6 156.323 32.7 156.069 32.86C155.816 33.02 155.629 33.2867 155.509 33.66C155.403 34.02 155.329 34.52 155.289 35.16C155.263 35.7867 155.249 36.6067 155.249 37.62C155.249 38.6333 155.263 39.46 155.289 40.1C155.329 40.7267 155.403 41.2267 155.509 41.6C155.629 41.96 155.816 42.22 156.069 42.38C156.323 42.54 156.663 42.64 157.089 42.68C157.516 42.72 158.056 42.74 158.709 42.74ZM167.688 44.5V30.74H170.028L176.328 40.26H176.408V30.74H178.568V44.5H176.408L169.928 34.68H169.848V44.5H167.688Z" fill="#3A3A3A"/>
</svg>
