<svg width="188" height="76" viewBox="0 0 188 76" fill="none" xmlns="http://www.w3.org/2000/svg">
<path d="M32 46.3748L36.4856 38.5238L44.6198 38.7013L49.8104 45.8203L41.2559 30.7845L49.8098 15.5H67.7564L76.4523 30.7845L72.3829 38.5238H64.393L59.2025 30.9371L67.7575 46.2967L58.7811 61.75H40.9753L32 46.3748Z" fill="#E84E1C"/>
<path d="M102.368 44.144C101.924 44.144 101.432 44.132 100.892 44.108C100.364 44.084 99.842 44.048 99.326 44C98.822 43.964 98.36 43.922 97.94 43.874V42.2C98.372 42.236 98.822 42.272 99.29 42.308C99.77 42.344 100.226 42.374 100.658 42.398C101.09 42.41 101.462 42.416 101.774 42.416C102.41 42.416 102.908 42.386 103.268 42.326C103.628 42.266 103.916 42.17 104.132 42.038C104.276 41.942 104.378 41.822 104.438 41.678C104.51 41.534 104.552 41.366 104.564 41.174C104.588 40.97 104.6 40.748 104.6 40.508C104.6 40.184 104.588 39.914 104.564 39.698C104.54 39.482 104.486 39.314 104.402 39.194C104.318 39.074 104.186 38.99 104.006 38.942C103.826 38.882 103.592 38.834 103.304 38.798L100.352 38.456C99.776 38.384 99.302 38.264 98.93 38.096C98.57 37.916 98.288 37.682 98.084 37.394C97.892 37.106 97.76 36.764 97.688 36.368C97.616 35.972 97.58 35.534 97.58 35.054C97.58 34.25 97.688 33.614 97.904 33.146C98.12 32.678 98.426 32.324 98.822 32.084C99.23 31.832 99.71 31.67 100.262 31.598C100.814 31.514 101.426 31.472 102.098 31.472C102.566 31.472 103.046 31.49 103.538 31.526C104.03 31.55 104.492 31.586 104.924 31.634C105.368 31.67 105.734 31.724 106.022 31.796V33.434C105.722 33.386 105.368 33.344 104.96 33.308C104.564 33.272 104.15 33.248 103.718 33.236C103.286 33.212 102.884 33.2 102.512 33.2C101.888 33.2 101.384 33.23 101 33.29C100.628 33.338 100.34 33.422 100.136 33.542C99.896 33.674 99.752 33.86 99.704 34.1C99.656 34.328 99.632 34.616 99.632 34.964C99.632 35.372 99.656 35.69 99.704 35.918C99.764 36.134 99.89 36.284 100.082 36.368C100.286 36.452 100.592 36.518 101 36.566L103.952 36.908C104.324 36.944 104.66 37.004 104.96 37.088C105.26 37.16 105.524 37.286 105.752 37.466C105.992 37.646 106.178 37.904 106.31 38.24C106.394 38.408 106.454 38.6 106.49 38.816C106.538 39.032 106.574 39.272 106.598 39.536C106.634 39.788 106.652 40.076 106.652 40.4C106.652 41.084 106.58 41.654 106.436 42.11C106.304 42.566 106.112 42.932 105.86 43.208C105.62 43.472 105.32 43.676 104.96 43.82C104.6 43.952 104.204 44.036 103.772 44.072C103.34 44.12 102.872 44.144 102.368 44.144ZM111.476 44L108.272 31.616H110.324L112.808 41.534H112.898L115.616 31.616H117.74L120.494 41.534H120.602L122.96 31.616H124.994L121.79 44H119.306L116.678 34.622H116.606L113.96 44H111.476ZM127.195 44V31.616H129.229V44H127.195ZM132.521 44V31.616H134.627L140.297 40.184H140.369V31.616H142.313V44H140.369L134.537 35.162H134.465V44H132.521ZM148.173 44V33.398H144.411V31.616H153.951V33.398H150.207V44H148.173ZM157.173 44V33.398H153.411V31.616H162.951V33.398H159.207V44H157.173Z" fill="#3A3A3A"/>
</svg>
