<svg width="188" height="76" viewBox="0 0 188 76" fill="none" xmlns="http://www.w3.org/2000/svg">
<path d="M21.7788 23.1195C30.7632 14.5886 45.2426 14.627 54.1469 23.2348C55.7913 24.8487 55.7913 27.4233 54.1067 29.0373C52.4222 30.6513 49.7348 30.6128 48.0503 28.9989C42.4751 23.619 33.3703 23.5806 27.755 28.922C22.1397 34.2634 22.0996 42.9865 27.6748 48.3663C26.0303 46.7523 23.3029 46.7523 21.6183 48.3663C19.9337 49.9418 19.9337 52.5549 21.5782 54.1688C12.7542 45.5227 12.7943 31.6504 21.7788 23.1195V23.1195Z" fill="url(#paint0_linear_552_1389)"/>
<path d="M21.6979 48.3275C21.8183 48.2123 21.8985 48.1354 22.0188 48.0585C22.2193 47.9048 22.4199 47.7896 22.6204 47.6743C22.6605 47.6358 22.7007 47.6358 22.7408 47.5974C23.9841 46.9826 25.4682 46.9826 26.6715 47.5974H26.7116C26.8319 47.6743 26.9522 47.7127 27.0726 47.7896H27.1127C27.233 47.8664 27.3533 47.9433 27.4335 48.0201C27.5138 48.097 27.6341 48.1738 27.7143 48.2507L27.7544 48.2891C33.3296 53.669 42.4344 53.7074 48.0496 48.366C53.6649 43.0245 53.705 34.3015 48.1299 28.9217C49.7743 30.5356 52.5018 30.5356 54.1863 28.9217C55.8709 27.3462 55.8709 24.7331 54.2265 23.1191C63.1307 31.7269 63.0906 45.5992 54.1061 54.1301C45.1217 62.661 30.6423 62.6225 21.738 54.0148C20.0133 52.5161 20.0133 49.9415 21.6979 48.3275V48.3275Z" fill="url(#paint1_linear_552_1389)"/>
<path d="M84.18 44.5V32.72H80V30.74H90.6V32.72H86.44V44.5H84.18ZM98.2016 44.66C97.1082 44.66 96.2082 44.6 95.5016 44.48C94.7949 44.3467 94.2349 44.1267 93.8216 43.82C93.4082 43.5133 93.1082 43.0933 92.9216 42.56C92.7349 42.0267 92.6149 41.36 92.5616 40.56C92.5082 39.7467 92.4816 38.7667 92.4816 37.62C92.4816 36.4733 92.5082 35.5 92.5616 34.7C92.6149 33.8867 92.7349 33.2133 92.9216 32.68C93.1082 32.1467 93.4082 31.7267 93.8216 31.42C94.2349 31.1133 94.7949 30.9 95.5016 30.78C96.2082 30.6467 97.1082 30.58 98.2016 30.58C99.2949 30.58 100.195 30.6467 100.902 30.78C101.622 30.9 102.188 31.1133 102.602 31.42C103.015 31.7267 103.315 32.1467 103.502 32.68C103.702 33.2133 103.828 33.8867 103.882 34.7C103.935 35.5 103.962 36.4733 103.962 37.62C103.962 38.7667 103.935 39.7467 103.882 40.56C103.828 41.36 103.702 42.0267 103.502 42.56C103.315 43.0933 103.015 43.5133 102.602 43.82C102.188 44.1267 101.622 44.3467 100.902 44.48C100.195 44.6 99.2949 44.66 98.2016 44.66ZM98.2016 42.74C98.8682 42.74 99.4149 42.72 99.8416 42.68C100.282 42.64 100.622 42.54 100.862 42.38C101.115 42.22 101.302 41.96 101.422 41.6C101.542 41.2267 101.615 40.7267 101.642 40.1C101.682 39.46 101.702 38.6333 101.702 37.62C101.702 36.6067 101.682 35.7867 101.642 35.16C101.615 34.52 101.542 34.02 101.422 33.66C101.302 33.2867 101.115 33.02 100.862 32.86C100.622 32.7 100.282 32.6 99.8416 32.56C99.4149 32.52 98.8682 32.5 98.2016 32.5C97.5482 32.5 97.0082 32.52 96.5816 32.56C96.1549 32.6 95.8149 32.7 95.5616 32.86C95.3082 33.02 95.1216 33.2867 95.0016 33.66C94.8949 34.02 94.8216 34.52 94.7816 35.16C94.7549 35.7867 94.7416 36.6067 94.7416 37.62C94.7416 38.6333 94.7549 39.46 94.7816 40.1C94.8216 40.7267 94.8949 41.2267 95.0016 41.6C95.1216 41.96 95.3082 42.22 95.5616 42.38C95.8149 42.54 96.1549 42.64 96.5816 42.68C97.0082 42.72 97.5482 42.74 98.2016 42.74ZM107.18 44.5V30.74H110.26L114.3 40.74H114.4L118.44 30.74H121.52V44.5H119.34V34.24H119.26L115.1 44.5H113.5L109.38 34.24H109.3V44.5H107.18ZM125.207 44.5V30.74H127.467V36.58H133.827V30.74H136.087V44.5H133.827V38.56H127.467V44.5H125.207ZM145.018 44.66C143.925 44.66 143.025 44.6 142.318 44.48C141.611 44.3467 141.051 44.1267 140.638 43.82C140.225 43.5133 139.925 43.0933 139.738 42.56C139.551 42.0267 139.431 41.36 139.378 40.56C139.325 39.7467 139.298 38.7667 139.298 37.62C139.298 36.4733 139.325 35.5 139.378 34.7C139.431 33.8867 139.551 33.2133 139.738 32.68C139.925 32.1467 140.225 31.7267 140.638 31.42C141.051 31.1133 141.611 30.9 142.318 30.78C143.025 30.6467 143.925 30.58 145.018 30.58C146.111 30.58 147.011 30.6467 147.718 30.78C148.438 30.9 149.005 31.1133 149.418 31.42C149.831 31.7267 150.131 32.1467 150.318 32.68C150.518 33.2133 150.645 33.8867 150.698 34.7C150.751 35.5 150.778 36.4733 150.778 37.62C150.778 38.7667 150.751 39.7467 150.698 40.56C150.645 41.36 150.518 42.0267 150.318 42.56C150.131 43.0933 149.831 43.5133 149.418 43.82C149.005 44.1267 148.438 44.3467 147.718 44.48C147.011 44.6 146.111 44.66 145.018 44.66ZM145.018 42.74C145.685 42.74 146.231 42.72 146.658 42.68C147.098 42.64 147.438 42.54 147.678 42.38C147.931 42.22 148.118 41.96 148.238 41.6C148.358 41.2267 148.431 40.7267 148.458 40.1C148.498 39.46 148.518 38.6333 148.518 37.62C148.518 36.6067 148.498 35.7867 148.458 35.16C148.431 34.52 148.358 34.02 148.238 33.66C148.118 33.2867 147.931 33.02 147.678 32.86C147.438 32.7 147.098 32.6 146.658 32.56C146.231 32.52 145.685 32.5 145.018 32.5C144.365 32.5 143.825 32.52 143.398 32.56C142.971 32.6 142.631 32.7 142.378 32.86C142.125 33.02 141.938 33.2867 141.818 33.66C141.711 34.02 141.638 34.52 141.598 35.16C141.571 35.7867 141.558 36.6067 141.558 37.62C141.558 38.6333 141.571 39.46 141.598 40.1C141.638 40.7267 141.711 41.2267 141.818 41.6C141.938 41.96 142.125 42.22 142.378 42.38C142.631 42.54 142.971 42.64 143.398 42.68C143.825 42.72 144.365 42.74 145.018 42.74ZM153.996 44.5V30.74H160.416C161.283 30.74 161.983 30.84 162.516 31.04C163.05 31.24 163.45 31.5333 163.716 31.92C163.983 32.2933 164.163 32.7467 164.256 33.28C164.35 33.8 164.396 34.3733 164.396 35C164.396 35.4533 164.35 35.9533 164.256 36.5C164.176 37.0333 163.99 37.5267 163.696 37.98C163.416 38.42 162.97 38.74 162.356 38.94L164.616 44.5H162.216L160.016 38.88L160.596 39.18C160.503 39.22 160.39 39.2467 160.256 39.26C160.136 39.26 159.99 39.26 159.816 39.26H156.256V44.5H153.996ZM156.256 37.34H159.456C160.083 37.34 160.576 37.3 160.936 37.22C161.296 37.1267 161.563 36.9867 161.736 36.8C161.91 36.6133 162.016 36.3733 162.056 36.08C162.11 35.7867 162.136 35.4267 162.136 35C162.136 34.56 162.11 34.1933 162.056 33.9C162.016 33.5933 161.916 33.3533 161.756 33.18C161.596 32.9933 161.336 32.86 160.976 32.78C160.63 32.7 160.15 32.66 159.536 32.66H156.256V37.34ZM167.57 44.5V30.74H169.91L176.21 40.26H176.29V30.74H178.45V44.5H176.29L169.81 34.68H169.73V44.5H167.57Z" fill="#3A3A3A"/>
<defs>
<linearGradient id="paint0_linear_552_1389" x1="13.779" y1="42.4972" x2="50.7428" y2="18.67" gradientUnits="userSpaceOnUse">
<stop stop-color="#B5DAF4"/>
<stop offset="0.274" stop-color="#2AB2E7"/>
<stop offset="1" stop-color="#2B357F"/>
</linearGradient>
<linearGradient id="paint1_linear_552_1389" x1="62.0628" y1="34.8706" x2="25.1477" y2="58.6663" gradientUnits="userSpaceOnUse">
<stop stop-color="#B5DAF4"/>
<stop offset="0.274" stop-color="#2AB2E7"/>
<stop offset="1" stop-color="#2B357F"/>
</linearGradient>
</defs>
</svg>
