<svg width="188" height="76" viewBox="0 0 188 76" fill="none" xmlns="http://www.w3.org/2000/svg">
<ellipse cx="29.8026" cy="38.4331" rx="22.3026" ry="21.6831" fill="#3A3A3A"/>
<path d="M19.5878 22.6053C20.5928 21.6283 22.2221 21.6283 23.2271 22.6053L46.276 45.014C47.281 45.9911 47.281 47.5752 46.276 48.5522L40.2105 54.4492C39.2055 55.4263 37.5762 55.4263 36.5712 54.4492L13.5223 32.0406C12.5173 31.0635 12.5173 29.4794 13.5223 28.5024L19.5878 22.6053Z" fill="#FF003A"/>
<path d="M46.276 28.5024C47.281 29.4794 47.281 31.0635 46.276 32.0406L23.2271 54.4492C22.2221 55.4263 20.5927 55.4263 19.5878 54.4492L13.5223 48.5522C12.5173 47.5752 12.5173 45.9911 13.5223 45.014L36.5712 22.6053C37.5762 21.6283 39.2055 21.6283 40.2105 22.6053L46.276 28.5024Z" fill="#FF003A"/>
<path d="M64.212 44V33.398H60.45V31.616H69.99V33.398H66.246V44H64.212ZM76.7774 44.144C75.9254 44.144 75.2114 44.096 74.6354 44C74.0594 43.892 73.5914 43.718 73.2314 43.478C72.8834 43.238 72.6134 42.908 72.4214 42.488C72.2414 42.056 72.1154 41.516 72.0434 40.868C71.9834 40.22 71.9534 39.44 71.9534 38.528V31.616H73.9874V39.158C73.9874 39.854 74.0114 40.418 74.0594 40.85C74.1074 41.282 74.2154 41.612 74.3834 41.84C74.5514 42.068 74.8274 42.224 75.2114 42.308C75.5954 42.38 76.1174 42.416 76.7774 42.416C77.4494 42.416 77.9714 42.38 78.3434 42.308C78.7154 42.224 78.9854 42.068 79.1534 41.84C79.3334 41.612 79.4414 41.282 79.4774 40.85C79.5254 40.418 79.5494 39.854 79.5494 39.158V31.616H81.5834V38.528C81.5834 39.44 81.5474 40.22 81.4754 40.868C81.4154 41.516 81.2954 42.056 81.1154 42.488C80.9354 42.908 80.6654 43.238 80.3054 43.478C79.9574 43.718 79.4954 43.892 78.9194 44C78.3434 44.096 77.6294 44.144 76.7774 44.144ZM84.7712 44V31.616H90.5492C91.3292 31.616 91.9592 31.706 92.4392 31.886C92.9192 32.066 93.2792 32.33 93.5192 32.678C93.7592 33.014 93.9212 33.422 94.0052 33.902C94.0892 34.37 94.1312 34.886 94.1312 35.45C94.1312 35.858 94.0892 36.308 94.0052 36.8C93.9332 37.28 93.7652 37.724 93.5012 38.132C93.2492 38.528 92.8472 38.816 92.2952 38.996L94.3292 44H92.1692L90.1892 38.942L90.7112 39.212C90.6272 39.248 90.5252 39.272 90.4052 39.284C90.2972 39.284 90.1652 39.284 90.0092 39.284H86.8052V44H84.7712ZM86.8052 37.556H89.6852C90.2492 37.556 90.6932 37.52 91.0172 37.448C91.3412 37.364 91.5812 37.238 91.7372 37.07C91.8932 36.902 91.9892 36.686 92.0252 36.422C92.0732 36.158 92.0972 35.834 92.0972 35.45C92.0972 35.054 92.0732 34.724 92.0252 34.46C91.9892 34.184 91.8992 33.968 91.7552 33.812C91.6112 33.644 91.3772 33.524 91.0532 33.452C90.7412 33.38 90.3092 33.344 89.7572 33.344H86.8052V37.556ZM96.988 44V31.616H102.874C103.69 31.616 104.344 31.742 104.836 31.994C105.328 32.234 105.688 32.588 105.916 33.056C106.144 33.512 106.258 34.07 106.258 34.73C106.258 35.282 106.18 35.756 106.024 36.152C105.88 36.548 105.652 36.872 105.34 37.124C105.028 37.364 104.626 37.538 104.134 37.646V37.718C104.71 37.826 105.16 38.012 105.484 38.276C105.82 38.54 106.054 38.876 106.186 39.284C106.318 39.692 106.384 40.172 106.384 40.724C106.384 41.192 106.33 41.63 106.222 42.038C106.114 42.434 105.928 42.776 105.664 43.064C105.412 43.352 105.058 43.58 104.602 43.748C104.146 43.916 103.564 44 102.856 44H96.988ZM99.022 42.29H102.244C102.796 42.29 103.222 42.236 103.522 42.128C103.822 42.008 104.032 41.816 104.152 41.552C104.284 41.276 104.35 40.91 104.35 40.454C104.35 39.986 104.284 39.62 104.152 39.356C104.02 39.08 103.798 38.888 103.486 38.78C103.186 38.66 102.772 38.6 102.244 38.6H99.022V42.29ZM99.022 36.872H102.172C102.664 36.872 103.054 36.812 103.342 36.692C103.642 36.572 103.864 36.386 104.008 36.134C104.152 35.87 104.224 35.534 104.224 35.126C104.224 34.67 104.164 34.316 104.044 34.064C103.924 33.8 103.72 33.614 103.432 33.506C103.144 33.398 102.724 33.344 102.172 33.344H99.022V36.872ZM113.939 44.144C112.955 44.144 112.145 44.09 111.509 43.982C110.873 43.862 110.369 43.664 109.997 43.388C109.625 43.112 109.355 42.734 109.187 42.254C109.019 41.774 108.911 41.174 108.863 40.454C108.815 39.722 108.791 38.84 108.791 37.808C108.791 36.776 108.815 35.9 108.863 35.18C108.911 34.448 109.019 33.842 109.187 33.362C109.355 32.882 109.625 32.504 109.997 32.228C110.369 31.952 110.873 31.76 111.509 31.652C112.145 31.532 112.955 31.472 113.939 31.472C114.923 31.472 115.733 31.532 116.369 31.652C117.017 31.76 117.527 31.952 117.899 32.228C118.271 32.504 118.541 32.882 118.709 33.362C118.889 33.842 119.003 34.448 119.051 35.18C119.099 35.9 119.123 36.776 119.123 37.808C119.123 38.84 119.099 39.722 119.051 40.454C119.003 41.174 118.889 41.774 118.709 42.254C118.541 42.734 118.271 43.112 117.899 43.388C117.527 43.664 117.017 43.862 116.369 43.982C115.733 44.09 114.923 44.144 113.939 44.144ZM113.939 42.416C114.539 42.416 115.031 42.398 115.415 42.362C115.811 42.326 116.117 42.236 116.333 42.092C116.561 41.948 116.729 41.714 116.837 41.39C116.945 41.054 117.011 40.604 117.035 40.04C117.071 39.464 117.089 38.72 117.089 37.808C117.089 36.896 117.071 36.158 117.035 35.594C117.011 35.018 116.945 34.568 116.837 34.244C116.729 33.908 116.561 33.668 116.333 33.524C116.117 33.38 115.811 33.29 115.415 33.254C115.031 33.218 114.539 33.2 113.939 33.2C113.351 33.2 112.865 33.218 112.481 33.254C112.097 33.29 111.791 33.38 111.563 33.524C111.335 33.668 111.167 33.908 111.059 34.244C110.963 34.568 110.897 35.018 110.861 35.594C110.837 36.158 110.825 36.896 110.825 37.808C110.825 38.72 110.837 39.464 110.861 40.04C110.897 40.604 110.963 41.054 111.059 41.39C111.167 41.714 111.335 41.948 111.563 42.092C111.791 42.236 112.097 42.326 112.481 42.362C112.865 42.398 113.351 42.416 113.939 42.416ZM131.293 44.144C130.405 44.144 129.649 44.09 129.025 43.982C128.413 43.862 127.903 43.664 127.495 43.388C127.087 43.112 126.769 42.734 126.541 42.254C126.325 41.774 126.169 41.174 126.073 40.454C125.989 39.722 125.947 38.84 125.947 37.808C125.947 36.776 125.989 35.9 126.073 35.18C126.169 34.448 126.331 33.842 126.559 33.362C126.787 32.882 127.105 32.504 127.513 32.228C127.921 31.952 128.431 31.76 129.043 31.652C129.667 31.532 130.417 31.472 131.293 31.472C131.689 31.472 132.121 31.49 132.589 31.526C133.069 31.562 133.543 31.61 134.011 31.67C134.479 31.718 134.905 31.778 135.289 31.85V33.47C134.881 33.41 134.479 33.362 134.083 33.326C133.687 33.29 133.321 33.26 132.985 33.236C132.661 33.212 132.391 33.2 132.175 33.2C131.455 33.2 130.849 33.218 130.357 33.254C129.865 33.278 129.463 33.362 129.151 33.506C128.839 33.65 128.599 33.89 128.431 34.226C128.263 34.55 128.143 35 128.071 35.576C128.011 36.152 127.981 36.896 127.981 37.808C127.981 38.612 127.999 39.29 128.035 39.842C128.083 40.382 128.173 40.832 128.305 41.192C128.449 41.54 128.641 41.804 128.881 41.984C129.133 42.164 129.457 42.29 129.853 42.362C130.261 42.434 130.759 42.47 131.347 42.47C131.575 42.47 131.815 42.464 132.067 42.452C132.331 42.44 132.577 42.428 132.805 42.416C133.033 42.392 133.225 42.368 133.381 42.344V38.834H130.951V37.142H135.343V43.766C134.935 43.838 134.485 43.904 133.993 43.964C133.513 44.012 133.039 44.054 132.571 44.09C132.103 44.126 131.677 44.144 131.293 44.144ZM137.195 44L141.623 31.616H144.287L148.715 44H146.609L145.529 40.94H140.309L139.247 44H137.195ZM140.885 39.212H144.935L142.955 33.578H142.865L140.885 39.212ZM150.76 44V31.616H153.532L157.168 40.616H157.258L160.894 31.616H163.666V44H161.704V34.766H161.632L157.888 44H156.448L152.74 34.766H152.668V44H150.76ZM166.984 44V31.616H175.228V33.344H169.018V36.89H174.382V38.618H169.018V42.272H175.228V44H166.984ZM182.112 44.144C181.668 44.144 181.176 44.132 180.636 44.108C180.108 44.084 179.586 44.048 179.07 44C178.566 43.964 178.104 43.922 177.684 43.874V42.2C178.116 42.236 178.566 42.272 179.034 42.308C179.514 42.344 179.97 42.374 180.402 42.398C180.834 42.41 181.206 42.416 181.518 42.416C182.154 42.416 182.652 42.386 183.012 42.326C183.372 42.266 183.66 42.17 183.876 42.038C184.02 41.942 184.122 41.822 184.182 41.678C184.254 41.534 184.296 41.366 184.308 41.174C184.332 40.97 184.344 40.748 184.344 40.508C184.344 40.184 184.332 39.914 184.308 39.698C184.284 39.482 184.23 39.314 184.146 39.194C184.062 39.074 183.93 38.99 183.75 38.942C183.57 38.882 183.336 38.834 183.048 38.798L180.096 38.456C179.52 38.384 179.046 38.264 178.674 38.096C178.314 37.916 178.032 37.682 177.828 37.394C177.636 37.106 177.504 36.764 177.432 36.368C177.36 35.972 177.324 35.534 177.324 35.054C177.324 34.25 177.432 33.614 177.648 33.146C177.864 32.678 178.17 32.324 178.566 32.084C178.974 31.832 179.454 31.67 180.006 31.598C180.558 31.514 181.17 31.472 181.842 31.472C182.31 31.472 182.79 31.49 183.282 31.526C183.774 31.55 184.236 31.586 184.668 31.634C185.112 31.67 185.478 31.724 185.766 31.796V33.434C185.466 33.386 185.112 33.344 184.704 33.308C184.308 33.272 183.894 33.248 183.462 33.236C183.03 33.212 182.628 33.2 182.256 33.2C181.632 33.2 181.128 33.23 180.744 33.29C180.372 33.338 180.084 33.422 179.88 33.542C179.64 33.674 179.496 33.86 179.448 34.1C179.4 34.328 179.376 34.616 179.376 34.964C179.376 35.372 179.4 35.69 179.448 35.918C179.508 36.134 179.634 36.284 179.826 36.368C180.03 36.452 180.336 36.518 180.744 36.566L183.696 36.908C184.068 36.944 184.404 37.004 184.704 37.088C185.004 37.16 185.268 37.286 185.496 37.466C185.736 37.646 185.922 37.904 186.054 38.24C186.138 38.408 186.198 38.6 186.234 38.816C186.282 39.032 186.318 39.272 186.342 39.536C186.378 39.788 186.396 40.076 186.396 40.4C186.396 41.084 186.324 41.654 186.18 42.11C186.048 42.566 185.856 42.932 185.604 43.208C185.364 43.472 185.064 43.676 184.704 43.82C184.344 43.952 183.948 44.036 183.516 44.072C183.084 44.12 182.616 44.144 182.112 44.144Z" fill="#3A3A3A"/>
</svg>
