<svg width="188" height="76" viewBox="0 0 188 76" fill="none" xmlns="http://www.w3.org/2000/svg">
<path d="M61.8092 60.1887H49.4691C49.0385 60.1887 48.7516 60.0491 48.6081 59.6306L34.1155 30.4742C33.8285 30.0556 34.1155 29.4976 34.546 29.2186C34.6895 29.2186 34.833 29.0791 34.9765 29.0791H47.7472C48.1776 29.0791 48.4645 29.2186 48.6081 29.6371L62.6701 58.9332C62.9572 59.3517 62.6701 59.9097 62.2397 60.1887C62.0962 60.1887 61.9527 60.1887 61.8092 60.1887Z" fill="url(#paint0_linear_552_1344)"/>
<path d="M68.6964 17.0816L69.4138 17.3606C69.8443 17.5002 70.1313 18.0582 69.8443 18.6162L66.257 26.4284C66.1135 26.847 65.5395 27.126 64.9656 26.847L64.2482 26.5679C63.8176 26.4284 63.5307 25.8704 63.8176 25.3124L67.4049 17.5002C67.692 17.0816 68.2659 16.9421 68.6964 17.0816Z" fill="url(#paint1_linear_552_1344)"/>
<path d="M72.4283 21.8242L73.1458 22.1033C73.5762 22.2428 73.8632 22.8008 73.5762 23.3588L68.9846 33.5426C68.8411 33.9611 68.2671 34.2402 67.6932 33.9611L66.9757 33.6822C66.5452 33.5426 66.2582 32.9846 66.5452 32.4266L71.1369 22.2428C71.4239 21.8242 71.9978 21.5452 72.4283 21.8242Z" fill="url(#paint2_linear_552_1344)"/>
<path d="M74.7233 16.8023L75.4407 17.0813C75.8712 17.2208 76.1581 17.7788 75.8712 18.3369L75.5842 19.0344C75.4407 19.4529 74.8667 19.7319 74.2927 19.4529L73.5753 19.1738C73.1448 19.0344 72.8579 18.4764 73.1448 17.9184L73.4318 17.2208C73.7188 16.8023 74.1493 16.6628 74.7233 16.8023Z" fill="url(#paint3_linear_552_1344)"/>
<path d="M69.9877 37.728L70.8486 35.7749C70.9921 35.3564 70.8486 34.7984 70.4181 34.5193L69.5572 34.1008C69.1267 33.9614 68.6962 34.1008 68.4093 34.5193L67.1178 37.449L64.822 42.7501C64.6785 43.1687 64.1045 43.4477 63.5305 43.1687L62.8132 42.8896C62.3826 42.7501 62.0957 42.1922 62.3826 41.6342L64.6785 36.4724L67.8353 29.6367C67.9788 29.2182 67.8353 28.6601 67.4049 28.3812L66.6874 28.1021C66.2569 27.9626 65.683 28.1021 65.396 28.5206L62.2392 35.3564L61.2348 37.728C61.0913 38.1465 60.5173 38.4255 60.0869 38.1465L59.3694 37.8675C58.9389 37.728 58.365 37.8674 58.0779 38.286L48.7511 58.7932C48.6076 59.2117 48.7511 59.7697 49.1815 60.0488C49.4682 60.2262 49.4685 60.1883 49.612 60.1883H61.9522C62.3826 60.1883 62.6696 59.9092 62.8132 59.6303L71.8531 40.2391C71.9965 39.9601 71.8531 39.5415 71.566 39.4021L70.5616 38.9835C69.9877 38.8441 69.8442 38.286 69.9877 37.728Z" fill="url(#paint4_linear_552_1344)"/>
<path d="M73.8625 31.5904L74.58 31.8693C75.0105 32.0089 75.2975 32.5669 75.0105 33.1249L74.006 35.357C73.8625 35.7755 73.2886 36.0545 72.7146 35.7755L71.9971 35.4965C71.5667 35.357 71.2797 34.799 71.5667 34.2409L72.5711 32.0088C72.8581 31.5904 73.4321 31.3113 73.8625 31.5904Z" fill="url(#paint5_linear_552_1344)"/>
<path d="M62.2395 31.4497L62.957 31.7287C63.3875 31.8682 63.6745 32.4263 63.3875 32.9843L62.383 35.2164C62.2395 35.7744 61.6656 35.9139 61.2351 35.7744L60.5176 35.4953C60.0872 35.3559 59.8002 34.7979 60.0872 34.2398L61.0916 32.0078C61.2351 31.4497 61.8091 31.3102 62.2395 31.4497Z" fill="url(#paint6_linear_552_1344)"/>
<path d="M77.736 22.94L78.4535 23.219C78.8839 23.3585 79.1709 23.9165 78.8839 24.4746L76.7316 29.0782C76.5881 29.4967 76.0141 29.7757 75.4402 29.4967L74.7227 29.2177C74.2923 29.0782 74.0053 28.5202 74.2923 27.9622L76.4446 23.3585C76.7316 22.94 77.3055 22.8005 77.736 22.94Z" fill="url(#paint7_linear_552_1344)"/>
<path d="M103.18 44.5V32.72H99V30.74H109.6V32.72H105.44V44.5H103.18ZM115.242 44.5L110.562 30.74H112.902L116.722 42.02H116.822L120.602 30.74H122.882L118.202 44.5H115.242ZM125.203 44.5V30.74H131.743C132.65 30.74 133.377 30.88 133.923 31.16C134.47 31.4267 134.87 31.82 135.123 32.34C135.377 32.8467 135.503 33.4667 135.503 34.2C135.503 34.8133 135.417 35.34 135.243 35.78C135.083 36.22 134.83 36.58 134.483 36.86C134.137 37.1267 133.69 37.32 133.143 37.44V37.52C133.783 37.64 134.283 37.8467 134.643 38.14C135.017 38.4333 135.277 38.8067 135.423 39.26C135.57 39.7133 135.643 40.2467 135.643 40.86C135.643 41.38 135.583 41.8667 135.463 42.32C135.343 42.76 135.137 43.14 134.843 43.46C134.563 43.78 134.17 44.0333 133.663 44.22C133.157 44.4067 132.51 44.5 131.723 44.5H125.203ZM127.463 42.6H131.043C131.657 42.6 132.13 42.54 132.463 42.42C132.797 42.2867 133.03 42.0733 133.163 41.78C133.31 41.4733 133.383 41.0667 133.383 40.56C133.383 40.04 133.31 39.6333 133.163 39.34C133.017 39.0333 132.77 38.82 132.423 38.7C132.09 38.5667 131.63 38.5 131.043 38.5H127.463V42.6ZM127.463 36.58H130.963C131.51 36.58 131.943 36.5133 132.263 36.38C132.597 36.2467 132.843 36.04 133.003 35.76C133.163 35.4667 133.243 35.0933 133.243 34.64C133.243 34.1333 133.177 33.74 133.043 33.46C132.91 33.1667 132.683 32.96 132.363 32.84C132.043 32.72 131.577 32.66 130.963 32.66H127.463V36.58ZM138.778 44.5V30.74H147.938V32.66H141.038V36.6H146.998V38.52H141.038V42.58H147.938V44.5H138.778ZM153.746 44.5V32.72H149.566V30.74H160.166V32.72H156.006V44.5H153.746Z" fill="#3A3A3A"/>
<defs>
<linearGradient id="paint0_linear_552_1344" x1="37.9596" y1="25.2266" x2="49.5885" y2="47.7724" gradientUnits="userSpaceOnUse">
<stop stop-color="#FECF08"/>
<stop offset="1" stop-color="#F9A11E"/>
</linearGradient>
<linearGradient id="paint1_linear_552_1344" x1="49.5231" y1="57.093" x2="55.9162" y2="43.4713" gradientUnits="userSpaceOnUse">
<stop stop-color="#FECF08"/>
<stop offset="1" stop-color="#F9A11E"/>
</linearGradient>
<linearGradient id="paint2_linear_552_1344" x1="54.4277" y1="59.4672" x2="60.8285" y2="45.8258" gradientUnits="userSpaceOnUse">
<stop stop-color="#FECF08"/>
<stop offset="1" stop-color="#F9A11E"/>
</linearGradient>
<linearGradient id="paint3_linear_552_1344" x1="54.4812" y1="58.4747" x2="60.7623" y2="45.096" gradientUnits="userSpaceOnUse">
<stop stop-color="#FECF08"/>
<stop offset="1" stop-color="#F9A11E"/>
</linearGradient>
<linearGradient id="paint4_linear_552_1344" x1="55.4449" y1="60.6567" x2="64.492" y2="38.7819" gradientUnits="userSpaceOnUse">
<stop stop-color="#FECF08"/>
<stop offset="1" stop-color="#F9A11E"/>
</linearGradient>
<linearGradient id="paint5_linear_552_1344" x1="58.949" y1="62.3028" x2="65.369" y2="48.7744" gradientUnits="userSpaceOnUse">
<stop stop-color="#FECF08"/>
<stop offset="1" stop-color="#F9A11E"/>
</linearGradient>
<linearGradient id="paint6_linear_552_1344" x1="50.009" y1="57.1588" x2="56.3479" y2="43.6526" gradientUnits="userSpaceOnUse">
<stop stop-color="#FECF08"/>
<stop offset="1" stop-color="#F9A11E"/>
</linearGradient>
<linearGradient id="paint7_linear_552_1344" x1="59.1669" y1="61.4846" x2="65.5407" y2="47.9028" gradientUnits="userSpaceOnUse">
<stop stop-color="#FECF08"/>
<stop offset="1" stop-color="#F9A11E"/>
</linearGradient>
</defs>
</svg>
