<svg width="188" height="76" viewBox="0 0 188 76" fill="none" xmlns="http://www.w3.org/2000/svg">
<path fill-rule="evenodd" clip-rule="evenodd" d="M26.8434 12.4579C29.2763 8.44236 33.6656 11.522 35.5561 13.5638C37.4465 15.6056 43.3646 22.3265 45.2551 25.0489C47.1456 27.7713 52.2417 33.3011 53.8034 34.5772C54.1322 31.4295 55.3651 25.0489 57.9131 18.5832C60.4612 12.1176 64.0778 12.4579 66.297 13.5638C68.5163 14.6698 70.7356 20.7952 67.9409 29.4727C64.2422 40.4473 59.4748 41.1279 57.2556 41.213C55.9405 49.5843 51.5567 59.5607 49.5292 63.5025C48.4059 65.5443 44.6633 67.7902 38.6795 60.4398C32.6957 53.0894 28.2955 38.4339 26.8434 32.025C25.8296 27.1757 24.4104 16.4734 26.8434 12.4579ZM52.4061 40.8727C51.8581 44.4175 50.0435 52.0673 48.9256 54.9939C47.5283 58.6521 46.7346 58.6533 45.0907 57.1219C43.4468 55.5906 39.8302 51.9324 36.4602 39.3414C35.9454 37.4181 35.4805 35.7111 35.0611 34.1711C32.7346 25.6295 31.8071 22.2239 31.5285 15.5206C31.4627 14.5677 32.4044 15.0089 32.8436 15.7758C35.6657 20.0579 41.7043 29.1325 43.2824 31.1742C43.5931 31.5762 43.9038 31.995 44.227 32.4307C45.9559 34.7616 48.0433 37.5756 52.4061 40.8727ZM63.749 16.6265C61.4475 19.485 58.8995 30.4086 57.9131 35.513C63.5846 30.5787 65.5573 18.5832 65.5573 16.7967C65.5573 15.0101 64.3244 15.8608 63.749 16.6265Z" fill="url(#paint0_linear_554_4264)"/>
<path d="M95.14 34L90.46 20.24H92.8L96.62 31.52H96.72L100.5 20.24H102.78L98.1 34H95.14ZM105.102 34V20.24H107.362V34H105.102ZM111.02 34V20.24H117.56C118.466 20.24 119.193 20.38 119.74 20.66C120.286 20.9267 120.686 21.32 120.94 21.84C121.193 22.3467 121.32 22.9667 121.32 23.7C121.32 24.3133 121.233 24.84 121.06 25.28C120.9 25.72 120.646 26.08 120.3 26.36C119.953 26.6267 119.506 26.82 118.96 26.94V27.02C119.6 27.14 120.1 27.3467 120.46 27.64C120.833 27.9333 121.093 28.3067 121.24 28.76C121.386 29.2133 121.46 29.7467 121.46 30.36C121.46 30.88 121.4 31.3667 121.28 31.82C121.16 32.26 120.953 32.64 120.66 32.96C120.38 33.28 119.986 33.5333 119.48 33.72C118.973 33.9067 118.326 34 117.54 34H111.02ZM113.28 32.1H116.86C117.473 32.1 117.946 32.04 118.28 31.92C118.613 31.7867 118.846 31.5733 118.98 31.28C119.126 30.9733 119.2 30.5667 119.2 30.06C119.2 29.54 119.126 29.1333 118.98 28.84C118.833 28.5333 118.586 28.32 118.24 28.2C117.906 28.0667 117.446 28 116.86 28H113.28V32.1ZM113.28 26.08H116.78C117.326 26.08 117.76 26.0133 118.08 25.88C118.413 25.7467 118.66 25.54 118.82 25.26C118.98 24.9667 119.06 24.5933 119.06 24.14C119.06 23.6333 118.993 23.24 118.86 22.96C118.726 22.6667 118.5 22.46 118.18 22.34C117.86 22.22 117.393 22.16 116.78 22.16H113.28V26.08ZM124.594 34V20.24H131.014C131.881 20.24 132.581 20.34 133.114 20.54C133.647 20.74 134.047 21.0333 134.314 21.42C134.581 21.7933 134.761 22.2467 134.854 22.78C134.947 23.3 134.994 23.8733 134.994 24.5C134.994 24.9533 134.947 25.4533 134.854 26C134.774 26.5333 134.587 27.0267 134.294 27.48C134.014 27.92 133.567 28.24 132.954 28.44L135.214 34H132.814L130.614 28.38L131.194 28.68C131.101 28.72 130.987 28.7467 130.854 28.76C130.734 28.76 130.587 28.76 130.414 28.76H126.854V34H124.594ZM126.854 26.84H130.054C130.681 26.84 131.174 26.8 131.534 26.72C131.894 26.6267 132.161 26.4867 132.334 26.3C132.507 26.1133 132.614 25.8733 132.654 25.58C132.707 25.2867 132.734 24.9267 132.734 24.5C132.734 24.06 132.707 23.6933 132.654 23.4C132.614 23.0933 132.514 22.8533 132.354 22.68C132.194 22.4933 131.934 22.36 131.574 22.28C131.227 22.2 130.747 22.16 130.134 22.16H126.854V26.84ZM136.768 34L141.688 20.24H144.648L149.568 34H147.228L146.028 30.6H140.228L139.048 34H136.768ZM140.868 28.68H145.368L143.168 22.42H143.068L140.868 28.68ZM97.32 56.16C96.3333 56.16 95.4933 56.1 94.8 55.98C94.12 55.8467 93.5533 55.6267 93.1 55.32C92.6467 55.0133 92.2933 54.5933 92.04 54.06C91.8 53.5267 91.6267 52.86 91.52 52.06C91.4267 51.2467 91.38 50.2667 91.38 49.12C91.38 47.9733 91.4267 47 91.52 46.2C91.6267 45.3867 91.8067 44.7133 92.06 44.18C92.3133 43.6467 92.6667 43.2267 93.12 42.92C93.5733 42.6133 94.14 42.4 94.82 42.28C95.5133 42.1467 96.3467 42.08 97.32 42.08C97.76 42.08 98.24 42.1 98.76 42.14C99.2933 42.18 99.82 42.2333 100.34 42.3C100.86 42.3533 101.333 42.42 101.76 42.5V44.3C101.307 44.2333 100.86 44.18 100.42 44.14C99.98 44.1 99.5733 44.0667 99.2 44.04C98.84 44.0133 98.54 44 98.3 44C97.5 44 96.8267 44.02 96.28 44.06C95.7333 44.0867 95.2867 44.18 94.94 44.34C94.5933 44.5 94.3267 44.7667 94.14 45.14C93.9533 45.5 93.82 46 93.74 46.64C93.6733 47.28 93.64 48.1067 93.64 49.12C93.64 50.0133 93.66 50.7667 93.7 51.38C93.7533 51.98 93.8533 52.48 94 52.88C94.16 53.2667 94.3733 53.56 94.64 53.76C94.92 53.96 95.28 54.1 95.72 54.18C96.1733 54.26 96.7267 54.3 97.38 54.3C97.6333 54.3 97.9 54.2933 98.18 54.28C98.4733 54.2667 98.7467 54.2533 99 54.24C99.2533 54.2133 99.4667 54.1867 99.64 54.16V50.26H96.94V48.38H101.82V55.74C101.367 55.82 100.867 55.8933 100.32 55.96C99.7867 56.0133 99.26 56.06 98.74 56.1C98.22 56.14 97.7467 56.16 97.32 56.16ZM103.878 56L108.798 42.24H111.758L116.678 56H114.338L113.138 52.6H107.338L106.158 56H103.878ZM107.978 50.68H112.478L110.278 44.42H110.178L107.978 50.68ZM118.949 56V42.24H122.029L126.069 52.24H126.169L130.209 42.24H133.289V56H131.109V45.74H131.029L126.869 56H125.269L121.149 45.74H121.069V56H118.949ZM136.977 56V42.24H139.237V56H136.977ZM142.895 56V42.24H145.235L151.535 51.76H151.615V42.24H153.775V56H151.615L145.135 46.18H145.055V56H142.895ZM162.925 56.16C161.939 56.16 161.099 56.1 160.405 55.98C159.725 55.8467 159.159 55.6267 158.705 55.32C158.252 55.0133 157.899 54.5933 157.645 54.06C157.405 53.5267 157.232 52.86 157.125 52.06C157.032 51.2467 156.985 50.2667 156.985 49.12C156.985 47.9733 157.032 47 157.125 46.2C157.232 45.3867 157.412 44.7133 157.665 44.18C157.919 43.6467 158.272 43.2267 158.725 42.92C159.179 42.6133 159.745 42.4 160.425 42.28C161.119 42.1467 161.952 42.08 162.925 42.08C163.365 42.08 163.845 42.1 164.365 42.14C164.899 42.18 165.425 42.2333 165.945 42.3C166.465 42.3533 166.939 42.42 167.365 42.5V44.3C166.912 44.2333 166.465 44.18 166.025 44.14C165.585 44.1 165.179 44.0667 164.805 44.04C164.445 44.0133 164.145 44 163.905 44C163.105 44 162.432 44.02 161.885 44.06C161.339 44.0867 160.892 44.18 160.545 44.34C160.199 44.5 159.932 44.7667 159.745 45.14C159.559 45.5 159.425 46 159.345 46.64C159.279 47.28 159.245 48.1067 159.245 49.12C159.245 50.0133 159.265 50.7667 159.305 51.38C159.359 51.98 159.459 52.48 159.605 52.88C159.765 53.2667 159.979 53.56 160.245 53.76C160.525 53.96 160.885 54.1 161.325 54.18C161.779 54.26 162.332 54.3 162.985 54.3C163.239 54.3 163.505 54.2933 163.785 54.28C164.079 54.2667 164.352 54.2533 164.605 54.24C164.859 54.2133 165.072 54.1867 165.245 54.16V50.26H162.545V48.38H167.425V55.74C166.972 55.82 166.472 55.8933 165.925 55.96C165.392 56.0133 164.865 56.06 164.345 56.1C163.825 56.14 163.352 56.16 162.925 56.16Z" fill="#3A3A3A"/>
<defs>
<linearGradient id="paint0_linear_554_4264" x1="47.375" y1="10.5" x2="47.375" y2="65.5" gradientUnits="userSpaceOnUse">
<stop stop-color="#C9208E"/>
<stop offset="0.571579" stop-color="#E18F40"/>
<stop offset="1" stop-color="#20BCAD"/>
</linearGradient>
</defs>
</svg>
