<svg width="188" height="76" viewBox="0 0 188 76" fill="none" xmlns="http://www.w3.org/2000/svg">
<path fill-rule="evenodd" clip-rule="evenodd" d="M32.3369 50.1189L9.53977 27.801C9.34316 27.614 9.20845 27.3732 9.15314 27.1101C9.09782 26.8469 9.12446 26.5736 9.22958 26.3255C9.33471 26.0774 9.51346 25.866 9.74263 25.7188C9.9718 25.5717 10.2408 25.4955 10.5147 25.5002H33.3118C34.0637 25.5002 34.6836 26.1083 34.6836 26.8458V49.1637C34.6836 50.3356 33.2228 50.9437 32.3379 50.1189" fill="#3A3A3A"/>
<path fill-rule="evenodd" clip-rule="evenodd" d="M37.9395 50.1189L60.7366 27.801C60.9332 27.614 61.0679 27.3732 61.1232 27.1101C61.1785 26.8469 61.1519 26.5736 61.0468 26.3255C60.9417 26.0774 60.7629 25.866 60.5337 25.7188C60.3046 25.5717 60.0356 25.4955 59.7617 25.5002H36.9646C36.2127 25.5002 35.5928 26.1083 35.5928 26.8458V49.1637C35.5928 50.3356 37.0536 50.9437 37.9385 50.1189" fill="#3A3A3A"/>
<path fill-rule="evenodd" clip-rule="evenodd" d="M64.4786 50.1189L87.2757 27.801C87.4723 27.614 87.607 27.3732 87.6623 27.1101C87.7176 26.8469 87.691 26.5736 87.5858 26.3255C87.4807 26.0774 87.302 25.866 87.0728 25.7188C86.8436 25.5717 86.5746 25.4955 86.3008 25.5002H63.5037C62.7518 25.5002 62.1318 26.1083 62.1318 26.8458V49.1637C62.1318 50.3356 63.5927 50.9437 64.4775 50.1189" fill="#3A3A3A"/>
<path d="M108.619 44L105.415 31.616H107.467L109.951 41.534H110.041L112.759 31.616H114.883L117.637 41.534H117.745L120.103 31.616H122.137L118.933 44H116.449L113.821 34.622H113.749L111.103 44H108.619ZM122.304 44L126.732 31.616H129.396L133.824 44H131.718L130.638 40.94H125.418L124.356 44H122.304ZM125.994 39.212H130.044L128.064 33.578H127.974L125.994 39.212ZM135.113 44V42.362L141.647 33.344H135.311V31.616H144.221V33.218L137.651 42.29H144.311V44H135.113ZM146.838 44V31.616H150.888C151.932 31.616 152.784 31.67 153.444 31.778C154.116 31.874 154.644 32.054 155.028 32.318C155.412 32.582 155.688 32.948 155.856 33.416C156.036 33.884 156.15 34.478 156.198 35.198C156.246 35.918 156.27 36.788 156.27 37.808C156.27 38.828 156.246 39.698 156.198 40.418C156.15 41.138 156.036 41.732 155.856 42.2C155.688 42.668 155.412 43.034 155.028 43.298C154.644 43.562 154.116 43.748 153.444 43.856C152.784 43.952 151.932 44 150.888 44H146.838ZM148.872 42.272H150.708C151.38 42.272 151.932 42.26 152.364 42.236C152.808 42.2 153.156 42.116 153.408 41.984C153.66 41.84 153.846 41.612 153.966 41.3C154.086 40.988 154.158 40.55 154.182 39.986C154.218 39.41 154.236 38.684 154.236 37.808C154.236 36.932 154.218 36.212 154.182 35.648C154.158 35.084 154.08 34.646 153.948 34.334C153.828 34.01 153.636 33.782 153.372 33.65C153.12 33.506 152.778 33.422 152.346 33.398C151.914 33.362 151.368 33.344 150.708 33.344H148.872V42.272ZM157.917 44L162.345 31.616H165.009L169.437 44H167.331L166.251 40.94H161.031L159.969 44H157.917ZM161.607 39.212H165.657L163.677 33.578H163.587L161.607 39.212ZM171.482 44V31.616H173.588L179.258 40.184H179.33V31.616H181.274V44H179.33L173.498 35.162H173.426V44H171.482Z" fill="#3A3A3A"/>
</svg>
