<svg width="188" height="76" viewBox="0 0 188 76" fill="none" xmlns="http://www.w3.org/2000/svg">
<path d="M60.3428 48.0188C60.6124 47.9534 60.7577 47.649 60.696 47.3661C60.6336 47.1486 60.6336 46.9964 60.6336 46.801C60.6336 46.5181 60.6336 46.3006 60.696 46.0837C60.7577 45.8661 60.6336 45.5832 60.4258 45.5179C57.8088 44.2133 56.3138 41.7777 56.3138 39.0384C56.3138 37.0158 57.0613 35.2329 58.5152 33.7976C60.0314 32.3629 62.025 31.5796 64.4966 31.5796C66.22 31.5796 67.7981 32.0147 69.086 32.7974C69.1483 32.8627 69.2937 32.8627 69.4391 32.8627L74.5276 31.7756C74.7972 31.7102 75.0674 31.9278 75.0674 32.2754L75.2128 36.4506C75.2128 36.6682 75.0674 36.8857 74.7972 36.9504L72.866 37.3202C72.5958 37.3855 72.4504 37.6031 72.4504 37.886C72.5128 38.3204 72.5958 38.6686 72.5958 39.0384C72.5958 40.9729 71.9107 42.6264 70.4774 44.0617C69.1689 45.3657 67.5285 46.1484 65.3889 46.279C65.1193 46.279 64.9739 46.4966 64.9739 46.7794V47.1492C65.0363 47.3661 65.1817 47.5837 65.4519 47.5837C67.9853 47.7359 70.0413 48.3017 71.7035 49.3019C73.4269 50.389 74.2369 51.9543 74.2369 54.0416C74.2369 56.1296 73.3439 57.7818 71.4951 58.8474C69.6469 59.9345 67.3001 60.5002 64.4136 60.5002C61.4641 60.5002 59.1173 59.9998 57.2691 58.9127C55.4827 57.8256 54.5273 56.2596 54.5273 54.0201C54.7145 50.9757 56.8535 48.9537 60.3428 48.0188V48.0188ZM64.5378 55.3463C67.2795 55.3463 68.6498 54.9118 68.6498 54.0423C68.6498 53.1067 67.2795 52.6723 64.5378 52.6723C61.7967 52.6723 60.4258 53.1067 60.4258 54.0423C60.4882 54.9334 61.859 55.3463 64.5378 55.3463ZM66.947 39.0384C66.947 37.6684 66.1164 36.7335 64.5378 36.7335C61.3811 36.5813 61.2357 41.4733 64.5378 41.1257C65.9711 41.191 66.947 40.4077 66.947 39.0384Z" fill="#3A3A3A"/>
<path d="M30.4356 19.7722L30.2279 21.4251C29.9583 23.5777 31.5157 25.4475 33.5512 25.4475H53.4884L30.2903 33.559C29.0654 33.9941 28.2761 35.0596 28.0683 36.3643L27.1336 42.9091L26.7804 45.2787C26.5108 47.4313 28.0683 49.3017 30.1037 49.3017H52.0764C53.6962 49.3017 55.1295 47.9971 55.3991 46.2789L55.6068 44.6267C55.877 42.474 54.3196 40.6036 52.2842 40.6036H33.7165L55.4203 32.9932C56.6451 32.5581 57.4345 31.4926 57.6422 30.1879L58.577 23.6424L58.9919 20.7724C59.2621 18.6198 57.7052 16.75 55.6698 16.75H33.6965C32.8948 16.7518 32.1212 17.0597 31.5208 17.6161C30.9205 18.1726 30.5346 18.9392 30.4356 19.7722V19.7722Z" fill="#EF7D0F"/>
<path d="M93.5 44.5V42.68L100.76 32.66H93.72V30.74H103.62V32.52L96.32 42.6H103.72V44.5H93.5ZM106.528 44.5V30.74H108.788V44.5H106.528ZM112.445 44.5V30.74H114.705V42.52H120.805V44.5H112.445ZM123.227 44.5V30.74H125.487V42.52H131.587V44.5H123.227ZM134.008 44.5V30.74H136.268V44.5H134.008ZM145.186 44.66C144.093 44.66 143.193 44.6 142.486 44.48C141.779 44.3467 141.219 44.1267 140.806 43.82C140.393 43.5133 140.093 43.0933 139.906 42.56C139.719 42.0267 139.599 41.36 139.546 40.56C139.493 39.7467 139.466 38.7667 139.466 37.62C139.466 36.4733 139.493 35.5 139.546 34.7C139.599 33.8867 139.719 33.2133 139.906 32.68C140.093 32.1467 140.393 31.7267 140.806 31.42C141.219 31.1133 141.779 30.9 142.486 30.78C143.193 30.6467 144.093 30.58 145.186 30.58C146.279 30.58 147.179 30.6467 147.886 30.78C148.606 30.9 149.173 31.1133 149.586 31.42C149.999 31.7267 150.299 32.1467 150.486 32.68C150.686 33.2133 150.813 33.8867 150.866 34.7C150.919 35.5 150.946 36.4733 150.946 37.62C150.946 38.7667 150.919 39.7467 150.866 40.56C150.813 41.36 150.686 42.0267 150.486 42.56C150.299 43.0933 149.999 43.5133 149.586 43.82C149.173 44.1267 148.606 44.3467 147.886 44.48C147.179 44.6 146.279 44.66 145.186 44.66ZM145.186 42.74C145.853 42.74 146.399 42.72 146.826 42.68C147.266 42.64 147.606 42.54 147.846 42.38C148.099 42.22 148.286 41.96 148.406 41.6C148.526 41.2267 148.599 40.7267 148.626 40.1C148.666 39.46 148.686 38.6333 148.686 37.62C148.686 36.6067 148.666 35.7867 148.626 35.16C148.599 34.52 148.526 34.02 148.406 33.66C148.286 33.2867 148.099 33.02 147.846 32.86C147.606 32.7 147.266 32.6 146.826 32.56C146.399 32.52 145.853 32.5 145.186 32.5C144.533 32.5 143.993 32.52 143.566 32.56C143.139 32.6 142.799 32.7 142.546 32.86C142.293 33.02 142.106 33.2867 141.986 33.66C141.879 34.02 141.806 34.52 141.766 35.16C141.739 35.7867 141.726 36.6067 141.726 37.62C141.726 38.6333 141.739 39.46 141.766 40.1C141.806 40.7267 141.879 41.2267 141.986 41.6C142.106 41.96 142.293 42.22 142.546 42.38C142.799 42.54 143.139 42.64 143.566 42.68C143.993 42.72 144.533 42.74 145.186 42.74ZM154.164 44.5V30.74H156.504L162.804 40.26H162.884V30.74H165.044V44.5H162.884L156.404 34.68H156.324V44.5H154.164Z" fill="#3A3A3A"/>
</svg>
