<svg width="188" height="76" viewBox="0 0 188 76" fill="none" xmlns="http://www.w3.org/2000/svg">
<path d="M60.4879 23.9297C61.7445 22.3125 62.642 20.1563 62.3728 18C60.4879 18.0898 58.244 19.2578 56.8977 20.7852C55.7308 22.1328 54.6538 24.3789 54.923 26.4453C57.0772 26.7149 59.1415 25.5469 60.4879 23.9297ZM62.3728 26.9844C59.3211 26.8047 56.7181 28.6914 55.282 28.6914C53.846 28.6914 51.6021 27.0742 49.1787 27.0742C46.0372 27.1641 43.165 28.8711 41.5494 31.7461C38.3182 37.4063 40.6519 45.7618 43.8831 50.3438C45.4089 52.5899 47.2938 55.1055 49.7172 55.0157C52.0508 54.9258 52.9484 53.4883 55.7308 53.4883C58.5133 53.4883 59.3211 55.0157 61.8342 54.9258C64.3474 54.836 65.963 52.6797 67.4888 50.3438C69.2839 47.7383 70.002 45.2227 70.002 45.1329C69.9122 45.043 65.0654 43.2461 65.0654 37.6758C64.9757 33.0039 68.8352 30.7578 69.0147 30.668C66.9503 27.4336 63.5396 27.0742 62.3728 26.9844Z" fill="black"/>
<path d="M88.7612 20.6054C95.4031 20.6054 99.9807 25.1874 99.9807 31.7461C99.9807 38.3945 95.3134 42.9765 88.5817 42.9765H81.3115V54.5664H76.0159V20.6054H88.7612ZM87.3251 38.5742C91.9027 38.5742 94.5056 36.0586 94.5056 31.8359C94.5056 27.5234 91.9027 25.0976 87.3251 25.0976H81.2217V38.5742H87.3251ZM101.327 47.6484C101.327 43.3359 104.648 40.6406 110.572 40.2812L117.393 39.9218V38.0351C117.393 35.25 115.508 33.6328 112.457 33.6328C109.495 33.6328 107.7 35.0703 107.251 37.2265H102.404C102.673 32.7343 106.533 29.4101 112.636 29.4101C118.65 29.4101 122.509 32.5546 122.509 37.5859V54.6562H117.663V50.6133H117.573C116.137 53.3984 112.995 55.1055 109.764 55.1055C104.738 55.1055 101.327 52.0508 101.327 47.6484ZM117.393 45.4023V43.4258L111.29 43.7851C108.238 43.9648 106.533 45.3125 106.533 47.4687C106.533 49.625 108.328 51.0625 111.021 51.0625C114.611 51.0625 117.393 48.6367 117.393 45.4023ZM126.997 63.8203V59.6875C127.356 59.7773 128.254 59.7773 128.613 59.7773C130.946 59.7773 132.203 58.7891 133.011 56.2734C133.011 56.1836 133.46 54.7461 133.46 54.7461L124.484 29.9492H129.959L136.242 50.164H136.332L142.615 29.9492H148L138.755 56.0937C136.601 62.1133 134.178 64 129.062 64C128.703 63.9102 127.446 63.9102 126.997 63.8203Z" fill="black"/>
</svg>
