<svg width="188" height="76" viewBox="0 0 188 76" fill="none" xmlns="http://www.w3.org/2000/svg">
<path d="M55.5982 41.3337C53.7693 48.6693 46.3396 53.1336 39.0032 51.3043C31.6697 49.4755 27.2054 42.0453 29.0351 34.7102C30.8631 27.3738 38.2928 22.909 45.6271 24.7379C52.9631 26.5667 57.427 33.9977 55.5982 41.3337Z" fill="#F7931A"/>
<path d="M48.3518 36.0706C48.6243 34.2486 47.2371 33.2691 45.3402 32.6157L45.9555 30.1475L44.4531 29.7731L43.8541 32.1762C43.4591 32.0778 43.0535 31.985 42.6504 31.893L43.2537 29.474L41.7522 29.0996L41.1364 31.5669C40.8095 31.4925 40.4886 31.4189 40.1771 31.3414L40.1788 31.3337L38.1069 30.8164L37.7072 32.421C37.7072 32.421 38.8219 32.6765 38.7984 32.6923C39.4069 32.8442 39.5168 33.2469 39.4984 33.5661L38.7975 36.3778C38.8394 36.3885 38.8938 36.4039 38.9537 36.4279C38.9036 36.4155 38.8501 36.4018 38.7949 36.3885L37.8125 40.3274C37.738 40.5123 37.5493 40.7895 37.124 40.6843C37.139 40.7061 36.032 40.4117 36.032 40.4117L35.2861 42.1314L37.2412 42.6188C37.6049 42.71 37.9614 42.8054 38.3123 42.8953L37.6905 45.3916L39.1912 45.7661L39.8069 43.2962C40.2169 43.4075 40.6148 43.5102 41.0042 43.6069L40.3906 46.0652L41.893 46.4396L42.5147 43.9479C45.0766 44.4327 47.003 44.2372 47.8139 41.9201C48.4673 40.0544 47.7814 38.9782 46.4335 38.2765C47.4151 38.0501 48.1545 37.4044 48.3518 36.0706ZM44.9191 40.8841C44.4548 42.7498 41.3136 41.7412 40.2952 41.4883L41.1202 38.181C42.1386 38.4352 45.4044 38.9384 44.9191 40.8841ZM45.3838 36.0436C44.9602 37.7407 42.3457 36.8785 41.4976 36.6671L42.2456 33.6675C43.0937 33.8789 45.825 34.2734 45.3838 36.0436Z" fill="white"/>
<path d="M68.7507 32.6148C69.8611 32.6148 70.8204 32.8138 71.6266 33.2044C72.4366 33.599 73.105 34.1304 73.6412 34.7988C74.1701 35.4706 74.5638 36.2558 74.8179 37.1557C75.0704 38.0582 75.197 39.0282 75.197 40.0667C75.197 41.662 74.9048 43.1691 74.3147 44.5897C73.7246 46.0125 72.924 47.2466 71.9056 48.2992C70.8881 49.3506 69.6865 50.1794 68.3009 50.7917C66.9175 51.4045 65.4134 51.7109 63.7985 51.7109C63.5897 51.7109 63.2226 51.7049 62.704 51.6942C62.1853 51.6835 61.5893 51.63 60.9217 51.5397C60.2499 51.446 59.5396 51.3074 58.7895 51.1217C58.0398 50.9394 57.3278 50.6839 56.6572 50.3596L62.653 25.1663L68.0232 24.334L65.8764 33.2742C66.336 33.0671 66.799 32.9066 67.2611 32.7898C67.7237 32.6747 68.2201 32.6148 68.7507 32.6148ZM64.2461 47.4507C65.0548 47.4507 65.817 47.2517 66.5328 46.861C67.2509 46.4699 67.8705 45.9419 68.3895 45.2842C68.9086 44.6235 69.3193 43.8794 69.6189 43.048C69.9184 42.2165 70.0699 41.3492 70.0699 40.4467C70.0699 39.338 69.8846 38.4732 69.5153 37.8481C69.1461 37.2255 68.4627 36.9122 67.4704 36.9122C67.1452 36.9122 66.7262 36.9743 66.2068 37.0851C65.6856 37.2028 65.2192 37.4471 64.8011 37.8147L62.5152 47.309C62.653 47.3334 62.775 47.3565 62.879 47.3784C62.9808 47.4019 63.0933 47.4186 63.2055 47.4301C63.324 47.4434 63.4596 47.4502 63.6235 47.4502C63.7874 47.4502 63.9924 47.4507 64.2461 47.4507Z" fill="#4D4D4D"/>
<path d="M80.768 51.2266H75.6387L79.9703 32.9991H85.1347L80.768 51.2266ZM83.2639 30.7783C82.548 30.7783 81.8989 30.5652 81.323 30.1382C80.7423 29.7137 80.4547 29.0603 80.4547 28.1796C80.4547 27.6953 80.5532 27.2408 80.7483 26.8121C80.9464 26.3842 81.2053 26.0157 81.5296 25.7025C81.8536 25.3918 82.2288 25.1437 82.655 24.9567C83.0838 24.7727 83.5399 24.6807 84.026 24.6807C84.7415 24.6807 85.3872 24.8938 85.9653 25.3208C86.5412 25.75 86.8309 26.4034 86.8309 27.2793C86.8309 27.7654 86.733 28.2216 86.5361 28.6495C86.3406 29.0774 86.0817 29.4458 85.7573 29.759C85.436 30.0701 85.0573 30.3174 84.6319 30.5027C84.2028 30.6897 83.7483 30.7783 83.2639 30.7783Z" fill="#4D4D4D"/>
<path d="M89.6286 28.4587L95.0009 27.6265L93.6817 32.9992H99.4353L98.3964 37.2261H92.6774L91.1541 43.6019C91.0137 44.1333 90.9341 44.6297 90.9119 45.091C90.8866 45.5544 90.9453 45.9523 91.0839 46.2874C91.2217 46.6233 91.4694 46.8822 91.8289 47.0653C92.1866 47.2515 92.6988 47.3452 93.3706 47.3452C93.9239 47.3452 94.4631 47.2925 94.9842 47.1881C95.5024 47.0854 96.0275 46.9425 96.5589 46.7555L96.9415 50.7076C96.2483 50.9618 95.4977 51.1805 94.689 51.3645C93.879 51.551 92.92 51.6409 91.8118 51.6409C90.2182 51.6409 88.9829 51.4043 88.1027 50.9331C87.2238 50.4586 86.6025 49.8103 86.2306 48.9896C85.8639 48.1719 85.7 47.2292 85.7458 46.1671C85.7933 45.1025 85.9537 43.9835 86.2306 42.8051L89.6286 28.4587Z" fill="#4D4D4D"/>
<path d="M99.209 43.95C99.209 42.38 99.4632 40.8995 99.9711 39.5135C100.478 38.1263 101.209 36.9131 102.156 35.8721C103.101 34.8361 104.251 34.0154 105.606 33.4129C106.954 32.8138 108.463 32.5117 110.126 32.5117C111.167 32.5117 112.097 32.6101 112.915 32.8074C113.737 33.0064 114.48 33.2635 115.152 33.5862L113.383 37.6085C112.921 37.4211 112.442 37.2559 111.946 37.1061C111.449 36.9534 110.843 36.8798 110.127 36.8798C108.414 36.8798 107.061 37.4698 106.054 38.6462C105.05 39.8233 104.545 41.4079 104.545 43.3955C104.545 44.5735 104.799 45.526 105.309 46.2547C105.817 46.9834 106.754 47.3459 108.115 47.3459C108.787 47.3459 109.435 47.2757 110.056 47.1388C110.682 47.0001 111.234 46.8256 111.721 46.6193L112.104 50.7426C111.455 50.9942 110.74 51.2214 109.955 51.4204C109.168 51.6125 108.232 51.7122 107.147 51.7122C105.714 51.7122 104.5 51.5025 103.508 51.0896C102.515 50.6703 101.695 50.1136 101.049 49.4084C100.399 48.7015 99.933 47.8761 99.6446 46.9287C99.3562 45.9822 99.209 44.9877 99.209 43.95Z" fill="#4D4D4D"/>
<path d="M121.994 51.7112C120.769 51.7112 119.706 51.5247 118.804 51.1554C117.905 50.7861 117.16 50.2679 116.57 49.5961C115.98 48.9277 115.539 48.1357 115.236 47.223C114.934 46.3107 114.788 45.3004 114.788 44.1934C114.788 42.8048 115.011 41.4167 115.462 40.0324C115.91 38.6452 116.575 37.3987 117.456 36.2909C118.33 35.1813 119.408 34.2741 120.677 33.5668C121.945 32.8642 123.403 32.5107 125.041 32.5107C126.243 32.5107 127.301 32.6977 128.215 33.067C129.125 33.4354 129.875 33.9579 130.468 34.6263C131.054 35.2981 131.499 36.0867 131.799 37.0007C132.101 37.9113 132.25 38.9242 132.25 40.032C132.25 41.4163 132.03 42.8044 131.593 44.193C131.156 45.5747 130.508 46.8241 129.652 47.9346C128.798 49.0424 127.73 49.9491 126.447 50.6535C125.166 51.3578 123.68 51.7112 121.994 51.7112ZM124.557 36.8792C123.797 36.8792 123.125 37.1 122.549 37.5361C121.971 37.9772 121.486 38.5318 121.095 39.2006C120.7 39.8724 120.406 40.605 120.208 41.4013C120.012 42.1994 119.916 42.9538 119.916 43.6705C119.916 44.8271 120.102 45.7279 120.469 46.3761C120.841 47.021 121.509 47.3453 122.48 47.3453C123.243 47.3453 123.911 47.1263 124.49 46.6855C125.065 46.2478 125.55 45.6928 125.944 45.0227C126.337 44.3543 126.633 43.6196 126.831 42.822C127.025 42.0265 127.124 41.2678 127.124 40.5524C127.124 39.3987 126.938 38.4958 126.568 37.8484C126.198 37.2036 125.527 36.8792 124.557 36.8792Z" fill="#4D4D4D"/>
<path d="M137.841 51.2266H132.707L137.039 32.9991H142.206L137.841 51.2266ZM140.333 30.7783C139.617 30.7783 138.969 30.5652 138.393 30.1382C137.816 29.7137 137.526 29.0603 137.526 28.1796C137.526 27.6953 137.625 27.2408 137.821 26.8121C138.016 26.3842 138.277 26.0157 138.601 25.7025C138.924 25.3918 139.302 25.1437 139.728 24.9567C140.154 24.7727 140.61 24.6807 141.094 24.6807C141.812 24.6807 142.459 24.8938 143.036 25.3208C143.613 25.75 143.905 26.4034 143.905 27.2793C143.905 27.7654 143.801 28.2216 143.607 28.6495C143.414 29.0774 143.153 29.4458 142.83 29.759C142.505 30.0701 142.131 30.3174 141.705 30.5027C141.275 30.6897 140.82 30.7783 140.333 30.7783Z" fill="#4D4D4D"/>
<path d="M145.901 33.8296C146.29 33.7158 146.725 33.5789 147.198 33.43C147.672 33.281 148.202 33.1424 148.795 33.0175C149.38 32.8887 150.042 32.7842 150.769 32.7034C151.496 32.6208 152.324 32.5806 153.244 32.5806C155.95 32.5806 157.814 33.3683 158.844 34.9392C159.873 36.51 160.051 38.6598 159.383 41.3847L157.024 51.2265H151.861L154.147 41.5918C154.287 40.9902 154.396 40.4087 154.477 39.8404C154.559 39.2773 154.554 38.7809 154.459 38.3513C154.368 37.9268 154.153 37.5793 153.819 37.3102C153.481 37.0453 152.97 36.9122 152.276 36.9122C151.607 36.9122 150.927 36.9841 150.232 37.1228L146.87 51.2261H141.705L145.901 33.8296Z" fill="#4D4D4D"/>
</svg>
