<svg width="188" height="76" viewBox="0 0 188 76" fill="none" xmlns="http://www.w3.org/2000/svg">
<path d="M57.5277 39.085C57.5277 39.3877 57.2698 39.6341 56.9618 39.6341H46.059C46.3311 42.281 48.3584 44.6956 51.2095 44.6956C53.158 44.6956 54.6049 43.9635 55.6938 42.4359C55.8514 42.2247 56.0879 42.0909 56.3887 42.2177C56.5534 42.288 56.668 42.4359 56.6968 42.6048C56.7254 42.7809 56.6752 42.8794 56.6251 42.978C55.5291 44.8575 53.3442 45.7797 51.2023 45.7797C47.5346 45.7797 44.9199 42.5555 44.9199 39.1061C44.9199 35.6567 47.5346 32.4327 51.2023 32.4327C54.87 32.4257 57.5205 35.6426 57.5277 39.085ZM56.36 38.5641C56.1236 35.9172 54.0606 33.5027 51.2095 33.5027C48.3584 33.5027 46.3311 35.9172 46.059 38.5641H56.36ZM67.6614 32.6932C67.9766 32.6932 68.2059 32.9607 68.2059 33.2282C68.2059 33.5378 67.9695 33.7632 67.6614 33.7632H64.7387V45.0335C64.7387 45.301 64.5023 45.5685 64.1943 45.5685C63.8791 45.5685 63.6499 45.301 63.6499 45.0335V33.7632H60.8418C60.5266 33.7632 60.2974 33.5308 60.2974 33.2282C60.2974 32.9607 60.5338 32.6932 60.8418 32.6932H63.6499V28.5679C63.6499 28.3074 63.8289 28.0681 64.0869 28.0259C64.4522 27.9695 64.7387 28.216 64.7387 28.5538V32.6932H67.6614ZM83.4266 38.1417V44.9701C83.4266 45.2799 83.1544 45.5051 82.8821 45.5051C82.567 45.5051 82.3377 45.2728 82.3377 44.9701V38.1417C82.3377 35.8398 81.0125 33.5378 78.3978 33.5378C75.0453 33.5378 73.5982 36.4171 73.7917 39.3666C73.7917 39.4441 73.8275 39.789 73.8275 39.8242V44.949C73.8275 45.2094 73.6484 45.4488 73.3905 45.491C73.0252 45.5474 72.7386 45.301 72.7386 44.9631V22.535C72.7386 22.2675 72.975 22 73.283 22C73.5982 22 73.8275 22.2675 73.8275 22.535V35.2274C74.7659 33.5801 76.4422 32.4678 78.3907 32.4678C81.5927 32.4678 83.4266 35.2274 83.4266 38.1417ZM100.567 39.085C100.567 39.3877 100.309 39.6341 100.001 39.6341H89.0909C89.3631 42.281 91.3904 44.6956 94.2415 44.6956C96.1899 44.6956 97.6369 43.9635 98.7258 42.4359C98.8835 42.2247 99.1198 42.0909 99.4206 42.2177C99.5854 42.288 99.7001 42.4359 99.7287 42.6048C99.7574 42.7809 99.7072 42.8794 99.657 42.978C98.561 44.8575 96.3761 45.7797 94.2342 45.7797C90.5665 45.7797 87.9519 42.5555 87.9519 39.1061C87.9519 35.6567 90.5665 32.4327 94.2342 32.4327C97.9092 32.4257 100.56 35.6426 100.567 39.085ZM99.392 38.5641C99.1556 35.9172 97.0925 33.5027 94.2415 33.5027C91.3904 33.5027 89.3631 35.9172 89.0909 38.5641H99.392ZM111.883 33.193C111.883 33.5378 111.69 33.728 111.375 33.7702C108.173 34.2278 106.733 36.7972 106.733 39.789V44.9138C106.733 45.1742 106.554 45.4137 106.296 45.4558C105.931 45.5122 105.644 45.2658 105.644 44.9279V33.2493C105.644 32.9887 105.823 32.7494 106.081 32.7072C106.446 32.6509 106.733 32.8973 106.733 33.2352V35.6146C107.628 34.1221 109.426 32.7002 111.296 32.7002C111.568 32.6932 111.883 32.8902 111.883 33.193ZM128.415 39.085C128.415 39.3877 128.157 39.6341 127.85 39.6341H116.947C117.219 42.281 119.246 44.6956 122.098 44.6956C124.046 44.6956 125.493 43.9635 126.582 42.4359C126.739 42.2247 126.975 42.0909 127.277 42.2177C127.441 42.288 127.556 42.4359 127.584 42.6048C127.614 42.7809 127.564 42.8794 127.513 42.978C126.417 44.8575 124.232 45.7797 122.09 45.7797C118.423 45.7797 115.808 42.5555 115.808 39.1061C115.808 35.6567 118.423 32.4327 122.09 32.4327C125.758 32.4257 128.409 35.6426 128.415 39.085ZM127.248 38.5641C127.011 35.9172 124.948 33.5027 122.098 33.5027C119.246 33.5027 117.219 35.9172 116.947 38.5641H127.248ZM142.92 33.3267V45.0335C142.92 45.3433 142.646 45.5685 142.375 45.5685C142.059 45.5685 141.831 45.3362 141.831 45.0335V42.8089C140.935 44.576 139.33 45.836 137.303 45.836C134.066 45.836 132.267 43.0764 132.267 40.1621V33.2985C132.267 33.031 132.503 32.7635 132.812 32.7635C133.126 32.7635 133.356 33.031 133.356 33.2985V40.1621C133.356 42.4641 134.681 44.766 137.295 44.766C140.964 44.766 141.823 41.3941 141.823 37.6701V33.2985C141.823 32.9887 142.138 32.672 142.525 32.7846C142.761 32.8621 142.92 33.0873 142.92 33.3267ZM168.434 38.0995V44.9631C168.434 45.2728 168.162 45.4981 167.89 45.4981C167.575 45.4981 167.345 45.2658 167.345 44.9631V38.0995C167.345 35.7976 166.02 33.5378 163.405 33.5378C160.124 33.5378 158.878 36.9872 158.878 39.6693V44.9631C158.878 45.2728 158.606 45.4981 158.333 45.4981C158.019 45.4981 157.789 45.2658 157.789 44.9631V38.0995C157.789 35.7976 156.464 33.5378 153.849 33.5378C150.532 33.5378 149.163 36.1073 149.286 39.5215C149.286 39.599 149.322 39.7538 149.286 39.789V44.949C149.286 45.2094 149.107 45.4488 148.842 45.491C148.477 45.5474 148.189 45.301 148.189 44.9631V33.2493C148.189 32.9887 148.369 32.7494 148.627 32.7072C148.992 32.6509 149.278 32.8973 149.278 33.2352V35.1921C150.217 33.5449 151.894 32.4678 153.842 32.4678C156.063 32.4678 157.781 33.8476 158.483 35.8821C159.379 33.8898 161.135 32.4678 163.398 32.4678C166.6 32.4678 168.434 35.1851 168.434 38.0995Z" fill="#6A6E8F"/>
<path opacity="0.6" d="M29.9609 34.0186L20 38.5566L29.9609 44.4518L39.9178 38.5566L29.9609 34.0186Z" fill="#454A75"/>
<path opacity="0.45" d="M20 38.5558L29.9609 44.4509V22L20 38.5558Z" fill="#454A75"/>
<path opacity="0.8" d="M29.9609 22V44.4509L39.9179 38.5558L29.9609 22Z" fill="#454A75"/>
<path opacity="0.45" d="M20 40.4463L29.9609 54.5036V46.3414L20 40.4463Z" fill="#454A75"/>
<path opacity="0.8" d="M29.9609 46.3414V54.5036L39.9257 40.4463L29.9609 46.3414Z" fill="#454A75"/>
</svg>
