<svg width="188" height="76" viewBox="0 0 188 76" fill="none" xmlns="http://www.w3.org/2000/svg">
<path d="M45.2949 24.0006V29.2693H29.0087C21.1949 29.2693 23.8898 34.9855 25.3052 35.609C26.7201 36.2326 27.0007 36.7452 27.0635 37.8515V38.1519C27.0178 39.2903 26.7207 39.7674 25.3052 40.391C23.8904 41.0145 21.1949 46.7312 29.0087 46.7312H45.2949V52H26.2435C23.2944 51.9388 17.5235 50.3067 18.0321 44.2713C18.3807 40.1301 20.2904 40.0088 21.6315 38.1502C21.6315 38.1502 21.6938 38.0443 21.6938 37.9997C21.6938 37.9551 21.6309 37.8498 21.6309 37.8498C20.2904 35.9917 18.3801 35.8705 18.0315 31.7287C17.523 25.6933 23.2944 24.0618 26.2429 24L45.2949 24.0006Z" fill="#03C5D3"/>
<path d="M43.5126 32.9821V36.1702H30.3949C27.6292 36.1702 27.6492 32.9821 30.3949 32.9821H43.5126ZM43.5138 39.9802V43.1684H30.3955C27.6298 43.1684 27.6498 39.9808 30.3955 39.9808L43.5138 39.9802Z" fill="#03C5D3"/>
<path d="M57.2041 45.0599C55.5304 45.0599 53.9161 44.5371 52.8612 43.4919C51.8132 42.4467 51.4749 41.0549 51.4749 39.3146V39.0143C51.4749 37.8473 51.5104 36.8061 51.9538 35.8896C52.3967 34.9657 53.0224 34.2569 53.8315 33.7632C54.6469 33.2621 55.9812 33.0115 57.0224 33.0115C58.5835 33.0115 59.8109 33.5127 60.7035 34.5149C61.6041 35.5172 62.0544 36.9382 62.0544 38.778V40.0452H54.4955C54.5938 40.8037 54.8184 41.5211 55.3109 41.9799C55.8098 42.4376 56.5978 42.7625 57.3578 42.7625C58.5321 42.7625 59.6709 42.5577 60.7035 41.9799L61.6532 43.981C60.6132 44.5313 60.0447 44.6932 59.4418 44.8448C58.8384 44.9964 58.1538 45.0599 57.2041 45.0599ZM56.8555 35.5241C56.2509 35.5241 55.7589 35.7317 55.3789 36.1471C55.0064 36.5624 54.7675 37.4148 54.6618 38.1876H59.0658V37.7363C59.0515 37.0492 58.8687 36.5195 58.5172 36.1471C58.1652 35.7678 57.5024 35.5241 56.8555 35.5241ZM68.0584 42.2556H75.0692V44.8437H64.1024V42.9536L70.8772 33.5487H64.5818V30.9389H74.8121V32.7861L68.0584 42.2556ZM82.7549 45.0599C81.0812 45.0599 79.4669 44.5371 78.4115 43.4919C77.3641 42.4467 77.0258 41.0549 77.0258 39.3146V39.0143C77.0258 37.8473 77.0612 36.8061 77.5046 35.8896C77.9475 34.9657 78.5738 34.2569 79.3824 33.7632C80.1984 33.2621 81.5321 33.0115 82.5732 33.0115C84.1343 33.0115 85.3612 33.5127 86.2543 34.5149C87.1549 35.5172 87.6052 36.9382 87.6052 38.778V40.0452H80.0469C80.1452 40.8037 80.3698 41.5211 80.8624 41.9799C81.3612 42.4376 82.1492 42.7625 82.9092 42.7625C84.0835 42.7625 85.2224 42.5577 86.2543 41.9799L87.2052 43.981C86.1646 44.5313 85.5961 44.6932 84.9932 44.8448C84.3898 44.9964 83.7046 45.0599 82.7549 45.0599ZM82.4069 35.5241C81.8023 35.5241 81.3098 35.7317 80.9298 36.1471C80.5572 36.5624 80.3184 37.4148 80.2126 38.1876H84.6166V37.7363C84.6023 37.0492 84.4195 36.5195 84.0681 36.1471C83.7161 35.7678 83.0538 35.5241 82.4069 35.5241ZM95.6252 45.0599C93.9521 45.0599 92.3372 44.5371 91.2823 43.4919C90.2343 42.4467 89.8966 41.0549 89.8966 39.3146V39.0143C89.8966 37.8473 89.9321 36.8061 90.3749 35.8896C90.8183 34.9657 91.4441 34.2569 92.2532 33.7632C93.0686 33.2621 94.4023 33.0115 95.4435 33.0115C97.0052 33.0115 98.2321 33.5127 99.1252 34.5149C100.026 35.5172 100.475 36.9382 100.475 38.778V40.0452H92.9172C93.0155 40.8037 93.2406 41.5211 93.7326 41.9799C94.2321 42.4376 95.0201 42.7625 95.7795 42.7625C96.9538 42.7625 98.0926 42.5577 99.1252 41.9799L100.075 43.981C99.0355 44.5313 98.4669 44.6932 97.8635 44.8448C97.2601 44.9964 96.5749 45.0599 95.6252 45.0599ZM95.2772 35.5241C94.6726 35.5241 94.1801 35.7317 93.8006 36.1471C93.4281 36.5624 93.1886 37.4148 93.0829 38.1876H97.4869V37.7363C97.4732 37.0492 97.2898 36.5195 96.9389 36.1471C96.5863 35.7678 95.9246 35.5241 95.2772 35.5241ZM140.727 44.7527H137.668V28.2594H140.727V44.7527ZM146.867 44.7527H143.808V28.2594H146.867V44.7527ZM166.904 30.0642V33.4618H170V35.8004H166.904V40.9954C166.904 41.425 166.985 41.7333 167.146 41.9193C167.307 42.1052 167.655 42.2568 168.075 42.3329C168.497 42.4089 169.189 42.5262 169.808 42.5674V44.7539C169.05 44.7539 167.974 44.7007 167.146 44.4924C166.319 44.2836 163.897 43.6549 163.855 41.457V35.8004H161.779V33.4618H163.855V30.0642H166.904ZM113.109 42.5954C112.135 44.7539 110.697 45.1269 109.101 45.0513H107.962C104.34 44.5674 104.238 40.2442 104.238 40.2442V30.9098H107.473V39.3249C107.473 39.3249 107.451 42.5954 109.443 42.5954C111.434 42.5954 111.806 41.0817 111.806 38.3793V30.9092H114.486V38.3781C114.486 41.0812 114.857 42.5949 116.85 42.5949C118.841 42.5949 118.819 39.3249 118.819 39.3249V30.9092H122.054V40.2442C122.054 40.2442 121.953 44.5674 118.329 45.0513H117.191C115.594 45.1269 114.157 44.7539 113.183 42.5954H113.109ZM154.98 44.9672C153.306 44.9672 151.691 44.4449 150.637 43.3998C149.589 42.3546 149.251 40.9622 149.251 39.2225V38.9216C149.251 37.7546 149.287 36.7134 149.73 35.797C150.173 34.8736 150.799 34.1648 151.607 33.6711C152.423 33.17 153.757 32.9194 154.798 32.9194C156.359 32.9194 157.587 33.4206 158.479 34.4228C159.379 35.4251 159.83 36.8456 159.83 38.6853V39.9525H152.271C152.37 40.7116 152.595 41.4296 153.087 41.8872C153.586 42.3455 154.374 42.6698 155.134 42.6698C156.308 42.6698 157.447 42.4656 158.479 41.8872L159.43 43.8889C158.389 44.4392 157.821 44.6011 157.218 44.7527C156.615 44.9043 155.93 44.9672 154.98 44.9672ZM154.631 35.432C154.027 35.432 153.534 35.6396 153.155 36.055C152.782 36.4703 152.543 37.3221 152.437 38.0955H156.842V37.6436C156.827 36.9571 156.644 36.4268 156.293 36.055C155.941 35.6757 155.279 35.432 154.631 35.432Z" fill="#00215D"/>
<path fill-rule="evenodd" clip-rule="evenodd" d="M131.605 44.8351C131.555 44.5725 131.58 44.3958 131.517 43.9804C130.778 44.8179 129.601 45.0496 128.418 45.0496C127.3 45.0496 126.372 44.7201 125.634 44.0617C124.902 43.4032 124.537 42.5726 124.537 41.5703C124.537 40.3392 124.983 39.3941 125.877 38.7357C126.777 38.0772 128.074 37.7443 129.769 37.7368H131.172V37.071C131.172 36.5344 131.035 36.1047 130.761 35.7827C130.493 35.4606 130.068 35.2993 129.484 35.2993C128.971 35.2993 128.418 35.44 127.786 35.6402C127.155 35.8404 126.574 36.0921 126.202 36.2169L125.333 34.2575L127.131 33.4955C127.877 33.166 128.714 33.0012 129.643 33.0012C131.049 33.0012 132.164 33.3628 132.987 34.0859C133.817 34.8021 134.558 35.5481 134.558 36.8513V41.8872C134.564 42.9896 134.619 43.2304 134.685 44.2831V44.8351H131.605ZM130.519 42.5068C130.136 42.708 129.708 42.8112 129.275 42.8071C128.81 42.8071 128.444 42.6818 128.177 42.4313C127.91 42.1807 127.776 41.8626 127.776 41.4759L127.786 41.2928C127.886 40.2196 128.698 39.6825 130.223 39.6825H131.363V41.6801C131.181 42.0234 130.899 42.2991 130.519 42.5068Z" fill="#00215D"/>
</svg>
