<svg width="188" height="76" viewBox="0 0 188 76" fill="none" xmlns="http://www.w3.org/2000/svg">
<path fill-rule="evenodd" clip-rule="evenodd" d="M34 21.33C34 16.1776 38.1987 12 43.3753 12H145.549C150.728 12 154.925 16.1776 154.925 21.33V54.6722C154.925 59.8217 150.728 64 145.549 64H43.3753C38.1987 64 34 59.8217 34 54.6722V21.33Z" fill="#000268"/>
<path fill-rule="evenodd" clip-rule="evenodd" d="M37.8477 21.6494V54.3561C37.8477 57.5753 40.4721 60.1862 43.7093 60.1862H97.2394V15.8193H43.7093C40.4721 15.8193 37.8477 18.4302 37.8477 21.6494ZM111.071 37.8394C111.071 39.9218 110.041 41.353 108.335 41.353C106.829 41.353 105.573 39.9218 105.573 38.0148C105.573 36.0574 106.678 34.6022 108.335 34.6022C110.093 34.6022 111.071 36.1079 111.071 37.8394ZM101.058 49.7826H105.573V42.681H105.624C106.479 44.2371 108.186 44.8138 109.767 44.8138C113.655 44.8138 115.737 41.6029 115.737 37.7385C115.737 34.5781 113.756 31.1383 110.142 31.1383C108.086 31.1383 106.179 31.9672 105.273 33.7996H105.222V31.4417H101.058V49.7826ZM121.904 40.3727C121.904 39.1192 123.107 38.6442 124.64 38.6442C125.317 38.6442 125.97 38.6916 126.547 38.7187C126.547 40.2485 125.468 41.8046 123.761 41.8046C122.707 41.8046 121.904 41.2784 121.904 40.3727ZM131.011 44.5134C130.812 43.4858 130.761 42.4551 130.761 41.4275V36.5595C130.761 32.5702 127.877 31.1383 124.539 31.1383C122.608 31.1383 120.927 31.4146 119.32 32.0681L119.397 35.1306C120.647 34.4267 122.106 34.1504 123.561 34.1504C125.189 34.1504 126.52 34.6285 126.547 36.4105C125.97 36.3096 125.165 36.2328 124.438 36.2328C122.031 36.2328 117.69 36.7109 117.69 40.6995C117.69 43.5362 119.997 44.8138 122.582 44.8138C124.438 44.8138 125.694 44.0888 126.722 42.4551H126.773C126.773 43.135 126.846 43.8095 126.874 44.5134H131.011ZM133.043 49.7826C133.972 49.9844 134.9 50.086 135.853 50.086C139.993 50.086 140.971 46.8984 142.25 43.6107L147.045 31.4417H142.527L139.842 39.9722H139.792L136.981 31.4417H132.116L137.409 44.8138C137.082 45.9687 136.23 46.6221 135.125 46.6221C134.495 46.6221 133.946 46.5453 133.343 46.3458L133.043 49.7826Z" fill="white"/>
<path fill-rule="evenodd" clip-rule="evenodd" d="M48.8771 37.8662C48.8771 36.0842 49.7564 34.6026 51.4375 34.6026C53.4695 34.6026 54.3217 36.2333 54.3217 37.6885C54.3217 39.6964 53.0418 41.0508 51.4375 41.0508C50.0831 41.0508 48.8771 39.8982 48.8771 37.8662ZM58.6882 31.4422H54.598V33.8001H54.5505C53.5944 32.1935 52.0375 31.1388 50.1072 31.1388C46.0433 31.1388 44.2109 34.0523 44.2109 37.9407C44.2109 41.8051 46.4446 44.5139 50.0297 44.5139C51.8388 44.5139 53.3445 43.8099 54.4226 42.2802H54.473V42.9841C54.473 45.5423 53.0682 46.7717 50.4603 46.7717C48.5774 46.7717 47.4218 46.3704 46.0433 45.6936L45.8175 49.2576C46.8693 49.6347 48.6512 50.0865 50.8112 50.0865C56.0803 50.0865 58.6882 48.3541 58.6882 42.9841V31.4422ZM66.3213 25.9976H61.8042V29.3094H66.3213V25.9976ZM61.8065 44.5139H66.3213V31.4422H61.8065V44.5139ZM78.8969 31.2901C78.4452 31.2163 77.8926 31.1388 77.3671 31.1388C75.4097 31.1388 74.2812 32.1935 73.5028 33.8505H73.4523V31.4422H69.338V44.5139H73.8536V38.9955C73.8536 36.4351 75.0348 34.9053 77.1413 34.9053C77.6698 34.9053 78.1689 34.9053 78.6711 35.0536L78.8969 31.2901ZM86.6732 41.6538C84.5908 41.6538 83.7386 39.9222 83.7386 37.9912C83.7386 36.0338 84.5908 34.3022 86.6732 34.3022C88.7578 34.3022 89.6108 36.0338 89.6108 37.9912C89.6108 39.9222 88.7578 41.6538 86.6732 41.6538ZM86.6732 44.8142C90.9892 44.8142 94.2769 42.3073 94.2769 37.9912C94.2769 33.6488 90.9892 31.1388 86.6732 31.1388C82.3578 31.1388 79.0724 33.6488 79.0724 37.9912C79.0724 42.3073 82.3578 44.8142 86.6732 44.8142Z" fill="#FF0007"/>
</svg>
