<svg width="188" height="76" viewBox="0 0 188 76" fill="none" xmlns="http://www.w3.org/2000/svg">
<g opacity="0.9">
<path d="M88.2773 25.9965V38.0313H95.7009C97.4693 38.0313 98.9311 37.4384 100.086 36.2495C101.275 35.0638 101.868 33.6492 101.868 32.0122C101.868 30.3752 101.275 29.0111 100.086 27.8221C98.9277 26.6028 97.4659 25.9932 95.7009 25.9932H88.2773V25.9965ZM88.2773 42.2719V56.2332H83.8447V21.7593H95.6033C98.5909 21.7593 101.124 22.7563 103.215 24.7435C105.341 26.7308 106.398 29.1559 106.398 32.0122C106.398 34.8685 105.341 37.3744 103.215 39.328C101.161 41.2883 98.6212 42.2651 95.6033 42.2651H88.2773V42.2719ZM110.878 49.005C110.878 50.1637 111.367 51.1236 112.35 51.8949C113.33 52.6629 114.479 53.0502 115.796 53.0502C117.662 53.0502 119.319 52.3598 120.781 50.9821C122.243 49.6012 122.974 47.981 122.974 46.1218C121.593 45.0271 119.663 44.4848 117.19 44.4848C115.392 44.4848 113.889 44.9193 112.687 45.7849C111.485 46.6506 110.878 47.7217 110.878 49.005ZM116.614 31.8674C119.892 31.8674 122.478 32.7397 124.375 34.4912C126.271 36.2427 127.214 38.6375 127.214 41.6858V56.2265H122.974V52.9526H122.782C120.949 55.6472 118.511 56.9945 115.459 56.9945C112.855 56.9945 110.676 56.2265 108.928 54.6872C107.177 53.1446 106.301 51.2213 106.301 48.9073C106.301 46.4687 107.22 44.5286 109.069 43.087C110.919 41.642 113.384 40.9212 116.466 40.9212C119.1 40.9212 121.269 41.4029 122.97 42.3662V41.3557C122.97 39.8164 122.361 38.5095 121.141 37.4351C119.919 36.3572 118.494 35.8217 116.853 35.8217C114.378 35.8217 112.421 36.8625 110.976 38.9508L107.069 36.4953C109.224 33.4134 112.404 31.8741 116.614 31.8741M151.553 32.6387L136.756 66.6243H132.179L137.673 54.7344L127.938 32.6387H132.758L139.795 49.5843H139.889L146.733 32.6387H151.553Z" fill="black"/>
<path d="M74.8639 39.2564C74.8639 37.862 74.746 36.5147 74.5237 35.228H55.8232V42.8571H66.5309C66.0728 45.3429 64.6817 47.4581 62.5732 48.8761V53.8308H68.9661C72.7082 50.3818 74.8639 45.2856 74.8639 39.2598" fill="#4285F4"/>
<path d="M55.8239 58.6136C61.1761 58.6136 65.6794 56.8588 68.9668 53.8307L62.5739 48.8761C60.7955 50.0718 58.5051 50.7724 55.8239 50.7724C50.6537 50.7724 46.2649 47.2896 44.6919 42.5977L39.6095 44.2773L38.1104 47.7005C41.3742 54.1709 48.0803 58.617 55.8273 58.617" fill="#34A853"/>
<path d="M44.6948 42.5945C44.294 41.3988 44.0717 40.1222 44.0717 38.8052C44.0717 37.4883 44.2907 36.2117 44.6948 35.016L42.498 30.5554L38.1099 29.9131C36.7593 32.5875 35.998 35.6054 35.998 38.8052C35.998 42.0051 36.7593 45.0264 38.1099 47.6974L44.6948 42.5945Z" fill="#FABB05"/>
<path d="M55.8239 26.8379C58.7442 26.8379 61.3647 27.8416 63.4294 29.8087C65.4942 31.7757 69.0881 24.1568 69.0881 24.1568C65.6525 20.9637 61.1727 19 55.8239 19C48.0803 19 41.3742 23.4427 38.1104 29.9131L44.6953 35.016C46.2649 30.324 50.6537 26.8413 55.8273 26.8413" fill="#E94235"/>
</g>
</svg>
