<svg width="188" height="76" viewBox="0 0 188 76" fill="none" xmlns="http://www.w3.org/2000/svg">
<path fill-rule="evenodd" clip-rule="evenodd" d="M75.3231 24.7762L75.3237 24.5936L82.7791 24.6331L82.7046 42.8407C82.6841 47.8685 78.4949 51.9217 73.3483 51.894C68.2011 51.867 64.0453 47.7694 64.0658 42.7415L71.5212 42.7811C71.5189 43.2637 71.713 43.7276 72.0611 44.0709C72.4092 44.4141 72.8827 44.6086 73.3777 44.6118C73.6227 44.6129 73.8654 44.567 74.0921 44.4765C74.3188 44.3861 74.5249 44.2529 74.6988 44.0847C74.8726 43.9164 75.0107 43.7164 75.1052 43.4961C75.1996 43.2757 75.2486 43.0394 75.2492 42.8006L75.3231 24.7762ZM102.205 34.5111C103.025 35.3877 103.657 36.4513 104.083 37.673C104.5 38.8769 104.709 40.2384 104.703 41.7191C104.702 42.074 104.686 42.3975 104.659 42.6787C104.618 43.0715 104.581 43.2438 104.506 43.3895L104.299 43.7926L91.4047 43.7243C91.467 44.0131 91.5598 44.2862 91.6826 44.5397C91.9061 45.0068 92.2164 45.4294 92.5977 45.7864C92.978 46.1394 93.4228 46.4197 93.9091 46.6126C94.4181 46.8131 94.9622 46.9154 95.5111 46.9139C96.6391 46.9204 97.4987 46.6836 98.0661 46.2112L98.3695 45.9592L103.829 47.4757L103.243 48.3112C102.715 49.0603 102.062 49.7185 101.313 50.2589C100.553 50.8094 99.6781 51.245 98.7101 51.5549C97.7427 51.8648 96.6591 52.0187 95.49 52.0122C94.1865 52.0096 92.895 51.7697 91.682 51.3046C90.4867 50.8473 89.4008 50.155 88.4919 49.2707C87.5839 48.3886 86.8499 47.3013 86.3098 46.0378C85.7691 44.7738 85.4985 43.3234 85.5052 41.7262C85.5113 40.2292 85.7802 38.8498 86.3054 37.6275C86.8293 36.4085 87.5451 35.3482 88.4325 34.4759C89.3131 33.6088 90.3587 32.9175 91.5109 32.4409C92.653 31.9639 93.8835 31.7208 95.126 31.7268C96.6074 31.735 97.9616 31.9804 99.1491 32.4572C100.35 32.9388 101.378 33.6302 102.205 34.5111ZM91.5964 39.1733L98.7484 39.2112C98.7082 39.0462 98.6571 38.8838 98.5956 38.7252C98.4484 38.3479 98.2214 38.0051 97.9294 37.7191C97.6299 37.4238 97.2492 37.1811 96.798 36.998C96.3441 36.8137 95.7873 36.7195 95.1427 36.7162C94.5798 36.713 94.0719 36.8056 93.6352 36.9914C93.1906 37.1811 92.8111 37.4314 92.5055 37.7364C92.0974 38.1441 91.787 38.6348 91.5964 39.1733ZM137.806 34.8476C138.712 35.7545 139.426 36.837 139.928 38.0647C140.429 39.2914 140.68 40.6469 140.674 42.0924C140.669 43.5379 140.406 44.8957 139.896 46.1277C139.384 47.363 138.66 48.4444 137.746 49.3427C136.822 50.2464 135.724 50.963 134.515 51.4514C133.283 51.9547 131.917 52.2056 130.456 52.198C129.021 52.1904 127.665 51.9249 126.425 51.4097C125.183 50.8939 124.1 50.1711 123.204 49.262C122.312 48.355 121.604 47.2671 121.104 46.0275C120.603 44.7917 120.352 43.4312 120.358 41.9846C120.364 40.537 120.627 39.1846 121.137 37.9645C121.649 36.7438 122.364 35.67 123.264 34.7733C124.167 33.874 125.256 33.1631 126.501 32.6603C127.745 32.1581 129.104 31.9073 130.539 31.9154C132 31.923 133.364 32.1884 134.592 32.7042C135.797 33.2057 136.889 33.9341 137.806 34.8476ZM134.451 44.2407C134.694 43.6236 134.819 42.8905 134.822 42.0616C134.826 41.2332 134.707 40.5066 134.471 39.8998C134.237 39.3022 133.917 38.7956 133.52 38.3931C133.14 38.004 132.678 37.6997 132.166 37.5007C131.641 37.3 131.082 37.1964 130.518 37.1952C129.954 37.1902 129.394 37.2877 128.866 37.4829C128.36 37.6724 127.904 37.9701 127.531 38.3541C127.136 38.7566 126.809 39.2659 126.557 39.8678C126.306 40.4687 126.177 41.1909 126.174 42.0155C126.171 42.8412 126.293 43.5726 126.541 44.1881C126.787 44.8041 127.11 45.3215 127.501 45.7268C127.884 46.1256 128.334 46.4311 128.841 46.6348C129.36 46.8446 129.916 46.9532 130.478 46.9545C131.039 46.9591 131.596 46.8566 132.117 46.6527C132.628 46.4523 133.09 46.1489 133.49 45.7517C133.89 45.3546 134.213 44.8464 134.451 44.2407ZM160.568 36.9183C160.859 37.8377 161.004 38.8303 161 39.87L160.951 51.8139L155.136 51.783L155.182 40.5678C155.186 39.6349 154.953 38.8384 154.492 38.2013C154.08 37.6324 153.334 37.3528 152.213 37.3469C151.207 37.3414 150.479 37.6432 149.988 38.2679C149.448 38.9544 149.184 39.7795 149.179 40.7905L149.134 51.751L143.32 51.7201L143.398 32.5298L149.101 32.5601L149.096 33.6188C149.492 33.2889 149.933 33.0133 150.405 32.7996C151.485 32.3125 152.601 32.0687 153.726 32.0747C154.945 32.0812 156.027 32.293 156.939 32.7031C157.859 33.1176 158.631 33.6984 159.234 34.4304C159.822 35.1456 160.27 35.9821 160.568 36.9183ZM116.743 46.5406C117.118 46.4972 117.226 46.4756 117.251 46.4691L118.179 46.2458L118.159 51.1686L117.69 51.349C117.584 51.3902 117.386 51.4568 116.782 51.6091C116.291 51.7337 115.631 51.7916 114.764 51.7868C112.88 51.777 111.365 51.2341 110.261 50.1722C109.152 49.106 108.593 47.6171 108.6 45.7458L108.634 37.5522L106.398 37.5408L106.419 32.3331L108.655 32.345L108.678 26.919L114.455 26.9498L114.433 32.3759L118.198 32.396L118.177 37.6031L114.412 37.5831L114.382 45.0842C114.379 45.6444 114.492 46.0497 114.708 46.2556C114.931 46.4685 115.357 46.5828 115.941 46.5861C116.206 46.5872 116.476 46.5715 116.743 46.5406ZM52.214 43.5309C50.198 47.7656 45.7977 50.7021 40.695 50.7021C38.433 50.7055 36.2116 50.1169 34.2626 48.9976L52.214 43.5309ZM53.3876 38.522L30.3718 45.5307C28.8019 43.3988 27.9712 40.8338 28.0008 38.2094L51.0665 31.1861C52.6218 33.328 53.4349 35.8981 53.3876 38.522ZM47.2197 27.7051L29.1299 33.2141C31.1247 28.9279 35.5534 25.947 40.695 25.947C43.081 25.947 45.3137 26.5885 47.2208 27.7051H47.2197Z" fill="#FF6300"/>
<path d="M57.9074 22H59.3343V54H57.9074V22Z" fill="#FF6300"/>
</svg>
