<svg width="188" height="76" viewBox="0 0 188 76" fill="none" xmlns="http://www.w3.org/2000/svg">
<mask id="mask0_547_39273" style="mask-type:luminance" maskUnits="userSpaceOnUse" x="13" y="9" width="163" height="58">
<path d="M13 9H175.4V67H13V9Z" fill="white"/>
</mask>
<g mask="url(#mask0_547_39273)">
<path d="M58.7097 32.4575C58.7849 32.5579 58.8532 32.6631 58.9143 32.7726C58.7493 32.0807 58.4967 31.4127 58.1627 30.7847C55.4092 25.7356 47.7484 27.2449 40.1082 32.9704C38.0957 34.4751 36.2876 36.2354 34.7295 38.2069C35.6548 38.7636 36.5381 39.3872 37.3725 40.0726C37.8808 40.4431 38.4196 40.7699 38.983 41.0495C39.4727 40.4831 39.9787 39.931 40.5002 39.3937C47.3057 32.3843 55.9673 28.8066 58.7104 32.4569L58.7097 32.4575Z" fill="url(#paint0_linear_547_39273)"/>
<path d="M59.1912 36.7425L59.3329 36.701C59.5789 35.1215 59.4788 33.7533 58.9141 32.7734C59.2157 34.0739 59.3091 35.414 59.1912 36.7425Z" fill="url(#paint1_linear_547_39273)"/>
<g style="mix-blend-mode:soft-light">
<path d="M58.8958 32.7507C58.8348 32.6411 58.7664 32.5356 58.6913 32.4351L58.6602 32.4009L58.8262 32.9858C58.9111 33.128 58.9837 33.2758 59.0448 33.429C59.0028 33.2013 58.9531 32.9751 58.8958 32.7507Z" fill="#E7E6E6"/>
</g>
<g style="mix-blend-mode:soft-light">
<path d="M40.031 33.28C47.6504 27.5142 55.2972 25.9592 58.0751 30.9948C58.3169 31.4368 58.5166 31.9002 58.6704 32.3801C58.679 32.3929 58.6893 32.4045 58.7015 32.4149C58.776 32.5156 58.8438 32.6212 58.9061 32.7299C58.7373 32.0394 58.4826 31.3728 58.1478 30.7457C55.3766 25.7095 47.7157 27.2645 40.1006 33.0309C37.3068 35.1292 34.9283 37.7296 33.0869 40.6991C33.1028 40.7168 33.1174 40.7351 33.1321 40.7541C34.9583 37.8642 37.2962 35.331 40.031 33.28Z" fill="#E7E6E6"/>
</g>
<path d="M37.8568 38.2732L35.7786 36.4722C34.4528 38.0391 32.9888 39.4835 31.4042 40.788C24.5889 46.4195 17.243 48.2852 15.0024 44.9438C14.9682 44.8919 14.937 44.8364 14.9059 44.7845C14.4764 44.1488 14.1546 43.4466 13.9535 42.7063C13.5799 41.3006 13.6038 39.8188 14.0225 38.4259C12.9827 40.5316 12.6921 42.6128 13.3539 44.3931C15.086 49.096 22.8232 49.8897 30.6154 46.1631C34.2449 44.431 37.2445 42.0066 39.2421 39.4546L37.8568 38.2732Z" fill="url(#paint2_linear_547_39273)"/>
<path d="M21.3394 31.2207C20.9747 31.2518 20.6147 31.3239 20.2661 31.4356L20.2868 31.4875L20.2246 31.457C18.7215 32.5303 18.6696 32.537 20.2868 31.4875C19.3379 32.0777 18.4485 32.7586 17.6311 33.5206C16.3025 34.8134 15.1757 36.2985 14.2884 37.9261C14.1967 38.0981 14.1067 38.2711 14.0186 38.4451C13.5996 39.8381 13.5755 41.3201 13.949 42.7261C14.15 43.4665 14.4718 44.1686 14.9014 44.8043C14.3124 43.762 13.9989 42.5868 13.9905 41.3896C14.0192 38.4243 16.5291 34.5041 18.23 33.0425C18.9652 32.3596 19.9019 31.9333 20.8998 31.8276C21.0109 31.6017 21.1599 31.3965 21.3394 31.2207Z" fill="url(#paint3_linear_547_39273)"/>
<path style="mix-blend-mode:multiply" opacity="0.71" d="M27.8408 43.3876C31.0339 41.4071 33.9088 38.6744 34.8057 37.5003L35.3216 36.9325C35.727 36.5509 36.2288 35.7786 36.6275 35.408C37.6459 34.8787 39.5367 33.5551 41.5178 32.2394C42.3695 31.6747 43.2285 31.1173 43.7133 30.8535L46.0406 34.7053C44.5894 35.6474 40.8731 38.7818 39.5611 39.9003C39.149 40.2465 39.6405 39.4778 39.2528 39.8453L36.4822 42.3351C34.5704 43.9529 32.4475 45.3034 30.1718 46.3493L27.8408 43.3876Z" fill="url(#paint4_linear_547_39273)"/>
<path d="M57.6426 30.0202C63.312 40.7569 50.4079 45.7852 43.6371 38.3807C40.797 34.8103 40.4679 33.0093 38.6876 31.1808C31.0682 23.7861 20.1136 28.3821 14.4131 37.6499C15.172 36.7427 19.989 31.2461 26.996 32.1088C32.412 32.8017 33.2954 39.7281 41.3062 43.8113C50.3969 48.466 66.7407 42.18 57.6426 30.0202Z" fill="url(#paint5_linear_547_39273)"/>
<g style="mix-blend-mode:darken" opacity="0.57">
<path d="M41.5477 43.5477C33.5376 39.4547 32.6517 32.5215 27.2382 31.8457C20.5535 31.0001 15.8604 35.9735 14.7871 37.2348C16.2072 35.6694 20.7233 31.3475 26.9952 32.1333C32.4118 32.8085 33.2952 39.7526 41.3059 43.8328C46.9374 46.7071 55.3425 45.3914 58.7713 41.083C55.204 45.1625 47.0479 46.3579 41.5483 43.5489L41.5477 43.5477Z" fill="#1887B2"/>
</g>
<g style="mix-blend-mode:soft-light">
<path d="M57.92 30.369L57.6428 29.9844C63.1839 40.4921 50.9307 45.5418 44.0635 38.7845C50.8415 45.7463 63.2371 40.8145 57.9206 30.369H57.92Z" fill="white"/>
</g>
<path d="M86.717 28.2896C86.6219 28.2505 86.5234 28.2203 86.4227 28.1992C85.626 27.9947 83.6521 27.9293 83.0147 28.4483L82.9799 28.48C82.8747 28.5786 82.789 28.696 82.7272 28.8262C80.8765 31.2831 79.1654 33.8419 77.6018 36.4908L72.8324 28.8396L72.8153 28.8018C72.7521 28.6707 72.6639 28.5531 72.5558 28.4556L72.521 28.4275C71.9667 27.9672 70.3079 27.9812 69.4037 28.1369C69.1893 28.1595 68.9788 28.2096 68.7773 28.2859C68.6021 28.3606 68.4523 28.4844 68.3459 28.6423C68.2395 28.8003 68.1811 28.9856 68.1777 29.176V45.3184C68.1777 45.6407 68.3267 46.2048 69.3243 46.3575C69.6561 46.402 69.9908 46.4228 70.3256 46.4197C71.0179 46.4197 72.4758 46.4197 72.4758 45.3184V36.0091L74.0345 38.6722L75.8667 41.9727L76.0499 42.3195C76.2137 42.5684 76.4229 42.7844 76.6665 42.9562C77.1875 43.2655 77.8075 43.3623 78.3979 43.2267C78.5445 43.1876 78.6806 43.1192 78.7997 43.0252C79.0663 42.847 79.3007 42.6247 79.4926 42.3677L79.9084 41.6405L81.3211 39.0189L83.0147 35.9675V45.3287C83.0147 46.4301 84.466 46.4301 85.162 46.4301C85.858 46.4301 87.3129 46.4301 87.3129 45.3287V29.1791C87.3096 28.9892 87.2517 28.8043 87.146 28.6465C87.0403 28.4888 86.8913 28.3648 86.717 28.2896ZM91.9364 34.6958C90.5511 34.6958 90.3783 34.9419 90.3783 35.2087V45.5156C90.3783 45.7824 90.5651 46.0284 91.9364 46.0284C93.3076 46.0284 93.495 45.7824 93.495 45.5156V35.208C93.495 34.9412 93.3046 34.6958 91.9364 34.6958Z" fill="#2D9DD3"/>
<path d="M91.937 46.6167C91.2441 46.6167 89.7861 46.6167 89.7861 45.5153V35.2077C89.7861 34.1064 91.2374 34.1064 91.937 34.1064C92.6367 34.1064 94.0842 34.1064 94.0842 35.2077V45.5147C94.0842 46.616 92.633 46.6167 91.937 46.6167ZM90.9669 45.359C91.6082 45.4609 92.2616 45.4609 92.9029 45.359V35.3647C92.2615 35.263 91.6082 35.263 90.9669 35.3647V45.359ZM107.639 28.8638H98.662C97.7199 28.8943 97.2425 28.981 97.2425 29.3693V45.5153C97.2425 45.7821 97.4293 46.0281 98.7902 46.0281C100.151 46.0281 100.338 45.7821 100.338 45.5153V38.8483H106.756C107.251 38.8483 107.57 38.2836 107.57 37.4142C107.57 36.5448 107.251 35.9807 106.756 35.9807H100.338V31.7277H107.639C108.134 31.7277 108.457 31.1661 108.457 30.2973C108.457 29.4285 108.138 28.8638 107.639 28.8638Z" fill="#2D9DD3"/>
<path d="M98.7893 46.616C98.097 46.616 96.6494 46.616 96.6494 45.5146V29.3686C96.6494 28.3295 97.8509 28.2983 98.644 28.2739H107.649C108.296 28.2739 109.055 28.8039 109.055 30.2966C109.055 31.7893 108.296 32.3193 107.649 32.3193H100.926V35.3914H106.755C107.403 35.3914 108.161 35.9214 108.161 37.4141C108.161 38.9069 107.403 39.4362 106.755 39.4362H100.926V45.5146C100.926 46.616 99.4822 46.616 98.7893 46.616ZM97.8302 45.3583C98.4658 45.4599 99.1135 45.4599 99.7491 45.3583V38.2731H106.755C106.818 38.2524 106.98 38.0033 106.98 37.4318C106.98 36.8604 106.818 36.6107 106.759 36.5869H99.7491V31.1391H107.638C107.677 31.1391 107.864 30.9132 107.864 30.2972C107.864 29.6812 107.677 29.4663 107.646 29.4522H98.6648C98.3849 29.4545 98.1058 29.48 97.8302 29.5286V45.3595V45.3583ZM131.109 28.8631C129.745 28.8631 129.562 29.1293 129.562 29.3894V40.0388L122.208 29.1641L122.174 29.1226C121.828 28.7764 119.912 28.8356 119.473 29.0188C119.391 29.0416 119.319 29.0899 119.267 29.1565C119.214 29.2231 119.184 29.3047 119.181 29.3894V45.4938C119.181 45.6672 119.181 46.0201 120.733 46.0201C122.285 46.0201 122.281 45.6739 122.281 45.4938V34.8438L129.634 45.7051C129.807 45.9438 130.444 46.0274 131.065 46.0274C131.473 46.0365 131.882 45.9957 132.28 45.9059C132.592 45.8052 132.658 45.6251 132.658 45.4938V29.3894C132.658 29.1293 132.474 28.8631 131.109 28.8631Z" fill="#2D9DD3"/>
<path d="M131.065 46.6166C129.718 46.6166 129.334 46.2912 129.157 46.0488L122.878 36.77V45.4944C122.878 46.6129 121.434 46.6129 120.741 46.6129C120.048 46.6129 118.601 46.6129 118.601 45.4944V29.39C118.603 29.1886 118.668 28.9929 118.785 28.829C118.901 28.665 119.066 28.5406 119.255 28.4723C119.699 28.2886 121.957 28.0633 122.601 28.7043L122.708 28.8356L128.977 38.1107V29.3894C128.977 28.2739 130.477 28.2739 131.117 28.2739C131.757 28.2739 133.254 28.2739 133.254 29.3894V45.4938C133.247 45.7194 133.166 45.9363 133.024 46.1118C132.882 46.2874 132.687 46.412 132.468 46.467C132.009 46.576 131.537 46.6266 131.065 46.6166ZM130.089 45.321C130.405 45.414 130.736 45.4528 131.065 45.4358C131.402 45.441 131.738 45.413 132.069 45.3522V29.5359C131.435 29.4251 130.786 29.4251 130.151 29.5359V41.9662L121.766 29.5603C121.108 29.44 120.433 29.44 119.775 29.5603V45.3668C120.408 45.4779 121.056 45.4779 121.69 45.3668V32.9225L130.089 45.321ZM138.311 28.86C136.943 28.86 136.752 29.1055 136.752 29.3692V45.5152C136.752 45.782 136.943 46.028 138.311 46.028C139.679 46.028 139.869 45.782 139.869 45.5152V29.3692C139.869 29.1061 139.682 28.86 138.311 28.86Z" fill="#2D9DD3"/>
<path d="M138.311 46.6178C137.618 46.6178 136.164 46.6178 136.164 45.5164V29.3704C136.164 28.269 137.615 28.269 138.311 28.269C139.007 28.269 140.461 28.269 140.461 29.3704V45.5164C140.461 46.6178 139.011 46.6178 138.311 46.6178ZM137.344 45.3601C137.986 45.4621 138.639 45.4621 139.28 45.3601V29.5267C138.961 29.4652 138.636 29.4396 138.311 29.4504C137.987 29.4393 137.663 29.4649 137.344 29.5267V45.3613V45.3601ZM113.465 28.8613C112.097 28.8613 111.906 29.1067 111.906 29.3704V45.5164C111.906 45.7832 112.097 46.0293 113.465 46.0293C114.833 46.0293 115.023 45.7832 115.023 45.5164V29.3704C115.023 29.1073 114.836 28.8613 113.465 28.8613Z" fill="#2D9DD3"/>
<path d="M113.465 46.6178C112.772 46.6178 111.317 46.6178 111.317 45.5164V29.3704C111.317 28.269 112.769 28.269 113.465 28.269C114.161 28.269 115.612 28.269 115.612 29.3704V45.5164C115.605 46.6178 114.161 46.6178 113.465 46.6178ZM112.495 45.3601C113.137 45.4621 113.792 45.4621 114.434 45.3601V29.5267C113.792 29.4251 113.137 29.4251 112.495 29.5267V45.3613V45.3601ZM156.473 28.8649H143.893C143.626 28.8649 143.381 29.0517 143.381 30.4126C143.381 31.7735 143.626 31.9609 143.893 31.9609H148.631V45.5164C148.631 45.7832 148.818 46.0293 150.179 46.0293C151.54 46.0293 151.728 45.7832 151.728 45.5164V31.9609H156.473C156.736 31.9609 156.981 31.7741 156.981 30.4126C156.981 29.0511 156.732 28.8649 156.473 28.8649Z" fill="#2D9DD3"/>
<path d="M150.18 46.616C149.488 46.616 148.043 46.616 148.043 45.5146V32.5513H143.887C142.782 32.5513 142.782 31.1037 142.782 30.4108C142.782 29.7178 142.782 28.2739 143.887 28.2739H156.473C157.574 28.2739 157.574 29.7184 157.574 30.4108C157.574 31.1031 157.574 32.5513 156.473 32.5513H152.317V45.5146C152.317 46.616 150.876 46.616 150.18 46.616ZM149.221 45.3583C149.856 45.4599 150.504 45.4599 151.139 45.3583V31.3711H156.314C156.415 30.7355 156.415 30.0879 156.314 29.4522H144.047C143.945 30.0878 143.945 30.7356 144.047 31.3711H149.221V45.3595V45.3583ZM174.441 29.0218C173.862 28.821 171.691 28.7691 171.279 29.2813L167.362 35.3805L163.434 29.2886C163.057 28.7831 160.892 28.821 160.317 29.0182C159.992 29.1256 159.923 29.3094 159.923 29.448V29.5347L165.81 38.7158V45.456C165.81 45.6007 165.81 46.0409 167.369 46.0409C168.927 46.0409 168.927 45.6013 168.927 45.4554V38.7158L174.815 29.5347V29.448C174.829 29.313 174.749 29.1329 174.441 29.0218Z" fill="#2D9DD3"/>
<path d="M167.354 46.6315C166.821 46.6315 165.207 46.6315 165.207 45.4568V38.8766L159.32 29.6955V29.439C159.324 29.2091 159.404 28.9872 159.548 28.8079C159.693 28.6287 159.892 28.5024 160.116 28.4488C160.684 28.2583 163.25 28.0574 163.902 28.9268L163.925 28.961L167.358 34.2848L170.821 28.9061C171.514 28.0501 174.097 28.2687 174.631 28.4591C174.848 28.5176 175.04 28.6447 175.178 28.8213C175.317 28.9979 175.394 29.2146 175.4 29.439V29.6991L169.512 38.8802V45.4605C169.501 46.6309 167.902 46.6315 167.354 46.6315ZM166.385 45.3433C167.022 45.4864 167.683 45.4864 168.321 45.3433V38.5402L174.108 29.5349C173.501 29.411 172.064 29.4451 171.739 29.6533L167.364 36.4729L162.97 29.6637C162.644 29.4561 161.238 29.4177 160.618 29.5459L166.385 38.5505V45.342V45.3433ZM92.4382 28.4243H91.2849C90.8376 28.4245 90.4087 28.6023 90.0925 28.9186C89.7763 29.235 89.5986 29.6639 89.5986 30.1112V31.2957C89.5986 31.7429 89.7763 32.1719 90.0925 32.4882C90.4087 32.8046 90.8376 32.9824 91.2849 32.9825H92.4382C92.8856 32.9825 93.3147 32.8048 93.631 32.4885C93.9474 32.1721 94.1251 31.743 94.1251 31.2957V30.1112C94.1251 29.6638 93.9474 29.2348 93.631 28.9184C93.3147 28.6021 92.8856 28.4243 92.4382 28.4243Z" fill="#2D9DD3"/>
</g>
<defs>
<linearGradient id="paint0_linear_547_39273" x1="832.102" y1="579.132" x2="1875.27" y2="598.96" gradientUnits="userSpaceOnUse">
<stop offset="0.01" stop-color="#FFA220"/>
<stop offset="0.04" stop-color="#FFA61C"/>
<stop offset="0.34" stop-color="#FFC000"/>
<stop offset="0.61" stop-color="#FDC200"/>
<stop offset="0.74" stop-color="#F6C900"/>
<stop offset="0.75" stop-color="#F5CB00"/>
<stop offset="0.78" stop-color="#F3C200"/>
<stop offset="0.84" stop-color="#F0B100"/>
<stop offset="0.89" stop-color="#EFAB00"/>
<stop offset="1" stop-color="#B74600"/>
</linearGradient>
<linearGradient id="paint1_linear_547_39273" x1="76.8836" y1="198.469" x2="100.404" y2="198.502" gradientUnits="userSpaceOnUse">
<stop offset="0.01" stop-color="#FFA220"/>
<stop offset="0.04" stop-color="#FFA61C"/>
<stop offset="0.34" stop-color="#FFC000"/>
<stop offset="0.61" stop-color="#FDC200"/>
<stop offset="0.74" stop-color="#F6C900"/>
<stop offset="0.75" stop-color="#F5CB00"/>
<stop offset="0.78" stop-color="#F3C200"/>
<stop offset="0.84" stop-color="#F0B100"/>
<stop offset="0.89" stop-color="#EFAB00"/>
<stop offset="1" stop-color="#B74600"/>
</linearGradient>
<linearGradient id="paint2_linear_547_39273" x1="131.404" y1="616.924" x2="1020.81" y2="1062.79" gradientUnits="userSpaceOnUse">
<stop offset="0.01" stop-color="#C59252"/>
<stop offset="0.22" stop-color="#EBA31C"/>
<stop offset="0.34" stop-color="#FFAC00"/>
<stop offset="0.51" stop-color="#FDAC03"/>
<stop offset="0.63" stop-color="#F6AB0D"/>
<stop offset="0.75" stop-color="#E9AA1E"/>
<stop offset="0.78" stop-color="#E4A925"/>
<stop offset="0.8" stop-color="#E7AC21"/>
<stop offset="0.86" stop-color="#F4B70F"/>
<stop offset="0.93" stop-color="#FCBE04"/>
<stop offset="1" stop-color="#FFC000"/>
</linearGradient>
<linearGradient id="paint3_linear_547_39273" x1="112.527" y1="537.346" x2="-46.8243" y2="738.24" gradientUnits="userSpaceOnUse">
<stop offset="0.01" stop-color="#C59252"/>
<stop offset="0.22" stop-color="#EBA31C"/>
<stop offset="0.34" stop-color="#FFAC00"/>
<stop offset="0.51" stop-color="#FDAC03"/>
<stop offset="0.63" stop-color="#F6AB0D"/>
<stop offset="0.75" stop-color="#E9AA1E"/>
<stop offset="0.78" stop-color="#E4A925"/>
<stop offset="0.8" stop-color="#E7AC21"/>
<stop offset="0.86" stop-color="#F4B70F"/>
<stop offset="0.93" stop-color="#FCBE04"/>
<stop offset="1" stop-color="#FFC000"/>
</linearGradient>
<linearGradient id="paint4_linear_547_39273" x1="721.289" y1="335.035" x2="253.368" y2="652.316" gradientUnits="userSpaceOnUse">
<stop offset="0.11" stop-color="white"/>
<stop offset="0.61" stop-color="#878787"/>
<stop offset="0.95" stop-color="white"/>
</linearGradient>
<linearGradient id="paint5_linear_547_39273" x1="3900.22" y1="1140.27" x2="2124.81" y2="-970.152" gradientUnits="userSpaceOnUse">
<stop offset="0.01" stop-color="#001F2A"/>
<stop offset="0.16" stop-color="#004B5D"/>
<stop offset="0.2" stop-color="#00576E"/>
<stop offset="0.31" stop-color="#00799F"/>
<stop offset="0.42" stop-color="#0094C7"/>
<stop offset="0.52" stop-color="#00A8E3"/>
<stop offset="0.61" stop-color="#00B4F4"/>
<stop offset="0.67" stop-color="#00B8FA"/>
<stop offset="0.76" stop-color="#00B6F7"/>
<stop offset="0.83" stop-color="#01AEEC"/>
<stop offset="0.9" stop-color="#03A2DA"/>
<stop offset="0.97" stop-color="#0691C1"/>
<stop offset="1" stop-color="#0788B3"/>
</linearGradient>
</defs>
</svg>
