<svg width="188" height="76" viewBox="0 0 188 76" fill="none" xmlns="http://www.w3.org/2000/svg">
<mask id="mask0_547_39272" style="mask-type:luminance" maskUnits="userSpaceOnUse" x="18" y="0" width="152" height="76">
<path d="M170 0H18V76H170V0Z" fill="white"/>
</mask>
<g mask="url(#mask0_547_39272)">
<path d="M45.4807 36.3569C45.4807 35.8499 45.2779 35.5457 44.7709 35.5457H42.1344C41.5261 35.5457 41.2218 35.9512 41.1204 36.5597V41.2241C41.1204 41.8325 41.4247 42.2381 42.1344 42.2381H44.4667C44.6695 42.2381 44.9737 42.1367 45.0751 42.0354C45.1765 41.934 45.2779 41.7311 45.2779 41.4269V36.3569H45.4807ZM37.8756 35.7485C37.8756 34.6331 38.0785 33.7205 38.6868 33.112C38.8896 32.9093 39.2952 32.605 39.7008 32.5037C40.1064 32.3008 40.5121 32.3008 40.9177 32.3008H45.5821C47.7115 32.3008 48.7255 33.4163 48.7255 35.7485V42.8466C48.7255 43.6577 48.4213 44.2662 47.7115 44.9759C47.1031 45.5844 46.3933 45.8886 45.4807 45.9899H41.0191V51.0601H37.6729L37.8756 35.7485ZM54.7082 41.6297C54.7082 41.8325 54.8096 41.934 54.911 42.1367C55.1138 42.3395 55.2152 42.3395 55.5194 42.3395H58.0544C58.6628 42.3395 58.967 42.1367 58.967 41.7311V40.7171C58.967 40.2101 58.6628 39.9059 58.0544 39.9059H55.5194C55.2152 39.9059 54.911 40.0073 54.8096 40.1088C54.7082 40.2101 54.6068 40.4129 54.6068 40.8185L54.7082 41.6297ZM58.967 36.3569C58.967 35.8499 58.7642 35.6471 58.0544 35.6471H51.4634V32.1994H58.967C61.1978 32.1994 62.3133 33.2134 62.3133 35.3429V42.441C62.3133 43.3536 62.009 44.0633 61.502 44.6718C60.8937 45.2802 60.1838 45.5844 59.2712 45.5844H54.7082C52.4773 45.5844 51.362 44.5703 51.362 42.5423V39.8045C51.362 37.6751 52.376 36.6611 54.6068 36.6611H58.967V36.3569ZM71.5407 47.3082C71.7436 47.3082 72.0477 47.2068 72.1491 47.1054C72.352 46.9025 72.352 46.8012 72.352 46.497V45.6858H68.0931C67.4847 45.6858 67.0791 45.5844 66.7749 45.4829C66.4707 45.3816 66.0651 45.1788 65.7609 44.7732C65.4567 44.4689 65.1525 44.0633 65.0511 43.6577C64.8482 43.3536 64.8482 42.8466 64.8482 42.2381V32.3008H68.1945V41.2241C68.1945 41.934 68.4987 42.2381 69.1071 42.2381H71.4393C71.6421 42.2381 71.9463 42.1367 72.1491 42.0354C72.352 41.8325 72.352 41.7311 72.352 41.4269V32.3008H75.5968V47.1054C75.5968 48.1194 75.2925 49.032 74.7856 49.7418C74.1772 50.3502 73.4673 50.7558 72.5547 50.7558H64.8482V47.3082H71.5407ZM78.436 42.2381H84.3172C84.9257 42.2381 85.1285 42.0354 85.1285 41.6297V41.3255C85.1285 41.2241 85.1285 41.1227 85.0271 41.1227C84.8242 40.9199 84.7229 40.7171 84.5201 40.7171H81.5794C80.6668 40.7171 79.957 40.4129 79.3486 39.8045C78.7402 39.1961 78.3346 38.5877 78.3346 37.8779V35.3429C78.3346 33.4163 79.45 32.3008 81.5794 32.3008H88.3733V35.7485H82.492C81.8836 35.7485 81.478 35.9512 81.478 36.3569V36.6611C81.478 37.0667 81.7823 37.2695 82.492 37.2695H85.4327C86.2438 37.2695 86.8523 37.5737 87.4607 38.1821C88.0691 38.7905 88.2719 39.5003 88.3733 40.3115V42.7451C88.3733 43.455 88.0691 44.1647 87.3593 44.8746C87.0551 45.1788 86.7509 45.4829 86.4467 45.5844C86.1425 45.6858 85.7368 45.7872 85.1285 45.7872H78.2332L78.436 42.2381ZM94.1532 41.6297C94.1532 41.8325 94.2542 41.934 94.3561 42.1367C94.559 42.3395 94.6601 42.3395 94.9641 42.3395H97.4994C98.1074 42.3395 98.4122 42.1367 98.4122 41.7311V40.7171C98.4122 40.2101 98.1074 39.9059 97.4994 39.9059H94.9641C94.6601 39.9059 94.3561 40.0073 94.2542 40.1088C94.1532 40.2101 94.0521 40.4129 94.0521 40.8185L94.1532 41.6297ZM98.5133 36.3569C98.5133 35.8499 98.3104 35.6471 97.6005 35.6471H91.0097V32.1994H98.5133C100.744 32.1994 101.86 33.2134 101.86 35.3429V42.441C101.86 43.3536 101.556 44.0633 101.049 44.6718C100.44 45.2802 99.73 45.5844 98.8173 45.5844H94.2542C92.0237 45.5844 90.9083 44.5703 90.9083 42.5423V39.8045C90.9083 37.6751 91.9223 36.6611 94.1532 36.6611H98.5133V36.3569ZM104.395 30.2728C104.395 29.3602 104.699 28.6504 105.409 28.042C106.017 27.4336 106.828 27.1294 107.943 27.1294H110.073V30.3742H108.755C108.045 30.3742 107.741 30.6784 107.741 31.3882V32.098H110.073V35.5457H107.741V45.5844H104.395V30.2728ZM119.504 36.3569C119.504 36.1541 119.402 35.9512 119.301 35.8499C119.199 35.7485 118.996 35.6471 118.692 35.6471H116.461C116.157 35.6471 115.853 35.7485 115.752 35.8499C115.549 36.0527 115.448 36.1541 115.448 36.4583V37.8779L119.504 36.3569ZM115.448 41.1227V41.3255C115.448 41.5284 115.549 41.8325 115.651 41.934C115.752 42.1367 115.853 42.2381 116.056 42.2381H122.849V45.6858H115.651C115.042 45.6858 114.535 45.5844 114.129 45.4829C113.723 45.2802 113.419 45.1788 113.115 44.8746C112.811 44.5703 112.506 44.1647 112.405 43.7592C112.202 43.3536 112.202 42.8466 112.202 42.2381V35.4443C112.202 33.4163 113.318 32.4023 115.448 32.3008H119.909C121.937 32.3008 122.951 33.4163 123.052 35.5457V38.1821L115.448 41.1227ZM129.948 45.6858C129.441 45.6858 128.934 45.5844 128.528 45.4829C128.122 45.3816 127.615 45.2802 127.21 44.8746C126.703 44.4689 126.5 44.0633 126.196 43.5563C125.993 43.0493 125.993 42.5423 125.993 41.934V35.6471C125.993 35.1401 125.993 34.6331 126.196 34.2275C126.297 33.8219 126.5 33.4163 126.905 33.112C127.311 32.7064 127.717 32.5037 128.122 32.3008C128.528 32.1994 129.035 32.098 129.542 32.098H134.612V32.9093H129.542C128.63 32.9093 128.021 33.112 127.514 33.5177C127.007 33.9233 126.703 34.5316 126.703 35.5457V41.8325C126.703 42.3395 126.804 42.7451 126.905 43.1507C127.108 43.5563 127.311 43.962 127.615 44.1647C127.92 44.3676 128.325 44.6718 128.63 44.6718C128.934 44.7732 129.34 44.7732 129.745 44.7732H134.41V45.5844L129.948 45.6858ZM147.592 37.4723H140.899C140.088 37.4723 139.48 37.6751 139.074 38.1821C138.567 38.6891 138.364 39.2975 138.364 40.1088V42.1367C138.364 42.5423 138.466 42.8466 138.466 43.1507C138.567 43.455 138.668 43.7592 139.074 44.0633C139.682 44.5703 140.29 44.7732 140.899 44.7732H144.955C146.679 44.7732 147.49 43.8606 147.49 42.1367L147.592 37.4723ZM148.403 42.0354C148.403 42.5423 148.301 43.0493 148.301 43.455C148.2 43.8606 147.997 44.2662 147.693 44.6718C146.983 45.3816 146.172 45.6858 145.056 45.6858H141.101C140.088 45.6858 139.277 45.3816 138.567 44.7732C137.857 44.1647 137.553 43.3536 137.553 42.2381V40.2101C137.553 37.9793 138.77 36.7625 141 36.6611H147.592V35.7485C147.592 35.0386 147.389 34.3289 146.983 33.8219C146.78 33.5177 146.374 33.2134 145.969 33.112C145.664 33.0107 145.158 32.9093 144.752 32.9093H137.654V32.098H144.448C145.056 32.098 145.664 32.1994 146.172 32.3008C146.374 32.4023 146.679 32.5037 146.882 32.605C147.084 32.8079 147.389 32.9093 147.49 33.2134C148.099 34.0246 148.403 34.9373 148.403 35.9512V42.0354ZM155.906 32.9093C154.081 32.9093 153.169 33.9233 153.169 35.9512V45.6858H152.357V36.0527C152.256 33.5177 153.473 32.1994 156.008 32.1994H156.92V33.0107L155.906 32.9093ZM169.291 32.9093H163.005C162.498 32.9093 162.092 33.0107 161.788 33.112C161.382 33.2134 161.078 33.4163 160.773 33.8219C160.469 34.126 160.165 34.5316 160.165 34.8359C160.165 35.1401 159.962 35.5457 159.962 36.0527V42.2381C159.962 43.2521 160.266 43.962 160.875 44.3676C161.179 44.5703 161.483 44.6718 161.889 44.7732C162.193 44.8746 162.7 44.9759 163.106 44.9759H165.844C166.858 44.9759 167.669 44.7732 168.379 44.2662C168.987 43.7592 169.392 43.0493 169.392 42.0354V32.9093H169.291ZM170.001 41.934C169.899 44.5703 168.581 45.7872 165.945 45.6858H163.005C162.396 45.6858 161.889 45.5844 161.281 45.4829C160.773 45.2802 160.266 45.0773 159.861 44.5703C159.556 44.1647 159.252 43.6577 159.252 43.2521C159.151 42.7451 159.05 42.2381 159.05 41.8325V36.0527C159.05 33.4163 160.469 32.1994 162.903 32.1994H169.189V27.8392H170.001V41.934Z" fill="#008AC9"/>
<path d="M19.52 31.6925C19.7228 31.591 20.027 31.4896 20.3312 31.4896C20.8382 29.2588 22.8663 27.5351 25.2999 27.5351C27.7335 27.5351 29.7616 29.2588 30.2686 31.4896C30.9783 31.6925 31.6882 31.8953 32.0938 32.4022C32.0938 31.9966 32.0938 31.4896 31.9923 31.1855C31.6882 27.7378 28.849 25 25.2999 25C21.6494 25 18.7088 27.9406 18.6074 31.4896C18.6074 31.7939 18.6074 32.0981 18.6074 32.5036C18.8102 32.0981 19.1144 31.8953 19.52 31.6925Z" fill="#E3001B"/>
<path d="M29.1541 32.3008H21.042C20.6364 32.3008 20.2308 32.4022 19.8252 32.5036C19.4196 32.7064 19.1154 32.9092 18.8112 33.112C18.3042 33.7205 18.1014 34.5316 18 35.7484V42.0353C18 43.1507 18.2028 44.0633 18.8112 44.6718C19.014 44.8745 19.4196 45.1788 19.8252 45.2801C20.2308 45.4829 20.6364 45.4829 21.042 45.4829H29.1541C31.2835 45.4829 32.2975 44.3675 32.2975 42.0353V35.7484C32.1961 33.4162 31.1821 32.3008 29.1541 32.3008Z" fill="#E3001B"/>
</g>
</svg>
