<svg width="188" height="76" viewBox="0 0 188 76" fill="none" xmlns="http://www.w3.org/2000/svg">
<path fill-rule="evenodd" clip-rule="evenodd" d="M119.858 27.6101C122.537 27.6101 124.708 25.4592 124.708 22.8069C124.708 20.153 122.537 18 119.858 18C117.183 18 115.014 20.153 115.014 22.8069C115.014 25.4592 117.183 27.6101 119.858 27.6101ZM82.7213 30.2041C82.5025 30.7489 80.9277 35.1586 77.119 39.729V20.187L66.9709 22.1753V57.5972H77.119V46.648C80.0582 51.018 81.5096 57.5972 81.5096 57.5972H93.665C92.4626 52.6421 87.2031 43.5056 87.2031 43.5056C91.9234 37.5729 93.9968 31.2514 94.3266 30.2041H82.7213ZM109.4 29.8343C100.311 30.1235 95.6967 34.1661 95.6967 42.2021V57.5972H105.613V45.043C105.613 40.2309 106.249 38.1684 112.009 37.9716V29.9753C111.039 29.7713 109.4 29.8343 109.4 29.8343ZM49.9513 34.1046C48.7083 34.0235 45.8306 33.8392 45.8306 31.271C45.8306 28.172 49.9737 28.172 51.5277 28.172C54.2601 28.172 57.799 28.9724 60.3261 29.7218C60.3261 29.7218 61.7358 30.2144 62.9356 30.719L63.047 30.7489V22.2615L62.8939 22.2166C59.9114 21.1822 56.4435 20.187 50.0139 20.187C38.928 20.187 35 26.5891 35 32.0735C35 35.2351 36.367 42.6757 49.0631 43.534C50.1394 43.5996 52.9958 43.7628 52.9958 46.4166C52.9958 48.6078 50.6572 49.8999 46.724 49.8999C42.4137 49.8999 38.2325 48.8103 35.6929 47.7769V56.5184C39.4948 57.5063 43.7807 58 48.8037 58C59.6431 58 64.4979 51.9429 64.4979 45.9395C64.4979 39.1325 59.0654 34.7099 49.9513 34.1046ZM114.943 57.5972H124.779V30.2351H114.943V57.5972ZM143.3 21.9315V57.5972H153.137V20.187L143.3 21.9315ZM128.945 21.9315L138.774 20.187V57.5972H128.945V21.9315Z" fill="url(#paint0_linear_547_39270)"/>
<defs>
<linearGradient id="paint0_linear_547_39270" x1="66.949" y1="18" x2="75.677" y2="67.3641" gradientUnits="userSpaceOnUse">
<stop stop-color="#6B195F"/>
<stop offset="1" stop-color="#4C255B"/>
</linearGradient>
</defs>
</svg>
