<svg width="188" height="76" viewBox="0 0 188 76" fill="none" xmlns="http://www.w3.org/2000/svg">
<path d="M48.4927 42.5269C48.4927 44.8836 47.7294 46.7179 46.2073 48.0474C44.6857 49.3549 42.5665 50 39.8501 50C38.7099 50 37.6362 49.8818 36.6218 49.6138C35.6029 49.3416 34.7316 48.9733 34 48.473V42.8952C34.862 43.4615 35.8631 43.9224 36.9859 44.3086C38.1081 44.6861 39.1271 44.8836 40.0341 44.8836C40.8021 44.8836 41.3808 44.7209 41.7761 44.3961C42.1667 44.0712 42.364 43.5888 42.364 42.9919C42.364 42.7156 42.3017 42.4343 42.18 42.1847C42.039 41.9098 41.8607 41.6557 41.6503 41.4296C41.4212 41.1708 40.8108 40.6224 39.8189 39.7799C38.6061 38.7747 37.7262 37.7522 37.1786 36.7163C36.6305 35.6722 36.357 34.531 36.357 33.2849C36.357 31.8894 36.6939 30.6341 37.3719 29.524C38.0498 28.414 39.0059 27.5582 40.2453 26.9392C41.48 26.3248 42.863 26.022 44.3984 26.022C46.8679 26.022 49.0899 26.5924 51.0655 27.7377L48.9641 32.4771C47.1951 31.5339 45.6914 31.073 44.4521 31.073C43.792 31.073 43.2802 31.2223 42.9208 31.5206C42.5711 31.8147 42.3911 32.249 42.3911 32.8199C42.3911 33.3416 42.5665 33.8291 42.9121 34.2808C43.2577 34.7371 43.9178 35.3387 44.8877 36.0932C46.1046 37.0191 47.0111 38.0023 47.5995 39.0162C48.1967 40.0341 48.4927 41.1969 48.4927 42.5269ZM59.1964 49.6885H53.1306L56.8036 31.5032H51.8871L52.9557 26.3468H68.903L67.8069 31.5032H62.873L59.1964 49.6885ZM66.2096 49.6885L71.0003 26.3509H77.1602L72.3644 49.6885H66.2086H66.2096ZM89.4038 31.1916C88.2816 31.1916 87.2713 31.6039 86.373 32.4291C85.4751 33.2583 84.7706 34.4036 84.2542 35.861C83.7419 37.322 83.4863 38.8975 83.4863 40.6045C83.4863 42.0353 83.7736 43.0973 84.3529 43.8083C84.9317 44.4927 85.763 44.8437 86.849 44.8437C87.6982 44.8437 88.5822 44.7516 89.4534 44.5367C90.3374 44.304 91.3707 43.9265 92.5513 43.4134V48.5825C90.4504 49.5442 88.1691 49.9959 85.7221 49.9959C83.0374 49.9959 80.9539 49.2061 79.5126 47.6479C78.0631 46.0724 77.3438 43.839 77.3438 40.9426C77.3438 38.1036 77.8653 35.5101 78.9205 33.1488C79.9661 30.7875 81.3987 29.015 83.1994 27.8032C85.0038 26.6011 87.0693 26 89.3992 26C92.1382 26 94.6255 26.6977 96.8619 28.1024L94.5672 32.96C93.606 32.3764 92.7215 31.9462 91.9137 31.6433C91.1119 31.3398 90.2611 31.1867 89.4038 31.1916ZM113.877 33.3416C113.877 36.0231 112.997 38.1384 111.219 39.6525C109.441 41.1841 107.012 41.9391 103.933 41.9391H102.599L101.041 49.689H94.9712L99.7567 26.3509H105.544C108.23 26.3509 110.29 26.9566 111.709 28.1638C113.168 29.3705 113.877 31.0996 113.877 33.3416ZM103.69 36.8355H104.673C105.612 36.8355 106.375 36.5321 106.955 35.9004C107.533 35.2773 107.821 34.4962 107.821 33.5304C107.821 32.9033 107.627 32.3984 107.259 32.0121C106.891 31.6305 106.384 31.4372 105.724 31.4372H104.804L103.69 36.8355ZM126.314 45.3179H119.359L117.415 49.6885H111.13L122.66 26.3509H130.463L132.366 49.6885H126.467L126.314 45.3179ZM121.577 40.337H126.121L125.852 33.5703L125.825 32.1968C125.825 31.3978 125.843 30.7 125.892 30.1031C125.646 31.0105 125.327 31.8969 124.94 32.7539L121.577 40.337ZM143.398 34.9965L148.238 26.3463H155L145.513 40.6219L143.631 49.6885H137.553L139.42 40.6311L135.747 26.3555H142.002L143.398 34.9965Z" fill="#F25822"/>
</svg>
