<svg width="188" height="76" viewBox="0 0 188 76" fill="none" xmlns="http://www.w3.org/2000/svg">
<path fill-rule="evenodd" clip-rule="evenodd" d="M37.3398 24H56.7515C57.2147 24 57.6426 24.2492 57.8736 24.6536L63.529 34.5536C63.8223 35.067 63.7352 35.715 63.3168 36.1313L47.7501 51.6236C47.2458 52.1255 46.4347 52.1255 45.9304 51.6236L30.3847 36.1522C29.9566 35.7263 29.8765 35.0594 30.1912 34.5427L36.2365 24.6218C36.4719 24.2355 36.8897 24 37.3398 24ZM54.2451 28.42V31.1978H48.7155V33.1237C52.5992 33.3295 55.5129 34.1748 55.5345 35.188L55.5344 37.3002C55.5128 38.3134 52.5992 39.1587 48.7155 39.3645V44.0909H45.0437V39.3645C41.1601 39.1587 38.2463 38.3134 38.2248 37.3002L38.2248 35.188C38.2465 34.1748 41.1601 33.3295 45.0437 33.1237V31.1978H39.5141V28.42H54.2451ZM46.8797 37.9134C51.0241 37.9134 54.4883 37.1987 55.336 36.2441C54.6171 35.4347 52.0168 34.7976 48.7155 34.6227V36.6391C48.1238 36.6705 47.5096 36.687 46.8797 36.687C46.2497 36.687 45.6355 36.6705 45.0437 36.6391V34.6227C41.7425 34.7976 39.1421 35.4347 38.4232 36.2441C39.271 37.1987 42.7351 37.9134 46.8797 37.9134Z" fill="#009393"/>
<path d="M71.1072 29.3719L75.5945 28.8635V33.248H79.4897V37.0606H75.5633V42.9701C75.5633 44.3681 76.145 45.067 77.3083 45.067C78.0562 45.067 78.6794 44.9399 79.1781 44.6858L80.2064 48.4984C79.1884 48.9008 78.1082 49.1337 76.9655 49.1973C75.1582 49.282 73.7247 48.8479 72.6653 47.8947C71.6265 46.9203 71.1072 45.2788 71.1072 42.9701V37.0606H68.365V33.248H71.1072V29.3719Z" fill="#009393"/>
<path d="M96.284 42.4935H84.9723C85.097 43.2984 85.5229 43.9656 86.25 44.4952C86.9771 45.0035 87.9431 45.2576 89.148 45.2576C90.8723 45.2576 92.2018 44.8446 93.1367 44.0186L95.6608 46.878C94.1234 48.4242 91.9214 49.1973 89.0545 49.1973C86.3123 49.1973 84.183 48.4454 82.6664 46.9415C81.1706 45.4377 80.4228 43.4043 80.4228 40.8414C80.4228 38.4268 81.1603 36.4781 82.6352 34.9954C84.1102 33.4916 86.0942 32.7396 88.5871 32.7396C91.3086 32.7396 93.3859 33.5869 94.8194 35.2814C96.2736 36.9758 96.7618 39.3799 96.284 42.4935ZM84.9723 39.1575H92.2641C92.2226 38.3526 91.8486 37.7384 91.1423 37.3148C90.436 36.8699 89.5842 36.6475 88.5871 36.6475C87.6938 36.6475 86.9251 36.8699 86.2812 37.3148C85.6371 37.7595 85.2009 38.3738 84.9723 39.1575Z" fill="#009393"/>
<path d="M100.025 29.3719L104.513 28.8635V33.248H108.407V37.0606H104.481V42.9701C104.481 44.3681 105.063 45.067 106.226 45.067C106.974 45.067 107.597 44.9399 108.096 44.6858L109.124 48.4984C108.106 48.9008 107.026 49.1337 105.883 49.1973C104.076 49.282 102.642 48.8479 101.583 47.8947C100.544 46.9203 100.025 45.2788 100.025 42.9701V37.0606H97.2828V33.248H100.025V29.3719Z" fill="#009393"/>
<path d="M110.807 26.6077H115.325V35.0907C116.426 33.6292 117.984 32.8985 120 32.8985C124.092 32.8985 126.138 35.4084 126.138 40.4284V48.8479H121.651V40.4602C121.651 39.3799 121.381 38.5433 120.841 37.9502C120.322 37.3571 119.615 37.0606 118.722 37.0606C117.745 37.0606 116.924 37.3995 116.26 38.0773C115.616 38.7551 115.294 39.6976 115.294 40.9049V48.8479H110.807V26.6077Z" fill="#009393"/>
<path d="M143.737 42.4935H132.425C132.55 43.2984 132.976 43.9656 133.703 44.4952C134.43 45.0035 135.396 45.2576 136.601 45.2576C138.325 45.2576 139.655 44.8446 140.59 44.0186L143.114 46.878C141.576 48.4242 139.374 49.1973 136.507 49.1973C133.765 49.1973 131.636 48.4454 130.119 46.9415C128.623 45.4377 127.876 43.4043 127.876 40.8414C127.876 38.4268 128.614 36.4781 130.088 34.9954C131.563 33.4916 133.547 32.7396 136.04 32.7396C138.762 32.7396 140.839 33.5869 142.272 35.2814C143.726 36.9758 144.215 39.3799 143.737 42.4935ZM132.425 39.1575H139.717C139.676 38.3526 139.301 37.7384 138.595 37.3148C137.889 36.8699 137.038 36.6475 136.04 36.6475C135.146 36.6475 134.378 36.8699 133.734 37.3148C133.09 37.7595 132.654 38.3738 132.425 39.1575Z" fill="#009393"/>
<path d="M145.598 33.1845H149.774L150.117 34.9001C151.093 33.5021 152.464 32.8032 154.23 32.8032C155.684 32.8032 156.94 33.2798 158 34.2329L156.131 37.8548C155.404 37.3253 154.583 37.0606 153.669 37.0606C152.651 37.0606 151.799 37.3889 151.114 38.0455C150.428 38.6809 150.085 39.56 150.085 40.6825V48.8479H145.598V33.1845Z" fill="#009393"/>
</svg>
