<svg width="188" height="76" viewBox="0 0 188 76" fill="none" xmlns="http://www.w3.org/2000/svg">
<path d="M109.328 22C102.315 22 96.0486 25.6348 96.0486 32.3502C96.0486 40.0516 107.163 40.5835 107.163 44.4524C107.163 46.0815 105.296 47.5398 102.107 47.5398C97.5822 47.5398 94.2001 45.5021 94.2001 45.5021L92.7529 52.2788C92.7529 52.2788 96.6491 54 101.822 54C109.489 54 115.522 50.1867 115.522 43.3565C115.522 35.2186 104.361 34.7025 104.361 31.1115C104.361 29.8352 105.894 28.437 109.073 28.437C112.661 28.437 115.587 29.9189 115.587 29.9189L117.004 23.3739C117.004 23.3739 113.819 22 109.328 22ZM45.1698 22.494L45 23.4819C45 23.4819 47.9502 24.0218 50.6073 25.0989C54.0286 26.3339 54.2724 27.0529 54.8485 29.286L61.1272 53.4906H69.5441L82.5109 22.494H74.1133L65.7815 43.5687L62.3816 25.7047C62.0698 23.6603 60.4904 22.494 58.5571 22.494H45.1698ZM85.8876 22.494L79.3 53.4905H87.3077L93.8722 22.4939H85.8876V22.494ZM130.549 22.494C128.618 22.494 127.595 23.5278 126.845 25.3343L115.113 53.4905H123.51L125.135 48.7977H135.365L136.353 53.4905H143.763L137.299 22.494H130.549ZM131.641 30.8683L134.131 42.4997H127.462L131.641 30.8683Z" fill="#1434CB"/>
</svg>
