<svg width="94" height="102" viewBox="0 0 94 102" fill="none" xmlns="http://www.w3.org/2000/svg">
<circle cx="47" cy="55" r="47" fill="#A70A2E"/>
<path d="M56.332 9.20202C56.1054 11.6725 53.7029 13.3282 51.2408 13.0242C48.4279 12.6769 45.5725 12.677 42.7596 13.0243C40.2974 13.3283 37.8948 11.6725 37.6682 9.20208L37.6434 8.93139C40.6672 8.32057 43.7961 8 47 8C50.2039 8 53.333 8.32059 56.3569 8.93144L56.332 9.20202Z" fill="#B83A57"/>
<path d="M67.815 12.8489L67.1259 13.6772C65.5396 15.584 66.0676 18.4522 68.0242 19.9766C70.2629 21.7208 72.2792 23.737 74.0234 25.9757C75.5478 27.9323 78.416 28.4603 80.3227 26.874L82.9328 24.7026C78.782 19.7848 73.6401 15.7309 67.815 12.8489Z" fill="#B83A57"/>
<path d="M90.4901 37.1458L84.7982 37.668C82.3278 37.8947 80.672 40.2972 80.976 42.7594C81.3233 45.5723 81.3233 48.4277 80.976 51.2406C80.672 53.7027 82.3277 56.1053 84.7982 56.3319L92.9172 57.0768H93.9549C93.9849 56.3883 94 55.6959 94 55C94 48.6796 92.7524 42.6506 90.4901 37.1458Z" fill="#B83A57"/>
<path d="M87.8314 78.2928L86.5905 72.3404L80.3226 67.1259C78.4159 65.5396 75.5477 66.0676 74.0233 68.0241C72.2791 70.2628 70.2628 72.2791 68.0241 74.0232C66.0675 75.5476 65.5395 78.4159 67.1258 80.3226L72.3403 86.5906L74.3234 93.2462C79.8326 89.3033 84.4545 84.1997 87.8314 78.2928Z" fill="#B83A57"/>
<path d="M57.0769 100.917V92.9172L56.332 84.7978C56.1054 82.3273 53.7029 80.6716 51.2407 80.9755C48.4278 81.3228 45.5725 81.3228 42.7596 80.9755C40.2974 80.6715 37.8949 82.3272 37.6682 84.7977L36.9233 92.9173V100.917C40.1695 101.626 43.5411 102 47 102C50.459 102 53.8307 101.626 57.0769 100.917Z" fill="#B83A57"/>
<path d="M19.7613 93.3067L21.6596 86.5905L26.8744 80.3222C28.4607 78.4154 27.9327 75.5473 25.9762 74.0229C23.7375 72.2787 21.7213 70.2624 19.9771 68.0237C18.4527 66.0671 15.5845 65.5391 13.6777 67.1254L7.40941 72.3403L5.85998 77.7444C9.27845 83.9146 14.0447 89.2345 19.7613 93.3067Z" fill="#B83A57"/>
<path d="M0.0488832 57.1629L1.08278 57.0768L9.20254 56.3319C11.673 56.1052 13.3287 53.7027 13.0247 51.2405C12.6774 48.4277 12.6774 45.5723 13.0247 42.7594C13.3287 40.2973 11.673 37.8948 9.20252 37.6681L3.50988 37.1459C1.24757 42.6506 0 48.6796 0 55C0 55.7249 0.0164115 56.446 0.0488832 57.1629Z" fill="#B83A57"/>
<path d="M11.0672 24.7027L13.6776 26.8744C15.5844 28.4607 18.4526 27.9327 19.977 25.9761C21.7212 23.7374 23.7374 21.7212 25.9761 19.977C27.9326 18.4525 28.4606 15.5844 26.8743 13.6776L26.1849 12.8489C20.3598 15.731 15.2179 19.7849 11.0672 24.7027Z" fill="#B83A57"/>
<circle cx="47" cy="47" r="47" fill="#E41645"/>
<g opacity="0.3">
<path d="M94 47.0207C93.9985 50.4724 93.6249 53.8371 92.9172 57.0768L84.7982 56.3319C82.3277 56.1053 80.672 53.7027 80.976 51.2406C81.3233 48.4277 81.3233 45.5723 80.976 42.7594C80.672 40.2972 82.3278 37.8947 84.7982 37.668L92.9172 36.9232C93.6249 40.1629 93.9985 43.5276 94 46.9792L94 47.0207Z" fill="#FAFAFA"/>
<path d="M74.0234 25.9757C75.5478 27.9323 78.416 28.4603 80.3227 26.874L86.5905 21.6596C84.773 18.8259 82.6595 16.2001 80.2938 13.8259C80.2741 13.8061 80.2543 13.7863 80.2346 13.7665C80.2144 13.7464 80.1943 13.7263 80.1741 13.7062C77.7999 11.3404 75.174 9.22695 72.3403 7.4094L67.1259 13.6772C65.5396 15.584 66.0676 18.4522 68.0242 19.9766C70.2629 21.7208 72.2792 23.737 74.0234 25.9757Z" fill="#FAFAFA"/>
<path d="M51.2408 13.0242C53.7029 13.3282 56.1054 11.6725 56.332 9.20202L57.0769 1.0828C53.8307 0.373655 50.459 0 47 0C43.5411 0 40.1695 0.373637 36.9233 1.08275L37.6682 9.20208C37.8948 11.6725 40.2974 13.3283 42.7596 13.0243C45.5725 12.677 48.4279 12.6769 51.2408 13.0242Z" fill="#FAFAFA"/>
<path d="M25.9761 19.977C27.9326 18.4525 28.4606 15.5844 26.8743 13.6776L21.6596 7.40947C15.9444 11.0751 11.0751 15.9445 7.40942 21.6597L13.6776 26.8744C15.5844 28.4607 18.4526 27.9327 19.977 25.9761C21.7212 23.7374 23.7374 21.7212 25.9761 19.977Z" fill="#FAFAFA"/>
<path d="M9.20252 37.6681C11.673 37.8948 13.3287 40.2973 13.0247 42.7594C12.6774 45.5723 12.6774 48.4277 13.0247 51.2405C13.3287 53.7027 11.673 56.1052 9.20254 56.3319L1.08278 57.0768C0.373646 53.8306 0 50.4589 0 47C0 43.5411 0.373647 40.1694 1.08278 36.9232L9.20252 37.6681Z" fill="#FAFAFA"/>
<path d="M19.9771 68.0237C18.4527 66.0671 15.5845 65.5391 13.6777 67.1254L7.40941 72.3403C11.0751 78.0555 15.9444 82.9248 21.6596 86.5905L26.8744 80.3222C28.4607 78.4155 27.9327 75.5473 25.9762 74.0229C23.7375 72.2787 21.7213 70.2624 19.9771 68.0237Z" fill="#FAFAFA"/>
<path d="M42.7596 80.9755C40.2974 80.6715 37.8949 82.3272 37.6682 84.7977L36.9233 92.9173C40.1603 93.6244 43.522 93.9979 46.9707 94L47 94L47.0293 94C50.478 93.9979 53.8398 93.6243 57.0769 92.9172L56.332 84.7978C56.1054 82.3273 53.7028 80.6716 51.2407 80.9755C48.4278 81.3228 45.5725 81.3228 42.7596 80.9755Z" fill="#FAFAFA"/>
<path d="M68.0241 74.0232C66.0675 75.5476 65.5395 78.4159 67.1258 80.3226L72.3403 86.5906C75.1773 84.7709 77.806 82.6547 80.1824 80.2856L80.2856 80.1824C82.6546 77.806 84.7709 75.1774 86.5905 72.3404L80.3226 67.1259C78.4159 65.5396 75.5477 66.0676 74.0233 68.0241C72.2791 70.2628 70.2628 72.2791 68.0241 74.0232Z" fill="#FAFAFA"/>
</g>
<circle opacity="0.2" cx="46.9987" cy="47.0001" r="29.5377" stroke="#FAFAFA" stroke-width="3"/>
<path d="M60.4997 47.7498C60.4934 46.0894 59.988 44.4692 59.0491 43.0996C58.1102 41.7301 56.7812 40.6744 55.2347 40.0698C55.2347 37.8818 54.3655 35.7834 52.8184 34.2362C51.2712 32.689 49.1728 31.8198 46.9847 31.8198C44.7967 31.8198 42.6983 32.689 41.1511 34.2362C39.6039 35.7834 38.7347 37.8818 38.7347 40.0698C36.9454 40.7719 35.4574 42.0767 34.5276 43.759C33.5977 45.4413 33.2845 47.3954 33.642 49.284C33.9994 51.1726 35.0051 52.8772 36.4854 54.1033C37.9657 55.3294 39.8276 56.0002 41.7497 55.9998H42.0497C41.6708 57.3052 41.0388 58.5233 40.1897 59.5848C40.0198 59.8056 39.9146 60.0693 39.8861 60.3465C39.8576 60.6236 39.9069 60.9032 40.0283 61.1539C40.1498 61.4047 40.3387 61.6166 40.5739 61.766C40.809 61.9154 41.0812 61.9964 41.3597 61.9998H52.6397C52.9236 62.0008 53.2019 61.9212 53.4423 61.7703C53.6827 61.6194 53.8754 61.4034 53.9979 61.1473C54.1204 60.8913 54.1678 60.6057 54.1345 60.3238C54.1012 60.0419 53.9886 59.7753 53.8097 59.5548C52.9641 58.5023 52.3323 57.2947 51.9497 55.9998H52.2497C54.4366 55.9959 56.5327 55.1254 58.079 53.5791C59.6253 52.0328 60.4958 49.9366 60.4997 47.7498V47.7498ZM44.0897 58.9998C44.6868 57.7887 45.0965 56.494 45.3047 55.1598C45.9103 54.88 46.4795 54.5274 46.9997 54.1098C47.52 54.5274 48.0892 54.88 48.6947 55.1598C48.903 56.494 49.3127 57.7887 49.9097 58.9998H44.0897ZM48.1697 51.0498L48.0497 50.9298L47.9297 50.8098H47.8247L47.5547 50.6748L47.2847 50.5848H46.7147L46.4447 50.6748C46.3526 50.7048 46.2663 50.7505 46.1897 50.8098H46.0697L45.9497 50.9298L45.8297 51.0498C45.3022 51.7021 44.626 52.2184 43.8579 52.5556C43.0897 52.8928 42.252 53.0409 41.4148 52.9877C40.5776 52.9345 39.7653 52.6815 39.046 52.2498C38.3267 51.818 37.7214 51.2203 37.2807 50.5065C36.8399 49.7927 36.5767 48.9837 36.5129 48.1472C36.4492 47.3107 36.5868 46.4712 36.9143 45.6988C37.2418 44.9265 37.7496 44.2439 38.3952 43.7082C39.0407 43.1725 39.8053 42.7993 40.6247 42.6198C40.7078 42.5863 40.7881 42.5462 40.8647 42.4998C40.9574 42.4661 41.0476 42.426 41.1347 42.3798C41.212 42.3231 41.2825 42.2577 41.3447 42.1848C41.4952 42.066 41.6052 41.9036 41.6597 41.7198C41.7074 41.6406 41.7428 41.5546 41.7647 41.4648C41.7793 41.3654 41.7793 41.2643 41.7647 41.1648C41.772 41.08 41.772 40.9947 41.7647 40.9098C41.7498 40.6851 41.7498 40.4596 41.7647 40.2348C41.7647 38.8424 42.3179 37.5071 43.3024 36.5225C44.287 35.5379 45.6224 34.9848 47.0147 34.9848C48.4071 34.9848 49.7425 35.5379 50.7271 36.5225C51.7116 37.5071 52.2647 38.8424 52.2647 40.2348C52.2796 40.4596 52.2796 40.6851 52.2647 40.9098C52.2568 40.9896 52.2568 41.07 52.2647 41.1498C52.2498 41.2543 52.2498 41.3604 52.2647 41.4648C52.2867 41.5546 52.3221 41.6406 52.3697 41.7198C52.4243 41.9036 52.5343 42.066 52.6847 42.1848C52.747 42.2577 52.8175 42.3231 52.8947 42.3798C52.9819 42.426 53.0721 42.4661 53.1647 42.4998C53.2419 42.5411 53.3221 42.5762 53.4047 42.6048C54.2242 42.7843 54.9888 43.1575 55.6343 43.6932C56.2799 44.2289 56.7877 44.9115 57.1152 45.6838C57.4426 46.4562 57.5803 47.2957 57.5165 48.1322C57.4528 48.9687 57.1895 49.7777 56.7488 50.4915C56.3081 51.2053 55.7027 51.803 54.9835 52.2348C54.2642 52.6665 53.4519 52.9195 52.6147 52.9727C51.7775 53.0259 50.9398 52.8778 50.1716 52.5406C49.4035 52.2034 48.7273 51.6871 48.1997 51.0348L48.1697 51.0498Z" fill="#FAFAFA"/>
</svg>
