<svg width="94" height="102" viewBox="0 0 94 102" fill="none" xmlns="http://www.w3.org/2000/svg">
<circle cx="47" cy="55" r="47" fill="#A70A2E"/>
<path d="M56.332 9.20202C56.1054 11.6725 53.7029 13.3282 51.2408 13.0242C48.4279 12.6769 45.5725 12.677 42.7596 13.0243C40.2974 13.3283 37.8948 11.6725 37.6682 9.20208L37.6434 8.93139C40.6672 8.32057 43.7961 8 47 8C50.2039 8 53.333 8.32059 56.3569 8.93144L56.332 9.20202Z" fill="#B83A57"/>
<path d="M67.815 12.8489L67.1259 13.6772C65.5396 15.584 66.0676 18.4522 68.0242 19.9766C70.2629 21.7208 72.2792 23.737 74.0234 25.9757C75.5478 27.9323 78.416 28.4603 80.3227 26.874L82.9328 24.7026C78.782 19.7848 73.6401 15.7309 67.815 12.8489Z" fill="#B83A57"/>
<path d="M90.4901 37.1458L84.7982 37.668C82.3278 37.8947 80.672 40.2972 80.976 42.7594C81.3233 45.5723 81.3233 48.4277 80.976 51.2406C80.672 53.7027 82.3277 56.1053 84.7982 56.3319L92.9172 57.0768H93.9549C93.9849 56.3883 94 55.6959 94 55C94 48.6796 92.7524 42.6506 90.4901 37.1458Z" fill="#B83A57"/>
<path d="M87.8314 78.2928L86.5905 72.3404L80.3226 67.1259C78.4159 65.5396 75.5477 66.0676 74.0233 68.0241C72.2791 70.2628 70.2628 72.2791 68.0241 74.0232C66.0675 75.5476 65.5395 78.4159 67.1258 80.3226L72.3403 86.5906L74.3234 93.2462C79.8326 89.3033 84.4545 84.1997 87.8314 78.2928Z" fill="#B83A57"/>
<path d="M57.0769 100.917V92.9172L56.332 84.7978C56.1054 82.3273 53.7029 80.6716 51.2407 80.9755C48.4278 81.3228 45.5725 81.3228 42.7596 80.9755C40.2974 80.6715 37.8949 82.3272 37.6682 84.7977L36.9233 92.9173V100.917C40.1695 101.626 43.5411 102 47 102C50.459 102 53.8307 101.626 57.0769 100.917Z" fill="#B83A57"/>
<path d="M19.7613 93.3067L21.6596 86.5905L26.8744 80.3222C28.4607 78.4154 27.9327 75.5473 25.9762 74.0229C23.7375 72.2787 21.7213 70.2624 19.9771 68.0237C18.4527 66.0671 15.5845 65.5391 13.6777 67.1254L7.40941 72.3403L5.85998 77.7444C9.27845 83.9146 14.0447 89.2345 19.7613 93.3067Z" fill="#B83A57"/>
<path d="M0.0488832 57.1629L1.08278 57.0768L9.20254 56.3319C11.673 56.1052 13.3287 53.7027 13.0247 51.2405C12.6774 48.4277 12.6774 45.5723 13.0247 42.7594C13.3287 40.2973 11.673 37.8948 9.20252 37.6681L3.50988 37.1459C1.24757 42.6506 0 48.6796 0 55C0 55.7249 0.0164115 56.446 0.0488832 57.1629Z" fill="#B83A57"/>
<path d="M11.0672 24.7027L13.6776 26.8744C15.5844 28.4607 18.4526 27.9327 19.977 25.9761C21.7212 23.7374 23.7374 21.7212 25.9761 19.977C27.9326 18.4525 28.4606 15.5844 26.8743 13.6776L26.1849 12.8489C20.3598 15.731 15.2179 19.7849 11.0672 24.7027Z" fill="#B83A57"/>
<circle cx="47" cy="47" r="47" fill="#E41645"/>
<g opacity="0.3">
<path d="M94 47.0207C93.9985 50.4724 93.6249 53.8371 92.9172 57.0768L84.7982 56.3319C82.3277 56.1053 80.672 53.7027 80.976 51.2406C81.3233 48.4277 81.3233 45.5723 80.976 42.7594C80.672 40.2972 82.3278 37.8947 84.7982 37.668L92.9172 36.9232C93.6249 40.1629 93.9985 43.5276 94 46.9792L94 47.0207Z" fill="#FAFAFA"/>
<path d="M74.0234 25.9757C75.5478 27.9323 78.416 28.4603 80.3227 26.874L86.5905 21.6596C84.773 18.8259 82.6595 16.2001 80.2938 13.8259C80.2741 13.8061 80.2543 13.7863 80.2346 13.7665C80.2144 13.7464 80.1943 13.7263 80.1741 13.7062C77.7999 11.3404 75.174 9.22695 72.3403 7.4094L67.1259 13.6772C65.5396 15.584 66.0676 18.4522 68.0242 19.9766C70.2629 21.7208 72.2792 23.737 74.0234 25.9757Z" fill="#FAFAFA"/>
<path d="M51.2408 13.0242C53.7029 13.3282 56.1054 11.6725 56.332 9.20202L57.0769 1.0828C53.8307 0.373655 50.459 0 47 0C43.5411 0 40.1695 0.373637 36.9233 1.08275L37.6682 9.20208C37.8948 11.6725 40.2974 13.3283 42.7596 13.0243C45.5725 12.677 48.4279 12.6769 51.2408 13.0242Z" fill="#FAFAFA"/>
<path d="M25.9761 19.977C27.9326 18.4525 28.4606 15.5844 26.8743 13.6776L21.6596 7.40947C15.9444 11.0751 11.0751 15.9445 7.40942 21.6597L13.6776 26.8744C15.5844 28.4607 18.4526 27.9327 19.977 25.9761C21.7212 23.7374 23.7374 21.7212 25.9761 19.977Z" fill="#FAFAFA"/>
<path d="M9.20252 37.6681C11.673 37.8948 13.3287 40.2973 13.0247 42.7594C12.6774 45.5723 12.6774 48.4277 13.0247 51.2405C13.3287 53.7027 11.673 56.1052 9.20254 56.3319L1.08278 57.0768C0.373646 53.8306 0 50.4589 0 47C0 43.5411 0.373647 40.1694 1.08278 36.9232L9.20252 37.6681Z" fill="#FAFAFA"/>
<path d="M19.9771 68.0237C18.4527 66.0671 15.5845 65.5391 13.6777 67.1254L7.40941 72.3403C11.0751 78.0555 15.9444 82.9248 21.6596 86.5905L26.8744 80.3222C28.4607 78.4155 27.9327 75.5473 25.9762 74.0229C23.7375 72.2787 21.7213 70.2624 19.9771 68.0237Z" fill="#FAFAFA"/>
<path d="M42.7596 80.9755C40.2974 80.6715 37.8949 82.3272 37.6682 84.7977L36.9233 92.9173C40.1603 93.6244 43.522 93.9979 46.9707 94L47 94L47.0293 94C50.478 93.9979 53.8398 93.6243 57.0769 92.9172L56.332 84.7978C56.1054 82.3273 53.7028 80.6716 51.2407 80.9755C48.4278 81.3228 45.5725 81.3228 42.7596 80.9755Z" fill="#FAFAFA"/>
<path d="M68.0241 74.0232C66.0675 75.5476 65.5395 78.4159 67.1258 80.3226L72.3403 86.5906C75.1773 84.7709 77.806 82.6547 80.1824 80.2856L80.2856 80.1824C82.6546 77.806 84.7709 75.1774 86.5905 72.3404L80.3226 67.1259C78.4159 65.5396 75.5477 66.0676 74.0233 68.0241C72.2791 70.2628 70.2628 72.2791 68.0241 74.0232Z" fill="#FAFAFA"/>
</g>
<circle opacity="0.2" cx="46.9987" cy="47.0001" r="29.5377" stroke="#FAFAFA" stroke-width="3"/>
<path d="M46.9997 52.9999C46.703 52.9999 46.413 53.0879 46.1664 53.2527C45.9197 53.4175 45.7274 53.6518 45.6139 53.9259C45.5004 54.2 45.4707 54.5016 45.5285 54.7926C45.5864 55.0835 45.7293 55.3508 45.939 55.5606C46.1488 55.7704 46.4161 55.9132 46.7071 55.9711C46.998 56.029 47.2996 55.9993 47.5737 55.8857C47.8478 55.7722 48.0821 55.58 48.2469 55.3333C48.4117 55.0866 48.4997 54.7966 48.4997 54.4999C48.4997 54.1021 48.3417 53.7206 48.0604 53.4393C47.7791 53.158 47.3975 52.9999 46.9997 52.9999ZM63.0047 55.2049L50.9297 34.2049C50.5394 33.5052 49.9694 32.9224 49.2785 32.5166C48.5876 32.1109 47.8009 31.897 46.9997 31.897C46.1985 31.897 45.4118 32.1109 44.7209 32.5166C44.03 32.9224 43.46 33.5052 43.0697 34.2049L31.0697 55.2049C30.6659 55.8859 30.4489 56.6615 30.4407 57.4532C30.4324 58.2448 30.6332 59.0247 31.0227 59.714C31.4123 60.4033 31.9768 60.9776 32.6592 61.379C33.3417 61.7803 34.118 61.9945 34.9097 61.9999H59.0897C59.8878 62.0078 60.6736 61.8033 61.3666 61.4073C62.0595 61.0113 62.6347 60.4382 63.0332 59.7467C63.4316 59.0551 63.639 58.27 63.634 57.4719C63.629 56.6738 63.4118 55.8914 63.0047 55.2049V55.2049ZM60.4097 58.2049C60.2782 58.4388 60.0864 58.6332 59.8542 58.7678C59.6221 58.9023 59.358 58.9721 59.0897 58.9699H34.9097C34.6414 58.9721 34.3774 58.9023 34.1452 58.7678C33.913 58.6332 33.7212 58.4388 33.5897 58.2049C33.4581 57.9769 33.3887 57.7182 33.3887 57.4549C33.3887 57.1916 33.4581 56.9329 33.5897 56.7049L45.5897 35.7049C45.7156 35.4592 45.9068 35.253 46.1424 35.109C46.3779 34.965 46.6486 34.8889 46.9247 34.8889C47.2008 34.8889 47.4715 34.965 47.707 35.109C47.9426 35.253 48.1338 35.4592 48.2597 35.7049L60.3347 56.7049C60.4835 56.9297 60.569 57.1904 60.5822 57.4596C60.5954 57.7289 60.5358 57.9967 60.4097 58.2349V58.2049ZM46.9997 40.9999C46.6019 40.9999 46.2204 41.158 45.939 41.4393C45.6577 41.7206 45.4997 42.1021 45.4997 42.4999V48.4999C45.4997 48.8977 45.6577 49.2793 45.939 49.5606C46.2204 49.8419 46.6019 49.9999 46.9997 49.9999C47.3975 49.9999 47.7791 49.8419 48.0604 49.5606C48.3417 49.2793 48.4997 48.8977 48.4997 48.4999V42.4999C48.4997 42.1021 48.3417 41.7206 48.0604 41.4393C47.7791 41.158 47.3975 40.9999 46.9997 40.9999Z" fill="#FAFAFA"/>
</svg>
