<svg width="94" height="102" viewBox="0 0 94 102" fill="none" xmlns="http://www.w3.org/2000/svg">
<circle cx="47" cy="55" r="47" fill="#A70A2E"/>
<path d="M56.332 9.20202C56.1054 11.6725 53.7029 13.3282 51.2408 13.0242C48.4279 12.6769 45.5725 12.677 42.7596 13.0243C40.2974 13.3283 37.8948 11.6725 37.6682 9.20208L37.6434 8.93139C40.6672 8.32057 43.7961 8 47 8C50.2039 8 53.333 8.32059 56.3569 8.93144L56.332 9.20202Z" fill="#B83A57"/>
<path d="M67.815 12.8489L67.1259 13.6772C65.5396 15.584 66.0676 18.4522 68.0242 19.9766C70.2629 21.7208 72.2792 23.737 74.0234 25.9757C75.5478 27.9323 78.416 28.4603 80.3227 26.874L82.9328 24.7026C78.782 19.7848 73.6401 15.7309 67.815 12.8489Z" fill="#B83A57"/>
<path d="M90.4901 37.1458L84.7982 37.668C82.3278 37.8947 80.672 40.2972 80.976 42.7594C81.3233 45.5723 81.3233 48.4277 80.976 51.2406C80.672 53.7027 82.3277 56.1053 84.7982 56.3319L92.9172 57.0768H93.9549C93.9849 56.3883 94 55.6959 94 55C94 48.6796 92.7524 42.6506 90.4901 37.1458Z" fill="#B83A57"/>
<path d="M87.8314 78.2928L86.5905 72.3404L80.3226 67.1259C78.4159 65.5396 75.5477 66.0676 74.0233 68.0241C72.2791 70.2628 70.2628 72.2791 68.0241 74.0232C66.0675 75.5476 65.5395 78.4159 67.1258 80.3226L72.3403 86.5906L74.3234 93.2462C79.8326 89.3033 84.4545 84.1997 87.8314 78.2928Z" fill="#B83A57"/>
<path d="M57.0769 100.917V92.9172L56.332 84.7978C56.1054 82.3273 53.7029 80.6716 51.2407 80.9755C48.4278 81.3228 45.5725 81.3228 42.7596 80.9755C40.2974 80.6715 37.8949 82.3272 37.6682 84.7977L36.9233 92.9173V100.917C40.1695 101.626 43.5411 102 47 102C50.459 102 53.8307 101.626 57.0769 100.917Z" fill="#B83A57"/>
<path d="M19.7613 93.3067L21.6596 86.5905L26.8744 80.3222C28.4607 78.4154 27.9327 75.5473 25.9762 74.0229C23.7375 72.2787 21.7213 70.2624 19.9771 68.0237C18.4527 66.0671 15.5845 65.5391 13.6777 67.1254L7.40941 72.3403L5.85998 77.7444C9.27845 83.9146 14.0447 89.2345 19.7613 93.3067Z" fill="#B83A57"/>
<path d="M0.0488832 57.1629L1.08278 57.0768L9.20254 56.3319C11.673 56.1052 13.3287 53.7027 13.0247 51.2405C12.6774 48.4277 12.6774 45.5723 13.0247 42.7594C13.3287 40.2973 11.673 37.8948 9.20252 37.6681L3.50988 37.1459C1.24757 42.6506 0 48.6796 0 55C0 55.7249 0.0164115 56.446 0.0488832 57.1629Z" fill="#B83A57"/>
<path d="M11.0672 24.7027L13.6776 26.8744C15.5844 28.4607 18.4526 27.9327 19.977 25.9761C21.7212 23.7374 23.7374 21.7212 25.9761 19.977C27.9326 18.4525 28.4606 15.5844 26.8743 13.6776L26.1849 12.8489C20.3598 15.731 15.2179 19.7849 11.0672 24.7027Z" fill="#B83A57"/>
<circle cx="47" cy="47" r="47" fill="#E41645"/>
<g opacity="0.3">
<path d="M94 47.0207C93.9985 50.4724 93.6249 53.8371 92.9172 57.0768L84.7982 56.3319C82.3277 56.1053 80.672 53.7027 80.976 51.2406C81.3233 48.4277 81.3233 45.5723 80.976 42.7594C80.672 40.2972 82.3278 37.8947 84.7982 37.668L92.9172 36.9232C93.6249 40.1629 93.9985 43.5276 94 46.9792L94 47.0207Z" fill="#FAFAFA"/>
<path d="M74.0234 25.9757C75.5478 27.9323 78.416 28.4603 80.3227 26.874L86.5905 21.6596C84.773 18.8259 82.6595 16.2001 80.2938 13.8259C80.2741 13.8061 80.2543 13.7863 80.2346 13.7665C80.2144 13.7464 80.1943 13.7263 80.1741 13.7062C77.7999 11.3404 75.174 9.22695 72.3403 7.4094L67.1259 13.6772C65.5396 15.584 66.0676 18.4522 68.0242 19.9766C70.2629 21.7208 72.2792 23.737 74.0234 25.9757Z" fill="#FAFAFA"/>
<path d="M51.2408 13.0242C53.7029 13.3282 56.1054 11.6725 56.332 9.20202L57.0769 1.0828C53.8307 0.373655 50.459 0 47 0C43.5411 0 40.1695 0.373637 36.9233 1.08275L37.6682 9.20208C37.8948 11.6725 40.2974 13.3283 42.7596 13.0243C45.5725 12.677 48.4279 12.6769 51.2408 13.0242Z" fill="#FAFAFA"/>
<path d="M25.9761 19.977C27.9326 18.4525 28.4606 15.5844 26.8743 13.6776L21.6596 7.40947C15.9444 11.0751 11.0751 15.9445 7.40942 21.6597L13.6776 26.8744C15.5844 28.4607 18.4526 27.9327 19.977 25.9761C21.7212 23.7374 23.7374 21.7212 25.9761 19.977Z" fill="#FAFAFA"/>
<path d="M9.20252 37.6681C11.673 37.8948 13.3287 40.2973 13.0247 42.7594C12.6774 45.5723 12.6774 48.4277 13.0247 51.2405C13.3287 53.7027 11.673 56.1052 9.20254 56.3319L1.08278 57.0768C0.373646 53.8306 0 50.4589 0 47C0 43.5411 0.373647 40.1694 1.08278 36.9232L9.20252 37.6681Z" fill="#FAFAFA"/>
<path d="M19.9771 68.0237C18.4527 66.0671 15.5845 65.5391 13.6777 67.1254L7.40941 72.3403C11.0751 78.0555 15.9444 82.9248 21.6596 86.5905L26.8744 80.3222C28.4607 78.4155 27.9327 75.5473 25.9762 74.0229C23.7375 72.2787 21.7213 70.2624 19.9771 68.0237Z" fill="#FAFAFA"/>
<path d="M42.7596 80.9755C40.2974 80.6715 37.8949 82.3272 37.6682 84.7977L36.9233 92.9173C40.1603 93.6244 43.522 93.9979 46.9707 94L47 94L47.0293 94C50.478 93.9979 53.8398 93.6243 57.0769 92.9172L56.332 84.7978C56.1054 82.3273 53.7028 80.6716 51.2407 80.9755C48.4278 81.3228 45.5725 81.3228 42.7596 80.9755Z" fill="#FAFAFA"/>
<path d="M68.0241 74.0232C66.0675 75.5476 65.5395 78.4159 67.1258 80.3226L72.3403 86.5906C75.1773 84.7709 77.806 82.6547 80.1824 80.2856L80.2856 80.1824C82.6546 77.806 84.7709 75.1774 86.5905 72.3404L80.3226 67.1259C78.4159 65.5396 75.5477 66.0676 74.0233 68.0241C72.2791 70.2628 70.2628 72.2791 68.0241 74.0232Z" fill="#FAFAFA"/>
</g>
<circle opacity="0.2" cx="46.9987" cy="47.0001" r="29.5377" stroke="#FAFAFA" stroke-width="3"/>
<path d="M59.2702 44.285C58.1913 44.0898 57.0966 43.9944 56.0002 44C55.3702 44 54.7552 44 54.1402 44.12C53.3746 43.0983 52.3973 42.2541 51.2752 41.645C52.239 40.5924 52.7741 39.2172 52.7752 37.79C52.7752 36.2544 52.1652 34.7817 51.0793 33.6959C49.9935 32.61 48.5208 32 46.9852 32C45.4496 32 43.9769 32.61 42.8911 33.6959C41.8052 34.7817 41.1952 36.2544 41.1952 37.79C41.1963 39.2172 41.7314 40.5924 42.6952 41.645C41.5798 42.2572 40.6041 43.095 39.8302 44.105C39.2452 44 38.6302 44 38.0002 44C36.9028 44.0043 35.8082 44.1097 34.7302 44.315C34.3808 44.3789 34.0653 44.5647 33.8401 44.8394C33.6149 45.1141 33.4944 45.4598 33.5002 45.815V58.19C33.4998 58.4104 33.548 58.6281 33.6414 58.8277C33.7347 59.0274 33.8709 59.204 34.0402 59.345C34.2085 59.4869 34.4059 59.59 34.6184 59.647C34.831 59.704 35.0535 59.7136 35.2702 59.675C36.1678 59.4795 37.0819 59.369 38.0002 59.345C40.9058 59.3418 43.7484 60.192 46.1752 61.79V61.79L46.3702 61.865C46.5692 61.9513 46.7833 61.9972 47.0002 62C47.1434 61.9982 47.2853 61.9729 47.4202 61.925H47.5252L47.7202 61.85C50.17 60.211 53.0526 59.3389 56.0002 59.345C56.9166 59.3493 57.8307 59.4397 58.7302 59.615C58.9469 59.6536 59.1694 59.644 59.382 59.587C59.5945 59.53 59.7919 59.4269 59.9602 59.285C60.1295 59.144 60.2657 58.9674 60.359 58.7677C60.4524 58.5681 60.5006 58.3504 60.5002 58.13V45.755C60.4989 45.405 60.3752 45.0664 60.1506 44.7979C59.926 44.5295 59.6145 44.348 59.2702 44.285V44.285ZM47.0002 35C47.7029 35.0516 48.36 35.3672 48.8396 35.8833C49.3192 36.3995 49.5858 37.0779 49.5858 37.7825C49.5858 38.4871 49.3192 39.1655 48.8396 39.6817C48.36 40.1978 47.7029 40.5134 47.0002 40.565V40.565C46.2975 40.5134 45.6404 40.1978 45.1608 39.6817C44.6812 39.1655 44.4146 38.4871 44.4146 37.7825C44.4146 37.0779 44.6812 36.3995 45.1608 35.8833C45.6404 35.3672 46.2975 35.0516 47.0002 35V35ZM45.5002 57.995C43.1492 56.9083 40.5902 56.3453 38.0002 56.345C37.5052 56.345 37.0102 56.345 36.5002 56.42V47C37.758 46.8593 39.0289 46.8845 40.2802 47.075H40.4452C42.2326 47.4035 43.9454 48.0541 45.5002 48.995V57.995ZM47.0002 46.4C46.3332 46.0152 45.6417 45.6745 44.9302 45.38H44.8402C44.3452 45.185 43.8502 44.99 43.3402 44.84C44.3817 44.0111 45.6692 43.552 47.0002 43.535V43.535C48.3277 43.5434 49.6148 43.9918 50.6602 44.81C49.3868 45.2075 48.1598 45.7406 47.0002 46.4V46.4ZM57.5002 56.42C54.4202 56.1105 51.3134 56.6283 48.5002 57.92V48.92C50.0578 48.0032 51.7717 47.3827 53.5552 47.09H53.8552C55.0612 46.9022 56.2864 46.8719 57.5002 47V56.42Z" fill="#FAFAFA"/>
</svg>
