<svg width="94" height="102" viewBox="0 0 94 102" fill="none" xmlns="http://www.w3.org/2000/svg">
<circle cx="47" cy="55" r="47" fill="#A70A2E"/>
<path d="M56.332 9.20202C56.1054 11.6725 53.7029 13.3282 51.2408 13.0242C48.4279 12.6769 45.5725 12.677 42.7596 13.0243C40.2974 13.3283 37.8948 11.6725 37.6682 9.20208L37.6434 8.93139C40.6672 8.32057 43.7961 8 47 8C50.2039 8 53.333 8.32059 56.3569 8.93144L56.332 9.20202Z" fill="#B83A57"/>
<path d="M67.815 12.8489L67.1259 13.6772C65.5396 15.584 66.0676 18.4522 68.0242 19.9766C70.2629 21.7208 72.2792 23.737 74.0234 25.9757C75.5478 27.9323 78.416 28.4603 80.3227 26.874L82.9328 24.7026C78.782 19.7848 73.6401 15.7309 67.815 12.8489Z" fill="#B83A57"/>
<path d="M90.4901 37.1458L84.7982 37.668C82.3278 37.8947 80.672 40.2972 80.976 42.7594C81.3233 45.5723 81.3233 48.4277 80.976 51.2406C80.672 53.7027 82.3277 56.1053 84.7982 56.3319L92.9172 57.0768H93.9549C93.9849 56.3883 94 55.6959 94 55C94 48.6796 92.7524 42.6506 90.4901 37.1458Z" fill="#B83A57"/>
<path d="M87.8314 78.2928L86.5905 72.3404L80.3226 67.1259C78.4159 65.5396 75.5477 66.0676 74.0233 68.0241C72.2791 70.2628 70.2628 72.2791 68.0241 74.0232C66.0675 75.5476 65.5395 78.4159 67.1258 80.3226L72.3403 86.5906L74.3234 93.2462C79.8326 89.3033 84.4545 84.1997 87.8314 78.2928Z" fill="#B83A57"/>
<path d="M57.0769 100.917V92.9172L56.332 84.7978C56.1054 82.3273 53.7029 80.6716 51.2407 80.9755C48.4278 81.3228 45.5725 81.3228 42.7596 80.9755C40.2974 80.6715 37.8949 82.3272 37.6682 84.7977L36.9233 92.9173V100.917C40.1695 101.626 43.5411 102 47 102C50.459 102 53.8307 101.626 57.0769 100.917Z" fill="#B83A57"/>
<path d="M19.7613 93.3067L21.6596 86.5905L26.8744 80.3222C28.4607 78.4154 27.9327 75.5473 25.9762 74.0229C23.7375 72.2787 21.7213 70.2624 19.9771 68.0237C18.4527 66.0671 15.5845 65.5391 13.6777 67.1254L7.40941 72.3403L5.85998 77.7444C9.27845 83.9146 14.0447 89.2345 19.7613 93.3067Z" fill="#B83A57"/>
<path d="M0.0488832 57.1629L1.08278 57.0768L9.20254 56.3319C11.673 56.1052 13.3287 53.7027 13.0247 51.2405C12.6774 48.4277 12.6774 45.5723 13.0247 42.7594C13.3287 40.2973 11.673 37.8948 9.20252 37.6681L3.50988 37.1459C1.24757 42.6506 0 48.6796 0 55C0 55.7249 0.0164115 56.446 0.0488832 57.1629Z" fill="#B83A57"/>
<path d="M11.0672 24.7027L13.6776 26.8744C15.5844 28.4607 18.4526 27.9327 19.977 25.9761C21.7212 23.7374 23.7374 21.7212 25.9761 19.977C27.9326 18.4525 28.4606 15.5844 26.8743 13.6776L26.1849 12.8489C20.3598 15.731 15.2179 19.7849 11.0672 24.7027Z" fill="#B83A57"/>
<circle cx="47" cy="47" r="47" fill="#E41645"/>
<g opacity="0.3">
<path d="M94 47.0207C93.9985 50.4724 93.6249 53.8371 92.9172 57.0768L84.7982 56.3319C82.3277 56.1053 80.672 53.7027 80.976 51.2406C81.3233 48.4277 81.3233 45.5723 80.976 42.7594C80.672 40.2972 82.3278 37.8947 84.7982 37.668L92.9172 36.9232C93.6249 40.1629 93.9985 43.5276 94 46.9792L94 47.0207Z" fill="#FAFAFA"/>
<path d="M74.0234 25.9757C75.5478 27.9323 78.416 28.4603 80.3227 26.874L86.5905 21.6596C84.773 18.8259 82.6595 16.2001 80.2938 13.8259C80.2741 13.8061 80.2543 13.7863 80.2346 13.7665C80.2144 13.7464 80.1943 13.7263 80.1741 13.7062C77.7999 11.3404 75.174 9.22695 72.3403 7.4094L67.1259 13.6772C65.5396 15.584 66.0676 18.4522 68.0242 19.9766C70.2629 21.7208 72.2792 23.737 74.0234 25.9757Z" fill="#FAFAFA"/>
<path d="M51.2408 13.0242C53.7029 13.3282 56.1054 11.6725 56.332 9.20202L57.0769 1.0828C53.8307 0.373655 50.459 0 47 0C43.5411 0 40.1695 0.373637 36.9233 1.08275L37.6682 9.20208C37.8948 11.6725 40.2974 13.3283 42.7596 13.0243C45.5725 12.677 48.4279 12.6769 51.2408 13.0242Z" fill="#FAFAFA"/>
<path d="M25.9761 19.977C27.9326 18.4525 28.4606 15.5844 26.8743 13.6776L21.6596 7.40947C15.9444 11.0751 11.0751 15.9445 7.40942 21.6597L13.6776 26.8744C15.5844 28.4607 18.4526 27.9327 19.977 25.9761C21.7212 23.7374 23.7374 21.7212 25.9761 19.977Z" fill="#FAFAFA"/>
<path d="M9.20252 37.6681C11.673 37.8948 13.3287 40.2973 13.0247 42.7594C12.6774 45.5723 12.6774 48.4277 13.0247 51.2405C13.3287 53.7027 11.673 56.1052 9.20254 56.3319L1.08278 57.0768C0.373646 53.8306 0 50.4589 0 47C0 43.5411 0.373647 40.1694 1.08278 36.9232L9.20252 37.6681Z" fill="#FAFAFA"/>
<path d="M19.9771 68.0237C18.4527 66.0671 15.5845 65.5391 13.6777 67.1254L7.40941 72.3403C11.0751 78.0555 15.9444 82.9248 21.6596 86.5905L26.8744 80.3222C28.4607 78.4155 27.9327 75.5473 25.9762 74.0229C23.7375 72.2787 21.7213 70.2624 19.9771 68.0237Z" fill="#FAFAFA"/>
<path d="M42.7596 80.9755C40.2974 80.6715 37.8949 82.3272 37.6682 84.7977L36.9233 92.9173C40.1603 93.6244 43.522 93.9979 46.9707 94L47 94L47.0293 94C50.478 93.9979 53.8398 93.6243 57.0769 92.9172L56.332 84.7978C56.1054 82.3273 53.7028 80.6716 51.2407 80.9755C48.4278 81.3228 45.5725 81.3228 42.7596 80.9755Z" fill="#FAFAFA"/>
<path d="M68.0241 74.0232C66.0675 75.5476 65.5395 78.4159 67.1258 80.3226L72.3403 86.5906C75.1773 84.7709 77.806 82.6547 80.1824 80.2856L80.2856 80.1824C82.6546 77.806 84.7709 75.1774 86.5905 72.3404L80.3226 67.1259C78.4159 65.5396 75.5477 66.0676 74.0233 68.0241C72.2791 70.2628 70.2628 72.2791 68.0241 74.0232Z" fill="#FAFAFA"/>
</g>
<circle opacity="0.2" cx="46.9987" cy="47.0001" r="29.5377" stroke="#FAFAFA" stroke-width="3"/>
<path d="M47.45 47.33C48.2504 46.6372 48.8923 45.7803 49.3323 44.8175C49.7723 43.8547 50 42.8086 50 41.75C50 39.7609 49.2098 37.8532 47.8033 36.4467C46.3968 35.0402 44.4891 34.25 42.5 34.25C40.5109 34.25 38.6032 35.0402 37.1967 36.4467C35.7902 37.8532 35 39.7609 35 41.75C35 42.8086 35.2277 43.8547 35.6677 44.8175C36.1077 45.7803 36.7496 46.6372 37.55 47.33C35.4502 48.2808 33.6687 49.8163 32.4185 51.7528C31.1682 53.6893 30.5022 55.945 30.5 58.25C30.5 58.6478 30.658 59.0294 30.9393 59.3107C31.2206 59.592 31.6022 59.75 32 59.75C32.3978 59.75 32.7794 59.592 33.0607 59.3107C33.342 59.0294 33.5 58.6478 33.5 58.25C33.5 55.8631 34.4482 53.5739 36.136 51.886C37.8239 50.1982 40.1131 49.25 42.5 49.25C44.8869 49.25 47.1761 50.1982 48.864 51.886C50.5518 53.5739 51.5 55.8631 51.5 58.25C51.5 58.6478 51.658 59.0294 51.9393 59.3107C52.2206 59.592 52.6022 59.75 53 59.75C53.3978 59.75 53.7794 59.592 54.0607 59.3107C54.342 59.0294 54.5 58.6478 54.5 58.25C54.4978 55.945 53.8318 53.6893 52.5815 51.7528C51.3313 49.8163 49.5498 48.2808 47.45 47.33V47.33ZM42.5 46.25C41.61 46.25 40.74 45.9861 39.9999 45.4916C39.2599 44.9971 38.6831 44.2943 38.3425 43.4721C38.0019 42.6498 37.9128 41.745 38.0865 40.8721C38.2601 39.9992 38.6887 39.1974 39.318 38.568C39.9474 37.9387 40.7492 37.5101 41.6221 37.3365C42.495 37.1628 43.3998 37.2519 44.2221 37.5925C45.0443 37.9331 45.7471 38.5099 46.2416 39.2499C46.7361 39.99 47 40.86 47 41.75C47 42.9435 46.5259 44.0881 45.682 44.932C44.8381 45.7759 43.6935 46.25 42.5 46.25ZM57.11 46.73C58.07 45.649 58.697 44.3136 58.9157 42.8845C59.1344 41.4554 58.9354 39.9936 58.3427 38.675C57.7499 37.3564 56.7887 36.2372 55.5747 35.4521C54.3607 34.6671 52.9457 34.2496 51.5 34.25C51.1022 34.25 50.7206 34.408 50.4393 34.6893C50.158 34.9706 50 35.3522 50 35.75C50 36.1478 50.158 36.5294 50.4393 36.8107C50.7206 37.092 51.1022 37.25 51.5 37.25C52.6935 37.25 53.8381 37.7241 54.682 38.568C55.5259 39.4119 56 40.5565 56 41.75C55.9979 42.5379 55.7889 43.3114 55.3941 43.9931C54.9992 44.6749 54.4323 45.2411 53.75 45.635C53.5276 45.7633 53.3419 45.9465 53.2105 46.1671C53.0792 46.3877 53.0067 46.6384 53 46.895C52.9937 47.1496 53.0524 47.4017 53.1705 47.6274C53.2886 47.8531 53.4622 48.045 53.675 48.185L54.26 48.575L54.455 48.68C56.2631 49.5376 57.7885 50.894 58.8515 52.5895C59.9145 54.285 60.4708 56.2489 60.455 58.25C60.455 58.6478 60.613 59.0294 60.8943 59.3107C61.1756 59.592 61.5572 59.75 61.955 59.75C62.3528 59.75 62.7344 59.592 63.0157 59.3107C63.297 59.0294 63.455 58.6478 63.455 58.25C63.4673 55.9481 62.8907 53.6814 61.7802 51.6651C60.6697 49.6488 59.062 47.95 57.11 46.73V46.73Z" fill="#FAFAFA"/>
</svg>
