<svg width="94" height="102" viewBox="0 0 94 102" fill="none" xmlns="http://www.w3.org/2000/svg">
<circle cx="47" cy="55" r="47" fill="#A70A2E"/>
<path d="M56.332 9.20202C56.1054 11.6725 53.7029 13.3282 51.2408 13.0242C48.4279 12.6769 45.5725 12.677 42.7596 13.0243C40.2974 13.3283 37.8948 11.6725 37.6682 9.20208L37.6434 8.93139C40.6672 8.32057 43.7961 8 47 8C50.2039 8 53.333 8.32059 56.3569 8.93144L56.332 9.20202Z" fill="#B83A57"/>
<path d="M67.815 12.8489L67.1259 13.6772C65.5396 15.584 66.0676 18.4522 68.0242 19.9766C70.2629 21.7208 72.2792 23.737 74.0234 25.9757C75.5478 27.9323 78.416 28.4603 80.3227 26.874L82.9328 24.7026C78.782 19.7848 73.6401 15.7309 67.815 12.8489Z" fill="#B83A57"/>
<path d="M90.4901 37.1458L84.7982 37.668C82.3278 37.8947 80.672 40.2972 80.976 42.7594C81.3233 45.5723 81.3233 48.4277 80.976 51.2406C80.672 53.7027 82.3277 56.1053 84.7982 56.3319L92.9172 57.0768H93.9549C93.9849 56.3883 94 55.6959 94 55C94 48.6796 92.7524 42.6506 90.4901 37.1458Z" fill="#B83A57"/>
<path d="M87.8314 78.2928L86.5905 72.3404L80.3226 67.1259C78.4159 65.5396 75.5477 66.0676 74.0233 68.0241C72.2791 70.2628 70.2628 72.2791 68.0241 74.0232C66.0675 75.5476 65.5395 78.4159 67.1258 80.3226L72.3403 86.5906L74.3234 93.2462C79.8326 89.3033 84.4545 84.1997 87.8314 78.2928Z" fill="#B83A57"/>
<path d="M57.0769 100.917V92.9172L56.332 84.7978C56.1054 82.3273 53.7029 80.6716 51.2407 80.9755C48.4278 81.3228 45.5725 81.3228 42.7596 80.9755C40.2974 80.6715 37.8949 82.3272 37.6682 84.7977L36.9233 92.9173V100.917C40.1695 101.626 43.5411 102 47 102C50.459 102 53.8307 101.626 57.0769 100.917Z" fill="#B83A57"/>
<path d="M19.7613 93.3067L21.6596 86.5905L26.8744 80.3222C28.4607 78.4154 27.9327 75.5473 25.9762 74.0229C23.7375 72.2787 21.7213 70.2624 19.9771 68.0237C18.4527 66.0671 15.5845 65.5391 13.6777 67.1254L7.40941 72.3403L5.85998 77.7444C9.27845 83.9146 14.0447 89.2345 19.7613 93.3067Z" fill="#B83A57"/>
<path d="M0.0488832 57.1629L1.08278 57.0768L9.20254 56.3319C11.673 56.1052 13.3287 53.7027 13.0247 51.2405C12.6774 48.4277 12.6774 45.5723 13.0247 42.7594C13.3287 40.2973 11.673 37.8948 9.20252 37.6681L3.50988 37.1459C1.24757 42.6506 0 48.6796 0 55C0 55.7249 0.0164115 56.446 0.0488832 57.1629Z" fill="#B83A57"/>
<path d="M11.0672 24.7027L13.6776 26.8744C15.5844 28.4607 18.4526 27.9327 19.977 25.9761C21.7212 23.7374 23.7374 21.7212 25.9761 19.977C27.9326 18.4525 28.4606 15.5844 26.8743 13.6776L26.1849 12.8489C20.3598 15.731 15.2179 19.7849 11.0672 24.7027Z" fill="#B83A57"/>
<circle cx="47" cy="47" r="47" fill="#E41645"/>
<g opacity="0.3">
<path d="M94 47.0207C93.9985 50.4724 93.6249 53.8371 92.9172 57.0768L84.7982 56.3319C82.3277 56.1053 80.672 53.7027 80.976 51.2406C81.3233 48.4277 81.3233 45.5723 80.976 42.7594C80.672 40.2972 82.3278 37.8947 84.7982 37.668L92.9172 36.9232C93.6249 40.1629 93.9985 43.5276 94 46.9792L94 47.0207Z" fill="#FAFAFA"/>
<path d="M74.0234 25.9757C75.5478 27.9323 78.416 28.4603 80.3227 26.874L86.5905 21.6596C84.773 18.8259 82.6595 16.2001 80.2938 13.8259C80.2741 13.8061 80.2543 13.7863 80.2346 13.7665C80.2144 13.7464 80.1943 13.7263 80.1741 13.7062C77.7999 11.3404 75.174 9.22695 72.3403 7.4094L67.1259 13.6772C65.5396 15.584 66.0676 18.4522 68.0242 19.9766C70.2629 21.7208 72.2792 23.737 74.0234 25.9757Z" fill="#FAFAFA"/>
<path d="M51.2408 13.0242C53.7029 13.3282 56.1054 11.6725 56.332 9.20202L57.0769 1.0828C53.8307 0.373655 50.459 0 47 0C43.5411 0 40.1695 0.373637 36.9233 1.08275L37.6682 9.20208C37.8948 11.6725 40.2974 13.3283 42.7596 13.0243C45.5725 12.677 48.4279 12.6769 51.2408 13.0242Z" fill="#FAFAFA"/>
<path d="M25.9761 19.977C27.9326 18.4525 28.4606 15.5844 26.8743 13.6776L21.6596 7.40947C15.9444 11.0751 11.0751 15.9445 7.40942 21.6597L13.6776 26.8744C15.5844 28.4607 18.4526 27.9327 19.977 25.9761C21.7212 23.7374 23.7374 21.7212 25.9761 19.977Z" fill="#FAFAFA"/>
<path d="M9.20252 37.6681C11.673 37.8948 13.3287 40.2973 13.0247 42.7594C12.6774 45.5723 12.6774 48.4277 13.0247 51.2405C13.3287 53.7027 11.673 56.1052 9.20254 56.3319L1.08278 57.0768C0.373646 53.8306 0 50.4589 0 47C0 43.5411 0.373647 40.1694 1.08278 36.9232L9.20252 37.6681Z" fill="#FAFAFA"/>
<path d="M19.9771 68.0237C18.4527 66.0671 15.5845 65.5391 13.6777 67.1254L7.40941 72.3403C11.0751 78.0555 15.9444 82.9248 21.6596 86.5905L26.8744 80.3222C28.4607 78.4155 27.9327 75.5473 25.9762 74.0229C23.7375 72.2787 21.7213 70.2624 19.9771 68.0237Z" fill="#FAFAFA"/>
<path d="M42.7596 80.9755C40.2974 80.6715 37.8949 82.3272 37.6682 84.7977L36.9233 92.9173C40.1603 93.6244 43.522 93.9979 46.9707 94L47 94L47.0293 94C50.478 93.9979 53.8398 93.6243 57.0769 92.9172L56.332 84.7978C56.1054 82.3273 53.7028 80.6716 51.2407 80.9755C48.4278 81.3228 45.5725 81.3228 42.7596 80.9755Z" fill="#FAFAFA"/>
<path d="M68.0241 74.0232C66.0675 75.5476 65.5395 78.4159 67.1258 80.3226L72.3403 86.5906C75.1773 84.7709 77.806 82.6547 80.1824 80.2856L80.2856 80.1824C82.6546 77.806 84.7709 75.1774 86.5905 72.3404L80.3226 67.1259C78.4159 65.5396 75.5477 66.0676 74.0233 68.0241C72.2791 70.2628 70.2628 72.2791 68.0241 74.0232Z" fill="#FAFAFA"/>
</g>
<circle opacity="0.2" cx="46.9987" cy="47.0001" r="29.5377" stroke="#FAFAFA" stroke-width="3"/>
<path d="M40.1303 52.3101C39.851 52.5911 39.6941 52.9713 39.6941 53.3676C39.6941 53.7639 39.851 54.144 40.1303 54.4251C40.2698 54.5657 40.4357 54.6773 40.6185 54.7534C40.8013 54.8296 40.9973 54.8688 41.1953 54.8688C41.3934 54.8688 41.5894 54.8296 41.7722 54.7534C41.955 54.6773 42.1209 54.5657 42.2603 54.4251C42.5397 54.144 42.6965 53.7639 42.6965 53.3676C42.6965 52.9713 42.5397 52.5911 42.2603 52.3101C42.1209 52.1695 41.955 52.0579 41.7722 51.9817C41.5894 51.9056 41.3934 51.8664 41.1953 51.8664C40.9973 51.8664 40.8013 51.9056 40.6185 51.9817C40.4357 52.0579 40.2698 52.1695 40.1303 52.3101V52.3101ZM40.1303 39.5751C39.851 39.8561 39.6941 40.2363 39.6941 40.6326C39.6941 41.0289 39.851 41.409 40.1303 41.6901C40.2698 41.8307 40.4357 41.9423 40.6185 42.0184C40.8013 42.0946 40.9973 42.1338 41.1953 42.1338C41.3934 42.1338 41.5894 42.0946 41.7722 42.0184C41.955 41.9423 42.1209 41.8307 42.2603 41.6901C42.5397 41.409 42.6965 41.0289 42.6965 40.6326C42.6965 40.2363 42.5397 39.8561 42.2603 39.5751C42.1209 39.4345 41.955 39.3229 41.7722 39.2467C41.5894 39.1706 41.3934 39.1314 41.1953 39.1314C40.9973 39.1314 40.8013 39.1706 40.6185 39.2467C40.4357 39.3229 40.2698 39.4345 40.1303 39.5751ZM47.5553 54.5751C47.2587 54.5751 46.9687 54.6631 46.722 54.8279C46.4753 54.9927 46.283 55.227 46.1695 55.5011C46.056 55.7751 46.0263 56.0767 46.0842 56.3677C46.142 56.6587 46.2849 56.926 46.4947 57.1357C46.7045 57.3455 46.9717 57.4884 47.2627 57.5463C47.5537 57.6041 47.8553 57.5744 48.1294 57.4609C48.4034 57.3474 48.6377 57.1551 48.8025 56.9084C48.9674 56.6618 49.0553 56.3718 49.0553 56.0751C49.0655 55.8719 49.0342 55.6687 48.9634 55.478C48.8926 55.2873 48.7837 55.1129 48.6434 54.9656C48.5031 54.8183 48.3343 54.701 48.1472 54.621C47.9602 54.541 47.7588 54.4998 47.5553 54.5001V54.5751ZM38.5553 45.5751C38.2587 45.5751 37.9687 45.6631 37.722 45.8279C37.4753 45.9927 37.283 46.227 37.1695 46.5011C37.056 46.7751 37.0263 47.0767 37.0842 47.3677C37.142 47.6587 37.2849 47.926 37.4947 48.1357C37.7045 48.3455 37.9717 48.4884 38.2627 48.5463C38.5537 48.6041 38.8553 48.5744 39.1294 48.4609C39.4035 48.3474 39.6377 48.1551 39.8025 47.9084C39.9674 47.6618 40.0553 47.3718 40.0553 47.0751C40.0655 46.8719 40.0342 46.6687 39.9634 46.478C39.8926 46.2873 39.7837 46.1129 39.6434 45.9656C39.5031 45.8183 39.3343 45.701 39.1472 45.621C38.9602 45.541 38.7588 45.4998 38.5553 45.5001V45.5751ZM47.5553 36.5751C47.2587 36.5751 46.9687 36.6631 46.722 36.8279C46.4753 36.9927 46.283 37.227 46.1695 37.5011C46.056 37.7751 46.0263 38.0767 46.0842 38.3677C46.142 38.6587 46.2849 38.926 46.4947 39.1357C46.7045 39.3455 46.9717 39.4884 47.2627 39.5463C47.5537 39.6041 47.8553 39.5744 48.1294 39.4609C48.4034 39.3474 48.6377 39.1551 48.8025 38.9084C48.9674 38.6618 49.0553 38.3718 49.0553 38.0751C49.0655 37.8719 49.0342 37.6687 48.9634 37.478C48.8926 37.2873 48.7837 37.1129 48.6434 36.9656C48.5031 36.8183 48.3343 36.701 48.1472 36.621C47.9602 36.541 47.7588 36.4998 47.5553 36.5001V36.5751ZM52.8653 39.6501C52.6547 39.8595 52.5109 40.1268 52.4523 40.418C52.3937 40.7092 52.4229 41.0113 52.5362 41.2859C52.6494 41.5605 52.8417 41.7953 53.0886 41.9605C53.3354 42.1257 53.6258 42.2139 53.9228 42.2139C54.2199 42.2139 54.5103 42.1257 54.7571 41.9605C55.004 41.7953 55.1962 41.5605 55.3095 41.2859C55.4228 41.0113 55.452 40.7092 55.3934 40.418C55.3348 40.1268 55.191 39.8595 54.9803 39.6501C54.7093 39.3605 54.3347 39.1901 53.9383 39.176C53.542 39.162 53.1562 39.3054 52.8653 39.5751V39.6501ZM62.3153 39.6501C60.9439 36.9085 58.836 34.6032 56.2277 32.9926C53.6195 31.3821 50.6142 30.5299 47.5487 30.5317C44.4833 30.5336 41.479 31.3893 38.8727 33.003C36.2664 34.6167 34.1612 36.9245 32.7931 39.6677C31.4249 42.4109 30.8481 45.481 31.1271 48.5337C31.4061 51.5864 32.5301 54.501 34.3728 56.9507C36.2156 59.4004 38.7044 61.2883 41.56 62.4027C44.4157 63.5172 47.5254 63.814 50.5403 63.2601C51.2985 63.1174 52.0206 62.8251 52.6645 62.4001C53.3084 61.9752 53.8611 61.4261 54.2903 60.7851C54.7529 60.0882 55.072 59.3061 55.2291 58.4846C55.3862 57.6631 55.3781 56.8185 55.2053 56.0001C55.1109 55.5055 55.0607 55.0035 55.0553 54.5001C55.0619 53.0465 55.4907 51.6262 56.2896 50.4119C57.0885 49.1975 58.2231 48.2415 59.5553 47.6601C60.2736 47.3385 60.9184 46.8731 61.4499 46.2926C61.9813 45.7121 62.3882 45.0289 62.6453 44.2851C62.9054 43.525 63.0102 42.7204 62.9536 41.9191C62.8969 41.1178 62.6798 40.336 62.3153 39.6201V39.6501ZM59.7653 43.3101C59.6373 43.6691 59.4386 43.9987 59.181 44.2796C58.9233 44.5604 58.612 44.7867 58.2653 44.9451C56.4203 45.771 54.8529 47.1119 53.7513 48.8068C52.6498 50.5018 52.0608 52.4786 52.0553 54.5001C52.0576 55.2052 52.1279 55.9085 52.2653 56.6001C52.3569 57.0228 52.363 57.4595 52.2831 57.8846C52.2033 58.3097 52.0391 58.7145 51.8003 59.0751C51.5983 59.3907 51.3324 59.6605 51.0198 59.8672C50.7072 60.0738 50.3549 60.2128 49.9853 60.2751C49.1841 60.4256 48.3706 60.501 47.5553 60.5001C45.7466 60.501 43.9561 60.1384 42.2902 59.4338C40.6243 58.7293 39.117 57.6971 37.8578 56.3987C36.5985 55.1003 35.6131 53.5621 34.9599 51.8754C34.3067 50.1887 33.9991 48.388 34.0553 46.5801C34.1718 43.2093 35.5388 40.0025 37.8903 37.5845C40.2417 35.1665 43.4091 33.7105 46.7753 33.5001H47.5403C50.054 33.5007 52.5175 34.2031 54.6535 35.5282C56.7895 36.8533 58.5132 38.7484 59.6303 41.0001C59.9742 41.7126 60.0227 42.532 59.7653 43.2801V43.3101ZM47.5553 45.5001C47.2587 45.5001 46.9687 45.5881 46.722 45.7529C46.4753 45.9177 46.283 46.152 46.1695 46.4261C46.056 46.7001 46.0263 47.0017 46.0842 47.2927C46.142 47.5837 46.2849 47.851 46.4947 48.0607C46.7045 48.2705 46.9717 48.4134 47.2627 48.4713C47.5537 48.5291 47.8553 48.4994 48.1294 48.3859C48.4034 48.2724 48.6377 48.0801 48.8025 47.8334C48.9674 47.5868 49.0553 47.2968 49.0553 47.0001C49.0553 46.6023 48.8973 46.2207 48.616 45.9394C48.3347 45.6581 47.9532 45.5001 47.5553 45.5001Z" fill="#FAFAFA"/>
</svg>
