<svg width="94" height="102" viewBox="0 0 94 102" fill="none" xmlns="http://www.w3.org/2000/svg">
<circle cx="47" cy="55" r="47" fill="#A70A2E"/>
<path d="M56.332 9.20202C56.1054 11.6725 53.7029 13.3282 51.2408 13.0242C48.4279 12.6769 45.5725 12.677 42.7596 13.0243C40.2974 13.3283 37.8948 11.6725 37.6682 9.20208L37.6434 8.93139C40.6672 8.32057 43.7961 8 47 8C50.2039 8 53.333 8.32059 56.3569 8.93144L56.332 9.20202Z" fill="#B83A57"/>
<path d="M67.815 12.8489L67.1259 13.6772C65.5396 15.584 66.0676 18.4522 68.0242 19.9766C70.2629 21.7208 72.2792 23.737 74.0234 25.9757C75.5478 27.9323 78.416 28.4603 80.3227 26.874L82.9328 24.7026C78.782 19.7848 73.6401 15.7309 67.815 12.8489Z" fill="#B83A57"/>
<path d="M90.4901 37.1458L84.7982 37.668C82.3278 37.8947 80.672 40.2972 80.976 42.7594C81.3233 45.5723 81.3233 48.4277 80.976 51.2406C80.672 53.7027 82.3277 56.1053 84.7982 56.3319L92.9172 57.0768H93.9549C93.9849 56.3883 94 55.6959 94 55C94 48.6796 92.7524 42.6506 90.4901 37.1458Z" fill="#B83A57"/>
<path d="M87.8314 78.2928L86.5905 72.3404L80.3226 67.1259C78.4159 65.5396 75.5477 66.0676 74.0233 68.0241C72.2791 70.2628 70.2628 72.2791 68.0241 74.0232C66.0675 75.5476 65.5395 78.4159 67.1258 80.3226L72.3403 86.5906L74.3234 93.2462C79.8326 89.3033 84.4545 84.1997 87.8314 78.2928Z" fill="#B83A57"/>
<path d="M57.0769 100.917V92.9172L56.332 84.7978C56.1054 82.3273 53.7029 80.6716 51.2407 80.9755C48.4278 81.3228 45.5725 81.3228 42.7596 80.9755C40.2974 80.6715 37.8949 82.3272 37.6682 84.7977L36.9233 92.9173V100.917C40.1695 101.626 43.5411 102 47 102C50.459 102 53.8307 101.626 57.0769 100.917Z" fill="#B83A57"/>
<path d="M19.7613 93.3067L21.6596 86.5905L26.8744 80.3222C28.4607 78.4154 27.9327 75.5473 25.9762 74.0229C23.7375 72.2787 21.7213 70.2624 19.9771 68.0237C18.4527 66.0671 15.5845 65.5391 13.6777 67.1254L7.40941 72.3403L5.85998 77.7444C9.27845 83.9146 14.0447 89.2345 19.7613 93.3067Z" fill="#B83A57"/>
<path d="M0.0488832 57.1629L1.08278 57.0768L9.20254 56.3319C11.673 56.1052 13.3287 53.7027 13.0247 51.2405C12.6774 48.4277 12.6774 45.5723 13.0247 42.7594C13.3287 40.2973 11.673 37.8948 9.20252 37.6681L3.50988 37.1459C1.24757 42.6506 0 48.6796 0 55C0 55.7249 0.0164115 56.446 0.0488832 57.1629Z" fill="#B83A57"/>
<path d="M11.0672 24.7027L13.6776 26.8744C15.5844 28.4607 18.4526 27.9327 19.977 25.9761C21.7212 23.7374 23.7374 21.7212 25.9761 19.977C27.9326 18.4525 28.4606 15.5844 26.8743 13.6776L26.1849 12.8489C20.3598 15.731 15.2179 19.7849 11.0672 24.7027Z" fill="#B83A57"/>
<circle cx="47" cy="47" r="47" fill="#E41645"/>
<g opacity="0.3">
<path d="M94 47.0207C93.9985 50.4724 93.6249 53.8371 92.9172 57.0768L84.7982 56.3319C82.3277 56.1053 80.672 53.7027 80.976 51.2406C81.3233 48.4277 81.3233 45.5723 80.976 42.7594C80.672 40.2972 82.3278 37.8947 84.7982 37.668L92.9172 36.9232C93.6249 40.1629 93.9985 43.5276 94 46.9792L94 47.0207Z" fill="#FAFAFA"/>
<path d="M74.0234 25.9757C75.5478 27.9323 78.416 28.4603 80.3227 26.874L86.5905 21.6596C84.773 18.8259 82.6595 16.2001 80.2938 13.8259C80.2741 13.8061 80.2543 13.7863 80.2346 13.7665C80.2144 13.7464 80.1943 13.7263 80.1741 13.7062C77.7999 11.3404 75.174 9.22695 72.3403 7.4094L67.1259 13.6772C65.5396 15.584 66.0676 18.4522 68.0242 19.9766C70.2629 21.7208 72.2792 23.737 74.0234 25.9757Z" fill="#FAFAFA"/>
<path d="M51.2408 13.0242C53.7029 13.3282 56.1054 11.6725 56.332 9.20202L57.0769 1.0828C53.8307 0.373655 50.459 0 47 0C43.5411 0 40.1695 0.373637 36.9233 1.08275L37.6682 9.20208C37.8948 11.6725 40.2974 13.3283 42.7596 13.0243C45.5725 12.677 48.4279 12.6769 51.2408 13.0242Z" fill="#FAFAFA"/>
<path d="M25.9761 19.977C27.9326 18.4525 28.4606 15.5844 26.8743 13.6776L21.6596 7.40947C15.9444 11.0751 11.0751 15.9445 7.40942 21.6597L13.6776 26.8744C15.5844 28.4607 18.4526 27.9327 19.977 25.9761C21.7212 23.7374 23.7374 21.7212 25.9761 19.977Z" fill="#FAFAFA"/>
<path d="M9.20252 37.6681C11.673 37.8948 13.3287 40.2973 13.0247 42.7594C12.6774 45.5723 12.6774 48.4277 13.0247 51.2405C13.3287 53.7027 11.673 56.1052 9.20254 56.3319L1.08278 57.0768C0.373646 53.8306 0 50.4589 0 47C0 43.5411 0.373647 40.1694 1.08278 36.9232L9.20252 37.6681Z" fill="#FAFAFA"/>
<path d="M19.9771 68.0237C18.4527 66.0671 15.5845 65.5391 13.6777 67.1254L7.40941 72.3403C11.0751 78.0555 15.9444 82.9248 21.6596 86.5905L26.8744 80.3222C28.4607 78.4155 27.9327 75.5473 25.9762 74.0229C23.7375 72.2787 21.7213 70.2624 19.9771 68.0237Z" fill="#FAFAFA"/>
<path d="M42.7596 80.9755C40.2974 80.6715 37.8949 82.3272 37.6682 84.7977L36.9233 92.9173C40.1603 93.6244 43.522 93.9979 46.9707 94L47 94L47.0293 94C50.478 93.9979 53.8398 93.6243 57.0769 92.9172L56.332 84.7978C56.1054 82.3273 53.7028 80.6716 51.2407 80.9755C48.4278 81.3228 45.5725 81.3228 42.7596 80.9755Z" fill="#FAFAFA"/>
<path d="M68.0241 74.0232C66.0675 75.5476 65.5395 78.4159 67.1258 80.3226L72.3403 86.5906C75.1773 84.7709 77.806 82.6547 80.1824 80.2856L80.2856 80.1824C82.6546 77.806 84.7709 75.1774 86.5905 72.3404L80.3226 67.1259C78.4159 65.5396 75.5477 66.0676 74.0233 68.0241C72.2791 70.2628 70.2628 72.2791 68.0241 74.0232Z" fill="#FAFAFA"/>
</g>
<circle opacity="0.2" cx="46.9987" cy="47.0001" r="29.5377" stroke="#FAFAFA" stroke-width="3"/>
<path d="M62.0002 43.505C61.9055 43.2306 61.7332 42.9896 61.5042 42.8112C61.2752 42.6328 60.9994 42.5247 60.7102 42.5L52.1752 41.255L48.3502 33.5C48.2274 33.2464 48.0356 33.0325 47.7968 32.8828C47.5581 32.7332 47.282 32.6538 47.0002 32.6538C46.7184 32.6538 46.4423 32.7332 46.2036 32.8828C45.9648 33.0325 45.773 33.2464 45.6502 33.5L41.8252 41.24L33.2902 42.5C33.0126 42.5394 32.7516 42.6559 32.5368 42.8362C32.3221 43.0165 32.1622 43.2534 32.0752 43.52C31.9956 43.7805 31.9885 44.0578 32.0546 44.322C32.1206 44.5863 32.2574 44.8276 32.4502 45.02L38.6452 51.02L37.1452 59.54C37.0847 59.8226 37.107 60.1167 37.2097 60.3869C37.3123 60.6571 37.4909 60.8919 37.7238 61.0631C37.9567 61.2342 38.2342 61.3344 38.5227 61.3516C38.8112 61.3688 39.0986 61.3022 39.3502 61.16L47.0002 57.155L54.6502 61.16C54.8607 61.2787 55.0985 61.3408 55.3402 61.34C55.6579 61.3411 55.9678 61.2413 56.2252 61.055C56.4579 60.8883 56.6381 60.6584 56.7444 60.3927C56.8507 60.1269 56.8788 59.8362 56.8252 59.555L55.3252 51.035L61.5202 45.035C61.7368 44.8515 61.8968 44.6103 61.9818 44.3395C62.0668 44.0687 62.0732 43.7793 62.0002 43.505ZM52.7752 49.505C52.6016 49.6736 52.4714 49.8817 52.3956 50.1116C52.3199 50.3414 52.3009 50.5862 52.3402 50.825L53.4202 57.125L47.7802 54.125C47.561 54.0165 47.3198 53.9601 47.0752 53.9601C46.8307 53.9601 46.5894 54.0165 46.3702 54.125L40.7302 57.125L41.8102 50.825C41.8496 50.5862 41.8306 50.3414 41.7548 50.1116C41.6791 49.8817 41.5488 49.6736 41.3752 49.505L36.8752 45.005L43.1902 44.09C43.4332 44.0562 43.6642 43.9633 43.863 43.8195C44.0617 43.6756 44.2221 43.4852 44.3302 43.265L47.0002 37.55L49.8202 43.28C49.9283 43.5002 50.0887 43.6906 50.2875 43.8345C50.4862 43.9783 50.7172 44.0712 50.9602 44.105L57.2752 45.02L52.7752 49.505Z" fill="#FAFAFA"/>
</svg>
