<svg width="94" height="102" viewBox="0 0 94 102" fill="none" xmlns="http://www.w3.org/2000/svg">
<circle cx="47" cy="55" r="47" fill="#A70A2E"/>
<path d="M56.332 9.20202C56.1054 11.6725 53.7029 13.3282 51.2408 13.0242C48.4279 12.6769 45.5725 12.677 42.7596 13.0243C40.2974 13.3283 37.8948 11.6725 37.6682 9.20208L37.6434 8.93139C40.6672 8.32057 43.7961 8 47 8C50.2039 8 53.333 8.32059 56.3569 8.93144L56.332 9.20202Z" fill="#B83A57"/>
<path d="M67.815 12.8489L67.1259 13.6772C65.5396 15.584 66.0676 18.4522 68.0242 19.9766C70.2629 21.7208 72.2792 23.737 74.0234 25.9757C75.5478 27.9323 78.416 28.4603 80.3227 26.874L82.9328 24.7026C78.782 19.7848 73.6401 15.7309 67.815 12.8489Z" fill="#B83A57"/>
<path d="M90.4901 37.1458L84.7982 37.668C82.3278 37.8947 80.672 40.2972 80.976 42.7594C81.3233 45.5723 81.3233 48.4277 80.976 51.2406C80.672 53.7027 82.3277 56.1053 84.7982 56.3319L92.9172 57.0768H93.9549C93.9849 56.3883 94 55.6959 94 55C94 48.6796 92.7524 42.6506 90.4901 37.1458Z" fill="#B83A57"/>
<path d="M87.8314 78.2928L86.5905 72.3404L80.3226 67.1259C78.4159 65.5396 75.5477 66.0676 74.0233 68.0241C72.2791 70.2628 70.2628 72.2791 68.0241 74.0232C66.0675 75.5476 65.5395 78.4159 67.1258 80.3226L72.3403 86.5906L74.3234 93.2462C79.8326 89.3033 84.4545 84.1997 87.8314 78.2928Z" fill="#B83A57"/>
<path d="M57.0769 100.917V92.9172L56.332 84.7978C56.1054 82.3273 53.7029 80.6716 51.2407 80.9755C48.4278 81.3228 45.5725 81.3228 42.7596 80.9755C40.2974 80.6715 37.8949 82.3272 37.6682 84.7977L36.9233 92.9173V100.917C40.1695 101.626 43.5411 102 47 102C50.459 102 53.8307 101.626 57.0769 100.917Z" fill="#B83A57"/>
<path d="M19.7613 93.3067L21.6596 86.5905L26.8744 80.3222C28.4607 78.4154 27.9327 75.5473 25.9762 74.0229C23.7375 72.2787 21.7213 70.2624 19.9771 68.0237C18.4527 66.0671 15.5845 65.5391 13.6777 67.1254L7.40941 72.3403L5.85998 77.7444C9.27845 83.9146 14.0447 89.2345 19.7613 93.3067Z" fill="#B83A57"/>
<path d="M0.0488832 57.1629L1.08278 57.0768L9.20254 56.3319C11.673 56.1052 13.3287 53.7027 13.0247 51.2405C12.6774 48.4277 12.6774 45.5723 13.0247 42.7594C13.3287 40.2973 11.673 37.8948 9.20252 37.6681L3.50988 37.1459C1.24757 42.6506 0 48.6796 0 55C0 55.7249 0.0164115 56.446 0.0488832 57.1629Z" fill="#B83A57"/>
<path d="M11.0672 24.7027L13.6776 26.8744C15.5844 28.4607 18.4526 27.9327 19.977 25.9761C21.7212 23.7374 23.7374 21.7212 25.9761 19.977C27.9326 18.4525 28.4606 15.5844 26.8743 13.6776L26.1849 12.8489C20.3598 15.731 15.2179 19.7849 11.0672 24.7027Z" fill="#B83A57"/>
<circle cx="47" cy="47" r="47" fill="#E41645"/>
<g opacity="0.3">
<path d="M94 47.0207C93.9985 50.4724 93.6249 53.8371 92.9172 57.0768L84.7982 56.3319C82.3277 56.1053 80.672 53.7027 80.976 51.2406C81.3233 48.4277 81.3233 45.5723 80.976 42.7594C80.672 40.2972 82.3278 37.8947 84.7982 37.668L92.9172 36.9232C93.6249 40.1629 93.9985 43.5276 94 46.9792L94 47.0207Z" fill="#FAFAFA"/>
<path d="M74.0234 25.9757C75.5478 27.9323 78.416 28.4603 80.3227 26.874L86.5905 21.6596C84.773 18.8259 82.6595 16.2001 80.2938 13.8259C80.2741 13.8061 80.2543 13.7863 80.2346 13.7665C80.2144 13.7464 80.1943 13.7263 80.1741 13.7062C77.7999 11.3404 75.174 9.22695 72.3403 7.4094L67.1259 13.6772C65.5396 15.584 66.0676 18.4522 68.0242 19.9766C70.2629 21.7208 72.2792 23.737 74.0234 25.9757Z" fill="#FAFAFA"/>
<path d="M51.2408 13.0242C53.7029 13.3282 56.1054 11.6725 56.332 9.20202L57.0769 1.0828C53.8307 0.373655 50.459 0 47 0C43.5411 0 40.1695 0.373637 36.9233 1.08275L37.6682 9.20208C37.8948 11.6725 40.2974 13.3283 42.7596 13.0243C45.5725 12.677 48.4279 12.6769 51.2408 13.0242Z" fill="#FAFAFA"/>
<path d="M25.9761 19.977C27.9326 18.4525 28.4606 15.5844 26.8743 13.6776L21.6596 7.40947C15.9444 11.0751 11.0751 15.9445 7.40942 21.6597L13.6776 26.8744C15.5844 28.4607 18.4526 27.9327 19.977 25.9761C21.7212 23.7374 23.7374 21.7212 25.9761 19.977Z" fill="#FAFAFA"/>
<path d="M9.20252 37.6681C11.673 37.8948 13.3287 40.2973 13.0247 42.7594C12.6774 45.5723 12.6774 48.4277 13.0247 51.2405C13.3287 53.7027 11.673 56.1052 9.20254 56.3319L1.08278 57.0768C0.373646 53.8306 0 50.4589 0 47C0 43.5411 0.373647 40.1694 1.08278 36.9232L9.20252 37.6681Z" fill="#FAFAFA"/>
<path d="M19.9771 68.0237C18.4527 66.0671 15.5845 65.5391 13.6777 67.1254L7.40941 72.3403C11.0751 78.0555 15.9444 82.9248 21.6596 86.5905L26.8744 80.3222C28.4607 78.4155 27.9327 75.5473 25.9762 74.0229C23.7375 72.2787 21.7213 70.2624 19.9771 68.0237Z" fill="#FAFAFA"/>
<path d="M42.7596 80.9755C40.2974 80.6715 37.8949 82.3272 37.6682 84.7977L36.9233 92.9173C40.1603 93.6244 43.522 93.9979 46.9707 94L47 94L47.0293 94C50.478 93.9979 53.8398 93.6243 57.0769 92.9172L56.332 84.7978C56.1054 82.3273 53.7028 80.6716 51.2407 80.9755C48.4278 81.3228 45.5725 81.3228 42.7596 80.9755Z" fill="#FAFAFA"/>
<path d="M68.0241 74.0232C66.0675 75.5476 65.5395 78.4159 67.1258 80.3226L72.3403 86.5906C75.1773 84.7709 77.806 82.6547 80.1824 80.2856L80.2856 80.1824C82.6546 77.806 84.7709 75.1774 86.5905 72.3404L80.3226 67.1259C78.4159 65.5396 75.5477 66.0676 74.0233 68.0241C72.2791 70.2628 70.2628 72.2791 68.0241 74.0232Z" fill="#FAFAFA"/>
</g>
<circle opacity="0.2" cx="46.9987" cy="47.0001" r="29.5377" stroke="#FAFAFA" stroke-width="3"/>
<path d="M59.9152 57.785C60.8552 56.5249 61.5003 55.0698 61.8029 53.5271C62.1054 51.9844 62.0577 50.3934 61.6632 48.8716C61.2687 47.3498 60.5375 45.936 59.5236 44.7346C58.5097 43.5331 57.239 42.5747 55.8052 41.93C55.4929 40.1331 54.7751 38.4311 53.7064 36.9532C52.6377 35.4753 51.2462 34.2605 49.6377 33.401C48.0291 32.5415 46.2458 32.06 44.4233 31.993C42.6007 31.926 40.7868 32.2753 39.1195 33.0143C37.4522 33.7534 35.9753 34.8628 34.801 36.2582C33.6267 37.6537 32.7859 39.2984 32.3425 41.0675C31.8991 42.8365 31.8647 44.6834 32.2421 46.4677C32.6194 48.252 33.3985 49.9269 34.5202 51.365L32.4352 53.435C32.227 53.6459 32.086 53.9138 32.03 54.2047C31.9739 54.4957 32.0053 54.7968 32.1202 55.07C32.2327 55.3439 32.4238 55.5784 32.6694 55.7439C32.915 55.9094 33.204 55.9985 33.5002 56H42.0352C42.8851 57.7919 44.2252 59.3064 45.9003 60.3683C47.5754 61.4301 49.5169 61.9958 51.5002 62H60.5002C60.7963 61.9985 61.0854 61.9094 61.331 61.7439C61.5765 61.5784 61.7676 61.3439 61.8802 61.07C61.995 60.7968 62.0264 60.4957 61.9704 60.2047C61.9143 59.9138 61.7733 59.6459 61.5652 59.435L59.9152 57.785ZM41.0002 51.5C41.0022 52.0023 41.0423 52.5037 41.1202 53H37.1152L37.6402 52.49C37.7808 52.3505 37.8924 52.1846 37.9685 52.0018C38.0447 51.819 38.0839 51.623 38.0839 51.425C38.0839 51.2269 38.0447 51.0309 37.9685 50.8481C37.8924 50.6653 37.7808 50.4994 37.6402 50.36C36.7995 49.5285 36.133 48.5378 35.6797 47.4458C35.2265 46.3538 34.9954 45.1823 35.0002 44C35.0002 41.613 35.9484 39.3238 37.6362 37.636C39.324 35.9482 41.6132 35 44.0002 35C45.8627 34.9888 47.6819 35.5615 49.2021 36.6378C50.7222 37.714 51.8669 39.2395 52.4752 41C52.1452 41 51.8302 41 51.5002 41C48.7154 41 46.0447 42.1062 44.0755 44.0753C42.1064 46.0445 41.0002 48.7152 41.0002 51.5ZM56.8102 59L56.8852 59.075H51.5002C49.7652 59.0719 48.0849 58.4673 46.7456 57.3644C45.4064 56.2614 44.4909 54.7282 44.1553 53.026C43.8196 51.3238 44.0845 49.5578 44.9048 48.029C45.7251 46.5002 47.0501 45.303 48.654 44.6415C50.2579 43.98 52.0416 43.895 53.7012 44.4011C55.3607 44.9072 56.7935 45.9729 57.7554 47.4169C58.7173 48.8608 59.1488 50.5936 58.9765 52.32C58.8041 54.0464 58.0385 55.6597 56.8102 56.885C56.5275 57.1619 56.3658 57.5393 56.3602 57.935C56.361 58.1334 56.4012 58.3297 56.4784 58.5126C56.5557 58.6954 56.6684 58.861 56.8102 59V59Z" fill="#FAFAFA"/>
</svg>
