<svg width="94" height="102" viewBox="0 0 94 102" fill="none" xmlns="http://www.w3.org/2000/svg">
<circle cx="47" cy="55" r="47" fill="#A70A2E"/>
<path d="M56.332 9.20202C56.1054 11.6725 53.7029 13.3282 51.2408 13.0242C48.4279 12.6769 45.5725 12.677 42.7596 13.0243C40.2974 13.3283 37.8948 11.6725 37.6682 9.20208L37.6434 8.93139C40.6672 8.32057 43.7961 8 47 8C50.2039 8 53.333 8.32059 56.3569 8.93144L56.332 9.20202Z" fill="#B83A57"/>
<path d="M67.815 12.8489L67.1259 13.6772C65.5396 15.584 66.0676 18.4522 68.0242 19.9766C70.2629 21.7208 72.2792 23.737 74.0234 25.9757C75.5478 27.9323 78.416 28.4603 80.3227 26.874L82.9328 24.7026C78.782 19.7848 73.6401 15.7309 67.815 12.8489Z" fill="#B83A57"/>
<path d="M90.4901 37.1458L84.7982 37.668C82.3278 37.8947 80.672 40.2972 80.976 42.7594C81.3233 45.5723 81.3233 48.4277 80.976 51.2406C80.672 53.7027 82.3277 56.1053 84.7982 56.3319L92.9172 57.0768H93.9549C93.9849 56.3883 94 55.6959 94 55C94 48.6796 92.7524 42.6506 90.4901 37.1458Z" fill="#B83A57"/>
<path d="M87.8314 78.2928L86.5905 72.3404L80.3226 67.1259C78.4159 65.5396 75.5477 66.0676 74.0233 68.0241C72.2791 70.2628 70.2628 72.2791 68.0241 74.0232C66.0675 75.5476 65.5395 78.4159 67.1258 80.3226L72.3403 86.5906L74.3234 93.2462C79.8326 89.3033 84.4545 84.1997 87.8314 78.2928Z" fill="#B83A57"/>
<path d="M57.0769 100.917V92.9172L56.332 84.7978C56.1054 82.3273 53.7029 80.6716 51.2407 80.9755C48.4278 81.3228 45.5725 81.3228 42.7596 80.9755C40.2974 80.6715 37.8949 82.3272 37.6682 84.7977L36.9233 92.9173V100.917C40.1695 101.626 43.5411 102 47 102C50.459 102 53.8307 101.626 57.0769 100.917Z" fill="#B83A57"/>
<path d="M19.7613 93.3067L21.6596 86.5905L26.8744 80.3222C28.4607 78.4154 27.9327 75.5473 25.9762 74.0229C23.7375 72.2787 21.7213 70.2624 19.9771 68.0237C18.4527 66.0671 15.5845 65.5391 13.6777 67.1254L7.40941 72.3403L5.85998 77.7444C9.27845 83.9146 14.0447 89.2345 19.7613 93.3067Z" fill="#B83A57"/>
<path d="M0.0488832 57.1629L1.08278 57.0768L9.20254 56.3319C11.673 56.1052 13.3287 53.7027 13.0247 51.2405C12.6774 48.4277 12.6774 45.5723 13.0247 42.7594C13.3287 40.2973 11.673 37.8948 9.20252 37.6681L3.50988 37.1459C1.24757 42.6506 0 48.6796 0 55C0 55.7249 0.0164115 56.446 0.0488832 57.1629Z" fill="#B83A57"/>
<path d="M11.0672 24.7027L13.6776 26.8744C15.5844 28.4607 18.4526 27.9327 19.977 25.9761C21.7212 23.7374 23.7374 21.7212 25.9761 19.977C27.9326 18.4525 28.4606 15.5844 26.8743 13.6776L26.1849 12.8489C20.3598 15.731 15.2179 19.7849 11.0672 24.7027Z" fill="#B83A57"/>
<circle cx="47" cy="47" r="47" fill="#E41645"/>
<g opacity="0.3">
<path d="M94 47.0207C93.9985 50.4724 93.6249 53.8371 92.9172 57.0768L84.7982 56.3319C82.3277 56.1053 80.672 53.7027 80.976 51.2406C81.3233 48.4277 81.3233 45.5723 80.976 42.7594C80.672 40.2972 82.3278 37.8947 84.7982 37.668L92.9172 36.9232C93.6249 40.1629 93.9985 43.5276 94 46.9792L94 47.0207Z" fill="#FAFAFA"/>
<path d="M74.0234 25.9757C75.5478 27.9323 78.416 28.4603 80.3227 26.874L86.5905 21.6596C84.773 18.8259 82.6595 16.2001 80.2938 13.8259C80.2741 13.8061 80.2543 13.7863 80.2346 13.7665C80.2144 13.7464 80.1943 13.7263 80.1741 13.7062C77.7999 11.3404 75.174 9.22695 72.3403 7.4094L67.1259 13.6772C65.5396 15.584 66.0676 18.4522 68.0242 19.9766C70.2629 21.7208 72.2792 23.737 74.0234 25.9757Z" fill="#FAFAFA"/>
<path d="M51.2408 13.0242C53.7029 13.3282 56.1054 11.6725 56.332 9.20202L57.0769 1.0828C53.8307 0.373655 50.459 0 47 0C43.5411 0 40.1695 0.373637 36.9233 1.08275L37.6682 9.20208C37.8948 11.6725 40.2974 13.3283 42.7596 13.0243C45.5725 12.677 48.4279 12.6769 51.2408 13.0242Z" fill="#FAFAFA"/>
<path d="M25.9761 19.977C27.9326 18.4525 28.4606 15.5844 26.8743 13.6776L21.6596 7.40947C15.9444 11.0751 11.0751 15.9445 7.40942 21.6597L13.6776 26.8744C15.5844 28.4607 18.4526 27.9327 19.977 25.9761C21.7212 23.7374 23.7374 21.7212 25.9761 19.977Z" fill="#FAFAFA"/>
<path d="M9.20252 37.6681C11.673 37.8948 13.3287 40.2973 13.0247 42.7594C12.6774 45.5723 12.6774 48.4277 13.0247 51.2405C13.3287 53.7027 11.673 56.1052 9.20254 56.3319L1.08278 57.0768C0.373646 53.8306 0 50.4589 0 47C0 43.5411 0.373647 40.1694 1.08278 36.9232L9.20252 37.6681Z" fill="#FAFAFA"/>
<path d="M19.9771 68.0237C18.4527 66.0671 15.5845 65.5391 13.6777 67.1254L7.40941 72.3403C11.0751 78.0555 15.9444 82.9248 21.6596 86.5905L26.8744 80.3222C28.4607 78.4155 27.9327 75.5473 25.9762 74.0229C23.7375 72.2787 21.7213 70.2624 19.9771 68.0237Z" fill="#FAFAFA"/>
<path d="M42.7596 80.9755C40.2974 80.6715 37.8949 82.3272 37.6682 84.7977L36.9233 92.9173C40.1603 93.6244 43.522 93.9979 46.9707 94L47 94L47.0293 94C50.478 93.9979 53.8398 93.6243 57.0769 92.9172L56.332 84.7978C56.1054 82.3273 53.7028 80.6716 51.2407 80.9755C48.4278 81.3228 45.5725 81.3228 42.7596 80.9755Z" fill="#FAFAFA"/>
<path d="M68.0241 74.0232C66.0675 75.5476 65.5395 78.4159 67.1258 80.3226L72.3403 86.5906C75.1773 84.7709 77.806 82.6547 80.1824 80.2856L80.2856 80.1824C82.6546 77.806 84.7709 75.1774 86.5905 72.3404L80.3226 67.1259C78.4159 65.5396 75.5477 66.0676 74.0233 68.0241C72.2791 70.2628 70.2628 72.2791 68.0241 74.0232Z" fill="#FAFAFA"/>
</g>
<circle opacity="0.2" cx="46.9987" cy="47.0001" r="29.5377" stroke="#FAFAFA" stroke-width="3"/>
<path d="M40.2501 42.5V47M38.0001 44.75H42.5001M44.2476 36.17L45.0006 36.701C45.5853 37.1147 46.2839 37.3368 47.0001 37.3368C47.7163 37.3368 48.4149 37.1147 48.9996 36.701L49.7526 36.1685C50.8272 35.4081 52.1112 34.9998 53.4276 35H54.3456C54.9531 35 55.5651 35.0375 56.1366 35.24C59.7111 36.509 62.1681 41.1425 61.9911 51.6545C61.9551 53.7725 61.4601 56.1125 59.5491 57.026C58.8972 57.3394 58.1829 57.5015 57.4596 57.5C56.6466 57.5133 55.8479 57.2852 55.1646 56.8445C53.7921 55.946 52.7886 54.4445 51.3336 53.6915C50.4577 53.2372 49.4854 53.0001 48.4986 53H45.5001C44.5131 53 43.5411 53.237 42.6651 53.69C41.2101 54.446 40.2051 55.946 38.8356 56.8445C38.1523 57.2852 37.3536 57.5133 36.5406 57.5C35.8173 57.5015 35.103 57.3394 34.4511 57.026C32.5401 56.1125 32.0451 53.771 32.0091 51.6545C31.8306 41.1425 34.2891 36.509 37.8636 35.24C38.4351 35.0375 39.0501 35 39.6546 35H40.5726C41.8896 35 43.1736 35.408 44.2476 36.17Z" stroke="#FAFAFA" stroke-width="2" stroke-linecap="round"/>
<path d="M57.5 44.375C57.5 44.6734 57.3815 44.9595 57.1705 45.1705C56.9595 45.3815 56.6734 45.5 56.375 45.5C56.0766 45.5 55.7905 45.3815 55.5795 45.1705C55.3685 44.9595 55.25 44.6734 55.25 44.375C55.25 44.0766 55.3685 43.7905 55.5795 43.5795C55.7905 43.3685 56.0766 43.25 56.375 43.25C56.6734 43.25 56.9595 43.3685 57.1705 43.5795C57.3815 43.7905 57.5 44.0766 57.5 44.375ZM53 44.375C53 44.6734 52.8815 44.9595 52.6705 45.1705C52.4595 45.3815 52.1734 45.5 51.875 45.5C51.5766 45.5 51.2905 45.3815 51.0795 45.1705C50.8685 44.9595 50.75 44.6734 50.75 44.375C50.75 44.0766 50.8685 43.7905 51.0795 43.5795C51.2905 43.3685 51.5766 43.25 51.875 43.25C52.1734 43.25 52.4595 43.3685 52.6705 43.5795C52.8815 43.7905 53 44.0766 53 44.375ZM54.125 41C54.4234 41 54.7095 41.1185 54.9205 41.3295C55.1315 41.5405 55.25 41.8266 55.25 42.125C55.25 42.4234 55.1315 42.7095 54.9205 42.9205C54.7095 43.1315 54.4234 43.25 54.125 43.25C53.8266 43.25 53.5405 43.1315 53.3295 42.9205C53.1185 42.7095 53 42.4234 53 42.125C53 41.8266 53.1185 41.5405 53.3295 41.3295C53.5405 41.1185 53.8266 41 54.125 41ZM54.125 45.5C54.2727 45.5 54.419 45.5291 54.5555 45.5856C54.692 45.6422 54.816 45.725 54.9205 45.8295C55.025 45.934 55.1078 46.058 55.1644 46.1945C55.2209 46.331 55.25 46.4773 55.25 46.625C55.25 46.7727 55.2209 46.919 55.1644 47.0555C55.1078 47.192 55.025 47.316 54.9205 47.4205C54.816 47.525 54.692 47.6078 54.5555 47.6644C54.419 47.7209 54.2727 47.75 54.125 47.75C53.8266 47.75 53.5405 47.6315 53.3295 47.4205C53.1185 47.2095 53 46.9234 53 46.625C53 46.3266 53.1185 46.0405 53.3295 45.8295C53.5405 45.6185 53.8266 45.5 54.125 45.5Z" fill="#FAFAFA"/>
</svg>
