<svg width="94" height="102" viewBox="0 0 94 102" fill="none" xmlns="http://www.w3.org/2000/svg">
<g opacity="0.3">
<circle cx="47" cy="55" r="46.5" fill="#FAFAFA" stroke="#3A3A3A"/>
<path d="M72.8195 86.4478L72.7902 86.3496L72.7247 86.2708L67.5102 80.0029C66.1325 78.3469 66.5614 75.7967 68.3314 74.4176C70.6026 72.6481 72.6482 70.6026 74.4177 68.3314C75.7968 66.5615 78.3469 66.1327 80.0029 67.5103L86.1367 72.6132L87.3031 78.2086C84.0881 83.7795 79.7511 88.6217 74.6008 92.4263L72.8195 86.4478ZM21.2752 86.2707L21.2073 86.3523L21.1784 86.4545L19.4748 92.482C14.1296 88.5501 9.65613 83.5023 6.39785 77.6826L7.84759 72.6261L13.9975 67.5098C15.6535 66.1322 18.2037 66.561 19.5827 68.331C21.3522 70.6022 23.3977 72.6477 25.6689 74.4173C27.4388 75.7963 27.8677 78.3465 26.49 80.0024L21.2752 86.2707ZM47 8.5C50.0137 8.5 52.96 8.78664 55.8133 9.33399C55.5199 11.3841 53.4677 12.7954 51.302 12.528C48.4484 12.1757 45.5519 12.1757 42.6983 12.528C40.5326 12.7954 38.4803 11.3841 38.1869 9.33395C41.0401 8.78662 43.9864 8.5 47 8.5ZM67.5102 13.997L67.9459 13.4733C73.4126 16.2362 78.26 20.0471 82.2238 24.642L80.003 26.4896C78.347 27.8672 75.7968 27.4384 74.4178 25.6684C72.6482 23.3972 70.6027 21.3517 68.3315 19.5822C66.5614 18.2031 66.1326 15.6529 67.5102 13.997ZM84.8439 38.166L90.1665 37.6776C92.3166 43.0306 93.5 48.8765 93.5 55C93.5 55.5277 93.4912 56.0534 93.4738 56.5768H92.9401L84.8439 55.834C82.6983 55.6372 81.1972 53.5295 81.4722 51.3019C81.8245 48.4483 81.8246 45.5517 81.4722 42.6981C81.1972 40.4704 82.6984 38.3628 84.8439 38.166ZM55.8341 84.8434L56.5769 92.9401V100.513C53.4867 101.16 50.2834 101.5 47 101.5C43.7167 101.5 40.5135 101.16 37.4233 100.513V92.9401L38.1661 84.8434C38.363 82.6978 40.4706 81.1967 42.6983 81.4717C45.5519 81.8241 48.4484 81.8241 51.302 81.4718C53.5297 81.1967 55.6373 82.6979 55.8341 84.8434ZM1.04129 56.5785L1.0371 56.5789L0.52773 56.6213C0.509294 56.0831 0.5 55.5427 0.5 55C0.5 48.8765 1.68338 43.0306 3.8335 37.6776L9.15684 38.166C11.3024 38.3629 12.8035 40.4705 12.5285 42.6981C12.1762 45.5517 12.1762 48.4482 12.5285 51.3018C12.8036 53.5295 11.3024 55.6371 9.15686 55.834L1.04129 56.5785ZM13.9974 26.4901L11.7761 24.6421C15.7399 20.0472 20.5873 16.2363 26.054 13.4734L26.4899 13.9974C27.8676 15.6533 27.4388 18.2035 25.6688 19.5826C23.3976 21.3521 21.3521 23.3976 19.5826 25.6688C18.2036 27.4389 15.6534 27.8677 13.9974 26.4901Z" fill="#FAFAFA" stroke="#3A3A3A"/>
<circle cx="47" cy="47" r="46.5" fill="#FAFAFA" stroke="#3A3A3A"/>
<path d="M68.3314 74.4176C66.5614 75.7967 66.1325 78.3469 67.5102 80.0029L72.4408 85.9296C75.1062 84.1842 77.5814 82.1724 79.8288 79.932L68.3314 74.4176ZM68.3314 74.4176C70.6026 72.6481 72.6482 70.6026 74.4177 68.3314C75.7968 66.5615 78.3469 66.1326 80.0029 67.5103L85.9296 72.4409M68.3314 74.4176L85.9296 72.4409M85.9296 72.4409C84.1842 75.1062 82.1724 77.5815 79.932 79.8288L85.9296 72.4409ZM79.9396 14.1787L80.2938 13.8259L79.9396 14.1788C82.1769 16.4241 84.1861 18.8968 85.9295 21.5591L80.003 26.4896C78.347 27.8672 75.7968 27.4384 74.4178 25.6684C72.6482 23.3972 70.6027 21.3517 68.3315 19.5822C66.5614 18.2031 66.1326 15.6529 67.5102 13.997L72.4408 8.07037C75.1031 9.81381 77.5759 11.823 79.8212 14.0604L79.881 14.1201L79.9396 14.1787ZM93.5 47.0205C93.5 47.0206 93.5 47.0206 93.5 47.0207C93.4986 50.2831 93.1613 53.4665 92.5209 56.5383L84.8439 55.834C82.6983 55.6372 81.1972 53.5295 81.4722 51.3019C81.8245 48.4483 81.8246 45.5517 81.4722 42.6981C81.1972 40.4704 82.6984 38.3628 84.8439 38.166L92.5209 37.4616C93.1613 40.5335 93.4986 43.7169 93.5 46.9794L93.5 47.0205ZM55.8341 9.15634C55.6373 11.3019 53.5297 12.803 51.302 12.528C48.4484 12.1757 45.5519 12.1757 42.6983 12.528C40.4706 12.8031 38.3629 11.3019 38.1661 9.1564L37.4618 1.47908C40.54 0.837384 43.7303 0.5 47 0.5C50.2697 0.5 53.4601 0.837402 56.5385 1.47913L55.8341 9.15634ZM26.4899 13.9974C27.8676 15.6533 27.4388 18.2035 25.6688 19.5826C23.3976 21.3521 21.3521 23.3976 19.5826 25.6688C18.2036 27.4389 15.6534 27.8677 13.9974 26.4901L8.07039 21.5592C11.588 16.1876 16.1875 11.5881 21.5591 8.07044L26.4899 13.9974ZM9.15684 38.166C11.3024 38.3629 12.8035 40.4705 12.5285 42.6981C12.1762 45.5517 12.1762 48.4482 12.5285 51.3018C12.8036 53.5295 11.3024 55.6371 9.15686 55.834L1.4791 56.5383C0.837393 53.46 0.5 50.2697 0.5 47C0.5 43.7303 0.837394 40.5399 1.4791 37.4616L9.15684 38.166ZM13.9975 67.5098C15.6535 66.1322 18.2037 66.561 19.5827 68.331C21.3522 70.6022 23.3977 72.6477 25.6689 74.4173C27.4388 75.7963 27.8677 78.3465 26.49 80.0024L21.5591 85.9295C16.1875 82.4119 11.588 77.8124 8.07038 72.4408L13.9975 67.5098ZM38.1661 84.8434C38.363 82.6978 40.4706 81.1967 42.6983 81.4717C45.5519 81.8241 48.4484 81.8241 51.302 81.4718C53.5297 81.1967 55.6373 82.6979 55.8341 84.8434L56.5385 92.5209C53.4692 93.1607 50.2886 93.498 47.0291 93.5L47.0003 93.5H46.9997L46.971 93.5C43.7115 93.498 40.5309 93.1607 37.4618 92.5209L38.1661 84.8434ZM79.9315 79.8294L79.8294 79.9315L79.9315 79.8294Z" fill="#FAFAFA" stroke="#3A3A3A"/>
<circle cx="46.9987" cy="47.0001" r="30.5377" fill="#FAFAFA" stroke="#3A3A3A"/>
<path d="M63.6665 43.1167C63.5612 42.8118 63.3698 42.544 63.1154 42.3458C62.8609 42.1476 62.5545 42.0275 62.2331 42L52.7498 40.6167L48.4998 32C48.3633 31.7182 48.1502 31.4806 47.8849 31.3143C47.6197 31.148 47.3129 31.0598 46.9998 31.0598C46.6867 31.0598 46.3799 31.148 46.1147 31.3143C45.8494 31.4806 45.6363 31.7182 45.4998 32L41.2498 40.6L31.7665 42C31.458 42.0438 31.168 42.1733 30.9294 42.3736C30.6908 42.5739 30.5131 42.8371 30.4165 43.1333C30.328 43.4228 30.3201 43.7309 30.3935 44.0245C30.4669 44.3181 30.6189 44.5862 30.8331 44.8L37.7165 51.4667L36.0498 60.9333C35.9825 61.2474 36.0074 61.5742 36.1214 61.8744C36.2355 62.1746 36.4339 62.4355 36.6927 62.6257C36.9515 62.8158 37.2598 62.9271 37.5803 62.9462C37.9009 62.9653 38.2202 62.8914 38.4998 62.7333L46.9998 58.2833L55.4998 62.7333C55.7337 62.8653 55.9979 62.9342 56.2665 62.9333C56.6195 62.9346 56.9638 62.8237 57.2498 62.6167C57.5084 62.4314 57.7085 62.1761 57.8267 61.8808C57.9448 61.5854 57.976 61.2625 57.9165 60.95L56.2498 51.4833L63.1331 44.8167C63.3738 44.6128 63.5516 44.3448 63.646 44.0439C63.7404 43.743 63.7475 43.4215 63.6665 43.1167ZM53.4165 49.7833C53.2236 49.9707 53.0788 50.2019 52.9947 50.4573C52.9105 50.7127 52.8894 50.9847 52.9331 51.25L54.1331 58.25L47.8665 54.9167C47.6229 54.7962 47.3549 54.7335 47.0831 54.7335C46.8114 54.7335 46.5434 54.7962 46.2998 54.9167L40.0331 58.25L41.2331 51.25C41.2769 50.9847 41.2557 50.7127 41.1716 50.4573C41.0874 50.2019 40.9427 49.9707 40.7498 49.7833L35.7498 44.7833L42.7665 43.7667C43.0365 43.7291 43.2931 43.6259 43.514 43.4661C43.7348 43.3063 43.9131 43.0947 44.0331 42.85L46.9998 36.5L50.1331 42.8667C50.2532 43.1114 50.4315 43.3229 50.6523 43.4828C50.8731 43.6426 51.1298 43.7458 51.3998 43.7833L58.4165 44.8L53.4165 49.7833Z" fill="#3A3A3A"/>
</g>
</svg>
