<svg width="94" height="102" viewBox="0 0 94 102" fill="none" xmlns="http://www.w3.org/2000/svg">
<g opacity="0.3">
<circle cx="47" cy="55" r="46.5" fill="#FAFAFA" stroke="#3A3A3A"/>
<path d="M72.8195 86.4478L72.7902 86.3496L72.7247 86.2708L67.5102 80.0029C66.1325 78.3469 66.5614 75.7967 68.3314 74.4176C70.6026 72.6481 72.6482 70.6026 74.4177 68.3314C75.7968 66.5615 78.3469 66.1327 80.0029 67.5103L86.1367 72.6132L87.3031 78.2086C84.0881 83.7795 79.7511 88.6217 74.6008 92.4263L72.8195 86.4478ZM21.2752 86.2707L21.2073 86.3523L21.1784 86.4545L19.4748 92.482C14.1296 88.5501 9.65613 83.5023 6.39785 77.6826L7.84759 72.6261L13.9975 67.5098C15.6535 66.1322 18.2037 66.561 19.5827 68.331C21.3522 70.6022 23.3977 72.6477 25.6689 74.4173C27.4388 75.7963 27.8677 78.3465 26.49 80.0024L21.2752 86.2707ZM47 8.5C50.0137 8.5 52.96 8.78664 55.8133 9.33399C55.5199 11.3841 53.4677 12.7954 51.302 12.528C48.4484 12.1757 45.5519 12.1757 42.6983 12.528C40.5326 12.7954 38.4803 11.3841 38.1869 9.33395C41.0401 8.78662 43.9864 8.5 47 8.5ZM67.5102 13.997L67.9459 13.4733C73.4126 16.2362 78.26 20.0471 82.2238 24.642L80.003 26.4896C78.347 27.8672 75.7968 27.4384 74.4178 25.6684C72.6482 23.3972 70.6027 21.3517 68.3315 19.5822C66.5614 18.2031 66.1326 15.6529 67.5102 13.997ZM84.8439 38.166L90.1665 37.6776C92.3166 43.0306 93.5 48.8765 93.5 55C93.5 55.5277 93.4912 56.0534 93.4738 56.5768H92.9401L84.8439 55.834C82.6983 55.6372 81.1972 53.5295 81.4722 51.3019C81.8245 48.4483 81.8246 45.5517 81.4722 42.6981C81.1972 40.4704 82.6984 38.3628 84.8439 38.166ZM55.8341 84.8434L56.5769 92.9401V100.513C53.4867 101.16 50.2834 101.5 47 101.5C43.7167 101.5 40.5135 101.16 37.4233 100.513V92.9401L38.1661 84.8434C38.363 82.6978 40.4706 81.1967 42.6983 81.4717C45.5519 81.8241 48.4484 81.8241 51.302 81.4718C53.5297 81.1967 55.6373 82.6979 55.8341 84.8434ZM1.04129 56.5785L1.0371 56.5789L0.52773 56.6213C0.509294 56.0831 0.5 55.5427 0.5 55C0.5 48.8765 1.68338 43.0306 3.8335 37.6776L9.15684 38.166C11.3024 38.3629 12.8035 40.4705 12.5285 42.6981C12.1762 45.5517 12.1762 48.4482 12.5285 51.3018C12.8036 53.5295 11.3024 55.6371 9.15686 55.834L1.04129 56.5785ZM13.9974 26.4901L11.7761 24.6421C15.7399 20.0472 20.5873 16.2363 26.054 13.4734L26.4899 13.9974C27.8676 15.6533 27.4388 18.2035 25.6688 19.5826C23.3976 21.3521 21.3521 23.3976 19.5826 25.6688C18.2036 27.4389 15.6534 27.8677 13.9974 26.4901Z" fill="#FAFAFA" stroke="#3A3A3A"/>
<circle cx="47" cy="47" r="46.5" fill="#FAFAFA" stroke="#3A3A3A"/>
<path d="M72.4408 85.9296L67.5102 80.0029C66.1325 78.3469 66.5614 75.7967 68.3314 74.4176C70.6026 72.6481 72.6482 70.6026 74.4177 68.3314C75.7968 66.5615 78.3469 66.1327 80.0029 67.5103L85.9296 72.4409C84.1842 75.1062 82.1724 77.5815 79.932 79.8288L72.4408 85.9296ZM72.4408 85.9296C75.1062 84.1842 77.5814 82.1724 79.8288 79.932L72.4408 85.9296ZM79.9396 14.1787L80.2938 13.8259L79.9396 14.1788C82.1769 16.4241 84.1861 18.8968 85.9295 21.5591L80.003 26.4896C78.347 27.8672 75.7968 27.4384 74.4178 25.6684C72.6482 23.3972 70.6027 21.3517 68.3315 19.5822C66.5614 18.2031 66.1326 15.6529 67.5102 13.997L72.4408 8.07037C75.1031 9.81381 77.5759 11.823 79.8212 14.0604L79.881 14.1201L79.9396 14.1787ZM93.5 47.0207C93.4986 50.2831 93.1613 53.4665 92.5209 56.5383L84.8439 55.834C82.6983 55.6372 81.1972 53.5295 81.4722 51.3019C81.8245 48.4483 81.8246 45.5517 81.4722 42.6981C81.1972 40.4704 82.6984 38.3628 84.8439 38.166L92.5209 37.4616C93.1613 40.5335 93.4986 43.7169 93.5 46.9794L93.5 47.0205C93.5 47.0206 93.5 47.0206 93.5 47.0207ZM47 0.5C50.2697 0.5 53.4601 0.837402 56.5385 1.47913L55.8341 9.15634C55.6373 11.3019 53.5297 12.803 51.302 12.528C48.4484 12.1757 45.5519 12.1757 42.6983 12.528C40.4706 12.8031 38.3629 11.3019 38.1661 9.1564L37.4618 1.47908C40.54 0.837384 43.7303 0.5 47 0.5ZM8.07039 21.5592C11.588 16.1876 16.1875 11.5881 21.5591 8.07044L26.4899 13.9974C27.8676 15.6533 27.4388 18.2035 25.6688 19.5826C23.3976 21.3521 21.3521 23.3976 19.5826 25.6688C18.2036 27.4389 15.6534 27.8677 13.9974 26.4901L8.07039 21.5592ZM9.15686 55.834L1.4791 56.5383C0.837393 53.46 0.5 50.2697 0.5 47C0.5 43.7303 0.837394 40.5399 1.4791 37.4616L9.15684 38.166C11.3024 38.3629 12.8035 40.4705 12.5285 42.6982C12.1762 45.5517 12.1762 48.4482 12.5285 51.3018C12.8036 53.5295 11.3024 55.6371 9.15686 55.834ZM21.5591 85.9295C16.1875 82.4119 11.588 77.8124 8.07038 72.4408L13.9975 67.5098C15.6535 66.1322 18.2037 66.561 19.5827 68.331C21.3522 70.6022 23.3977 72.6478 25.6689 74.4173C27.4388 75.7963 27.8676 78.3465 26.49 80.0024L21.5591 85.9295ZM37.4618 92.5209L38.1661 84.8434C38.363 82.6978 40.4706 81.1967 42.6983 81.4717C45.5519 81.8241 48.4484 81.8241 51.302 81.4718C53.5297 81.1967 55.6373 82.6979 55.8341 84.8434L56.5385 92.5209C53.4692 93.1607 50.2886 93.498 47.0291 93.5L47.0003 93.5H46.9997L46.971 93.5C43.7115 93.498 40.5309 93.1607 37.4618 92.5209ZM79.9315 79.8294L79.8294 79.9315L79.9315 79.8294Z" fill="#FAFAFA" stroke="#3A3A3A"/>
<circle cx="46.9987" cy="47.0001" r="30.5377" fill="#FAFAFA" stroke="#3A3A3A"/>
<path d="M46.9997 52.9999C46.703 52.9999 46.413 53.0879 46.1664 53.2527C45.9197 53.4175 45.7274 53.6518 45.6139 53.9259C45.5004 54.2 45.4707 54.5016 45.5285 54.7926C45.5864 55.0835 45.7293 55.3508 45.939 55.5606C46.1488 55.7704 46.4161 55.9132 46.7071 55.9711C46.998 56.029 47.2996 55.9993 47.5737 55.8857C47.8478 55.7722 48.0821 55.58 48.2469 55.3333C48.4117 55.0866 48.4997 54.7966 48.4997 54.4999C48.4997 54.1021 48.3417 53.7206 48.0604 53.4393C47.7791 53.158 47.3975 52.9999 46.9997 52.9999ZM63.0047 55.2049L50.9297 34.2049C50.5394 33.5052 49.9694 32.9224 49.2785 32.5166C48.5876 32.1109 47.8009 31.897 46.9997 31.897C46.1985 31.897 45.4118 32.1109 44.7209 32.5166C44.03 32.9224 43.46 33.5052 43.0697 34.2049L31.0697 55.2049C30.6659 55.8859 30.4489 56.6615 30.4407 57.4532C30.4324 58.2448 30.6332 59.0247 31.0227 59.714C31.4123 60.4033 31.9768 60.9776 32.6592 61.379C33.3417 61.7803 34.118 61.9945 34.9097 61.9999H59.0897C59.8878 62.0078 60.6736 61.8033 61.3666 61.4073C62.0595 61.0113 62.6347 60.4382 63.0332 59.7467C63.4316 59.0551 63.639 58.27 63.634 57.4719C63.629 56.6738 63.4118 55.8914 63.0047 55.2049V55.2049ZM60.4097 58.2049C60.2782 58.4388 60.0864 58.6332 59.8542 58.7678C59.6221 58.9023 59.358 58.9721 59.0897 58.9699H34.9097C34.6414 58.9721 34.3774 58.9023 34.1452 58.7678C33.913 58.6332 33.7212 58.4388 33.5897 58.2049C33.4581 57.9769 33.3887 57.7182 33.3887 57.4549C33.3887 57.1916 33.4581 56.9329 33.5897 56.7049L45.5897 35.7049C45.7156 35.4592 45.9068 35.253 46.1424 35.109C46.3779 34.965 46.6486 34.8889 46.9247 34.8889C47.2008 34.8889 47.4715 34.965 47.707 35.109C47.9426 35.253 48.1338 35.4592 48.2597 35.7049L60.3347 56.7049C60.4835 56.9297 60.569 57.1904 60.5822 57.4596C60.5954 57.7289 60.5358 57.9967 60.4097 58.2349V58.2049ZM46.9997 40.9999C46.6019 40.9999 46.2204 41.158 45.939 41.4393C45.6577 41.7206 45.4997 42.1021 45.4997 42.4999V48.4999C45.4997 48.8977 45.6577 49.2793 45.939 49.5606C46.2204 49.8419 46.6019 49.9999 46.9997 49.9999C47.3975 49.9999 47.7791 49.8419 48.0604 49.5606C48.3417 49.2793 48.4997 48.8977 48.4997 48.4999V42.4999C48.4997 42.1021 48.3417 41.7206 48.0604 41.4393C47.7791 41.158 47.3975 40.9999 46.9997 40.9999Z" fill="#3A3A3A"/>
</g>
</svg>
