<svg width="94" height="102" viewBox="0 0 94 102" fill="none" xmlns="http://www.w3.org/2000/svg">
<g opacity="0.3">
<circle cx="47" cy="55" r="46.5" fill="#FAFAFA" stroke="#3A3A3A"/>
<path d="M72.8195 86.4478L72.7902 86.3496L72.7247 86.2708L67.5102 80.0029C66.1325 78.3469 66.5614 75.7967 68.3314 74.4176C70.6026 72.6481 72.6482 70.6026 74.4177 68.3314C75.7968 66.5615 78.3469 66.1327 80.0029 67.5103L86.1367 72.6132L87.3031 78.2086C84.0881 83.7795 79.7511 88.6217 74.6008 92.4263L72.8195 86.4478ZM21.2752 86.2707L21.2073 86.3523L21.1784 86.4545L19.4748 92.482C14.1296 88.5501 9.65613 83.5023 6.39785 77.6826L7.84759 72.6261L13.9975 67.5098C15.6535 66.1322 18.2037 66.561 19.5827 68.331C21.3522 70.6022 23.3977 72.6477 25.6689 74.4173C27.4388 75.7963 27.8677 78.3465 26.49 80.0024L21.2752 86.2707ZM47 8.5C50.0137 8.5 52.96 8.78664 55.8133 9.33399C55.5199 11.3841 53.4677 12.7954 51.302 12.528C48.4484 12.1757 45.5519 12.1757 42.6983 12.528C40.5326 12.7954 38.4803 11.3841 38.1869 9.33395C41.0401 8.78662 43.9864 8.5 47 8.5ZM67.5102 13.997L67.9459 13.4733C73.4126 16.2362 78.26 20.0471 82.2238 24.642L80.003 26.4896C78.347 27.8672 75.7968 27.4384 74.4178 25.6684C72.6482 23.3972 70.6027 21.3517 68.3315 19.5822C66.5614 18.2031 66.1326 15.6529 67.5102 13.997ZM84.8439 38.166L90.1665 37.6776C92.3166 43.0306 93.5 48.8765 93.5 55C93.5 55.5277 93.4912 56.0534 93.4738 56.5768H92.9401L84.8439 55.834C82.6983 55.6372 81.1972 53.5295 81.4722 51.3019C81.8245 48.4483 81.8246 45.5517 81.4722 42.6981C81.1972 40.4704 82.6984 38.3628 84.8439 38.166ZM55.8341 84.8434L56.5769 92.9401V100.513C53.4867 101.16 50.2834 101.5 47 101.5C43.7167 101.5 40.5135 101.16 37.4233 100.513V92.9401L38.1661 84.8434C38.363 82.6978 40.4706 81.1967 42.6983 81.4717C45.5519 81.8241 48.4484 81.8241 51.302 81.4718C53.5297 81.1967 55.6373 82.6979 55.8341 84.8434ZM1.04129 56.5785L1.0371 56.5789L0.52773 56.6213C0.509294 56.0831 0.5 55.5427 0.5 55C0.5 48.8765 1.68338 43.0306 3.8335 37.6776L9.15684 38.166C11.3024 38.3629 12.8035 40.4705 12.5285 42.6981C12.1762 45.5517 12.1762 48.4482 12.5285 51.3018C12.8036 53.5295 11.3024 55.6371 9.15686 55.834L1.04129 56.5785ZM13.9974 26.4901L11.7761 24.6421C15.7399 20.0472 20.5873 16.2363 26.054 13.4734L26.4899 13.9974C27.8676 15.6533 27.4388 18.2035 25.6688 19.5826C23.3976 21.3521 21.3521 23.3976 19.5826 25.6688C18.2036 27.4389 15.6534 27.8677 13.9974 26.4901Z" fill="#FAFAFA" stroke="#3A3A3A"/>
<circle cx="47" cy="47" r="46.5" fill="#FAFAFA" stroke="#3A3A3A"/>
<path d="M72.4408 85.9296L67.5102 80.0029C66.1325 78.3469 66.5614 75.7967 68.3314 74.4176C70.6026 72.6481 72.6482 70.6026 74.4177 68.3314C75.7968 66.5615 78.3469 66.1327 80.0029 67.5103L85.9296 72.4409C84.1842 75.1062 82.1724 77.5815 79.932 79.8288L72.4408 85.9296ZM72.4408 85.9296C75.1062 84.1842 77.5814 82.1724 79.8288 79.932L72.4408 85.9296ZM79.9396 14.1787L80.2938 13.8259L79.9396 14.1788C82.1769 16.4241 84.1861 18.8968 85.9295 21.5591L80.003 26.4896C78.347 27.8672 75.7968 27.4384 74.4178 25.6684C72.6482 23.3972 70.6027 21.3517 68.3315 19.5822C66.5614 18.2031 66.1326 15.6529 67.5102 13.997L72.4408 8.07037C75.1031 9.81381 77.5759 11.823 79.8212 14.0604L79.881 14.1201L79.9396 14.1787ZM93.5 47.0207C93.4986 50.2831 93.1613 53.4665 92.5209 56.5383L84.8439 55.834C82.6983 55.6372 81.1972 53.5295 81.4722 51.3019C81.8245 48.4483 81.8246 45.5517 81.4722 42.6981C81.1972 40.4704 82.6984 38.3628 84.8439 38.166L92.5209 37.4616C93.1613 40.5335 93.4986 43.7169 93.5 46.9794L93.5 47.0205C93.5 47.0206 93.5 47.0206 93.5 47.0207ZM47 0.5C50.2697 0.5 53.4601 0.837402 56.5385 1.47913L55.8341 9.15634C55.6373 11.3019 53.5297 12.803 51.302 12.528C48.4484 12.1757 45.5519 12.1757 42.6983 12.528C40.4706 12.8031 38.3629 11.3019 38.1661 9.1564L37.4618 1.47908C40.54 0.837384 43.7303 0.5 47 0.5ZM8.07039 21.5592C11.588 16.1876 16.1875 11.5881 21.5591 8.07044L26.4899 13.9974C27.8676 15.6533 27.4388 18.2035 25.6688 19.5826C23.3976 21.3521 21.3521 23.3976 19.5826 25.6688C18.2036 27.4389 15.6534 27.8677 13.9974 26.4901L8.07039 21.5592ZM9.15686 55.834L1.4791 56.5383C0.837393 53.46 0.5 50.2697 0.5 47C0.5 43.7303 0.837394 40.5399 1.4791 37.4616L9.15684 38.166C11.3024 38.3629 12.8035 40.4705 12.5285 42.6982C12.1762 45.5517 12.1762 48.4482 12.5285 51.3018C12.8036 53.5295 11.3024 55.6371 9.15686 55.834ZM21.5591 85.9295C16.1875 82.4119 11.588 77.8124 8.07038 72.4408L13.9975 67.5098C15.6535 66.1322 18.2037 66.561 19.5827 68.331C21.3522 70.6022 23.3977 72.6478 25.6689 74.4173C27.4388 75.7963 27.8676 78.3465 26.49 80.0024L21.5591 85.9295ZM37.4618 92.5209L38.1661 84.8434C38.363 82.6978 40.4706 81.1967 42.6983 81.4717C45.5519 81.8241 48.4484 81.8241 51.302 81.4718C53.5297 81.1967 55.6373 82.6979 55.8341 84.8434L56.5385 92.5209C53.4692 93.1607 50.2886 93.498 47.0291 93.5L47.0003 93.5H46.9997L46.971 93.5C43.7115 93.498 40.5309 93.1607 37.4618 92.5209ZM79.9315 79.8294L79.8294 79.9315L79.9315 79.8294Z" fill="#FAFAFA" stroke="#3A3A3A"/>
<circle cx="46.9987" cy="47.0001" r="30.5377" fill="#FAFAFA" stroke="#3A3A3A"/>
<path d="M61.5649 52.3698L54.7849 45.6048C54.9268 44.9139 54.9972 44.2102 54.9949 43.5048C54.9944 41.5708 54.5063 39.6681 53.5758 37.9727C52.6453 36.2772 51.3025 34.8436 49.6713 33.8045C48.0401 32.7654 46.1733 32.1543 44.2435 32.0276C42.3136 31.901 40.3829 32.2628 38.6299 33.0798C38.4078 33.1813 38.2139 33.3354 38.0649 33.5289C37.9159 33.7223 37.8163 33.9492 37.7749 34.1898C37.7337 34.4274 37.7503 34.6714 37.8234 34.9012C37.8965 35.131 38.024 35.3398 38.1949 35.5098L44.7199 42.0198L42.0199 44.7198L35.5099 38.1948C35.3384 38.0265 35.129 37.9019 34.8993 37.8314C34.6696 37.7609 34.4263 37.7467 34.1899 37.7898C33.9508 37.8297 33.7249 37.927 33.5316 38.0733C33.3383 38.2196 33.1833 38.4105 33.0799 38.6298C32.2602 40.3886 31.8987 42.3261 32.0289 44.2621C32.1591 46.1982 32.7768 48.0698 33.8247 49.7029C34.8725 51.3361 36.3164 52.6777 38.022 53.6029C39.7277 54.5282 41.6396 55.007 43.5799 54.9948C44.2853 54.9971 44.989 54.9267 45.6799 54.7848L52.4449 61.5648C52.5844 61.7054 52.7503 61.817 52.9331 61.8932C53.1159 61.9693 53.3119 62.0085 53.5099 62.0085C53.7079 62.0085 53.904 61.9693 54.0868 61.8932C54.2696 61.817 54.4355 61.7054 54.5749 61.5648C54.7155 61.4254 54.8271 61.2595 54.9033 61.0767C54.9794 60.8939 55.0186 60.6978 55.0186 60.4998C55.0186 60.3018 54.9794 60.1057 54.9033 59.923C54.8271 59.7402 54.7155 59.5743 54.5749 59.4348L47.2249 52.0848C47.0413 51.9024 46.8135 51.7706 46.5638 51.7022C46.3141 51.6339 46.0509 51.6313 45.7999 51.6948C45.0757 51.8888 44.3297 51.9896 43.5799 51.9948C42.458 52.0047 41.3452 51.7925 40.3056 51.3705C39.2661 50.9484 38.3203 50.3249 37.5228 49.5357C36.7252 48.7466 36.0917 47.8074 35.6588 46.7723C35.2258 45.7373 35.0019 44.6268 34.9999 43.5048C34.998 43.0024 35.0381 42.5006 35.1199 42.0048L40.9999 47.8998C41.1394 48.0404 41.3053 48.152 41.4881 48.2282C41.6709 48.3043 41.8669 48.3435 42.0649 48.3435C42.2629 48.3435 42.459 48.3043 42.6418 48.2282C42.8246 48.152 42.9905 48.0404 43.1299 47.8998L47.8999 43.0848C48.1703 42.8051 48.3214 42.4313 48.3214 42.0423C48.3214 41.6533 48.1703 41.2795 47.8999 40.9998L42.0649 35.1198C42.5608 35.0388 43.0625 34.9987 43.5649 34.9998C45.818 35.0038 47.9774 35.9016 49.5692 37.4962C51.1609 39.0907 52.0549 41.2518 52.0549 43.5048C52.0497 44.2546 51.9489 45.0006 51.7549 45.7248C51.6914 45.9758 51.694 46.239 51.7623 46.4887C51.8307 46.7384 51.9625 46.9662 52.1449 47.1498L59.4949 54.4998C59.7774 54.7823 60.1605 54.941 60.5599 54.941C60.9594 54.941 61.3425 54.7823 61.6249 54.4998C61.9074 54.2174 62.0661 53.8343 62.0661 53.4348C62.0661 53.0354 61.9074 52.6523 61.6249 52.3698H61.5649Z" fill="#3A3A3A"/>
</g>
</svg>
