<svg width="94" height="102" viewBox="0 0 94 102" fill="none" xmlns="http://www.w3.org/2000/svg">
<g opacity="0.3">
<circle cx="47" cy="55" r="46.5" fill="#FAFAFA" stroke="#3A3A3A"/>
<path d="M72.8195 86.4478L72.7902 86.3496L72.7247 86.2708L67.5102 80.0029C66.1325 78.3469 66.5614 75.7967 68.3314 74.4176C70.6026 72.6481 72.6482 70.6026 74.4177 68.3314C75.7968 66.5615 78.3469 66.1327 80.0029 67.5103L86.1367 72.6132L87.3031 78.2086C84.0881 83.7795 79.7511 88.6217 74.6008 92.4263L72.8195 86.4478ZM21.2752 86.2707L21.2073 86.3523L21.1784 86.4545L19.4748 92.482C14.1296 88.5501 9.65613 83.5023 6.39785 77.6826L7.84759 72.6261L13.9975 67.5098C15.6535 66.1322 18.2037 66.561 19.5827 68.331C21.3522 70.6022 23.3977 72.6477 25.6689 74.4173C27.4388 75.7963 27.8677 78.3465 26.49 80.0024L21.2752 86.2707ZM47 8.5C50.0137 8.5 52.96 8.78664 55.8133 9.33399C55.5199 11.3841 53.4677 12.7954 51.302 12.528C48.4484 12.1757 45.5519 12.1757 42.6983 12.528C40.5326 12.7954 38.4803 11.3841 38.1869 9.33395C41.0401 8.78662 43.9864 8.5 47 8.5ZM67.5102 13.997L67.9459 13.4733C73.4126 16.2362 78.26 20.0471 82.2238 24.642L80.003 26.4896C78.347 27.8672 75.7968 27.4384 74.4178 25.6684C72.6482 23.3972 70.6027 21.3517 68.3315 19.5822C66.5614 18.2031 66.1326 15.6529 67.5102 13.997ZM84.8439 38.166L90.1665 37.6776C92.3166 43.0306 93.5 48.8765 93.5 55C93.5 55.5277 93.4912 56.0534 93.4738 56.5768H92.9401L84.8439 55.834C82.6983 55.6372 81.1972 53.5295 81.4722 51.3019C81.8245 48.4483 81.8246 45.5517 81.4722 42.6981C81.1972 40.4704 82.6984 38.3628 84.8439 38.166ZM55.8341 84.8434L56.5769 92.9401V100.513C53.4867 101.16 50.2834 101.5 47 101.5C43.7167 101.5 40.5135 101.16 37.4233 100.513V92.9401L38.1661 84.8434C38.363 82.6978 40.4706 81.1967 42.6983 81.4717C45.5519 81.8241 48.4484 81.8241 51.302 81.4718C53.5297 81.1967 55.6373 82.6979 55.8341 84.8434ZM1.04129 56.5785L1.0371 56.5789L0.52773 56.6213C0.509294 56.0831 0.5 55.5427 0.5 55C0.5 48.8765 1.68338 43.0306 3.8335 37.6776L9.15684 38.166C11.3024 38.3629 12.8035 40.4705 12.5285 42.6981C12.1762 45.5517 12.1762 48.4482 12.5285 51.3018C12.8036 53.5295 11.3024 55.6371 9.15686 55.834L1.04129 56.5785ZM13.9974 26.4901L11.7761 24.6421C15.7399 20.0472 20.5873 16.2363 26.054 13.4734L26.4899 13.9974C27.8676 15.6533 27.4388 18.2035 25.6688 19.5826C23.3976 21.3521 21.3521 23.3976 19.5826 25.6688C18.2036 27.4389 15.6534 27.8677 13.9974 26.4901Z" fill="#FAFAFA" stroke="#3A3A3A"/>
<circle cx="47" cy="47" r="46.5" fill="#FAFAFA" stroke="#3A3A3A"/>
<path d="M72.4408 85.9296L67.5102 80.0029C66.1325 78.3469 66.5614 75.7967 68.3314 74.4176C70.6026 72.6481 72.6482 70.6026 74.4177 68.3314C75.7968 66.5615 78.3469 66.1327 80.0029 67.5103L85.9296 72.4409C84.1842 75.1062 82.1724 77.5815 79.932 79.8288L72.4408 85.9296ZM72.4408 85.9296C75.1062 84.1842 77.5814 82.1724 79.8288 79.932L72.4408 85.9296ZM79.9396 14.1787L80.2938 13.8259L79.9396 14.1788C82.1769 16.4241 84.1861 18.8968 85.9295 21.5591L80.003 26.4896C78.347 27.8672 75.7968 27.4384 74.4178 25.6684C72.6482 23.3972 70.6027 21.3517 68.3315 19.5822C66.5614 18.2031 66.1326 15.6529 67.5102 13.997L72.4408 8.07037C75.1031 9.81381 77.5759 11.823 79.8212 14.0604L79.881 14.1201L79.9396 14.1787ZM93.5 47.0207C93.4986 50.2831 93.1613 53.4665 92.5209 56.5383L84.8439 55.834C82.6983 55.6372 81.1972 53.5295 81.4722 51.3019C81.8245 48.4483 81.8246 45.5517 81.4722 42.6981C81.1972 40.4704 82.6984 38.3628 84.8439 38.166L92.5209 37.4616C93.1613 40.5335 93.4986 43.7169 93.5 46.9794L93.5 47.0205C93.5 47.0206 93.5 47.0206 93.5 47.0207ZM47 0.5C50.2697 0.5 53.4601 0.837402 56.5385 1.47913L55.8341 9.15634C55.6373 11.3019 53.5297 12.803 51.302 12.528C48.4484 12.1757 45.5519 12.1757 42.6983 12.528C40.4706 12.8031 38.3629 11.3019 38.1661 9.1564L37.4618 1.47908C40.54 0.837384 43.7303 0.5 47 0.5ZM8.07039 21.5592C11.588 16.1876 16.1875 11.5881 21.5591 8.07044L26.4899 13.9974C27.8676 15.6533 27.4388 18.2035 25.6688 19.5826C23.3976 21.3521 21.3521 23.3976 19.5826 25.6688C18.2036 27.4389 15.6534 27.8677 13.9974 26.4901L8.07039 21.5592ZM9.15686 55.834L1.4791 56.5383C0.837393 53.46 0.5 50.2697 0.5 47C0.5 43.7303 0.837394 40.5399 1.4791 37.4616L9.15684 38.166C11.3024 38.3629 12.8035 40.4705 12.5285 42.6982C12.1762 45.5517 12.1762 48.4482 12.5285 51.3018C12.8036 53.5295 11.3024 55.6371 9.15686 55.834ZM21.5591 85.9295C16.1875 82.4119 11.588 77.8124 8.07038 72.4408L13.9975 67.5098C15.6535 66.1322 18.2037 66.561 19.5827 68.331C21.3522 70.6022 23.3977 72.6478 25.6689 74.4173C27.4388 75.7963 27.8676 78.3465 26.49 80.0024L21.5591 85.9295ZM37.4618 92.5209L38.1661 84.8434C38.363 82.6978 40.4706 81.1967 42.6983 81.4717C45.5519 81.8241 48.4484 81.8241 51.302 81.4718C53.5297 81.1967 55.6373 82.6979 55.8341 84.8434L56.5385 92.5209C53.4692 93.1607 50.2886 93.498 47.0291 93.5L47.0003 93.5H46.9997L46.971 93.5C43.7115 93.498 40.5309 93.1607 37.4618 92.5209ZM79.9315 79.8294L79.8294 79.9315L79.9315 79.8294Z" fill="#FAFAFA" stroke="#3A3A3A"/>
<circle cx="46.9987" cy="47.0001" r="30.5377" fill="#FAFAFA" stroke="#3A3A3A"/>
<path d="M59.9152 57.785C60.8552 56.5249 61.5003 55.0698 61.8029 53.5271C62.1054 51.9844 62.0577 50.3934 61.6632 48.8716C61.2687 47.3498 60.5375 45.936 59.5236 44.7346C58.5097 43.5331 57.239 42.5747 55.8052 41.93C55.4929 40.1331 54.7751 38.4311 53.7064 36.9532C52.6377 35.4753 51.2462 34.2605 49.6377 33.401C48.0291 32.5415 46.2458 32.06 44.4233 31.993C42.6007 31.926 40.7868 32.2753 39.1195 33.0143C37.4522 33.7534 35.9753 34.8628 34.801 36.2582C33.6267 37.6537 32.7859 39.2984 32.3425 41.0675C31.8991 42.8365 31.8647 44.6834 32.2421 46.4677C32.6194 48.252 33.3985 49.9269 34.5202 51.365L32.4352 53.435C32.227 53.6459 32.086 53.9138 32.03 54.2047C31.9739 54.4957 32.0053 54.7968 32.1202 55.07C32.2327 55.3439 32.4238 55.5784 32.6694 55.7439C32.915 55.9094 33.204 55.9985 33.5002 56H42.0352C42.8851 57.7919 44.2252 59.3064 45.9003 60.3683C47.5754 61.4301 49.5169 61.9958 51.5002 62H60.5002C60.7963 61.9985 61.0854 61.9094 61.331 61.7439C61.5765 61.5784 61.7676 61.3439 61.8802 61.07C61.995 60.7968 62.0264 60.4957 61.9704 60.2047C61.9143 59.9138 61.7733 59.6459 61.5652 59.435L59.9152 57.785ZM41.0002 51.5C41.0022 52.0023 41.0423 52.5037 41.1202 53H37.1152L37.6402 52.49C37.7808 52.3505 37.8924 52.1846 37.9685 52.0018C38.0447 51.819 38.0839 51.623 38.0839 51.425C38.0839 51.2269 38.0447 51.0309 37.9685 50.8481C37.8924 50.6653 37.7808 50.4994 37.6402 50.36C36.7995 49.5285 36.133 48.5378 35.6797 47.4458C35.2265 46.3538 34.9954 45.1823 35.0002 44C35.0002 41.613 35.9484 39.3238 37.6362 37.636C39.324 35.9482 41.6132 35 44.0002 35C45.8627 34.9888 47.6819 35.5615 49.2021 36.6378C50.7222 37.714 51.8669 39.2395 52.4752 41C52.1452 41 51.8302 41 51.5002 41C48.7154 41 46.0447 42.1062 44.0755 44.0753C42.1064 46.0445 41.0002 48.7152 41.0002 51.5ZM56.8102 59L56.8852 59.075H51.5002C49.7652 59.0719 48.0849 58.4673 46.7456 57.3644C45.4064 56.2614 44.4909 54.7282 44.1553 53.026C43.8196 51.3238 44.0845 49.5578 44.9048 48.029C45.7251 46.5002 47.0501 45.303 48.654 44.6415C50.2579 43.98 52.0416 43.895 53.7012 44.4011C55.3607 44.9072 56.7935 45.9729 57.7554 47.4169C58.7173 48.8608 59.1488 50.5936 58.9765 52.32C58.8041 54.0464 58.0385 55.6597 56.8102 56.885C56.5275 57.1619 56.3658 57.5393 56.3602 57.935C56.361 58.1334 56.4012 58.3297 56.4784 58.5126C56.5557 58.6954 56.6684 58.861 56.8102 59V59Z" fill="#3A3A3A"/>
</g>
</svg>
