<svg width="504" height="442" viewBox="0 0 504 442" fill="none" xmlns="http://www.w3.org/2000/svg">
<g clip-path="url(#clip0_521_31552)">
<path d="M308 49.5L263 24.75L308 0L353 24.75L308 49.5Z" fill="#F8F8F8"/>
<path d="M308 99V49.5L353 24.75V74.25L308 99Z" fill="#E7E7E7"/>
<path d="M308 99V49.5L263 24.75V74.25L308 99Z" fill="#EDEDED"/>
<path d="M242.001 130.5L197.001 105.75L242.001 81L287.001 105.75L242.001 130.5Z" fill="#F8F8F8"/>
<path d="M242.001 135V130.5L287.001 105.75V110.25L242.001 135Z" fill="#E7E7E7"/>
<path d="M242.001 135V130.5L197.001 105.75V110.25L242.001 135Z" fill="#EDEDED"/>
<path d="M173.001 123.75L128.001 99L173.001 74.25L218.001 99L173.001 123.75Z" fill="#F8F8F8"/>
<path d="M173.001 173.25V123.75L218.001 99V148.5L173.001 173.25Z" fill="#E7E7E7"/>
<path d="M173.001 173.25V123.75L128.001 99V148.5L173.001 173.25Z" fill="#EDEDED"/>
<path d="M105.501 161.25L60.501 136.5L105.501 111.75L150.501 136.5L105.501 161.25Z" fill="#F8F8F8"/>
<path d="M105.501 210.75V161.25L150.501 136.5V186L105.501 210.75Z" fill="#E7E7E7"/>
<path d="M105.501 210.75V161.25L60.501 136.5V186L105.501 210.75Z" fill="#EDEDED"/>
<path d="M382.999 139.5L337.999 114.75L382.999 90L427.999 114.75L382.999 139.5Z" fill="#F8F8F8"/>
<path d="M382.999 144V139.5L427.999 114.75V119.25L382.999 144Z" fill="#E7E7E7"/>
<path d="M382.999 144V139.5L337.999 114.75V119.25L382.999 144Z" fill="#EDEDED"/>
<path d="M39.501 197.25L-5.49902 172.5L39.501 147.75L84.501 172.5L39.501 197.25Z" fill="#F8F8F8"/>
<path d="M39.501 246.75V197.25L84.501 172.5V222L39.501 246.75Z" fill="#E7E7E7"/>
<path d="M39.501 246.75V197.25L-5.49902 172.5V222L39.501 246.75Z" fill="#EDEDED"/>
<path d="M317 130.5L272 105.75L317 81L362 105.75L317 130.5Z" fill="#F8F8F8"/>
<path d="M317 180V130.5L362 105.75V155.25L317 180Z" fill="#E7E7E7"/>
<path d="M317 180V130.5L272 105.75V155.25L317 180Z" fill="#EDEDED"/>
<path d="M-29.499 235.5L-74.499 210.75L-29.499 186L15.501 210.75L-29.499 235.5Z" fill="#F8F8F8"/>
<path d="M-29.499 285V235.5L15.501 210.75V260.25L-29.499 285Z" fill="#E7E7E7"/>
<path d="M247.999 213.75L202.999 189L247.999 164.25L292.999 189L247.999 213.75Z" fill="#F8F8F8"/>
<path d="M247.999 218.25V213.75L292.999 189V193.5L247.999 218.25Z" fill="#E7E7E7"/>
<path d="M247.999 218.25V213.75L202.999 189V193.5L247.999 218.25Z" fill="#EDEDED"/>
<path d="M180.501 206.25L135.501 181.5L180.501 156.75L225.501 181.5L180.501 206.25Z" fill="#F8F8F8"/>
<path d="M180.501 255.75V206.25L225.501 181.5V231L180.501 255.75Z" fill="#E7E7E7"/>
<path d="M180.501 255.75V206.25L135.501 181.5V231L180.501 255.75Z" fill="#EDEDED"/>
<path d="M457.999 139.5L412.999 114.75L457.999 90L502.999 114.75L457.999 139.5Z" fill="#F8F8F8"/>
<path d="M457.999 189V139.5L502.999 114.75V164.25L457.999 189Z" fill="#E7E7E7"/>
<path d="M457.999 189V139.5L412.999 114.75V164.25L457.999 189Z" fill="#EDEDED"/>
<path d="M114.501 287.25L69.501 262.5L114.501 237.75L159.501 262.5L114.501 287.25Z" fill="#F8F8F8"/>
<path d="M114.501 291.75V287.25L159.501 262.5V267L114.501 291.75Z" fill="#E7E7E7"/>
<path d="M114.501 291.75V287.25L69.501 262.5V267L114.501 291.75Z" fill="#EDEDED"/>
<path d="M391.999 220.5L346.999 195.75L391.999 171L436.999 195.75L391.999 220.5Z" fill="#F8F8F8"/>
<path d="M391.999 225V220.5L436.999 195.75V200.25L391.999 225Z" fill="#E7E7E7"/>
<path d="M391.999 225V220.5L346.999 195.75V200.25L391.999 225Z" fill="#EDEDED"/>
<path d="M45.501 280.5L0.500977 255.75L45.501 231L90.501 255.75L45.501 280.5Z" fill="#F8F8F8"/>
<path d="M45.501 330V280.5L90.501 255.75V305.25L45.501 330Z" fill="#E7E7E7"/>
<path d="M45.501 330V280.5L0.500977 255.75V305.25L45.501 330Z" fill="#EDEDED"/>
<path d="M-21.999 318L-66.999 293.25L-21.999 268.5L23.001 293.25L-21.999 318Z" fill="#F8F8F8"/>
<path d="M-21.999 367.5V318L23.001 293.25V342.75L-21.999 367.5Z" fill="#E7E7E7"/>
<path d="M322.999 213.75L277.999 189L322.999 164.25L367.999 189L322.999 213.75Z" fill="#F8F8F8"/>
<path d="M322.999 263.25V213.75L367.999 189V238.5L322.999 263.25Z" fill="#E7E7E7"/>
<path d="M322.999 263.25V213.75L277.999 189V238.5L322.999 263.25Z" fill="#EDEDED"/>
<path d="M322.999 206.001V173.001L292.999 156.501V189.501L322.999 206.001Z" fill="#FAFAFA"/>
<path d="M322.999 206.001L352.999 189.501V156.501L322.999 173.001V206.001Z" fill="#FAFAFA"/>
<path d="M322.999 173.001L292.999 156.501L322.999 140L352.999 156.501L322.999 173.001Z" fill="#FAFAFA"/>
<path d="M322.999 173.001V206.001M322.999 173.001L352.999 156.501M322.999 173.001L292.999 156.501M322.999 206.001L352.999 189.501V156.501M322.999 206.001L292.999 189.501V156.501M352.999 156.501L322.999 140L292.999 156.501" stroke="#3A3A3A" stroke-width="0.5"/>
<ellipse cx="3.5" cy="2.75" rx="3.5" ry="2.75" transform="matrix(-1 1.74735e-07 1.44409e-07 1 326.499 153.475)" fill="#E41645"/>
<ellipse cx="3.5" cy="2.75" rx="3.5" ry="2.75" transform="matrix(-1 1.74735e-07 1.44409e-07 1 309.999 153.5)" fill="#E41645"/>
<ellipse cx="3.5" cy="2.75" rx="3.5" ry="2.75" transform="matrix(-1 1.74735e-07 1.44409e-07 1 342.999 153.5)" fill="#E41645"/>
<ellipse cx="3.49659" cy="2.56479" rx="3.49659" ry="2.56479" transform="matrix(0.464739 0.885448 -0.84415 0.536107 314.829 180.5)" fill="#E41645"/>
<ellipse cx="3.49659" cy="2.56479" rx="3.49659" ry="2.56479" transform="matrix(0.464739 0.885448 -0.84415 0.536107 314.829 170.5)" fill="#E41645"/>
<ellipse cx="3.49659" cy="2.56479" rx="3.49659" ry="2.56479" transform="matrix(0.464739 0.885448 -0.84415 0.536107 314.829 189.5)" fill="#E41645"/>
<ellipse cx="3.49659" cy="2.56479" rx="3.49659" ry="2.56479" transform="matrix(0.464739 0.885448 -0.84415 0.536107 300.329 172.5)" fill="#E41645"/>
<ellipse cx="3.49659" cy="2.56479" rx="3.49659" ry="2.56479" transform="matrix(0.464739 0.885448 -0.84415 0.536107 300.329 162.5)" fill="#E41645"/>
<ellipse cx="3.49659" cy="2.56479" rx="3.49659" ry="2.56479" transform="matrix(0.464739 0.885448 -0.84415 0.536107 300.329 181.5)" fill="#E41645"/>
<ellipse cx="3.49659" cy="2.56479" rx="3.49659" ry="2.56479" transform="matrix(-0.464739 0.885448 0.84415 0.536107 331.249 173)" fill="#E41645"/>
<ellipse cx="3.49659" cy="2.56479" rx="3.49659" ry="2.56479" transform="matrix(-0.464739 0.885448 0.84415 0.536107 331.249 187)" fill="#E41645"/>
<ellipse cx="3.49659" cy="2.56479" rx="3.49659" ry="2.56479" transform="matrix(-0.464739 0.885448 0.84415 0.536107 345.749 166)" fill="#E41645"/>
<ellipse cx="3.49659" cy="2.56479" rx="3.49659" ry="2.56479" transform="matrix(-0.464739 0.885448 0.84415 0.536107 345.749 180)" fill="#E41645"/>
<path d="M255.501 296.25L210.501 271.5L255.501 246.75L300.501 271.5L255.501 296.25Z" fill="#F8F8F8"/>
<path d="M255.501 300.75V296.25L300.501 271.5V276L255.501 300.75Z" fill="#E7E7E7"/>
<path d="M255.501 300.75V296.25L210.501 271.5V276L255.501 300.75Z" fill="#EDEDED"/>
<path d="M189.501 332.25L144.501 307.5L189.501 282.75L234.501 307.5L189.501 332.25Z" fill="#F8F8F8"/>
<path d="M189.501 336.75V332.25L234.501 307.5V312L189.501 336.75Z" fill="#E7E7E7"/>
<path d="M189.501 336.75V332.25L144.501 307.5V312L189.501 336.75Z" fill="#EDEDED"/>
<path d="M120.501 325.5L75.501 300.75L120.501 276L165.501 300.75L120.501 325.5Z" fill="#F8F8F8"/>
<path d="M120.501 375V325.5L165.501 300.75V350.25L120.501 375Z" fill="#E7E7E7"/>
<path d="M120.501 375V325.5L75.501 300.75V350.25L120.501 375Z" fill="#EDEDED"/>
<path d="M53.001 408.5L8.00098 383.75L53.001 359L98.001 383.75L53.001 408.5Z" fill="#F8F8F8"/>
<path d="M53.001 412.5V408L98.001 383.25V387.75L53.001 412.5Z" fill="#E7E7E7"/>
<path d="M53.001 412.5V408L8.00098 383.25V387.75L53.001 412.5Z" fill="#EDEDED"/>
<path d="M-12.999 399L-57.999 374.25L-12.999 349.5L32.001 374.25L-12.999 399Z" fill="#F8F8F8"/>
<path d="M-12.999 448.5V399L32.001 374.25V423.75L-12.999 448.5Z" fill="#E7E7E7"/>
<path fill-rule="evenodd" clip-rule="evenodd" d="M229.063 258.573C229.022 259.006 229.001 259.442 229.001 259.882C229.001 262.813 229.937 265.596 231.617 268.091L234.285 266.908L234.295 266.905C234.747 266.764 235.224 266.721 235.694 266.779C236.164 266.837 236.617 266.994 237.021 267.24L237.032 267.246L242.665 271.797C242.816 271.923 242.941 272.078 243.029 272.254C243.118 272.43 243.169 272.622 243.18 272.818C243.19 273.015 243.159 273.211 243.09 273.395C243.02 273.58 242.913 273.747 242.775 273.887L242.771 273.891L240.793 275.701C244.527 277.529 248.939 278.728 253.716 279.076L253.98 276.611L253.982 276.602C254.037 276.35 254.146 276.113 254.303 275.907C254.457 275.705 254.653 275.538 254.877 275.419C255.174 275.219 255.511 275.09 255.865 275.04L264.429 273.841L264.432 273.84C265.006 273.78 265.585 273.884 266.102 274.14L266.104 274.141L266.107 274.142C266.279 274.234 266.439 274.346 266.585 274.476L266.644 274.517C266.74 274.586 266.824 274.672 266.892 274.769L266.898 274.778L268.282 277.372C270.858 276.53 273.217 275.418 275.284 274.089C276.715 273.168 278.006 272.145 279.132 271.036L276.506 269.98L276.499 269.976C276.361 269.908 276.234 269.819 276.121 269.713C275.924 269.557 275.758 269.365 275.631 269.147C275.527 268.974 275.466 268.779 275.452 268.578C275.439 268.376 275.475 268.174 275.556 267.989L275.558 267.985L278.496 262.229L278.499 262.225C278.658 261.952 278.893 261.73 279.174 261.585C279.692 261.284 280.283 261.133 280.882 261.148L280.889 261.148L284.106 261.49C284.134 261.037 284.16 260.653 284.178 260.372C284.189 260.213 284.197 260.087 284.203 260.001L284.212 259.877L284.212 259.875C284.211 256.837 283.204 253.959 281.405 251.396L278.505 252.571L278.497 252.573C278.043 252.713 277.563 252.751 277.092 252.686C276.621 252.622 276.17 252.455 275.77 252.197L275.762 252.192L270.134 247.636L270.132 247.634C269.984 247.506 269.863 247.349 269.777 247.173C269.692 246.996 269.644 246.804 269.636 246.608C269.628 246.412 269.661 246.216 269.732 246.034C269.804 245.851 269.912 245.685 270.05 245.546L270.054 245.542L271.98 243.852C268.079 242.019 263.472 240.863 258.5 240.628L258.448 242.763L258.445 242.78C258.39 243.032 258.28 243.269 258.124 243.474C257.969 243.677 257.772 243.845 257.546 243.965C257.251 244.147 256.922 244.268 256.579 244.319L256.577 244.319L248.023 245.517L248.02 245.517C247.8 245.541 247.579 245.538 247.36 245.51C247.089 245.475 246.824 245.405 246.57 245.303C246.319 245.207 246.084 245.075 245.871 244.91L245.695 244.787L245.683 244.774C245.634 244.722 245.59 244.664 245.553 244.603L245.551 244.599L244.4 242.569C241.668 243.513 239.191 244.764 237.063 246.256C235.868 247.093 234.784 248.006 233.826 248.983L236.46 250.075L236.465 250.078C236.585 250.139 236.696 250.215 236.795 250.306L236.827 250.33L236.828 250.33C236.979 250.434 237.113 250.562 237.225 250.707C237.371 250.889 237.466 251.107 237.498 251.338C237.53 251.57 237.498 251.806 237.405 252.021L237.403 252.026L234.459 257.778L234.457 257.783C234.298 258.055 234.066 258.278 233.788 258.427C233.264 258.727 232.668 258.877 232.064 258.862L232.058 258.861L229.063 258.573ZM229.102 258.221L232.08 258.508C232.617 258.52 233.148 258.385 233.614 258.118L233.617 258.117L233.619 258.115C233.839 257.998 234.022 257.823 234.149 257.608L237.082 251.876C237.147 251.721 237.17 251.552 237.147 251.386C237.124 251.219 237.055 251.06 236.948 250.928L236.945 250.925C236.855 250.808 236.748 250.705 236.626 250.621L236.625 250.62L236.571 250.582L236.561 250.573C236.487 250.503 236.403 250.444 236.312 250.398L233.562 249.257C231.087 251.874 229.504 254.933 229.102 258.221ZM244.222 242.256C241.485 243.207 239 244.465 236.86 245.966C231.801 249.512 228.649 254.427 228.646 259.876L228.642 259.936C228.639 259.98 228.635 260.043 228.629 260.126C228.618 260.29 228.602 260.528 228.583 260.821C228.545 261.407 228.494 262.215 228.443 263.101C228.342 264.873 228.24 266.964 228.239 268.228C228.239 273.679 231.392 278.597 236.452 282.144C241.513 285.691 248.495 287.88 256.199 287.88C263.903 287.88 270.885 285.691 275.946 282.143C281.007 278.595 284.159 273.678 284.159 268.226C284.159 266.625 284.327 263.635 284.448 261.703C284.526 261.103 284.566 260.495 284.566 259.881C284.566 254.429 281.414 249.512 276.354 245.965C271.293 242.417 264.311 240.229 256.607 240.229C254.767 240.229 252.969 240.354 251.228 240.592L251.227 240.583C248.913 240.898 246.634 241.434 244.423 242.183L244.22 242.252L244.222 242.256ZM244.741 242.453L245.857 244.422C245.878 244.456 245.902 244.488 245.929 244.518L246.082 244.625L246.085 244.628C246.271 244.772 246.478 244.889 246.698 244.973L246.701 244.974C246.927 245.065 247.164 245.127 247.406 245.159C247.596 245.183 247.788 245.186 247.979 245.165L256.526 243.969L256.527 243.968C256.824 243.924 257.109 243.819 257.364 243.66L257.37 243.657L257.375 243.654C257.558 243.558 257.717 243.423 257.842 243.259C257.964 243.1 258.05 242.916 258.095 242.72L258.146 240.612C257.637 240.593 257.123 240.583 256.607 240.583C252.358 240.583 248.335 241.255 244.741 242.453ZM284.071 261.842C283.596 265.123 281.943 268.169 279.404 270.763L276.651 269.656C276.544 269.602 276.446 269.533 276.359 269.451L276.353 269.445L276.347 269.44C276.181 269.31 276.042 269.15 275.937 268.968L275.935 268.965C275.86 268.84 275.815 268.7 275.806 268.555C275.797 268.412 275.822 268.268 275.879 268.136L278.807 262.399C278.933 262.185 279.118 262.011 279.34 261.898L279.344 261.895L279.348 261.893C279.808 261.625 280.334 261.49 280.866 261.502L284.071 261.842ZM279.623 271.045C281.684 268.949 283.183 266.555 283.961 263.97C283.877 265.523 283.805 267.171 283.805 268.226C283.805 272.023 282.233 275.572 279.508 278.567L279.623 271.045ZM279.263 271.402L279.148 278.952C278.149 279.995 277.008 280.966 275.743 281.853C273.588 283.363 271.076 284.626 268.304 285.574L268.372 277.716C270.983 276.864 273.376 275.736 275.476 274.387C276.875 273.486 278.146 272.487 279.263 271.402ZM267.939 277.482L266.595 274.963C266.552 274.902 266.499 274.849 266.438 274.805L266.437 274.804L266.364 274.753L266.356 274.746C266.23 274.633 266.092 274.536 265.943 274.456C265.487 274.232 264.977 274.14 264.472 274.192L255.914 275.391C255.611 275.434 255.321 275.545 255.068 275.717L255.06 275.723L255.051 275.727C254.869 275.823 254.709 275.958 254.584 276.122C254.461 276.284 254.375 276.47 254.33 276.668L254.069 279.1C254.905 279.153 255.751 279.18 256.606 279.18C260.646 279.18 264.483 278.573 267.939 277.482ZM254.058 279.454C254.897 279.507 255.747 279.534 256.606 279.534C260.669 279.534 264.531 278.925 268.016 277.829L267.948 285.694C264.384 286.868 260.402 287.525 256.199 287.525C255.577 287.526 254.96 287.511 254.349 287.483L254.058 279.454ZM253.702 279.43C248.894 279.081 244.445 277.877 240.672 276.035L241.005 284.34C244.786 286.087 249.217 287.201 253.994 287.465L253.702 279.43ZM240.644 284.171L240.31 275.856C239.082 275.236 237.927 274.547 236.859 273.798C234.81 272.362 233.074 270.701 231.733 268.871L231.756 277.202C233.051 278.92 234.706 280.487 236.655 281.854C237.876 282.71 239.212 283.486 240.644 284.171ZM231.401 276.713L231.377 268.368C230.091 266.48 229.219 264.424 228.848 262.256C228.831 262.532 228.814 262.822 228.797 263.122C228.695 264.894 228.594 266.975 228.594 268.228C228.594 271.267 229.601 274.148 231.401 276.713ZM231.822 268.388C233.161 270.291 234.937 272.019 237.062 273.508C238.112 274.244 239.246 274.921 240.453 275.531L242.525 273.636C242.627 273.531 242.706 273.407 242.758 273.27C242.811 273.132 242.834 272.984 242.826 272.837C242.818 272.69 242.78 272.545 242.713 272.413C242.647 272.282 242.554 272.165 242.44 272.071L242.439 272.071L236.828 267.536C236.468 267.32 236.067 267.182 235.651 267.131C235.234 267.08 234.811 267.117 234.41 267.24L231.822 268.388ZM272.328 244.018L270.297 245.8C270.195 245.904 270.115 246.027 270.062 246.162C270.009 246.3 269.984 246.447 269.99 246.594C269.996 246.741 270.032 246.886 270.096 247.018C270.16 247.15 270.25 247.268 270.361 247.363C270.362 247.364 270.362 247.365 270.363 247.365L275.97 251.904C276.325 252.131 276.724 252.278 277.141 252.336C277.558 252.393 277.983 252.359 278.386 252.237L281.193 251.1C279.878 249.306 278.172 247.672 276.15 246.255C274.977 245.432 273.698 244.683 272.328 244.018ZM237.869 257.877C237.754 258.456 237.694 259.047 237.694 259.648C237.694 263.195 239.775 266.425 243.178 268.776C246.581 271.127 251.291 272.586 256.502 272.586C261.714 272.586 266.424 271.126 269.827 268.776C271.931 267.322 273.529 265.533 274.444 263.54C274.808 258.627 272.661 254.979 269.126 252.549C265.575 250.109 260.618 248.896 255.398 248.896C247.758 248.897 241.645 251.742 237.869 257.877ZM238.156 256.788C242.041 251.153 248.043 248.542 255.398 248.542C260.665 248.542 265.699 249.764 269.327 252.257C272.705 254.579 274.86 258.003 274.838 262.542C275.148 261.61 275.312 260.641 275.312 259.647C275.312 256.099 273.231 252.869 269.827 250.518C266.425 248.167 261.715 246.708 256.503 246.708C251.292 246.708 246.581 248.168 243.179 250.519C240.717 252.219 238.947 254.38 238.156 256.788ZM242.977 250.227C246.446 247.831 251.229 246.354 256.503 246.354C261.777 246.354 266.56 247.83 270.029 250.227C273.497 252.622 275.666 255.95 275.666 259.647C275.666 263.343 273.497 266.671 270.028 269.067C266.559 271.464 261.777 272.94 256.502 272.941C251.228 272.941 246.446 271.464 242.977 269.068C239.509 266.672 237.34 263.344 237.34 259.648C237.34 255.951 239.509 252.623 242.977 250.227Z" fill="#FAFAFA"/>
<path d="M237.694 259.648C237.694 259.047 237.754 258.456 237.869 257.877C241.645 251.742 247.758 248.897 255.398 248.896C260.618 248.896 265.575 250.109 269.126 252.549C272.661 254.979 274.808 258.627 274.444 263.54C273.529 265.533 271.931 267.322 269.827 268.776C266.424 271.126 261.714 272.586 256.502 272.586C251.291 272.586 246.581 271.127 243.178 268.776C239.775 266.425 237.694 263.195 237.694 259.648Z" fill="#FAFAFA"/>
<path d="M255.398 248.542C248.043 248.542 242.041 251.153 238.156 256.788C238.947 254.38 240.717 252.219 243.179 250.519C246.581 248.168 251.292 246.708 256.503 246.708C261.715 246.708 266.425 248.167 269.827 250.518C273.231 252.869 275.312 256.099 275.312 259.647C275.312 260.641 275.148 261.61 274.838 262.542C274.86 258.003 272.705 254.579 269.327 252.257C265.699 249.764 260.665 248.542 255.398 248.542Z" fill="#FAFAFA"/>
<path fill-rule="evenodd" clip-rule="evenodd" d="M229.001 259.882C229.001 259.442 229.022 259.006 229.063 258.573L232.058 258.861L232.064 258.862C232.668 258.877 233.264 258.727 233.788 258.427C234.066 258.278 234.298 258.055 234.457 257.783L234.459 257.778L237.403 252.026L237.405 252.021C237.498 251.806 237.53 251.57 237.498 251.338C237.466 251.107 237.371 250.889 237.225 250.707C237.113 250.562 236.979 250.434 236.828 250.33L236.827 250.33L236.795 250.306C236.696 250.215 236.585 250.139 236.465 250.078L236.46 250.075L233.826 248.983C234.784 248.006 235.868 247.093 237.063 246.256C239.191 244.764 241.668 243.513 244.4 242.569L245.551 244.599L245.553 244.603C245.59 244.664 245.634 244.722 245.683 244.774L245.695 244.787L245.871 244.91C246.084 245.075 246.319 245.207 246.57 245.303C246.824 245.405 247.089 245.475 247.36 245.51C247.579 245.538 247.8 245.541 248.02 245.517L248.023 245.517L256.577 244.319L256.579 244.319C256.922 244.268 257.251 244.147 257.546 243.965C257.772 243.845 257.969 243.677 258.124 243.474C258.28 243.269 258.39 243.032 258.445 242.78L258.448 242.763L258.5 240.628C263.472 240.863 268.079 242.019 271.98 243.852L270.054 245.542L270.05 245.546C269.912 245.685 269.804 245.851 269.732 246.034C269.661 246.216 269.628 246.412 269.636 246.608C269.644 246.804 269.692 246.996 269.777 247.173C269.863 247.349 269.984 247.506 270.132 247.634L270.134 247.636L275.762 252.192L275.77 252.197C276.17 252.455 276.621 252.622 277.092 252.686C277.563 252.751 278.043 252.713 278.497 252.573L278.505 252.571L281.405 251.396C283.204 253.959 284.211 256.837 284.212 259.875L284.212 259.877L284.203 260.001C284.197 260.087 284.189 260.213 284.178 260.372C284.16 260.653 284.134 261.037 284.106 261.49L280.889 261.148L280.882 261.148C280.283 261.133 279.692 261.284 279.174 261.585C278.893 261.73 278.658 261.952 278.499 262.225L278.496 262.229L275.558 267.985L275.556 267.989C275.475 268.174 275.439 268.376 275.452 268.578C275.466 268.779 275.527 268.974 275.631 269.147C275.758 269.365 275.924 269.557 276.121 269.713C276.234 269.819 276.361 269.908 276.499 269.976L276.506 269.98L279.132 271.036C278.006 272.145 276.715 273.168 275.284 274.089C273.217 275.418 270.858 276.53 268.282 277.372L266.898 274.778L266.892 274.769C266.824 274.672 266.74 274.586 266.644 274.517L266.585 274.476C266.439 274.346 266.279 274.234 266.107 274.142L266.104 274.141L266.102 274.14C265.585 273.884 265.006 273.78 264.432 273.84L264.429 273.841L255.865 275.04C255.511 275.09 255.174 275.219 254.877 275.419C254.653 275.538 254.457 275.705 254.303 275.907C254.146 276.113 254.037 276.35 253.982 276.602L253.98 276.611L253.716 279.076C248.939 278.728 244.527 277.529 240.793 275.701L242.771 273.891L242.775 273.887C242.913 273.747 243.02 273.58 243.09 273.395C243.159 273.211 243.19 273.015 243.18 272.818C243.169 272.622 243.118 272.43 243.029 272.254C242.941 272.078 242.816 271.923 242.665 271.797L237.032 267.246L237.021 267.24C236.617 266.994 236.164 266.837 235.694 266.779C235.224 266.721 234.747 266.764 234.295 266.905L234.285 266.908L231.617 268.091C229.937 265.596 229.001 262.813 229.001 259.882ZM242.977 250.227C246.446 247.831 251.229 246.354 256.503 246.354C261.777 246.354 266.56 247.83 270.029 250.227C273.497 252.622 275.666 255.95 275.666 259.647C275.666 263.343 273.497 266.671 270.028 269.067C266.559 271.464 261.777 272.94 256.502 272.941C251.228 272.941 246.446 271.464 242.977 269.068C239.509 266.672 237.34 263.344 237.34 259.648C237.34 255.951 239.509 252.623 242.977 250.227Z" fill="#FAFAFA"/>
<path d="M245.857 244.422L244.741 242.453C248.335 241.255 252.358 240.583 256.607 240.583C257.123 240.583 257.637 240.593 258.146 240.612L258.095 242.72C258.05 242.916 257.964 243.1 257.842 243.259C257.717 243.423 257.558 243.558 257.375 243.654L257.37 243.657L257.364 243.66C257.109 243.819 256.824 243.924 256.527 243.968L256.526 243.969L247.979 245.165C247.788 245.186 247.596 245.183 247.406 245.159C247.164 245.127 246.927 245.065 246.701 244.974L246.698 244.973C246.478 244.889 246.271 244.772 246.085 244.628L246.082 244.625L245.929 244.518C245.902 244.488 245.878 244.456 245.857 244.422Z" fill="#FAFAFA"/>
<path d="M270.297 245.8L272.328 244.018C273.698 244.683 274.977 245.432 276.15 246.255C278.172 247.672 279.878 249.306 281.193 251.1L278.386 252.237C277.983 252.359 277.558 252.393 277.141 252.336C276.724 252.278 276.325 252.131 275.97 251.904L270.363 247.365L270.361 247.363C270.25 247.268 270.16 247.15 270.096 247.018C270.032 246.886 269.996 246.741 269.99 246.594C269.984 246.447 270.009 246.3 270.062 246.162C270.115 246.027 270.195 245.904 270.297 245.8Z" fill="#FAFAFA"/>
<path d="M284.071 261.842C283.596 265.123 281.943 268.169 279.404 270.763L276.651 269.656C276.544 269.602 276.446 269.533 276.359 269.451L276.353 269.445L276.347 269.44C276.181 269.31 276.042 269.15 275.937 268.968L275.935 268.965C275.86 268.84 275.815 268.7 275.806 268.555C275.797 268.412 275.822 268.268 275.879 268.136L278.807 262.399C278.933 262.185 279.118 262.011 279.34 261.898L279.344 261.895L279.348 261.893C279.808 261.625 280.334 261.49 280.866 261.502L284.071 261.842Z" fill="#FAFAFA"/>
<path d="M279.263 271.402L279.148 278.952C278.149 279.995 277.008 280.966 275.743 281.853C273.588 283.363 271.076 284.626 268.304 285.574L268.372 277.716C270.983 276.864 273.376 275.736 275.476 274.387C276.875 273.486 278.146 272.487 279.263 271.402Z" fill="#FAFAFA"/>
<path d="M279.623 271.045C281.684 268.949 283.183 266.555 283.961 263.97C283.877 265.523 283.805 267.171 283.805 268.226C283.805 272.023 282.233 275.572 279.508 278.567L279.623 271.045Z" fill="#FAFAFA"/>
<path d="M266.595 274.963L267.939 277.482C264.483 278.573 260.646 279.18 256.606 279.18C255.751 279.18 254.905 279.153 254.069 279.1L254.33 276.668C254.375 276.47 254.461 276.284 254.584 276.122C254.709 275.958 254.869 275.823 255.051 275.727L255.06 275.723L255.068 275.717C255.321 275.545 255.611 275.434 255.914 275.391L264.472 274.192C264.977 274.14 265.487 274.232 265.943 274.456C266.092 274.536 266.23 274.633 266.356 274.746L266.364 274.753L266.437 274.804L266.438 274.805C266.499 274.849 266.552 274.902 266.595 274.963Z" fill="#FAFAFA"/>
<path d="M254.058 279.454C254.897 279.507 255.747 279.534 256.606 279.534C260.669 279.534 264.531 278.925 268.016 277.829L267.948 285.694C264.384 286.868 260.402 287.525 256.199 287.525C255.577 287.526 254.96 287.511 254.349 287.483L254.058 279.454Z" fill="#FAFAFA"/>
<path d="M240.672 276.035C244.445 277.877 248.894 279.081 253.702 279.43L253.994 287.465C249.217 287.201 244.786 286.087 241.005 284.34L240.672 276.035Z" fill="#FAFAFA"/>
<path d="M240.31 275.856L240.644 284.171C239.212 283.486 237.876 282.71 236.655 281.854C234.706 280.487 233.051 278.92 231.756 277.202L231.733 268.871C233.074 270.701 234.81 272.362 236.859 273.798C237.927 274.547 239.082 275.236 240.31 275.856Z" fill="#FAFAFA"/>
<path d="M237.062 273.508C234.937 272.019 233.161 270.291 231.822 268.388L234.41 267.24C234.811 267.117 235.234 267.08 235.651 267.131C236.067 267.182 236.468 267.32 236.828 267.536L242.439 272.071L242.44 272.071C242.554 272.165 242.647 272.282 242.713 272.413C242.78 272.545 242.818 272.69 242.826 272.837C242.834 272.984 242.811 273.132 242.758 273.27C242.706 273.407 242.627 273.531 242.525 273.636L240.453 275.531C239.246 274.921 238.112 274.244 237.062 273.508Z" fill="#FAFAFA"/>
<path d="M231.377 268.368L231.401 276.713C229.601 274.148 228.594 271.267 228.594 268.228C228.594 266.975 228.695 264.894 228.797 263.122C228.814 262.822 228.831 262.532 228.848 262.256C229.219 264.424 230.091 266.48 231.377 268.368Z" fill="#FAFAFA"/>
<path d="M232.08 258.508L229.102 258.221C229.504 254.933 231.087 251.874 233.562 249.257L236.312 250.398C236.403 250.444 236.487 250.503 236.561 250.573L236.571 250.582L236.625 250.62L236.626 250.621C236.748 250.705 236.855 250.808 236.945 250.925L236.948 250.928C237.055 251.06 237.124 251.219 237.147 251.386C237.17 251.552 237.147 251.721 237.082 251.876L234.149 257.608C234.022 257.823 233.839 257.998 233.619 258.115L233.617 258.117L233.614 258.118C233.148 258.385 232.617 258.52 232.08 258.508Z" fill="#FAFAFA"/>
<path fill-rule="evenodd" clip-rule="evenodd" d="M229.063 258.573C229.022 259.006 229.001 259.442 229.001 259.882C229.001 262.813 229.937 265.596 231.617 268.091L234.285 266.908L234.295 266.905C234.747 266.764 235.224 266.721 235.694 266.779C236.164 266.837 236.617 266.994 237.021 267.24L237.032 267.246L242.665 271.797C242.816 271.923 242.941 272.078 243.029 272.254C243.118 272.43 243.169 272.622 243.18 272.818C243.19 273.015 243.159 273.211 243.09 273.395C243.02 273.58 242.913 273.747 242.775 273.887L242.771 273.891L240.793 275.701C244.527 277.529 248.939 278.728 253.716 279.076L253.98 276.611L253.982 276.602C254.037 276.35 254.146 276.113 254.303 275.907C254.457 275.705 254.653 275.538 254.877 275.419C255.174 275.219 255.511 275.09 255.865 275.04L264.429 273.841L264.432 273.84C265.006 273.78 265.585 273.884 266.102 274.14L266.104 274.141L266.107 274.142C266.279 274.234 266.439 274.346 266.585 274.476L266.644 274.517C266.74 274.586 266.824 274.672 266.892 274.769L266.898 274.778L268.282 277.372C270.858 276.53 273.217 275.418 275.284 274.089C276.715 273.168 278.006 272.145 279.132 271.036L276.506 269.98L276.499 269.976C276.361 269.908 276.234 269.819 276.121 269.713C275.924 269.557 275.758 269.365 275.631 269.147C275.527 268.974 275.466 268.779 275.452 268.578C275.439 268.376 275.475 268.174 275.556 267.989L275.558 267.985L278.496 262.229L278.499 262.225C278.658 261.952 278.893 261.73 279.174 261.585C279.692 261.284 280.283 261.133 280.882 261.148L280.889 261.148L284.106 261.49C284.134 261.037 284.16 260.653 284.178 260.372C284.189 260.213 284.197 260.087 284.203 260.001L284.212 259.877L284.212 259.875C284.211 256.837 283.204 253.959 281.405 251.396L278.505 252.571L278.497 252.573C278.043 252.713 277.563 252.751 277.092 252.686C276.621 252.622 276.17 252.455 275.77 252.197L275.762 252.192L270.134 247.636L270.132 247.634C269.984 247.506 269.863 247.349 269.777 247.173C269.692 246.996 269.644 246.804 269.636 246.608C269.628 246.412 269.661 246.216 269.732 246.034C269.804 245.851 269.912 245.685 270.05 245.546L270.054 245.542L271.98 243.852C268.079 242.019 263.472 240.863 258.5 240.628L258.448 242.763L258.445 242.78C258.39 243.032 258.28 243.269 258.124 243.474C257.969 243.677 257.772 243.845 257.546 243.965C257.251 244.147 256.922 244.268 256.579 244.319L256.577 244.319L248.023 245.517L248.02 245.517C247.8 245.541 247.579 245.538 247.36 245.51C247.089 245.475 246.824 245.405 246.57 245.303C246.319 245.207 246.084 245.075 245.871 244.91L245.695 244.787L245.683 244.774C245.634 244.722 245.59 244.664 245.553 244.603L245.551 244.599L244.4 242.569C241.668 243.513 239.191 244.764 237.063 246.256C235.868 247.093 234.784 248.006 233.826 248.983L236.46 250.075L236.465 250.078C236.585 250.139 236.696 250.215 236.795 250.306L236.827 250.33C236.828 250.33 236.828 250.33 236.828 250.33C236.979 250.434 237.113 250.562 237.225 250.707C237.371 250.889 237.466 251.107 237.498 251.338C237.53 251.57 237.498 251.806 237.405 252.021L237.403 252.026L234.459 257.778L234.457 257.783C234.298 258.055 234.066 258.278 233.788 258.427C233.264 258.727 232.668 258.877 232.064 258.862L232.058 258.861L229.063 258.573ZM229.102 258.221L232.08 258.508C232.617 258.52 233.148 258.385 233.614 258.118L233.617 258.117L233.619 258.115C233.839 257.998 234.022 257.823 234.149 257.608L237.082 251.876C237.147 251.721 237.17 251.552 237.147 251.386C237.124 251.219 237.055 251.06 236.948 250.928L236.945 250.925C236.855 250.808 236.748 250.705 236.626 250.621L236.625 250.62L236.571 250.582L236.561 250.573C236.487 250.503 236.403 250.444 236.312 250.398L233.562 249.257C231.087 251.874 229.504 254.933 229.102 258.221ZM244.222 242.256C241.485 243.207 239 244.465 236.86 245.966C231.801 249.512 228.649 254.427 228.646 259.876L228.642 259.936C228.639 259.98 228.635 260.043 228.629 260.126C228.618 260.29 228.602 260.528 228.583 260.821C228.545 261.407 228.494 262.215 228.443 263.101C228.342 264.873 228.24 266.964 228.239 268.228C228.239 273.679 231.392 278.597 236.452 282.144C241.513 285.691 248.495 287.88 256.199 287.88C263.903 287.88 270.885 285.691 275.946 282.143C281.007 278.595 284.159 273.678 284.159 268.226C284.159 266.625 284.327 263.635 284.448 261.703C284.526 261.103 284.566 260.495 284.566 259.881C284.566 254.429 281.414 249.512 276.354 245.965C271.293 242.417 264.311 240.229 256.607 240.229C254.767 240.229 252.969 240.354 251.228 240.592L251.227 240.583C248.913 240.898 246.634 241.434 244.423 242.183L244.22 242.252L244.222 242.256ZM244.741 242.453L245.857 244.422C245.878 244.456 245.902 244.488 245.929 244.518L246.082 244.625L246.085 244.628C246.271 244.772 246.478 244.889 246.698 244.973L246.701 244.974C246.927 245.065 247.164 245.127 247.406 245.159C247.596 245.183 247.788 245.186 247.979 245.165L256.526 243.969C256.527 243.969 256.527 243.969 256.527 243.968C256.824 243.924 257.109 243.819 257.364 243.66L257.37 243.657L257.375 243.654C257.558 243.558 257.717 243.423 257.842 243.259C257.964 243.1 258.05 242.916 258.095 242.72L258.146 240.612C257.637 240.593 257.123 240.583 256.607 240.583C252.358 240.583 248.335 241.255 244.741 242.453ZM284.071 261.842C283.596 265.123 281.943 268.169 279.404 270.763L276.651 269.656C276.544 269.602 276.446 269.533 276.359 269.451L276.353 269.445L276.347 269.44C276.181 269.31 276.042 269.15 275.937 268.968L275.935 268.965C275.86 268.84 275.815 268.7 275.806 268.555C275.797 268.412 275.822 268.268 275.879 268.136L278.807 262.399C278.933 262.185 279.118 262.011 279.34 261.898L279.344 261.895L279.348 261.893C279.808 261.625 280.334 261.49 280.866 261.502L284.071 261.842ZM279.623 271.045C281.684 268.949 283.183 266.555 283.961 263.97C283.877 265.523 283.805 267.171 283.805 268.226C283.805 272.023 282.233 275.572 279.508 278.567L279.623 271.045ZM279.263 271.402L279.148 278.952C278.149 279.995 277.008 280.966 275.743 281.853C273.588 283.363 271.076 284.626 268.304 285.574L268.372 277.716C270.983 276.864 273.376 275.736 275.476 274.387C276.875 273.486 278.146 272.487 279.263 271.402ZM267.939 277.482L266.595 274.963C266.552 274.902 266.499 274.849 266.438 274.805C266.438 274.805 266.437 274.805 266.437 274.804L266.364 274.753L266.356 274.746C266.23 274.633 266.092 274.536 265.943 274.456C265.487 274.232 264.977 274.14 264.472 274.192L255.914 275.391C255.611 275.434 255.321 275.545 255.068 275.717L255.06 275.723L255.051 275.727C254.869 275.823 254.709 275.958 254.584 276.122C254.461 276.284 254.375 276.47 254.33 276.668L254.069 279.1C254.905 279.153 255.751 279.18 256.606 279.18C260.646 279.18 264.483 278.573 267.939 277.482ZM254.058 279.454C254.897 279.507 255.747 279.534 256.606 279.534C260.669 279.534 264.531 278.925 268.016 277.829L267.948 285.694C264.384 286.868 260.402 287.525 256.199 287.525C255.577 287.526 254.96 287.511 254.349 287.483L254.058 279.454ZM253.702 279.43C248.894 279.081 244.445 277.877 240.672 276.035L241.005 284.34C244.786 286.087 249.217 287.201 253.994 287.465L253.702 279.43ZM240.644 284.171L240.31 275.856C239.082 275.236 237.927 274.547 236.859 273.798C234.81 272.362 233.074 270.701 231.733 268.871L231.756 277.202C233.051 278.92 234.706 280.487 236.655 281.854C237.876 282.71 239.212 283.486 240.644 284.171ZM231.401 276.713L231.377 268.368C230.091 266.48 229.219 264.424 228.848 262.256C228.831 262.532 228.814 262.822 228.797 263.122C228.695 264.894 228.594 266.975 228.594 268.228C228.594 271.267 229.601 274.148 231.401 276.713ZM231.822 268.388C233.161 270.291 234.937 272.019 237.062 273.508C238.112 274.244 239.246 274.921 240.453 275.531L242.525 273.636C242.627 273.531 242.706 273.407 242.758 273.27C242.811 273.132 242.834 272.984 242.826 272.837C242.818 272.69 242.78 272.545 242.713 272.413C242.647 272.282 242.554 272.165 242.44 272.071C242.44 272.071 242.439 272.071 242.439 272.071L236.828 267.536C236.468 267.32 236.067 267.182 235.651 267.131C235.234 267.08 234.811 267.117 234.41 267.24L231.822 268.388ZM272.328 244.018L270.297 245.8C270.195 245.904 270.115 246.027 270.062 246.162C270.009 246.3 269.984 246.447 269.99 246.594C269.996 246.741 270.032 246.886 270.096 247.018C270.16 247.15 270.25 247.268 270.361 247.363C270.362 247.364 270.362 247.365 270.363 247.365L275.97 251.904C276.325 252.131 276.724 252.278 277.141 252.336C277.558 252.393 277.983 252.359 278.386 252.237L281.193 251.1C279.878 249.306 278.172 247.672 276.15 246.255C274.977 245.432 273.698 244.683 272.328 244.018ZM237.869 257.877C237.754 258.456 237.694 259.047 237.694 259.648C237.694 263.195 239.775 266.425 243.178 268.776C246.581 271.127 251.291 272.586 256.502 272.586C261.714 272.586 266.424 271.126 269.827 268.776C271.931 267.322 273.529 265.533 274.444 263.54C274.808 258.627 272.661 254.979 269.126 252.549C265.575 250.109 260.618 248.896 255.398 248.896C247.758 248.897 241.645 251.742 237.869 257.877ZM238.156 256.788C242.041 251.153 248.043 248.542 255.398 248.542C260.665 248.542 265.699 249.764 269.327 252.257C272.705 254.579 274.86 258.003 274.838 262.542C275.148 261.61 275.312 260.641 275.312 259.647C275.312 256.099 273.231 252.869 269.827 250.518C266.425 248.167 261.715 246.708 256.503 246.708C251.292 246.708 246.581 248.168 243.179 250.519C240.717 252.219 238.947 254.38 238.156 256.788ZM242.977 250.227C246.446 247.831 251.229 246.354 256.503 246.354C261.777 246.354 266.56 247.83 270.029 250.227C273.497 252.622 275.666 255.95 275.666 259.647C275.666 263.343 273.497 266.671 270.028 269.067C266.559 271.464 261.777 272.94 256.502 272.941C251.228 272.941 246.446 271.464 242.977 269.068C239.509 266.672 237.34 263.344 237.34 259.648C237.34 255.951 239.509 252.623 242.977 250.227Z" fill="#3A3A3A"/>
<path d="M264.821 258.77C264.022 258.211 263.121 257.815 262.169 257.605C261.217 257.396 260.233 257.377 259.274 257.549C259.912 256.193 259.548 254.652 258.117 253.535C256.002 251.874 252.285 251.762 249.864 253.312C247.281 254.953 247.059 257.435 247.157 259.413C247.197 260.316 247.305 261.213 247.482 262.099L248.041 264.719L251.68 265.374C251.858 265.401 253.502 265.699 255.415 265.892C258.19 266.156 261.717 266.257 264.295 264.613C266.722 263.043 266.978 260.453 264.821 258.77Z" fill="#E41645"/>
</g>
<defs>
<clipPath id="clip0_521_31552">
<rect width="504" height="442" fill="white"/>
</clipPath>
</defs>
</svg>
