<svg width="188" height="76" viewBox="0 0 188 76" fill="none" xmlns="http://www.w3.org/2000/svg">
<path fill-rule="evenodd" clip-rule="evenodd" d="M139.099 28.3258H138.035L138.99 32.7136H135.331L134.471 28.7726L134.376 28.3258H132.743L131.475 32.7136H127.313L129.894 23.7467L130.469 25.3262L130.025 23.3167L129.558 21.1786H140.36L140.71 22.7581L139.099 28.3258ZM136.6 23.4595H134.15L133.399 26.0444H137.416L135.994 25.5498L136.6 23.4595ZM127.11 30.4321L126.454 32.7138H117.066L116.57 30.4321L118.502 23.7469L119.07 25.3264L118.625 23.3167L118.212 21.4229L117.626 23.4595H112.072L111.321 26.0444H115.636L114.98 28.326H110.665L109.397 32.7136H105.235L107.815 23.7467L108.391 25.3262L107.946 23.3167L107.479 21.1786H127.809L128.304 23.4443V23.4603L128.647 25.0398L127.094 30.4327H127.109L127.11 30.4321ZM122.75 23.4595L120.877 29.9373L119.171 30.4319H123.187L125.199 23.4593H122.75V23.4595ZM100.567 30.3636L99.9025 32.672H89.2392L91.8503 23.599L92.4328 25.1971L91.983 23.1631L91.5109 21H101.275L101.776 23.2922V23.3091L102.123 24.9073L100.552 30.3636H100.567V30.3636ZM96.157 23.3091L94.2617 29.8632L92.5361 30.3636H96.5921L98.6348 23.3091H96.157ZM84.8224 23.3091L84.0628 25.925H88.4284L87.764 28.2334H83.4L82.928 29.8639L81.2024 30.3643H89.2322L88.5679 32.6727H78.9964L78.5244 30.5096L80.5153 23.599L81.0905 25.1971L80.648 23.1631L80.176 21H91.0977L90.4333 23.3084H84.8213L84.8224 23.3091ZM73.4951 23.3091L72.7355 25.925H77.1013L76.4369 28.2334H72.0711L71.5991 29.8639L69.8736 30.3643H77.9052L77.2408 32.6727H67.6692L67.1971 30.5096L69.1884 23.599L69.7634 25.1986L69.3211 23.1639L68.8491 21.0008H79.7709L79.1066 23.3091H73.4946H73.4951ZM60.8773 32.672L60.4276 30.6218H60.435L59.3806 25.7306L59.646 28.1036L59.7418 28.9429L58.6652 32.672H54.4541L57.0646 23.599L57.6479 25.1986L57.198 23.1646L56.726 21.0015H62.036L63.2962 26.7794L63.9378 29.7659L63.6722 27.393L63.5985 26.7155L65.2431 21.0009H68.5396L65.1695 32.6722H60.8774L60.8773 32.672Z" fill="#07193D"/>
<path fill-rule="evenodd" clip-rule="evenodd" d="M52.8295 38.3957L53.7854 41.736L52.5474 39.1115L49.9147 46.1632H66.9487L63.2819 47.0115L62.0751 50.2185H56.8098L56.1987 48.0704L48.911 48.8939L48.5977 49.7152L48.4104 50.2185L47 54.0093H67.7636L71.0231 50.2714L71.0388 50.2185L73.9693 42.3979H56.9196L60.6026 41.5766L61.6997 38.6339H66.9649L67.5761 40.782L74.8788 39.9606L75.1763 39.1123L75.8032 37.4697L76.7748 34.8452H51.8265L52.8295 38.3957ZM78.0749 38.3957L79.0307 41.736L77.7928 39.1115L72.2454 54.0104H81.1934L83.9201 46.7201H97.5851L101.047 37.4678L100.295 34.8433H77.0719L78.0749 38.3957ZM93.9651 42.929H85.3304L86.9443 38.6343H92.2096L90.9082 42.1071L93.9651 42.929ZM102.755 38.3957L103.711 41.736L102.474 39.1115L96.9268 54.0104H105.875L113.037 34.8433H101.753L102.755 38.3957ZM114.477 38.3957L115.433 41.736L114.196 39.1115L108.65 54.0104H117.598L119.886 47.8864L119.682 46.5078L119.117 42.6117L121.358 50.6444H121.342L122.298 54.0112H131.419L138.58 34.8433H131.575L128.08 44.228L128.237 45.3415L128.801 49.2376L127.438 44.3331L124.758 34.8433H113.475L114.477 38.3957Z" fill="#07193D"/>
</svg>
