<svg width="188" height="76" viewBox="0 0 188 76" fill="none" xmlns="http://www.w3.org/2000/svg">
<g clip-path="url(#clip0_530_33073)">
<path d="M103.227 19.4414C102.96 19.4321 102.74 19.2332 102.704 18.9685L102.698 18.9295L102.846 14.019C102.847 13.9862 102.842 13.9681 102.84 13.962C102.84 13.9623 102.84 13.9622 102.839 13.9622C102.832 13.962 102.784 13.941 102.675 13.9372C102.637 13.9359 102.599 13.9369 102.562 13.9393L83.7062 15.1114L83.6757 15.1108C83.3967 15.1011 83.1769 14.8831 83.1645 14.6041C83.1522 14.325 83.3525 14.0888 83.6305 14.0543L102.488 11.3612C102.85 11.3297 103.208 11.1 103.291 10.9215L104.147 9.0941L104.176 9.05466C104.329 8.85184 104.553 8.73547 104.776 8.74328C105.072 8.75359 105.305 8.98105 105.33 9.28405C105.419 9.7781 105.612 10.8586 105.667 11.1101C105.682 11.1722 105.696 11.2372 105.88 11.2696L108.356 11.751C108.612 11.7963 108.802 12.0159 108.808 12.2838C108.814 12.5519 108.634 12.7801 108.371 12.8386L105.687 13.5961C105.514 13.6351 105.362 13.7973 105.308 13.9798L103.787 18.998C103.766 19.11 103.711 19.2118 103.627 19.2912C103.521 19.3919 103.375 19.4466 103.227 19.4414Z" fill="#FFC935"/>
<path d="M104.759 9.21818C104.811 9.21998 104.85 9.25298 104.856 9.32328C104.856 9.32328 105.13 10.8842 105.203 11.2128C105.276 11.5414 105.513 11.6872 105.797 11.7377L108.265 12.2177C108.353 12.233 108.355 12.354 108.268 12.3732L105.558 13.1371C105.229 13.2099 104.951 13.5079 104.851 13.8445L103.321 18.8948C103.32 18.9421 103.282 18.9664 103.244 18.9651C103.212 18.9639 103.181 18.944 103.176 18.9038L103.322 14.0326C103.33 13.5977 103.016 13.4719 102.692 13.4606C102.638 13.4587 102.583 13.46 102.53 13.4636L83.6996 14.6341C83.6971 14.6343 83.6947 14.6343 83.6923 14.6343C83.6269 14.632 83.62 14.5343 83.6894 14.5257L102.555 11.8315C103.011 11.7929 103.546 11.4986 103.722 11.1224C103.899 10.7462 104.557 9.33987 104.557 9.33987C104.616 9.26025 104.697 9.216 104.759 9.21818ZM104.793 8.26673C104.414 8.2535 104.041 8.44097 103.795 8.76818L103.736 8.84705L103.694 8.93636L102.868 10.7023C102.813 10.7671 102.627 10.87 102.475 10.8829L102.448 10.8852L102.42 10.8891L83.5548 13.5832C83.0453 13.6463 82.6658 14.0948 82.6892 14.6243C82.7126 15.1539 83.1296 15.5672 83.6591 15.5857L83.7087 15.5874L83.7654 15.5839L102.358 14.4282L102.224 18.8752L102.222 18.9543L102.233 19.0327C102.3 19.5274 102.712 19.8991 103.211 19.9165C103.486 19.9261 103.758 19.8233 103.957 19.6344C104.107 19.4913 104.208 19.3103 104.25 19.1114L105.762 14.1206C105.77 14.0947 105.786 14.0715 105.798 14.0586L105.816 14.0534L108.515 13.2928C108.974 13.1714 109.295 12.7487 109.284 12.2721C109.273 11.7821 108.914 11.3648 108.43 11.28L106.096 10.8259C106.023 10.4522 105.888 9.69549 105.798 9.18331C105.727 8.66657 105.313 8.2849 104.793 8.26673Z" fill="black"/>
<path d="M55.7439 37.4779C54.8491 37.4467 54.0319 37.3046 53.3147 37.0558C52.4183 36.745 51.6319 36.2012 50.9776 35.439C50.8162 35.2594 50.5515 34.8388 50.7133 34.1758C50.7956 33.8356 50.9299 33.5214 51.1122 33.2431C51.4787 32.6771 51.8319 32.154 52.1597 31.6915C52.5122 31.194 52.8349 30.8113 53.1462 30.5212C53.42 30.2652 53.7251 30.0272 54.0931 30.0235L54.0966 30.0237C54.1505 30.0255 54.2033 30.0311 54.2556 30.0401C54.2311 30.0219 54.2066 30.0031 54.1824 29.9843C53.9612 29.8043 53.7684 29.6313 53.5942 29.4589C53.4085 29.2754 53.2314 29.0732 53.0679 28.8584C52.6784 28.3178 52.4512 27.7384 52.3809 27.1208C52.3131 26.5368 52.36 25.9407 52.5202 25.3504C52.6746 24.7781 52.9247 24.2222 53.263 23.6988C53.5927 23.1882 53.9893 22.7207 54.4414 22.3094C54.9088 21.8971 55.418 21.5684 55.9626 21.3251C56.4873 21.0896 57.0405 20.9136 57.606 20.8024C58.1563 20.6951 58.7211 20.6309 59.2858 20.6111C59.6253 20.599 59.964 20.5987 60.2924 20.6102C60.5071 20.6177 60.7194 20.6302 60.93 20.6478C61.458 20.6911 61.9655 20.7521 62.437 20.8286C62.9 20.9033 63.3257 20.9752 63.7143 21.0427L63.7811 21.0541L63.8442 21.0782C64.1025 21.1756 64.3005 21.3451 64.4171 21.5619C64.4228 21.5312 64.4288 21.5019 64.4344 21.4735C64.5163 21.0726 64.6855 20.7564 64.9378 20.5317C65.1784 20.3149 65.5107 20.1756 65.9229 20.1207C66.1932 20.0841 66.5931 20.036 67.1215 19.9753C67.7826 19.9061 68.4328 19.8404 69.0804 19.7784C69.7433 19.7145 70.4135 19.6779 71.0715 19.6693C71.4259 19.6435 71.8233 19.6318 72.213 19.6359L72.381 19.6397C72.7371 19.6521 73.0901 19.6928 73.4301 19.7607C74.3472 19.9439 75.0633 20.3624 75.5584 21.0042C76.0341 21.6222 76.3018 22.3942 76.3551 23.2991C76.3909 23.9439 76.3747 24.5936 76.3071 25.2322C76.24 25.8604 76.131 26.5059 75.9826 27.151C75.7899 27.9757 75.4692 28.7285 75.0286 29.3904C74.5897 30.0488 74.0556 30.6188 73.4405 31.0852C72.8284 31.5497 72.1432 31.9163 71.4042 32.1747C70.8537 32.3668 70.2853 32.4931 69.7074 32.5513L69.6984 32.6086C69.6238 33.013 69.5632 33.3905 69.511 33.7607C69.4571 34.1505 69.391 34.5536 69.3155 34.9693C69.1977 35.4927 69.0159 35.8422 68.7541 36.0684C68.4963 36.2901 68.1359 36.422 67.6513 36.472L66.6097 36.544C66.3024 36.5651 65.9964 36.5891 65.6939 36.6158L64.7537 36.6985C64.4302 36.7265 64.0841 36.7535 63.7136 36.7789C63.6472 36.7834 63.5851 36.7842 63.527 36.7822C63.2524 36.7726 63.0193 36.694 62.8337 36.5484C62.6519 36.4084 62.4312 36.1274 62.4423 35.6082C62.4551 35.3507 62.4742 35.1091 62.4997 34.8644C62.5252 34.6215 62.5559 34.3809 62.5928 34.1427C62.7093 33.3188 63.8559 25.3186 63.8559 25.3186C63.9575 24.6068 64.0562 23.9327 64.1524 23.2963C64.1234 23.3534 64.0971 23.4071 64.0735 23.4575C63.8798 23.8819 63.686 24.2966 63.4944 24.6966C63.305 25.0921 63.1154 25.4907 62.9256 25.8917C62.728 26.2967 62.5309 26.5326 62.2835 26.664C62.107 26.7571 61.8987 26.7996 61.6625 26.7914C61.5622 26.7879 61.4486 26.7751 61.3216 26.7506C60.9881 26.6776 60.6732 26.6171 60.3557 26.5653C60.0386 26.5135 59.7199 26.4703 59.4004 26.4354C59.3941 26.4347 59.3644 26.4341 59.3543 26.4354L59.3999 26.4484L59.4743 26.4903C59.7286 26.6343 60.0028 26.7672 60.2894 26.8851C60.6477 27.0334 60.987 27.2127 61.2997 27.4183C61.6864 27.6911 61.9906 27.9848 62.2229 28.3048C62.4506 28.619 62.6303 28.9618 62.7576 29.3244C62.9891 30.0016 63.042 30.7498 62.9175 31.5534C62.7996 32.3168 62.5535 33.0633 62.186 33.7722C61.8197 34.4785 61.3437 35.1268 60.7714 35.6994C60.1754 36.297 59.4982 36.7357 58.7595 37.0032C57.9485 37.3033 57.1118 37.4654 56.277 37.4837C56.0906 37.4858 55.9153 37.4839 55.7439 37.4779ZM55.9719 31.1543C56.0248 31.1922 56.0791 31.2288 56.1341 31.2633C55.9904 31.1501 55.8379 31.0415 55.6792 30.9392C55.7782 31.0136 55.8755 31.0849 55.9719 31.1543ZM70.4443 26.2143L70.4209 26.3658C70.4317 26.3169 70.4395 26.2664 70.4443 26.2143ZM76.361 35.8568C75.8915 35.8404 75.5546 35.704 75.3315 35.4401C75.0018 35.0514 75.0254 34.4817 75.0829 34.0288C75.3793 31.9672 75.6897 29.9451 76.0074 28.0065C76.3236 26.0782 76.6006 24.121 76.8308 22.1889C76.8553 21.9551 76.8831 21.7177 76.9133 21.4864C76.9432 21.2544 76.9769 21.0163 77.015 20.7715C77.1114 20.2674 77.281 19.9278 77.538 19.7083C77.7882 19.4954 78.1365 19.3769 78.604 19.3448C79.3444 19.294 80.0474 19.2425 80.712 19.191C81.3809 19.139 82.082 19.0881 82.8147 19.0379C82.9322 19.0297 83.0376 19.0278 83.1312 19.031C83.2764 19.0361 83.7187 19.0516 84.0141 19.3768C84.3327 19.7358 84.2974 20.2411 84.2436 20.5904C83.8827 22.7673 83.5571 24.9246 83.2745 27.0109C82.9927 29.0922 82.6714 31.2215 82.3197 33.3401C82.2945 33.5022 82.2612 33.6764 82.2217 33.8536C82.179 34.0387 82.133 34.2099 82.0825 34.3709L82.065 34.4201C81.9209 34.7844 81.721 35.0651 81.4709 35.255C81.211 35.4508 80.8906 35.5624 80.5164 35.5882L76.7148 35.8494C76.5854 35.8581 76.4674 35.8605 76.361 35.8568ZM83.687 35.3435C83.3818 35.3191 83.123 35.2189 82.9243 35.0457C82.7751 34.9168 82.5842 34.6752 82.5338 34.2683C82.5074 34.0585 82.5174 33.8051 82.5649 33.4961C82.6831 32.5832 82.804 31.672 82.9255 30.7778C83.046 29.8841 83.1695 28.99 83.2966 28.0953C83.4685 26.8368 83.6427 25.5823 83.8183 24.3372C83.9933 23.0947 84.168 21.8367 84.3413 20.5639C84.3593 20.4466 84.3804 20.3296 84.4067 20.2026C84.4367 20.0614 84.4766 19.9134 84.5296 19.7536C84.7091 19.1489 85.2091 18.7759 85.861 18.7768C86.4728 18.7452 87.1155 18.7153 87.7516 18.6898C88.3751 18.6639 89.0088 18.6174 89.6344 18.5516C89.7571 18.5426 89.8483 18.5412 89.9333 18.5441C90.2673 18.5558 90.5509 18.6403 90.7764 18.7952C91.0562 18.9885 91.2624 19.285 91.3908 19.6776L91.4055 19.7286C91.6196 20.5966 91.8515 21.4678 92.0955 22.3208C92.1119 22.1637 92.1288 22.0063 92.1464 21.8486C92.2173 21.2026 92.2806 20.5495 92.3366 19.8911L92.3431 19.8377C92.3515 19.7858 92.3568 19.7344 92.3609 19.6824C92.3719 19.5284 92.4141 19.3701 92.4867 19.2168C92.558 19.0319 92.6835 18.8299 92.8411 18.6592C92.9958 18.4908 93.2766 18.2827 93.7304 18.252L95.7562 18.0772C96.4453 18.018 97.1286 17.9651 97.8047 17.9187C97.889 17.9128 97.9672 17.9114 98.0393 17.9139C98.5382 17.9313 98.8079 18.1459 98.9464 18.3226C99.2277 18.6861 99.1941 19.1554 99.1447 19.477C99.0348 20.1874 98.9167 20.8912 98.7905 21.5892C98.6665 22.2756 98.5501 22.9734 98.4402 23.6824L98.4305 23.7328C98.3673 24.0099 98.3248 24.2812 98.3056 24.5389C98.2804 24.8613 98.2426 25.1858 98.1928 25.5048C97.8749 27.628 97.5399 29.7895 97.1979 31.9244C97.1581 32.1833 97.1005 32.4499 97.0271 32.7124C96.9633 32.9407 96.9018 33.1713 96.8434 33.4051L96.8296 33.453C96.7191 33.7927 96.5639 34.0417 96.3546 34.2148C96.1567 34.3798 95.8863 34.4908 95.5293 34.5523C95.3115 34.594 95.0836 34.6203 94.8638 34.6282C94.684 34.6351 94.5037 34.6444 94.3223 34.6569L91.1394 34.8756C90.947 34.8889 90.7922 34.8925 90.678 34.8885C90.3977 34.875 90.1851 34.8018 90.0114 34.6692C89.8495 34.5491 89.7221 34.3758 89.6405 34.1599C89.6053 34.0706 89.5597 33.9366 89.5064 33.7664L89.4922 33.7138C89.4083 33.3499 89.3258 32.9886 89.2447 32.6295C89.189 32.979 89.1317 33.327 89.0728 33.674C89.0252 33.9791 88.9188 34.4285 88.561 34.6983C88.3395 34.8657 88.0321 34.9659 87.5941 35.0127C87.0683 35.0725 86.5395 35.1238 86.0122 35.1661C85.4998 35.207 84.9752 35.2576 84.4365 35.3181C84.192 35.3463 83.9868 35.357 83.8109 35.3509C83.7675 35.3493 83.7262 35.347 83.687 35.3435Z" fill="#D86363"/>
<path d="M98.0149 18.6272C98.1964 18.6336 98.3194 18.6787 98.385 18.7625C98.4674 18.8688 98.4861 19.0707 98.4401 19.3683C98.3311 20.0718 98.2138 20.7696 98.0887 21.462C97.9637 22.1543 97.8462 22.8581 97.7355 23.5732C97.6642 23.8843 97.617 24.1887 97.5945 24.4846C97.5716 24.7809 97.5366 25.0841 97.4883 25.394C97.1693 27.5261 96.8378 29.6653 96.494 31.8111C96.4572 32.0494 96.4057 32.286 96.3404 32.5201C96.2746 32.7547 96.2119 32.9915 96.1515 33.2318C96.0848 33.4366 96.0012 33.5811 95.9004 33.6646C95.8007 33.7477 95.6359 33.8092 95.4086 33.8485C95.2161 33.8853 95.0262 33.9076 94.8388 33.9145C94.6505 33.9215 94.4629 33.9312 94.2744 33.9441L91.0914 34.1628C90.9297 34.1742 90.7999 34.1779 90.7042 34.1746C90.6956 34.1743 90.6872 34.1739 90.6792 34.1735C90.5801 34.1688 90.5023 34.1447 90.4453 34.1013C90.3878 34.0585 90.342 33.9937 90.3093 33.9073C90.2757 33.8214 90.2358 33.7031 90.189 33.5531C90.0283 32.8566 89.8728 32.1691 89.7219 31.4893C89.5701 30.8104 89.4202 30.1223 89.2719 29.4246C89.2594 29.3549 89.2351 29.2857 89.1986 29.2176C89.163 29.1497 89.1226 29.07 89.0788 28.9784C88.9588 29.7528 88.8422 30.5215 88.7297 31.2834C88.6175 32.046 88.4971 32.803 88.3698 33.5544C88.3233 33.8523 88.244 34.0434 88.1319 34.1279C88.0198 34.2127 87.8152 34.2708 87.519 34.3026C86.9962 34.362 86.4754 34.4123 85.956 34.4541C85.4362 34.4956 84.9041 34.5468 84.3578 34.6081C84.1519 34.632 83.9779 34.642 83.8361 34.6371C83.8063 34.636 83.7779 34.6343 83.751 34.6319C83.5948 34.6196 83.4758 34.5781 83.3943 34.507C83.3118 34.4358 83.2615 34.3272 83.2433 34.1805C83.2251 34.035 83.2348 33.8427 83.2715 33.6044C83.3919 32.6763 83.5127 31.7663 83.6339 30.8736C83.7541 29.9809 83.8777 29.0884 84.0045 28.1953C84.1766 26.9342 84.3507 25.6808 84.5261 24.4366C84.7015 23.193 84.8762 21.934 85.0497 20.66C85.0643 20.5652 85.0832 20.4607 85.1068 20.3468C85.1309 20.2332 85.1644 20.1104 85.2083 19.9777C85.305 19.6525 85.5224 19.4901 85.8609 19.4905C86.507 19.4581 87.1476 19.4284 87.7812 19.4028C88.4148 19.3767 89.0578 19.3299 89.7101 19.2615C89.7809 19.2566 89.8475 19.2553 89.9098 19.2574C90.1066 19.2643 90.2609 19.3063 90.3729 19.3833C90.5208 19.4855 90.6339 19.6575 90.7132 19.8995C90.9422 20.8274 91.186 21.7392 91.4437 22.635C91.7009 23.5307 91.9526 24.4303 92.1978 25.3333C92.2145 25.4499 92.2452 25.5508 92.2906 25.6361C92.3355 25.7215 92.4041 25.8082 92.4946 25.8964C92.5133 25.5531 92.5399 25.2151 92.5733 24.8828C92.6077 24.5508 92.639 24.2119 92.669 23.8682C92.722 23.2277 92.7841 22.581 92.8568 21.9273C92.9284 21.2746 92.9924 20.6154 93.0489 19.9513C93.0605 19.8796 93.0682 19.8087 93.0736 19.7372C93.0786 19.6665 93.0986 19.5945 93.1332 19.5211C93.1907 19.3757 93.2685 19.2495 93.3667 19.1431C93.4653 19.0357 93.6023 18.9761 93.7794 18.9641C94.4535 18.9059 95.1328 18.8472 95.8182 18.7885C96.5032 18.7294 97.1827 18.677 97.8546 18.6306C97.9123 18.6266 97.9658 18.6255 98.0149 18.6272ZM83.1069 19.7443C83.2982 19.751 83.4247 19.7884 83.4867 19.8566C83.5708 19.9516 83.5883 20.1595 83.5387 20.4814C83.1768 22.6636 82.8532 24.8076 82.5678 26.9147C82.2824 29.0213 81.9648 31.1239 81.6162 33.2229C81.5923 33.3774 81.5619 33.5361 81.5256 33.6977C81.4883 33.8591 81.4473 34.0125 81.4021 34.1569C81.3059 34.3999 81.1852 34.5759 81.04 34.6861C80.8943 34.796 80.704 34.8592 80.4685 34.8753L76.6668 35.1367C76.5643 35.1438 76.471 35.1458 76.3869 35.1429C76.1326 35.134 75.9628 35.0794 75.8778 34.9789C75.7643 34.8452 75.7361 34.5587 75.7921 34.1185C76.0865 32.0702 76.3934 30.0714 76.713 28.1219C77.0327 26.172 77.3084 24.2231 77.5407 22.2732C77.5657 22.0353 77.5928 21.8038 77.6221 21.5778C77.6514 21.3519 77.6842 21.1198 77.7215 20.8812C77.781 20.5706 77.8746 20.3606 78.0024 20.2513C78.1298 20.1429 78.3468 20.078 78.6535 20.0569C79.3965 20.0058 80.1012 19.9543 80.7681 19.9027C81.4349 19.8508 82.134 19.8 82.8647 19.7497C82.9545 19.7436 83.0353 19.7418 83.1069 19.7443ZM72.3573 20.3531C72.6765 20.3642 72.9874 20.4001 73.2908 20.4607C74.0377 20.6099 74.6054 20.9363 74.9937 21.4399C75.3816 21.9438 75.5982 22.5776 75.6431 23.3408C75.6771 23.9512 75.6615 24.5569 75.598 25.1567C75.534 25.7563 75.4308 26.3681 75.2876 26.9906C75.114 27.7336 74.8298 28.4015 74.435 28.9946C74.0397 29.5877 73.565 30.0949 73.0098 30.516C72.4546 30.9374 71.8409 31.2656 71.1695 31.5003C70.4972 31.7351 69.8041 31.8597 69.0909 31.8734L68.9937 32.4987C68.9208 32.8931 68.8585 33.2805 68.8048 33.6612C68.752 34.0426 68.6876 34.4359 68.6139 34.8414C68.5381 35.1769 68.4299 35.4054 68.2884 35.5275C68.1476 35.6487 67.9103 35.7273 67.5788 35.7615C67.2127 35.7866 66.8745 35.8098 66.5616 35.8313C66.2497 35.8527 65.9393 35.8773 65.6325 35.9042C65.3251 35.9315 65.0116 35.959 64.6924 35.9868C64.3733 36.0147 64.0314 36.041 63.6658 36.0662C63.6256 36.0689 63.5878 36.0697 63.5525 36.0684C63.4323 36.0642 63.3398 36.037 63.2756 35.9867C63.1919 35.9219 63.1532 35.8008 63.1571 35.6235C63.1685 35.3991 63.1864 35.1703 63.2107 34.9389C63.2351 34.707 63.2642 34.4783 63.2992 34.2516C63.4172 33.419 63.5471 32.5017 63.6908 31.5017C63.8344 30.5017 63.9797 29.4864 64.1281 28.4561C64.2755 27.4263 64.4205 26.4141 64.5635 25.4199C64.7056 24.4255 64.8419 23.5059 64.973 22.6593C65.0321 22.2077 65.086 21.8591 65.1352 21.6136C65.1852 21.3691 65.2782 21.1852 65.4134 21.0646C65.5488 20.9428 65.75 20.864 66.0181 20.8282C66.2863 20.792 66.6815 20.7444 67.2038 20.6844C67.8556 20.6164 68.5038 20.5508 69.1494 20.4888C69.7949 20.4267 70.4384 20.3914 71.0819 20.3828C71.4588 20.3568 71.8332 20.3457 72.2064 20.3497C72.2569 20.3502 72.3072 20.3513 72.3573 20.3531ZM69.8129 27.6555C70.0309 27.6631 70.2211 27.6245 70.3837 27.5397C70.6182 27.4182 70.7995 27.2432 70.9281 27.016C71.0566 26.7891 71.1327 26.5419 71.1566 26.2756C71.181 26.0087 71.147 25.7721 71.0563 25.5663C70.9656 25.36 70.8229 25.2107 70.6277 25.1181C70.5523 25.0825 70.4692 25.0632 70.3785 25.06C70.2335 25.0549 70.069 25.0913 69.8847 25.1692L69.505 27.6178C69.6131 27.6396 69.7158 27.6521 69.8129 27.6555ZM60.2689 21.3234C60.4719 21.3305 60.6728 21.3423 60.8717 21.3589C61.3787 21.4006 61.8625 21.4583 62.3233 21.5331C62.7843 21.6074 63.2071 21.6788 63.5931 21.7459C63.7256 21.7959 63.8005 21.8765 63.8183 21.9874C63.8362 22.0979 63.8254 22.2227 63.7865 22.3609C63.748 22.4993 63.6912 22.6385 63.6169 22.7794C63.5427 22.92 63.479 23.0449 63.4278 23.1546C63.233 23.5811 63.041 23.9917 62.8514 24.3879C62.6613 24.7843 62.4714 25.1838 62.2812 25.5858C62.162 25.8297 62.0513 25.979 61.9495 26.0331C61.8861 26.0665 61.7989 26.0814 61.6878 26.0775C61.6199 26.0752 61.543 26.0658 61.4572 26.0493C61.1298 25.9771 60.8018 25.9143 60.4715 25.8605C60.1421 25.8065 59.8108 25.7615 59.4785 25.7253C59.4539 25.7219 59.429 25.7198 59.4039 25.7189C59.3116 25.7157 59.2153 25.7292 59.1143 25.759C58.9858 25.7973 58.8697 25.8499 58.7666 25.9158C58.5203 26.0737 58.3838 26.24 58.3571 26.4124C58.3303 26.5853 58.4116 26.7357 58.6019 26.8647C58.7482 26.9721 58.9221 27.0541 59.1235 27.1114C59.4018 27.2692 59.6998 27.4139 60.0184 27.5452C60.3361 27.6767 60.6319 27.8328 60.9081 28.0147C61.212 28.2293 61.4588 28.4661 61.6462 28.7241C61.8332 28.9823 61.9799 29.2618 62.0848 29.5606C62.2776 30.1252 62.32 30.7527 62.2129 31.4439C62.1062 32.135 61.8857 32.8017 61.5529 33.4432C61.2201 34.0852 60.7922 34.6693 60.2673 35.1945C59.7428 35.7202 59.159 36.0994 58.5174 36.3315C57.7743 36.6063 57.0228 36.753 56.262 36.7696C56.0947 36.7715 55.9306 36.7696 55.7699 36.764C54.9429 36.7351 54.2031 36.6075 53.5497 36.3808C52.7697 36.1106 52.0933 35.6412 51.5203 34.9736C51.3806 34.8181 51.3436 34.6083 51.4079 34.3446C51.4718 34.0808 51.5729 33.844 51.7103 33.6341C52.0781 33.0663 52.4227 32.5563 52.7432 32.1039C53.0638 31.6514 53.3604 31.298 53.6337 31.0433C53.8514 30.84 54.0069 30.7381 54.101 30.7372C54.103 30.7372 54.1051 30.7372 54.1071 30.7373C54.2004 30.7406 54.344 30.8154 54.5379 30.9637C54.736 31.1153 54.9155 31.2532 55.0777 31.3775C55.2386 31.5021 55.3982 31.6203 55.5556 31.7335C55.7135 31.8466 55.8783 31.9476 56.0511 32.0354C56.2243 32.124 56.4227 32.1959 56.6477 32.2508C56.7333 32.2752 56.8132 32.2886 56.8873 32.2912C56.9872 32.2947 57.0768 32.2785 57.1564 32.2429C57.2942 32.1801 57.3746 32.0773 57.3967 31.9343C57.4189 31.7913 57.3696 31.6176 57.2496 31.4137C57.1297 31.2096 56.9247 30.9885 56.6352 30.7486C56.3244 30.4987 55.9918 30.277 55.6364 30.0835C55.2816 29.8893 54.9429 29.6684 54.6198 29.419C54.4335 29.267 54.2592 29.1112 54.0975 28.9512C53.9358 28.7914 53.7819 28.6164 53.6367 28.4256C53.3297 27.9991 53.1477 27.5371 53.0911 27.0397C53.0336 26.5427 53.0732 26.0418 53.2101 25.5369C53.3465 25.0325 53.5643 24.5491 53.8635 24.0863C54.1622 23.6239 54.5158 23.2075 54.9228 22.8373C55.3284 22.4797 55.7717 22.1925 56.2549 21.9765C56.7367 21.7604 57.2332 21.6032 57.7445 21.5028C58.2557 21.4033 58.778 21.3431 59.3118 21.3241C59.6359 21.3128 59.9549 21.3125 60.2689 21.3234ZM98.0647 17.2C97.9667 17.1966 97.8631 17.1986 97.7567 17.2059C97.0612 17.254 96.3679 17.3077 95.6956 17.3657L94.15 17.4988L93.6665 17.5405C93.1281 17.5807 92.6612 17.8004 92.3154 18.1765C92.1167 18.3921 91.9551 18.6432 91.8354 18.9228C91.6663 18.6299 91.4486 18.3908 91.1847 18.2084C90.8431 17.9734 90.4317 17.8467 89.9596 17.8303C89.8485 17.8264 89.7315 17.8286 89.6121 17.8368L89.5865 17.8386L89.5611 17.8412C88.9463 17.9057 88.3277 17.9511 87.7225 17.9759C87.0947 18.0013 86.459 18.0308 85.818 18.0628C85.2213 18.0731 84.7012 18.3035 84.3293 18.7008C84.0164 18.4599 83.6255 18.3335 83.1567 18.3171C83.0349 18.3129 82.9077 18.3154 82.7676 18.325C82.0314 18.3757 81.3282 18.4267 80.6572 18.4789C79.9948 18.5303 79.2943 18.5815 78.5556 18.6323C77.9305 18.6751 77.4467 18.849 77.0768 19.1639C76.6898 19.4947 76.4426 19.9678 76.319 20.6122L76.3143 20.6365L76.3105 20.6609C76.3034 20.7066 76.2964 20.7521 76.2895 20.7974C76.2374 20.7194 76.1826 20.6432 76.1253 20.5688C75.5214 19.7857 74.6622 19.2784 73.5707 19.0603C73.1927 18.9849 72.8014 18.9397 72.4071 18.9259C72.3454 18.9237 72.2834 18.9223 72.2212 18.9217C71.8264 18.9175 71.4235 18.9288 71.0235 18.9554C70.3562 18.9654 69.6799 19.0031 69.0124 19.0674C68.3635 19.1296 67.7113 19.1956 67.0555 19.2641C66.5062 19.3271 66.1016 19.3759 65.827 19.413C65.2722 19.487 64.8109 19.6857 64.4582 20.0031C64.3235 20.1232 64.2053 20.2599 64.104 20.4124C64.1017 20.4115 64.0995 20.4106 64.0972 20.4098L63.9708 20.3621L63.8377 20.3389C63.4465 20.2709 63.0179 20.1986 62.5507 20.1233C62.0614 20.0438 61.5354 19.9806 60.9888 19.9356C60.7697 19.9174 60.5438 19.9041 60.3187 19.8963C59.9741 19.8842 59.6184 19.8845 59.2617 19.897C58.6595 19.9184 58.0574 19.987 57.4716 20.101C56.8514 20.2228 56.2462 20.4153 55.6705 20.6735C55.0616 20.9457 54.4916 21.3136 53.9783 21.7662C53.4645 22.2333 53.0278 22.7483 52.6639 23.3114C52.286 23.896 52.0058 24.5195 51.8315 25.1642C51.6479 25.8415 51.5943 26.5282 51.6725 27.204C51.7564 27.9416 52.0274 28.6343 52.4776 29.2598L52.4889 29.2754L52.5005 29.2907C52.6302 29.461 52.7679 29.6246 52.9116 29.7792C52.8224 29.8506 52.7384 29.9254 52.6588 29.9997C52.3124 30.3226 51.9584 30.7413 51.5779 31.2785C51.2438 31.7498 50.8851 32.2812 50.5117 32.8577C50.2886 33.1985 50.1218 33.5877 50.0199 34.0087C49.8448 34.7271 49.9955 35.4035 50.4449 35.9133C51.1808 36.7676 52.068 37.3788 53.0822 37.7302C53.8664 38.0023 54.7541 38.1574 55.72 38.1911C55.9021 38.1975 56.0881 38.1997 56.2777 38.1976C57.2072 38.1773 58.1222 38.0002 59.0127 37.6708C59.8413 37.3711 60.6067 36.8762 61.2782 36.2031C61.4354 36.0458 61.586 35.8831 61.7298 35.7154C61.7524 36.4956 62.155 36.9251 62.4014 37.1159C62.6055 37.2759 62.969 37.4769 63.5026 37.4956C63.5839 37.4984 63.6707 37.4972 63.763 37.4909C64.1386 37.4651 64.4892 37.438 64.8166 37.4095L65.7586 37.3266C66.055 37.3007 66.3564 37.2768 66.6593 37.256L67.6763 37.1862L67.7009 37.1845L67.7254 37.182C68.3597 37.1165 68.8484 36.9294 69.2197 36.6101C69.6034 36.279 69.8603 35.804 70.0068 35.1564L70.0135 35.1267L70.0189 35.0967C70.1002 34.6496 70.1657 34.2441 70.2193 33.8571C70.2509 33.6336 70.2854 33.4096 70.3224 33.1882C70.7694 33.1123 71.2099 32.9988 71.6404 32.8485C72.4504 32.5653 73.2015 32.1633 73.8731 31.6536C74.2219 31.389 74.547 31.0945 74.8461 30.7725C74.6869 31.8074 74.5306 32.8576 74.3786 33.9153C74.3053 34.4901 74.2719 35.2939 74.7892 35.9031C75.1432 36.3216 75.6645 36.5466 76.3371 36.5701C76.4698 36.5747 76.6137 36.5718 76.7648 36.5614L80.5664 36.3C81.0811 36.2647 81.5299 36.1053 81.8999 35.8262C82.0479 35.7139 82.1822 35.5826 82.3025 35.4329C82.3563 35.4924 82.4101 35.5439 82.4611 35.588C82.7729 35.8597 83.1707 36.0185 83.6384 36.0556C83.6767 36.059 83.7301 36.0623 83.7862 36.0642C83.9996 36.0717 84.2405 36.0594 84.5226 36.0266C85.0421 35.9683 85.5645 35.918 86.0697 35.8776C86.6091 35.8342 87.1506 35.7817 87.6803 35.7215C88.2435 35.6611 88.6636 35.5163 88.9934 35.2668C89.1127 35.1769 89.2136 35.0764 89.2992 34.9708C89.3866 35.074 89.4853 35.1671 89.5936 35.2475C89.8675 35.4562 90.2239 35.5815 90.6111 35.6L90.6543 35.6018C90.8032 35.607 90.9788 35.6023 91.1912 35.5874L94.3723 35.3688C94.5456 35.357 94.7187 35.348 94.8923 35.3415C95.1442 35.3322 95.4042 35.3026 95.6645 35.2535C96.1422 35.1692 96.5185 35.0083 96.8145 34.7618C97.1271 34.5029 97.3554 34.1463 97.5093 33.6744L97.5246 33.6275L97.5366 33.5796C97.5937 33.3521 97.6531 33.1279 97.7154 32.9058C97.7968 32.6139 97.8605 32.3196 97.9053 32.0289C98.2472 29.8956 98.5825 27.7316 98.9007 25.6053C98.9521 25.2754 98.9921 24.9325 99.0183 24.595C99.0354 24.3695 99.0721 24.1339 99.1275 23.8923L99.1389 23.8423L99.1468 23.7916C99.2571 23.0793 99.3739 22.381 99.494 21.7159C99.6219 21.0083 99.7421 20.292 99.8513 19.5869C99.8916 19.3259 100.014 18.5331 99.5134 17.8874C99.2783 17.5865 98.8393 17.2271 98.0647 17.2ZM62.385 27.3972C62.4644 27.3691 62.5411 27.3355 62.6151 27.2966C62.7099 27.2461 62.7967 27.1885 62.8762 27.1259L62.7729 27.8459C62.6567 27.6901 62.5272 27.5404 62.385 27.3972Z" fill="#11162C"/>
<path d="M49.9425 54.5524C49.3151 54.5305 48.9922 54.2006 48.8557 54.0061C48.4846 53.4772 48.6412 52.8348 48.731 52.5425C48.9116 51.3004 49.1133 50.039 49.3179 48.7614C49.5934 47.0402 49.8783 45.2608 50.1173 43.4797L50.1279 43.4159C50.2747 42.6963 50.39 41.9045 50.5016 41.139C50.5695 40.6735 50.6371 40.2107 50.7111 39.7616C50.7122 39.3505 50.8781 38.5692 52.0893 38.4246C52.1229 38.4206 52.1567 38.4176 52.1885 38.4127L52.5362 38.2281L52.8939 38.3815C53.0418 38.382 53.2717 38.3449 53.4756 38.3125C53.789 38.262 54.1129 38.2101 54.4219 38.2209C55.0495 38.2428 55.3832 38.5303 55.5526 38.7678C55.7151 38.9958 55.8719 39.3818 55.7276 39.9494C55.6472 40.688 55.5313 41.3886 55.419 42.0666C55.3495 42.4875 55.2802 42.9051 55.2206 43.3272C55.0997 44.1663 54.9631 45.0253 54.826 45.8889C54.646 47.0218 54.4597 48.193 54.3119 49.3084L54.304 49.3676C54.304 49.3676 54.2465 49.5898 54.2297 49.659C54.443 49.6367 54.6853 49.6131 54.9569 49.5988L55.384 49.5761C55.4697 49.2544 55.5549 48.9327 55.6401 48.6115C56.1327 46.7523 56.6419 44.8299 57.2189 42.9123L57.2315 42.8704L57.2479 42.8296C57.3288 42.6296 57.4396 42.0995 57.5376 41.6317C57.931 39.7505 58.338 37.8055 59.8302 37.8576L59.8765 37.8592C60.911 37.8381 61.696 37.7753 62.2718 37.7291C62.7602 37.6901 63.1131 37.6618 63.4125 37.6722C63.7451 37.6838 64.2288 37.7461 64.5872 38.1516C65.0295 38.6522 64.9739 39.2792 64.8899 40.2275C64.8292 40.911 64.7472 41.8365 64.7571 43.163C64.9169 42.1573 65.0753 41.1368 65.2098 40.1502C65.2972 37.5804 66.4647 37.3532 67.9807 37.325C68.2662 37.3196 68.59 37.3135 68.94 37.2808L69.7445 37.2054L69.9495 37.987C70.0005 38.1807 70.0462 38.3767 70.0881 38.5754C70.1009 38.5023 70.1141 38.4288 70.1281 38.3558C70.127 38.0397 70.2325 37.7494 70.4337 37.5234C70.8508 37.0549 71.4494 37.0679 71.8454 37.0767C71.877 37.0773 71.9084 37.0786 71.9388 37.0794L72.0493 36.9852L72.4191 36.9985C72.5694 37.0038 72.7136 36.9956 72.8467 36.9888C73.0114 36.9806 73.1642 36.9743 73.2984 36.979C73.5893 36.9892 73.8385 37.0525 74.044 37.1681C74.3312 36.9211 74.7443 36.7595 75.3411 36.7803C75.3678 36.7813 75.3949 36.7827 75.4228 36.7843C76.8221 36.6334 77.8683 36.5769 78.7101 36.6063C79.6943 36.6407 80.9034 36.7887 81.694 37.6048C81.8824 36.6987 82.3987 36.3467 83.5545 36.2101L83.6486 36.199L83.7432 36.2065C83.8089 36.2118 83.8745 36.2155 83.9403 36.2178C84.3728 36.2329 84.8246 36.1889 85.303 36.1421C85.773 36.0964 86.2584 36.049 86.7727 36.0523L86.9555 36.0263C87.2314 35.9862 87.4696 35.9517 87.7095 35.9601C88.1032 35.9738 88.3758 36.1085 88.5602 36.2619C88.6893 36.1201 88.8388 36.0035 89.0123 35.9167L89.2653 35.7902L89.5465 35.8226C89.6542 35.835 89.7635 35.8425 89.8738 35.8463C90.3798 35.864 90.9332 35.8059 91.5191 35.7443C92.1599 35.6769 92.8224 35.6072 93.4918 35.6306C94.1889 35.6549 94.7916 35.7785 95.3338 36.0086L95.3962 36.0352L95.4545 36.0703C97.2529 37.158 97.1146 41.49 96.7659 43.4175C96.4938 44.9215 96.0174 45.9896 95.3667 46.5767C95.4391 46.6741 95.501 46.7781 95.5535 46.8888C95.9516 47.7288 95.616 48.6269 95.3934 49.221C95.3375 49.3712 95.2605 49.5764 95.249 49.6523L95.2376 49.7133C94.8648 51.4101 93.8582 51.5866 92.859 51.6215L92.6827 51.6275L92.5965 51.5979C92.5177 51.6036 92.3796 51.6243 92.2825 51.6386C92.0571 51.6726 91.8016 51.7106 91.5545 51.702C91.1289 51.6872 90.8165 51.5297 90.6098 51.3067C90.0506 51.9235 89.0181 51.9251 88.3441 51.9257C88.2041 51.926 88.0709 51.9255 87.9539 51.9312C87.6975 51.9818 87.4858 52.0018 87.293 51.9951C86.9748 51.984 86.7329 51.8978 86.5508 51.7845C85.9975 52.1196 85.1233 52.1705 83.9031 52.2004C83.6194 52.2077 83.2309 52.2174 83.1215 52.2378L82.9905 52.2751L82.881 52.2671C82.5229 52.2643 82.1841 52.3102 81.8852 52.3509C81.5989 52.3893 81.3286 52.4264 81.07 52.4173C80.4552 52.3959 80.1142 52.1086 79.9367 51.8717C79.8725 51.7862 79.8198 51.696 79.7777 51.6015C78.6321 52.6271 76.8289 52.7553 73.8091 52.8717C73.405 52.8874 72.9753 52.904 72.5186 52.9244L71.9861 52.9476L71.9016 52.8228C71.4915 53.0638 71.0086 53.0879 70.63 53.1063C70.4271 53.1164 70.2169 53.1268 70.0933 53.1639C69.7949 53.2451 69.5482 53.2774 69.3145 53.2692C68.4887 53.2404 68.0752 52.792 67.8648 52.2586C67.4291 53.3936 66.3007 53.4259 65.6947 53.4433C65.4316 53.4509 65.1595 53.4586 64.8982 53.5085L64.8387 53.5204L64.7319 53.5269C64.7319 53.5269 64.6406 53.526 64.6403 53.526C64.4208 53.5184 64.2162 53.4587 64.0377 53.3534C63.6127 53.6315 63.0789 53.6315 62.6949 53.6311L62.616 53.6405C61.8623 53.7379 61.3645 53.8024 60.9691 53.7885L60.9668 53.7885C60.7758 53.7818 60.2061 53.76 59.8113 53.2974C59.7327 53.2053 59.6706 53.1101 59.6222 53.0103C59.3755 53.5292 58.9275 53.9921 58.0766 54.002C58.0766 54.002 58.0234 54.001 58.0229 54.001C57.5165 53.9833 56.9955 54.0312 56.4435 54.0822L56.0294 54.1193C55.8911 54.1438 55.7656 54.1538 55.6467 54.1497C55.4125 54.1415 55.227 54.0792 55.0831 53.9984C54.5748 54.3132 53.9425 54.2911 53.6067 54.2794L53.4559 54.2737C53.3709 54.2707 53.1119 54.2616 53.033 54.2845L52.8889 54.3413L52.7426 54.3464C52.5432 54.3571 52.3286 54.3752 52.1068 54.394C51.6759 54.4301 51.1919 54.4709 50.7209 54.467C50.4646 54.5194 50.1975 54.5613 49.9425 54.5524ZM85.4277 46.2585C85.3833 46.596 85.3299 46.9216 85.2764 47.2477C85.2631 47.3295 85.2498 47.4105 85.2367 47.4905C85.3556 47.4825 85.4653 47.4729 85.567 47.4643C85.7921 47.4447 85.9866 47.4283 86.1704 47.4347C86.267 47.4381 86.359 47.4483 86.4463 47.4653C86.5137 47.0262 86.6626 46.0397 86.6714 45.9809C86.2902 46.1137 85.865 46.1281 85.4442 46.1176C85.4381 46.1672 85.4327 46.2158 85.4277 46.2585ZM86.6376 41.5544C86.9377 41.5649 87.172 41.6363 87.3541 41.7357C87.3585 41.7103 87.3803 41.5901 87.3803 41.5901L87.4027 41.5239C87.4634 41.3441 87.5117 40.9974 87.5537 40.6086C87.4848 40.616 87.4117 40.6186 87.3346 40.6159C87.3346 40.6159 87.2967 40.6141 87.2779 40.613C86.9957 40.6687 86.7114 40.6588 86.4526 40.6502C86.4164 40.6489 86.3753 40.6475 86.333 40.6465C86.3014 40.8793 86.2433 41.1294 86.1809 41.3998C86.1683 41.4538 86.1541 41.5152 86.1395 41.5798C86.3111 41.5602 86.4773 41.5488 86.6376 41.5544Z" fill="white"/>
<path d="M93.4577 36.5818C93.9777 36.6 94.4837 36.6823 94.9609 36.8849C96.6556 37.9096 96.3039 45.7428 94.2222 46.1342C94.0021 46.1673 91.7791 46.9717 91.7791 46.9717L90.5983 47.2753C90.5983 47.2753 90.4893 48.5478 90.0161 50.4383C89.8468 51.1147 88.5335 50.935 87.8292 50.9849C87.6333 51.0262 87.4641 51.0485 87.3257 51.0436C86.9454 51.0304 86.7977 50.8126 86.9656 50.2233C87.4512 47.3986 87.8176 44.5173 88.304 41.8284C88.676 40.7259 88.5095 37.232 89.437 36.7683C89.5695 36.7835 89.7039 36.7929 89.8399 36.7977C90.9946 36.838 92.2625 36.5401 93.4577 36.5818ZM91.3239 44.8003C91.6631 44.8122 92.1766 44.504 92.2403 44.0931C92.464 43.3238 93.2496 39.013 92.1547 38.9748C92.071 38.9718 91.9764 38.9938 91.8697 39.0443C91.712 39.8948 91.2467 43.2681 91.1189 44.1415C90.9133 44.6024 91.0695 44.7914 91.3239 44.8003ZM87.6754 36.9113C88.0326 36.9238 88.164 37.1183 88.0044 37.8501C87.7097 38.2281 88.0199 39.6873 87.3669 39.6645C87.3242 39.663 87.2776 39.6553 87.2263 39.6404C86.6733 39.8623 85.4364 39.366 85.3993 40.2233C85.4804 40.781 84.6815 42.6245 85.3337 42.6473C85.3492 42.6478 85.3656 42.6473 85.3828 42.6458C85.8672 42.5874 86.2976 42.4948 86.6036 42.5055C87.061 42.5214 87.2406 42.768 86.9082 43.7044C86.8987 44.9981 86.6447 45.2077 85.3441 45.1623C85.3247 45.1616 85.3053 45.1609 85.2854 45.1601C85.2309 45.1506 85.1804 45.1452 85.1337 45.1436C84.5984 45.1248 84.5439 45.6012 84.481 46.1501C84.3806 46.9114 84.2161 47.6966 84.1433 48.4517C84.1996 48.4546 84.2548 48.457 84.3088 48.4589C85.2207 48.4908 85.8014 48.3744 86.1363 48.3861C86.6782 48.405 86.5769 48.7589 86.1956 50.6181C86.5145 51.4232 83.4347 51.1596 82.8875 51.3151C82.1243 51.3092 81.5045 51.4798 81.1023 51.4657C80.5904 51.4479 80.4308 51.1311 80.7764 49.7712C81.1902 47.1452 81.6697 44.213 82.0408 41.6098C82.2413 40.5377 82.3872 39.4055 82.5623 38.3669C82.6079 37.3741 82.7158 37.2679 83.6656 37.1555C83.7458 37.162 83.826 37.1665 83.9061 37.1693C84.8705 37.2029 85.8275 36.9886 86.8333 37.0047C87.1821 36.9586 87.4671 36.904 87.6754 36.9113ZM78.6765 37.5577C82.3932 37.6875 81.7311 39.6776 80.8584 44.7927C80.0898 52.1673 79.3387 51.6704 72.476 51.9731C72.1002 51.4167 72.6704 50.2112 72.6764 49.5262C72.8985 47.9853 73.1395 46.5059 73.3668 45.0118C73.6238 43.2326 73.9115 41.5268 74.2033 39.7339C74.4423 38.801 74.0991 37.6896 75.3068 37.7318C75.3484 37.7332 75.3918 37.7361 75.4373 37.7403C76.7724 37.5941 77.8366 37.5283 78.6765 37.5577ZM76.1149 49.4804C76.4704 49.4928 77.0448 49.0854 77.1206 48.6285C77.2229 48.1218 77.2795 47.6045 77.3867 47.0934C77.5718 45.4674 77.9516 43.8313 78.1094 42.1855C78.2671 41.3809 78.7016 39.8968 77.6954 39.8616C77.5756 39.8575 77.4356 39.8738 77.2722 39.9142C76.7842 42.9727 76.4235 45.837 75.888 48.8472C75.7502 49.2935 75.888 49.4725 76.1149 49.4804ZM73.2643 37.9304C73.6876 37.9452 73.8857 38.1091 73.5479 38.9676C73.4555 39.8672 73.3322 40.752 73.1311 41.6595C72.7413 44.8548 72.1437 48.0655 71.6602 51.2755C71.8254 52.4365 70.6201 52.0119 69.8191 52.2517C69.6349 52.3017 69.4788 52.3221 69.3466 52.3175C68.3067 52.2812 68.7401 50.6964 68.4738 49.7524C68.3226 49.3251 68.2059 46.0954 67.9646 46.0866C67.9301 46.0854 67.8931 46.1499 67.8531 46.2977C67.5632 47.8752 67.3438 49.5056 67.09 51.1601C67.0843 52.9019 66.0187 52.3238 64.7178 52.5736C64.7024 52.5746 64.6874 52.5748 64.6731 52.5743C63.734 52.5415 64.984 49.4094 64.9004 48.5909C65.2584 45.8025 65.7886 42.9579 66.159 40.2295C66.2259 37.8362 67.0818 38.411 69.0279 38.2287C69.4586 39.8695 69.5214 41.844 69.8696 43.7635C69.926 44.2012 69.9847 44.3812 70.0434 44.3832C70.2798 44.3915 70.5189 41.5248 70.6282 41.0008C70.8302 40.1985 70.9108 39.2929 71.0844 38.4211C70.9929 37.7626 72.1088 38.1845 72.3843 37.9498L72.3877 37.9499C72.7144 37.9613 73.0253 37.9221 73.2643 37.9304ZM63.3788 38.6237C64.4899 38.6625 63.7537 39.4296 63.8063 43.3498C63.815 45.4349 63.7777 47.5421 63.6816 49.6386C63.6937 50.3717 63.7314 51.2 63.6079 51.9438C63.8962 52.7115 63.1704 52.6778 62.6246 52.6792C61.8535 52.7787 61.3383 52.8489 61.0016 52.8371C60.1711 52.8081 60.4269 52.2812 60.6071 50.4703C60.6205 50.3296 60.5443 50.2833 60.4291 50.2793C60.2425 50.2728 59.9536 50.3773 59.7787 50.3712C59.7525 50.3703 59.7289 50.3669 59.7085 50.3602C59.6704 50.3531 59.6346 50.349 59.6011 50.3478C59.258 50.3358 59.1536 50.6264 59.1509 50.9715C58.8697 51.7091 59.0848 53.038 58.0648 53.0498C58.0498 53.0492 58.0347 53.0486 58.0197 53.0481C57.3486 53.0246 56.6152 53.1153 55.8972 53.175C55.8087 53.1929 55.7368 53.2001 55.679 53.1981C55.3099 53.1852 55.5138 52.7958 55.6013 52.408C56.4622 49.3244 57.1983 46.2818 58.1297 43.1865C58.5063 42.255 58.8093 38.7747 59.7961 38.8091C59.8093 38.8096 59.8227 38.8107 59.8362 38.8124C61.7457 38.7769 62.8069 38.6038 63.3788 38.6237ZM59.9932 47.9578C60.1945 47.9648 60.4886 47.9375 60.8877 47.9309C60.9867 46.5949 61.0793 45.1775 61.1517 43.8804C61.1155 43.3839 61.6244 41.922 61.161 41.8996C60.7276 43.5133 60.2868 45.1512 59.8957 46.7777C59.5562 47.7544 59.5428 47.942 59.9932 47.9578ZM54.3879 39.1724C54.7244 39.1841 54.9262 39.3196 54.7886 39.7704C54.6629 40.9647 54.4367 42.0648 54.2773 43.1938C53.996 45.1438 53.6281 47.216 53.3674 49.1834C53.056 50.3664 53.1257 50.6413 53.6176 50.6584C53.919 50.669 54.3789 50.5827 55.0067 50.5494C55.2781 51.0771 54.7977 52.1465 54.8163 52.8709C54.6516 53.3416 54.1523 53.3458 53.6403 53.3279C53.5892 53.3261 53.5379 53.3241 53.4868 53.3224C53.1956 53.3122 52.9108 53.3092 52.6916 53.3956C52.0725 53.4287 51.3149 53.5305 50.6287 53.5133C50.3769 53.5676 50.1518 53.6072 49.9748 53.601C49.6181 53.5885 49.4561 53.3907 49.6612 52.7558C50.0887 49.8018 50.6403 46.7371 51.06 43.6061C51.3069 42.3951 51.4585 41.0532 51.6652 39.8227C51.6035 39.2561 52.2627 39.4509 52.5789 39.2827C52.6533 39.3146 52.7456 39.3297 52.8498 39.3333C53.2928 39.3488 53.9529 39.1572 54.3879 39.1724ZM93.8626 46.6811C93.8765 46.6816 93.8882 46.6828 93.8978 46.6849C95.544 47.2446 94.4219 48.7557 94.3072 49.509C94.0803 50.5412 93.6882 50.6396 92.8248 50.67C92.7808 50.6549 92.7277 50.6473 92.6681 50.6452C92.3683 50.6348 91.9018 50.7616 91.5868 50.7506C91.3972 50.744 91.2626 50.6874 91.2521 50.521C91.44 49.1886 91.8099 47.1684 91.8099 47.1684C91.8099 47.1684 93.5078 46.6688 93.8626 46.6811ZM93.5241 34.6789C92.7883 34.6532 92.0921 34.7264 91.4187 34.7972C90.8669 34.8553 90.3456 34.9101 89.9063 34.8948C89.8165 34.8916 89.7318 34.8855 89.6545 34.8766L89.092 34.812L88.5855 35.0652C88.5413 35.0873 88.4983 35.1104 88.4562 35.1345C88.2495 35.0649 88.0122 35.0178 87.7418 35.0084C87.4166 34.997 87.1122 35.0413 86.8179 35.0841C86.7825 35.0892 86.7462 35.0945 86.7089 35.0999C86.1698 35.1009 85.6623 35.1504 85.21 35.1946C84.7637 35.2381 84.3422 35.2793 83.9725 35.2664C83.9214 35.2646 83.8703 35.2618 83.8191 35.2576L83.6301 35.2423L83.4418 35.2646C82.4621 35.3806 81.7738 35.6717 81.326 36.1931C80.4591 35.7758 79.4948 35.681 78.7429 35.6548C77.8704 35.6243 76.8034 35.6799 75.3953 35.8297C75.3879 35.8294 75.3806 35.8291 75.3732 35.8289C74.961 35.8145 74.4285 35.8633 73.9277 36.1099C73.7489 36.0647 73.5505 36.0352 73.3307 36.0275C73.1398 36.0209 72.9585 36.0299 72.7984 36.0379C72.6704 36.0443 72.5495 36.0503 72.4541 36.047L71.7154 36.0212L71.5957 36.1226C71.2918 36.127 70.8949 36.1627 70.4985 36.3314L70.4594 36.1823L68.8504 36.333C68.5358 36.3624 68.244 36.3679 67.962 36.3732C66.8758 36.3934 65.8324 36.5653 65.1303 37.3487C64.7012 36.9559 64.1356 36.7449 63.4452 36.7208C63.091 36.7085 62.7153 36.7386 62.1952 36.7803C61.6053 36.8276 60.875 36.8862 59.8835 36.9071C59.8766 36.9068 59.8698 36.9065 59.8628 36.9062C57.5694 36.8262 57.0119 39.4911 56.6048 41.4369C56.5263 41.8121 56.4189 42.3258 56.362 42.479L56.3292 42.5601L56.3064 42.6379C56.2938 42.6796 56.2813 42.7212 56.2688 42.763C56.298 42.5815 56.328 42.4005 56.358 42.219C56.4691 41.5472 56.5838 40.8539 56.6666 40.1131C56.8794 39.1821 56.5525 38.5311 56.3267 38.2147C56.0861 37.8777 55.5231 37.3068 54.4544 37.2695C54.0527 37.2555 53.6656 37.3176 53.3241 37.3723C53.244 37.3852 53.1403 37.4018 53.0525 37.4139L52.4908 37.1729L51.8951 37.4897C50.2904 37.7154 49.8083 38.823 49.7631 39.6541C49.6899 40.1013 49.6232 40.5588 49.5585 41.0028C49.4489 41.755 49.3355 42.5329 49.1943 43.2258L49.1814 43.2891L49.1728 43.3532C48.9357 45.1222 48.6517 46.8958 48.3771 48.6109C48.1801 49.8413 47.9766 51.1121 47.7967 52.3456C47.5581 53.2065 47.6516 53.9483 48.0754 54.5526C48.3137 54.8923 48.8687 55.4676 49.9083 55.5039C50.2227 55.5149 50.5258 55.4743 50.8122 55.4192C51.2936 55.418 51.7664 55.3781 52.1904 55.3423C52.4007 55.3246 52.6041 55.3071 52.7934 55.2969L53.102 55.2804L53.252 55.2213C53.2934 55.2215 53.3496 55.2228 53.4203 55.2253L53.4932 55.2279L53.5738 55.2308C54.1679 55.2516 54.6825 55.1839 55.1163 55.0285C55.2755 55.0705 55.4418 55.0951 55.6126 55.101C55.784 55.107 55.9595 55.0952 56.1459 55.0648C56.2751 55.0537 56.4047 55.0418 56.5344 55.0299C57.0548 54.982 57.5465 54.9368 57.9532 54.951L57.9839 54.9522L58.0353 54.9544L58.0868 54.9538C58.735 54.9463 59.2758 54.7692 59.7074 54.4245C60.0566 54.618 60.4671 54.7237 60.9351 54.74C61.4082 54.7565 61.9366 54.6881 62.7365 54.5846L62.7477 54.5832C63.0755 54.5827 63.5728 54.5732 64.0697 54.393C64.2423 54.4421 64.4224 54.4708 64.6066 54.4772C64.6809 54.4798 64.7583 54.4789 64.8379 54.4739L64.9584 54.4663L65.077 54.4435C65.2628 54.4078 65.4854 54.4014 65.7211 54.3947C66.2786 54.3788 67.042 54.357 67.7498 53.8821C67.7997 53.8487 67.848 53.8139 67.8948 53.7778C68.2869 54.0473 68.7585 54.2022 69.2801 54.2204C69.6105 54.2319 69.9497 54.1891 70.3172 54.0895L70.3413 54.083L70.3476 54.0811C70.4111 54.0703 70.5695 54.0625 70.6758 54.0572C70.9479 54.0438 71.3326 54.0248 71.739 53.9115L72.5599 53.8753C73.0148 53.8553 73.4425 53.8388 73.8451 53.8232C76.4652 53.722 78.2339 53.6537 79.6066 52.8789C79.9258 53.1235 80.3904 53.3461 81.0358 53.3687C81.3753 53.3805 81.6991 53.3366 82.0123 53.2942C82.2927 53.2562 82.5827 53.2169 82.8728 53.2192L83.1456 53.2213L83.3109 53.1743C83.4444 53.1642 83.719 53.1574 83.9266 53.1523C84.8842 53.1286 85.8095 53.1057 86.562 52.8295C86.7656 52.8942 86.9972 52.9374 87.2592 52.9466C87.505 52.9551 87.7622 52.934 88.0583 52.8802C88.1402 52.8782 88.2439 52.878 88.3451 52.8779C88.8372 52.8771 89.8139 52.8756 90.6285 52.4593C90.8967 52.5745 91.1973 52.6422 91.5204 52.6535C91.8552 52.6652 92.1699 52.618 92.4228 52.58C92.4441 52.5769 92.4683 52.5732 92.4932 52.5696L92.5389 52.5853L92.8916 52.5729C93.7033 52.5444 95.6041 52.4776 96.1668 49.9179L96.1802 49.8571L96.1834 49.8361C96.2021 49.7748 96.2493 49.6488 96.2846 49.5544C96.5291 48.9007 96.9276 47.8352 96.5119 46.7151C97.0064 46.0422 97.4377 45.0471 97.7019 43.5867C97.7138 43.5212 98.8538 37.0137 95.9461 35.2555L95.8299 35.1852L95.7048 35.1322C95.0533 34.8557 94.34 34.7074 93.5241 34.6789Z" fill="#11162C"/>
<path d="M43.4174 64.7909C43.1588 64.7819 42.941 64.599 42.8878 64.3464L42.882 64.3192L42.6293 61.5521C42.5833 61.3574 42.5211 61.352 42.4555 61.3469L39.1373 61.0101C38.8766 60.9894 38.6658 60.7862 38.6345 60.5172C38.6034 60.2482 38.762 60.0025 39.0207 59.9195L42.2982 58.978C42.3241 58.9696 42.6882 58.8395 42.8232 58.3819C42.9457 57.9666 43.5428 55.385 43.8415 54.0777C43.8759 53.8314 44.1241 53.6252 44.4114 53.6352C44.6704 53.6443 44.8884 53.8272 44.9415 54.0803L44.948 54.1126L45.2438 58.4102C45.2811 58.5398 45.4023 58.6315 45.5468 58.6366C45.5468 58.6366 67.3026 57.9809 67.3033 57.9809C67.6211 57.992 67.8463 58.2222 67.8511 58.5056C67.8558 58.7895 67.637 59.0275 67.3531 59.0473L45.4828 61.3173C45.406 61.323 45.2205 61.336 45.0068 61.7798L43.981 64.3766C43.915 64.6274 43.6868 64.8004 43.4174 64.7909Z" fill="#FFC935"/>
<path d="M44.3945 54.1106C44.4307 54.1119 44.4661 54.134 44.4753 54.1776L44.7712 58.4814C44.8441 58.8398 45.1594 59.099 45.5298 59.112C45.544 59.1125 45.5584 59.1126 45.5728 59.1124L67.3152 58.4566C67.3165 58.4566 67.3177 58.4566 67.319 58.4566C67.3918 58.4592 67.3952 58.5666 67.3203 58.5718L45.4335 60.8437C45.0405 60.8712 44.7721 61.1694 44.5778 61.5729L43.5236 64.2387C43.5184 64.2903 43.4755 64.3164 43.4338 64.315C43.3978 64.3137 43.3627 64.2919 43.3534 64.2481L43.1003 61.4783C43.0283 61.1374 42.8489 60.9008 42.4938 60.8722L39.1853 60.5361C39.0919 60.5284 39.0769 60.4012 39.1659 60.3725L42.4295 59.4354C42.7198 59.3412 43.1204 59.0553 43.2796 58.5162C43.4387 57.977 44.3054 54.1832 44.3054 54.1832C44.3126 54.1337 44.354 54.1092 44.3945 54.1106ZM44.4277 53.1592C43.9169 53.1413 43.4735 53.4943 43.3733 53.9885C43.0273 55.5027 42.4766 57.8734 42.3665 58.2466C42.3072 58.4474 42.1691 58.5157 42.1407 58.5278L38.9031 59.4575L38.8884 59.4617L38.8739 59.4664C38.4046 59.6176 38.105 60.0822 38.1614 60.5711C38.2179 61.0603 38.6158 61.4446 39.1075 61.4849L42.1734 61.7965L42.4054 64.3347L42.4104 64.3904L42.422 64.4451C42.5208 64.912 42.9232 65.2497 43.4006 65.2664C43.8761 65.283 44.2944 64.9739 44.4301 64.5354L45.449 61.9586C45.4966 61.8643 45.5345 61.8132 45.5562 61.7881L67.4112 59.5195C67.9356 59.4703 68.3358 59.0262 68.3269 58.4975C68.3179 57.9599 67.8898 57.524 67.3523 57.5052L67.33 57.5044L67.3038 57.5046L45.7031 58.156L45.4251 54.1123L45.4206 54.0467L45.4071 53.9823C45.309 53.5144 44.9063 53.1759 44.4277 53.1592Z" fill="black"/>
<path d="M139.246 27.4864C137.768 23.9854 135.031 21.1703 131.332 19.3448C127.81 17.607 123.738 16.9228 119.554 17.3662C117.605 17.5724 115.678 18.0244 113.823 18.7094C108.88 20.5351 104.885 23.8441 102.575 28.0267C100.187 32.3503 99.8669 37.0863 101.673 41.3631C103.151 44.8639 105.888 47.6795 109.587 49.5047C113.109 51.2421 117.181 51.9261 121.367 51.4829C123.313 51.2767 125.24 50.8247 127.096 50.1398C132.039 48.3142 136.033 45.0049 138.344 40.8225C140.731 36.4988 141.052 31.7631 139.246 27.4864Z" fill="#11162C"/>
<path d="M126.323 48.312C135.714 44.8442 140.7 35.8156 137.461 28.1459C134.222 20.4762 123.985 17.0701 114.595 20.538C105.205 24.0059 100.219 33.0346 103.458 40.7041C106.697 48.3738 116.934 51.7799 126.323 48.312Z" fill="url(#paint0_linear_530_33073)"/>
<path d="M103.915 43.0447C103.915 43.0447 104.982 43.9702 108.457 43.8575C112.73 43.9118 117.959 42.2359 120.806 40.9715C123.652 39.7073 126.505 37.3916 125.129 36.5324C123.502 35.4783 119.688 35.941 117.017 35.8302C114.346 35.7194 109.403 36.1953 109.114 33.4678C108.825 30.7399 113.178 26.3601 118.94 24.0522C124.7 21.7444 128.996 20.9327 134.242 20.4501C142.475 19.6925 147.995 21.8817 147.995 21.8817L136.801 25.7407C136.801 25.7407 135.725 24.8572 132.487 24.742C129.25 24.6267 125.952 25.2772 121.547 26.9656C117.143 28.6541 113.917 31.1609 116.328 31.8348C118.739 32.5086 122.264 32.1103 126.4 32.1411C130.536 32.1717 134.054 33.0091 133.967 35.641C133.867 38.6874 127.598 42.7645 123.486 44.4938C119.374 46.2232 115.571 47.3963 109.724 48.0142C103.877 48.6322 96.5551 48.6487 93.063 47.226L103.915 43.0447Z" fill="#FFC935"/>
<path d="M148.219 21.2483C147.988 21.1565 142.445 19.0047 134.139 19.769C129.018 20.2426 124.643 21.0144 118.649 23.416C112.675 25.809 108.089 30.3347 108.425 33.5034C108.737 36.4497 112.735 36.4744 115.654 36.4923C116.15 36.4954 116.618 36.498 117.024 36.515C117.772 36.5458 118.58 36.5334 119.434 36.5204C121.469 36.4895 123.774 36.4545 124.781 37.1069C124.786 37.1094 124.789 37.1117 124.792 37.1135C124.749 37.6167 123.152 39.1641 120.494 40.3446C118.068 41.4215 112.798 43.2305 108.395 43.1734C105.364 43.2721 104.353 42.5407 104.351 42.541L103.971 42.2114L90.5939 47.276C90.5939 47.276 90.5487 47.7064 94.9409 48.6238C99.333 49.5412 105.839 49.0661 109.409 48.7347L109.823 48.6967C109.924 48.6874 110.028 48.6772 110.133 48.6659C113.627 48.2958 119.558 46.9039 123.783 45.1268C127.278 43.6568 134.534 39.4188 134.656 35.7005C134.685 34.8086 134.385 34.0332 133.766 33.3945C132.543 32.136 130.052 31.484 126.366 31.4564C125.121 31.4472 123.949 31.4758 122.818 31.5038C120.269 31.5665 118.069 31.6206 116.48 31.1765C116.333 31.1354 116.249 31.0948 116.203 31.0683C116.358 30.5134 118.258 28.9737 121.825 27.6064C126.108 25.9646 129.299 25.3126 132.498 25.4265C135.361 25.5284 136.374 26.2582 136.375 26.2582L136.688 26.5158L149.964 21.9395L148.219 21.2483ZM136.851 24.9859C136.262 24.6676 134.938 24.1459 132.472 24.0581C129.078 23.937 125.728 24.6154 121.266 26.3256C120.583 26.5873 114.602 28.9468 114.817 31.174C114.852 31.5351 115.073 32.1867 116.172 32.4938C117.966 32.9955 120.264 32.9391 122.926 32.8736C124.047 32.846 125.206 32.8176 126.43 32.8267C130.522 32.8569 132.15 33.654 132.795 34.3171C133.138 34.671 133.29 35.0732 133.274 35.5829C133.195 37.9942 127.894 41.8816 123.185 43.8622C119.007 45.6194 112.897 47.0388 109.621 47.333L109.206 47.3715C102.804 48.1055 97.5138 47.8543 94.7732 47.0875L103.93 43.8386C104.574 44.1635 105.951 44.6268 108.483 44.5439C113.09 44.6034 118.591 42.7217 121.114 41.6006C122.843 40.8331 126.125 38.9249 126.174 37.1976C126.189 36.6913 125.939 36.2514 125.483 35.9668C124.113 35.0792 121.686 35.1159 119.339 35.1519C118.504 35.1645 117.715 35.1766 117.007 35.1472C116.576 35.1293 116.095 35.1265 115.588 35.1234C112.629 35.1048 109.961 34.9621 109.799 33.434C109.561 31.1849 113.541 26.9676 119.225 24.69C125.07 22.3482 129.34 21.5917 134.339 21.133C139.427 20.6647 143.481 21.3543 145.754 21.9168L136.851 24.9859Z" fill="#11162C"/>
<path d="M104.013 35.2693C104.013 35.2693 102.782 28.0179 113.677 22.1223C118.874 19.7112 123.229 20.5704 123.229 20.5704C123.229 20.5704 118.497 21.4317 112.785 25.0203C106.005 29.3565 104.013 35.2693 104.013 35.2693Z" fill="#E26A81"/>
<path d="M111.005 33.426C110.149 31.8786 114.284 27.3402 119.414 25.4278C115.763 27.8245 112.335 30.7005 112.148 32.5476C112.031 33.8126 115.622 34.3641 115.622 34.3641C115.622 34.3641 111.634 34.5629 111.005 33.426Z" fill="#FFE8B0"/>
<path d="M108.489 45.3683C108.489 45.3683 119.832 44.7256 126.003 39.4156C125.557 40.8908 124.366 42.7553 118.05 44.4799C111.734 46.2044 108.489 45.3683 108.489 45.3683Z" fill="#FFE8B0"/>
<path d="M123.96 29.2145C123.96 29.2145 131.484 24.7236 137.679 28.6971C138.825 30.6358 138.372 34.425 138.372 34.425C138.372 34.425 136.539 27.6903 123.96 29.2145Z" fill="#E26A81"/>
<path d="M102.583 37.5221C102.583 37.5221 103.978 41.7924 121.049 38.091C117.383 40.7833 111.813 42.879 103.978 41.7924C102.928 39.9922 102.583 37.5221 102.583 37.5221Z" fill="#E26A81"/>
<path d="M83.4615 17.0229L83.5111 17.0246L83.5678 17.0211L102.16 15.8654L102.027 20.3124L102.024 20.3915L102.035 20.47C102.103 20.9646 102.514 21.3362 103.014 21.3537C103.289 21.3633 103.561 21.2605 103.759 21.0715C103.909 20.9286 104.01 20.7475 104.053 20.5486L105.565 15.5577C105.573 15.5319 105.588 15.5086 105.6 15.4958L105.619 15.4906L108.318 14.73C108.776 14.6086 109.097 14.186 109.086 13.7095C109.075 13.2194 108.716 12.802 108.232 12.7172L105.898 12.2631C105.826 11.8895 105.69 11.1328 105.601 10.6206C105.53 10.1038 105.115 9.72208 104.595 9.70391C104.216 9.69069 103.843 9.87814 103.598 10.2054L103.538 10.2842L103.497 10.3735L102.67 12.1395C102.615 12.2043 102.43 12.3072 102.277 12.3201L102.25 12.3224L102.223 12.3263L83.3572 15.0204C82.8479 15.0833 82.4682 15.5318 82.4916 16.0613C82.515 16.591 82.932 17.0044 83.4615 17.0229ZM67.1583 58.9425L67.1358 58.9417L67.1096 58.9419L45.5091 59.5933L45.2311 55.5497L45.2266 55.484L45.2131 55.4197C45.115 54.9517 44.7123 54.6132 44.2337 54.5965C43.7229 54.5786 43.2795 54.9317 43.1793 55.426C42.8333 56.9402 42.2826 59.3108 42.1725 59.684C42.1132 59.8847 41.9751 59.953 41.9467 59.9652L38.7091 60.8948L38.6944 60.899L38.6799 60.9037C38.2107 61.0549 37.911 61.5195 37.9674 62.0084C38.0239 62.4975 38.4216 62.8818 38.9133 62.9223L41.9794 63.2339L42.2114 65.7721L42.2165 65.8275L42.228 65.882C42.3266 66.3492 42.729 66.6871 43.2066 66.7038C43.6821 66.7204 44.1004 66.4112 44.2361 65.9727L45.255 63.3959C45.3026 63.3017 45.3405 63.2505 45.3622 63.2254L67.2172 60.9568C67.7415 60.9076 68.1418 60.4637 68.1329 59.9349C68.1239 59.3972 67.6958 58.9613 67.1583 58.9425ZM138.267 27.3422L149.771 23.3765L148.026 22.6853C147.795 22.5935 142.252 20.4417 133.946 21.206C133.371 21.2593 132.806 21.3171 132.246 21.3797C131.886 21.1711 131.518 20.9702 131.137 20.7822C127.615 19.0445 123.543 18.3603 119.359 18.8037C117.41 19.0099 115.482 19.4619 113.627 20.1469C108.684 21.9726 104.69 25.2816 102.38 29.4642C99.9919 33.7878 99.6715 38.5238 101.477 42.8006C101.688 43.2987 101.926 43.7812 102.187 44.2507L97.251 46.1195C97.3463 45.7864 97.4322 45.4244 97.5046 45.0244C97.5164 44.9589 98.6565 38.4513 95.7488 36.6932L95.6682 36.6445C96.0504 36.5532 96.3656 36.4088 96.6179 36.1986C96.9306 35.9396 97.1588 35.5831 97.3127 35.1112L97.328 35.0643L97.34 35.0164C97.3971 34.7889 97.4565 34.5647 97.5188 34.3426C97.6003 34.0506 97.6639 33.7562 97.7088 33.4655C98.0506 31.3327 98.3859 29.1688 98.7041 27.0421C98.7556 26.712 98.7956 26.3691 98.8218 26.0318C98.8388 25.8063 98.8755 25.5707 98.9309 25.3291L98.9424 25.2791L98.9502 25.2285C99.0605 24.516 99.1773 23.8176 99.2975 23.1527C99.4252 22.4452 99.5454 21.7289 99.6547 21.0237C99.695 20.7628 99.8177 19.9697 99.3167 19.324C99.0818 19.0233 98.6427 18.6639 97.8681 18.6368C97.7702 18.6334 97.6666 18.6354 97.5601 18.6427C96.8653 18.6907 96.172 18.7445 95.499 18.8025L93.9689 18.9342L93.4701 18.9772C92.9317 19.0174 92.4647 19.2371 92.1189 19.6133C91.9202 19.8288 91.7586 20.0799 91.6388 20.3596C91.4697 20.0667 91.2521 19.8276 90.9882 19.6453C90.6464 19.4102 90.2351 19.2835 89.763 19.267C89.6519 19.2632 89.535 19.2654 89.4155 19.2736L89.3899 19.2754L89.3645 19.278C88.7499 19.3425 88.1313 19.3878 87.5259 19.4127C86.8982 19.4381 86.2625 19.4676 85.6215 19.4997C85.0248 19.5099 84.5047 19.7403 84.1328 20.1376C83.8199 19.8967 83.4289 19.7703 82.9602 19.7539C82.8385 19.7497 82.7112 19.7522 82.571 19.7618C81.8349 19.8124 81.1316 19.8635 80.4607 19.9157C79.7983 19.967 79.0977 20.0183 78.359 20.069C77.7338 20.1119 77.2501 20.2858 76.8802 20.6007C76.4932 20.9314 76.246 21.4045 76.1224 22.0489L76.1177 22.0733L76.1139 22.0978C76.1068 22.1434 76.0998 22.1889 76.093 22.2342C76.0408 22.1562 75.986 22.08 75.9287 22.0056C75.3248 21.2225 74.4656 20.7153 73.3741 20.4971C72.9963 20.4217 72.605 20.3765 72.2108 20.3627C72.1489 20.3605 72.0869 20.3591 72.0247 20.3585C71.6301 20.3543 71.2272 20.3656 70.8269 20.3922C70.1597 20.4022 69.4833 20.4399 68.8159 20.5042C68.1669 20.5664 67.5147 20.6324 66.8589 20.7009C66.3096 20.7638 65.905 20.8127 65.6304 20.8498C65.0756 20.9238 64.6143 21.1225 64.2616 21.4399C64.127 21.56 64.0087 21.6967 63.9074 21.8491L63.9005 21.8466L63.7742 21.7989L63.6411 21.7757C63.2499 21.7077 62.8213 21.6354 62.3541 21.56C61.865 21.4807 61.339 21.4174 60.7922 21.3724C60.573 21.3542 60.3471 21.3409 60.122 21.333C59.7773 21.321 59.4217 21.3213 59.0651 21.3337C58.463 21.3551 57.861 21.4238 57.2751 21.5378C56.6549 21.6596 56.0497 21.8521 55.4739 22.1103C54.865 22.3824 54.295 22.7503 53.7816 23.203C53.2679 23.6701 52.8312 24.185 52.4674 24.7482C52.0894 25.3328 51.8092 25.9563 51.6349 26.601C51.4513 27.2783 51.3977 27.965 51.4759 28.6408C51.5598 29.3785 51.8309 30.0712 52.2811 30.6967L52.2923 30.7122L52.3039 30.7274C52.4336 30.8978 52.5713 31.0614 52.7151 31.216C52.6258 31.2874 52.5419 31.3621 52.4623 31.4364C52.1157 31.7595 51.7618 32.1781 51.3813 32.7153C51.0472 33.1867 50.6884 33.7181 50.3151 34.2945C50.092 34.6352 49.9252 35.0244 49.8233 35.4454C49.6482 36.1638 49.7988 36.84 50.2481 37.3498C50.7601 37.9443 51.3498 38.413 52.0001 38.7664L51.6977 38.9273C50.093 39.153 49.611 40.2606 49.5658 41.0917C49.4926 41.5389 49.4259 41.9965 49.3612 42.4404C49.2516 43.1927 49.1382 43.9706 48.997 44.6635L48.9841 44.7268L48.9755 44.7908C48.7384 46.5598 48.4544 48.3332 48.1798 50.0484C47.9828 51.2788 47.7793 52.5496 47.5994 53.7831C47.3607 54.6441 47.4542 55.3859 47.8781 55.9903C48.1164 56.3299 48.6714 56.9052 49.711 56.9415C50.0254 56.9525 50.3284 56.9119 50.6148 56.8569C51.0962 56.8556 51.5689 56.8157 51.9928 56.7799C52.2032 56.7622 52.4067 56.7447 52.596 56.7346L52.9046 56.7181L53.0546 56.659C53.0961 56.6591 53.1523 56.6604 53.2229 56.6629L53.2958 56.6656L53.3765 56.6685C53.9706 56.6892 54.4852 56.6215 54.919 56.4661C55.0783 56.5081 55.2445 56.5327 55.4152 56.5386C55.5867 56.5446 55.7622 56.5328 55.9485 56.5025C56.0778 56.4913 56.2075 56.4794 56.3372 56.4675C56.8576 56.4196 57.3491 56.3744 57.7557 56.3886L57.7853 56.3898L57.8374 56.392L57.8895 56.3914C58.5376 56.3839 59.0785 56.2068 59.51 55.8622C59.8593 56.0556 60.2698 56.1613 60.7378 56.1776C61.2108 56.1941 61.7393 56.1258 62.5391 56.0222L62.5503 56.0208C62.8781 56.0203 63.3754 56.0108 63.8723 55.8306C64.045 55.8797 64.2251 55.9084 64.4093 55.9148C64.4835 55.9174 64.5609 55.9165 64.6405 55.9115L64.7611 55.9039L64.8796 55.8811C65.0655 55.8454 65.2881 55.8391 65.5238 55.8323C66.0812 55.8164 66.8446 55.7946 67.5525 55.3197C67.6023 55.2863 67.6506 55.2516 67.6975 55.2155C68.0895 55.4849 68.5612 55.6398 69.0828 55.658C69.4131 55.6696 69.7523 55.6267 70.1198 55.5272L70.144 55.5206L70.1503 55.5187C70.2139 55.5079 70.3723 55.5001 70.4786 55.4948C70.7506 55.4814 71.1352 55.4624 71.5417 55.3492L72.3625 55.313C72.8174 55.2929 73.2452 55.2764 73.6477 55.2608C76.2679 55.1596 78.0365 55.0913 79.4093 54.3165C79.7284 54.5612 80.1931 54.7837 80.8385 54.8063C81.178 54.8181 81.5018 54.7743 81.815 54.7318C82.0954 54.6938 82.3853 54.6545 82.6755 54.6568L82.9483 54.6589L83.1136 54.6119C83.2472 54.6018 83.5218 54.595 83.7293 54.5899C84.6869 54.5662 85.6122 54.5433 86.3647 54.2671C86.5683 54.3318 86.7998 54.375 87.0619 54.3842C87.3076 54.3928 87.5648 54.3716 87.861 54.3178C87.9429 54.3158 88.0466 54.3157 88.1479 54.3155C88.6399 54.3147 89.6166 54.3132 90.4312 53.8969C90.6994 54.012 91 54.0798 91.323 54.0911C91.6578 54.1028 91.9726 54.0556 92.2254 54.0177C92.2467 54.0145 92.271 54.0108 92.2959 54.0072L92.3416 54.0229L92.6943 54.0105C93.506 53.982 95.4067 53.9151 95.9695 51.3556L95.9829 51.2947L95.9862 51.2736C96.0048 51.2123 96.052 51.0863 96.0873 50.9919C96.1588 50.8008 96.2419 50.5713 96.3156 50.3187C100.133 50.8127 104.912 50.5401 108.145 50.2662C108.548 50.5041 108.963 50.7305 109.392 50.9422C112.913 52.6795 116.986 53.3636 121.171 52.9204C123.118 52.7142 125.045 52.2622 126.9 51.5772C131.844 49.7516 135.838 46.4424 138.148 42.2599C140.535 37.9363 140.856 33.2006 139.051 28.9238C138.821 28.3789 138.557 27.8527 138.267 27.3422ZM73.7303 37.5475C73.5516 37.5023 73.3532 37.4728 73.1334 37.4652C72.9425 37.4585 72.7611 37.4676 72.6011 37.4756C72.473 37.482 72.3521 37.488 72.2567 37.4847L71.518 37.4589L71.3984 37.5602C71.0945 37.5647 70.6975 37.6004 70.3012 37.7691L70.262 37.6199L69.3293 37.7073C69.5466 37.4129 69.7074 37.0478 69.8102 36.5933L69.8169 36.5635L69.8224 36.5335C69.9037 36.0859 69.9692 35.6804 70.0228 35.2939C70.0543 35.0704 70.0888 34.8465 70.1258 34.625C70.5728 34.5491 71.0133 34.4356 71.4438 34.2853C72.2538 34.0021 73.0049 33.6001 73.6765 33.0904C74.0253 32.8258 74.3504 32.5313 74.6495 32.2093C74.4903 33.2441 74.3341 34.2942 74.182 35.3521C74.1102 35.9149 74.0802 36.6962 74.5645 37.3006C74.2933 37.3386 74.0079 37.4108 73.7303 37.5475Z" fill="#A855F7"/>
<path d="M103.227 19.4414C102.96 19.4321 102.74 19.2332 102.704 18.9685L102.698 18.9295L102.846 14.019C102.847 13.9862 102.842 13.9681 102.84 13.962C102.84 13.9623 102.84 13.9622 102.839 13.9622C102.832 13.962 102.784 13.941 102.675 13.9372C102.637 13.9359 102.599 13.9369 102.562 13.9393L83.7062 15.1114L83.6757 15.1108C83.3967 15.1011 83.1769 14.8831 83.1645 14.6041C83.1522 14.325 83.3525 14.0888 83.6305 14.0543L102.488 11.3612C102.85 11.3297 103.208 11.1 103.291 10.9215L104.147 9.0941L104.176 9.05466C104.329 8.85184 104.553 8.73547 104.776 8.74328C105.072 8.75359 105.305 8.98105 105.33 9.28405C105.419 9.7781 105.612 10.8586 105.667 11.1101C105.682 11.1722 105.696 11.2372 105.88 11.2696L108.356 11.751C108.612 11.7963 108.802 12.0159 108.808 12.2838C108.814 12.5519 108.634 12.7801 108.371 12.8386L105.687 13.5961C105.514 13.6351 105.362 13.7973 105.308 13.9798L103.787 18.998C103.766 19.11 103.711 19.2118 103.627 19.2912C103.521 19.3919 103.375 19.4466 103.227 19.4414Z" fill="#FFC935"/>
<path d="M104.759 9.21818C104.811 9.21998 104.85 9.25298 104.856 9.32328C104.856 9.32328 105.13 10.8842 105.203 11.2128C105.276 11.5414 105.513 11.6872 105.797 11.7377L108.265 12.2177C108.353 12.233 108.355 12.354 108.268 12.3732L105.558 13.1371C105.229 13.2099 104.951 13.5079 104.851 13.8445L103.321 18.8948C103.32 18.9421 103.282 18.9664 103.244 18.9651C103.212 18.9639 103.181 18.944 103.176 18.9038L103.322 14.0326C103.33 13.5977 103.016 13.4719 102.692 13.4606C102.638 13.4587 102.583 13.46 102.53 13.4636L83.6996 14.6341C83.6971 14.6343 83.6947 14.6343 83.6923 14.6343C83.6269 14.632 83.62 14.5343 83.6894 14.5257L102.555 11.8315C103.011 11.7929 103.546 11.4986 103.722 11.1224C103.899 10.7462 104.557 9.33987 104.557 9.33987C104.616 9.26025 104.697 9.216 104.759 9.21818ZM104.793 8.26673C104.414 8.2535 104.041 8.44097 103.795 8.76818L103.736 8.84705L103.694 8.93636L102.868 10.7023C102.813 10.7671 102.627 10.87 102.475 10.8829L102.448 10.8852L102.42 10.8891L83.5548 13.5832C83.0453 13.6463 82.6658 14.0948 82.6892 14.6243C82.7126 15.1539 83.1296 15.5672 83.6591 15.5857L83.7087 15.5874L83.7654 15.5839L102.358 14.4282L102.224 18.8752L102.222 18.9543L102.233 19.0327C102.3 19.5274 102.712 19.8991 103.211 19.9165C103.486 19.9261 103.758 19.8233 103.957 19.6344C104.107 19.4913 104.208 19.3103 104.25 19.1114L105.762 14.1206C105.77 14.0947 105.786 14.0715 105.798 14.0586L105.816 14.0534L108.515 13.2928C108.974 13.1714 109.295 12.7487 109.284 12.2721C109.273 11.7821 108.914 11.3648 108.43 11.28L106.096 10.8259C106.023 10.4522 105.888 9.69549 105.798 9.18331C105.727 8.66657 105.313 8.2849 104.793 8.26673Z" fill="black"/>
<path d="M70.3844 27.5384C70.1494 27.661 69.8567 27.687 69.5057 27.6165L69.8854 25.1679C70.1849 25.0413 70.4323 25.0243 70.6284 25.1168C71.0184 25.3018 71.2062 25.74 71.1573 26.2743C71.111 26.7898 70.8562 27.2939 70.3844 27.5384Z" fill="#11162C"/>
<path fill-rule="evenodd" clip-rule="evenodd" d="M98.0654 17.1987C98.84 17.2258 99.279 17.5852 99.5141 17.8861C100.015 18.5317 99.8923 19.3246 99.852 19.5856C99.1383 24.1925 98.9541 29.2444 97.51 33.673C97.3561 34.145 97.1278 34.5015 96.8152 34.7605C96.5626 34.9709 96.2515 35.1189 95.8688 35.2101C98.8767 36.8953 97.7138 43.5201 97.7018 43.5862C97.4376 45.0466 97.0063 46.0417 96.5119 46.7146C96.9276 47.8347 96.529 48.9002 96.2845 49.5539C95.6608 51.2213 94.9145 52.5013 92.8915 52.5724C92.7101 52.5788 92.5256 52.5955 92.3408 52.6123C92.0647 52.6373 91.788 52.6624 91.5203 52.653C91.1973 52.6418 90.8967 52.574 90.6284 52.4589C89.6875 52.9397 88.3201 52.9831 87.2592 52.9461C86.9971 52.9369 86.7656 52.8938 86.562 52.829C85.9657 53.0479 85.3459 53.0551 84.7296 53.0623C84.193 53.0686 83.659 53.0749 83.1456 53.2208C82.8091 53.2182 82.4749 53.257 82.141 53.2957C81.773 53.3384 81.4054 53.3811 81.0357 53.3682C80.3903 53.3456 79.9257 53.1231 79.6065 52.8784C78.2339 53.6533 76.4652 53.7216 73.8451 53.8227C73.1429 53.8498 72.4409 53.8801 71.7389 53.9111C71.4676 53.9867 71.1948 54.0047 70.9218 54.0228C70.7304 54.0354 70.5388 54.0481 70.3475 54.0806C70.0057 54.1827 69.6365 54.2324 69.2801 54.2199C68.7584 54.2017 68.2868 54.0468 67.8948 53.7773C67.2647 54.2626 66.4944 54.3721 65.7211 54.3942C65.5604 54.3988 65.4 54.4172 65.2398 54.4356C65.0288 54.4599 64.818 54.4841 64.6065 54.4767C64.4223 54.4703 64.2423 54.4417 64.0697 54.3925C63.5727 54.5727 63.0754 54.5823 62.7476 54.5827L62.7365 54.5842C61.9369 54.6876 61.408 54.756 60.9351 54.7395C60.4671 54.7232 60.0566 54.6175 59.7073 54.4241C59.2757 54.7687 58.7349 54.9458 58.0868 54.9533C57.7184 54.9575 57.3504 54.9929 56.9825 55.0284C56.5258 55.0725 56.0693 55.1165 55.6125 55.1005C55.4418 55.0946 55.2755 55.07 55.1162 55.028C54.5555 55.2289 53.9835 55.2253 53.4016 55.2217C53.3518 55.2214 53.3019 55.221 53.2519 55.2209L53.1019 55.2799C52.7042 55.3012 52.3014 55.3436 51.8974 55.386C51.2318 55.456 50.5629 55.5263 49.9083 55.5034C48.8686 55.4671 48.3137 54.8918 48.0754 54.5521C47.6515 53.9478 47.558 53.206 47.7966 52.3451C48.4142 48.1109 49.0715 43.8764 49.7631 39.6536C49.8083 38.8225 50.2903 37.7149 51.895 37.4893L52.1878 37.3335C51.5396 36.9804 50.9562 36.5047 50.4456 35.912C49.9962 35.4022 49.8455 34.7258 50.0206 34.0074C50.2675 32.9872 50.9832 32.1172 51.5786 31.2772C51.9637 30.7335 52.389 30.1965 52.9123 29.7779C52.7686 29.6233 52.6309 29.4597 52.5012 29.2894L52.4896 29.2741L52.4783 29.2585C52.0281 28.633 51.7571 27.9403 51.6732 27.2027C51.5205 25.8837 51.8895 24.5089 52.6646 23.3101C53.4001 22.1717 54.4288 21.2274 55.6712 20.6722C56.7906 20.1701 58.0224 19.9397 59.2624 19.8956C60.4331 19.8546 61.5655 19.9619 62.5514 20.1219C63.0699 20.2056 63.6089 20.2224 64.1047 20.411C64.206 20.2586 64.3242 20.1219 64.4589 20.0018C65.16 19.3708 66.169 19.3645 67.0562 19.2628C68.3759 19.125 69.6962 18.974 71.0242 18.9541C71.8896 18.8966 72.7584 18.8967 73.5714 19.059C74.6696 19.2785 75.662 19.8578 76.2902 20.796C76.3825 20.1857 76.5941 19.5757 77.0775 19.1625C77.4474 18.8477 77.9312 18.6738 78.5563 18.6309C79.9607 18.5344 81.3639 18.4204 82.7683 18.3237C82.9083 18.3141 83.0356 18.3115 83.1574 18.3158C83.6262 18.3322 84.0171 18.4586 84.33 18.6994C84.7019 18.3022 85.222 18.0718 85.8187 18.0615C86.4597 18.0294 87.0954 18 87.7232 17.9746C88.3284 17.9497 88.947 17.9044 89.5617 17.8399L89.5872 17.8372L89.6127 17.8355C89.7322 17.8273 89.8492 17.8251 89.9603 17.8289C90.4324 17.8454 90.8437 17.9721 91.1854 18.2071C91.4493 18.3895 91.6669 18.6286 91.8361 18.9215C91.9558 18.6419 92.1174 18.3908 92.3161 18.1752C92.6619 17.7991 93.1288 17.5794 93.6672 17.5391C95.1145 17.4145 96.6133 17.148 98.0654 17.1987ZM98.3857 18.7612C98.3201 18.6773 98.1971 18.6322 98.0155 18.6259C96.7776 18.5827 95.4809 18.816 94.2477 18.9224C93.962 18.9471 93.5788 18.9117 93.3673 19.1417C93.147 19.3807 93.0991 19.643 93.0496 19.95C92.8808 21.9333 92.6038 23.9066 92.4953 25.8951C92.3141 25.7185 92.2319 25.5649 92.1985 25.332C91.708 23.5257 91.1718 21.7539 90.7139 19.8982C90.6346 19.6562 90.5215 19.4842 90.3736 19.382C90.2616 19.305 90.1073 19.263 89.9105 19.2561C88.5851 19.2098 87.1899 19.4226 85.8616 19.4892C85.5231 19.4888 85.3057 19.6512 85.209 19.9764C83.8033 24.2213 83.8444 29.1913 83.2722 33.6031C83.2355 33.8413 83.2258 34.0336 83.244 34.1792C83.2802 34.4716 83.4382 34.6058 83.7517 34.6306C84.9643 34.7371 86.3165 34.4381 87.5197 34.3013C87.8159 34.2695 88.0205 34.2114 88.1326 34.1266C88.2447 34.042 88.324 33.851 88.3705 33.5531C88.4978 32.8017 88.6182 32.0447 88.7304 31.282C88.8429 30.5202 88.9595 29.7515 89.0795 28.9771C89.1673 29.1608 89.2476 29.2844 89.2726 29.4232C89.4209 30.121 89.5708 30.809 89.7226 31.488C89.8735 32.1677 90.029 32.8553 90.1897 33.5518C90.2741 33.8225 90.3375 34.1559 90.6799 34.1722C90.8173 34.1781 90.955 34.1711 91.0921 34.1615C92.5064 34.0643 94.0132 34.1139 95.4093 33.8472C95.6366 33.8079 95.8014 33.7464 95.9011 33.6633C96.0019 33.5798 96.0855 33.4353 96.1522 33.2305C97.2874 28.709 97.7275 23.9708 98.4407 19.3669C98.4867 19.0694 98.4681 18.8675 98.3857 18.7612ZM83.4874 19.8553C83.4022 19.7616 83.1953 19.7259 82.8654 19.7484C81.4613 19.8451 80.0584 19.9591 78.6542 20.0556C78.3475 20.0766 78.1305 20.1416 78.0031 20.25C77.8753 20.3592 77.7817 20.5693 77.7222 20.8799C77.6477 21.3571 77.5914 21.7961 77.5414 22.2719C77.0691 26.2362 76.3607 30.1662 75.7928 34.1172C75.7368 34.5574 75.765 34.8438 75.8785 34.9776C75.9635 35.0781 76.1332 35.1327 76.3876 35.1416C77.7327 35.1885 79.1271 34.9663 80.4692 34.874C80.7047 34.8578 80.895 34.7947 81.0407 34.6848C81.1859 34.5746 81.3066 34.3986 81.4028 34.1556C82.1206 31.8608 82.2472 29.2853 82.5685 26.9133C82.8539 24.8063 83.1775 22.6623 83.5394 20.4801C83.589 20.1582 83.5715 19.9503 83.4874 19.8553ZM73.2915 20.4594C70.9487 19.9917 68.3464 20.5125 66.0188 20.8269C65.7507 20.8627 65.5495 20.9415 65.4141 21.0633C65.2789 21.1839 65.1859 21.3678 65.1359 21.6123C64.2178 26.1925 63.3946 30.9562 63.1578 35.6222C63.1539 35.7994 63.1926 35.9206 63.2763 35.9853C63.3405 36.0357 63.433 36.0629 63.5532 36.0671C69.2399 36.2657 67.0666 32.9324 71.1702 31.499C71.8416 31.2643 72.4553 30.9361 73.0105 30.5147C73.5657 30.0936 74.0404 29.5864 74.4357 28.9933C75.4975 27.398 75.7488 25.2258 75.6438 23.3394C75.5989 22.5763 75.3823 21.9424 74.9944 21.4386C74.606 20.9349 74.0384 20.6086 73.2915 20.4594ZM60.2696 21.3221C59.4243 21.2927 58.5764 21.3397 57.7452 21.5015C56.7108 21.7046 55.7181 22.1353 54.9235 22.836C54.1285 23.5591 53.4929 24.492 53.2108 25.5356C52.9442 26.5187 53.0317 27.5828 53.6374 28.4243C54.1661 29.1187 54.8752 29.6652 55.6371 30.0822C56.2211 30.4002 56.904 30.8228 57.2503 31.4124C57.4902 31.8201 57.4327 32.1159 57.1571 32.2416C57.0184 32.3036 56.8493 32.3067 56.6484 32.2495C55.8267 32.0488 55.1941 31.464 54.5386 30.9624C54.3447 30.814 54.2011 30.7392 54.1078 30.736L54.1017 30.7359C54.0076 30.7368 53.852 30.8386 53.6344 31.0419C52.8548 31.7687 52.2856 32.7456 51.711 33.6327C51.5736 33.8427 51.4725 34.0795 51.4086 34.3433C51.3443 34.607 51.3813 34.8168 51.521 34.9723C52.094 35.6399 52.7704 36.1093 53.5504 36.3795C54.3307 36.6502 55.2344 36.7797 56.2627 36.7683C57.0235 36.7517 57.775 36.605 58.5181 36.3301C59.8647 35.843 60.9068 34.6898 61.5536 33.4419C62.1524 32.2875 62.5193 30.8296 62.0855 29.5593C61.5812 28.1227 60.3229 27.7896 59.1242 27.1101C58.8232 27.0245 58.2968 26.8042 58.3578 26.4111C58.3845 26.2387 58.521 26.0724 58.7673 25.9145C58.9512 25.7969 59.1947 25.7102 59.4046 25.7176C59.7598 25.73 60.1221 25.8018 60.4722 25.8591C60.8025 25.9129 61.1305 25.9758 61.4579 26.048C61.6842 26.0914 61.848 26.0856 61.9502 26.0318C62.052 25.9776 62.1627 25.8284 62.2819 25.5844C62.6621 24.7808 63.0388 24.0066 63.4285 23.1532C63.5515 22.8898 63.7087 22.6417 63.7872 22.3595C63.8261 22.2214 63.8369 22.0965 63.819 21.9861C63.8012 21.8752 63.7263 21.7946 63.5938 21.7446C63.2078 21.6775 62.7849 21.6061 62.324 21.5318C61.6824 21.4276 60.99 21.3473 60.2696 21.3221Z" fill="#11162C"/>
<path d="M98.0154 18.6259C98.1969 18.6322 98.32 18.6773 98.3856 18.7612C98.468 18.8675 98.4866 19.0694 98.4406 19.3669C98.2361 20.6873 98.054 22.0188 97.8715 23.3531C97.4178 26.6708 96.9617 30.0059 96.1521 33.2305C96.0854 33.4353 96.0018 33.5798 95.901 33.6632C95.8012 33.7463 95.6365 33.8079 95.4092 33.8472C94.4584 34.0288 93.4564 34.0637 92.4671 34.0983C92.0037 34.1144 91.5431 34.1305 91.092 34.1615C90.9549 34.1711 90.8172 34.1781 90.6798 34.1722C90.3702 34.1574 90.2887 33.8835 90.2135 33.631C90.2056 33.6042 90.1977 33.5777 90.1896 33.5518C90.0289 32.8553 89.8733 32.1677 89.7225 31.488C89.5707 30.809 89.4208 30.121 89.2724 29.4232C89.2542 29.3217 89.2064 29.2283 89.1476 29.1136C89.126 29.0715 89.103 29.0264 89.0794 28.9771C88.9594 29.7515 88.8428 30.5202 88.7303 31.282C88.6181 32.0446 88.4977 32.8017 88.3704 33.553C88.3239 33.851 88.2446 34.042 88.1325 34.1266C88.0204 34.2114 87.8158 34.2695 87.5196 34.3013C87.1979 34.3378 86.8655 34.386 86.528 34.4349C85.6033 34.569 84.64 34.7086 83.7516 34.6306C83.4381 34.6058 83.28 34.4716 83.2439 34.1792C83.2256 34.0336 83.2354 33.8413 83.2721 33.6031C83.4464 32.2595 83.5638 30.8642 83.6824 29.4534C83.9535 26.2314 84.2313 22.9285 85.2089 19.9764C85.3056 19.6512 85.523 19.4888 85.8615 19.4892C86.3353 19.4654 86.8176 19.4231 87.3022 19.3805C88.1762 19.3037 89.0577 19.2263 89.9104 19.2561C90.1072 19.263 90.2615 19.305 90.3735 19.382C90.5214 19.4842 90.6345 19.6562 90.7138 19.8982C91.0103 21.1 91.3397 22.2666 91.6683 23.4301C91.847 24.0633 92.0255 24.6955 92.1984 25.332C92.2318 25.5649 92.314 25.7185 92.4952 25.8951C92.5613 24.6842 92.6898 23.4789 92.8184 22.2735C92.9009 21.4996 92.9835 20.7254 93.0495 19.9499C93.099 19.643 93.1469 19.3807 93.3672 19.1417C93.5384 18.9555 93.8221 18.9432 94.0755 18.9322C94.1351 18.9296 94.1931 18.9271 94.2476 18.9224C94.6263 18.8897 95.0111 18.8451 95.3982 18.8001C96.2717 18.6988 97.1577 18.5959 98.0154 18.6259Z" fill="#D86363"/>
<path d="M82.8653 19.7484C83.1951 19.7259 83.4021 19.7616 83.4872 19.8553C83.5713 19.9503 83.5889 20.1582 83.5393 20.4801C83.1774 22.6623 82.8538 24.8063 82.5684 26.9133C82.4852 27.5274 82.4151 28.1551 82.3444 28.788C82.1419 30.6 81.9347 32.4549 81.4027 34.1556C81.3065 34.3986 81.1858 34.5746 81.0405 34.6847C80.8948 34.7946 80.7046 34.8578 80.469 34.874C80.0386 34.9036 79.6027 34.9466 79.1649 34.9897C78.2376 35.0811 77.3012 35.1735 76.3875 35.1415C76.1331 35.1327 75.9634 35.078 75.8784 34.9776C75.7649 34.8438 75.7367 34.5574 75.7927 34.1171C76.0045 32.6433 76.2359 31.1724 76.4673 29.7016C76.8562 27.2295 77.2452 24.7573 77.5413 22.2718C77.5912 21.7961 77.6475 21.3571 77.7221 20.8798C77.7816 20.5693 77.8752 20.3592 78.003 20.25C78.1304 20.1416 78.3474 20.0766 78.6541 20.0556C79.3592 20.0071 80.0639 19.9542 80.7686 19.9014C81.4674 19.849 82.1662 19.7965 82.8653 19.7484Z" fill="#D86363"/>
<path fill-rule="evenodd" clip-rule="evenodd" d="M67.0755 20.6766C69.1159 20.3793 71.2976 20.0614 73.2914 20.4593C74.0383 20.6086 74.6059 20.9349 74.9943 21.4386C75.3822 21.9424 75.5988 22.5763 75.6437 23.3394C75.7487 25.2258 75.4974 27.398 74.4356 28.9932C74.0403 29.5863 73.5655 30.0936 73.0104 30.5147C72.4552 30.936 71.8414 31.2643 71.1701 31.499C70.4978 31.7338 69.8047 31.8584 69.0915 31.872C69.0578 32.0892 69.0245 32.3066 68.9911 32.5241C68.8727 33.2972 68.7542 34.0712 68.6145 34.8401C68.5386 35.1755 68.4305 35.4041 68.289 35.5261C68.1481 35.6473 67.9109 35.726 67.5794 35.7602C67.1124 35.7922 66.6384 35.8457 66.1622 35.8994C65.2903 35.9978 64.4108 36.097 63.5531 36.0671C63.4328 36.0629 63.3404 36.0357 63.2761 35.9853C63.1925 35.9206 63.1538 35.7994 63.1577 35.6222C63.3944 30.9562 64.2177 26.1925 65.1358 21.6123C65.1858 21.3678 65.2788 21.1839 65.414 21.0633C65.5494 20.9415 65.7506 20.8626 66.0187 20.8269C66.3655 20.78 66.7184 20.7286 67.0755 20.6766ZM69.5055 27.6165C69.8566 27.687 70.1493 27.661 70.3843 27.5384C70.8561 27.2939 71.1109 26.7898 71.1572 26.2743C71.2061 25.74 71.0183 25.3018 70.6283 25.1168C70.4321 25.0243 70.1848 25.0413 69.8853 25.1678L69.5055 27.6165Z" fill="#D86363"/>
<path d="M57.7451 21.5014C58.5763 21.3396 59.4242 21.2926 60.2695 21.3221C60.9899 21.3473 61.6822 21.4276 62.3239 21.5317C62.7848 21.6061 63.2077 21.6775 63.5936 21.7446C63.7262 21.7945 63.801 21.8752 63.8189 21.9861C63.8368 22.0965 63.826 22.2214 63.7871 22.3595C63.7324 22.556 63.6396 22.7359 63.5468 22.916C63.5063 22.9946 63.4657 23.0732 63.4283 23.1532C63.155 23.7519 62.888 24.3116 62.6217 24.8698C62.5085 25.1071 62.3952 25.3448 62.2818 25.5844C62.1626 25.8284 62.0518 25.9776 61.9501 26.0318C61.8479 26.0856 61.684 26.0914 61.4578 26.048C61.1304 25.9758 60.8024 25.9129 60.4721 25.8591C60.4104 25.849 60.3483 25.8385 60.2859 25.8279C59.9945 25.7783 59.6971 25.7278 59.4045 25.7176C59.1946 25.7102 58.9511 25.7969 58.7672 25.9145C58.5208 26.0723 58.3844 26.2387 58.3576 26.4111C58.2967 26.8042 58.823 27.0245 59.1241 27.1101C59.3667 27.2476 59.6118 27.371 59.8526 27.4922C60.8013 27.9697 61.6832 28.4135 62.0854 29.5593C62.5192 30.8296 62.1523 32.2875 61.5535 33.4419C60.9066 34.6897 59.8645 35.843 58.518 36.3301C57.7749 36.6049 57.0233 36.7517 56.2626 36.7683C55.2343 36.7796 54.3306 36.6502 53.5503 36.3795C52.7703 36.1092 52.0938 35.6399 51.5209 34.9723C51.3812 34.8168 51.3442 34.607 51.4085 34.3433C51.4723 34.0795 51.5734 33.8427 51.7109 33.6327C51.7941 33.5042 51.8772 33.3739 51.9608 33.2427C52.4547 32.4679 52.9676 31.6634 53.6343 31.0419C53.8519 30.8386 54.0075 30.7368 54.1016 30.7358L54.1077 30.736C54.201 30.7392 54.3446 30.814 54.5385 30.9624C54.643 31.0424 54.747 31.1245 54.8513 31.2069C55.4006 31.6408 55.9577 32.0808 56.6483 32.2495C56.8491 32.3067 57.0183 32.3036 57.157 32.2416C57.4325 32.1159 57.4901 31.8201 57.2502 31.4124C56.9039 30.8228 56.221 30.4002 55.637 30.0821C54.8751 29.6652 54.166 29.1187 53.6373 28.4243C53.0316 27.5828 52.9441 26.5187 53.2107 25.5356C53.4928 24.492 54.1284 23.559 54.9234 22.836C55.718 22.1353 56.7107 21.7046 57.7451 21.5014Z" fill="#D86363"/>
<path fill-rule="evenodd" clip-rule="evenodd" d="M94.7571 36.853C94.2798 36.6505 93.7738 36.5681 93.2538 36.5499C92.6511 36.5289 92.0299 36.5942 91.414 36.659C90.8087 36.7226 90.2084 36.7858 89.636 36.7658C89.5001 36.761 89.3657 36.7516 89.2332 36.7364C88.6358 37.0351 88.4922 38.5906 88.3663 39.9547C88.2967 40.7086 88.2325 41.4041 88.1001 41.7966C87.8382 43.2443 87.6111 44.7479 87.3815 46.2684C87.1846 47.5718 86.9859 48.8877 86.7617 50.1914C86.5938 50.7807 86.7415 50.9985 87.1218 51.0117C87.2602 51.0166 87.4294 50.9943 87.6254 50.953C87.7746 50.9425 87.9511 50.9422 88.1383 50.9419C88.8347 50.9408 89.6788 50.9395 89.8122 50.4064C90.2854 48.5159 90.3944 47.2435 90.3944 47.2435L91.5753 46.9398C91.5753 46.9398 93.7983 46.1354 94.0184 46.1024C96.1 45.711 96.4518 37.8777 94.7571 36.853ZM92.0365 44.0612C91.9728 44.4721 91.4592 44.7803 91.1201 44.7684C90.8657 44.7595 90.7094 44.5705 90.915 44.1096C90.9471 43.8906 91.0004 43.5142 91.0647 43.0598C91.2569 41.7027 91.5477 39.6496 91.6659 39.0124C91.7726 38.962 91.8672 38.94 91.9508 38.9429C93.0457 38.9811 92.2601 43.2919 92.0365 44.0612Z" fill="white"/>
<path d="M87.8006 37.8182C87.9601 37.0864 87.8288 36.8919 87.4715 36.8794C87.3173 36.874 87.121 36.9026 86.8878 36.9365C86.8062 36.9484 86.72 36.9609 86.6294 36.9729C86.1406 36.965 85.6633 37.0116 85.1911 37.0577C84.6917 37.1065 84.1979 37.1547 83.7022 37.1374C83.6221 37.1346 83.542 37.1301 83.4618 37.1236C82.512 37.236 82.4041 37.3422 82.3584 38.335C82.2875 38.7556 82.2214 39.1916 82.1545 39.6327C82.0562 40.2807 81.9562 40.94 81.8369 41.5779C81.5518 43.578 81.2027 45.7722 80.8686 47.8726C80.7678 48.506 80.6684 49.1309 80.5725 49.7393C80.227 51.0992 80.3865 51.416 80.8984 51.4338C81.0762 51.4401 81.2964 51.4102 81.5528 51.3755C81.8765 51.3316 82.2577 51.28 82.6836 51.2833C82.8449 51.2374 83.2262 51.228 83.6757 51.2169C84.7511 51.1903 86.2167 51.154 85.9917 50.5862C86.0106 50.4941 86.0288 50.4056 86.0463 50.3208C86.3815 48.6928 86.4475 48.3722 85.9324 48.3542C85.8061 48.3498 85.6447 48.3636 85.4437 48.3808C85.1122 48.4092 84.6728 48.4469 84.1049 48.427C84.051 48.4252 83.9958 48.4228 83.9395 48.4198C83.9825 47.9739 84.0574 47.5175 84.1323 47.0618C84.1842 46.7457 84.236 46.4299 84.2772 46.1182C84.3401 45.5694 84.3947 45.093 84.9298 45.1117C84.9766 45.1133 85.0271 45.1187 85.0815 45.1282L85.1403 45.1304C86.4409 45.1758 86.6948 44.9662 86.7044 43.6725C87.0367 42.7361 86.8571 42.4896 86.3997 42.4736C86.1957 42.4665 85.9363 42.5053 85.6425 42.5492C85.4957 42.5712 85.3403 42.5944 85.179 42.6139C85.1617 42.6154 85.1454 42.6159 85.1299 42.6154C84.7133 42.6008 84.8887 41.8435 85.0487 41.1528C85.1392 40.7622 85.2247 40.3929 85.1954 40.1914C85.2197 39.6308 85.757 39.649 86.2806 39.6667C86.5577 39.6761 86.8311 39.6853 87.0225 39.6085C87.0738 39.6234 87.1204 39.6311 87.163 39.6326C87.5616 39.6466 87.6013 39.1084 87.6388 38.6009C87.6627 38.277 87.6857 37.9655 87.8006 37.8182Z" fill="white"/>
<path fill-rule="evenodd" clip-rule="evenodd" d="M80.8507 43.6329C81.6033 39.3499 81.9028 37.6456 78.4726 37.5258C77.6327 37.4964 76.5686 37.5622 75.2334 37.7084C75.188 37.7042 75.1446 37.7013 75.103 37.6999C74.2163 37.669 74.1656 38.2597 74.1067 38.9451C74.0854 39.1933 74.063 39.4539 73.9994 39.702C73.9433 40.0465 73.8874 40.3878 73.8318 40.7271C73.5982 42.1532 73.3705 43.5426 73.1629 44.9799C73.081 45.5183 72.9974 46.0548 72.9134 46.5929C72.7644 47.5482 72.6146 48.5087 72.4725 49.4943C72.4704 49.7392 72.3962 50.0505 72.3188 50.3749C72.1798 50.9581 72.0307 51.5837 72.2721 51.9412C72.7307 51.921 73.162 51.9044 73.5678 51.8887C79.2353 51.6698 79.9373 51.6427 80.6545 44.7609C80.7218 44.3665 80.7879 43.9907 80.8507 43.6329ZM76.9167 48.5966C76.8409 49.0535 76.2665 49.4609 75.911 49.4485C75.6841 49.4406 75.5463 49.2616 75.6842 48.8153C76.0098 46.9847 76.2708 45.2081 76.5351 43.4089C76.7054 42.2495 76.8771 41.0808 77.0683 39.8823C77.2317 39.8419 77.3718 39.8256 77.4915 39.8298C78.3927 39.8612 78.1383 41.055 77.962 41.8818C77.9415 41.9782 77.922 42.0696 77.9056 42.1536C77.8208 43.0371 77.6722 43.9178 77.524 44.7956C77.3961 45.553 77.2686 46.3083 77.1828 47.0615C77.127 47.3278 77.0849 47.5959 77.0429 47.8632C77.0042 48.1089 76.9657 48.354 76.9167 48.5966Z" fill="white"/>
<path d="M73.344 38.9357C73.6818 38.0772 73.4838 37.9133 73.0605 37.8985C72.9502 37.8947 72.8248 37.901 72.6895 37.9077C72.5314 37.9156 72.36 37.9242 72.1839 37.918L72.1804 37.9179C72.0765 38.0065 71.853 38.0016 71.6199 37.9965C71.2349 37.9881 70.8236 37.9791 70.8806 38.3892C70.8081 38.7529 70.7519 39.1225 70.6963 39.488C70.6186 39.9986 70.5421 40.5013 70.4243 40.969C70.3908 41.1296 70.3451 41.5105 70.291 41.9612C70.1687 42.9805 70.0035 44.357 69.8396 44.3513C69.7808 44.3493 69.7222 44.1693 69.6658 43.7316C69.5204 42.9301 69.4247 42.119 69.3313 41.3267C69.201 40.2214 69.0749 39.1525 68.8241 38.1969C68.4386 38.233 68.0959 38.2394 67.7937 38.245C66.5699 38.2679 66.0088 38.2783 65.9552 40.1977C65.7833 41.4635 65.5771 42.7544 65.3696 44.053C65.1299 45.5534 64.8885 47.0643 64.6965 48.559C64.7259 48.8462 64.591 49.4181 64.4442 50.0411C64.1725 51.1938 63.8596 52.5211 64.4692 52.5424C64.4836 52.5429 64.4986 52.5427 64.514 52.5417C64.8508 52.477 65.1719 52.4678 65.4629 52.4595C66.2957 52.4357 66.8819 52.419 66.8862 51.1282C66.9577 50.662 67.0264 50.1977 67.0948 49.7359C67.2692 48.559 67.441 47.3988 67.6493 46.2658C67.6893 46.118 67.7263 46.0535 67.7607 46.0548C67.9037 46.0599 68.0029 47.1956 68.0915 48.2092C68.1524 48.9066 68.2083 49.5463 68.27 49.7205C68.3554 50.0235 68.3688 50.3925 68.382 50.7551C68.4098 51.5223 68.4366 52.2609 69.1428 52.2856C69.275 52.2902 69.431 52.2698 69.6153 52.2198C69.8498 52.1496 70.119 52.1364 70.3782 52.1236C71.0046 52.0927 71.5732 52.0647 71.4564 51.2436C71.6291 50.0968 71.8164 48.9499 72.0036 47.8036C72.3403 45.7414 72.6767 43.6813 72.9273 41.6276C73.1284 40.7201 73.2516 39.8353 73.344 38.9357Z" fill="white"/>
<path fill-rule="evenodd" clip-rule="evenodd" d="M63.7369 40.1114C63.8422 38.9251 63.8696 38.6161 63.1749 38.5918C62.9302 38.5833 62.5958 38.6101 62.1436 38.6464C61.5393 38.6949 60.7246 38.7602 59.6323 38.7805C59.6188 38.7788 59.6055 38.7777 59.5922 38.7772C58.901 38.7531 58.5453 40.4537 58.2648 41.7947C58.1448 42.368 58.0386 42.8756 57.9259 43.1546C57.3537 45.0558 56.8553 46.9371 56.3564 48.8203C56.0219 50.083 55.695 51.349 55.3367 52.6052C55.2514 52.9042 55.1796 53.1559 55.4752 53.1662C56.2652 53.1938 57.062 52.9867 57.8609 53.0179C58.5852 53.0096 58.6867 52.3372 58.7854 51.6839C58.8437 51.2978 58.8662 50.2974 59.3972 50.316C59.679 50.3259 59.9494 50.2378 60.2252 50.2474C60.3404 50.2514 60.4167 50.2978 60.4032 50.4385C60.3697 50.7754 60.3336 51.0679 60.3023 51.321C60.1655 52.4282 60.1218 52.7816 60.7978 52.8052C61.1147 52.8163 61.5899 52.7548 62.2877 52.6645C62.7951 52.5988 63.7103 52.7275 63.4041 51.9119C63.5116 51.2643 63.4969 50.5528 63.4834 49.8957C63.4813 49.798 63.4794 49.7015 63.4778 49.6067C63.5739 47.5102 63.6112 45.403 63.6025 43.3179C63.5828 41.8488 63.6738 40.8225 63.7369 40.1114ZM59.7893 47.9259C59.3389 47.9101 59.3524 47.7225 59.6919 46.7459C60.0743 45.1553 60.5043 43.5539 60.9284 41.9748L60.9571 41.8677C61.262 41.8824 61.1461 42.5202 61.0413 43.0962C60.9869 43.3958 60.9355 43.6786 60.9479 43.8485C60.8755 45.1457 60.7828 46.563 60.6839 47.899C60.2847 47.9056 59.9907 47.9329 59.7893 47.9259Z" fill="white"/>
<path d="M54.5848 39.7385C54.7223 39.2877 54.5206 39.1522 54.1841 39.1405C53.9676 39.1329 53.6953 39.1766 53.4217 39.2205C53.1457 39.2648 52.8684 39.3092 52.6459 39.3015C52.5417 39.2978 52.4495 39.2827 52.3751 39.2508C52.273 39.3051 52.1352 39.3215 51.9975 39.338C51.7084 39.3726 51.4196 39.4071 51.4614 39.7909C51.3819 40.2639 51.3106 40.7533 51.2389 41.2455C51.124 42.0337 51.0081 42.8288 50.8562 43.5743C50.6158 45.3674 50.3322 47.1388 50.0534 48.8801C49.8453 50.1793 49.64 51.4617 49.4573 52.7239C49.2522 53.3588 49.4142 53.5566 49.7709 53.5691C49.948 53.5753 50.173 53.5358 50.4248 53.4814C50.8811 53.4929 51.3688 53.4517 51.8265 53.4131C52.0572 53.3936 52.2802 53.3748 52.4878 53.3637C52.707 53.2774 52.9918 53.2803 53.2829 53.2905L53.4364 53.296C53.9484 53.3139 54.4477 53.3097 54.6125 52.8391C54.605 52.5487 54.6777 52.203 54.75 51.859C54.8581 51.3445 54.9655 50.8337 54.8029 50.5175C54.5083 50.5332 54.2507 50.5604 54.0291 50.5839C53.7784 50.6105 53.5737 50.6321 53.4138 50.6265C52.9219 50.6094 52.8521 50.3345 53.1636 49.1516C53.3132 48.022 53.4982 46.8579 53.6819 45.7023C53.8181 44.845 53.9536 43.9924 54.0734 43.1619C54.1342 42.7315 54.2047 42.3053 54.2756 41.8764C54.3907 41.1804 54.507 40.4775 54.5848 39.7385Z" fill="white"/>
<path d="M93.694 46.653C93.6844 46.6509 93.6726 46.6497 93.6588 46.6492C93.304 46.6369 91.6061 47.1365 91.6061 47.1365C91.6061 47.1365 91.2361 49.1568 91.0483 50.4891C91.0587 50.6555 91.1934 50.7121 91.383 50.7187C91.5424 50.7243 91.7407 50.6945 91.9365 50.6652C92.1275 50.6365 92.3162 50.6082 92.4642 50.6134C92.5239 50.6155 92.577 50.623 92.6209 50.6381C93.4843 50.6078 93.8764 50.5093 94.1034 49.4772C94.1298 49.3033 94.21 49.089 94.2974 48.8554C94.5886 48.0769 94.9601 47.0835 93.694 46.653Z" fill="white"/>
<path d="M43.4174 64.7909C43.1588 64.7819 42.941 64.599 42.8878 64.3464L42.882 64.3192L42.6293 61.5521C42.5833 61.3574 42.5211 61.352 42.4555 61.3469L39.1373 61.0101C38.8766 60.9894 38.6658 60.7862 38.6345 60.5172C38.6034 60.2482 38.762 60.0025 39.0207 59.9195L42.2982 58.978C42.3241 58.9696 42.6882 58.8395 42.8232 58.3819C42.9457 57.9666 43.5428 55.385 43.8415 54.0777C43.8759 53.8314 44.1241 53.6252 44.4114 53.6352C44.6704 53.6443 44.8884 53.8272 44.9415 54.0803L44.948 54.1126L45.2438 58.4102C45.2811 58.5398 45.4023 58.6315 45.5468 58.6366C45.5468 58.6366 67.3026 57.9809 67.3033 57.9809C67.6211 57.992 67.8463 58.2222 67.8511 58.5056C67.8558 58.7895 67.637 59.0275 67.3531 59.0473L45.4828 61.3173C45.406 61.323 45.2205 61.336 45.0068 61.7798L43.981 64.3766C43.915 64.6274 43.6868 64.8004 43.4174 64.7909Z" fill="#FFC935"/>
<path d="M44.3945 54.1106C44.4307 54.1119 44.4661 54.134 44.4753 54.1776L44.7712 58.4814C44.8441 58.8398 45.1594 59.099 45.5298 59.112C45.544 59.1125 45.5584 59.1126 45.5728 59.1124L67.3152 58.4566C67.3165 58.4566 67.3177 58.4566 67.319 58.4566C67.3918 58.4592 67.3952 58.5666 67.3203 58.5718L45.4335 60.8437C45.0405 60.8712 44.7721 61.1694 44.5778 61.5729L43.5236 64.2387C43.5184 64.2903 43.4755 64.3164 43.4338 64.315C43.3978 64.3137 43.3627 64.2919 43.3534 64.2481L43.1003 61.4783C43.0283 61.1374 42.8489 60.9008 42.4938 60.8722L39.1853 60.5361C39.0919 60.5284 39.0769 60.4012 39.1659 60.3725L42.4295 59.4354C42.7198 59.3412 43.1204 59.0553 43.2796 58.5162C43.4387 57.977 44.3054 54.1832 44.3054 54.1832C44.3126 54.1337 44.354 54.1092 44.3945 54.1106ZM44.4277 53.1592C43.9169 53.1413 43.4735 53.4943 43.3733 53.9885C43.0273 55.5027 42.4766 57.8734 42.3665 58.2466C42.3072 58.4474 42.1691 58.5157 42.1407 58.5278L38.9031 59.4575L38.8884 59.4617L38.8739 59.4664C38.4046 59.6176 38.105 60.0822 38.1614 60.5711C38.2179 61.0603 38.6158 61.4446 39.1075 61.4849L42.1734 61.7965L42.4054 64.3347L42.4104 64.3904L42.422 64.4451C42.5208 64.912 42.9232 65.2497 43.4006 65.2664C43.8761 65.283 44.2944 64.9739 44.4301 64.5354L45.449 61.9586C45.4966 61.8643 45.5345 61.8132 45.5562 61.7881L67.4112 59.5195C67.9356 59.4703 68.3358 59.0262 68.3269 58.4975C68.3179 57.9599 67.8898 57.524 67.3523 57.5052L67.33 57.5044L67.3038 57.5046L45.7031 58.156L45.4251 54.1123L45.4206 54.0467L45.4071 53.9823C45.309 53.5144 44.9063 53.1759 44.4277 53.1592Z" fill="black"/>
<path d="M139.246 27.4864C137.768 23.9854 135.031 21.1703 131.332 19.3448C127.81 17.607 123.738 16.9228 119.554 17.3662C117.605 17.5724 115.678 18.0244 113.823 18.7094C108.88 20.5351 104.885 23.8441 102.575 28.0267C100.187 32.3503 99.8669 37.0863 101.673 41.3631C103.151 44.8639 105.888 47.6795 109.587 49.5047C113.109 51.2421 117.181 51.9261 121.367 51.4829C123.313 51.2767 125.24 50.8247 127.096 50.1398C132.039 48.3142 136.033 45.0049 138.344 40.8225C140.731 36.4988 141.052 31.7631 139.246 27.4864Z" fill="#11162C"/>
<path d="M126.323 48.312C135.714 44.8442 140.7 35.8156 137.461 28.1459C134.222 20.4762 123.985 17.0701 114.595 20.538C105.205 24.0059 100.219 33.0346 103.458 40.7041C106.697 48.3738 116.934 51.7799 126.323 48.312Z" fill="url(#paint1_linear_530_33073)"/>
<path d="M103.915 43.0447C103.915 43.0447 104.982 43.9702 108.457 43.8575C112.73 43.9118 117.959 42.2359 120.806 40.9715C123.652 39.7073 126.505 37.3916 125.129 36.5324C123.502 35.4783 119.688 35.941 117.017 35.8302C114.346 35.7194 109.403 36.1953 109.114 33.4678C108.825 30.7399 113.178 26.3601 118.94 24.0522C124.7 21.7444 128.996 20.9327 134.242 20.4501C142.475 19.6925 147.995 21.8817 147.995 21.8817L136.801 25.7407C136.801 25.7407 135.725 24.8572 132.487 24.742C129.25 24.6267 125.952 25.2772 121.547 26.9656C117.143 28.6541 113.917 31.1609 116.328 31.8348C118.739 32.5086 122.264 32.1103 126.4 32.1411C130.536 32.1717 134.054 33.0091 133.967 35.641C133.867 38.6874 127.598 42.7645 123.486 44.4938C119.374 46.2232 115.571 47.3963 109.724 48.0142C103.877 48.6322 96.5551 48.6487 93.063 47.226L103.915 43.0447Z" fill="#FFC935"/>
<path d="M148.219 21.2483C147.988 21.1565 142.445 19.0047 134.139 19.769C129.018 20.2426 124.643 21.0144 118.649 23.416C112.675 25.809 108.089 30.3347 108.425 33.5034C108.737 36.4497 112.735 36.4744 115.654 36.4923C116.15 36.4954 116.618 36.498 117.024 36.515C117.772 36.5458 118.58 36.5334 119.434 36.5204C121.469 36.4895 123.774 36.4545 124.781 37.1069C124.786 37.1094 124.789 37.1117 124.792 37.1135C124.749 37.6167 123.152 39.1641 120.494 40.3446C118.068 41.4215 112.798 43.2305 108.395 43.1734C105.364 43.2721 104.353 42.5407 104.351 42.541L103.971 42.2114L90.5939 47.276C90.5939 47.276 90.5487 47.7064 94.9409 48.6238C99.333 49.5412 105.839 49.0661 109.409 48.7347L109.823 48.6967C109.924 48.6874 110.028 48.6772 110.133 48.6659C113.627 48.2958 119.558 46.9039 123.783 45.1268C127.278 43.6568 134.534 39.4188 134.656 35.7005C134.685 34.8086 134.385 34.0332 133.766 33.3945C132.543 32.136 130.052 31.484 126.366 31.4564C125.121 31.4472 123.949 31.4758 122.818 31.5038C120.269 31.5665 118.069 31.6206 116.48 31.1765C116.333 31.1354 116.249 31.0948 116.203 31.0683C116.358 30.5134 118.258 28.9737 121.825 27.6064C126.108 25.9646 129.299 25.3126 132.498 25.4265C135.361 25.5284 136.374 26.2582 136.375 26.2582L136.688 26.5158L149.964 21.9395L148.219 21.2483ZM136.851 24.9859C136.262 24.6676 134.938 24.1459 132.472 24.0581C129.078 23.937 125.728 24.6154 121.266 26.3256C120.583 26.5873 114.602 28.9468 114.817 31.174C114.852 31.5351 115.073 32.1867 116.172 32.4938C117.966 32.9955 120.264 32.9391 122.926 32.8736C124.047 32.846 125.206 32.8176 126.43 32.8267C130.522 32.8569 132.15 33.654 132.795 34.3171C133.138 34.671 133.29 35.0732 133.274 35.5829C133.195 37.9942 127.894 41.8816 123.185 43.8622C119.007 45.6194 112.897 47.0388 109.621 47.333L109.206 47.3715C102.804 48.1055 97.5138 47.8543 94.7732 47.0875L103.93 43.8386C104.574 44.1635 105.951 44.6268 108.483 44.5439C113.09 44.6034 118.591 42.7217 121.114 41.6006C122.843 40.8331 126.125 38.9249 126.174 37.1976C126.189 36.6913 125.939 36.2514 125.483 35.9668C124.113 35.0792 121.686 35.1159 119.339 35.1519C118.504 35.1645 117.715 35.1766 117.007 35.1472C116.576 35.1293 116.095 35.1265 115.588 35.1234C112.629 35.1048 109.961 34.9621 109.799 33.434C109.561 31.1849 113.541 26.9676 119.225 24.69C125.07 22.3482 129.34 21.5917 134.339 21.133C139.427 20.6647 143.481 21.3543 145.754 21.9168L136.851 24.9859Z" fill="#11162C"/>
<path d="M104.013 35.2693C104.013 35.2693 102.782 28.0179 113.677 22.1223C118.874 19.7112 123.229 20.5704 123.229 20.5704C123.229 20.5704 118.497 21.4317 112.785 25.0203C106.005 29.3565 104.013 35.2693 104.013 35.2693Z" fill="#E26A81"/>
<path d="M111.005 33.426C110.149 31.8786 114.284 27.3402 119.414 25.4278C115.763 27.8245 112.335 30.7005 112.148 32.5476C112.031 33.8126 115.622 34.3641 115.622 34.3641C115.622 34.3641 111.634 34.5629 111.005 33.426Z" fill="#FFE8B0"/>
<path d="M108.489 45.3683C108.489 45.3683 119.832 44.7256 126.003 39.4156C125.557 40.8908 124.366 42.7553 118.05 44.4799C111.734 46.2044 108.489 45.3683 108.489 45.3683Z" fill="#FFE8B0"/>
<path d="M123.96 29.2145C123.96 29.2145 131.484 24.7236 137.679 28.6971C138.825 30.6358 138.372 34.425 138.372 34.425C138.372 34.425 136.539 27.6903 123.96 29.2145Z" fill="#E26A81"/>
<path d="M102.583 37.5221C102.583 37.5221 103.978 41.7924 121.049 38.091C117.383 40.7833 111.813 42.879 103.978 41.7924C102.928 39.9922 102.583 37.5221 102.583 37.5221Z" fill="#E26A81"/>
</g>
<defs>
<linearGradient id="paint0_linear_530_33073" x1="112.705" y1="49.55" x2="127.476" y2="20.7409" gradientUnits="userSpaceOnUse">
<stop stop-color="#D86363"/>
<stop offset="1" stop-color="#9D174D"/>
</linearGradient>
<linearGradient id="paint1_linear_530_33073" x1="112.705" y1="49.55" x2="127.476" y2="20.7409" gradientUnits="userSpaceOnUse">
<stop stop-color="#D86363"/>
<stop offset="1" stop-color="#9D174D"/>
</linearGradient>
<clipPath id="clip0_530_33073">
<rect width="113.833" height="64" fill="white" transform="translate(37 6)"/>
</clipPath>
</defs>
</svg>
