<svg width="188" height="76" viewBox="0 0 188 76" fill="none" xmlns="http://www.w3.org/2000/svg">
<g clip-path="url(#clip0_530_33079)">
<path d="M47.8426 26.6839C47.8426 26.6839 48.974 24.8061 47.4389 23.955C47.4389 23.955 45.1079 22.7409 42.8906 22.809C42.8906 22.809 43.6468 19.1611 48.2463 17.8448C48.2463 17.8448 44.0846 16.9768 40.2753 17.6576C40.2753 17.6576 36.7503 18.6788 34.7036 20.7212C34.7036 20.7212 31.5766 24.6926 31.4629 26.1677L47.8426 26.6839Z" fill="#686868"/>
<path fill-rule="evenodd" clip-rule="evenodd" d="M48.3266 17.4562C48.3267 17.4563 48.3268 17.4563 48.2454 17.845L48.3266 17.4562L49.9005 17.7845L48.3551 18.2268C46.1515 18.8573 44.885 20.0391 44.1675 21.0502C43.8071 21.5581 43.5832 22.0259 43.4501 22.3639C43.4428 22.3826 43.4357 22.4009 43.4288 22.4188C44.4191 22.4707 45.3821 22.7263 46.1248 22.9811C46.568 23.1332 46.9397 23.2874 47.2014 23.4039C47.3324 23.4622 47.4361 23.5113 47.5077 23.5461C47.5436 23.5635 47.5715 23.5774 47.5907 23.5871C47.6003 23.5919 47.6078 23.5958 47.6131 23.5985L47.6193 23.6017L47.6218 23.6029C47.6219 23.603 47.6222 23.6031 47.438 23.9552L47.6218 23.6029L47.6268 23.6055L47.6313 23.6081C48.0944 23.8648 48.3776 24.214 48.5219 24.6027C48.6628 24.9821 48.6608 25.3702 48.6086 25.7006C48.5563 26.032 48.4501 26.3266 48.3598 26.535C48.3142 26.6403 48.2714 26.7261 48.2396 26.7866C48.2236 26.8169 48.2102 26.841 48.2005 26.8583C48.1982 26.8622 48.1962 26.8658 48.1943 26.869C48.1922 26.8728 48.1902 26.8761 48.1886 26.8789C48.1871 26.8815 48.1859 26.8836 48.1849 26.8852L48.1836 26.8873L48.1832 26.8881C48.1831 26.8882 48.1828 26.8887 47.8417 26.6841L48.1828 26.8888L48.0625 27.0884L31.0332 26.5516L31.0652 26.1373C31.1006 25.6776 31.3559 25.0875 31.6649 24.508C31.9834 23.9109 32.3934 23.2633 32.795 22.6693C33.1975 22.0741 33.5957 21.5264 33.893 21.1278C34.0418 20.9284 34.1656 20.766 34.2524 20.6532C34.2957 20.5967 34.3299 20.5527 34.3532 20.5227C34.3649 20.5077 34.374 20.4961 34.3801 20.4883L34.3897 20.4761C34.3897 20.4761 34.3898 20.476 34.7027 20.7214L34.3897 20.4761L34.4045 20.4574L34.4213 20.4406C35.4948 19.3693 36.9388 18.5797 38.0927 18.0615C38.6734 17.8008 39.1886 17.6053 39.5592 17.4748C39.7446 17.4095 39.8942 17.3603 39.9981 17.3273C40.0501 17.3107 40.0907 17.2982 40.1186 17.2898C40.1326 17.2855 40.1435 17.2823 40.151 17.2801L40.1597 17.2775L40.1622 17.2768L40.1633 17.2765C40.1633 17.2764 40.1634 17.2764 40.2744 17.6578L40.1633 17.2765L40.1836 17.2706L40.2042 17.2669C42.1573 16.9178 44.1889 16.967 45.7229 17.1005C46.492 17.1674 47.1405 17.2558 47.5976 17.3277C47.8262 17.3637 48.0071 17.3956 48.1316 17.4185C48.1938 17.43 48.242 17.4393 48.2748 17.4458C48.2913 17.4491 48.3039 17.4516 48.3126 17.4534L48.3227 17.4554L48.3266 17.4562ZM40.3662 18.0448C40.3616 18.0462 40.3562 18.0479 40.35 18.0497C40.3253 18.0572 40.2881 18.0687 40.2398 18.0841C40.1429 18.1148 40.0011 18.1614 39.8241 18.2238C39.4698 18.3485 38.9758 18.536 38.4194 18.7858C37.3057 19.286 35.9728 20.0225 35.001 20.9854C34.9959 20.9919 34.9895 21.0002 34.9818 21.01C34.9593 21.0389 34.9262 21.0816 34.8838 21.1367C34.7991 21.2468 34.6777 21.4062 34.5315 21.6021C34.239 21.9943 33.8484 22.5316 33.4549 23.1136C33.0605 23.6968 32.6675 24.3187 32.3676 24.8811C32.1809 25.2312 32.042 25.5372 31.9565 25.7861L47.6027 26.2792C47.6113 26.2605 47.6202 26.2406 47.6292 26.2197C47.7031 26.0494 47.7838 25.8213 47.8224 25.5769C47.8612 25.3315 47.8542 25.0905 47.7755 24.8786C47.7006 24.6768 47.5509 24.4734 47.2497 24.3051C47.246 24.3032 47.2399 24.3001 47.2319 24.2961C47.216 24.2881 47.1916 24.2759 47.1593 24.2603C47.0949 24.2289 46.9992 24.1837 46.877 24.1292C46.6323 24.0203 46.2827 23.8752 45.866 23.7322C45.0263 23.4441 43.9415 23.1742 42.902 23.2061L42.3978 23.2216L42.5 22.7288L42.8897 22.8092C42.5 22.7288 42.5 22.729 42.5 22.7288L42.5002 22.7277L42.5005 22.7264L42.5012 22.7226C42.5019 22.7197 42.5027 22.7159 42.5038 22.7112C42.5059 22.7019 42.5089 22.6891 42.5129 22.6731C42.5207 22.6411 42.5325 22.5961 42.5489 22.5395C42.5816 22.4265 42.633 22.2671 42.7093 22.0734C42.8618 21.6862 43.1144 21.1598 43.5179 20.5912C44.1488 19.7022 45.1439 18.7173 46.6841 18.0011C46.3764 17.9625 46.03 17.9244 45.6538 17.8917C44.1605 17.7618 42.216 17.7173 40.3662 18.0448Z" fill="#141414"/>
<path d="M47.7799 26.0543L41.4691 24.5225H35.9713L31.4059 26.1677L30.0413 26.8485L26.3459 29.0044L24.5378 30.6723L23.6168 33.0325L21.337 34.4962L19.3641 36.8279L17.8177 38.025L17.4766 38.8193L17.8745 39.5001L19.5802 40.4078L21.6269 41.1454H25.5044L29.1317 40.6915L34.0211 38.6491L36.7729 36.5443L38.2284 33.9969L38.9675 32.7488L39.6441 32.8339L39.8771 33.4863L40.2752 34.8479L40.1046 37.0605L39.0813 39.1484L38.0579 40.5213L36.6365 41.3723L35.1583 42.1098L34.4192 42.6204L34.9308 42.9041H36.068L38.6832 42.1666L40.9005 40.7482L42.2651 39.7838L44.4824 39.2164L45.7957 39.6249L46.6428 39.9539L47.0408 41.0886L46.8703 43.0743L46.2449 44.3225L45.392 45.2302V45.911L45.9038 46.535L46.4723 46.762L47.7799 46.6031L49.1729 46.3875L49.8836 46.4216L52.6694 43.4147L54.4887 39.8972L55.2278 37.7414L55.4552 35.2451L55.3415 33.2027L54.7162 31.841L55.7964 29.288L56.0807 26.0543L55.4552 25.0331L54.1476 26.3379L51.1343 28.3803L49.2581 27.0187L47.7799 26.0543Z" fill="#72939B"/>
<path d="M46.2555 32.8511L48.0066 33.7134L49.3142 35.2452L50.0875 36.777L50.2239 38.4223V40.2605C50.2239 40.2605 54.8178 39.1031 53.9706 32.8057L55.8525 29.2882L55.5682 26.9962L55.5114 25.0332C55.5114 25.0332 53.8171 29.9293 51.054 31.393C51.054 31.393 40.1607 23.5808 29.8132 28.7039C29.8132 28.7039 37.2043 26.86 39.1374 28.8968C39.1374 28.8968 34.3047 28.5506 32.5422 29.345C32.5422 29.345 30.6092 30.0257 28.8467 31.6142C27.0842 33.2028 25.3786 35.075 23.3887 34.7914C23.3887 34.7914 23.6161 36.1529 25.8903 35.6423C28.1644 35.1317 27.9996 34.502 27.9996 34.502L29.4437 33.5716L29.8132 33.9971L31.3369 33.8609L33.4235 32.8511L34.1455 32.6468L35.3167 32.7716L36.2491 32.5163L37.4829 31.7618L38.4324 30.7633L39.5239 30.3094L40.5189 30.7633L41.3205 31.5859C41.3205 31.5859 41.8891 32.9532 46.2555 32.8511Z" fill="#608189"/>
<path d="M33.9069 30.4229L33.2304 30.593L31.8602 31.1036L30.5526 32.4653L29.3643 34.0538L31.6328 33.9404L33.4237 32.8511L34.1003 31.2512L33.9069 30.4229Z" fill="#282828"/>
<path d="M45.3855 30.8595C45.3855 30.8595 43.2308 30.139 42.4917 30.139C42.4917 30.139 40.3881 28.4029 39.6205 28.5334L40.8429 29.5149L41.9232 30.4226C41.9232 30.4226 40.1948 29.1178 38.8985 29.5149C38.8985 29.5149 38.1708 29.7418 37.6022 30.4794C37.6022 30.4794 35.9534 32.2948 34.9869 31.7275C34.0203 31.1602 35.834 30.1843 35.834 30.1843L36.8289 29.5149C36.8289 29.5149 34.6913 29.2312 33.3609 29.5149C33.3609 29.5149 29.9268 30.0822 29.6426 32.9756L31.2117 31.1374L33.8782 30.1786L34.1284 30.7517L33.8782 32.1586L34.1454 32.6466L34.805 32.7601L36.1069 32.6466L37.1985 32.0225L37.9547 31.285L38.5573 30.6666L38.9724 30.3091L39.666 30.3602L40.3425 30.5361L41.3034 31.5006C41.3034 31.5006 42.2131 33.0891 46.0223 32.7487L45.3855 30.8595Z" fill="#495C60"/>
<path d="M50.2238 37.2873C50.2238 37.2873 50.9629 32.9188 46.9263 32.1245C46.9263 32.1245 44.1404 28.21 42.8896 28.21L45.3742 31.2622L46.2554 32.8507L47.6483 33.3613L48.9332 34.5982L49.877 36.2661L50.2238 37.2873Z" fill="#495C60"/>
<path d="M55.2724 25.4868C55.2724 25.4868 54.4537 30.956 52.623 32.6466C52.623 32.6466 54.0159 34.4791 53.9478 35.6421C53.9193 36.1527 54.5447 32.0112 54.5447 32.0112L55.6079 29.8553L56.0343 27.569L55.2724 25.4868Z" fill="#495C60"/>
<path d="M17.5332 37.9965C17.5332 37.9965 20.6659 39.9538 25.4928 35.8973L27.1984 35.3017L28.9041 33.9968H30.7803L32.9976 33.2025L33.9641 32.6352L35.0216 32.8508L36.4657 32.5217L37.6596 31.5572L38.9673 30.3091L40.2181 30.4226L41.1846 31.5005C41.1846 31.5005 41.8384 32.1813 43.3281 32.5501C44.8233 32.9189 46.2561 32.8508 46.2561 32.8508L48.0072 33.7131L49.3148 35.2449L50.2245 37.2873V40.2602L49.4853 41.7125L48.2346 44.1521L45.9604 46.5349L45.1644 45.3945L45.5624 44.7761L46.5232 43.8571L47.0349 41.6785L47.0918 40.4077L46.637 39.7268L45.6705 39.2162H44.5333L42.1113 39.9311L39.1379 41.9111L35.3855 43.0742L34.7032 42.7337L34.9875 42.053L36.6931 41.3721L38.467 39.9595C38.467 39.9595 39.6382 38.2235 39.6438 38.1213C39.6495 38.0249 40.1783 36.0732 40.1783 36.0732L39.9338 33.4862L39.7007 32.8337L39.0242 32.7486L38.7456 33.2536L37.6085 35.3471L36.0222 37.2249L32.9067 39.0858L29.6034 40.4644L24.4126 41.3721L20.0689 40.5268L17.9312 39.5L17.5332 37.9965Z" fill="#BEE8F1"/>
<path d="M50.969 27.7846C50.4345 27.3705 48.0466 25.555 47.1768 25.4302C47.1654 25.4302 47.1483 25.4245 47.1369 25.4188C46.7674 25.2884 40.9285 23.2403 36.4143 24.0062C36.4086 24.0062 36.4029 24.0062 36.4029 24.0062C36.2209 24.0516 32.19 24.9877 30.8482 25.85C30.8482 25.85 27.4825 27.9208 26.6296 28.4314C26.6296 28.4314 26.6182 28.437 26.5955 28.4541C25.2765 29.271 24.2304 30.4568 23.5822 31.8694C23.5311 31.9829 23.4856 32.0851 23.4458 32.1758C23.1615 32.8567 22.593 33.5941 22.4224 33.7076C22.2803 33.804 21.7288 34.3033 21.3933 34.4905C21.2171 34.587 21.0465 34.6948 20.8816 34.8082C20.3472 35.1997 19.3636 35.9259 19.2386 36.0847C19.068 36.3117 17.9878 37.2194 17.8741 37.2762C17.7603 37.3329 16.8507 37.8605 17.0212 38.4449C17.0212 38.4449 17.4761 40.3398 19.4091 40.7369C21.3422 41.134 21.1147 41.4744 24.4123 41.361C24.4123 41.361 29.984 41.1908 32.1445 39.9426C34.2026 38.7512 35.8457 37.6165 35.9992 37.5088C36.0049 37.5031 36.0163 37.4974 36.022 37.4917C36.1755 37.3499 38.0687 35.5798 38.5122 34.2182C38.5122 34.2126 38.5179 34.2069 38.5179 34.2012C38.5633 34.0934 39.0921 32.9077 39.3081 32.9587C39.5355 33.0155 39.7061 33.4693 39.7061 33.5261C39.7061 33.5828 40.5589 35.9089 39.9904 37.0435C39.4219 38.1782 39.1945 39.3639 37.5571 40.3851C37.5514 40.3908 37.5457 40.3965 37.54 40.3965C37.4092 40.5214 33.2247 42.7339 33.3384 42.3368C33.3669 42.229 33.2816 42.9609 33.3384 43.0743C33.4635 43.3182 33.111 42.8587 34.0776 42.9609C34.106 42.9665 34.6233 43.2275 34.6461 43.2445C34.7769 43.3467 36.0333 43.5793 38.9613 42.3368C38.967 42.3368 38.967 42.3311 38.9727 42.3311C39.0693 42.2857 40.6442 41.5141 41.4117 40.6858C42.1736 39.8745 43.9645 39.5285 44.1294 39.4945C44.1351 39.4945 44.1465 39.4944 44.1521 39.4887C44.2999 39.4774 45.8123 39.398 46.3012 39.8292C46.3012 39.8292 47.1426 40.5553 46.7674 41.7297C46.7617 41.7468 46.7561 41.7694 46.7561 41.7864C46.7504 42.0191 46.6879 43.619 45.7952 44.4246C45.7555 44.4643 45.7326 44.5153 45.7326 44.5721V44.6799C45.7326 44.8728 45.9771 44.9579 46.0965 44.8104C46.5457 44.2657 47.262 43.2162 47.3814 41.985C47.3814 41.9793 47.3814 41.9794 47.3814 41.9737C47.3985 41.8773 47.6373 40.3681 46.8186 39.4321C46.8129 39.4264 46.8073 39.4207 46.8016 39.415C46.7049 39.3243 45.8009 38.5413 44.0952 38.91C44.0896 38.91 44.0782 38.9158 44.0725 38.9158C43.9134 38.9271 42.219 39.0859 41.082 40.266C41.0763 40.2717 41.0649 40.2831 41.0592 40.2887C40.8546 40.4362 38.4439 42.1893 37.4547 42.2631C37.4433 42.2631 37.4319 42.263 37.4205 42.2687C37.2898 42.3028 35.931 42.8417 35.2772 42.8871C35.0554 42.9041 34.4357 42.2347 35.732 41.9227C36.4881 41.7411 37.5058 41.2135 38.063 40.7312C38.8647 40.0334 39.5185 39.0859 39.5924 38.9838C39.5981 38.9781 39.5981 38.9725 39.6038 38.9668C39.6891 38.8023 40.7636 36.7088 40.6272 35.8238C40.6272 35.8068 40.6215 35.7898 40.6272 35.7784C40.6442 35.5685 40.7409 33.9629 40.0132 32.6467C40.0075 32.6353 39.996 32.6184 39.9847 32.607C39.8937 32.5049 39.4333 32.0453 38.9784 32.397C38.9784 32.397 38.4099 32.6808 37.6423 34.5246C36.8975 36.306 34.9644 37.5315 34.8337 37.6109C34.828 37.6165 34.8223 37.6165 34.8223 37.6222C34.6575 37.747 31.377 40.1639 29.2165 40.283C29.2051 40.283 29.1994 40.2831 29.1881 40.2887C28.9209 40.3455 24.4237 41.2249 20.785 40.4589C20.785 40.4589 18.2379 39.8518 17.9536 38.9611C17.948 38.9385 17.9366 38.9215 17.9252 38.8987C17.8456 38.7853 17.5386 38.3144 17.8854 38.0194C18.272 37.6903 20.0061 36.3911 20.097 36.3231C20.1027 36.3231 20.1027 36.3174 20.1027 36.3174C20.188 36.2493 21.5298 35.1203 21.9164 34.9047C21.9164 34.9047 23.224 34.1672 23.6789 33.0325C24.1337 31.8979 25.1002 30.3093 25.3276 30.1391C25.4926 30.0143 30.9562 25.6571 37.5968 24.6927H37.6196C37.864 24.6813 42.3613 24.4941 45.4541 25.5437C48.4219 26.5479 50.4971 28.0456 51.185 28.8852C51.259 28.9761 51.3954 28.9874 51.4807 28.9136L51.6171 28.7945C51.7024 28.7208 51.7138 28.5959 51.6399 28.5109C51.5602 28.4144 51.583 28.2669 51.6967 28.2045L55.0966 26.2302C55.2046 26.1677 55.3468 26.2131 55.3923 26.3322C55.5685 26.7918 55.8869 27.9151 55.4093 29.1746C55.0682 30.0767 54.4598 31.6085 53.9823 32.8056C53.8913 33.0325 54.204 33.197 54.3404 32.9985L54.5167 32.7375C54.619 32.59 54.8521 32.6353 54.8862 32.8112C55.125 33.9402 55.6026 36.9074 54.6133 38.9838C54.6133 38.9895 54.6076 38.9952 54.6076 39.0009C54.5451 39.1768 53.4877 42.0985 52.1118 43.4771L49.2406 46.3933C49.161 46.4727 49.161 46.6032 49.2406 46.6826L49.4055 46.8471C49.485 46.9265 49.6158 46.9265 49.6954 46.8471C50.3663 46.172 53.1579 43.3353 53.7548 42.3425C54.4314 41.2135 56.4384 37.1684 55.9153 35.4493C55.9096 35.4267 55.9039 35.4097 55.9039 35.3869C55.9096 35.1203 55.9096 33.214 55.1591 31.6539C55.1307 31.5971 55.1307 31.5291 55.1591 31.4723C55.4207 30.939 56.7511 28.1251 56.6488 26.7691C56.6488 26.7691 56.6032 24.2615 55.6822 23.263C55.5628 23.1382 55.3525 23.2006 55.3297 23.3708C55.216 24.114 54.5792 25.8557 51.2021 27.8016C51.1224 27.8414 51.0372 27.8357 50.969 27.7846Z" fill="#141414"/>
<path d="M41.3721 29.8101C41.3721 29.8101 43.5723 30.9334 43.686 32.295C43.7997 33.651 43.9874 35.0409 42.5262 36.1359L43.0038 34.9047L43.1175 33.4297L42.8332 31.8411L42.6058 30.9334L41.3721 29.8101Z" fill="#FF8F00"/>
<path d="M45.6758 31.274C45.6758 31.274 44.9936 30.1394 44.3682 30.0259C44.3682 30.0259 46.4149 33.1916 45.5052 36.0056L45.926 35.5517L46.3581 34.1107L45.6758 31.274Z" fill="#FF8F00"/>
<path d="M41.071 30.9332C41.071 30.9332 40.2182 30.0255 39.7064 30.0255C39.7064 30.0255 38.6831 29.7985 38.0577 30.4793C38.0577 30.4793 37.0343 32.1246 36.4658 32.2948C36.4658 32.2948 35.6129 32.9189 34.2485 32.465L34.1348 32.0112C34.1348 32.0112 34.5896 30.7062 34.2485 30.1389C34.2485 30.1389 34.9307 30.0255 35.2718 30.0255C35.2718 30.0255 34.5327 29.685 33.623 29.8553C33.623 29.8553 32.4291 30.1389 31.8037 30.5361C31.8037 30.5361 30.7803 31.3303 30.3255 31.8409C29.8706 32.3515 28.9041 33.4862 28.9041 33.4862C28.9041 33.4862 27.4828 35.018 27.0279 35.1315C27.0279 35.1315 26.1182 35.869 24.5264 35.7555C24.5264 35.7555 25.544 36.0619 26.2889 35.7669C26.2889 35.7669 26.5163 35.7555 27.6533 35.3016C27.6533 35.3016 28.6597 35.9201 29.3817 35.8974C29.3817 35.8974 31.0646 35.869 31.4626 34.791C31.4626 34.791 30.5529 35.4151 29.5864 35.3016C29.5864 35.3016 28.2788 35.0748 28.2788 34.791L29.0178 34.2237C29.0178 34.2237 30.4392 34.5642 31.2352 34.3372C32.0311 34.1103 32.8839 33.9174 33.822 32.8508C33.822 32.8508 33.9073 33.6564 33.6799 34.0536C33.6799 34.0536 33.4525 34.6209 33.0545 34.9045C33.0545 34.9045 33.9073 34.4507 34.1916 33.5997C34.1916 33.5997 34.2996 33.0663 34.3053 32.8508C34.3053 32.8508 35.5561 33.0096 36.0109 32.8508C36.0109 32.8508 37.148 32.5785 37.9439 31.614C38.7399 30.6495 38.9673 30.6495 38.9673 30.6495C38.9673 30.6495 39.7633 30.4226 40.275 30.763C40.275 30.763 41.0141 31.3871 41.1847 31.8409C41.1847 31.8409 41.7532 33.2025 41.7532 33.3727C41.7532 33.3103 41.7532 33.2025 41.7532 33.2025C41.7532 33.2025 41.81 31.6707 41.071 30.9332ZM32.8669 32.8508C32.8669 32.8508 32.0311 33.8266 29.8138 33.7131C29.8138 33.7131 30.9509 32.2948 31.0646 32.1246C31.1783 31.9544 31.8037 31.1601 32.5428 30.9332C33.2819 30.7062 33.623 30.7062 33.623 30.5928C33.623 30.5928 33.6799 32.238 32.8669 32.8508Z" fill="#141414"/>
<path d="M40.8438 29.5151C40.8438 29.5151 42.4357 31.1036 42.6631 31.671C42.6631 31.671 43.4591 33.7134 42.5494 35.302C42.5494 35.302 41.8671 37.2876 41.2986 37.628C41.2986 37.628 43.118 36.3799 43.2317 34.5077C43.2317 34.5077 43.8571 32.4086 42.6063 30.9335C42.6063 30.9335 41.526 29.7421 40.8438 29.5151Z" fill="#141414"/>
<path d="M45.1641 30.7632C45.1641 30.7632 47.0971 34.848 45.2778 36.2096C45.2778 36.2096 46.6991 35.6422 46.5285 33.2027C46.5285 33.2027 47.8362 33.77 48.4047 34.3374C48.4047 34.3374 49.9398 36.2096 49.9398 37.2308C49.9398 37.2308 50.4515 39.2732 49.7124 40.7482C49.7124 40.7482 48.689 43.585 47.7793 44.3792L46.6422 45.7975C46.6422 45.7975 49.0302 44.0956 49.7693 42.1666C50.5083 40.2376 50.622 38.8193 50.4515 37.8549C50.4515 37.8549 49.9967 35.1884 48.7458 34.1672C48.7458 34.1672 46.9266 32.5786 46.3011 32.3517C46.3011 32.3517 46.0737 31.0468 45.1641 30.7632Z" fill="#141414"/>
<path d="M32.144 32.8058C32.4894 32.8058 32.7693 32.5263 32.7693 32.1817C32.7693 31.837 32.4894 31.5576 32.144 31.5576C31.7985 31.5576 31.5186 31.837 31.5186 32.1817C31.5186 32.5263 31.7985 32.8058 32.144 32.8058Z" fill="#FF8F00"/>
<path d="M41.7532 17.4312L42.4355 19.0197L36.8353 20.9656L36.4658 19.3034L41.7532 17.4312Z" fill="#3F3F3F"/>
<path fill-rule="evenodd" clip-rule="evenodd" d="M41.8772 17.1455L42.7396 19.1534L36.6677 21.2633L36.1992 19.156L41.8772 17.1455ZM36.7304 19.4495L37.001 20.6669L42.1294 18.8848L41.6273 17.7156L36.7304 19.4495Z" fill="#141414"/>
<path d="M46.6992 17.998C46.6992 17.998 43.7427 19.5866 42.9468 21.5723C42.9468 21.5723 42.492 22.6615 42.4351 23.1948C42.4351 23.1948 41.8665 21.8559 41.9803 21.6857C41.9803 21.6857 36.9771 22.4233 35.2715 23.3877C35.2715 23.3877 46.0738 18.1115 46.6992 17.998Z" fill="#828282"/>
<path d="M35.0152 23.7284C35.2507 23.7284 35.4417 23.5379 35.4417 23.3029C35.4417 23.0679 35.2507 22.8774 35.0152 22.8774C34.7797 22.8774 34.5889 23.0679 34.5889 23.3029C34.5889 23.5379 34.7797 23.7284 35.0152 23.7284Z" fill="#FF8F00"/>
<path fill-rule="evenodd" clip-rule="evenodd" d="M35.0164 22.9338C34.8124 22.9338 34.6469 23.0989 34.6469 23.3025C34.6469 23.5062 34.8124 23.6713 35.0164 23.6713C35.2206 23.6713 35.386 23.5062 35.386 23.3025C35.386 23.0989 35.2206 22.9338 35.0164 22.9338ZM34.5332 23.3025C34.5332 23.0362 34.7496 22.8203 35.0164 22.8203C35.2834 22.8203 35.4997 23.0362 35.4997 23.3025C35.4997 23.5689 35.2834 23.7848 35.0164 23.7848C34.7496 23.7848 34.5332 23.5689 34.5332 23.3025Z" fill="#141414"/>
<path d="M40.985 23.4448C41.2205 23.4448 41.4114 23.2542 41.4114 23.0192C41.4114 22.7842 41.2205 22.5938 40.985 22.5938C40.7495 22.5938 40.5586 22.7842 40.5586 23.0192C40.5586 23.2542 40.7495 23.4448 40.985 23.4448Z" fill="#FF8F00"/>
<path fill-rule="evenodd" clip-rule="evenodd" d="M40.9853 22.6501C40.7811 22.6501 40.6157 22.8152 40.6157 23.0189C40.6157 23.2225 40.7811 23.3876 40.9853 23.3876C41.1893 23.3876 41.3548 23.2225 41.3548 23.0189C41.3548 22.8152 41.1893 22.6501 40.9853 22.6501ZM40.502 23.0189C40.502 22.7525 40.7183 22.5366 40.9853 22.5366C41.2521 22.5366 41.4685 22.7525 41.4685 23.0189C41.4685 23.2852 41.2521 23.5011 40.9853 23.5011C40.7183 23.5011 40.502 23.2852 40.502 23.0189Z" fill="#141414"/>
<path d="M37.8014 23.4448C38.0369 23.4448 38.2278 23.2542 38.2278 23.0192C38.2278 22.7842 38.0369 22.5938 37.8014 22.5938C37.5659 22.5938 37.375 22.7842 37.375 23.0192C37.375 23.2542 37.5659 23.4448 37.8014 23.4448Z" fill="#FF8F00"/>
<path fill-rule="evenodd" clip-rule="evenodd" d="M37.8016 22.6501C37.5975 22.6501 37.4321 22.8152 37.4321 23.0189C37.4321 23.2225 37.5975 23.3876 37.8016 23.3876C38.0057 23.3876 38.1712 23.2225 38.1712 23.0189C38.1712 22.8152 38.0057 22.6501 37.8016 22.6501ZM37.3184 23.0189C37.3184 22.7525 37.5347 22.5366 37.8016 22.5366C38.0685 22.5366 38.2849 22.7525 38.2849 23.0189C38.2849 23.2852 38.0685 23.5011 37.8016 23.5011C37.5347 23.5011 37.3184 23.2852 37.3184 23.0189Z" fill="#141414"/>
<path d="M49.8254 47.1592L48.9726 46.0812C48.9726 46.0812 46.1867 45.5876 45.7318 44.5835C45.7318 44.5835 45.567 44.3792 43.1223 45.7976C43.1223 45.7976 42.15 46.7053 40.1601 45.9678C40.1601 45.9678 36.7488 44.4927 34.7589 44.8331C34.7589 44.8331 32.6383 45.0317 31.5069 45.8657C31.5069 45.8657 29.3578 47.8967 30.04 48.1237C30.04 48.1237 30.3812 48.4073 31.2909 48.0102C32.2005 47.613 34.162 48.2201 34.162 48.2201C34.162 48.2201 37.5448 49.3151 38.2271 50.4497C38.2271 50.4497 39.819 52.4638 39.1368 54.977C39.1368 54.977 38.5682 56.9741 36.2372 57.6549C36.2372 57.6549 34.9295 58.052 35.7823 58.5626C35.7823 58.5626 36.5783 58.9598 41.1835 57.2578C45.7887 55.5557 46.0161 53.502 46.0161 53.502C46.0161 53.502 46.9258 51.8 46.0161 49.3378L49.8254 47.1592Z" fill="#686868"/>
<path fill-rule="evenodd" clip-rule="evenodd" d="M46.0397 44.3313C46.041 44.3329 46.0423 44.3345 45.7323 44.5836L46.0423 44.3345L46.0741 44.3739L46.095 44.42C46.1562 44.5553 46.3255 44.722 46.6297 44.8974C46.9219 45.0659 47.2844 45.2118 47.6484 45.3321C48.0099 45.4515 48.3599 45.5415 48.6204 45.6017C48.7503 45.6317 48.8571 45.6541 48.9309 45.6689C48.9678 45.6763 48.9963 45.6818 49.0154 45.6854C49.0249 45.6872 49.0321 45.6884 49.0367 45.6893L49.0416 45.6902L49.0426 45.6904L49.1916 45.7168L50.4243 47.2748L46.4997 49.5194C46.8708 50.6841 46.8636 51.6784 46.7511 52.4041C46.6899 52.7987 46.5977 53.1129 46.5192 53.3316C46.48 53.441 46.4441 53.5267 46.417 53.5868C46.4103 53.6017 46.4042 53.615 46.3986 53.6267C46.3947 53.6456 46.3898 53.6674 46.3835 53.6919C46.3635 53.7703 46.3302 53.8763 46.2755 54.0049C46.1657 54.2627 45.971 54.6081 45.6276 55.0023C44.941 55.7906 43.6707 56.7623 41.3223 57.6303C39.0065 58.4861 37.6272 58.8224 36.8143 58.9415C36.4071 59.0012 36.1335 59.0076 35.9503 58.9943C35.8582 58.9877 35.7867 58.9758 35.7312 58.9622C35.7033 58.9553 35.6792 58.9481 35.6583 58.9406C35.6479 58.9368 35.6383 58.9331 35.6294 58.9292C35.6271 58.9283 35.6248 58.9273 35.6226 58.9263C35.6205 58.9254 35.6185 58.9245 35.6166 58.9236C35.6145 58.9226 35.6126 58.9217 35.6106 58.9208L35.6077 58.9194L35.6063 58.9187C35.6056 58.9184 35.6049 58.918 35.7828 58.5628L35.6049 58.918L35.5912 58.9112L35.5781 58.9033C35.3314 58.7556 35.0882 58.5279 35.0963 58.1958C35.1037 57.8907 35.3255 57.6932 35.4534 57.5985C35.6019 57.4886 35.7732 57.4083 35.8943 57.3582C35.9573 57.3321 36.0124 57.3119 36.0522 57.2981C36.0722 57.2912 36.0885 57.2857 36.1004 57.2819C36.1063 57.2799 36.1112 57.2784 36.1148 57.2773L36.1192 57.2759L36.1208 57.2754L36.1216 57.2752C36.1217 57.2751 36.1218 57.2751 36.2377 57.6551L36.1216 57.2752L36.1239 57.2745L36.1259 57.2739C37.1924 56.9624 37.8492 56.3536 38.2417 55.8245C38.4389 55.5588 38.5692 55.3132 38.6494 55.1362C38.6895 55.0478 38.7168 54.9771 38.7336 54.9303C38.742 54.9069 38.7478 54.8896 38.7512 54.879C38.7527 54.8744 38.7537 54.8711 38.7543 54.8691C39.0653 53.719 38.859 52.6776 38.5665 51.9127C38.4203 51.5303 38.2541 51.2216 38.1254 51.0098C38.0611 50.904 38.0065 50.8229 37.9689 50.7695C37.9502 50.7428 37.9356 50.7231 37.9263 50.7107C37.9218 50.7044 37.9184 50.7001 37.9165 50.6976L37.9151 50.6958L37.9146 50.6952L37.8994 50.6759L37.8864 50.6542C37.7656 50.4534 37.4931 50.2131 37.091 49.9579C36.7007 49.7101 36.2331 49.4759 35.7767 49.2721C35.3218 49.069 34.8864 48.9001 34.5643 48.7817C34.4034 48.7227 34.2714 48.6764 34.1799 48.6451C34.1342 48.6295 34.0987 48.6175 34.0748 48.6096C34.0629 48.6056 34.0539 48.6026 34.0479 48.6007L34.0424 48.5989L34.0409 48.5984C34.0378 48.5975 34.0329 48.596 34.0263 48.594C34.0131 48.5901 33.9931 48.5842 33.9669 48.5768C33.9147 48.5618 33.838 48.5406 33.7429 48.5163C33.5523 48.4675 33.2898 48.4067 33.0016 48.3579C32.712 48.3089 32.4048 48.2737 32.1224 48.2727C31.8335 48.2717 31.6045 48.3071 31.4509 48.3742C30.9477 48.5939 30.565 48.6411 30.2824 48.6109C30.1416 48.5958 30.0306 48.562 29.9471 48.5251C29.9107 48.509 29.8801 48.4927 29.8551 48.4775C29.7745 48.4418 29.6961 48.3875 29.6328 48.3079C29.5537 48.2084 29.5197 48.0965 29.5111 47.995C29.4956 47.8106 29.5611 47.6341 29.6223 47.5052C29.7512 47.2337 29.9847 46.9256 30.2136 46.6541C30.4487 46.3752 30.7038 46.1062 30.8982 45.9085C30.996 45.8092 31.0792 45.727 31.1383 45.6695C31.1679 45.6406 31.1914 45.6179 31.2077 45.6023C31.2159 45.5945 31.2222 45.5884 31.2266 45.5843L31.2317 45.5794L31.2336 45.5775C31.2337 45.5775 31.2337 45.5774 31.5074 45.8658L31.2336 45.5775L31.2514 45.5608L31.2709 45.5464C31.9052 45.0788 32.7852 44.8064 33.4686 44.6498C33.8172 44.5699 34.1284 44.5172 34.3527 44.4844C34.4651 44.468 34.5561 44.4564 34.6197 44.449C34.6515 44.4452 34.6764 44.4425 34.6938 44.4407C34.6986 44.4402 34.7029 44.4398 34.7066 44.4394C35.799 44.2574 37.2207 44.5668 38.3195 44.8922C38.8821 45.0588 39.3803 45.236 39.7378 45.3715C39.9168 45.4393 40.061 45.4969 40.1609 45.5376C40.2108 45.5581 40.2498 45.5743 40.2765 45.5855C40.2899 45.5912 40.3002 45.5955 40.3073 45.5986L40.3084 45.599C41.2237 45.9364 41.8759 45.8879 42.2826 45.7764C42.4893 45.7198 42.6396 45.6449 42.7342 45.5879C42.7815 45.5594 42.815 45.5354 42.8345 45.5204C42.8442 45.513 42.8505 45.5078 42.8532 45.5054C42.853 45.5056 42.8535 45.5053 42.8532 45.5054L42.8838 45.477L42.9227 45.4544C44.1506 44.7421 44.8274 44.4242 45.2079 44.2857C45.3957 44.2173 45.5353 44.1836 45.646 44.1773C45.7029 44.1742 45.7686 44.1772 45.8362 44.1977C45.8711 44.2082 45.9079 44.2239 45.9441 44.2469C45.9621 44.2585 45.9797 44.2715 45.9963 44.2864C46.0047 44.2937 46.0127 44.3015 46.0203 44.3095C46.0242 44.3135 46.028 44.3177 46.0316 44.3218C46.0335 44.3239 46.0353 44.326 46.0371 44.3281L46.0397 44.3313ZM40.0024 46.3323L40.0008 46.3316L39.9943 46.3289C39.9884 46.3263 39.9793 46.3225 39.9672 46.3174C39.9429 46.3072 39.9066 46.292 39.8595 46.2728C39.765 46.2342 39.6272 46.1792 39.4553 46.1141C39.111 45.9836 38.632 45.8132 38.0931 45.6536C36.9936 45.3281 35.7223 45.0715 34.8267 45.2247L34.8117 45.2273L34.7967 45.2287L34.7927 45.2291C34.7894 45.2294 34.7841 45.2299 34.777 45.2306C34.7627 45.2321 34.741 45.2345 34.7126 45.2378C34.6557 45.2445 34.5723 45.255 34.4682 45.2702C34.2595 45.3008 33.9699 45.3498 33.6468 45.4238C32.9957 45.573 32.2604 45.8125 31.7634 46.171C31.762 46.1723 31.7607 46.1736 31.7592 46.175C31.7443 46.1893 31.7223 46.2104 31.6945 46.2376C31.6387 46.292 31.5594 46.3703 31.4663 46.4649C31.2792 46.6551 31.0396 46.9081 30.8227 47.1653C30.6105 47.4171 30.441 47.6486 30.3543 47.8196C30.3584 47.8201 30.3627 47.8206 30.3672 47.8211C30.4827 47.8334 30.7254 47.824 31.1319 47.6465C31.4331 47.515 31.7904 47.4773 32.1251 47.4785C32.4663 47.4797 32.82 47.5217 33.1345 47.5748C33.4504 47.6282 33.7352 47.6943 33.9407 47.7469C34.0437 47.7733 34.1274 47.7964 34.1859 47.8131C34.2152 47.8215 34.2382 47.8283 34.2542 47.833C34.2621 47.8354 34.2684 47.8373 34.2728 47.8386L34.278 47.8402L34.2803 47.8409C34.2804 47.8409 34.2804 47.8409 34.1625 48.2203C34.2853 47.8425 34.2854 47.8425 34.2855 47.8425L34.2885 47.8436L34.2965 47.8462C34.3035 47.8484 34.3135 47.8517 34.3265 47.8561C34.3525 47.8647 34.3903 47.8775 34.4385 47.8939C34.5347 47.9269 34.6722 47.975 34.8392 48.0364C35.1726 48.1588 35.6256 48.3345 36.1017 48.5471C36.5763 48.7589 37.0824 49.0111 37.5182 49.2878C37.9344 49.5519 38.3331 49.8669 38.5562 50.2249C38.5587 50.2281 38.5613 50.2316 38.5642 50.2355C38.5779 50.2538 38.597 50.2799 38.6204 50.3132C38.6672 50.3797 38.7317 50.4756 38.806 50.5979C38.9544 50.8422 39.1436 51.194 39.3101 51.6295C39.6426 52.499 39.891 53.7196 39.5214 55.0811L39.5208 55.0834L39.5201 55.0857L39.1373 54.9772C39.5201 55.0857 39.5201 55.0855 39.5201 55.0857L39.5196 55.0876L39.5188 55.0901C39.5182 55.0922 39.5175 55.0946 39.5166 55.0975C39.5148 55.1033 39.5125 55.1111 39.5094 55.1206C39.5034 55.1396 39.4946 55.1658 39.4829 55.1984C39.4596 55.2635 39.4242 55.3541 39.3746 55.4636C39.2754 55.6823 39.1179 55.9784 38.8815 56.2971C38.4073 56.9363 37.6153 57.6656 36.3527 58.0352C36.3513 58.0357 36.3491 58.0364 36.346 58.0373C36.3392 58.0396 36.3282 58.0432 36.3141 58.0481C36.2858 58.058 36.2454 58.0728 36.1992 58.0919C36.1242 58.1229 36.0465 58.1602 35.9819 58.1999C35.9898 58.2007 35.9985 58.2014 36.0081 58.2021C36.118 58.2101 36.3312 58.2095 36.6987 58.1557C37.435 58.0478 38.7564 57.7316 41.0458 56.8855C43.3025 56.0514 44.4486 55.1453 45.0269 54.4812C45.3161 54.1493 45.466 53.8748 45.5428 53.6944C45.5814 53.6039 45.6018 53.5361 45.6123 53.4955C45.6174 53.4752 45.6201 53.4616 45.6213 53.4552C45.6214 53.4543 45.6216 53.4536 45.6217 53.453L45.6294 53.3826L45.6646 53.3168L45.6651 53.316C45.6658 53.3146 45.6673 53.3117 45.6695 53.3072C45.674 53.2981 45.6813 53.2829 45.6909 53.2616C45.71 53.219 45.738 53.1525 45.7699 53.0639C45.8335 52.8865 45.912 52.6213 45.9645 52.2827C46.0692 51.6071 46.0718 50.6352 45.6432 49.4753L45.5268 49.1603L49.2275 47.0438L48.7522 46.4432C48.6735 46.4272 48.5673 46.4047 48.441 46.3755C48.1649 46.3118 47.79 46.2155 47.3982 46.0861C47.0088 45.9575 46.5896 45.7916 46.2315 45.5852C45.9751 45.4373 45.7168 45.25 45.5326 45.0136C45.5167 45.019 45.4995 45.0251 45.4807 45.0319C45.1704 45.1448 44.5504 45.4301 43.3539 46.1231C43.3441 46.131 43.3327 46.1401 43.3197 46.1501C43.2783 46.1819 43.2202 46.223 43.1453 46.2681C42.9955 46.3583 42.7783 46.4642 42.4933 46.5424C41.9177 46.7001 41.0918 46.7367 40.0221 46.3402L40.0122 46.3365L40.0024 46.3323ZM35.8734 58.1354C35.8736 58.1354 35.8749 58.1369 35.8767 58.1399C35.8741 58.137 35.8733 58.1354 35.8734 58.1354ZM34.1625 48.2203L34.2855 47.8425L34.2828 47.8417L34.2803 47.8409L34.1625 48.2203Z" fill="#141414"/>
<path d="M40.1387 46.3025L39.7465 47.9875L34.0781 46.2571L34.7603 44.7026L40.1387 46.3025Z" fill="#3F3F3F"/>
<path fill-rule="evenodd" clip-rule="evenodd" d="M34.632 44.4277L40.4079 46.1459L39.9122 48.2755L33.7666 46.3995L34.632 44.4277ZM34.8873 44.9773L34.3881 46.1146L39.5793 47.6993L39.8682 46.4589L34.8873 44.9773Z" fill="#141414"/>
<path d="M43.5722 51.8682L41.9803 53.9106L41.3719 51.8682L41.2412 52.7192L41.3549 54.9885H41.696L42.8331 54.3077L43.5722 53.1617L43.9134 52.3221L43.5722 51.8682Z" fill="#828282"/>
<path d="M41.3719 51.8682H40.4395C40.4395 51.8682 41.1274 54.8183 40.5589 55.6693C40.5589 55.6693 43.9133 55.3857 44.3681 51.8682H43.5721C43.5721 51.8682 43.6858 53.7404 41.6391 54.7048L41.3719 51.8682Z" fill="#141414"/>
<path d="M42.5772 47.4146L41.8097 50.0527L35.2715 47.6699L41.0365 48.7364L42.5772 47.4146Z" fill="#828282"/>
<path d="M35.5836 46.2514C35.8191 46.2514 36.01 46.0609 36.01 45.8259C36.01 45.5909 35.8191 45.4004 35.5836 45.4004C35.3481 45.4004 35.1572 45.5909 35.1572 45.8259C35.1572 46.0609 35.3481 46.2514 35.5836 46.2514Z" fill="#FF8F00"/>
<path fill-rule="evenodd" clip-rule="evenodd" d="M35.5848 45.4572C35.3807 45.4572 35.2153 45.6223 35.2153 45.8259C35.2153 46.0296 35.3807 46.1947 35.5848 46.1947C35.7889 46.1947 35.9543 46.0296 35.9543 45.8259C35.9543 45.6223 35.7889 45.4572 35.5848 45.4572ZM35.1016 45.8259C35.1016 45.5596 35.3179 45.3438 35.5848 45.3438C35.8517 45.3438 36.0681 45.5596 36.0681 45.8259C36.0681 46.0923 35.8517 46.3082 35.5848 46.3082C35.3179 46.3082 35.1016 46.0923 35.1016 45.8259Z" fill="#141414"/>
<path d="M32.6852 47.1025C32.9207 47.1025 33.1115 46.9119 33.1115 46.6769C33.1115 46.442 32.9207 46.2515 32.6852 46.2515C32.4497 46.2515 32.2588 46.442 32.2588 46.6769C32.2588 46.9119 32.4497 47.1025 32.6852 47.1025Z" fill="#FF8F00"/>
<path fill-rule="evenodd" clip-rule="evenodd" d="M32.6844 46.3083C32.4803 46.3083 32.3149 46.4735 32.3149 46.6771C32.3149 46.8808 32.4803 47.0458 32.6844 47.0458C32.8885 47.0458 33.0539 46.8808 33.0539 46.6771C33.0539 46.4735 32.8885 46.3083 32.6844 46.3083ZM32.2012 46.6771C32.2012 46.4108 32.4175 46.1948 32.6844 46.1948C32.9513 46.1948 33.1677 46.4108 33.1677 46.6771C33.1677 46.9434 32.9513 47.1593 32.6844 47.1593C32.4175 47.1593 32.2012 46.9434 32.2012 46.6771Z" fill="#141414"/>
<path d="M39.8483 56.7475C40.0838 56.7475 40.2747 56.5569 40.2747 56.322C40.2747 56.087 40.0838 55.8965 39.8483 55.8965C39.6128 55.8965 39.4219 56.087 39.4219 56.322C39.4219 56.5569 39.6128 56.7475 39.8483 56.7475Z" fill="#FF8F00"/>
<path fill-rule="evenodd" clip-rule="evenodd" d="M39.8485 55.9533C39.6444 55.9533 39.4789 56.1185 39.4789 56.3221C39.4789 56.5258 39.6444 56.6909 39.8485 56.6909C40.0526 56.6909 40.2181 56.5258 40.2181 56.3221C40.2181 56.1185 40.0526 55.9533 39.8485 55.9533ZM39.3652 56.3221C39.3652 56.0558 39.5816 55.8398 39.8485 55.8398C40.1154 55.8398 40.3318 56.0558 40.3318 56.3221C40.3318 56.5884 40.1154 56.8043 39.8485 56.8043C39.5816 56.8043 39.3652 56.5884 39.3652 56.3221Z" fill="#141414"/>
<path d="M47.5807 47.4999C47.8162 47.4999 48.0071 47.3094 48.0071 47.0744C48.0071 46.8394 47.8162 46.6489 47.5807 46.6489C47.3452 46.6489 47.1543 46.8394 47.1543 47.0744C47.1543 47.3094 47.3452 47.4999 47.5807 47.4999Z" fill="#FF8F00"/>
<path fill-rule="evenodd" clip-rule="evenodd" d="M47.5809 46.7053C47.3768 46.7053 47.2114 46.8704 47.2114 47.074C47.2114 47.2777 47.3768 47.4428 47.5809 47.4428C47.785 47.4428 47.9505 47.2777 47.9505 47.074C47.9505 46.8704 47.785 46.7053 47.5809 46.7053ZM47.0977 47.074C47.0977 46.8077 47.314 46.5918 47.5809 46.5918C47.8478 46.5918 48.0642 46.8077 48.0642 47.074C48.0642 47.3404 47.8478 47.5563 47.5809 47.5563C47.314 47.5563 47.0977 47.3404 47.0977 47.074Z" fill="#141414"/>
<path d="M45.3629 46.4218C45.5984 46.4218 45.7893 46.2313 45.7893 45.9963C45.7893 45.7613 45.5984 45.5708 45.3629 45.5708C45.1274 45.5708 44.9365 45.7613 44.9365 45.9963C44.9365 46.2313 45.1274 46.4218 45.3629 46.4218Z" fill="#FF8F00"/>
<path fill-rule="evenodd" clip-rule="evenodd" d="M45.3631 45.6271C45.159 45.6271 44.9936 45.7922 44.9936 45.9959C44.9936 46.1995 45.159 46.3647 45.3631 46.3647C45.5672 46.3647 45.7326 46.1995 45.7326 45.9959C45.7326 45.7922 45.5672 45.6271 45.3631 45.6271ZM44.8799 45.9959C44.8799 45.7296 45.0962 45.5137 45.3631 45.5137C45.63 45.5137 45.8463 45.7296 45.8463 45.9959C45.8463 46.2622 45.63 46.4782 45.3631 46.4782C45.0962 46.4782 44.8799 46.2622 44.8799 45.9959Z" fill="#141414"/>
<path d="M38.9381 47.2729C39.1736 47.2729 39.3645 47.0824 39.3645 46.8473C39.3645 46.6124 39.1736 46.4219 38.9381 46.4219C38.7026 46.4219 38.5117 46.6124 38.5117 46.8473C38.5117 47.0824 38.7026 47.2729 38.9381 47.2729Z" fill="#FF8F00"/>
<path fill-rule="evenodd" clip-rule="evenodd" d="M38.9383 46.4787C38.7342 46.4787 38.5688 46.6438 38.5688 46.8474C38.5688 47.0511 38.7342 47.2162 38.9383 47.2162C39.1425 47.2162 39.3079 47.0511 39.3079 46.8474C39.3079 46.6438 39.1425 46.4787 38.9383 46.4787ZM38.4551 46.8474C38.4551 46.5811 38.6715 46.3652 38.9383 46.3652C39.2052 46.3652 39.4216 46.5811 39.4216 46.8474C39.4216 47.1138 39.2052 47.3297 38.9383 47.3297C38.6715 47.3297 38.4551 47.1138 38.4551 46.8474Z" fill="#141414"/>
<path d="M31.5186 40.1069L33.3379 43.074L32.9115 39.2559L31.5186 40.1069Z" fill="white"/>
<path fill-rule="evenodd" clip-rule="evenodd" d="M33.0514 38.9712L33.5924 43.8153L31.2842 40.0509L33.0514 38.9712ZM31.7532 40.1635L33.0837 42.3334L32.7718 39.5411L31.7532 40.1635Z" fill="#141414"/>
<path d="M35.2436 41.8545L32.7988 39.4717L33.3674 42.7622L35.2436 41.8545Z" fill="white"/>
<path fill-rule="evenodd" clip-rule="evenodd" d="M32.584 39.0645L35.4874 41.8943L33.2592 42.9723L32.584 39.0645ZM33.0133 39.8793L33.4751 42.5526L34.9994 41.8152L33.0133 39.8793Z" fill="#141414"/>
<path d="M36.9486 41.0034L34.5039 38.6206L35.0725 41.9112L36.9486 41.0034Z" fill="white"/>
<path fill-rule="evenodd" clip-rule="evenodd" d="M34.2891 38.2134L37.1925 41.0432L34.9643 42.1213L34.2891 38.2134ZM34.7184 39.0283L35.1802 41.7015L36.7044 40.9641L34.7184 39.0283Z" fill="#141414"/>
<path d="M38.3139 40.0961L35.8691 37.7134L36.6651 41.2308L38.3139 40.0961Z" fill="white"/>
<path fill-rule="evenodd" clip-rule="evenodd" d="M35.624 37.2764L38.5361 40.1147L36.5722 41.4663L35.624 37.2764ZM36.113 38.1496L36.7568 40.9946L38.0905 40.0769L36.113 38.1496Z" fill="#141414"/>
<path d="M39.5075 38.6209L37.2334 36.3516L38.3136 39.9825L39.5075 38.6209Z" fill="white"/>
<path fill-rule="evenodd" clip-rule="evenodd" d="M36.9375 35.856L39.7019 38.6145L38.2506 40.2696L36.9375 35.856ZM37.5289 36.8473L38.3763 39.6955L39.3128 38.6274L37.5289 36.8473Z" fill="#141414"/>
<path d="M40.3596 36.5216L38.4834 34.6494L39.7342 38.3371L40.3596 36.5216Z" fill="white"/>
<path fill-rule="evenodd" clip-rule="evenodd" d="M38.1543 34.1201L40.5235 36.4842L39.7337 38.7766L38.1543 34.1201ZM38.8137 35.1792L39.7358 37.898L40.1969 36.5595L38.8137 35.1792Z" fill="#141414"/>
<path d="M32.7988 39.3584L35.1299 42.1383L34.3908 38.4053L32.7988 39.3584Z" fill="white"/>
<path fill-rule="evenodd" clip-rule="evenodd" d="M34.49 38.1797L35.3757 42.6537L32.582 39.322L34.49 38.1797ZM33.0134 39.3945L34.8818 41.6227L34.2894 38.6306L33.0134 39.3945Z" fill="#141414"/>
<path d="M34.334 38.4507L36.665 41.4009L35.9259 37.4976L34.334 38.4507Z" fill="white"/>
<path fill-rule="evenodd" clip-rule="evenodd" d="M36.0274 37.2715L36.912 41.9432L34.1221 38.4122L36.0274 37.2715ZM34.5453 38.4897L36.4174 40.859L35.8238 37.7242L34.5453 38.4897Z" fill="#141414"/>
<path d="M35.9824 37.5428L38.3135 40.2661L37.2901 36.1245L35.9824 37.5428Z" fill="#FF8F00"/>
<path fill-rule="evenodd" clip-rule="evenodd" d="M37.3652 35.834L38.5956 40.8134L35.793 37.5393L37.3652 35.834ZM36.1728 37.5462L38.0322 39.7185L37.2159 36.4148L36.1728 37.5462Z" fill="#141414"/>
<path d="M37.3467 36.2944L39.7345 38.734L38.4838 34.252L37.3467 36.2944Z" fill="white"/>
<path fill-rule="evenodd" clip-rule="evenodd" d="M38.5277 33.8813L40.0201 39.2291L37.1709 36.3183L38.5277 33.8813ZM37.5223 36.2713L39.4489 38.2395L38.4397 34.6235L37.5223 36.2713Z" fill="#141414"/>
<path d="M38.4834 34.2526L40.587 36.8623L39.3931 32.6641L38.4834 34.2526Z" fill="white"/>
<path fill-rule="evenodd" clip-rule="evenodd" d="M39.438 32.3003L40.9153 37.4949L38.3125 34.2658L39.438 32.3003ZM38.6554 34.2387L40.2598 36.2291L39.3492 33.0271L38.6554 34.2387Z" fill="#141414"/>
<path d="M74.0796 29.7383L69.4036 45.6024H63.9941L63.9712 33.8698L60.51 45.6024H55.2151L55.0547 29.7383H59.1806L58.6763 42.4752L62.3667 29.7383H66.7676L66.6759 42.4752L70.0454 29.7383H74.0796Z" fill="black"/>
<path d="M79.5992 29.7383L77.3758 45.6024H73.2041L75.4275 29.7383H79.5992Z" fill="black"/>
<path d="M92.2295 45.6024H86.9572L84.5275 33.2307C84.5734 34.0068 84.5963 34.8209 84.5963 35.673C84.5963 37.2861 84.4817 38.8839 84.2525 40.4665L83.519 45.6024H79.8516L82.0749 29.7383H87.2781L89.7766 42.11C89.7155 41.2731 89.6849 40.3828 89.6849 39.4393C89.6849 38.1002 89.7843 36.7078 89.9829 35.2622L90.7851 29.7383H94.4525L92.2295 45.6024Z" fill="black"/>
<path d="M102.165 29.3271C104.411 29.3271 106.245 30.0348 107.666 31.45L105.512 33.6413C105.023 33.2 104.519 32.8804 103.999 32.6826C103.479 32.4696 102.914 32.3631 102.302 32.3631C101.645 32.3631 101.126 32.5 100.744 32.7739C100.362 33.0478 100.171 33.4206 100.171 33.8924C100.171 34.3032 100.346 34.6305 100.698 34.8739C101.05 35.1174 101.729 35.4065 102.738 35.7413C104.114 36.1978 105.13 36.7837 105.787 37.4989C106.459 38.2141 106.796 39.1424 106.796 40.2837C106.796 41.2576 106.559 42.1859 106.085 43.0685C105.626 43.9359 104.878 44.6511 103.838 45.2141C102.8 45.762 101.462 46.0359 99.8275 46.0359C97.3975 46.0359 95.4032 45.2445 93.8447 43.662L96.229 41.2881C97.237 42.3228 98.467 42.8402 99.919 42.8402C100.698 42.8402 101.302 42.6804 101.729 42.3609C102.173 42.0413 102.395 41.5924 102.395 41.0141C102.395 40.5576 102.218 40.1772 101.867 39.8728C101.516 39.5532 100.897 39.2413 100.01 38.937C98.4977 38.4348 97.4132 37.8185 96.7555 37.0881C96.0985 36.3576 95.77 35.4674 95.77 34.4174C95.77 33.5348 95.9995 32.7054 96.4577 31.9293C96.9317 31.1532 97.6495 30.5293 98.6125 30.0576C99.5755 29.5707 100.76 29.3271 102.165 29.3271Z" fill="black"/>
<path d="M111.915 45.6024H107.743L109.966 29.7383H114.138L113.29 35.7415H117.393L118.241 29.7383H122.413L120.189 45.6024H116.018L116.912 39.0057H112.854L111.915 45.6024Z" fill="black"/>
<path d="M130.857 45.6024L130.605 42.3611H126.456L125.333 45.6024H120.978L127.831 29.7383H132.874L135.258 45.6024H130.857ZM127.488 39.348H130.398L129.871 32.4774L127.488 39.348Z" fill="black"/>
<path d="M149.675 34.0296C149.675 35.1252 149.423 36.0839 148.918 36.9057C148.429 37.7274 147.513 38.4502 146.168 39.0741L149.079 45.6024H144.541L142.294 39.7589H141.056L140.231 45.6024H136.06L138.283 29.7383H143.738C145.663 29.7383 147.13 30.1263 148.139 30.9024C149.163 31.6632 149.675 32.7057 149.675 34.0296ZM141.446 36.8829H142.867C143.738 36.8829 144.373 36.6318 144.769 36.1296C145.167 35.6122 145.366 34.9959 145.366 34.2807C145.366 33.7329 145.19 33.3296 144.838 33.0708C144.487 32.8122 143.952 32.6829 143.234 32.6829H142.042L141.446 36.8829Z" fill="black"/>
<path d="M150.051 45.6024L152.274 29.7383H156.469L154.245 45.6024H150.051ZM159.036 45.6024L155.551 37.1568L161.191 29.7383H165.592L159.838 37.0426L163.78 45.6024H159.036Z" fill="black"/>
<path d="M148.217 43.7382L150.44 27.874H154.635L152.411 43.7382H148.217ZM157.202 43.7382L153.717 35.2925L159.357 27.874H163.758L158.004 35.1784L161.946 43.7382H157.202Z" fill="white"/>
<path d="M147.841 32.1654C147.841 33.261 147.589 34.2197 147.084 35.0415C146.595 35.8632 145.679 36.586 144.334 37.2099L147.245 43.7382H142.707L140.46 37.8947H139.222L138.397 43.7382H134.226L136.449 27.874H141.904C143.829 27.874 145.296 28.2621 146.305 29.0382C147.329 29.799 147.841 30.8415 147.841 32.1654ZM139.612 35.0186H141.033C141.904 35.0186 142.539 34.7675 142.936 34.2654C143.333 33.7479 143.532 33.1317 143.532 32.4165C143.532 31.8686 143.356 31.4654 143.004 31.2066C142.653 30.948 142.118 30.8186 141.4 30.8186H140.208L139.612 35.0186Z" fill="white"/>
<path d="M129.024 43.7382L128.772 40.4969H124.623L123.5 43.7382H119.145L125.998 27.874H131.041L133.425 43.7382H129.024ZM125.655 37.4838H128.565L128.038 30.6132L125.655 37.4838Z" fill="white"/>
<path d="M110.081 43.7382H105.909L108.132 27.874H112.304L111.456 33.8773H115.559L116.407 27.874H120.579L118.355 43.7382H114.184L115.078 37.1415H111.02L110.081 43.7382Z" fill="white"/>
<path d="M100.331 27.4629C102.577 27.4629 104.411 28.1705 105.832 29.5857L103.678 31.777C103.189 31.3357 102.685 31.0162 102.165 30.8183C101.645 30.6053 101.08 30.4987 100.468 30.4987C99.8115 30.4987 99.2925 30.6357 98.91 30.9097C98.5282 31.1836 98.337 31.5564 98.337 32.0281C98.337 32.439 98.5132 32.7661 98.8642 33.0097C99.216 33.2531 99.8955 33.5422 100.904 33.877C102.28 34.3336 103.296 34.9194 103.953 35.6347C104.625 36.3499 104.962 37.2781 104.962 38.4194C104.962 39.3934 104.725 40.3216 104.251 41.2042C103.792 42.0716 103.044 42.7868 102.004 43.3498C100.966 43.8977 99.6285 44.1716 97.9935 44.1716C95.5635 44.1716 93.5692 43.3803 92.0107 41.7977L94.395 39.4237C95.403 40.4585 96.633 40.9759 98.085 40.9759C98.8642 40.9759 99.468 40.8162 99.8955 40.4966C100.339 40.177 100.561 39.7281 100.561 39.1498C100.561 38.6933 100.384 38.3129 100.033 38.0086C99.6817 37.689 99.063 37.3771 98.1765 37.0727C96.6637 36.5705 95.5792 35.9542 94.9215 35.2237C94.2645 34.4933 93.936 33.6031 93.936 32.5531C93.936 31.6705 94.1655 30.8412 94.6237 30.0651C95.0977 29.289 95.8155 28.6651 96.7785 28.1933C97.7415 27.7063 98.9257 27.4629 100.331 27.4629Z" fill="white"/>
<path d="M90.3962 43.7382H85.1243L82.6946 31.3665C82.7404 32.1425 82.7634 32.9567 82.7634 33.8088C82.7634 35.4219 82.6488 37.0197 82.4195 38.6023L81.686 43.7382H78.0186L80.2419 27.874H85.4451L87.9436 40.2458C87.8825 39.4089 87.8519 38.5186 87.8519 37.5751C87.8519 36.236 87.9513 34.8436 88.1499 33.398L88.9521 27.874H92.6195L90.3962 43.7382Z" fill="white"/>
<path d="M77.7662 27.874L75.5428 43.7382H71.3711L73.5945 27.874H77.7662Z" fill="white"/>
<path d="M72.2457 27.874L67.5696 43.7382H62.1602L62.1372 32.0055L58.6761 43.7382H53.3812L53.2207 27.874H57.3466L56.8423 40.611L60.5327 27.874H64.9337L64.842 40.611L68.2114 27.874H72.2457Z" fill="white"/>
<path fill-rule="evenodd" clip-rule="evenodd" d="M147.426 44.4232L149.841 27.1895H155.425L154.613 32.9798L159.014 27.1895H165.17L158.803 35.2727L163.018 44.4232H156.74L153.955 37.6718L153.009 44.4232H147.426ZM154.634 27.8742H150.439L148.216 43.7384H152.41L154.634 27.8742ZM157.201 43.7384H161.946L158.004 35.1786L163.757 27.8742H159.356L153.717 35.2927L157.201 43.7384Z" fill="black"/>
<path fill-rule="evenodd" clip-rule="evenodd" d="M136.448 27.8742H141.904C143.829 27.8742 145.296 28.2623 146.305 29.0384C147.328 29.7992 147.841 30.8417 147.841 32.1656C147.841 33.2612 147.589 34.2199 147.084 35.0417C146.595 35.8634 145.678 36.5862 144.334 37.2101L147.244 43.7384H142.706L140.46 37.8949H139.222L138.397 43.7384H134.225L136.448 27.8742ZM139.819 38.5797L138.994 44.4232H133.435L135.85 27.1895H141.904C143.905 27.1895 145.544 27.59 146.721 28.493C147.923 29.3889 148.528 30.6378 148.528 32.1656C148.528 33.3678 148.251 34.4522 147.673 35.3948C147.172 36.2348 146.333 36.9373 145.228 37.5296L148.302 44.4232H142.233L139.987 38.5797H139.819ZM140.403 34.334H141.033C141.77 34.334 142.168 34.127 142.392 33.8454C142.687 33.4601 142.843 32.9951 142.843 32.4167C142.843 32.0237 142.726 31.8541 142.595 31.7576C142.417 31.6261 142.057 31.5036 141.4 31.5036H140.805L140.403 34.334ZM139.612 35.0188H141.033C141.904 35.0188 142.538 34.7677 142.936 34.2656C143.332 33.7481 143.531 33.1319 143.531 32.4167C143.531 31.8688 143.356 31.4656 143.004 31.2068C142.653 30.9482 142.117 30.8188 141.4 30.8188H140.208L139.612 35.0188Z" fill="black"/>
<path fill-rule="evenodd" clip-rule="evenodd" d="M128.387 44.4232L128.135 41.1818H125.112L123.989 44.4232H118.1L125.545 27.1895H131.633L134.222 44.4232H128.387ZM124.622 40.4971H128.771L129.023 43.7384H133.424L131.04 27.8742H125.997L119.144 43.7384H123.499L124.622 40.4971ZM128.564 37.484L128.037 30.6134L125.654 37.484H128.564ZM126.619 36.7993H127.823L127.604 33.9582L126.619 36.7993Z" fill="black"/>
<path fill-rule="evenodd" clip-rule="evenodd" d="M110.678 44.4232H105.119L107.535 27.1895H113.096L112.248 33.1928H114.962L115.81 27.1895H121.369L118.954 44.4232H113.398L114.292 37.8264H111.618L110.678 44.4232ZM111.021 37.1417H115.078L114.184 43.7384H118.356L120.58 27.8742H116.407L115.56 33.8775H111.457L112.305 27.8742H108.133L105.91 43.7384H110.081L111.021 37.1417Z" fill="black"/>
<path fill-rule="evenodd" clip-rule="evenodd" d="M106.8 29.5808L103.706 32.727L103.216 32.2846C102.778 31.8899 102.346 31.6205 101.92 31.4582L101.911 31.455L101.903 31.4517C101.473 31.2756 100.998 31.1837 100.468 31.1837C99.9007 31.1837 99.5384 31.3029 99.3119 31.4655C99.1109 31.6098 99.0247 31.7751 99.0247 32.0283C99.0247 32.2052 99.0817 32.3264 99.2572 32.4476C99.5182 32.6284 100.11 32.8918 101.122 33.2276C102.556 33.7037 103.692 34.3379 104.458 35.1697C105.267 36.0321 105.649 37.1366 105.649 38.4196C105.649 39.5086 105.383 40.5467 104.858 41.5252C104.325 42.5337 103.466 43.3375 102.333 43.9515L102.33 43.9534L102.326 43.9553C101.157 44.5717 99.6989 44.8565 97.9934 44.8565C95.3977 44.8565 93.2204 44.0039 91.5198 42.2774L91.043 41.7932L94.4017 38.4482L94.8877 38.947C95.7667 39.8486 96.8189 40.2914 98.0849 40.2914C98.7809 40.2914 99.2174 40.1472 99.4829 39.9489L99.4874 39.9455L99.4927 39.9422C99.7447 39.7604 99.8729 39.5245 99.8729 39.15C99.8729 38.8953 99.7859 38.7021 99.5819 38.5255L99.5759 38.52L99.5699 38.5145C99.3269 38.2936 98.8207 38.0186 97.9559 37.7213C96.3944 37.2026 95.1809 36.5381 94.4099 35.6809C93.6314 34.8155 93.2482 33.7589 93.2482 32.5533C93.2482 31.5461 93.5114 30.5972 94.0312 29.718L94.0334 29.7138L94.0364 29.7095C94.5884 28.8047 95.4134 28.0998 96.4709 27.581C97.5539 27.0341 98.8507 26.7783 100.331 26.7783C102.736 26.7783 104.753 27.5424 106.318 29.1017L106.8 29.5808ZM96.7784 28.1935C95.8154 28.6652 95.0977 29.2892 94.6237 30.0653C94.1654 30.8414 93.9359 31.6707 93.9359 32.5533C93.9359 33.6033 94.2644 34.4935 94.9214 35.2239C95.5792 35.9544 96.6637 36.5707 98.1764 37.0729C99.0629 37.3772 99.6817 37.6892 100.033 38.0087C100.384 38.3131 100.561 38.6935 100.561 39.15C100.561 39.7283 100.339 40.1772 99.8954 40.4968C99.4679 40.8164 98.8642 40.9761 98.0849 40.9761C96.6929 40.9761 95.5049 40.5005 94.5202 39.5493C94.4782 39.5084 94.4362 39.4666 94.3949 39.4239L92.0107 41.7979C92.0497 41.8372 92.0887 41.876 92.1277 41.9144C92.2529 42.0368 92.3812 42.1544 92.5124 42.2669C93.9899 43.5368 95.8169 44.1718 97.9934 44.1718C99.6284 44.1718 100.966 43.8979 102.004 43.35C103.044 42.787 103.792 42.0718 104.251 41.2044C104.725 40.3217 104.962 39.3935 104.962 38.4196C104.962 37.2783 104.625 36.35 103.953 35.6348C103.296 34.9196 102.28 34.3337 100.904 33.8772C99.8954 33.5424 99.2159 33.2533 98.8642 33.0098C98.5132 32.7663 98.3369 32.4392 98.3369 32.0283C98.3369 31.5566 98.5282 31.1837 98.9099 30.9098C99.2924 30.6359 99.8114 30.4989 100.468 30.4989C101.08 30.4989 101.645 30.6055 102.165 30.8185C102.685 31.0163 103.189 31.3359 103.678 31.7772L105.832 29.5859C105.795 29.5483 105.757 29.5112 105.718 29.4746C105.59 29.3522 105.459 29.2355 105.324 29.1242C103.983 28.0168 102.319 27.4631 100.331 27.4631C98.9257 27.4631 97.7414 27.7065 96.7784 28.1935Z" fill="black"/>
<path fill-rule="evenodd" clip-rule="evenodd" d="M90.9948 44.4232H84.5583L83.2329 37.6745C83.1939 38.0169 83.1498 38.3586 83.1004 38.6996L82.283 44.4232H77.2285L79.6438 27.1895H86.0085L87.3816 33.9891C87.4083 33.7624 87.4374 33.5345 87.4688 33.3053L87.4692 33.3027L88.357 27.1895H93.4102L90.9948 44.4232ZM87.8756 36.435C87.86 36.8193 87.8521 37.1994 87.8521 37.5753C87.8521 38.5188 87.8827 39.4091 87.9438 40.246L85.4454 27.8742H80.2422L78.0188 43.7384H81.6862L82.4197 38.6025C82.5853 37.4594 82.6911 36.3084 82.737 35.1495C82.7547 34.7039 82.7636 34.257 82.7636 33.809C82.7636 32.9569 82.7406 32.1427 82.6948 31.3667L85.1245 43.7384H90.3964L92.6197 27.8742H88.9524L88.1502 33.3982C88.0072 34.438 87.9157 35.4503 87.8756 36.435Z" fill="black"/>
<path fill-rule="evenodd" clip-rule="evenodd" d="M78.5557 27.1895L76.1404 44.4232H70.5801L72.9954 27.1895H78.5557ZM77.7655 27.8742H73.5937L71.3703 43.7384H75.5421L77.7655 27.8742Z" fill="black"/>
<path fill-rule="evenodd" clip-rule="evenodd" d="M73.1643 27.1895L68.0847 44.4232H64.1154H64.1271H61.4741L61.459 36.7349L59.191 44.4232H55.9322H56.0034H52.7007L52.5264 27.1895H58.0621L57.753 34.999L60.0156 27.1895H65.6265L65.569 35.1758L67.6817 27.1895H73.1643ZM64.8422 40.6112L64.9339 27.8742H60.5329L56.8425 40.6112L57.3468 27.8742H53.2209L53.3814 43.7384H58.6763L62.1375 32.0057L62.1604 43.7384H67.5699L72.2459 27.8742H68.2116L64.8422 40.6112Z" fill="black"/>
</g>
<defs>
<clipPath id="clip0_530_33079">
<rect width="153.75" height="42" fill="white" transform="translate(17 17)"/>
</clipPath>
</defs>
</svg>
